<?xml version="1.0" standalone="no"?>
<!DOCTYPE svg PUBLIC "-//W3C//DTD SVG 1.1//EN" "http://www.w3.org/Graphics/SVG/1.1/DTD/svg11.dtd" >
<svg xmlns="http://www.w3.org/2000/svg">
<metadata>
This is a custom SVG webfont generated by Font Squirrel.
Copyright   : Copyright c 2003 by Bitstream Inc All Rights ReservedDejaVu changes are in public domain
Foundry     : DejaVu fonts team
Foundry URL : httpdejavusourceforgenet
</metadata>
<defs>
<font id="webfontAacRNHJY" horiz-adv-x="1542" >
<font-face units-per-em="2048" ascent="1556" descent="-492" />
<missing-glyph horiz-adv-x="583" />
<glyph unicode="&#xfb00;" horiz-adv-x="1308" d="M68 0v106h157v850h-157v107h157v133q0 178 82 268q83 92 246 92q57 0 119 -12q63 -12 121 -37v-202h-86q-4 76 -39 114q-37 39 -111 39q-90 0 -129 -57q-37 -55 -37 -201v-137h463v131q0 180 82 270t246 90q57 0 118 -12q59 -12 119 -37v-200h-86q-4 74 -39 112 q-37 39 -108 39q-92 0 -129 -55t-37 -203v-135h264v-109h-264v-850h211v-104h-537v104h160v850l-463 2v-850h211v-106h-534z" />
<glyph unicode="&#xfb01;" horiz-adv-x="1228" d="M68 0v106h157v850h-157v107h157v96q0 197 105 297q102 100 311 100q66 0 162 -14q86 -12 162 -39v-217h-86q-4 86 -58 129q-55 43 -166 43q-135 0 -200 -72q-63 -70 -64 -223v-100h639v-957h158v-106h-481v106h157v850h-473v-850h156v-106h-479z" />
<glyph unicode="&#xfb02;" horiz-adv-x="1228" d="M68 0v106h157v850h-157v107h157v96q0 201 106.5 299t327.5 98h359v-1450h156v-106h-482v106h160v1344h-195q-145 0 -206 -66q-59 -61 -60 -221v-100h264v-107h-264v-850h156v-106h-479z" />
<glyph unicode="&#xfb03;" horiz-adv-x="1892" d="M66 0v106h157v850h-157v107h157v133q0 174 84 268q82 92 244 92q59 0 121 -12q59 -12 119 -37v-202h-86q0 72 -39 114q-37 39 -109 39q-92 0 -131 -57q-37 -55 -37 -201v-137h502v96q0 197 104 297q102 100 312 100q63 0 159 -14q86 -12 162 -39v-217h-84q-4 86 -57 129 q-55 43 -166 43q-135 0 -201 -72q-63 -70 -63 -223v-100h639v-957h155v-106h-481v106h160v850h-473v-850h155v-106h-481v106h160v850h-502v-850h211v-106h-534z" />
<glyph unicode="&#xfb04;" horiz-adv-x="1898" d="M63 0v106h158v850h-158v107h158v133q0 174 84 268q84 92 244 92q59 0 121 -12q59 -12 118 -37v-202h-86q0 72 -38 114q-37 39 -109 39q-90 0 -129 -57.5t-39 -200.5v-137h500v96q0 201 106 299q109 98 328 98h356v-1450h158v-106h-481v106h159v1344h-194q-145 0 -207 -66 q-59 -61 -59 -221v-100h266v-107h-266v-850h155v-106h-481v106h160v850h-500v-850h211v-106h-535z" />
<glyph unicode=" "  horiz-adv-x="583" />
<glyph unicode="&#x09;" horiz-adv-x="583" />
<glyph unicode="&#xa0;" horiz-adv-x="583" />
<glyph unicode="!" horiz-adv-x="739" d="M252 104q0 55 32.5 94.5t86.5 39.5q51 0 84 -39q35 -41 34.5 -94.5t-34.5 -94.5q-33 -39 -84 -39q-53 0 -86 39t-33 94zM256 1493h231l-61 -821v-252h-111v252z" />
<glyph unicode="&#x22;" horiz-adv-x="845" d="M180 938v555h144v-555h-144zM524 938v555h144v-555h-144z" />
<glyph unicode="#" d="M141 414v153h314l73 334h-282v154h317l94 415h154l-92 -415h254l94 415h154l-95 -415h277v-154h-311l-74 -334h282v-153h-317l-92 -414h-156l94 414h-254l-94 -414h-153l92 414h-279zM608 567h256l74 334h-254z" />
<glyph unicode="$" horiz-adv-x="1171" d="M158 922q0 160 98 258q96 96 274 108v268h91v-268q98 -10 176 -33q80 -25 164 -65v-262h-99q-12 115 -74 182q-63 70 -167 78v-453q223 -68 311 -153.5t88 -231.5q0 -166 -105 -266q-102 -98 -294 -115v-270h-91v270q-90 4 -178 27q-86 23 -194 76v276h98q2 -135 72 -207 q68 -71 202 -73v485q-209 66 -290.5 148t-81.5 221zM336 987q0 -80 47 -133q46 -52 147 -86v420q-90 -6 -143 -60q-51 -51 -51 -141zM621 68q102 10 155 65q53 57 53 150q0 82 -53 145q-53 61 -155 92v-452z" />
<glyph unicode="%" horiz-adv-x="1748" d="M102 1114q0 182 84 295q84 111 226 111q143 0 227 -108.5t84 -297.5q0 -195 -84 -299q-86 -109 -227 -108q-144 0 -228 110q-82 109 -82 297zM246 1112.5q0 -149.5 45 -231.5q47 -84 123 -84q78 0 121 84q45 86 45 231t-45 231q-43 84 -121 84q-82 0 -125 -84 q-43 -81 -43 -230.5zM387 -29l842 1549h135l-840 -1549h-137zM1028 377q0 184 84 297q83 111 227 110q143 0 228 -110q84 -113 84 -297q0 -186 -86 -297q-84 -109 -226 -109q-145 0 -227 109q-84 113 -84 297zM1174 377q0 -147 45 -230q47 -84 120 -84q80 0 123 84 q43 82 43 229.5t-43 233.5q-41 84 -123 84q-80 0 -122 -84q-43 -82 -43 -233z" />
<glyph unicode="&#x26;" horiz-adv-x="1638" d="M131 461q0 127 70 248q68 115 209 217q-47 63 -68 121q-23 63 -23 127q0 162 104.5 254t281.5 92q68 0 139 -17q90 -20 184 -51v-258h-100q-12 109 -72 164q-57 55 -156 55q-88 0 -149 -57q-59 -55 -59 -146q0 -61 30 -123q27 -53 129 -172l463 -544q61 80 98 172 q35 88 45 198h-161v107h426v-107h-156q-14 -127 -59 -243q-41 -109 -119 -209l153 -183h211v-106h-360l-123 145q-94 -88 -200.5 -131t-231.5 -43q-236 0 -369 131q-137 134 -137 359zM315 483q0 -168 103 -278q104 -113 260 -113q94 0 172 35q80 35 145 104l-524 613 q-74 -70 -117 -168q-39 -87 -39 -193z" />
<glyph unicode="'" horiz-adv-x="505" d="M180 938v555h144v-555h-144z" />
<glyph unicode="(" horiz-adv-x="718" d="M145 618.5q0 350.5 113 591.5q111 238 330 346v-98q-137 -106 -198.5 -298.5t-61.5 -541.5q0 -347 61 -540t199 -299v-98q-219 109 -330 346q-113 241 -113 591.5z" />
<glyph unicode=")" horiz-adv-x="718" d="M129 -221q141 109 201 299q61 194 61 540q0 348 -61 541q-59 190 -201 299v98q219 -106 332 -346q113 -242 112.5 -592t-112.5 -591q-113 -240 -332 -346v98z" />
<glyph unicode="*" horiz-adv-x="919" d="M31 870l352 183l-352 184l67 119l314 -217l-13 381h123l-12 -381l313 217l70 -119l-352 -182l352 -185l-70 -118l-313 217l12 -381h-123l13 381l-314 -217z" />
<glyph unicode="+" d="M195 561v162h505v561h144v-561h506v-162h-506v-561h-144v561h-505z" />
<glyph unicode="," horiz-adv-x="583" d="M68 -199q82 66 122 162q39 90 39 227v37h179q-10 -174 -72 -293q-66 -125 -197 -213z" />
<glyph unicode="-" horiz-adv-x="620" d="M82 471v156h461v-156h-461z" />
<glyph unicode="." horiz-adv-x="583" d="M174 104q0 53 35 95q33 39 84 39q53 0 86 -39q35 -41 35 -94.5t-35 -94.5q-33 -39 -86 -39q-51 0 -84 39q-35 41 -35 94z" />
<glyph unicode="/" horiz-adv-x="620" d="M0 -190l477 1683h144l-478 -1683h-143z" />
<glyph unicode="0" horiz-adv-x="1171" d="M123 745.5q0 372.5 121 571.5q123 203 342 203t342 -203t123 -571.5t-123 -571.5t-342 -203t-342 203q-121 199 -121 571.5zM311 745.5q0 -339.5 67.5 -507.5t207 -168t207 168t67.5 507.5t-67.5 507.5t-207 168t-207 -168t-67.5 -507.5z" />
<glyph unicode="1" horiz-adv-x="1171" d="M225 1153v131l328 236h125v-1414h233v-106h-649v106h234v1242z" />
<glyph unicode="2" horiz-adv-x="1171" d="M125 0v109l407 452q135 150 193 275q57 123 57 264q0 152 -69 235q-70 86 -195 86q-127 0 -198.5 -71.5t-83.5 -212.5h-101v266q90 55 195 88q92 29 190 29q211 0 332 -113t121 -307q0 -223 -275 -525q-23 -23 -32 -34l-340 -377h561v184h104v-348h-866z" />
<glyph unicode="3" horiz-adv-x="1171" d="M139 72v290h103q10 -150 86 -219q80 -74 221 -73q137 0 217 88t80 243q0 178 -82 267q-84 90 -240 90h-86v102h45q158 0 236 72q80 74 80 219q0 129 -66 201q-63 70 -186 69.5t-189 -63.5q-66 -61 -77 -191h-103v263q121 49 203 67q102 23 180 23q201 0 309 -95 q111 -94 111 -262q0 -137 -76 -225q-80 -92 -217 -123q162 -25 256 -133q92 -109 92 -279q0 -211 -127 -321.5t-364 -110.5q-102 0 -205 25q-107 27 -201 76z" />
<glyph unicode="4" horiz-adv-x="1171" d="M57 399v109l588 1012h178v-1014h256v-107h-256v-293h217v-106h-612v106h215v293h-586zM184 506h459v794z" />
<glyph unicode="5" horiz-adv-x="1171" d="M158 72v290h100q10 -145 82 -217q76 -76 205 -75q143 0 219 104q78 106 78 299q0 190 -78 297q-76 104 -219 104q-76 0 -142 -32q-61 -31 -110 -99h-78v750h713v-164h-617v-428q41 33 109 53q61 18 141 19q217 0 342 -133q127 -137 127 -367q0 -236 -127 -369t-358 -133 q-90 0 -189 25q-100 25 -198 76z" />
<glyph unicode="6" horiz-adv-x="1171" d="M123 698q0 389 145 607q145 215 410 215q76 0 147 -15q82 -16 160 -45v-246h-100q-12 102 -70 154q-59 53 -158 53q-174 0 -260 -147q-84 -145 -88 -453q63 76 139 113t175 37q203 0 317 -133q117 -135 117 -366.5t-125 -365.5q-125 -135 -336 -135q-227 0 -350 188.5 t-123 538.5zM340 483q0 -200 68 -307q68 -106 194 -106q129 0 196.5 104.5t67.5 297t-67.5 296.5t-196.5 104t-196 -100q-66 -99 -66 -289z" />
<glyph unicode="7" horiz-adv-x="1171" d="M156 1145v348h884v-102l-526 -1391h-133l500 1329h-621v-184h-104z" />
<glyph unicode="8" horiz-adv-x="1171" d="M123 408q0 162 86 262q88 104 240 125q-133 27 -209 114q-72 84 -72 224q0 180 111 284q109 102 307 102.5t307 -102.5q111 -104 111 -284q0 -135 -72 -224q-72 -86 -207 -114q150 -20 238 -125q86 -100 86 -262q0 -209 -121 -324q-119 -113 -342.5 -113t-341.5 113 q-121 115 -121 324zM313 407.5q0 -159.5 72 -249.5q70 -88 201 -88q133 0 202.5 88t69.5 249.5t-69.5 249.5t-202.5 88q-131 0 -201 -88q-72 -90 -72 -249.5zM350 1132.5q0 -137.5 61.5 -213t174 -75.5t174 75.5t61.5 213t-61.5 213t-174 75.5t-174 -75.5t-61.5 -213z" />
<glyph unicode="9" horiz-adv-x="1171" d="M117 1020q0 231 125 364q127 135 336 136q225 0 348 -188.5t123 -538.5q0 -389 -146 -607q-145 -215 -407 -215q-76 0 -150 15q-80 14 -160 45v248h101q12 -96 71 -154q59 -55 156 -55q174 0 260 147q86 145 88 453q-66 -78 -139 -113q-80 -37 -176 -37 q-201 0 -315.5 133.5t-114.5 366.5zM305 1020q0 -188 70 -297q68 -104 194 -105q129 0 197 100.5t68 289.5q0 200 -68 307q-68 106 -197 106q-127 0 -194 -104q-70 -109 -70 -297z" />
<glyph unicode=":" horiz-adv-x="620" d="M193 104q0 53 34 95q33 39 84 39q53 0 86 -39t33 -94.5t-32.5 -94.5t-86 -39t-86 39t-32.5 94zM193 756q0 53 34 94q33 39 84 39q52 0 86 -37q33 -35 33 -96q0 -59 -33 -94q-35 -39 -86 -39t-84 39q-34 41 -34 94z" />
<glyph unicode=";" horiz-adv-x="620" d="M68 -199q82 66 122 162q39 90 39 227v37h179q-10 -174 -72 -293q-66 -125 -197 -213zM195 756q0 53 34 94q33 39 86 39q51 0 84 -39q35 -41 35 -94.5t-35 -93.5q-33 -39 -84 -39q-53 0 -86 39q-34 41 -34 94z" />
<glyph unicode="&#x3c;" d="M195 559v166l1155 465v-170l-934 -379l934 -377v-170z" />
<glyph unicode="=" d="M195 358v160h1155v-160h-1155zM195 766v160h1155v-160h-1155z" />
<glyph unicode="&#x3e;" d="M195 94v170l935 377l-935 379v170l1155 -465v-166z" />
<glyph unicode="?" horiz-adv-x="987" d="M125 1167v260q104 51 180 70q90 23 164 23q201 0 315.5 -106.5t114.5 -289.5q0 -186 -100 -305q-96 -115 -299 -168v-254h-111v328q160 43 240 143q80 101 80 258q0 133 -66 215q-65 80 -178 80q-102 0 -168 -65.5t-84 -188.5h-88zM324 104q0 53 34 95q33 39 86 39 q51 0 84 -39q35 -41 35 -94.5t-35 -94.5q-33 -39 -84 -39q-53 0 -86 39q-34 41 -34 94z" />
<glyph unicode="@" horiz-adv-x="1841" d="M123 543q0 190 59 348q61 164 174 289t271 194q154 68 329 68q195 0 352.5 -82t266.5 -240q63 -92 102 -213q35 -106 35 -239q0 -270 -145.5 -424t-401.5 -158v162q-49 -78 -121 -121q-70 -41 -147 -41q-160 0 -258 125q-96 123 -96 325.5t96 325.5q98 125 258 125 q78 0 147 -41q72 -43 121 -121v142h140v-772q152 37 237 161q84 123 84 314q0 119 -29 211q-31 100 -92 182q-96 133 -231 203q-139 72 -299 71q-80 0 -160 -18q-78 -18 -158 -59q-180 -92 -282 -281q-100 -186 -101 -436q0 -170 45 -307q45 -139 132 -244 q100 -123 231 -182q135 -61 291 -62q111 0 217 39q102 37 186 113l49 -70q-100 -94 -221 -139q-125 -47 -270 -47q-163 0 -313 67q-154 70 -265 189q-115 123 -174 290t-59 353zM702 536.5q0 -159.5 62 -245.5q63 -88 170 -88q104 0 167.5 77.5t63.5 204.5v105 q0 125 -65.5 202.5t-167.5 77.5q-104 0 -168 -88q-62 -86 -62 -245.5z" />
<glyph unicode="A" horiz-adv-x="1329" d="M-10 0v106h116l480 1387h151l480 -1387h133v-106h-490v106h150l-113 328h-565l-113 -328h148v-106h-377zM369 541h493l-246 710z" />
<glyph unicode="B" horiz-adv-x="1353" d="M102 0v106h170v1280h-170v107h664q201 0 305 -92q102 -90 103 -277q0 -131 -72 -213q-70 -78 -207 -96q170 -25 258 -121t88 -262q0 -223 -125 -328q-126 -104 -393 -104h-621zM455 106h270q162 0 236 78q76 80 75 248q0 166 -75 246q-74 78 -236 78h-270v-650zM455 862 h229q150 0 215 64q70 66 70 198q0 135 -70 198.5t-215 63.5h-229v-524z" />
<glyph unicode="C" horiz-adv-x="1409" d="M104 745q0 350 181 562q182 213 477 213q106 0 233 -31q106 -27 269 -98v-344h-103q-35 190 -133 276q-102 90 -283 90q-215 0 -325 -170q-111 -169 -111 -497.5t111 -497.5q111 -170 325 -170q150 0 248.5 80t141.5 237h165q-61 -213 -200 -317q-139 -106 -355 -107 q-131 0 -243 49q-111 47 -201 148q-96 104 -147 254q-50 141 -50 323z" />
<glyph unicode="D" horiz-adv-x="1476" d="M102 0v106h170v1280h-170v107h535q347 0 541 -197q195 -199 194.5 -549t-195 -548.5t-540.5 -198.5h-535zM455 106h168q260 0 401 166t141 476q0 311 -139 474.5t-403 163.5h-168v-1280z" />
<glyph unicode="E" horiz-adv-x="1343" d="M102 0v106h170v1280h-170v107h1082v-332h-111v209h-618v-500h442v187h109v-496h-109v187h-442v-625h632v209h111v-332h-1096z" />
<glyph unicode="F" horiz-adv-x="1277" d="M102 0v106h170v1280h-170v107h1100v-332h-110v209h-637v-500h458v187h111v-496h-111v187h-458v-642h215v-106h-568z" />
<glyph unicode="G" horiz-adv-x="1470" d="M104 745.5q0 354.5 183 563.5q184 211 493 211q125 0 240 -29q131 -33 260 -90v-354h-100q-31 184 -131 276q-100 90 -279 90q-233 0 -346 -166q-115 -168 -115 -502q0 -326 119 -497q117 -170 346 -170q98 0 195 28q92 27 176 84v385h-252v107h434v-557 q-115 -74 -258 -115q-135 -39 -295 -39q-303 0 -487 211q-183 209 -183 563.5z" />
<glyph unicode="H" horiz-adv-x="1605" d="M102 0v106h170v1280h-170v107h525v-107h-172v-516h696v516h-170v107h524v-107h-170v-1280h170v-106h-524v106h170v642h-696v-642h172v-106h-525z" />
<glyph unicode="I" horiz-adv-x="727" d="M102 0v106h170v1280h-170v107h525v-107h-172v-1280h172v-106h-525z" />
<glyph unicode="J" horiz-adv-x="737" d="M-156 -123h105q4 -100 41 -147q39 -49 119 -49q104 0 149 75q43 74 43 293v1337h-209v107h561v-107h-170v-1345q0 -244 -90 -356q-90 -111 -287 -111q-72 0 -129 16q-78 23 -133 52v235z" />
<glyph unicode="K" horiz-adv-x="1376" d="M102 0v106h170v1280h-170v107h525v-107h-172v-565l579 565h-145v107h446v-107h-151l-578 -563l645 -717h154v-106h-311l-639 709v-603h172v-106h-525z" />
<glyph unicode="L" horiz-adv-x="1222" d="M102 0v106h170v1280h-170v107h525v-107h-172v-1263h614v250h111v-373h-1078z" />
<glyph unicode="M" horiz-adv-x="1886" d="M92 1386v107h391l471 -1063l471 1063h369v-107h-178v-1280h170v-106h-524v106h170v1154l-461 -1041h-127l-461 1041v-1154h172v-106h-453v106h170v1280h-180z" />
<glyph unicode="N" horiz-adv-x="1611" d="M90 0v106h180v1280h-180v107h344l805 -1178v1071h-178v107h471v-107h-180v-1415h-111l-858 1258v-1123h178v-106h-471z" />
<glyph unicode="O" horiz-adv-x="1509" d="M104 745q0 182 50 324q51 150 147 254q89 98 202.5 147.5t252.5 49.5q291 0 473 -213q180 -211 180 -562q0 -180 -49 -323q-47 -141 -152 -254q-90 -100 -200 -148q-114 -49 -252.5 -49t-252 49.5t-202.5 147.5q-96 104 -147 254q-50 141 -50 323zM309 745.5 q0 -331.5 113 -499.5t334 -168t333.5 168t112.5 499.5t-112.5 499.5t-333.5 168t-334 -168t-113 -499.5z" />
<glyph unicode="P" horiz-adv-x="1239" d="M102 0v106h170v1280h-170v107h635q205 0 320 -113q117 -114 117 -307t-117 -305q-119 -115 -320 -115h-282v-547h209v-106h-562zM455 760h237q135 0 205 80q72 82 72 233.5t-72 233.5q-70 80 -205 79h-237v-626z" />
<glyph unicode="Q" horiz-adv-x="1509" d="M104 745q0 182 50 324q51 150 147 254q89 98 202.5 147.5t252.5 49.5q291 0 473 -213q180 -211 180 -562q0 -295 -135 -497q-135 -201 -373 -260q49 -68 119 -99q76 -33 168 -32h26v-185q-154 10 -260 82q-109 74 -176 217q-311 0 -491 211q-183 213 -183 563zM309 745.5 q0 -331.5 113 -499.5t334 -168t333.5 168t112.5 499.5t-112.5 499.5t-333.5 168t-334 -168t-113 -499.5z" />
<glyph unicode="R" horiz-adv-x="1386" d="M102 0v106h170v1280h-170v107h680q197 0 303.5 -104.5t106.5 -294.5q0 -152 -78 -242q-76 -88 -231 -111q59 -16 108 -65q45 -45 82 -127l195 -443h164v-106h-318l-209 475q-61 138 -110 178q-51 41 -140 41h-200v-588h190v-106h-543zM455 801h266q135 0 201 71 q63 70 63 221.5t-63 221.5q-66 72 -201 71h-266v-585z" />
<glyph unicode="S" horiz-adv-x="1261" d="M156 1120q0 193 120 295q123 104 340 105q90 0 207 -23q106 -20 238 -65v-318h-103q-16 160 -94 229.5t-243 69.5q-139 0 -215 -65.5t-76 -186.5q0 -106 55 -168q51 -57 238 -121l165 -55q186 -61 263 -155q78 -96 77 -254q0 -215 -124 -326q-127 -111 -373 -111 q-111 0 -225 25q-123 27 -236 76v340h104q6 -170 88 -252t256 -82q158 0 246 72q84 70 84 204q0 109 -51 166.5t-215 112.5l-176 59q-193 63 -273 162q-77 96 -77 266z" />
<glyph unicode="T" horiz-adv-x="1228" d="M18 1141v352h1192v-352h-108v233h-395v-1268h172v-106h-527v106h172v1268h-395v-233h-111z" />
<glyph unicode="U" horiz-adv-x="1552" d="M86 1386v107h526v-107h-172v-772q0 -285 84 -399q82 -113 289 -113q211 0 293 113q84 115 84 399v772h-172v107h452v-107h-170v-792q0 -338 -118 -481q-117 -141 -402 -142q-281 0 -401 142q-121 143 -121 481v792h-172z" />
<glyph unicode="V" horiz-adv-x="1329" d="M-18 1386v107h489v-107h-149l397 -1146l395 1146h-149v107h393v-107h-129l-481 -1386h-154l-477 1386h-135z" />
<glyph unicode="W" horiz-adv-x="1892" d="M8 1386v107h492v-107h-168l280 -1103l306 1210h147l309 -1223l283 1116h-156v107h387v-107h-131l-352 -1386h-148l-307 1214l-309 -1214h-147l-353 1386h-133z" />
<glyph unicode="X" horiz-adv-x="1310" d="M10 0v106h156l387 627l-393 653h-144v107h533v-107h-158l289 -481l295 481h-172v107h438v-107h-149l-357 -575l424 -705h144v-106h-533v106h162l-322 533l-327 -533h172v-106h-445z" />
<glyph unicode="Y" horiz-adv-x="1214" d="M-20 1386v107h499v-107h-157l335 -604l336 604h-151v107h391v-107h-127l-404 -724v-556h172v-106h-526v106h172v537l-416 743h-124z" />
<glyph unicode="Z" horiz-adv-x="1280" d="M84 0v72l836 1298h-695v-223h-110v346h1061v-72l-836 -1298h760v209h108v-332h-1124z" />
<glyph unicode="[" horiz-adv-x="718" d="M158 -270v1826h420v-106h-248v-1614h248v-106h-420z" />
<glyph unicode="\" horiz-adv-x="620" d="M0 1493h143l478 -1683h-144z" />
<glyph unicode="]" horiz-adv-x="718" d="M141 -164h248v1614h-248v106h420v-1826h-420v106z" />
<glyph unicode="^" d="M195 936l489 557h176l490 -557h-140l-438 381l-438 -381h-139z" />
<glyph unicode="_" horiz-adv-x="919" d="M0 -403h922v-80h-922v80z" />
<glyph unicode="`" horiz-adv-x="919" d="M154 1636h176l233 -376h-104z" />
<glyph unicode="a" horiz-adv-x="1097" d="M92 319q0 164 107 256q104 90 303 91h231v73q0 121 -65 187q-68 68 -187 67q-96 0 -157 -51q-55 -47 -72 -147h-86v215q88 41 168 61.5t158 20.5q201 0 303 -109q104 -111 104 -319v-558h148v-106h-314v115q-55 -74 -127 -109q-74 -35 -168 -35q-160 0 -252 95 q-94 97 -94 253zM276 319q0 -111 61.5 -176t166.5 -65q100 0 166 72q63 70 63 184v225h-213q-121 0 -184 -59q-60 -58 -60 -181z" />
<glyph unicode="b" horiz-adv-x="1177" d="M53 0v106h160v1344h-160v106h326v-659q49 101 123 147q76 47 186 48q176 0 287 -154q113 -156 112 -406q0 -246 -112 -405q-111 -156 -287 -156q-111 0 -186 47q-74 46 -123 148v-166h-326zM379 479q0 -190 65 -293q63 -100 192.5 -100t192.5 113q66 115 66 334 t-65.5 331.5t-192.5 112.5q-129 0 -193 -100q-66 -102 -65 -293v-105z" />
<glyph unicode="c" horiz-adv-x="1030" d="M92 532.5q0 251.5 127 407.5q125 152 336 152q98 0 180 -23q94 -27 180 -72v-272h-96q-18 141 -81.5 204.5t-182.5 63.5q-133 0 -201 -116q-70 -121 -69 -345q0 -229 67.5 -345.5t202.5 -116.5q108 0 172 61q63 61 86 188h135q-35 -172 -135 -260t-258 -88 q-211 0 -336 154q-127 156 -127 407.5z" />
<glyph unicode="d" horiz-adv-x="1177" d="M92 532q0 252 110.5 406t289.5 154q111 0 186.5 -47.5t124.5 -147.5v553h-158v106h324v-1450h157v-106h-323v166q-49 -100 -125 -147.5t-186 -47.5q-176 0 -287 156q-113 159 -113 405zM285 532.5q0 -219.5 65 -333.5q63 -113 195 -113q127 0 190 100q68 106 68 293v105 q0 186 -68 293q-63 100 -190 100q-129 0 -194.5 -112.5t-65.5 -332z" />
<glyph unicode="e" horiz-adv-x="1089" d="M92 532q0 254 125 406q127 154 328 154q217 0 334 -148q115 -145 120 -432h-714v-8q0 -213 73.5 -323.5t214.5 -110.5q109 0 179 63q72 66 98 189h133q-39 -172 -147 -263q-106 -88 -281 -88q-211 0 -336 154q-127 155 -127 407zM285 618h520q-6 184 -72 281 q-63 94 -188 94q-115 0 -180.5 -96.5t-79.5 -278.5z" />
<glyph unicode="f" horiz-adv-x="681" d="M68 0v106h157v850h-157v107h157v133q0 174 84 268q84 92 244 92q59 0 121 -12q59 -12 119 -37v-202h-86q0 72 -39 114q-37 39 -109 39q-92 0 -131 -57q-37 -55 -37 -201v-137h266v-107h-266v-850h211v-106h-534z" />
<glyph unicode="g" horiz-adv-x="1177" d="M92 532q0 252 110.5 406t289.5 154q111 0 186.5 -47.5t124.5 -147.5v166h323v-107h-157v-933q0 -225 -115 -353q-113 -125 -324 -125q-94 0 -180 19q-78 16 -166 57v223h86q14 -100 78 -151q61 -49 172 -49q145 0 213 92q70 94 70 287v143q-49 -100 -125 -147.5 t-186 -47.5q-176 0 -287 156q-113 159 -113 405zM285 532.5q0 -219.5 65 -333.5q63 -113 195 -113q127 0 190 100q68 106 68 293v105q0 186 -68 293q-63 100 -190 100q-129 0 -194.5 -112.5t-65.5 -332z" />
<glyph unicode="h" horiz-adv-x="1185" d="M68 1450v106h323v-682q45 106 119 162t170 56q160 0 233 -101q74 -102 74 -315v-570h150v-106h-457v106h141v512q0 197 -43 267q-43 72 -151 71q-113 0 -176 -94q-59 -88 -60 -270v-486h144v-106h-459v106h149v1344h-157z" />
<glyph unicode="i" horiz-adv-x="587" d="M68 0v106h157v850h-157v107h323v-957h156v-106h-479zM178 1393q0 46 31 80q31 35 74 34q39 0 69 -34q31 -34 31 -80q0 -49 -29 -80q-31 -33 -71 -33q-43 0 -74 33q-31 34 -31 80z" />
<glyph unicode="j" horiz-adv-x="569" d="M-176 -170h84q6 -96 45 -141t113 -45q82 0 120 61q39 59 39 191v1060h-157v107h323v-1167q0 -168 -88 -258q-90 -92 -242 -93q-63 0 -124 17q-57 14 -113 49v219zM184 1393q0 46 31 80q31 35 72 34.5t71 -34.5q31 -34 31 -80q0 -49 -29 -80q-31 -33 -73 -33q-41 0 -72 33 q-31 34 -31 80z" />
<glyph unicode="k" horiz-adv-x="1114" d="M53 1450v106h326v-1013l401 413h-137v107h432v-107h-162l-284 -292l362 -558h139v-106h-473v106h138l-287 437l-129 -135v-302h147v-106h-463v106h150v1344h-160z" />
<glyph unicode="l" horiz-adv-x="587" d="M53 0v106h160v1344h-160v106h326v-1450h156v-106h-482z" />
<glyph unicode="m" horiz-adv-x="1746" d="M68 958v105h323v-189q45 106 117 162q70 55 162 56q111 0 184 -62q76 -63 100 -174q49 119 123 176q76 59 172 60q154 0 226 -103q74 -104 73 -313v-570h150v-106h-461v106h145v549q0 164 -43 232q-45 70 -143 69q-111 0 -170 -94q-57 -90 -57 -270v-486h143v-106h-453 v106h146v556q0 156 -45 227q-43 68 -144 67q-109 0 -167 -94q-57 -90 -58 -270v-486h144v-106h-459v106h149v852h-157z" />
<glyph unicode="n" horiz-adv-x="1185" d="M68 956v107h323v-189q45 106 119 162t170 56q160 0 233 -101q74 -102 74 -315v-570h150v-106h-457v106h141v512q0 193 -43 266.5t-151 73.5q-113 0 -176 -94q-59 -90 -60 -272v-486h144v-106h-459v106h149v850h-157z" />
<glyph unicode="o" horiz-adv-x="1107" d="M92 532q0 250 127 406q125 154 336 154t336 -154q127 -156 127 -406q0 -252 -127 -407q-125 -154 -336 -154t-336 154q-127 155 -127 407zM285 532q0 -225 69 -346q68 -117 201 -116.5t200.5 117t67.5 345.5q0 227 -67.5 344t-200.5 117q-135 0 -202.5 -117t-67.5 -344z " />
<glyph unicode="p" horiz-adv-x="1177" d="M53 -319h160v1275h-160v107h326v-166q49 101 123 147q76 47 186 48q176 0 287 -154q113 -156 112 -406q0 -246 -112 -405q-111 -156 -287 -156q-111 0 -186 47q-74 46 -123 148v-485h156v-107h-482v107zM379 479q0 -190 65 -293q63 -100 192.5 -100t192.5 113 q66 115 66 334t-65.5 331.5t-192.5 112.5q-129 0 -193 -100q-66 -102 -65 -293v-105z" />
<glyph unicode="q" horiz-adv-x="1177" d="M92 532q0 252 110.5 406t289.5 154q111 0 186.5 -47.5t124.5 -147.5v166h323v-107h-157v-1275h157v-107h-481v107h158v485q-49 -100 -125 -147.5t-186 -47.5q-176 0 -287 156q-113 159 -113 405zM285 532.5q0 -219.5 65 -333.5q63 -113 195 -113q127 0 190 100 q68 106 68 293v105q0 186 -68 293q-63 100 -190 100q-129 0 -194.5 -112.5t-65.5 -332z" />
<glyph unicode="r" horiz-adv-x="880" d="M68 958v105h323v-189q51 113 125 164q78 53 186 54q39 0 84 -7q27 -4 95 -20v-266h-95q-6 78 -41 119q-33 39 -102 38q-123 0 -186 -94q-66 -96 -66 -270v-486h191v-106h-506v106h149v852h-157z" />
<glyph unicode="s" horiz-adv-x="944" d="M104 59v248h95q3 -120 67 -178q66 -59 189 -59q109 0 168 47t59 135q0 70 -43 113t-180 92l-119 45q-123 43 -180 110q-55 63 -56 168q0 145 97 230q94 82 268 82q72 0 158 -23q92 -25 174 -63v-232h-96q-2 102 -66 162q-59 57 -166 57q-104 0 -157.5 -41t-53.5 -123 q0 -68 41 -108q37 -37 162 -82l131 -45q137 -47 195 -117q61 -74 61 -182q0 -152 -104.5 -238t-286.5 -86q-86 0 -180 23q-81 20 -177 65z" />
<glyph unicode="t" horiz-adv-x="739" d="M53 956v107h146v330h166v-330h313v-107h-313v-675q0 -135 24 -172q27 -39 86 -39q63 0 94 43q27 39 31 137h125q-6 -145 -70 -211q-66 -68 -194 -68q-145 0 -203 70q-59 72 -59 240v675h-146z" />
<glyph unicode="u" horiz-adv-x="1185" d="M49 956v107h316v-619q0 -195 43 -266.5t153 -71.5q113 0 174.5 94.5t61.5 272.5v483h-146v107h312v-957h155v-106h-321v188q-45 -106 -119 -161.5t-170 -55.5q-160 0 -234 101q-76 104 -75 315v569h-150z" />
<glyph unicode="v" horiz-adv-x="1040" d="M-4 956v107h438v-107h-151l268 -731l268 731h-141v107h358v-107h-106l-352 -956h-123l-351 956h-108z" />
<glyph unicode="w" horiz-adv-x="1576" d="M31 956v107h432v-107h-156l215 -723l246 830h117l245 -830l216 723h-140v107h346v-107h-104l-285 -956h-139l-236 795l-235 -795h-133l-283 956h-106z" />
<glyph unicode="x" horiz-adv-x="1038" d="M23 956v107h428v-107h-115l201 -307l200 307h-129v107h369v-107h-127l-256 -393l299 -457h125v-106h-443v106h121l-207 318l-208 -318h122v-106h-362v106h127l262 404l-291 446h-116z" />
<glyph unicode="y" horiz-adv-x="1040" d="M-4 956v107h438v-107h-151l268 -731l268 731h-141v107h358v-107h-106l-441 -1196q-43 -125 -98 -170q-53 -45 -155 -45q-45 0 -86 9q-55 12 -91 22v203h84q6 -68 31 -98q23 -29 82 -29q47 0 78 31q29 29 63 122l64 177l-357 974h-108z" />
<glyph unicode="z" horiz-adv-x="970" d="M74 0v86l600 870h-475v-184h-95v291h783v-86l-600 -871h520v193h96v-299h-829z" />
<glyph unicode="{" horiz-adv-x="1171" d="M229 559v105h56q127 0 176 59t49 207v258q0 221 76 295q77 74 301 73h55v-104h-61q-126 0 -166 -43q-37 -39 -37 -186v-287q0 -160 -45 -225q-45 -68 -164 -99q121 -35 164 -100q45 -72 45 -225v-287q0 -145 37 -184q41 -45 166 -45h61v-105h-55q-224 0 -301 74 q-76 74 -76 295v258q0 151 -49 209q-49 57 -176 57h-56z" />
<glyph unicode="|" horiz-adv-x="620" d="M238 -483v2048h145v-2048h-145z" />
<glyph unicode="}" horiz-adv-x="1171" d="M229 -229h64q125 0 164 43q39 41 39 186v287q0 154 45 225q41 66 161 100q-119 31 -161 99q-45 72 -45 225v287q0 145 -39 186q-39 43 -164 43h-64v104h58q221 0 299 -73q76 -74 76 -295v-258q0 -147 49 -206.5t176 -59.5h55v-105h-55q-127 0 -176 -57q-49 -58 -49 -209 v-258q0 -221 -76 -295q-78 -74 -299 -74h-58v105z" />
<glyph unicode="~" d="M195 477v152q90 88 170 127q82 41 165.5 41t243.5 -66l8 -4q12 -4 29 -12q127 -57 217 -58q84 0 164 37q78 37 158 113v-148q-84 -84 -172 -131q-76 -41 -164 -41q-84 0 -244 66l-8 4l-31 12q-129 57 -217 58q-84 0 -162 -37q-81 -39 -157 -113z" />
<glyph unicode="&#xa1;" horiz-adv-x="739" d="M252 1389q0 55 32.5 94t86.5 39q51 0 84 -39q35 -41 34.5 -94.5t-34.5 -94.5q-33 -39 -84 -39q-53 0 -86 39.5t-33 94.5zM256 0l59 821v252h111v-252l61 -821h-231z" />
<glyph unicode="&#xa2;" horiz-adv-x="1171" d="M139 532.5q0 239.5 115 391.5q111 147 311 166v266h90v-266q83 -9 160 -31t148 -62v-272h-97q-18 129 -67 188q-53 66 -144 78v-919q82 12 133 75q53 66 72 172h133q-31 -156 -116.5 -241.5t-221.5 -104.5v-270h-90v270q-199 18 -311 168q-115 152 -115 391.5zM334 532 q0 -217 57 -329q59 -117 174 -131v919q-115 -14 -174 -131q-57 -113 -57 -328z" />
<glyph unicode="&#xa3;" horiz-adv-x="1171" d="M123 0v106h174v594h-174v107h174v295q0 207 102 311q104 106 303 107q76 0 150 -13q70 -12 139 -37v-245h-94q-8 94 -59.5 145t-137.5 51q-113 0 -168 -77.5t-55 -241.5v-295h371v-107h-371v-579h430v227h105v-348h-889z" />
<glyph unicode="&#xa4;" horiz-adv-x="1171" d="M94 186l185 207q-37 61 -55.5 123t-18.5 125q0 71 18 129q18 55 60 117l-189 207l86 94l187 -207q57 47 104 66q53 20 117 20q61 0 114 -20q59 -23 109 -62l188 207l84 -94l-186 -209q39 -63 55 -121q18 -61 19 -127q0 -72 -18.5 -129t-57.5 -115l184 -207l-86 -94 l-186 205q-51 -45 -102 -65q-49 -20 -117 -21q-61 0 -115 21q-55 22 -111 61l-184 -205zM346 643q0 -117 70 -192q72 -78 172 -78q102 0 171.5 77.5t69.5 192.5q0 113 -69 188q-72 78 -172.5 78t-171.5 -78q-70 -75 -70 -188z" />
<glyph unicode="&#xa5;" horiz-adv-x="1171" d="M-14 1386v107h497v-107h-157l309 -604l305 604h-152v107h390v-107h-127l-256 -497h245v-105h-299l-63 -122v-84h362v-105h-362v-367h170v-106h-524v106h172v367h-365v105h365v65l-74 141h-291v105h238l-258 497h-125z" />
<glyph unicode="&#xa6;" horiz-adv-x="620" d="M238 -350v758h145v-758h-145zM238 674v758h145v-758h-145z" />
<glyph unicode="&#xa7;" horiz-adv-x="919" d="M84 719q0 94 51 160q51 68 152 98q-72 47 -109 112.5t-37 141.5q0 129 90 209q89 80 240 80q76 0 139 -15q78 -18 135 -41v-202h-81q0 70 -50 114q-43 41 -125 41q-92 0 -143 -49t-51 -131q0 -94 221 -233q12 -8 20.5 -14.5t14.5 -8.5q172 -106 231 -184q57 -76 58 -174 q0 -88 -49 -158q-45 -61 -150 -107q71 -46 104 -110q33 -63 33 -154q0 -131 -92 -211q-90 -78 -248 -78q-82 0 -153 13q-63 10 -142 43v209h84q4 -84 49 -121q51 -41 145.5 -41t149.5 49q53 47 54 133q0 115 -205 240q-10 6 -17.5 10t-11.5 8q-199 127 -252 197 q-55 74 -55 174zM229 754q0 -129 328 -334l29 -19q49 35 78 86q27 47 26 105q0 74 -61 141q-59 66 -287 203q-63 -47 -86 -88q-27 -47 -27 -94z" />
<glyph unicode="&#xa8;" horiz-adv-x="919" d="M180 1452q0 45 33 82q31 35 72 35q45 0 75.5 -35t30.5 -82q0 -51 -30.5 -84t-75.5 -33q-43 0 -74 33t-31 84zM530 1452q0 47 31 82t76 35q43 0 73.5 -35t30.5 -82q0 -51 -30.5 -84t-73.5 -33q-45 0 -76 33t-31 84z" />
<glyph unicode="&#xa9;" horiz-adv-x="1841" d="M256 741q0 158 47 285q49 132 148 240q102 113 215 164q121 55 256 55t254 -55q117 -53 217 -164q98 -108 147 -240q47 -127 47 -285q0 -160 -47 -282q-51 -135 -147 -240q-100 -111 -217 -164q-119 -55 -254.5 -55t-255.5 55q-113 51 -215 164q-96 104 -148 240 q-47 122 -47 282zM346 741q0 -131 43 -243q41 -109 127 -207q82 -94 186.5 -141.5t219.5 -47.5q117 0 221 47.5t186 141.5q80 90 125 207q43 113 43 243q0 132 -43 246q-45 117 -125 207q-82 94 -186.5 141t-220.5 47q-115 0 -219.5 -47t-186.5 -141q-84 -94 -127 -207 q-43 -114 -43 -246zM555 741q0 203 100 322q102 121 269 121q71 0 141 -19q74 -20 147 -57v-213h-73q-15 108 -68 160q-51 51 -145 51q-106 0 -161.5 -92t-55.5 -273q0 -184 55 -272q55 -90 160 -90q86 0 137 47t69 147h107q-25 -135 -104 -202q-82 -70 -209 -70 q-166 0 -269 121q-100 118 -100 319z" />
<glyph unicode="&#xaa;" horiz-adv-x="874" d="M113 979q0 114 86 178q84 63 237 64h185v45q0 86 -52 131q-53 47 -147 47q-76 0 -123 -35t-59 -104h-70v157q63 27 135 43q59 14 123 15q162 0 244 -76t82 -225v-379h71v-84h-204v80q-39 -47 -99 -74q-55 -25 -135 -25q-125 0 -201 66q-73 65 -73 176zM150 535v104h628 v-104h-628zM260 987q0 -80 45 -123q47 -43 133 -43q84 0 133.5 49.5t49.5 126.5v148h-168q-96 0 -144 -39q-49 -41 -49 -119z" />
<glyph unicode="&#xab;" horiz-adv-x="1126" d="M141 559v82l422 418v-115l-266 -344l266 -344v-115zM532 559v82l422 418v-115l-266 -344l266 -344v-115z" />
<glyph unicode="&#xac;" d="M195 700v162h1155v-575h-146v413h-1009z" />
<glyph unicode="&#xad;" horiz-adv-x="620" d="M82 471v156h461v-156h-461z" />
<glyph unicode="&#xae;" horiz-adv-x="1841" d="M256 741q0 158 47 285q49 132 148 240q102 113 215 164q121 55 256 55t254 -55q117 -53 217 -164q98 -108 147 -240q47 -127 47 -285q0 -160 -47 -282q-51 -135 -147 -240q-100 -111 -217 -164q-119 -55 -254.5 -55t-255.5 55q-113 51 -215 164q-96 104 -148 240 q-47 122 -47 282zM346 741q0 -131 43 -243q41 -109 127 -207q82 -94 186.5 -141.5t219.5 -47.5q117 0 221 47.5t186 141.5q80 90 125 207q43 113 43 243q0 132 -43 246q-45 117 -125 207q-82 94 -186.5 141t-220.5 47q-115 0 -219.5 -47t-186.5 -141q-84 -94 -127 -207 q-43 -114 -43 -246zM596 352v68h74v672h-74v67h373q117 0 174 -55q59 -55 59 -166q0 -83 -43 -129q-43 -45 -133 -55q41 -16 65.5 -39t45.5 -66l102 -229h70v-68h-170l-119 254q-29 68 -59 94q-25 23 -72 23h-82v-303h74v-68h-285zM807 791h111q74 0 112 38q37 37 37 113 t-37 113t-112 37h-111v-301z" />
<glyph unicode="&#xaf;" horiz-adv-x="919" d="M193 1378v148h536v-148h-536z" />
<glyph unicode="&#xb0;" horiz-adv-x="919" d="M176 1200q0 137 82 227q83 92 203 93q58 0 110 -25q59 -27 93 -70q39 -41 61 -102q20 -55 20 -123q0 -133 -81 -223q-82 -92 -205 -92t-203 90t-80 225zM299 1200q0 -74 47 -127q45 -51 114.5 -51t114.5 51q47 53 48 127q0 80 -48 129q-49 53 -114 53q-68 0 -115 -53 t-47 -129z" />
<glyph unicode="&#xb1;" d="M195 0v160h1155v-160h-1155zM195 731v162h505v391h144v-391h506v-162h-506v-391h-144v391h-505z" />
<glyph unicode="&#xb2;" horiz-adv-x="737" d="M82 668v75l256 254q78 78 110.5 137.5t32.5 127.5q0 86 -43 135t-119 49q-70 0 -112 -37q-41 -35 -53 -113h-64v158q58 31 123 49q57 16 125 17q123 0 200.5 -65.5t77.5 -170.5q0 -121 -176 -297l-16 -16l-213 -215h344v108h68v-196h-541z" />
<glyph unicode="&#xb3;" horiz-adv-x="737" d="M90 709v170h64q6 -72 49 -113q41 -39 125 -39q86 0 131 43q47 43 47 127q0 94 -47 141t-137 47h-48v74h25q88 0 131 37q45 39 45 111q0 66 -37 102.5t-104 36.5q-70 0 -113 -33q-39 -31 -45 -96h-63v151q78 29 125 39q61 12 114 13q125 0 191 -54q68 -55 67 -153 q0 -70 -47 -121q-45 -49 -135 -68q104 -14 162 -75q55 -58 55 -160q0 -115 -78 -174q-80 -61 -225 -62q-72 0 -129 15q-72 18 -123 41z" />
<glyph unicode="&#xb4;" horiz-adv-x="919" d="M354 1262l232 376h180l-307 -376h-105z" />
<glyph unicode="&#xb5;" horiz-adv-x="1196" d="M53 -319h160v1275h-150v107h316v-619q0 -195 43 -266.5t151 -71.5q113 0 174.5 94.5t61.5 272.5v483h-143v107h309v-959h155v-104h-321v188q-45 -102 -113 -161q-66 -55 -147 -56q-51 0 -94 19q-45 18 -76 53v-362h156v-107h-482v107z" />
<glyph unicode="&#xb6;" horiz-adv-x="1171" d="M141 1071q0 188 117 305t311 117h486v-107h-107v-1583h-96v1583h-209v-1583h-96v846q-193 18 -299.5 127t-106.5 295z" />
<glyph unicode="&#xb7;" horiz-adv-x="583" d="M170 711q0 53 35 94q33 39 88 39q51 0 84 -39q35 -41 35 -94.5t-35 -94.5q-33 -39 -84 -38q-53 0 -88 39t-35 94z" />
<glyph unicode="&#xb8;" horiz-adv-x="919" d="M262 -240q35 -18 72 -26q33 -8 67 -8q53 0 82 26.5t29 71.5q0 31 -20 72q-29 57 -60 104h88q57 -63 86 -120.5t29 -104.5q0 -80 -57.5 -125t-157.5 -45q-39 0 -78 6q-40 6 -80 18v131z" />
<glyph unicode="&#xb9;" horiz-adv-x="737" d="M131 1280v94l217 129h92v-751h156v-84h-438v84h155v634z" />
<glyph unicode="&#xba;" horiz-adv-x="864" d="M86 1128.5q0 178.5 94 285t252 106.5q160 0 254 -106.5t94 -285t-94 -285t-254 -106.5q-158 0 -252 106.5t-94 285zM123 535v104h618v-104h-618zM242 1128q0 -160 47 -235q49 -80 143 -80t143.5 80t49.5 235.5t-49.5 235.5t-143.5 80q-92 0 -141 -80t-49 -236z" />
<glyph unicode="&#xbb;" horiz-adv-x="1126" d="M174 141v115l266 344l-266 344v115l422 -418v-82zM563 141v115l268 344l-268 344v115l422 -418v-82z" />
<glyph unicode="&#xbc;" horiz-adv-x="1785" d="M1094 221v84l361 530h127v-532h147v-82h-147v-137h131v-84h-392v84h132v137h-359zM1176 303h277v407zM131 1280v94l217 129h92v-751h156v-84h-438v84h155v634zM401 -29l848 1549h135l-848 -1549h-135z" />
<glyph unicode="&#xbd;" horiz-adv-x="1785" d="M131 1280v94l217 129h92v-751h156v-84h-438v84h155v634zM401 -29l848 1549h135l-848 -1549h-135zM1129 0v75l256 254q78 78 110.5 137.5t32.5 127.5q0 86 -43 135t-119 49q-70 0 -112 -37q-41 -35 -53 -113h-64v158q58 31 123 49q57 16 125 17q123 0 200.5 -65.5 t77.5 -170.5q0 -121 -176 -297l-16 -16l-213 -215h344v108h68v-196h-541z" />
<glyph unicode="&#xbe;" horiz-adv-x="1785" d="M1094 221v84l361 530h127v-532h147v-82h-147v-137h131v-84h-392v84h132v137h-359zM1176 303h277v407zM90 709v170h64q6 -72 49 -113q41 -39 125 -39q86 0 131 43q47 43 47 127q0 94 -47 141t-137 47h-48v74h25q88 0 131 37q45 39 45 111q0 66 -37 102.5t-104 36.5 q-70 0 -113 -33q-39 -31 -45 -96h-63v151q78 29 125 39q61 12 114 13q125 0 191 -54q68 -55 67 -153q0 -70 -47 -121q-45 -49 -135 -68q104 -14 162 -75q55 -58 55 -160q0 -115 -78 -174q-80 -61 -225 -62q-72 0 -129 15q-72 18 -123 41zM401 -29l848 1549h135l-848 -1549 h-135z" />
<glyph unicode="&#xbf;" horiz-adv-x="987" d="M125 369q0 190 100.5 304.5t300.5 168.5v254h111v-328q-164 -43 -242 -143q-80 -101 -80 -258q0 -133 66 -215q66 -80 180 -80q100 0 166 65q68 68 86 189h86v-260q-104 -51 -180 -70q-90 -23 -164 -23q-199 0 -313 107q-117 108 -117 289zM461 1388.5q0 53.5 35 94.5 q33 39 84 39q53 0 86 -39q35 -41 34.5 -94.5t-34.5 -94.5q-33 -39 -86 -39q-51 0 -84 39q-35 41 -35 94.5z" />
<glyph unicode="&#xc0;" horiz-adv-x="1329" d="M-10 0v106h116l480 1387h151l480 -1387h133v-106h-490v106h150l-113 328h-565l-113 -328h148v-106h-377zM369 541h493l-246 710zM426 1899h176l166 -264h-107z" />
<glyph unicode="&#xc1;" horiz-adv-x="1329" d="M-10 0v106h116l480 1387h151l480 -1387h133v-106h-490v106h150l-113 328h-565l-113 -328h148v-106h-377zM369 541h493l-246 710zM559 1635l164 264h176l-236 -264h-104z" />
<glyph unicode="&#xc2;" horiz-adv-x="1329" d="M-10 0v106h116l480 1387h151l480 -1387h133v-106h-490v106h150l-113 328h-565l-113 -328h148v-106h-377zM369 541h493l-246 710zM378 1635l207 264h158l209 -264h-105l-182 161l-182 -161h-105z" />
<glyph unicode="&#xc3;" horiz-adv-x="1329" d="M-10 0v106h116l480 1387h151l480 -1387h133v-106h-490v106h150l-113 328h-565l-113 -328h148v-106h-377zM369 541h493l-246 710zM368 1667q4 104 47 160q47 59 123 59q29 0 60 -10q33 -10 77 -39l45 -26q29 -16 41 -21q18 -6 35 -6q37 0 57.5 26.5t20.5 75.5h88 q-2 -102 -49 -161q-45 -57 -129 -58q-63 0 -127 45l-2 2l-45 29q-25 16 -37 21q-18 6 -33 6q-35 0 -59 -29q-23 -27 -27 -74h-86z" />
<glyph unicode="&#xc4;" horiz-adv-x="1329" d="M-10 0v106h116l480 1387h151l480 -1387h133v-106h-490v106h150l-113 328h-565l-113 -328h148v-106h-377zM369 541h493l-246 710zM385 1768q0 47 30.5 81.5t73.5 34.5q45 0 76 -34.5t31 -81.5q0 -51 -31 -84t-76 -33q-43 0 -73.5 33t-30.5 84zM735 1768q0 47 30.5 81.5 t75.5 34.5q41 0 72 -34q33 -37 33 -82q0 -51 -31 -84t-74 -33q-45 0 -75.5 33t-30.5 84z" />
<glyph unicode="&#xc5;" horiz-adv-x="1329" d="M-10 0v106h116l441 1278q-65 37 -98 99q-33 59 -33 143q0 113 71 195q70 80 175 80q100 0 173.5 -80t73.5 -195q0 -78 -35 -143q-33 -63 -100 -99l443 -1278h133v-106h-490v106h150l-113 328h-565l-113 -328h148v-106h-377zM369 541h491l-244 710zM526 1626 q0 -66 39 -106q41 -45 96.5 -45t96.5 45t41 106.5t-41 106.5t-96.5 45t-96.5 -43q-39 -41 -39 -109z" />
<glyph unicode="&#xc6;" horiz-adv-x="1843" d="M-33 0v106h119l530 1280h-192v107h1311v-332h-111v209h-620v-500h444v187h111v-496h-111v187h-444v-625h634v209h111v-332h-1098v106h172v328h-483l-137 -328h147v-106h-383zM383 541h440v845h-90z" />
<glyph unicode="&#xc7;" horiz-adv-x="1409" d="M104 745q0 350 181 562q182 213 477 213q106 0 233 -31q106 -27 269 -98v-344h-103q-35 190 -133 276q-102 90 -283 90q-215 0 -325 -170q-111 -169 -111 -497.5t111 -497.5q111 -170 325 -170q150 0 248.5 80t141.5 237h165q-61 -213 -200 -317q-139 -106 -355 -107 q-131 0 -243 49q-111 47 -201 148q-96 104 -147 254q-50 141 -50 323zM561 -240q35 -18 72 -26q33 -8 67 -8q53 0 82 26.5t29 71.5q0 31 -20 72q-29 57 -60 104h88q57 -63 86 -120.5t29 -104.5q0 -80 -57.5 -125t-157.5 -45q-39 0 -78 6q-40 6 -80 18v131z" />
<glyph unicode="&#xc8;" horiz-adv-x="1343" d="M102 0v106h170v1280h-170v107h1082v-332h-111v209h-618v-500h442v187h109v-496h-109v187h-442v-625h632v209h111v-332h-1096zM435 1899h176l166 -264h-107z" />
<glyph unicode="&#xc9;" horiz-adv-x="1343" d="M102 0v106h170v1280h-170v107h1082v-332h-111v209h-618v-500h442v187h109v-496h-109v187h-442v-625h632v209h111v-332h-1096zM568 1635l164 264h176l-236 -264h-104z" />
<glyph unicode="&#xca;" horiz-adv-x="1343" d="M102 0v106h170v1280h-170v107h1082v-332h-111v209h-618v-500h442v187h109v-496h-109v187h-442v-625h632v209h111v-332h-1096zM387 1635l207 264h158l209 -264h-105l-182 161l-182 -161h-105z" />
<glyph unicode="&#xcb;" horiz-adv-x="1343" d="M102 0v106h170v1280h-170v107h1082v-332h-111v209h-618v-500h442v187h109v-496h-109v187h-442v-625h632v209h111v-332h-1096zM394 1768q0 47 30.5 81.5t73.5 34.5q45 0 76 -34.5t31 -81.5q0 -51 -31 -84t-76 -33q-43 0 -73.5 33t-30.5 84zM744 1768q0 47 30.5 81.5 t75.5 34.5q41 0 72 -34q33 -37 33 -82q0 -51 -31 -84t-74 -33q-45 0 -75.5 33t-30.5 84z" />
<glyph unicode="&#xcc;" horiz-adv-x="727" d="M102 0v106h170v1280h-170v107h525v-107h-172v-1280h172v-106h-525zM125 1899h176l166 -264h-107z" />
<glyph unicode="&#xcd;" horiz-adv-x="727" d="M102 0v106h170v1280h-170v107h525v-107h-172v-1280h172v-106h-525zM258 1635l164 264h176l-236 -264h-104z" />
<glyph unicode="&#xce;" horiz-adv-x="727" d="M102 0v106h170v1280h-170v107h525v-107h-172v-1280h172v-106h-525zM77 1635l207 264h158l209 -264h-105l-182 161l-182 -161h-105z" />
<glyph unicode="&#xcf;" horiz-adv-x="727" d="M102 0v106h170v1280h-170v107h525v-107h-172v-1280h172v-106h-525zM84 1768q0 47 30.5 81.5t73.5 34.5q45 0 76 -34.5t31 -81.5q0 -51 -31 -84t-76 -33q-43 0 -73.5 33t-30.5 84zM434 1768q0 47 30.5 81.5t75.5 34.5q41 0 72 -34q33 -37 33 -82q0 -51 -31 -84t-74 -33 q-45 0 -75.5 33t-30.5 84z" />
<glyph unicode="&#xd0;" horiz-adv-x="1486" d="M102 719v125h181v542h-172v107h534q350 0 543 -197q193 -195 192 -548q0 -350 -194.5 -549t-540.5 -199h-534v106h172v613h-181zM463 106h170q260 0 401 166q139 164 139.5 475.5t-139 475t-401.5 163.5h-170v-542h303v-125h-303v-613z" />
<glyph unicode="&#xd1;" horiz-adv-x="1611" d="M90 0v106h180v1280h-180v107h344l805 -1178v1071h-178v107h471v-107h-180v-1415h-111l-858 1258v-1123h178v-106h-471zM510 1667q4 104 47 160q47 59 123 59q29 0 60 -10q33 -10 77 -39l45 -26q29 -16 41 -21q18 -6 35 -6q37 0 57.5 26.5t20.5 75.5h88q-2 -102 -49 -161 q-45 -57 -129 -58q-63 0 -127 45l-2 2l-45 29q-25 16 -37 21q-18 6 -33 6q-35 0 -59 -29q-23 -27 -27 -74h-86z" />
<glyph unicode="&#xd2;" horiz-adv-x="1509" d="M104 745q0 182 50 324q51 150 147 254q89 98 202.5 147.5t252.5 49.5q291 0 473 -213q180 -211 180 -562q0 -180 -49 -323q-47 -141 -152 -254q-90 -100 -200 -148q-114 -49 -252.5 -49t-252 49.5t-202.5 147.5q-96 104 -147 254q-50 141 -50 323zM309 745.5 q0 -331.5 113 -499.5t334 -168t333.5 168t112.5 499.5t-112.5 499.5t-333.5 168t-334 -168t-113 -499.5zM517 1899h176l166 -264h-107z" />
<glyph unicode="&#xd3;" horiz-adv-x="1509" d="M104 745q0 182 50 324q51 150 147 254q89 98 202.5 147.5t252.5 49.5q291 0 473 -213q180 -211 180 -562q0 -180 -49 -323q-47 -141 -152 -254q-90 -100 -200 -148q-114 -49 -252.5 -49t-252 49.5t-202.5 147.5q-96 104 -147 254q-50 141 -50 323zM309 745.5 q0 -331.5 113 -499.5t334 -168t333.5 168t112.5 499.5t-112.5 499.5t-333.5 168t-334 -168t-113 -499.5zM650 1635l164 264h176l-236 -264h-104z" />
<glyph unicode="&#xd4;" horiz-adv-x="1509" d="M104 745q0 182 50 324q51 150 147 254q89 98 202.5 147.5t252.5 49.5q291 0 473 -213q180 -211 180 -562q0 -180 -49 -323q-47 -141 -152 -254q-90 -100 -200 -148q-114 -49 -252.5 -49t-252 49.5t-202.5 147.5q-96 104 -147 254q-50 141 -50 323zM309 745.5 q0 -331.5 113 -499.5t334 -168t333.5 168t112.5 499.5t-112.5 499.5t-333.5 168t-334 -168t-113 -499.5zM469 1635l207 264h158l209 -264h-105l-182 161l-182 -161h-105z" />
<glyph unicode="&#xd5;" horiz-adv-x="1509" d="M104 745q0 182 50 324q51 150 147 254q89 98 202.5 147.5t252.5 49.5q291 0 473 -213q180 -211 180 -562q0 -180 -49 -323q-47 -141 -152 -254q-90 -100 -200 -148q-114 -49 -252.5 -49t-252 49.5t-202.5 147.5q-96 104 -147 254q-50 141 -50 323zM309 745.5 q0 -331.5 113 -499.5t334 -168t333.5 168t112.5 499.5t-112.5 499.5t-333.5 168t-334 -168t-113 -499.5zM459 1667q4 104 47 160q47 59 123 59q29 0 60 -10q33 -10 77 -39l45 -26q29 -16 41 -21q18 -6 35 -6q37 0 57.5 26.5t20.5 75.5h88q-2 -102 -49 -161q-45 -57 -129 -58 q-63 0 -127 45l-2 2l-45 29q-25 16 -37 21q-18 6 -33 6q-35 0 -59 -29q-23 -27 -27 -74h-86z" />
<glyph unicode="&#xd6;" horiz-adv-x="1509" d="M104 745q0 182 50 324q51 150 147 254q89 98 202.5 147.5t252.5 49.5q291 0 473 -213q180 -211 180 -562q0 -180 -49 -323q-47 -141 -152 -254q-90 -100 -200 -148q-114 -49 -252.5 -49t-252 49.5t-202.5 147.5q-96 104 -147 254q-50 141 -50 323zM309 745.5 q0 -331.5 113 -499.5t334 -168t333.5 168t112.5 499.5t-112.5 499.5t-333.5 168t-334 -168t-113 -499.5zM476 1768q0 47 30.5 81.5t73.5 34.5q45 0 76 -34.5t31 -81.5q0 -51 -31 -84t-76 -33q-43 0 -73.5 33t-30.5 84zM826 1768q0 47 30.5 81.5t75.5 34.5q41 0 72 -34 q33 -37 33 -82q0 -51 -31 -84t-74 -33q-45 0 -75.5 33t-30.5 84z" />
<glyph unicode="&#xd7;" d="M256 180l414 461l-414 463l100 113l416 -461l416 461l102 -113l-416 -463l416 -461l-102 -112l-416 460l-416 -460z" />
<glyph unicode="&#xd8;" horiz-adv-x="1509" d="M90 12l168 207q-80 111 -117 236q-37 129 -37 290q0 346 181 560q182 215 471 215q129 0 235 -43q111 -45 195 -125l160 198l71 -71l-166 -203q77 -108 117 -240q41 -135 41 -291q0 -346 -180 -559q-181 -215 -473 -215q-126 0 -234 43q-106 43 -198 129l-164 -200z M309 745q0 -127 15 -215q16 -104 45 -178l725 887q-55 86 -144 131q-82 43 -194 43q-221 0 -334 -168t-113 -500zM418 256q61 -92 141 -133q90 -45 197 -45q221 0 333.5 168t112.5 499q0 123 -14 215.5t-47 180.5z" />
<glyph unicode="&#xd9;" horiz-adv-x="1552" d="M86 1386v107h526v-107h-172v-772q0 -285 84 -399q82 -113 289 -113q211 0 293 113q84 115 84 399v772h-172v107h452v-107h-170v-792q0 -338 -118 -481q-117 -141 -402 -142q-281 0 -401 142q-121 143 -121 481v792h-172zM574 1899h176l166 -264h-107z" />
<glyph unicode="&#xda;" horiz-adv-x="1552" d="M86 1386v107h526v-107h-172v-772q0 -285 84 -399q82 -113 289 -113q211 0 293 113q84 115 84 399v772h-172v107h452v-107h-170v-792q0 -338 -118 -481q-117 -141 -402 -142q-281 0 -401 142q-121 143 -121 481v792h-172zM707 1635l164 264h176l-236 -264h-104z" />
<glyph unicode="&#xdb;" horiz-adv-x="1552" d="M86 1386v107h526v-107h-172v-772q0 -285 84 -399q82 -113 289 -113q211 0 293 113q84 115 84 399v772h-172v107h452v-107h-170v-792q0 -338 -118 -481q-117 -141 -402 -142q-281 0 -401 142q-121 143 -121 481v792h-172zM526 1635l207 264h158l209 -264h-105l-182 161 l-182 -161h-105z" />
<glyph unicode="&#xdc;" horiz-adv-x="1552" d="M86 1386v107h526v-107h-172v-772q0 -285 84 -399q82 -113 289 -113q211 0 293 113q84 115 84 399v772h-172v107h452v-107h-170v-792q0 -338 -118 -481q-117 -141 -402 -142q-281 0 -401 142q-121 143 -121 481v792h-172zM533 1768q0 47 30.5 81.5t73.5 34.5 q45 0 76 -34.5t31 -81.5q0 -51 -31 -84t-76 -33q-43 0 -73.5 33t-30.5 84zM883 1768q0 47 30.5 81.5t75.5 34.5q41 0 72 -34q33 -37 33 -82q0 -51 -31 -84t-74 -33q-45 0 -75.5 33t-30.5 84z" />
<glyph unicode="&#xdd;" horiz-adv-x="1214" d="M-20 1386v107h499v-107h-157l335 -604l336 604h-151v107h391v-107h-127l-404 -724v-556h172v-106h-526v106h172v537l-416 743h-124zM502 1635l164 264h176l-236 -264h-104z" />
<glyph unicode="&#xde;" horiz-adv-x="1243" d="M102 0v106h170v1280h-170v107h562v-107h-209v-219h282q201 0 320 -114q117 -115 117 -305q0 -194 -117 -308q-119 -115 -320 -114h-282v-220h209v-106h-562zM455 434h237q135 0 205 80q72 82 72 233.5t-72 233.5q-70 80 -205 80h-237v-627z" />
<glyph unicode="&#xdf;" horiz-adv-x="1230" d="M53 0v106h160v1080q0 176 102 272q104 98 291 98q193 0 293 -104q98 -100 111 -315h-21q-131 0 -205 -54q-76 -55 -75 -147q0 -51 24.5 -90t89.5 -86l80 -55q141 -100 193 -185q55 -90 55 -198q0 -154 -104.5 -252.5t-270.5 -98.5q-77 0 -153 19q-68 16 -146 53v233h98 q2 -100 54 -153q49 -53 141 -53q98 0 158 61q57 59 57 164q0 86 -37 143q-39 59 -141 131l-78 54q-92 61 -133 129q-41 66 -41 147q0 121 78 205q76 82 213 106q-6 115 -70 183q-61 66 -170 65q-119 0 -174 -65q-53 -61 -53 -203v-1190h-326z" />
<glyph unicode="&#xe0;" horiz-adv-x="1097" d="M92 319q0 164 107 256q104 90 303 91h231v73q0 121 -65 187q-68 68 -187 67q-96 0 -157 -51q-55 -47 -72 -147h-86v215q88 41 168 61.5t158 20.5q201 0 303 -109q104 -111 104 -319v-558h148v-106h-314v115q-55 -74 -127 -109q-74 -35 -168 -35q-160 0 -252 95 q-94 97 -94 253zM276 319q0 -111 61.5 -176t166.5 -65q100 0 166 72q63 70 63 184v225h-213q-121 0 -184 -59q-60 -58 -60 -181zM205 1636h176l233 -376h-104z" />
<glyph unicode="&#xe1;" horiz-adv-x="1097" d="M92 319q0 164 107 256q104 90 303 91h231v73q0 121 -65 187q-68 68 -187 67q-96 0 -157 -51q-55 -47 -72 -147h-86v215q88 41 168 61.5t158 20.5q201 0 303 -109q104 -111 104 -319v-558h148v-106h-314v115q-55 -74 -127 -109q-74 -35 -168 -35q-160 0 -252 95 q-94 97 -94 253zM276 319q0 -111 61.5 -176t166.5 -65q100 0 166 72q63 70 63 184v225h-213q-121 0 -184 -59q-60 -58 -60 -181zM405 1262l232 376h180l-307 -376h-105z" />
<glyph unicode="&#xe2;" horiz-adv-x="1097" d="M92 319q0 164 107 256q104 90 303 91h231v73q0 121 -65 187q-68 68 -187 67q-96 0 -157 -51q-55 -47 -72 -147h-86v215q88 41 168 61.5t158 20.5q201 0 303 -109q104 -111 104 -319v-558h148v-106h-314v115q-55 -74 -127 -109q-74 -35 -168 -35q-160 0 -252 95 q-94 97 -94 253zM276 319q0 -111 61.5 -176t166.5 -65q100 0 166 72q63 70 63 184v225h-213q-121 0 -184 -59q-60 -58 -60 -181zM225 1262l211 376h152l211 -376h-105l-182 260l-182 -260h-105z" />
<glyph unicode="&#xe3;" horiz-adv-x="1097" d="M92 319q0 164 107 256q104 90 303 91h231v73q0 121 -65 187q-68 68 -187 67q-96 0 -157 -51q-55 -47 -72 -147h-86v215q88 41 168 61.5t158 20.5q201 0 303 -109q104 -111 104 -319v-558h148v-106h-314v115q-55 -74 -127 -109q-74 -35 -168 -35q-160 0 -252 95 q-94 97 -94 253zM276 319q0 -111 61.5 -176t166.5 -65q100 0 166 72q63 70 63 184v225h-213q-121 0 -184 -59q-60 -58 -60 -181zM215 1309q4 139 47 209q46 74 129 73q37 0 63 -14q33 -18 62 -47l51 -55q25 -25 35 -31q14 -8 35 -8q39 0 61 41q20 39 25 114h86 q-4 -139 -47 -209q-46 -74 -129 -73q-37 0 -64 14q-33 18 -61 47l-51 55q-25 25 -39 31q-20 8 -31 8q-39 0 -60 -39q-20 -37 -26 -116h-86z" />
<glyph unicode="&#xe4;" horiz-adv-x="1097" d="M92 319q0 164 107 256q104 90 303 91h231v73q0 121 -65 187q-68 68 -187 67q-96 0 -157 -51q-55 -47 -72 -147h-86v215q88 41 168 61.5t158 20.5q201 0 303 -109q104 -111 104 -319v-558h148v-106h-314v115q-55 -74 -127 -109q-74 -35 -168 -35q-160 0 -252 95 q-94 97 -94 253zM276 319q0 -111 61.5 -176t166.5 -65q100 0 166 72q63 70 63 184v225h-213q-121 0 -184 -59q-60 -58 -60 -181zM231 1452q0 45 33 82q31 35 72 35q45 0 75.5 -35t30.5 -82q0 -51 -30.5 -84t-75.5 -33q-43 0 -74 33t-31 84zM581 1452q0 47 31 82t76 35 q43 0 73.5 -35t30.5 -82q0 -51 -30.5 -84t-73.5 -33q-45 0 -76 33t-31 84z" />
<glyph unicode="&#xe5;" horiz-adv-x="1097" d="M92 319q0 164 107 256q104 90 303 91h231v73q0 121 -65 187q-68 68 -187 67q-96 0 -157 -51q-55 -47 -72 -147h-86v215q88 41 168 61.5t158 20.5q201 0 303 -109q104 -111 104 -319v-558h148v-106h-314v115q-55 -74 -127 -109q-74 -35 -168 -35q-160 0 -252 95 q-94 97 -94 253zM276 319q0 -111 61.5 -176t166.5 -65q100 0 166 72q63 70 63 184v225h-213q-121 0 -184 -59q-60 -58 -60 -181zM264 1524q0 113 72 194q72 80 176 80t174 -80q72 -82 72 -194.5t-72 -194.5q-70 -80 -174.5 -80t-175.5 80q-72 82 -72 195zM375 1523.5 q0 -67.5 38 -108.5q40 -43 99 -43q55 0 96 43q41 45 41 109q0 61 -41 106t-96 45q-58 0 -99 -43q-38 -41 -38 -108.5z" />
<glyph unicode="&#xe6;" horiz-adv-x="1730" d="M92 319q0 164 107 256q104 90 303 91h231v73q0 121 -63 187q-63 68 -181 67q-104 0 -163 -49q-57 -49 -74 -149h-86v215q88 41 168 61.5t158 20.5q129 0 215 -43t135 -134q66 88 153 132q90 45 193 45q215 0 332 -150q119 -152 120 -430h-712v-8q0 -217 71 -324 q74 -111 215 -110q109 0 179 63q72 66 98 189h133q-39 -174 -145.5 -262.5t-280.5 -88.5q-113 0 -203 45q-96 49 -164 134q-74 -92 -166 -135.5t-202 -43.5q-182 0 -275 90q-96 92 -96 258zM276 319q0 -111 61.5 -176t166.5 -65q100 0 166 72q63 70 63 184v225h-213 q-121 0 -184 -59q-60 -58 -60 -181zM928 618h518q-6 184 -72 281q-63 94 -186 94q-115 0 -182 -96q-66 -93 -78 -279z" />
<glyph unicode="&#xe7;" horiz-adv-x="1030" d="M92 532.5q0 251.5 127 407.5q125 152 336 152q98 0 180 -23q94 -27 180 -72v-272h-96q-18 141 -81.5 204.5t-182.5 63.5q-133 0 -201 -116q-70 -121 -69 -345q0 -229 67.5 -345.5t202.5 -116.5q108 0 172 61q63 61 86 188h135q-35 -172 -135 -260t-258 -88 q-211 0 -336 154q-127 156 -127 407.5zM352 -240q35 -18 72 -26q33 -8 67 -8q53 0 82 26.5t29 71.5q0 31 -20 72q-29 57 -60 104h88q57 -63 86 -120.5t29 -104.5q0 -80 -57.5 -125t-157.5 -45q-39 0 -78 6q-40 6 -80 18v131z" />
<glyph unicode="&#xe8;" horiz-adv-x="1089" d="M92 532q0 254 125 406q127 154 328 154q217 0 334 -148q115 -145 120 -432h-714v-8q0 -213 73.5 -323.5t214.5 -110.5q109 0 179 63q72 66 98 189h133q-39 -172 -147 -263q-106 -88 -281 -88q-211 0 -336 154q-127 155 -127 407zM285 618h520q-6 184 -72 281 q-63 94 -188 94q-115 0 -180.5 -96.5t-79.5 -278.5zM240 1636h176l233 -376h-104z" />
<glyph unicode="&#xe9;" horiz-adv-x="1089" d="M92 532q0 254 125 406q127 154 328 154q217 0 334 -148q115 -145 120 -432h-714v-8q0 -213 73.5 -323.5t214.5 -110.5q109 0 179 63q72 66 98 189h133q-39 -172 -147 -263q-106 -88 -281 -88q-211 0 -336 154q-127 155 -127 407zM285 618h520q-6 184 -72 281 q-63 94 -188 94q-115 0 -180.5 -96.5t-79.5 -278.5zM440 1262l232 376h180l-307 -376h-105z" />
<glyph unicode="&#xea;" horiz-adv-x="1089" d="M92 532q0 254 125 406q127 154 328 154q217 0 334 -148q115 -145 120 -432h-714v-8q0 -213 73.5 -323.5t214.5 -110.5q109 0 179 63q72 66 98 189h133q-39 -172 -147 -263q-106 -88 -281 -88q-211 0 -336 154q-127 155 -127 407zM285 618h520q-6 184 -72 281 q-63 94 -188 94q-115 0 -180.5 -96.5t-79.5 -278.5zM260 1262l211 376h152l211 -376h-105l-182 260l-182 -260h-105z" />
<glyph unicode="&#xeb;" horiz-adv-x="1089" d="M92 532q0 254 125 406q127 154 328 154q217 0 334 -148q115 -145 120 -432h-714v-8q0 -213 73.5 -323.5t214.5 -110.5q109 0 179 63q72 66 98 189h133q-39 -172 -147 -263q-106 -88 -281 -88q-211 0 -336 154q-127 155 -127 407zM285 618h520q-6 184 -72 281 q-63 94 -188 94q-115 0 -180.5 -96.5t-79.5 -278.5zM266 1452q0 45 33 82q31 35 72 35q45 0 75.5 -35t30.5 -82q0 -51 -30.5 -84t-75.5 -33q-43 0 -74 33t-31 84zM616 1452q0 47 31 82t76 35q43 0 73.5 -35t30.5 -82q0 -51 -30.5 -84t-73.5 -33q-45 0 -76 33t-31 84z" />
<glyph unicode="&#xec;" horiz-adv-x="587" d="M68 0v106h157v850h-157v107h323v-957h156v-106h-479zM-12 1636h176l233 -376h-104z" />
<glyph unicode="&#xed;" horiz-adv-x="587" d="M68 0v106h157v850h-157v107h323v-957h156v-106h-479zM188 1262l232 376h180l-307 -376h-105z" />
<glyph unicode="&#xee;" horiz-adv-x="587" d="M68 0v106h157v850h-157v107h323v-957h156v-106h-479zM8 1262l211 376h152l211 -376h-105l-182 260l-182 -260h-105z" />
<glyph unicode="&#xef;" horiz-adv-x="587" d="M68 0v106h157v850h-157v107h323v-957h156v-106h-479zM14 1452q0 45 33 82q31 35 72 35q45 0 75.5 -35t30.5 -82q0 -51 -30.5 -84t-75.5 -33q-43 0 -74 33t-31 84zM364 1452q0 47 31 82t76 35q43 0 73.5 -35t30.5 -82q0 -51 -30.5 -84t-73.5 -33q-45 0 -76 33t-31 84z" />
<glyph unicode="&#xf0;" horiz-adv-x="1107" d="M92 518q0 236 127 381t332 145q20 0 65 -4q53 -4 80 -10q-27 68 -53 107q-43 68 -78 108l-289 -149l-32 78l264 135q-53 57 -127 98q-78 45 -156 63l17 86q92 -20 200 -73q88 -43 176 -115l291 150l33 -78l-258 -133q168 -168 250 -363q84 -199 84 -412q0 -252 -127 -407 q-125 -154 -336 -154q-207 0 -336 152q-127 147 -127 395zM285 508q0 -209 71.5 -323.5t198.5 -114.5t199 114q70 113 69 328q0 117 -20 217q-23 113 -64 199q-53 12 -77 14q-49 4 -72 4q-156 0 -230 -106q-75 -111 -75 -332z" />
<glyph unicode="&#xf1;" horiz-adv-x="1185" d="M68 956v107h323v-189q45 106 119 162t170 56q160 0 233 -101q74 -102 74 -315v-570h150v-106h-457v106h141v512q0 193 -43 266.5t-151 73.5q-113 0 -176 -94q-59 -90 -60 -272v-486h144v-106h-459v106h149v850h-157zM295 1309q4 139 47 209q46 74 129 73q37 0 63 -14 q33 -18 62 -47l51 -55q25 -25 35 -31q14 -8 35 -8q39 0 61 41q20 39 25 114h86q-4 -139 -47 -209q-46 -74 -129 -73q-37 0 -64 14q-33 18 -61 47l-51 55q-25 25 -39 31q-20 8 -31 8q-39 0 -60 -39q-20 -37 -26 -116h-86z" />
<glyph unicode="&#xf2;" horiz-adv-x="1107" d="M92 532q0 250 127 406q125 154 336 154t336 -154q127 -156 127 -406q0 -252 -127 -407q-125 -154 -336 -154t-336 154q-127 155 -127 407zM285 532q0 -225 69 -346q68 -117 201 -116.5t200.5 117t67.5 345.5q0 227 -67.5 344t-200.5 117q-135 0 -202.5 -117t-67.5 -344z M248 1636h176l233 -376h-104z" />
<glyph unicode="&#xf3;" horiz-adv-x="1107" d="M92 532q0 250 127 406q125 154 336 154t336 -154q127 -156 127 -406q0 -252 -127 -407q-125 -154 -336 -154t-336 154q-127 155 -127 407zM285 532q0 -225 69 -346q68 -117 201 -116.5t200.5 117t67.5 345.5q0 227 -67.5 344t-200.5 117q-135 0 -202.5 -117t-67.5 -344z M448 1262l232 376h180l-307 -376h-105z" />
<glyph unicode="&#xf4;" horiz-adv-x="1107" d="M92 532q0 250 127 406q125 154 336 154t336 -154q127 -156 127 -406q0 -252 -127 -407q-125 -154 -336 -154t-336 154q-127 155 -127 407zM285 532q0 -225 69 -346q68 -117 201 -116.5t200.5 117t67.5 345.5q0 227 -67.5 344t-200.5 117q-135 0 -202.5 -117t-67.5 -344z M268 1262l211 376h152l211 -376h-105l-182 260l-182 -260h-105z" />
<glyph unicode="&#xf5;" horiz-adv-x="1107" d="M92 532q0 250 127 406q125 154 336 154t336 -154q127 -156 127 -406q0 -252 -127 -407q-125 -154 -336 -154t-336 154q-127 155 -127 407zM285 532q0 -225 69 -346q68 -117 201 -116.5t200.5 117t67.5 345.5q0 227 -67.5 344t-200.5 117q-135 0 -202.5 -117t-67.5 -344z M258 1309q4 139 47 209q46 74 129 73q37 0 63 -14q33 -18 62 -47l51 -55q25 -25 35 -31q14 -8 35 -8q39 0 61 41q20 39 25 114h86q-4 -139 -47 -209q-46 -74 -129 -73q-37 0 -64 14q-33 18 -61 47l-51 55q-25 25 -39 31q-20 8 -31 8q-39 0 -60 -39q-20 -37 -26 -116h-86z " />
<glyph unicode="&#xf6;" horiz-adv-x="1107" d="M92 532q0 250 127 406q125 154 336 154t336 -154q127 -156 127 -406q0 -252 -127 -407q-125 -154 -336 -154t-336 154q-127 155 -127 407zM285 532q0 -225 69 -346q68 -117 201 -116.5t200.5 117t67.5 345.5q0 227 -67.5 344t-200.5 117q-135 0 -202.5 -117t-67.5 -344z M274 1452q0 45 33 82q31 35 72 35q45 0 75.5 -35t30.5 -82q0 -51 -30.5 -84t-75.5 -33q-43 0 -74 33t-31 84zM624 1452q0 47 31 82t76 35q43 0 73.5 -35t30.5 -82q0 -51 -30.5 -84t-73.5 -33q-45 0 -76 33t-31 84z" />
<glyph unicode="&#xf7;" d="M195 561v162h1155v-162h-1155zM651 272q0 53 35 95q33 39 86 39q51 0 84 -39q37 -43 37 -94.5t-37 -94.5q-33 -39 -84 -39q-53 0 -86 39q-35 41 -35 94zM651 1012q0 53 35 94q33 39 86 39q51 0 84 -39q37 -43 37 -94t-37 -94q-33 -39 -84 -39t-86 39t-35 94z" />
<glyph unicode="&#xf8;" horiz-adv-x="1107" d="M68 -31l135 178q-53 74 -82 172.5t-29 212.5q0 250 127 406q125 154 336 154q84 0 156 -25q70 -25 131 -76l125 166l67 -63l-131 -172q57 -76 84 -172q31 -109 31 -218q0 -252 -127 -407q-125 -154 -336 -154q-90 0 -158 27q-76 29 -131 80l-129 -172zM285 532 q0 -53 8 -131q6 -59 18 -108l445 586q-33 57 -84 85.5t-117 28.5q-133 0 -201 -116q-69 -122 -69 -345zM352 190q35 -57 86 -90q49 -31 117 -30q131 0 201 118q68 117 67 344q0 74 -6 136q-6 66 -20 112z" />
<glyph unicode="&#xf9;" horiz-adv-x="1185" d="M49 956v107h316v-619q0 -195 43 -266.5t153 -71.5q113 0 174.5 94.5t61.5 272.5v483h-146v107h312v-957h155v-106h-321v188q-45 -106 -119 -161.5t-170 -55.5q-160 0 -234 101q-76 104 -75 315v569h-150zM220 1636h176l233 -376h-104z" />
<glyph unicode="&#xfa;" horiz-adv-x="1185" d="M49 956v107h316v-619q0 -195 43 -266.5t153 -71.5q113 0 174.5 94.5t61.5 272.5v483h-146v107h312v-957h155v-106h-321v188q-45 -106 -119 -161.5t-170 -55.5q-160 0 -234 101q-76 104 -75 315v569h-150zM420 1262l232 376h180l-307 -376h-105z" />
<glyph unicode="&#xfb;" horiz-adv-x="1185" d="M49 956v107h316v-619q0 -195 43 -266.5t153 -71.5q113 0 174.5 94.5t61.5 272.5v483h-146v107h312v-957h155v-106h-321v188q-45 -106 -119 -161.5t-170 -55.5q-160 0 -234 101q-76 104 -75 315v569h-150zM240 1262l211 376h152l211 -376h-105l-182 260l-182 -260h-105z " />
<glyph unicode="&#xfc;" horiz-adv-x="1185" d="M49 956v107h316v-619q0 -195 43 -266.5t153 -71.5q113 0 174.5 94.5t61.5 272.5v483h-146v107h312v-957h155v-106h-321v188q-45 -106 -119 -161.5t-170 -55.5q-160 0 -234 101q-76 104 -75 315v569h-150zM246 1452q0 45 33 82q31 35 72 35q45 0 75.5 -35t30.5 -82 q0 -51 -30.5 -84t-75.5 -33q-43 0 -74 33t-31 84zM596 1452q0 47 31 82t76 35q43 0 73.5 -35t30.5 -82q0 -51 -30.5 -84t-73.5 -33q-45 0 -76 33t-31 84z" />
<glyph unicode="&#xfd;" horiz-adv-x="1040" d="M-4 956v107h438v-107h-151l268 -731l268 731h-141v107h358v-107h-106l-441 -1196q-43 -125 -98 -170q-53 -45 -155 -45q-45 0 -86 9q-55 12 -91 22v203h84q6 -68 31 -98q23 -29 82 -29q47 0 78 31q29 29 63 122l64 177l-357 974h-108zM415 1262l232 376h180l-307 -376 h-105z" />
<glyph unicode="&#xfe;" horiz-adv-x="1177" d="M53 -319h160v1769h-160v106h326v-659q49 101 123 147q76 47 186 48q176 0 287 -154q113 -156 112 -406q0 -246 -112 -405q-111 -156 -287 -156q-111 0 -186 47q-74 46 -123 148v-485h156v-107h-482v107zM379 479q0 -190 65 -293q63 -100 192.5 -100t192.5 113 q66 115 66 334t-65.5 331.5t-192.5 112.5q-129 0 -193 -100q-66 -102 -65 -293v-105z" />
<glyph unicode="&#xff;" horiz-adv-x="1040" d="M-4 956v107h438v-107h-151l268 -731l268 731h-141v107h358v-107h-106l-441 -1196q-43 -125 -98 -170q-53 -45 -155 -45q-45 0 -86 9q-55 12 -91 22v203h84q6 -68 31 -98q23 -29 82 -29q47 0 78 31q29 29 63 122l64 177l-357 974h-108zM241 1452q0 45 33 82q31 35 72 35 q45 0 75.5 -35t30.5 -82q0 -51 -30.5 -84t-75.5 -33q-43 0 -74 33t-31 84zM591 1452q0 47 31 82t76 35q43 0 73.5 -35t30.5 -82q0 -51 -30.5 -84t-73.5 -33q-45 0 -76 33t-31 84z" />
<glyph unicode="&#x100;" horiz-adv-x="1329" d="M394 1693v148h536v-148h-536zM-10 0v106h116l480 1387h151l480 -1387h133v-106h-490v106h150l-113 328h-565l-113 -328h148v-106h-377zM369 541h493l-246 710z" />
<glyph unicode="&#x101;" horiz-adv-x="1097" d="M226 1378v148h536v-148h-536zM92 319q0 164 107 256q104 90 303 91h231v73q0 121 -65 187q-68 68 -187 67q-96 0 -157 -51q-55 -47 -72 -147h-86v215q88 41 168 61.5t158 20.5q201 0 303 -109q104 -111 104 -319v-558h148v-106h-314v115q-55 -74 -127 -109 q-74 -35 -168 -35q-160 0 -252 95q-94 97 -94 253zM276 319q0 -111 61.5 -176t166.5 -65q100 0 166 72q63 70 63 184v225h-213q-121 0 -184 -59q-60 -58 -60 -181z" />
<glyph unicode="&#x102;" horiz-adv-x="1329" d="M391 1897h88q12 -78 58 -115q43 -35 137 -35t137 35q45 37 57 115h86q-9 -144 -79 -215q-72 -72 -201 -72q-131 0 -203 72q-71 71 -80 215zM-10 0v106h116l480 1387h151l480 -1387h133v-106h-490v106h150l-113 328h-565l-113 -328h148v-106h-377zM369 541h493l-246 710z " />
<glyph unicode="&#x103;" horiz-adv-x="1097" d="M254 1581h88q12 -78 58 -115q43 -35 137 -35t137 35q45 37 57 115h86q-9 -144 -79 -215q-72 -72 -201 -72q-131 0 -203 72q-71 71 -80 215zM92 319q0 164 107 256q104 90 303 91h231v73q0 121 -65 187q-68 68 -187 67q-96 0 -157 -51q-55 -47 -72 -147h-86v215 q88 41 168 61.5t158 20.5q201 0 303 -109q104 -111 104 -319v-558h148v-106h-314v115q-55 -74 -127 -109q-74 -35 -168 -35q-160 0 -252 95q-94 97 -94 253zM276 319q0 -111 61.5 -176t166.5 -65q100 0 166 72q63 70 63 184v225h-213q-121 0 -184 -59q-60 -58 -60 -181z" />
<glyph unicode="&#x104;" horiz-adv-x="1329" d="M750 -223q0 51 26.5 102t90.5 121h84v-2q-80 -123 -80 -170q0 -46 31 -74q33 -29 79 -28q23 0 52 6q23 4 53 20v-127q-47 -12 -64 -14q-41 -4 -59 -4q-100 0 -158 45q-55 43 -55 125zM-10 0v106h116l480 1387h151l480 -1387h133v-106h-490v106h150l-113 328h-565 l-113 -328h148v-106h-377zM369 541h493l-246 710z" />
<glyph unicode="&#x105;" horiz-adv-x="1097" d="M618 -223q0 51 26.5 102t90.5 121h84v-2q-80 -123 -80 -170q0 -46 31 -74q33 -29 79 -28q23 0 52 6q23 4 53 20v-127q-47 -12 -64 -14q-41 -4 -59 -4q-100 0 -158 45q-55 43 -55 125zM92 319q0 164 107 256q104 90 303 91h231v73q0 121 -65 187q-68 68 -187 67 q-96 0 -157 -51q-55 -47 -72 -147h-86v215q88 41 168 61.5t158 20.5q201 0 303 -109q104 -111 104 -319v-558h148v-106h-314v115q-55 -74 -127 -109q-74 -35 -168 -35q-160 0 -252 95q-94 97 -94 253zM276 319q0 -111 61.5 -176t166.5 -65q100 0 166 72q63 70 63 184v225 h-213q-121 0 -184 -59q-60 -58 -60 -181z" />
<glyph unicode="&#x106;" horiz-adv-x="1409" d="M104 745q0 350 181 562q182 213 477 213q106 0 233 -31q106 -27 269 -98v-344h-103q-35 190 -133 276q-102 90 -283 90q-215 0 -325 -170q-111 -169 -111 -497.5t111 -497.5q111 -170 325 -170q150 0 248.5 80t141.5 237h165q-61 -213 -200 -317q-139 -106 -355 -107 q-131 0 -243 49q-111 47 -201 148q-96 104 -147 254q-50 141 -50 323zM633 1635l164 264h176l-236 -264h-104z" />
<glyph unicode="&#x107;" horiz-adv-x="1030" d="M92 532.5q0 251.5 127 407.5q125 152 336 152q98 0 180 -23q94 -27 180 -72v-272h-96q-18 141 -81.5 204.5t-182.5 63.5q-133 0 -201 -116q-70 -121 -69 -345q0 -229 67.5 -345.5t202.5 -116.5q108 0 172 61q63 61 86 188h135q-35 -172 -135 -260t-258 -88 q-211 0 -336 154q-127 156 -127 407.5zM440 1262l232 376h180l-307 -376h-105z" />
<glyph unicode="&#x108;" horiz-adv-x="1409" d="M458 1635l207 264h158l209 -264h-105l-182 161l-182 -161h-105zM104 745q0 350 181 562q182 213 477 213q106 0 233 -31q106 -27 269 -98v-344h-103q-35 190 -133 276q-102 90 -283 90q-215 0 -325 -170q-111 -169 -111 -497.5t111 -497.5q111 -170 325 -170 q150 0 248.5 80t141.5 237h165q-61 -213 -200 -317q-139 -106 -355 -107q-131 0 -243 49q-111 47 -201 148q-96 104 -147 254q-50 141 -50 323z" />
<glyph unicode="&#x109;" horiz-adv-x="1030" d="M268 1262l211 376h152l211 -376h-105l-182 260l-182 -260h-105zM92 532.5q0 251.5 127 407.5q125 152 336 152q98 0 180 -23q94 -27 180 -72v-272h-96q-18 141 -81.5 204.5t-182.5 63.5q-133 0 -201 -116q-70 -121 -69 -345q0 -229 67.5 -345.5t202.5 -116.5 q108 0 172 61q63 61 86 188h135q-35 -172 -135 -260t-258 -88q-211 0 -336 154q-127 156 -127 407.5z" />
<glyph unicode="&#x10a;" horiz-adv-x="1409" d="M641 1770q0 49 30 82q31 35 74 34.5t74 -34.5q31 -33 31 -82q0 -53 -29 -84q-31 -33 -76 -33t-76 33q-28 31 -28 84zM104 745q0 350 181 562q182 213 477 213q106 0 233 -31q106 -27 269 -98v-344h-103q-35 190 -133 276q-102 90 -283 90q-215 0 -325 -170 q-111 -169 -111 -497.5t111 -497.5q111 -170 325 -170q150 0 248.5 80t141.5 237h165q-61 -213 -200 -317q-139 -106 -355 -107q-131 0 -243 49q-111 47 -201 148q-96 104 -147 254q-50 141 -50 323z" />
<glyph unicode="&#x10b;" horiz-adv-x="1030" d="M450 1452q0 47 31 82t74 35t73.5 -35t30.5 -82q0 -53 -28 -84q-31 -33 -76 -33t-76 33q-29 31 -29 84zM92 532.5q0 251.5 127 407.5q125 152 336 152q98 0 180 -23q94 -27 180 -72v-272h-96q-18 141 -81.5 204.5t-182.5 63.5q-133 0 -201 -116q-70 -121 -69 -345 q0 -229 67.5 -345.5t202.5 -116.5q108 0 172 61q63 61 86 188h135q-35 -172 -135 -260t-258 -88q-211 0 -336 154q-127 156 -127 407.5z" />
<glyph unicode="&#x10c;" horiz-adv-x="1409" d="M104 745q0 350 181 562q182 213 477 213q106 0 233 -31q106 -27 269 -98v-344h-103q-35 190 -133 276q-102 90 -283 90q-215 0 -325 -170q-111 -169 -111 -497.5t111 -497.5q111 -170 325 -170q150 0 248.5 80t141.5 237h165q-61 -213 -200 -317q-139 -106 -355 -107 q-131 0 -243 49q-111 47 -201 148q-96 104 -147 254q-50 141 -50 323zM452 1899h105l182 -162l182 162h105l-209 -264h-158z" />
<glyph unicode="&#x10d;" horiz-adv-x="1030" d="M92 532.5q0 251.5 127 407.5q125 152 336 152q98 0 180 -23q94 -27 180 -72v-272h-96q-18 141 -81.5 204.5t-182.5 63.5q-133 0 -201 -116q-70 -121 -69 -345q0 -229 67.5 -345.5t202.5 -116.5q108 0 172 61q63 61 86 188h135q-35 -172 -135 -260t-258 -88 q-211 0 -336 154q-127 156 -127 407.5zM260 1638h105l182 -260l182 260h105l-211 -376h-152z" />
<glyph unicode="&#x10e;" horiz-adv-x="1476" d="M102 0v106h170v1280h-170v107h535q347 0 541 -197q195 -199 194.5 -549t-195 -548.5t-540.5 -198.5h-535zM455 106h168q260 0 401 166t141 476q0 311 -139 474.5t-403 163.5h-168v-1280zM382 1899h105l182 -162l182 162h105l-209 -264h-158z" />
<glyph unicode="&#x10f;" horiz-adv-x="1177" d="M92 532q0 252 110.5 406t289.5 154q111 0 186.5 -47.5t124.5 -147.5v553h-158v106h324v-1450h157v-106h-323v166q-49 -100 -125 -147.5t-186 -47.5q-176 0 -287 156q-113 159 -113 405zM285 532.5q0 -219.5 65 -333.5q63 -113 195 -113q127 0 190 100q68 106 68 293v105 q0 186 -68 293q-63 100 -190 100q-129 0 -194.5 -112.5t-65.5 -332zM1127 1178l55 376h178l-129 -376h-104z" />
<glyph unicode="&#x110;" horiz-adv-x="1486" d="M102 719v125h181v542h-172v107h534q350 0 543 -197q193 -195 192 -548q0 -350 -194.5 -549t-540.5 -199h-534v106h172v613h-181zM463 106h170q260 0 401 166q139 164 139.5 475.5t-139 475t-401.5 163.5h-170v-542h303v-125h-303v-613z" />
<glyph unicode="&#x111;" horiz-adv-x="1177" d="M92 532q0 252 110.5 406t289.5 154q111 0 186.5 -47.5t124.5 -147.5v330h-295v106h295v117h-158v106h324v-223h157v-106h-157v-1121h157v-106h-323v166q-49 -100 -125 -147.5t-186 -47.5q-176 0 -287 156q-113 159 -113 405zM285 532.5q0 -219.5 65 -333.5 q63 -113 195 -113q127 0 190 100q68 106 68 293v105q0 186 -68 293q-63 100 -190 100q-129 0 -194.5 -112.5t-65.5 -332z" />
<glyph unicode="&#x112;" horiz-adv-x="1343" d="M375 1693v148h536v-148h-536zM102 0v106h170v1280h-170v107h1082v-332h-111v209h-618v-500h442v187h109v-496h-109v187h-442v-625h632v209h111v-332h-1096z" />
<glyph unicode="&#x113;" horiz-adv-x="1089" d="M279 1378v148h536v-148h-536zM92 532q0 254 125 406q127 154 328 154q217 0 334 -148q115 -145 120 -432h-714v-8q0 -213 73.5 -323.5t214.5 -110.5q109 0 179 63q72 66 98 189h133q-39 -172 -147 -263q-106 -88 -281 -88q-211 0 -336 154q-127 155 -127 407zM285 618 h520q-6 184 -72 281q-63 94 -188 94q-115 0 -180.5 -96.5t-79.5 -278.5z" />
<glyph unicode="&#x114;" horiz-adv-x="1343" d="M394 1901h86q14 -55 63 -82q47 -27 131 -27t131 27q49 27 64 82h86q-18 -119 -90 -180q-70 -61 -191 -62q-120 0 -190 62q-72 61 -90 180zM102 0v106h170v1280h-170v107h1082v-332h-111v209h-618v-500h442v187h109v-496h-109v187h-442v-625h632v209h111v-332h-1096z" />
<glyph unicode="&#x115;" horiz-adv-x="1089" d="M264 1608h88q12 -78 58 -115q43 -35 137 -35t137 35q45 37 57 115h86q-9 -144 -79 -215q-72 -72 -201 -72q-131 0 -203 72q-71 71 -80 215zM92 532q0 254 125 406q127 154 328 154q217 0 334 -148q115 -145 120 -432h-714v-8q0 -213 73.5 -323.5t214.5 -110.5 q109 0 179 63q72 66 98 189h133q-39 -172 -147 -263q-106 -88 -281 -88q-211 0 -336 154q-127 155 -127 407zM285 618h520q-6 184 -72 281q-63 94 -188 94q-115 0 -180.5 -96.5t-79.5 -278.5z" />
<glyph unicode="&#x116;" horiz-adv-x="1343" d="M570 1770q0 49 30 82q31 35 74 34.5t74 -34.5q31 -33 31 -82q0 -53 -29 -84q-31 -33 -76 -33t-76 33q-28 31 -28 84zM102 0v106h170v1280h-170v107h1082v-332h-111v209h-618v-500h442v187h109v-496h-109v187h-442v-625h632v209h111v-332h-1096z" />
<glyph unicode="&#x117;" horiz-adv-x="1089" d="M442 1452q0 47 31 82t74 35t73.5 -35t30.5 -82q0 -53 -28 -84q-31 -33 -76 -33t-76 33q-29 31 -29 84zM92 532q0 254 125 406q127 154 328 154q217 0 334 -148q115 -145 120 -432h-714v-8q0 -213 73.5 -323.5t214.5 -110.5q109 0 179 63q72 66 98 189h133 q-39 -172 -147 -263q-106 -88 -281 -88q-211 0 -336 154q-127 155 -127 407zM285 618h520q-6 184 -72 281q-63 94 -188 94q-115 0 -180.5 -96.5t-79.5 -278.5z" />
<glyph unicode="&#x118;" horiz-adv-x="1343" d="M860 -223q0 51 26.5 102t90.5 121h84v-2q-80 -123 -80 -170q0 -46 31 -74q33 -29 79 -28q23 0 52 6q23 4 53 20v-127q-47 -12 -64 -14q-41 -4 -59 -4q-100 0 -158 45q-55 43 -55 125zM102 0v106h170v1280h-170v107h1082v-332h-111v209h-618v-500h442v187h109v-496h-109 v187h-442v-625h632v209h111v-332h-1096z" />
<glyph unicode="&#x119;" horiz-adv-x="1089" d="M535 -223q0 51 26.5 102t90.5 121h84v-2q-80 -123 -80 -170q0 -46 31 -74q33 -29 79 -28q23 0 52 6q23 4 53 20v-127q-47 -12 -64 -14q-41 -4 -59 -4q-100 0 -158 45q-55 43 -55 125zM92 532q0 254 125 406q127 154 328 154q217 0 334 -148q115 -145 120 -432h-714v-8 q0 -213 73.5 -323.5t214.5 -110.5q109 0 179 63q72 66 98 189h133q-39 -172 -147 -263q-106 -88 -281 -88q-211 0 -336 154q-127 155 -127 407zM285 618h520q-6 184 -72 281q-63 94 -188 94q-115 0 -180.5 -96.5t-79.5 -278.5z" />
<glyph unicode="&#x11a;" horiz-adv-x="1343" d="M102 0v106h170v1280h-170v107h1082v-332h-111v209h-618v-500h442v187h109v-496h-109v187h-442v-625h632v209h111v-332h-1096zM452 1899h105l182 -162l182 162h105l-209 -264h-158z" />
<glyph unicode="&#x11b;" horiz-adv-x="1089" d="M92 532q0 254 125 406q127 154 328 154q217 0 334 -148q115 -145 120 -432h-714v-8q0 -213 73.5 -323.5t214.5 -110.5q109 0 179 63q72 66 98 189h133q-39 -172 -147 -263q-106 -88 -281 -88q-211 0 -336 154q-127 155 -127 407zM285 618h520q-6 184 -72 281 q-63 94 -188 94q-115 0 -180.5 -96.5t-79.5 -278.5zM260 1638h105l182 -260l182 260h105l-211 -376h-152z" />
<glyph unicode="&#x11c;" horiz-adv-x="1470" d="M483 1635l207 264h158l209 -264h-105l-182 161l-182 -161h-105zM104 745.5q0 354.5 183 563.5q184 211 493 211q125 0 240 -29q131 -33 260 -90v-354h-100q-31 184 -131 276q-100 90 -279 90q-233 0 -346 -166q-115 -168 -115 -502q0 -326 119 -497q117 -170 346 -170 q98 0 195 28q92 27 176 84v385h-252v107h434v-557q-115 -74 -258 -115q-135 -39 -295 -39q-303 0 -487 211q-183 209 -183 563.5z" />
<glyph unicode="&#x11d;" horiz-adv-x="1177" d="M258 1262l211 376h152l211 -376h-105l-182 260l-182 -260h-105zM92 532q0 252 110.5 406t289.5 154q111 0 186.5 -47.5t124.5 -147.5v166h323v-107h-157v-933q0 -225 -115 -353q-113 -125 -324 -125q-94 0 -180 19q-78 16 -166 57v223h86q14 -100 78 -151q61 -49 172 -49 q145 0 213 92q70 94 70 287v143q-49 -100 -125 -147.5t-186 -47.5q-176 0 -287 156q-113 159 -113 405zM285 532.5q0 -219.5 65 -333.5q63 -113 195 -113q127 0 190 100q68 106 68 293v105q0 186 -68 293q-63 100 -190 100q-129 0 -194.5 -112.5t-65.5 -332z" />
<glyph unicode="&#x11e;" horiz-adv-x="1470" d="M104 745.5q0 354.5 183 563.5q184 211 493 211q125 0 240 -29q131 -33 260 -90v-354h-100q-31 184 -131 276q-100 90 -279 90q-233 0 -346 -166q-115 -168 -115 -502q0 -326 119 -497q117 -170 346 -170q98 0 195 28q92 27 176 84v385h-252v107h434v-557 q-115 -74 -258 -115q-135 -39 -295 -39q-303 0 -487 211q-183 209 -183 563.5zM457 1901h86q14 -55 63 -82q47 -27 131 -27t131 27q49 27 64 82h86q-18 -119 -90 -180q-70 -61 -191 -62q-120 0 -190 62q-72 61 -90 180z" />
<glyph unicode="&#x11f;" horiz-adv-x="1177" d="M92 532q0 252 110.5 406t289.5 154q111 0 186.5 -47.5t124.5 -147.5v166h323v-107h-157v-933q0 -225 -115 -353q-113 -125 -324 -125q-94 0 -180 19q-78 16 -166 57v223h86q14 -100 78 -151q61 -49 172 -49q145 0 213 92q70 94 70 287v143q-49 -100 -125 -147.5 t-186 -47.5q-176 0 -287 156q-113 159 -113 405zM285 532.5q0 -219.5 65 -333.5q63 -113 195 -113q127 0 190 100q68 106 68 293v105q0 186 -68 293q-63 100 -190 100q-129 0 -194.5 -112.5t-65.5 -332zM307 1608h88q12 -78 58 -115q43 -35 137 -35t137 35q45 37 57 115h86 q-9 -144 -79 -215q-72 -72 -201 -72q-131 0 -203 72q-71 71 -80 215z" />
<glyph unicode="&#x120;" horiz-adv-x="1470" d="M666 1770q0 49 30 82q31 35 74 34.5t74 -34.5q31 -33 31 -82q0 -53 -29 -84q-31 -33 -76 -33t-76 33q-28 31 -28 84zM104 745.5q0 354.5 183 563.5q184 211 493 211q125 0 240 -29q131 -33 260 -90v-354h-100q-31 184 -131 276q-100 90 -279 90q-233 0 -346 -166 q-115 -168 -115 -502q0 -326 119 -497q117 -170 346 -170q98 0 195 28q92 27 176 84v385h-252v107h434v-557q-115 -74 -258 -115q-135 -39 -295 -39q-303 0 -487 211q-183 209 -183 563.5z" />
<glyph unicode="&#x121;" horiz-adv-x="1177" d="M440 1452q0 47 31 82t74 35t73.5 -35t30.5 -82q0 -53 -28 -84q-31 -33 -76 -33t-76 33q-29 31 -29 84zM92 532q0 252 110.5 406t289.5 154q111 0 186.5 -47.5t124.5 -147.5v166h323v-107h-157v-933q0 -225 -115 -353q-113 -125 -324 -125q-94 0 -180 19q-78 16 -166 57 v223h86q14 -100 78 -151q61 -49 172 -49q145 0 213 92q70 94 70 287v143q-49 -100 -125 -147.5t-186 -47.5q-176 0 -287 156q-113 159 -113 405zM285 532.5q0 -219.5 65 -333.5q63 -113 195 -113q127 0 190 100q68 106 68 293v105q0 186 -68 293q-63 100 -190 100 q-129 0 -194.5 -112.5t-65.5 -332z" />
<glyph unicode="&#x122;" horiz-adv-x="1470" d="M637 -410q72 45 100 99q31 55 31 135v22h141q-6 -104 -57 -176q-51 -74 -158 -129zM104 745.5q0 354.5 183 563.5q184 211 493 211q125 0 240 -29q131 -33 260 -90v-354h-100q-31 184 -131 276q-100 90 -279 90q-233 0 -346 -166q-115 -168 -115 -502q0 -326 119 -497 q117 -170 346 -170q98 0 195 28q92 27 176 84v385h-252v107h434v-557q-115 -74 -258 -115q-135 -39 -295 -39q-303 0 -487 211q-183 209 -183 563.5z" />
<glyph unicode="&#x123;" horiz-adv-x="1177" d="M482 1215q6 104 57 176t160 129l57 -49q-72 -45 -100 -99q-33 -59 -33 -135v-22h-141zM92 532q0 252 110.5 406t289.5 154q111 0 186.5 -47.5t124.5 -147.5v166h323v-107h-157v-933q0 -225 -115 -353q-113 -125 -324 -125q-94 0 -180 19q-78 16 -166 57v223h86 q14 -100 78 -151q61 -49 172 -49q145 0 213 92q70 94 70 287v143q-49 -100 -125 -147.5t-186 -47.5q-176 0 -287 156q-113 159 -113 405zM285 532.5q0 -219.5 65 -333.5q63 -113 195 -113q127 0 190 100q68 106 68 293v105q0 186 -68 293q-63 100 -190 100 q-129 0 -194.5 -112.5t-65.5 -332z" />
<glyph unicode="&#x124;" horiz-adv-x="1605" d="M516 1635l207 264h158l209 -264h-105l-182 161l-182 -161h-105zM102 0v106h170v1280h-170v107h525v-107h-172v-516h696v516h-170v107h524v-107h-170v-1280h170v-106h-524v106h170v642h-696v-642h172v-106h-525z" />
<glyph unicode="&#x125;" horiz-adv-x="1185" d="M-56 1635l207 264h158l209 -264h-105l-182 161l-182 -161h-105zM68 1450v106h323v-682q45 106 119 162t170 56q160 0 233 -101q74 -102 74 -315v-570h150v-106h-457v106h141v512q0 197 -43 267q-43 72 -151 71q-113 0 -176 -94q-59 -88 -60 -270v-486h144v-106h-459v106 h149v1344h-157z" />
<glyph unicode="&#x126;" horiz-adv-x="1605" d="M102 0v106h170v961h-170v123h170v196h-170v107h525v-107h-172v-196h696v196h-170v107h524v-107h-170v-196h170v-123h-170v-961h170v-106h-524v106h170v642h-696v-642h172v-106h-525zM455 870h696v197h-696v-197z" />
<glyph unicode="&#x127;" horiz-adv-x="1185" d="M68 1210v121h157v119h-157v106h323v-225h285v-121h-285v-336q45 106 119 162t170 56q160 0 233 -101q74 -102 74 -315v-570h150v-106h-457v106h141v512q0 197 -43 267q-43 72 -151 71q-113 0 -176 -94q-59 -88 -60 -270v-486h144v-106h-459v106h149v1104h-157z" />
<glyph unicode="&#x128;" horiz-adv-x="727" d="M65 1667q4 104 47 160q47 59 123 59q29 0 60 -10q33 -10 77 -39l45 -26q29 -16 41 -21q18 -6 35 -6q37 0 57.5 26.5t20.5 75.5h88q-2 -102 -49 -161q-45 -57 -129 -58q-63 0 -127 45l-2 2l-45 29q-25 16 -37 21q-18 6 -33 6q-35 0 -59 -29q-23 -27 -27 -74h-86zM102 0 v106h170v1280h-170v107h525v-107h-172v-1280h172v-106h-525z" />
<glyph unicode="&#x129;" horiz-adv-x="587" d="M-2 1309q4 139 47 209q46 74 129 73q37 0 63 -14q33 -18 62 -47l51 -55q25 -25 35 -31q14 -8 35 -8q39 0 61 41q20 39 25 114h86q-4 -139 -47 -209q-46 -74 -129 -73q-37 0 -64 14q-33 18 -61 47l-51 55q-25 25 -39 31q-20 8 -31 8q-39 0 -60 -39q-20 -37 -26 -116h-86z M68 0v106h157v850h-157v107h323v-957h156v-106h-479z" />
<glyph unicode="&#x12a;" horiz-adv-x="727" d="M97 1693v148h536v-148h-536zM102 0v106h170v1280h-170v107h525v-107h-172v-1280h172v-106h-525z" />
<glyph unicode="&#x12b;" horiz-adv-x="587" d="M-38 1378v148h536v-148h-536zM68 0v106h157v850h-157v107h323v-957h156v-106h-479z" />
<glyph unicode="&#x12c;" horiz-adv-x="727" d="M82 1901h86q14 -55 63 -82q47 -27 131 -27t131 27q49 27 64 82h86q-18 -119 -90 -180q-70 -61 -191 -62q-120 0 -190 62q-72 61 -90 180zM102 0v106h170v1280h-170v107h525v-107h-172v-1280h172v-106h-525z" />
<glyph unicode="&#x12d;" horiz-adv-x="587" d="M12 1608h88q12 -78 58 -115q43 -35 137 -35t137 35q45 37 57 115h86q-9 -144 -79 -215q-72 -72 -201 -72q-131 0 -203 72q-71 71 -80 215zM68 0v106h157v850h-157v107h323v-957h156v-106h-479z" />
<glyph unicode="&#x12e;" horiz-adv-x="727" d="M102 0v106h170v1280h-170v107h525v-107h-172v-1280h172v-106h-525zM256 -223q0 51 26.5 102t90.5 121h84v-2q-80 -123 -80 -170q0 -46 31 -74q33 -29 79 -28q23 0 52 6q23 4 53 20v-127q-47 -12 -64 -14q-41 -4 -59 -4q-100 0 -158 45q-55 43 -55 125z" />
<glyph unicode="&#x12f;" horiz-adv-x="587" d="M68 0v106h157v850h-157v107h323v-957h156v-106h-479zM178 1393q0 46 31 80q31 35 74 34q39 0 69 -34q31 -34 31 -80q0 -49 -29 -80q-31 -33 -71 -33q-43 0 -74 33q-31 34 -31 80zM190 -223q0 51 26.5 102t90.5 121h84v-2q-80 -123 -80 -170q0 -46 31 -74q33 -29 79 -28 q23 0 52 6q23 4 53 20v-127q-47 -12 -64 -14q-41 -4 -59 -4q-100 0 -158 45q-55 43 -55 125z" />
<glyph unicode="&#x130;" horiz-adv-x="727" d="M102 0v106h170v1280h-170v107h525v-107h-172v-1280h172v-106h-525zM260 1770q0 49 30 82q31 35 74 34.5t74 -34.5q31 -33 31 -82q0 -53 -29 -84q-31 -33 -76 -33t-76 33q-28 31 -28 84z" />
<glyph unicode="&#x131;" horiz-adv-x="587" d="M68 0v106h157v850h-157v107h323v-957h156v-106h-479z" />
<glyph unicode="&#x132;" horiz-adv-x="1474" d="M102 0v106h170v1280h-170v107h525v-107h-172v-1280h172v-106h-525zM581 -123h105q4 -100 41 -147q39 -49 119 -49q104 0 149 75q43 74 43 293v1337h-209v107h561v-107h-170v-1345q0 -244 -90 -356q-90 -111 -287 -111q-72 0 -129 16q-78 23 -133 52v235z" />
<glyph unicode="&#x133;" horiz-adv-x="980" d="M68 0v106h157v850h-157v107h323v-957h156v-106h-479zM178 1393q0 46 31 80q31 35 74 34q39 0 69 -34q31 -34 31 -80q0 -49 -29 -80q-31 -33 -71 -33q-43 0 -74 33q-31 34 -31 80zM350 -170h84q6 -96 45 -141t113 -45q82 0 120 61q39 59 39 191v1060h-157v107h323v-1167 q0 -168 -88 -258q-90 -92 -242 -93q-63 0 -124 17q-57 14 -113 49v219zM710 1393q0 46 31 80q31 35 72 34.5t71 -34.5q31 -34 31 -80q0 -49 -29 -80q-31 -33 -73 -33q-41 0 -72 33q-31 34 -31 80z" />
<glyph unicode="&#x134;" horiz-adv-x="737" d="M86 1635l207 264h158l209 -264h-105l-182 161l-182 -161h-105zM-156 -123h105q4 -100 41 -147q39 -49 119 -49q104 0 149 75q43 74 43 293v1337h-209v107h561v-107h-170v-1345q0 -244 -90 -356q-90 -111 -287 -111q-72 0 -129 16q-78 23 -133 52v235z" />
<glyph unicode="&#x135;" horiz-adv-x="569" d="M-51 1262l211 376h152l211 -376h-105l-182 260l-182 -260h-105zM-176 -170h84q6 -96 45 -141t113 -45q82 0 120 61q39 59 39 191v1060h-157v107h323v-1167q0 -168 -88 -258q-90 -92 -242 -93q-63 0 -124 17q-57 14 -113 49v219z" />
<glyph unicode="&#x136;" horiz-adv-x="1376" d="M614 -381q72 45 100 99q31 55 31 135v22h141q-6 -104 -57 -176q-51 -74 -158 -129zM102 0v106h170v1280h-170v107h525v-107h-172v-565l579 565h-145v107h446v-107h-151l-578 -563l645 -717h154v-106h-311l-639 709v-603h172v-106h-525z" />
<glyph unicode="&#x137;" horiz-adv-x="1114" d="M459 -381q72 45 100 99q31 55 31 135v22h141q-6 -104 -57 -176q-51 -74 -158 -129zM53 1450v106h326v-1013l401 413h-137v107h432v-107h-162l-284 -292l362 -558h139v-106h-473v106h138l-287 437l-129 -135v-302h147v-106h-463v106h150v1344h-160z" />
<glyph unicode="&#x138;" horiz-adv-x="1114" d="M53 952v109h326v-520l401 411h-137v109h432v-109h-162l-284 -290l362 -556h139v-106h-473v106h138l-287 435l-129 -135v-300h147v-106h-463v106h150v846h-160z" />
<glyph unicode="&#x139;" horiz-adv-x="1222" d="M215 1637l164 264h176l-236 -264h-104zM102 0v106h170v1280h-170v107h525v-107h-172v-1263h614v250h111v-373h-1078z" />
<glyph unicode="&#x13a;" horiz-adv-x="587" d="M127 1637l164 264h176l-236 -264h-104zM53 0v106h160v1344h-160v106h326v-1450h156v-106h-482z" />
<glyph unicode="&#x13b;" horiz-adv-x="1222" d="M504 -381q72 45 100 99q31 55 31 135v22h141q-6 -104 -57 -176q-51 -74 -158 -129zM102 0v106h170v1280h-170v107h525v-107h-172v-1263h614v250h111v-373h-1078z" />
<glyph unicode="&#x13c;" horiz-adv-x="587" d="M92 -375q72 45 100 99q31 55 31 135v22h141q-6 -104 -57 -176q-51 -74 -158 -129zM53 0v106h160v1344h-160v106h326v-1450h156v-106h-482z" />
<glyph unicode="&#x13d;" horiz-adv-x="1222" d="M774 1117l55 376h178l-129 -376h-104zM102 0v106h170v1280h-170v107h525v-107h-172v-1263h614v250h111v-373h-1078z" />
<glyph unicode="&#x13e;" horiz-adv-x="587" d="M537 1180l55 376h178l-129 -376h-104zM53 0v106h160v1344h-160v106h326v-1450h156v-106h-482z" />
<glyph unicode="&#x13f;" horiz-adv-x="1222" d="M897 844q0 53 35 94q33 39 88 39q51 0 84 -39q35 -41 35 -94.5t-35 -94.5q-33 -39 -84 -38q-53 0 -88 39t-35 94zM102 0v106h170v1280h-170v107h525v-107h-172v-1263h614v250h111v-373h-1078z" />
<glyph unicode="&#x140;" horiz-adv-x="587" d="M512 836q0 53 35 94q33 39 88 39q51 0 84 -39q35 -41 35 -94.5t-35 -94.5q-33 -39 -84 -38q-53 0 -88 39t-35 94zM53 0v106h160v1344h-160v106h326v-1450h156v-106h-482z" />
<glyph unicode="&#x141;" horiz-adv-x="1232" d="M78 565l205 162v659h-172v107h524v-107h-172v-516l276 226l64 -92l-340 -275v-606h614v250h113v-373h-1079v106h172v480l-144 -113z" />
<glyph unicode="&#x142;" horiz-adv-x="595" d="M41 670l178 141v639h-156v106h322v-616l133 98l53 -86l-186 -141v-705h160v-106h-482v106h156v574l-125 -96z" />
<glyph unicode="&#x143;" horiz-adv-x="1611" d="M680 1637l164 264h176l-236 -264h-104zM90 0v106h180v1280h-180v107h344l805 -1178v1071h-178v107h471v-107h-180v-1415h-111l-858 1258v-1123h178v-106h-471z" />
<glyph unicode="&#x144;" horiz-adv-x="1185" d="M422 1215l232 376h180l-307 -376h-105zM68 956v107h323v-189q45 106 119 162t170 56q160 0 233 -101q74 -102 74 -315v-570h150v-106h-457v106h141v512q0 193 -43 266.5t-151 73.5q-113 0 -176 -94q-59 -90 -60 -272v-486h144v-106h-459v106h149v850h-157z" />
<glyph unicode="&#x145;" horiz-adv-x="1611" d="M633 -396q72 45 100 99q31 55 31 135v22h141q-6 -104 -57 -176q-51 -74 -158 -129zM90 0v106h180v1280h-180v107h344l805 -1178v1071h-178v107h471v-107h-180v-1415h-111l-858 1258v-1123h178v-106h-471z" />
<glyph unicode="&#x146;" horiz-adv-x="1185" d="M469 -381q72 45 100 99q31 55 31 135v22h141q-6 -104 -57 -176q-51 -74 -158 -129zM68 956v107h323v-189q45 106 119 162t170 56q160 0 233 -101q74 -102 74 -315v-570h150v-106h-457v106h141v512q0 193 -43 266.5t-151 73.5q-113 0 -176 -94q-59 -90 -60 -272v-486h144 v-106h-459v106h149v850h-157z" />
<glyph unicode="&#x147;" horiz-adv-x="1611" d="M90 0v106h180v1280h-180v107h344l805 -1178v1071h-178v107h471v-107h-180v-1415h-111l-858 1258v-1123h178v-106h-471zM497 1909h105l182 -162l182 162h105l-209 -264h-158z" />
<glyph unicode="&#x148;" horiz-adv-x="1185" d="M68 956v107h323v-189q45 106 119 162t170 56q160 0 233 -101q74 -102 74 -315v-570h150v-106h-457v106h141v512q0 193 -43 266.5t-151 73.5q-113 0 -176 -94q-59 -90 -60 -272v-486h144v-106h-459v106h149v850h-157zM260 1638h105l182 -260l182 260h105l-211 -376h-152z " />
<glyph unicode="&#x149;" horiz-adv-x="1595" d="M102 1094q72 68 101 149q31 86 30 213v64h175q0 -170 -58 -295q-55 -119 -178 -211zM426 956v107h323v-189q45 106 119 162t170 56q160 0 233 -101q74 -102 74 -315v-570h150v-106h-457v106h141v512q0 193 -43 266.5t-151 73.5q-113 0 -176 -94q-59 -90 -60 -272v-486 h144v-106h-459v106h149v850h-157z" />
<glyph unicode="&#x14a;" horiz-adv-x="1552" d="M86 0v106h172v1280h-158v107h340v-201q68 114 172 172q102 57 246 58q225 0 333.5 -145.5t108.5 -454.5v-881q0 -244 -90 -356q-88 -111 -286 -111q-72 0 -131 16q-70 18 -131 52v235h100q0 -96 41 -147q41 -49 121 -49q104 0 149 75q41 70 41 293v832q0 295 -67 401 q-68 109 -238 109q-178 0 -274 -129q-94 -127 -95 -375v-781h172v-106h-526z" />
<glyph unicode="&#x14b;" horiz-adv-x="1185" d="M68 956v107h323v-189q45 106 119 162t170 56q158 0 233 -101q74 -98 74 -315v-780q0 -166 -86 -258.5t-242 -92.5q-63 0 -124 17q-59 16 -115 49v219h86q6 -96 45 -141t111 -45q80 0 120 61q39 59 39 191v722q0 193 -43 266.5t-151 73.5q-113 0 -176 -94 q-59 -90 -60 -272v-486h144v-106h-459v106h149v850h-157z" />
<glyph unicode="&#x14c;" horiz-adv-x="1509" d="M488 1693v148h536v-148h-536zM104 745q0 182 50 324q51 150 147 254q89 98 202.5 147.5t252.5 49.5q291 0 473 -213q180 -211 180 -562q0 -180 -49 -323q-47 -141 -152 -254q-90 -100 -200 -148q-114 -49 -252.5 -49t-252 49.5t-202.5 147.5q-96 104 -147 254 q-50 141 -50 323zM309 745.5q0 -331.5 113 -499.5t334 -168t333.5 168t112.5 499.5t-112.5 499.5t-333.5 168t-334 -168t-113 -499.5z" />
<glyph unicode="&#x14d;" horiz-adv-x="1107" d="M287 1378v148h536v-148h-536zM92 532q0 250 127 406q125 154 336 154t336 -154q127 -156 127 -406q0 -252 -127 -407q-125 -154 -336 -154t-336 154q-127 155 -127 407zM285 532q0 -225 69 -346q68 -117 201 -116.5t200.5 117t67.5 345.5q0 227 -67.5 344t-200.5 117 q-135 0 -202.5 -117t-67.5 -344z" />
<glyph unicode="&#x14e;" horiz-adv-x="1509" d="M476 1901h86q14 -55 63 -82q47 -27 131 -27t131 27q49 27 64 82h86q-18 -119 -90 -180q-70 -61 -191 -62q-120 0 -190 62q-72 61 -90 180zM104 745q0 182 50 324q51 150 147 254q89 98 202.5 147.5t252.5 49.5q291 0 473 -213q180 -211 180 -562q0 -180 -49 -323 q-47 -141 -152 -254q-90 -100 -200 -148q-114 -49 -252.5 -49t-252 49.5t-202.5 147.5q-96 104 -147 254q-50 141 -50 323zM309 745.5q0 -331.5 113 -499.5t334 -168t333.5 168t112.5 499.5t-112.5 499.5t-333.5 168t-334 -168t-113 -499.5z" />
<glyph unicode="&#x14f;" horiz-adv-x="1107" d="M272 1608h88q12 -78 58 -115q43 -35 137 -35t137 35q45 37 57 115h86q-9 -144 -79 -215q-72 -72 -201 -72q-131 0 -203 72q-71 71 -80 215zM92 532q0 250 127 406q125 154 336 154t336 -154q127 -156 127 -406q0 -252 -127 -407q-125 -154 -336 -154t-336 154 q-127 155 -127 407zM285 532q0 -225 69 -346q68 -117 201 -116.5t200.5 117t67.5 345.5q0 227 -67.5 344t-200.5 117q-135 0 -202.5 -117t-67.5 -344z" />
<glyph unicode="&#x150;" horiz-adv-x="1509" d="M515 1635l163 264h179l-238 -264h-104zM799 1635l164 264h178l-235 -264h-107zM104 745q0 182 50 324q51 150 147 254q89 98 202.5 147.5t252.5 49.5q291 0 473 -213q180 -211 180 -562q0 -180 -49 -323q-47 -141 -152 -254q-90 -100 -200 -148q-114 -49 -252.5 -49 t-252 49.5t-202.5 147.5q-96 104 -147 254q-50 141 -50 323zM309 745.5q0 -331.5 113 -499.5t334 -168t333.5 168t112.5 499.5t-112.5 499.5t-333.5 168t-334 -168t-113 -499.5z" />
<glyph unicode="&#x151;" horiz-adv-x="1107" d="M371 1262l170 376h154l-221 -376h-103zM635 1262l203 376h160l-258 -376h-105zM92 532q0 250 127 406q125 154 336 154t336 -154q127 -156 127 -406q0 -252 -127 -407q-125 -154 -336 -154t-336 154q-127 155 -127 407zM285 532q0 -225 69 -346q68 -117 201 -116.5 t200.5 117t67.5 345.5q0 227 -67.5 344t-200.5 117q-135 0 -202.5 -117t-67.5 -344z" />
<glyph unicode="&#x152;" horiz-adv-x="2095" d="M106 750q0 348 195 546q194 197 541 197h1091v-332h-110v209h-619v-500h445v187h108v-496h-108v187h-445v-625h633v209h111v-332h-1106q-346 0 -541 199t-195 551zM313 750q0 -313 140 -478q141 -166 401 -166h170v1280h-170q-262 0 -401.5 -163.5t-139.5 -472.5z" />
<glyph unicode="&#x153;" horiz-adv-x="1820" d="M92 532q0 250 127 406q125 154 336 154q119 0 211 -50q90 -47 156 -145q63 94 155 145q90 49 201 50q215 0 332 -148q115 -145 121 -432h-713v-8q0 -217 72 -324q74 -111 215 -110q109 0 178 63q72 66 98 189h133q-39 -174 -145.5 -262.5t-280.5 -88.5q-117 0 -209 49 q-98 53 -159 146q-61 -94 -156 -146q-92 -49 -209 -49q-211 0 -336 154q-127 155 -127 407zM285 532q0 -225 69 -346q68 -117 201 -116.5t200.5 117t67.5 345.5q0 227 -67.5 344t-200.5 117q-135 0 -202.5 -117t-67.5 -344zM1018 618h518q-6 184 -72 281q-63 94 -186 94 q-115 0 -180.5 -96.5t-79.5 -278.5z" />
<glyph unicode="&#x154;" horiz-adv-x="1386" d="M586 1637l164 264h176l-236 -264h-104zM102 0v106h170v1280h-170v107h680q197 0 303.5 -104.5t106.5 -294.5q0 -152 -78 -242q-76 -88 -231 -111q59 -16 108 -65q45 -45 82 -127l195 -443h164v-106h-318l-209 475q-61 138 -110 178q-51 41 -140 41h-200v-588h190v-106 h-543zM455 801h266q135 0 201 71q63 70 63 221.5t-63 221.5q-66 72 -201 71h-266v-585z" />
<glyph unicode="&#x155;" horiz-adv-x="880" d="M422 1215l232 376h180l-307 -376h-105zM68 958v105h323v-189q51 113 125 164q78 53 186 54q39 0 84 -7q27 -4 95 -20v-266h-95q-6 78 -41 119q-33 39 -102 38q-123 0 -186 -94q-66 -96 -66 -270v-486h191v-106h-506v106h149v852h-157z" />
<glyph unicode="&#x156;" horiz-adv-x="1386" d="M629 -381q72 45 100 99q31 55 31 135v22h141q-6 -104 -57 -176q-51 -74 -158 -129zM102 0v106h170v1280h-170v107h680q197 0 303.5 -104.5t106.5 -294.5q0 -152 -78 -242q-76 -88 -231 -111q59 -16 108 -65q45 -45 82 -127l195 -443h164v-106h-318l-209 475 q-61 138 -110 178q-51 41 -140 41h-200v-588h190v-106h-543zM455 801h266q135 0 201 71q63 70 63 221.5t-63 221.5q-66 72 -201 71h-266v-585z" />
<glyph unicode="&#x157;" horiz-adv-x="880" d="M96 -381q72 45 100 99q31 55 31 135v22h141q-6 -104 -57 -176q-51 -74 -158 -129zM68 958v105h323v-189q51 113 125 164q78 53 186 54q39 0 84 -7q27 -4 95 -20v-266h-95q-6 78 -41 119q-33 39 -102 38q-123 0 -186 -94q-66 -96 -66 -270v-486h191v-106h-506v106h149v852 h-157z" />
<glyph unicode="&#x158;" horiz-adv-x="1386" d="M102 0v106h170v1280h-170v107h680q197 0 303.5 -104.5t106.5 -294.5q0 -152 -78 -242q-76 -88 -231 -111q59 -16 108 -65q45 -45 82 -127l195 -443h164v-106h-318l-209 475q-61 138 -110 178q-51 41 -140 41h-200v-588h190v-106h-543zM455 801h266q135 0 201 71 q63 70 63 221.5t-63 221.5q-66 72 -201 71h-266v-585zM370 1899h105l182 -162l182 162h105l-209 -264h-158z" />
<glyph unicode="&#x159;" horiz-adv-x="880" d="M68 958v105h323v-189q51 113 125 164q78 53 186 54q39 0 84 -7q27 -4 95 -20v-266h-95q-6 78 -41 119q-33 39 -102 38q-123 0 -186 -94q-66 -96 -66 -270v-486h191v-106h-506v106h149v852h-157zM221 1638h105l182 -260l182 260h105l-211 -376h-152z" />
<glyph unicode="&#x15a;" horiz-adv-x="1261" d="M586 1637l164 264h176l-236 -264h-104zM156 1120q0 193 120 295q123 104 340 105q90 0 207 -23q106 -20 238 -65v-318h-103q-16 160 -94 229.5t-243 69.5q-139 0 -215 -65.5t-76 -186.5q0 -106 55 -168q51 -57 238 -121l165 -55q186 -61 263 -155q78 -96 77 -254 q0 -215 -124 -326q-127 -111 -373 -111q-111 0 -225 25q-123 27 -236 76v340h104q6 -170 88 -252t256 -82q158 0 246 72q84 70 84 204q0 109 -51 166.5t-215 112.5l-176 59q-193 63 -273 162q-77 96 -77 266z" />
<glyph unicode="&#x15b;" horiz-adv-x="944" d="M422 1215l232 376h180l-307 -376h-105zM104 59v248h95q3 -120 67 -178q66 -59 189 -59q109 0 168 47t59 135q0 70 -43 113t-180 92l-119 45q-123 43 -180 110q-55 63 -56 168q0 145 97 230q94 82 268 82q72 0 158 -23q92 -25 174 -63v-232h-96q-2 102 -66 162 q-59 57 -166 57q-104 0 -157.5 -41t-53.5 -123q0 -68 41 -108q37 -37 162 -82l131 -45q137 -47 195 -117q61 -74 61 -182q0 -152 -104.5 -238t-286.5 -86q-86 0 -180 23q-81 20 -177 65z" />
<glyph unicode="&#x15c;" horiz-adv-x="1261" d="M346 1635l207 264h158l209 -264h-105l-182 161l-182 -161h-105zM156 1120q0 193 120 295q123 104 340 105q90 0 207 -23q106 -20 238 -65v-318h-103q-16 160 -94 229.5t-243 69.5q-139 0 -215 -65.5t-76 -186.5q0 -106 55 -168q51 -57 238 -121l165 -55q186 -61 263 -155 q78 -96 77 -254q0 -215 -124 -326q-127 -111 -373 -111q-111 0 -225 25q-123 27 -236 76v340h104q6 -170 88 -252t256 -82q158 0 246 72q84 70 84 204q0 109 -51 166.5t-215 112.5l-176 59q-193 63 -273 162q-77 96 -77 266z" />
<glyph unicode="&#x15d;" horiz-adv-x="944" d="M186 1262l211 376h152l211 -376h-105l-182 260l-182 -260h-105zM104 59v248h95q3 -120 67 -178q66 -59 189 -59q109 0 168 47t59 135q0 70 -43 113t-180 92l-119 45q-123 43 -180 110q-55 63 -56 168q0 145 97 230q94 82 268 82q72 0 158 -23q92 -25 174 -63v-232h-96 q-2 102 -66 162q-59 57 -166 57q-104 0 -157.5 -41t-53.5 -123q0 -68 41 -108q37 -37 162 -82l131 -45q137 -47 195 -117q61 -74 61 -182q0 -152 -104.5 -238t-286.5 -86q-86 0 -180 23q-81 20 -177 65z" />
<glyph unicode="&#x15e;" horiz-adv-x="1261" d="M156 1120q0 193 120 295q123 104 340 105q90 0 207 -23q106 -20 238 -65v-318h-103q-16 160 -94 229.5t-243 69.5q-139 0 -215 -65.5t-76 -186.5q0 -106 55 -168q51 -57 238 -121l165 -55q186 -61 263 -155q78 -96 77 -254q0 -215 -124 -326q-127 -111 -373 -111 q-111 0 -225 25q-123 27 -236 76v340h104q6 -170 88 -252t256 -82q158 0 246 72q84 70 84 204q0 109 -51 166.5t-215 112.5l-176 59q-193 63 -273 162q-77 96 -77 266zM432 -240q35 -18 72 -26q33 -8 67 -8q53 0 82 26.5t29 71.5q0 31 -20 72q-29 57 -60 104h88 q57 -63 86 -120.5t29 -104.5q0 -80 -57.5 -125t-157.5 -45q-39 0 -78 6q-40 6 -80 18v131z" />
<glyph unicode="&#x15f;" horiz-adv-x="944" d="M104 59v248h95q3 -120 67 -178q66 -59 189 -59q109 0 168 47t59 135q0 70 -43 113t-180 92l-119 45q-123 43 -180 110q-55 63 -56 168q0 145 97 230q94 82 268 82q72 0 158 -23q92 -25 174 -63v-232h-96q-2 102 -66 162q-59 57 -166 57q-104 0 -157.5 -41t-53.5 -123 q0 -68 41 -108q37 -37 162 -82l131 -45q137 -47 195 -117q61 -74 61 -182q0 -152 -104.5 -238t-286.5 -86q-86 0 -180 23q-81 20 -177 65zM274 -240q35 -18 72 -26q33 -8 67 -8q53 0 82 26.5t29 71.5q0 31 -20 72q-29 57 -60 104h88q57 -63 86 -120.5t29 -104.5 q0 -80 -57.5 -125t-157.5 -45q-39 0 -78 6q-40 6 -80 18v131z" />
<glyph unicode="&#x160;" horiz-adv-x="1261" d="M156 1120q0 193 120 295q123 104 340 105q90 0 207 -23q106 -20 238 -65v-318h-103q-16 160 -94 229.5t-243 69.5q-139 0 -215 -65.5t-76 -186.5q0 -106 55 -168q51 -57 238 -121l165 -55q186 -61 263 -155q78 -96 77 -254q0 -215 -124 -326q-127 -111 -373 -111 q-111 0 -225 25q-123 27 -236 76v340h104q6 -170 88 -252t256 -82q158 0 246 72q84 70 84 204q0 109 -51 166.5t-215 112.5l-176 59q-193 63 -273 162q-77 96 -77 266zM346 1899h105l182 -162l182 162h105l-209 -264h-158z" />
<glyph unicode="&#x161;" horiz-adv-x="944" d="M104 59v248h95q3 -120 67 -178q66 -59 189 -59q109 0 168 47t59 135q0 70 -43 113t-180 92l-119 45q-123 43 -180 110q-55 63 -56 168q0 145 97 230q94 82 268 82q72 0 158 -23q92 -25 174 -63v-232h-96q-2 102 -66 162q-59 57 -166 57q-104 0 -157.5 -41t-53.5 -123 q0 -68 41 -108q37 -37 162 -82l131 -45q137 -47 195 -117q61 -74 61 -182q0 -152 -104.5 -238t-286.5 -86q-86 0 -180 23q-81 20 -177 65zM186 1638h105l182 -260l182 260h105l-211 -376h-152z" />
<glyph unicode="&#x162;" horiz-adv-x="1228" d="M393 -240q35 -18 72 -26q33 -8 67 -8q53 0 82 26.5t29 71.5q0 31 -20 72q-29 57 -60 104h88q57 -63 86 -120.5t29 -104.5q0 -80 -57.5 -125t-157.5 -45q-39 0 -78 6q-40 6 -80 18v131zM18 1141v352h1192v-352h-108v233h-395v-1268h172v-106h-527v106h172v1268h-395v-233 h-111z" />
<glyph unicode="&#x163;" horiz-adv-x="739" d="M235 -240q35 -18 72 -26q33 -8 67 -8q53 0 82 26.5t29 71.5q0 31 -20 72q-29 57 -60 104h88q57 -63 86 -120.5t29 -104.5q0 -80 -57.5 -125t-157.5 -45q-39 0 -78 6q-40 6 -80 18v131zM53 956v107h146v330h166v-330h313v-107h-313v-675q0 -135 24 -172q27 -39 86 -39 q63 0 94 43q27 39 31 137h125q-6 -145 -70 -211q-66 -68 -194 -68q-145 0 -203 70q-59 72 -59 240v675h-146z" />
<glyph unicode="&#x164;" horiz-adv-x="1228" d="M18 1141v352h1192v-352h-108v233h-395v-1268h172v-106h-527v106h172v1268h-395v-233h-111zM321 1899h105l182 -162l182 162h105l-209 -264h-158z" />
<glyph unicode="&#x165;" horiz-adv-x="739" d="M53 956v107h146v330h166v-330h313v-107h-313v-675q0 -135 24 -172q27 -39 86 -39q63 0 94 43q27 39 31 137h125q-6 -145 -70 -211q-66 -68 -194 -68q-145 0 -203 70q-59 72 -59 240v675h-146zM482 1237l55 376h178l-129 -376h-104z" />
<glyph unicode="&#x166;" horiz-adv-x="1228" d="M18 1141v352h1192v-352h-108v233h-395v-575h237v-119h-237v-574h172v-106h-527v106h172v574h-239v119h239v575h-395v-233h-111z" />
<glyph unicode="&#x167;" horiz-adv-x="739" d="M53 956v107h146v330h166v-330h313v-107h-313v-233h172v-141h-172v-301q0 -135 24 -172q27 -39 86 -39q63 0 94 43q29 43 31 137h125q-6 -145 -70 -211q-66 -68 -194 -68q-141 0 -203 72q-59 72 -59 238v301h-121v141h121v233h-146z" />
<glyph unicode="&#x168;" horiz-adv-x="1552" d="M516 1667q4 104 47 160q47 59 123 59q29 0 60 -10q33 -10 77 -39l45 -26q29 -16 41 -21q18 -6 35 -6q37 0 57.5 26.5t20.5 75.5h88q-2 -102 -49 -161q-45 -57 -129 -58q-63 0 -127 45l-2 2l-45 29q-25 16 -37 21q-18 6 -33 6q-35 0 -59 -29q-23 -27 -27 -74h-86zM86 1386 v107h526v-107h-172v-772q0 -285 84 -399q82 -113 289 -113q211 0 293 113q84 115 84 399v772h-172v107h452v-107h-170v-792q0 -338 -118 -481q-117 -141 -402 -142q-281 0 -401 142q-121 143 -121 481v792h-172z" />
<glyph unicode="&#x169;" horiz-adv-x="1185" d="M230 1309q4 139 47 209q46 74 129 73q37 0 63 -14q33 -18 62 -47l51 -55q25 -25 35 -31q14 -8 35 -8q39 0 61 41q20 39 25 114h86q-4 -139 -47 -209q-46 -74 -129 -73q-37 0 -64 14q-33 18 -61 47l-51 55q-25 25 -39 31q-20 8 -31 8q-39 0 -60 -39q-20 -37 -26 -116h-86z M49 956v107h316v-619q0 -195 43 -266.5t153 -71.5q113 0 174.5 94.5t61.5 272.5v483h-146v107h312v-957h155v-106h-321v188q-45 -106 -119 -161.5t-170 -55.5q-160 0 -234 101q-76 104 -75 315v569h-150z" />
<glyph unicode="&#x16a;" horiz-adv-x="1552" d="M510 1693v148h536v-148h-536zM86 1386v107h526v-107h-172v-772q0 -285 84 -399q82 -113 289 -113q211 0 293 113q84 115 84 399v772h-172v107h452v-107h-170v-792q0 -338 -118 -481q-117 -141 -402 -142q-281 0 -401 142q-121 143 -121 481v792h-172z" />
<glyph unicode="&#x16b;" horiz-adv-x="1185" d="M302 1378v148h536v-148h-536zM49 956v107h316v-619q0 -195 43 -266.5t153 -71.5q113 0 174.5 94.5t61.5 272.5v483h-146v107h312v-957h155v-106h-321v188q-45 -106 -119 -161.5t-170 -55.5q-160 0 -234 101q-76 104 -75 315v569h-150z" />
<glyph unicode="&#x16c;" horiz-adv-x="1552" d="M533 1901h86q14 -55 63 -82q47 -27 131 -27t131 27q49 27 64 82h86q-18 -119 -90 -180q-70 -61 -191 -62q-120 0 -190 62q-72 61 -90 180zM86 1386v107h526v-107h-172v-772q0 -285 84 -399q82 -113 289 -113q211 0 293 113q84 115 84 399v772h-172v107h452v-107h-170 v-792q0 -338 -118 -481q-117 -141 -402 -142q-281 0 -401 142q-121 143 -121 481v792h-172z" />
<glyph unicode="&#x16d;" horiz-adv-x="1185" d="M244 1608h88q12 -78 58 -115q43 -35 137 -35t137 35q45 37 57 115h86q-9 -144 -79 -215q-72 -72 -201 -72q-131 0 -203 72q-71 71 -80 215zM49 956v107h316v-619q0 -195 43 -266.5t153 -71.5q113 0 174.5 94.5t61.5 272.5v483h-146v107h312v-957h155v-106h-321v188 q-45 -106 -119 -161.5t-170 -55.5q-160 0 -234 101q-76 104 -75 315v569h-150z" />
<glyph unicode="&#x16e;" horiz-adv-x="1552" d="M86 1386v107h526v-107h-172v-772q0 -285 84 -399q82 -113 289 -113q211 0 293 113q84 115 84 399v772h-172v107h452v-107h-170v-792q0 -338 -118 -481q-117 -141 -402 -142q-281 0 -401 142q-121 143 -121 481v792h-172zM541 1878q0 113 72 194q72 80 176 80t174 -80 q72 -82 72 -194.5t-72 -194.5q-70 -80 -174.5 -80t-175.5 80q-72 82 -72 195zM652 1877.5q0 -67.5 38 -108.5q40 -43 99 -43q55 0 96 43q41 45 41 109q0 61 -41 106t-96 45q-58 0 -99 -43q-38 -41 -38 -108.5z" />
<glyph unicode="&#x16f;" horiz-adv-x="1185" d="M49 956v107h316v-619q0 -195 43 -266.5t153 -71.5q113 0 174.5 94.5t61.5 272.5v483h-146v107h312v-957h155v-106h-321v188q-45 -106 -119 -161.5t-170 -55.5q-160 0 -234 101q-76 104 -75 315v569h-150zM289 1504q0 113 72 194q72 80 176 80t174 -80q72 -82 72 -194.5 t-72 -194.5q-70 -80 -174.5 -80t-175.5 80q-72 82 -72 195zM400 1503.5q0 -67.5 38 -108.5q40 -43 99 -43q55 0 96 43q41 45 41 109q0 61 -41 106t-96 45q-58 0 -99 -43q-38 -41 -38 -108.5z" />
<glyph unicode="&#x170;" horiz-adv-x="1552" d="M572 1635l163 264h179l-238 -264h-104zM856 1635l164 264h178l-235 -264h-107zM86 1386v107h526v-107h-172v-772q0 -285 84 -399q82 -113 289 -113q211 0 293 113q84 115 84 399v772h-172v107h452v-107h-170v-792q0 -338 -118 -481q-117 -141 -402 -142q-281 0 -401 142 q-121 143 -121 481v792h-172z" />
<glyph unicode="&#x171;" horiz-adv-x="1185" d="M321 1262l170 376h154l-221 -376h-103zM585 1262l203 376h160l-258 -376h-105zM49 956v107h316v-619q0 -195 43 -266.5t153 -71.5q113 0 174.5 94.5t61.5 272.5v483h-146v107h312v-957h155v-106h-321v188q-45 -106 -119 -161.5t-170 -55.5q-160 0 -234 101 q-76 104 -75 315v569h-150z" />
<glyph unicode="&#x172;" horiz-adv-x="1552" d="M86 1386v107h526v-107h-172v-772q0 -285 84 -399q82 -113 289 -113q211 0 293 113q84 115 84 399v772h-172v107h452v-107h-170v-792q0 -338 -118 -481q-117 -141 -402 -142q-281 0 -401 142q-121 143 -121 481v792h-172zM623 -239q0 51 26.5 102t90.5 121h84v-2 q-80 -123 -80 -170q0 -46 31 -74q33 -29 79 -28q23 0 52 6q23 4 53 20v-127q-47 -12 -64 -14q-41 -4 -59 -4q-100 0 -158 45q-55 43 -55 125z" />
<glyph unicode="&#x173;" horiz-adv-x="1185" d="M49 956v107h316v-619q0 -195 43 -266.5t153 -71.5q113 0 174.5 94.5t61.5 272.5v483h-146v107h312v-957h155v-106h-321v188q-45 -106 -119 -161.5t-170 -55.5q-160 0 -234 101q-76 104 -75 315v569h-150zM854 -223q0 51 26.5 102t90.5 121h84v-2q-80 -123 -80 -170 q0 -46 31 -74q33 -29 79 -28q23 0 52 6q23 4 53 20v-127q-47 -12 -64 -14q-41 -4 -59 -4q-100 0 -158 45q-55 43 -55 125z" />
<glyph unicode="&#x174;" horiz-adv-x="1892" d="M661 1643l207 264h158l209 -264h-105l-182 161l-182 -161h-105zM8 1386v107h492v-107h-168l280 -1103l306 1210h147l309 -1223l283 1116h-156v107h387v-107h-131l-352 -1386h-148l-307 1214l-309 -1214h-147l-353 1386h-133z" />
<glyph unicode="&#x175;" horiz-adv-x="1576" d="M506 1262l211 376h152l211 -376h-105l-182 260l-182 -260h-105zM31 956v107h432v-107h-156l215 -723l246 830h117l245 -830l216 723h-140v107h346v-107h-104l-285 -956h-139l-236 795l-235 -795h-133l-283 956h-106z" />
<glyph unicode="&#x176;" horiz-adv-x="1214" d="M319 1643l207 264h158l209 -264h-105l-182 161l-182 -161h-105zM-20 1386v107h499v-107h-157l335 -604l336 604h-151v107h391v-107h-127l-404 -724v-556h172v-106h-526v106h172v537l-416 743h-124z" />
<glyph unicode="&#x177;" horiz-adv-x="1040" d="M227 1262l211 376h152l211 -376h-105l-182 260l-182 -260h-105zM-4 956v107h438v-107h-151l268 -731l268 731h-141v107h358v-107h-106l-441 -1196q-43 -125 -98 -170q-53 -45 -155 -45q-45 0 -86 9q-55 12 -91 22v203h84q6 -68 31 -98q23 -29 82 -29q47 0 78 31 q29 29 63 122l64 177l-357 974h-108z" />
<glyph unicode="&#x178;" horiz-adv-x="1214" d="M-20 1386v107h499v-107h-157l335 -604l336 604h-151v107h391v-107h-127l-404 -724v-556h172v-106h-526v106h172v537l-416 743h-124zM328 1768q0 47 30.5 81.5t73.5 34.5q45 0 76 -34.5t31 -81.5q0 -51 -31 -84t-76 -33q-43 0 -73.5 33t-30.5 84zM678 1768q0 47 30.5 81.5 t75.5 34.5q41 0 72 -34q33 -37 33 -82q0 -51 -31 -84t-74 -33q-45 0 -75.5 33t-30.5 84z" />
<glyph unicode="&#x179;" horiz-adv-x="1280" d="M586 1637l164 264h176l-236 -264h-104zM84 0v72l836 1298h-695v-223h-110v346h1061v-72l-836 -1298h760v209h108v-332h-1124z" />
<glyph unicode="&#x17a;" horiz-adv-x="970" d="M422 1215l232 376h180l-307 -376h-105zM74 0v86l600 870h-475v-184h-95v291h783v-86l-600 -871h520v193h96v-299h-829z" />
<glyph unicode="&#x17b;" horiz-adv-x="1280" d="M545 1788q0 49 30 82q31 35 74 34.5t74 -34.5q31 -33 31 -82q0 -53 -29 -84q-31 -33 -76 -33t-76 33q-28 31 -28 84zM84 0v72l836 1298h-695v-223h-110v346h1061v-72l-836 -1298h760v209h108v-332h-1124z" />
<glyph unicode="&#x17c;" horiz-adv-x="970" d="M409 1386q0 47 31 82t74 35t73.5 -35t30.5 -82q0 -53 -28 -84q-31 -33 -76 -33t-76 33q-29 31 -29 84zM74 0v86l600 870h-475v-184h-95v291h783v-86l-600 -871h520v193h96v-299h-829z" />
<glyph unicode="&#x17d;" horiz-adv-x="1280" d="M84 0v72l836 1298h-695v-223h-110v346h1061v-72l-836 -1298h760v209h108v-332h-1124zM354 1899h105l182 -162l182 162h105l-209 -264h-158z" />
<glyph unicode="&#x17e;" horiz-adv-x="970" d="M74 0v86l600 870h-475v-184h-95v291h783v-86l-600 -871h520v193h96v-299h-829zM201 1638h105l182 -260l182 260h105l-211 -376h-152z" />
<glyph unicode="&#x17f;" horiz-adv-x="681" d="M68 0v106h157v850h-157v107h157v133q0 174 84 268q84 92 244 92q59 0 121 -12q59 -12 119 -37v-202h-86q0 72 -39 114q-37 39 -109 39q-94 0 -131 -55q-37 -58 -37 -203v-1094h211v-106h-534z" />
<glyph unicode="&#x180;" horiz-adv-x="1177" d="M53 0v106h160v1104h-160v121h160v119h-160v106h326v-225h283v-121h-283v-313q49 101 123 147q76 47 186 48q176 0 287 -154q113 -156 112 -406q0 -246 -112 -405q-111 -156 -287 -156q-111 0 -186 47q-74 46 -123 148v-166h-326zM379 479q0 -190 65 -293 q63 -100 192.5 -100t192.5 113q66 115 66 334t-65.5 331.5t-192.5 112.5q-129 0 -193 -100q-66 -102 -65 -293v-105z" />
<glyph unicode="&#x181;" horiz-adv-x="1353" d="M-172 1020v344q90 76 254 113q92 16 190 16h494q201 0 305 -92q102 -90 103 -277q0 -135 -70 -213q-68 -78 -209 -96q170 -25 258 -121t88 -262q0 -223 -125 -328q-126 -104 -393 -104h-621v106h170v1280q-205 0 -266 -90q-63 -90 -63 -276h-115zM455 106h270 q162 0 236 78q76 80 75 248q0 164 -75 246q-74 78 -236 78h-270v-650zM455 862h229q150 0 215 64q70 66 70 198q0 154 -70 199q-98 63 -215 63h-229v-524z" />
<glyph unicode="&#x182;" horiz-adv-x="1353" d="M102 0v106h170v1280h-170v107h1082v-334h-113v211h-616v-508h229q344 0 450.5 -143.5t106.5 -286.5q0 -223 -125 -328q-126 -104 -393 -104h-621zM455 106h270q162 0 236 78q76 80 75 248q0 166 -75 246q-74 78 -236 78h-270v-650z" />
<glyph unicode="&#x183;" horiz-adv-x="1177" d="M53 0v106h160v1344h-160v106h858v-268h-96v146h-436v-537q49 101 123 147q72 47 186 48q176 0 287 -154q113 -156 112 -406q0 -249 -110 -405q-113 -156 -289 -156q-111 0 -186 47q-76 51 -123 148v-166h-326zM379 479q0 -195 65 -293q63 -100 193 -100q127 0 190 113 q68 119 68 334t-68 331q-66 113 -190 113q-129 0 -193 -100q-66 -98 -65 -293v-105z" />
<glyph unicode="&#x184;" horiz-adv-x="1353" d="M102 0v106h170v885h-170v107l353 395v-631h229q340 0 469 -168q88 -115 88 -262q0 -223 -125 -328q-126 -104 -393 -104h-621zM455 106h270q162 0 236 78q76 80 75 248q0 166 -75 246q-74 78 -236 78h-270v-650z" />
<glyph unicode="&#x185;" horiz-adv-x="1177" d="M53 0v106h160v1018h-160v127l326 305v-659q49 101 123 147q76 47 186 48q176 0 287 -154q113 -156 112 -406q0 -246 -112 -405q-111 -156 -287 -156q-111 0 -186 47q-74 46 -123 148v-166h-326zM379 479q0 -190 65 -293q63 -100 192.5 -100t192.5 113q66 115 66 334 t-65.5 331.5t-192.5 112.5q-129 0 -193 -100q-66 -102 -65 -293v-105z" />
<glyph unicode="&#x186;" horiz-adv-x="1409" d="M104 1096q59 211 198.5 317.5t354.5 106.5q129 0 244 -50q111 -47 201 -147q98 -109 149 -254q49 -141 49 -324q0 -348 -182 -561t-477 -213q-111 0 -233 31q-111 27 -269 98v344h103q35 -190 133 -276q102 -90 282 -90q215 0 326 170q111 169 111 497.5t-111 497.5 q-111 170 -326 170q-150 0 -248 -80t-141 -237h-164z" />
<glyph unicode="&#x187;" horiz-adv-x="1409" d="M104 745q0 350 181 562q180 213 477 213q111 0 233 -31q80 -18 189 -64q0 88 71 146q66 59 170 59q59 0 125 -16q68 -20 113 -49v-219h-84q0 96 -45 141q-37 45 -113 45q-82 0 -121 -62q-37 -57 -36 -190v-233h-103q-35 190 -133 276q-102 90 -283 90q-215 0 -325 -170 q-111 -169 -111 -497.5t111 -497.5q111 -170 325 -170q150 0 248.5 80t141.5 237h165q-61 -213 -200 -317q-139 -106 -355 -107q-131 0 -243 49q-111 47 -201 148q-96 104 -147 254q-50 143 -50 323z" />
<glyph unicode="&#x188;" horiz-adv-x="1030" d="M92 532.5q0 251.5 127 407.5q127 152 336 152q92 0 180 -25q57 -16 88 -29q16 145 90 217q57 53 166 54q61 0 123 -17q66 -18 117 -51v-217h-86q0 90 -45 139q-39 45 -113 45q-82 0 -121 -59q-39 -66 -39 -193v-231h-96q-18 141 -81.5 204.5t-182.5 63.5 q-133 0 -201 -114q-70 -121 -69 -347q0 -229 67.5 -345.5t202.5 -116.5q108 0 172 61q63 61 86 188h135q-35 -172 -135 -260t-258 -88q-211 0 -336 154q-127 156 -127 407.5z" />
<glyph unicode="&#x189;" horiz-adv-x="1486" d="M102 719v125h181v542h-172v107h534q350 0 543 -197q193 -195 192 -548q0 -350 -194.5 -549t-540.5 -199h-534v106h172v613h-181zM463 106h170q260 0 401 166q139 164 139.5 475.5t-139 475t-401.5 163.5h-170v-542h303v-125h-303v-613z" />
<glyph unicode="&#x18a;" horiz-adv-x="1476" d="M-172 1020v344q121 102 254 113q76 16 190 16h365q347 0 541 -197q195 -199 194.5 -549t-195 -548.5t-540.5 -198.5h-535v106h170v1280q-205 0 -266 -90q-63 -90 -63 -276h-115zM455 106h168q262 0 401 166q141 166 141 476q0 311 -139 474.5t-403 163.5h-168v-1280z" />
<glyph unicode="&#x18b;" horiz-adv-x="1353" d="M102 432q0 147 88 262q129 168 469 168h230v508h-617v-209h-110v332h1079v-107h-170v-1280h170v-106h-620q-267 0 -394 104q-125 105 -125 328zM307 432q0 -168 76 -248q74 -78 235 -78h271v650h-271q-162 0 -235 -78q-76 -80 -76 -246z" />
<glyph unicode="&#x18c;" horiz-adv-x="1177" d="M53 532q0 252 110.5 406t289.5 154q113 0 186 -48q74 -46 123 -147v537h-438v-146h-95v268h858v-106h-159v-1344h159v-106h-325v166q-47 -96 -123 -148q-78 -47 -186 -47q-174 0 -287 156q-113 159 -113 405zM248 532q0 -221 63.5 -333.5t192.5 -112.5q125 0 192 100 q66 102 66 293v105q0 190 -66 293q-68 100 -192 100q-127 0 -193 -113q-63 -109 -63 -332z" />
<glyph unicode="&#x18d;" horiz-adv-x="1107" d="M92 530q0 256 125 408q127 154 338 154t336 -154q127 -156 127 -408q0 -250 -127 -405q-59 -70 -113 -98q63 -25 90 -74q35 -57 35 -193q0 -129 -90 -196q-88 -68 -262 -68q-45 0 -143 17q-109 20 -195 47v196l96 27q12 -90 76 -135t150 -45t147 49q66 53 63 117 q0 96 -32 127q-70 76 -158 75q-211 0 -338 154q-125 151 -125 405zM285 530q0 -227 67.5 -343.5t202.5 -116.5q133 0 200.5 116.5t67.5 343.5q0 229 -67.5 346t-200.5 117q-135 0 -202.5 -117t-67.5 -346z" />
<glyph unicode="&#x18e;" horiz-adv-x="1343" d="M102 0v332h111v-209h631v625h-441v-187h-110v496h110v-187h441v500h-617v-209h-110v332h1081v-107h-172v-1280h172v-106h-1096z" />
<glyph unicode="&#x18f;" horiz-adv-x="1509" d="M104 745v70h1096q0 279 -110 428q-115 170 -324 170q-160 0 -258 -80q-96 -78 -139 -237h-166q61 209 198 315q143 109 355 109q291 0 473 -213q180 -211 180 -562q0 -180 -49 -323t-152 -254q-90 -100 -200 -148q-114 -49 -252.5 -49t-252 49.5t-202.5 147.5 q-96 104 -147 254q-50 141 -50 323zM309 694q0 -289 113 -448q113 -168 334 -168t334 168q111 157 110 448h-891z" />
<glyph unicode="&#x190;" horiz-adv-x="1146" d="M113 403q0 174 90 279q92 109 258 133q-137 31 -217 123q-76 88 -76 225q0 168 111 262q109 94 352 95q184 0 401 -90v-263h-100q-12 129 -78 191q-66 63 -221 63q-154 0 -217 -69q-66 -72 -66 -207q0 -139 78 -211t274 -72h46v-106h-86q-199 0 -279 -90 q-82 -92 -82 -254t82 -254q80 -88 203 -88q121 0 207 69q84 68 90 125h166q-33 -102 -142 -198q-106 -94 -325 -95q-218 0 -344 111q-125 110 -125 321z" />
<glyph unicode="&#x191;" horiz-adv-x="1277" d="M-182 -123h102q0 -197 162 -196q102 0 147 75q43 76 43 293v1337h-170v107h1100v-332h-110v209h-637v-500h458v187h111v-496h-111v187h-458v-707q0 -313 -150 -412q-84 -55 -225 -55q-129 0 -262 68v235z" />
<glyph unicode="&#x192;" horiz-adv-x="681" d="M-176 -127h86q0 -16 4 -41q8 -45 35 -74q37 -39 108 -39q92 0 129 58q39 59 39 205v974h-157v107h157v133q0 178 82 268q82 92 246 92q59 0 121 -12q59 -12 119 -37v-202h-86q0 16 -5 41q-8 45 -34 73q-37 39 -109 39q-94 0 -131 -55q-37 -58 -37 -203v-137h266v-107 h-266v-974q0 -176 -84 -271q-82 -90 -244 -90q-59 0 -120 12q-59 12 -119 37v203z" />
<glyph unicode="&#x193;" horiz-adv-x="1470" d="M104 745q0 356 183 566q184 209 493 209q188 0 416 -84q20 76 77.5 135t170.5 59q125 0 237 -65v-219h-84q0 145 -100 176q-27 10 -57 10q-111 0 -146 -119q-14 -51 -14 -133v-233h-100v6q-45 266 -242 333q-80 27 -168 27q-233 0 -346 -166q-115 -168 -115 -502 q0 -530 299 -641q72 -27 166 -26q199 0 371 112v385h-252v107h434v-557q-240 -154 -553 -154q-303 0 -487 211q-183 213 -183 563z" />
<glyph unicode="&#x194;" horiz-adv-x="1310" d="M16 1386v107h533v-107h-158l289 -481l295 481h-172v107h438v-107h-149l-357 -575q500 -684 334 -854q-141 -145 -457 -145q-319 0 -374 200q-51 178 315 721l-393 653h-144zM352 55q0 -137 260 -137q244 0 244 137q0 215 -244 582q-260 -381 -260 -582z" />
<glyph unicode="&#x195;" horiz-adv-x="1716" d="M68 1450v106h323v-682q45 106 119 162t170 56q160 0 233 -101q74 -104 74 -315v-326q0 -125 39 -190q40 -61 123 -62q111 0 213 131q82 106 82 297q0 152 -55 256q-57 104 -162 150v57h100q141 -66 219 -192q80 -129 80 -287q0 -113 -37 -207q-37 -98 -110 -172 q-66 -68 -152 -102q-82 -35 -178 -35q-150 0 -244 100q-84 84 -84 256v268q0 197 -43 267q-43 72 -151 71q-113 0 -176 -94q-59 -88 -60 -270v-486h144v-106h-459v106h149v1344h-157z" />
<glyph unicode="&#x196;" horiz-adv-x="727" d="M102 1386v107h525v-107h-172v-1036q0 -125 39 -190q39 -61 120 -62h13v-98h-13q-182 0 -235 53q-106 102 -107 297v1036h-170z" />
<glyph unicode="&#x197;" horiz-adv-x="727" d="M35 629v170h237v587h-170v107h525v-107h-172v-587h239v-170h-239v-523h172v-106h-525v106h170v523h-237z" />
<glyph unicode="&#x198;" horiz-adv-x="1376" d="M102 0v106h170v1280h-170v107h525v-107h-172v-565l579 565q133 131 246 132q59 0 119 -19q61 -16 114 -49v-217h-86q0 94 -43 139q-35 37 -88 43q-80 0 -145 -59l-545 -533l645 -717h154v-106h-311l-639 709v-603h172v-106h-525z" />
<glyph unicode="&#x199;" horiz-adv-x="1114" d="M63 0v106h150v1098q0 164 88 258q86 94 242 94q63 0 123 -16q72 -23 114 -49v-219h-86q0 94 -45 139q-37 45 -110 45q-86 0 -121 -59q-39 -57 -39 -193v-661l401 413h-137v107h432v-107h-162l-284 -292l362 -558h139v-106h-473v106h138l-287 437l-129 -135v-302h147v-106 h-463z" />
<glyph unicode="&#x19a;" horiz-adv-x="587" d="M53 0v106h160v359h-160v104h160v881h-160v106h326v-987h156v-104h-156v-359h156v-106h-482z" />
<glyph unicode="&#x19b;" horiz-adv-x="1167" d="M76 0v106h108l371 977l-33 101l-239 -189l-56 86l258 203l-6 23q-35 94 -63 123q-31 31 -80 30q-55 0 -80 -28q-25 -31 -31 -99h-86v203q33 12 90 23q39 8 88 8q100 0 153.5 -45t100.5 -170l134 98l53 -86l-150 -115l402 -1143h106v-106h-358v106h143l-256 736l-283 -736 h154v-106h-440z" />
<glyph unicode="&#x19c;" horiz-adv-x="1746" d="M68 1389v106h458v-106h-143v-981q0 -164 43 -232q45 -70 141 -70q111 0 170 95q57 94 58 270v918h-144v106h453v-106h-143v-988q0 -160 43 -227.5t143 -67.5q109 0 168 95q57 94 57 270v918h-143v106h459v-106h-150v-1285h160v-104h-326v188q-47 -109 -115 -161 q-70 -55 -161 -56q-113 0 -187 62q-76 63 -100 174q-49 -119 -123 -176q-76 -59 -172 -60q-152 0 -223 103q-76 106 -76 313v1002h-147z" />
<glyph unicode="&#x19d;" horiz-adv-x="1611" d="M-184 -123h102q0 -100 41 -147q41 -49 121 -49q104 0 149 75q41 70 41 293v1337h-180v107h344l805 -1178v1071h-178v107h471v-107h-180v-1415h-111l-858 1258v-1188q0 -244 -90 -356q-88 -111 -260 -111q-27 0 -84 16q-74 20 -133 52v235z" />
<glyph unicode="&#x19e;" horiz-adv-x="1185" d="M68 956v107h323v-189q45 106 119 162t170 56q160 0 233 -101q74 -102 74 -315v-995h150v-107h-457v107h141v937q0 193 -43 266.5t-151 73.5q-113 0 -176 -94q-59 -90 -60 -272v-486h144v-106h-459v106h149v850h-157z" />
<glyph unicode="&#x19f;" horiz-adv-x="1509" d="M104 745.5q0 182.5 50 323.5q51 150 147 254q89 98 202.5 147.5t252.5 49.5q291 0 473 -213q180 -211 180 -562q0 -180 -49 -323t-152 -254q-90 -100 -200 -148q-114 -49 -252.5 -49t-252 49.5t-202.5 147.5q-96 104 -147 254q-50 141 -50 323.5zM309 694 q10 -293 113 -448q113 -168 334 -168t334 168q100 152 110 448h-891zM311 815h889q-12 283 -110 428q-115 170 -334 170t-334 -170q-99 -145 -111 -428z" />
<glyph unicode="&#x1a0;" horiz-adv-x="1509" d="M100 745q0 182 50 324q51 150 147 254q89 98 202.5 147.5t252.5 49.5q291 0 473 -213q180 -211 180 -562q0 -180 -49 -323q-47 -141 -152 -254q-90 -100 -200 -148q-114 -49 -252.5 -49t-252 49.5t-202.5 147.5q-96 104 -147 254q-50 141 -50 323zM305 745.5 q0 -331.5 113 -499.5t334 -168t333.5 168t112.5 499.5t-112.5 499.5t-333.5 168t-334 -168t-113 -499.5zM1100 1315v92h2q111 -86 151 -86q43 0 67.5 33t24.5 90q0 28 -6 55q-8 41 -16 60l112 -3q10 -37 13 -69q0 -2 3 -27.5t3 -38.5q0 -111 -41 -174q-41 -61 -113 -61 q-49 0 -91.5 28.5t-108.5 100.5z" />
<glyph unicode="&#x1a1;" horiz-adv-x="1107" d="M90 532q0 250 127 406q125 154 336 154t336 -154q127 -156 127 -406q0 -252 -127 -407q-125 -154 -336 -154t-336 154q-127 155 -127 407zM283 532q0 -225 69 -346q68 -117 201 -116.5t200.5 117t67.5 345.5q0 227 -67.5 344t-200.5 117q-135 0 -202.5 -117t-67.5 -344z M838 846v92h2q111 -86 151 -86q43 0 67.5 33t24.5 90q0 28 -6 55q-8 41 -16 60l112 -3q10 -37 13 -69q0 -2 3 -27.5t3 -38.5q0 -111 -41 -174q-41 -61 -113 -61q-49 0 -91.5 28.5t-108.5 100.5z" />
<glyph unicode="&#x1a2;" horiz-adv-x="1914" d="M104 745.5q0 182.5 50 323.5q51 150 147 254q89 98 202.5 147.5t252.5 49.5q180 0 323 -84q66 29 109 41q57 16 131 16q197 0 287 -111q88 -109 88 -356v-1239h172v-109h-563v109h208v1231q0 219 -43 293q-45 76 -149 75q-78 0 -119 -49q20 -20 29 -30q180 -211 180 -562 q0 -180 -49 -323t-152 -254q-90 -100 -200 -148q-114 -49 -252.5 -49t-252 49.5t-202.5 147.5q-96 104 -147 254q-50 141 -50 323.5zM309 745.5q0 -331.5 113 -499.5t334 -168t333.5 168t112.5 499.5t-112.5 499.5t-333.5 168t-334 -168t-113 -499.5z" />
<glyph unicode="&#x1a3;" horiz-adv-x="1486" d="M92 532q0 250 127 406q125 154 336 154q127 0 227 -60q0 2 39 15q51 16 125 16q154 0 242 -94.5t88 -255.5v-1032h158v-107h-482v107h158v1032q0 131 -39 190q-39 61 -121 62q-55 0 -69 -15l10 -12q127 -156 127 -406q0 -252 -127 -407q-125 -154 -336 -154t-336 154 q-127 155 -127 407zM285 532q0 -225 69 -346q68 -117 201 -116.5t200.5 117t67.5 345.5q0 227 -67.5 344t-200.5 117q-135 0 -202.5 -117t-67.5 -344z" />
<glyph unicode="&#x1a4;" horiz-adv-x="1239" d="M-172 1020v344q88 72 254 113q92 16 190 16h465q205 0 320 -113q117 -114 117 -307t-117 -305q-119 -115 -320 -115h-282v-547h209v-106h-562v106h170v1280q-205 0 -266 -90q-63 -90 -63 -276h-115zM455 760h237q135 0 205 80q72 82 72 233.5t-72 233.5q-70 80 -205 79 h-237v-626z" />
<glyph unicode="&#x1a5;" horiz-adv-x="1177" d="M53 -319h160v1433q0 166 86 258q90 94 242 94q66 0 123 -16q57 -14 114 -49v-219h-84q0 92 -45 141q-37 43 -112 43q-82 0 -121 -61q-37 -61 -37 -191v-217q49 101 123 147q72 47 186 48q176 0 287 -154q113 -156 112 -406q0 -249 -110 -405q-113 -156 -289 -156 q-111 0 -186 47q-76 51 -123 148v-485h156v-107h-482v107zM379 479q0 -195 65 -293q63 -100 193 -100q127 0 190 113q68 119 68 334t-68 331q-66 113 -190 113q-129 0 -193 -100q-66 -98 -65 -293v-105z" />
<glyph unicode="&#x1a6;" horiz-adv-x="1386" d="M102 0v106h170v1280h-170v107h543v-107h-190v-219h327q199 0 303 -102q106 -104 107 -297q0 -152 -78 -242q-76 -88 -231 -110q63 -18 108 -63.5t82 -129.5l195 -442h164v-107h-318l-209 476q-61 138 -110 178q-53 41 -140 41h-200v-263h190v-106h-543zM455 475h266 q135 0 201 72q63 70 63 221.5t-63 220.5q-66 72 -201 72h-266v-586z" />
<glyph unicode="&#x1a7;" horiz-adv-x="1261" d="M156 408q0 160 75.5 254t262.5 155l165 55q186 63 238 121q55 61 55 168q0 121 -73 187q-76 66 -217 65q-160 0 -242 -71.5t-96 -227.5h-103v318q129 43 240 65q117 23 205 23q217 0 339.5 -104.5t122.5 -295.5q0 -168 -79 -266q-78 -96 -271 -162l-178 -59 q-164 -55 -215 -113q-49 -58 -49 -166q0 -135 84 -207q82 -70 244 -69q172 0 256 82q86 82 88 252h104v-340q-115 -51 -233 -76q-113 -25 -228 -25q-246 0 -370.5 111t-124.5 326z" />
<glyph unicode="&#x1a8;" horiz-adv-x="944" d="M104 295q0 113 60 180q59 74 194 119l131 45q119 41 162 84q41 41 41 106q0 84 -53 123q-53 41 -158 41q-106 0 -166 -57q-63 -59 -65 -162h-94v232q84 41 172 63q86 23 159 23q172 0 267 -82q96 -84 96 -230q0 -104 -55 -168q-59 -70 -179 -110l-120 -45 q-137 -49 -180.5 -92t-43.5 -113q0 -88 59.5 -135t170.5 -47q121 0 186 59q65 58 68 178h96v-248q-96 -45 -176 -65q-94 -23 -182 -23q-182 0 -287 86q-103 84 -103 238z" />
<glyph unicode="&#x1a9;" horiz-adv-x="1302" d="M76 0l596 748l-596 745h1104v-332h-113v209h-625l422 -557l-497 -625h700v144h113v-332h-1104z" />
<glyph unicode="&#x1aa;" horiz-adv-x="595" d="M-176 1360q2 199 340 199q143 0 237 -95q55 -59 78 -131q29 63 29 156v63h90v-63q-2 -219 -115 -305q-59 -406 -176 -1288q-14 -106 39 -191q37 -61 121 -61q74 0 113 45q37 43 43 141h86v-219q-55 -33 -115 -49q-61 -16 -125 -17q-154 0 -240 93q-109 115 -90 258 q-2 14 172 1232h-10q-242 0 -361.5 58.5t-115.5 173.5zM18 1352q0 -123 281 -123q4 0 12 1t13 1q6 96 -39 166q-43 61 -123 61q-144 0 -144 -106z" />
<glyph unicode="&#x1ab;" horiz-adv-x="739" d="M53 956v107h146v330h166v-330h313v-107h-313v-675q0 -135 24 -172q27 -39 86 -39q63 0 94 43q27 39 31 137h125v-354q0 -166 -86 -258.5t-242 -92.5q-63 0 -125 17q-59 16 -114 49v219h86q6 -96 45 -141t110 -45q83 0 123 61q37 61 37 191v88q-43 -12 -98 -13 q-145 0 -203 70q-59 72 -59 240v675h-146z" />
<glyph unicode="&#x1ac;" horiz-adv-x="1228" d="M78 1008v356q90 76 254 113q96 16 192 16h686v-352h-108v233h-395v-1268h172v-106h-527v106h172v1268q-203 0 -268 -90q-61 -88 -61 -276h-117z" />
<glyph unicode="&#x1ad;" horiz-adv-x="739" d="M53 956v107h146v141q0 164 88 258q86 94 241 94q63 0 123 -16q76 -25 117 -49v-219h-86q0 94 -45 139q-37 45 -113 45q-82 0 -121 -59q-39 -57 -38 -193v-141h313v-107h-313v-675q0 -135 24 -172q27 -39 86 -39q63 0 94 43q29 43 31 137h125q0 -143 -70 -211 q-66 -68 -194 -68q-141 0 -203 72q-59 72 -59 238v675h-146z" />
<glyph unicode="&#x1ae;" horiz-adv-x="1228" d="M18 1141v352h1192v-352h-108v233h-395v-1325q0 -219 41 -293q41 -76 149 -75q78 0 119 49q40 49 43 147h102v-235q-57 -31 -131 -52q-59 -16 -131 -16q-199 0 -287 111q-88 109 -88 356v1333h-395v-233h-111z" />
<glyph unicode="&#x1af;" horiz-adv-x="1552" d="M82 1386v107h526v-107h-172v-772q0 -285 84 -399q82 -113 289 -113q211 0 293 113q84 115 84 399v772h-172v107h452v-107h-170v-792q0 -338 -118 -481q-117 -141 -402 -142q-281 0 -401 142q-121 143 -121 481v792h-172zM1274 1315v92h2q111 -86 151 -86q43 0 67.5 33 t24.5 90q0 28 -6 55q-8 41 -16 60l112 -3q10 -37 13 -69q0 -2 3 -27.5t3 -38.5q0 -111 -41 -174q-41 -61 -113 -61q-49 0 -91.5 28.5t-108.5 100.5z" />
<glyph unicode="&#x1b0;" horiz-adv-x="1185" d="M39 956v107h316v-619q0 -195 43 -266.5t153 -71.5q113 0 174.5 94.5t61.5 272.5v483h-146v107h312v-957h155v-106h-321v188q-45 -106 -119 -161.5t-170 -55.5q-160 0 -234 101q-76 104 -75 315v569h-150zM916 846v92h2q111 -86 151 -86q43 0 67.5 33t24.5 90q0 28 -6 55 q-8 41 -16 60l112 -3q10 -37 13 -69q0 -2 3 -27.5t3 -38.5q0 -111 -41 -174q-41 -61 -113 -61q-49 0 -91.5 28.5t-108.5 100.5z" />
<glyph unicode="&#x1b1;" horiz-adv-x="1527" d="M113 702q0 215 110 390q111 180 299 264h-303v-137h-104v301h532v-183q-164 -72 -246 -225q-82 -152 -82 -387q0 -280 123 -449q123 -170 324 -170q199 0 321 170q123 169 123 449q0 236 -82 387q-84 154 -243 225v183h530v-301h-104v137h-301q188 -86 299 -262 q109 -172 108 -392q0 -152 -51 -280.5t-152 -235.5q-86 -88 -202 -139q-109 -47 -246 -47t-246 47q-113 45 -203 139q-98 102 -151 236q-53 135 -53 280z" />
<glyph unicode="&#x1b2;" horiz-adv-x="1398" d="M102 1386v107h525v-107h-172v-1036q0 -123 39 -190q29 -47 143 -54q195 -10 324 170q123 169 122 449q0 250 -82 387q-80 133 -217 160v114h99q200 -83 295 -258q113 -207 112 -426q0 -145 -53 -280t-150 -236q-84 -88 -204 -139q-90 -37 -246 -47q-190 -12 -258 53 q-106 102 -107 297v1036h-170z" />
<glyph unicode="&#x1b3;" horiz-adv-x="1359" d="M-20 1386v107h499v-107h-157l335 -604l336 604q115 106 240 107q66 0 123 -16q61 -15 117 -50v-219h-87q-6 92 -45 142q-39 45 -112 45q-113 0 -160 -72l-367 -661v-556h172v-106h-526v106h172v537l-416 743h-124z" />
<glyph unicode="&#x1b4;" horiz-adv-x="1220" d="M-4 956v107h438v-107h-151l268 -731l240 645q47 125 100 170t153 45q47 0 86 -8q63 -14 91 -22v-203h-84q-6 66 -31 96.5t-80 30.5q-49 0 -80 -31q-29 -29 -63 -123l-394 -1065q-43 -125 -98 -170q-53 -45 -155 -45q-45 0 -86 9q-55 12 -91 22v203h84q6 -68 31 -98 q23 -29 82 -29q47 0 78 31q29 29 63 122l64 177l-357 974h-108z" />
<glyph unicode="&#x1b5;" horiz-adv-x="1280" d="M84 0v72l356 557h-223v170h334l369 571h-695v-223h-110v346h1061v-72l-402 -622h289v-170h-397l-326 -506h760v209h108v-332h-1124z" />
<glyph unicode="&#x1b6;" horiz-adv-x="970" d="M74 0v86l260 379h-88v104h162l266 387h-475v-184h-95v291h783v-86l-281 -408h119v-104h-190l-248 -359h520v193h96v-299h-829z" />
<glyph unicode="&#x1b7;" horiz-adv-x="1038" d="M92 84v324h101q8 -158 88 -244q76 -82 219 -82q141 0 219 98q78 96 78 273q0 199 -80 299q-82 100 -242 100h-86v102l309 416h-473v-223h-110v346h784v-125l-332 -444l72 -9q164 -27 258 -149q90 -117 90 -311q0 -233 -127 -361q-126 -123 -362 -123q-100 0 -205 29 q-111 31 -201 84z" />
<glyph unicode="&#x1b8;" horiz-adv-x="1038" d="M92 455q0 195 90 311q94 123 258 149l72 9l-334 444v125h787v-346h-111v223h-473l307 -416v-102h-84q-158 0 -239.5 -100.5t-81.5 -298.5q0 -176 77 -273q78 -98 220 -98q139 0 219 82q78 82 88 244h100v-324q-92 -55 -199 -84q-104 -29 -206 -29q-237 0 -363 123 q-127 128 -127 361z" />
<glyph unicode="&#x1b9;" horiz-adv-x="1038" d="M92 25q0 197 90 313q94 123 258 149l72 7l-334 483v86h785v-291h-97v184h-475l297 -432v-100h-84q-156 0 -239 -102q-82 -100 -82 -299q0 -174 77 -271q80 -100 219.5 -100t219.5 84q78 82 88 244h100v-324q-98 -59 -199 -86q-104 -29 -206 -29q-233 0 -363 125 q-127 128 -127 359z" />
<glyph unicode="&#x1bb;" horiz-adv-x="1171" d="M125 0v109l407 452l58 68h-426v170h543l18 37q57 123 57 264q0 152 -69 235q-70 86 -195 86q-127 0 -199 -71q-84 -72 -83 -213h-101v266q90 55 195 88q92 29 190 29q211 0 332 -113t121 -307q0 -135 -105 -301h142v-170h-267l-417 -465h561v184h104v-348h-866z" />
<glyph unicode="&#x1bc;" horiz-adv-x="1263" d="M102 1386v107h975v-332h-108v209h-514v-510h120q84 0 205 -20q166 -25 258 -133q90 -104 90 -304q0 -211 -124 -321q-127 -111 -365 -111q-106 0 -207 25q-102 25 -199 76v290h101q10 -147 88 -219q80 -74 219 -73q137 0 217 88t80 243q0 178 -82 267q-84 90 -240 90 h-344v628h-170z" />
<glyph unicode="&#x1bd;" horiz-adv-x="1038" d="M35 958v105h858v-266h-94v143h-439v-416h115l164 -20q164 -27 258 -150q90 -117 90 -329q0 -231 -127 -359q-129 -125 -362 -125q-100 0 -205 29q-102 29 -201 86v324h101q8 -158 88 -244q78 -84 219 -84q139 0 219 100q78 96 78 271q0 199 -80 299q-84 102 -242 102 h-280v534h-160z" />
<glyph unicode="&#x1be;" horiz-adv-x="987" d="M201 958v107h157v328h166v-328h156v-107h-156v-172q104 -10 176 -84q88 -94 88 -321t-88 -318q-88 -94 -241 -94q-61 0 -123 17q-57 14 -117 51v217h86q6 -98 45 -139q37 -47 113 -47q84 0 121 61q39 59 39 252q0 195 -39 254q-37 61 -121 61h-105v262h-157z" />
<glyph unicode="&#x1c0;" horiz-adv-x="542" d="M199 0v1493h145v-1493h-145z" />
<glyph unicode="&#x1c1;" horiz-adv-x="905" d="M564 0v1493h145v-1493h-145zM199 0v1493h145v-1493h-145z" />
<glyph unicode="&#x1c2;" horiz-adv-x="845" d="M16 479v162h334v211h-334v162h334v479h146v-479h333v-162h-333v-211h333v-162h-333v-479h-146v479h-334z" />
<glyph unicode="&#x1c3;" horiz-adv-x="542" d="M199 0v156h145v-156h-145zM199 311v1182h145v-1182h-145z" />
<glyph unicode="&#x1c4;" horiz-adv-x="2756" d="M1563 0v72l836 1298h-695v-223h-110v346h1061v-72l-836 -1298h760v209h108v-332h-1124zM1833 1899h105l182 -162l182 162h105l-209 -264h-158zM102 0v106h170v1280h-170v107h535q347 0 541 -197q195 -199 194.5 -549t-195 -548.5t-540.5 -198.5h-535zM455 106h168 q260 0 401 166t141 476q0 311 -139 474.5t-403 163.5h-168v-1280z" />
<glyph unicode="&#x1c5;" horiz-adv-x="2447" d="M1553 0v86l600 870h-475v-184h-95v291h783v-86l-600 -871h520v193h96v-299h-829zM1680 1638h105l182 -260l182 260h105l-211 -376h-152zM102 0v106h170v1280h-170v107h535q347 0 541 -197q195 -199 194.5 -549t-195 -548.5t-540.5 -198.5h-535zM455 106h168 q260 0 401 166t141 476q0 311 -139 474.5t-403 163.5h-168v-1280z" />
<glyph unicode="&#x1c6;" horiz-adv-x="2150" d="M1254 0v86l600 870h-475v-184h-95v291h783v-86l-600 -871h520v193h96v-299h-829zM1381 1638h105l182 -260l182 260h105l-211 -376h-152zM92 532q0 252 110.5 406t289.5 154q111 0 186.5 -47.5t124.5 -147.5v553h-158v106h324v-1450h157v-106h-323v166 q-49 -100 -125 -147.5t-186 -47.5q-176 0 -287 156q-113 159 -113 405zM285 532.5q0 -219.5 65 -333.5q63 -113 195 -113q127 0 190 100q68 106 68 293v105q0 186 -68 293q-63 100 -190 100q-129 0 -194.5 -112.5t-65.5 -332z" />
<glyph unicode="&#x1c7;" horiz-adv-x="1961" d="M1069 -123h105q4 -100 41 -147q39 -49 119 -49q104 0 149 75q43 74 43 293v1337h-209v107h561v-107h-170v-1345q0 -244 -90 -356q-90 -111 -287 -111q-72 0 -129 16q-78 23 -133 52v235zM102 0v106h170v1280h-170v107h525v-107h-172v-1263h614v250h111v-373h-1078z" />
<glyph unicode="&#x1c8;" horiz-adv-x="1794" d="M1049 -170h84q6 -96 45 -141t113 -45q82 0 120 61q39 59 39 191v1060h-157v107h323v-1167q0 -168 -88 -258q-90 -92 -242 -93q-63 0 -124 17q-57 14 -113 49v219zM1409 1393q0 46 31 80q31 35 72 34.5t71 -34.5q31 -34 31 -80q0 -49 -29 -80q-31 -33 -73 -33 q-41 0 -72 33q-31 34 -31 80zM102 0v106h170v1280h-170v107h525v-107h-172v-1263h614v250h111v-373h-1078z" />
<glyph unicode="&#x1c9;" horiz-adv-x="1159" d="M414 -170h84q6 -96 45 -141t113 -45q82 0 120 61q39 59 39 191v1060h-157v107h323v-1167q0 -168 -88 -258q-90 -92 -242 -93q-63 0 -124 17q-57 14 -113 49v219zM774 1393q0 46 31 80q31 35 72 34.5t71 -34.5q31 -34 31 -80q0 -49 -29 -80q-31 -33 -73 -33q-41 0 -72 33 q-31 34 -31 80zM53 0v106h160v1344h-160v106h326v-1450h156v-106h-482z" />
<glyph unicode="&#x1ca;" horiz-adv-x="2349" d="M1458 -123h105q4 -100 41 -147q39 -49 119 -49q104 0 149 75q43 74 43 293v1337h-209v107h561v-107h-170v-1345q0 -244 -90 -356q-90 -111 -287 -111q-72 0 -129 16q-78 23 -133 52v235zM90 0v106h180v1280h-180v107h344l805 -1178v1071h-178v107h471v-107h-180v-1415 h-111l-858 1258v-1123h178v-106h-471z" />
<glyph unicode="&#x1cb;" horiz-adv-x="2183" d="M1438 -170h84q6 -96 45 -141t113 -45q82 0 120 61q39 59 39 191v1060h-157v107h323v-1167q0 -168 -88 -258q-90 -92 -242 -93q-63 0 -124 17q-57 14 -113 49v219zM1798 1393q0 46 31 80q31 35 72 34.5t71 -34.5q31 -34 31 -80q0 -49 -29 -80q-31 -33 -73 -33 q-41 0 -72 33q-31 34 -31 80zM90 0v106h180v1280h-180v107h344l805 -1178v1071h-178v107h471v-107h-180v-1415h-111l-858 1258v-1123h178v-106h-471z" />
<glyph unicode="&#x1cc;" horiz-adv-x="1757" d="M1012 -170h84q6 -96 45 -141t113 -45q82 0 120 61q39 59 39 191v1060h-157v107h323v-1167q0 -168 -88 -258q-90 -92 -242 -93q-63 0 -124 17q-57 14 -113 49v219zM1372 1393q0 46 31 80q31 35 72 34.5t71 -34.5q31 -34 31 -80q0 -49 -29 -80q-31 -33 -73 -33 q-41 0 -72 33q-31 34 -31 80zM68 956v107h323v-189q45 106 119 162t170 56q160 0 233 -101q74 -102 74 -315v-570h150v-106h-457v106h141v512q0 193 -43 266.5t-151 73.5q-113 0 -176 -94q-59 -90 -60 -272v-486h144v-106h-459v106h149v850h-157z" />
<glyph unicode="&#x1cd;" horiz-adv-x="1329" d="M-10 0v106h116l480 1387h151l480 -1387h133v-106h-490v106h150l-113 328h-565l-113 -328h148v-106h-377zM369 541h493l-246 710zM376 1899h105l182 -162l182 162h105l-209 -264h-158z" />
<glyph unicode="&#x1ce;" horiz-adv-x="1097" d="M92 319q0 164 107 256q104 90 303 91h231v73q0 121 -65 187q-68 68 -187 67q-96 0 -157 -51q-55 -47 -72 -147h-86v215q88 41 168 61.5t158 20.5q201 0 303 -109q104 -111 104 -319v-558h148v-106h-314v115q-55 -74 -127 -109q-74 -35 -168 -35q-160 0 -252 95 q-94 97 -94 253zM276 319q0 -111 61.5 -176t166.5 -65q100 0 166 72q63 70 63 184v225h-213q-121 0 -184 -59q-60 -58 -60 -181zM223 1638h105l182 -260l182 260h105l-211 -376h-152z" />
<glyph unicode="&#x1cf;" horiz-adv-x="727" d="M102 0v106h170v1280h-170v107h525v-107h-172v-1280h172v-106h-525zM77 1899h105l182 -162l182 162h105l-209 -264h-158z" />
<glyph unicode="&#x1d0;" horiz-adv-x="587" d="M68 0v106h157v850h-157v107h323v-957h156v-106h-479zM8 1638h105l182 -260l182 260h105l-211 -376h-152z" />
<glyph unicode="&#x1d1;" horiz-adv-x="1509" d="M104 745q0 182 50 324q51 150 147 254q89 98 202.5 147.5t252.5 49.5q291 0 473 -213q180 -211 180 -562q0 -180 -49 -323q-47 -141 -152 -254q-90 -100 -200 -148q-114 -49 -252.5 -49t-252 49.5t-202.5 147.5q-96 104 -147 254q-50 141 -50 323zM309 745.5 q0 -331.5 113 -499.5t334 -168t333.5 168t112.5 499.5t-112.5 499.5t-333.5 168t-334 -168t-113 -499.5zM469 1899h105l182 -162l182 162h105l-209 -264h-158z" />
<glyph unicode="&#x1d2;" horiz-adv-x="1107" d="M92 532q0 250 127 406q125 154 336 154t336 -154q127 -156 127 -406q0 -252 -127 -407q-125 -154 -336 -154t-336 154q-127 155 -127 407zM285 532q0 -225 69 -346q68 -117 201 -116.5t200.5 117t67.5 345.5q0 227 -67.5 344t-200.5 117q-135 0 -202.5 -117t-67.5 -344z M266 1638h105l182 -260l182 260h105l-211 -376h-152z" />
<glyph unicode="&#x1d3;" horiz-adv-x="1552" d="M86 1386v107h526v-107h-172v-772q0 -285 84 -399q82 -113 289 -113q211 0 293 113q84 115 84 399v772h-172v107h452v-107h-170v-792q0 -338 -118 -481q-117 -141 -402 -142q-281 0 -401 142q-121 143 -121 481v792h-172zM526 1899h105l182 -162l182 162h105l-209 -264 h-158z" />
<glyph unicode="&#x1d4;" horiz-adv-x="1185" d="M49 956v107h316v-619q0 -195 43 -266.5t153 -71.5q113 0 174.5 94.5t61.5 272.5v483h-146v107h312v-957h155v-106h-321v188q-45 -106 -119 -161.5t-170 -55.5q-160 0 -234 101q-76 104 -75 315v569h-150zM237 1638h105l182 -260l182 260h105l-211 -376h-152z" />
<glyph unicode="&#x1d5;" horiz-adv-x="1552" d="M543 2066v148h536v-148h-536zM86 1386v107h526v-107h-172v-772q0 -285 84 -399q82 -113 289 -113q211 0 293 113q84 115 84 399v772h-172v107h452v-107h-170v-792q0 -338 -118 -481q-117 -141 -402 -142q-281 0 -401 142q-121 143 -121 481v792h-172zM533 1768 q0 47 30.5 81.5t73.5 34.5q45 0 76 -34.5t31 -81.5q0 -51 -31 -84t-76 -33q-43 0 -73.5 33t-30.5 84zM883 1768q0 47 30.5 81.5t75.5 34.5q41 0 72 -34q33 -37 33 -82q0 -51 -31 -84t-74 -33q-45 0 -75.5 33t-30.5 84z" />
<glyph unicode="&#x1d6;" horiz-adv-x="1185" d="M259 1693v148h536v-148h-536zM49 956v107h316v-619q0 -195 43 -266.5t153 -71.5q113 0 174.5 94.5t61.5 272.5v483h-146v107h312v-957h155v-106h-321v188q-45 -106 -119 -161.5t-170 -55.5q-160 0 -234 101q-76 104 -75 315v569h-150zM246 1452q0 45 33 82q31 35 72 35 q45 0 75.5 -35t30.5 -82q0 -51 -30.5 -84t-75.5 -33q-43 0 -74 33t-31 84zM596 1452q0 47 31 82t76 35q43 0 73.5 -35t30.5 -82q0 -51 -30.5 -84t-73.5 -33q-45 0 -76 33t-31 84z" />
<glyph unicode="&#x1d7;" horiz-adv-x="1552" d="M707 1981l164 264h176l-236 -264h-104zM86 1386v107h526v-107h-172v-772q0 -285 84 -399q82 -113 289 -113q211 0 293 113q84 115 84 399v772h-172v107h452v-107h-170v-792q0 -338 -118 -481q-117 -141 -402 -142q-281 0 -401 142q-121 143 -121 481v792h-172zM533 1768 q0 47 30.5 81.5t73.5 34.5q45 0 76 -34.5t31 -81.5q0 -51 -31 -84t-76 -33q-43 0 -73.5 33t-30.5 84zM883 1768q0 47 30.5 81.5t75.5 34.5q41 0 72 -34q33 -37 33 -82q0 -51 -31 -84t-74 -33q-45 0 -75.5 33t-30.5 84z" />
<glyph unicode="&#x1d8;" horiz-adv-x="1185" d="M419 1635l232 376h180l-307 -376h-105zM49 956v107h316v-619q0 -195 43 -266.5t153 -71.5q113 0 174.5 94.5t61.5 272.5v483h-146v107h312v-957h155v-106h-321v188q-45 -106 -119 -161.5t-170 -55.5q-160 0 -234 101q-76 104 -75 315v569h-150zM246 1452q0 45 33 82 q31 35 72 35q45 0 75.5 -35t30.5 -82q0 -51 -30.5 -84t-75.5 -33q-43 0 -74 33t-31 84zM596 1452q0 47 31 82t76 35q43 0 73.5 -35t30.5 -82q0 -51 -30.5 -84t-73.5 -33q-45 0 -76 33t-31 84z" />
<glyph unicode="&#x1d9;" horiz-adv-x="1552" d="M526 2245h105l182 -162l182 162h105l-209 -264h-158zM86 1386v107h526v-107h-172v-772q0 -285 84 -399q82 -113 289 -113q211 0 293 113q84 115 84 399v772h-172v107h452v-107h-170v-792q0 -338 -118 -481q-117 -141 -402 -142q-281 0 -401 142q-121 143 -121 481v792 h-172zM533 1768q0 47 30.5 81.5t73.5 34.5q45 0 76 -34.5t31 -81.5q0 -51 -31 -84t-76 -33q-43 0 -73.5 33t-30.5 84zM883 1768q0 47 30.5 81.5t75.5 34.5q41 0 72 -34q33 -37 33 -82q0 -51 -31 -84t-74 -33q-45 0 -75.5 33t-30.5 84z" />
<glyph unicode="&#x1da;" horiz-adv-x="1185" d="M239 2011h105l182 -260l182 260h105l-211 -376h-152zM49 956v107h316v-619q0 -195 43 -266.5t153 -71.5q113 0 174.5 94.5t61.5 272.5v483h-146v107h312v-957h155v-106h-321v188q-45 -106 -119 -161.5t-170 -55.5q-160 0 -234 101q-76 104 -75 315v569h-150zM246 1452 q0 45 33 82q31 35 72 35q45 0 75.5 -35t30.5 -82q0 -51 -30.5 -84t-75.5 -33q-43 0 -74 33t-31 84zM596 1452q0 47 31 82t76 35q43 0 73.5 -35t30.5 -82q0 -51 -30.5 -84t-73.5 -33q-45 0 -76 33t-31 84z" />
<glyph unicode="&#x1db;" horiz-adv-x="1552" d="M574 2245h176l166 -264h-107zM86 1386v107h526v-107h-172v-772q0 -285 84 -399q82 -113 289 -113q211 0 293 113q84 115 84 399v772h-172v107h452v-107h-170v-792q0 -338 -118 -481q-117 -141 -402 -142q-281 0 -401 142q-121 143 -121 481v792h-172zM533 1768 q0 47 30.5 81.5t73.5 34.5q45 0 76 -34.5t31 -81.5q0 -51 -31 -84t-76 -33q-43 0 -73.5 33t-30.5 84zM883 1768q0 47 30.5 81.5t75.5 34.5q41 0 72 -34q33 -37 33 -82q0 -51 -31 -84t-74 -33q-45 0 -75.5 33t-30.5 84z" />
<glyph unicode="&#x1dc;" horiz-adv-x="1185" d="M226 2009h176l233 -376h-104zM49 956v107h316v-619q0 -195 43 -266.5t153 -71.5q113 0 174.5 94.5t61.5 272.5v483h-146v107h312v-957h155v-106h-321v188q-45 -106 -119 -161.5t-170 -55.5q-160 0 -234 101q-76 104 -75 315v569h-150zM246 1452q0 45 33 82q31 35 72 35 q45 0 75.5 -35t30.5 -82q0 -51 -30.5 -84t-75.5 -33q-43 0 -74 33t-31 84zM596 1452q0 47 31 82t76 35q43 0 73.5 -35t30.5 -82q0 -51 -30.5 -84t-73.5 -33q-45 0 -76 33t-31 84z" />
<glyph unicode="&#x1dd;" horiz-adv-x="1089" d="M92 551h715v8q0 215 -74 326q-74 109 -215 108q-111 0 -180 -63q-70 -66 -96 -189h-133q39 174 145 262.5t281 88.5q211 0 335 -154q129 -154 129 -408t-125 -405q-125 -154 -329 -154q-215 0 -332 150q-119 149 -121 430zM287 444q6 -184 71 -280q63 -94 187 -94 q115 0 180 96q68 98 82 278h-520z" />
<glyph unicode="&#x1de;" horiz-adv-x="1329" d="M397 2066v148h536v-148h-536zM-10 0v106h116l480 1387h151l480 -1387h133v-106h-490v106h150l-113 328h-565l-113 -328h148v-106h-377zM369 541h493l-246 710zM385 1768q0 47 30.5 81.5t73.5 34.5q45 0 76 -34.5t31 -81.5q0 -51 -31 -84t-76 -33q-43 0 -73.5 33t-30.5 84 zM735 1768q0 47 30.5 81.5t75.5 34.5q41 0 72 -34q33 -37 33 -82q0 -51 -31 -84t-74 -33q-45 0 -75.5 33t-30.5 84z" />
<glyph unicode="&#x1df;" horiz-adv-x="1097" d="M244 1693v148h536v-148h-536zM92 319q0 164 107 256q104 90 303 91h231v73q0 121 -65 187q-68 68 -187 67q-96 0 -157 -51q-55 -47 -72 -147h-86v215q88 41 168 61.5t158 20.5q201 0 303 -109q104 -111 104 -319v-558h148v-106h-314v115q-55 -74 -127 -109 q-74 -35 -168 -35q-160 0 -252 95q-94 97 -94 253zM276 319q0 -111 61.5 -176t166.5 -65q100 0 166 72q63 70 63 184v225h-213q-121 0 -184 -59q-60 -58 -60 -181zM231 1452q0 45 33 82q31 35 72 35q45 0 75.5 -35t30.5 -82q0 -51 -30.5 -84t-75.5 -33q-43 0 -74 33t-31 84z M581 1452q0 47 31 82t76 35q43 0 73.5 -35t30.5 -82q0 -51 -30.5 -84t-73.5 -33q-45 0 -76 33t-31 84z" />
<glyph unicode="&#x1e0;" horiz-adv-x="1329" d="M397 2066v148h536v-148h-536zM560 1825q0 47 31 82t74 35t73.5 -35t30.5 -82q0 -53 -28 -84q-31 -33 -76 -33t-76 33q-29 31 -29 84zM-10 0v106h116l480 1387h151l480 -1387h133v-106h-490v106h150l-113 328h-565l-113 -328h148v-106h-377zM369 541h493l-246 710z" />
<glyph unicode="&#x1e1;" horiz-adv-x="1097" d="M244 1693v148h536v-148h-536zM407 1452q0 47 31 82t74 35t73.5 -35t30.5 -82q0 -53 -28 -84q-31 -33 -76 -33t-76 33q-29 31 -29 84zM92 319q0 164 107 256q104 90 303 91h231v73q0 121 -65 187q-68 68 -187 67q-96 0 -157 -51q-55 -47 -72 -147h-86v215q88 41 168 61.5 t158 20.5q201 0 303 -109q104 -111 104 -319v-558h148v-106h-314v115q-55 -74 -127 -109q-74 -35 -168 -35q-160 0 -252 95q-94 97 -94 253zM276 319q0 -111 61.5 -176t166.5 -65q100 0 166 72q63 70 63 184v225h-213q-121 0 -184 -59q-60 -58 -60 -181z" />
<glyph unicode="&#x1e2;" horiz-adv-x="1843" d="M811 1693v148h536v-148h-536zM-33 0v106h119l530 1280h-192v107h1311v-332h-111v209h-620v-500h444v187h111v-496h-111v187h-444v-625h634v209h111v-332h-1098v106h172v328h-483l-137 -328h147v-106h-383zM383 541h440v845h-90z" />
<glyph unicode="&#x1e3;" horiz-adv-x="1730" d="M572 1378v148h536v-148h-536zM92 319q0 164 107 256q104 90 303 91h231v73q0 121 -63 187q-63 68 -181 67q-104 0 -163 -49q-57 -49 -74 -149h-86v215q88 41 168 61.5t158 20.5q129 0 215 -43t135 -134q66 88 153 132q90 45 193 45q215 0 332 -150q119 -152 120 -430 h-712v-8q0 -217 71 -324q74 -111 215 -110q109 0 179 63q72 66 98 189h133q-39 -174 -145.5 -262.5t-280.5 -88.5q-113 0 -203 45q-96 49 -164 134q-74 -92 -166 -135.5t-202 -43.5q-182 0 -275 90q-96 92 -96 258zM276 319q0 -111 61.5 -176t166.5 -65q100 0 166 72 q63 70 63 184v225h-213q-121 0 -184 -59q-60 -58 -60 -181zM928 618h518q-6 184 -72 281q-63 94 -186 94q-115 0 -182 -96q-66 -93 -78 -279z" />
<glyph unicode="&#x1e4;" horiz-adv-x="1560" d="M104 745.5q0 354.5 183 563.5q184 211 493 211q125 0 240 -29q131 -33 260 -90v-354h-100q-31 184 -131 276q-100 90 -279 90q-233 0 -346 -166q-115 -168 -115 -502q0 -326 119 -497q117 -170 346 -170q98 0 195 28q92 27 176 84v129h-400v107h400v149h-252v107h434 v-256h180v-107h-180v-194q-115 -74 -258 -115q-135 -39 -295 -39q-303 0 -487 211q-183 209 -183 563.5z" />
<glyph unicode="&#x1e5;" horiz-adv-x="1177" d="M92 532q0 252 110.5 406t289.5 154q111 0 186.5 -47.5t124.5 -147.5v166h323v-107h-157v-370h157v-107h-157v-456q0 -225 -115 -353q-113 -125 -324 -125q-94 0 -180 19q-78 16 -166 57v223h86q14 -100 78 -151q61 -49 172 -49q145 0 213 92q70 94 70 287v143 q-49 -100 -125 -147.5t-186 -47.5q-176 0 -287 156q-113 159 -113 405zM285 532.5q0 -219.5 65 -333.5q63 -113 195 -113q127 0 190 100q68 106 68 293h-217v107h217q0 184 -68 291q-63 100 -190 100q-129 0 -194.5 -112.5t-65.5 -332z" />
<glyph unicode="&#x1e6;" horiz-adv-x="1470" d="M485 1899h105l182 -162l182 162h105l-209 -264h-158zM104 745.5q0 354.5 183 563.5q184 211 493 211q125 0 240 -29q131 -33 260 -90v-354h-100q-31 184 -131 276q-100 90 -279 90q-233 0 -346 -166q-115 -168 -115 -502q0 -326 119 -497q117 -170 346 -170q98 0 195 28 q92 27 176 84v385h-252v107h434v-557q-115 -74 -258 -115q-135 -39 -295 -39q-303 0 -487 211q-183 209 -183 563.5z" />
<glyph unicode="&#x1e7;" horiz-adv-x="1177" d="M256 1638h105l182 -260l182 260h105l-211 -376h-152zM92 532q0 252 110.5 406t289.5 154q111 0 186.5 -47.5t124.5 -147.5v166h323v-107h-157v-933q0 -225 -115 -353q-113 -125 -324 -125q-94 0 -180 19q-78 16 -166 57v223h86q14 -100 78 -151q61 -49 172 -49 q145 0 213 92q70 94 70 287v143q-49 -100 -125 -147.5t-186 -47.5q-176 0 -287 156q-113 159 -113 405zM285 532.5q0 -219.5 65 -333.5q63 -113 195 -113q127 0 190 100q68 106 68 293v105q0 186 -68 293q-63 100 -190 100q-129 0 -194.5 -112.5t-65.5 -332z" />
<glyph unicode="&#x1e8;" horiz-adv-x="1376" d="M469 1899h105l182 -162l182 162h105l-209 -264h-158zM102 0v106h170v1280h-170v107h525v-107h-172v-565l579 565h-145v107h446v-107h-151l-578 -563l645 -717h154v-106h-311l-639 709v-603h172v-106h-525z" />
<glyph unicode="&#x1e9;" horiz-adv-x="1114" d="M12 1968h105l182 -162l182 162h105l-209 -264h-158zM53 1450v106h326v-1013l401 413h-137v107h432v-107h-162l-284 -292l362 -558h139v-106h-473v106h138l-287 437l-129 -135v-302h147v-106h-463v106h150v1344h-160z" />
<glyph unicode="&#x1ea;" horiz-adv-x="1509" d="M598 -239q0 51 26.5 102t90.5 121h84v-2q-80 -123 -80 -170q0 -46 31 -74q33 -29 79 -28q23 0 52 6q23 4 53 20v-127q-47 -12 -64 -14q-41 -4 -59 -4q-100 0 -158 45q-55 43 -55 125zM104 745q0 182 50 324q51 150 147 254q89 98 202.5 147.5t252.5 49.5q291 0 473 -213 q180 -211 180 -562q0 -180 -49 -323q-47 -141 -152 -254q-90 -100 -200 -148q-114 -49 -252.5 -49t-252 49.5t-202.5 147.5q-96 104 -147 254q-50 141 -50 323zM309 745.5q0 -331.5 113 -499.5t334 -168t333.5 168t112.5 499.5t-112.5 499.5t-333.5 168t-334 -168 t-113 -499.5z" />
<glyph unicode="&#x1eb;" horiz-adv-x="1107" d="M395 -239q0 51 26.5 102t90.5 121h84v-2q-80 -123 -80 -170q0 -46 31 -74q33 -29 79 -28q23 0 52 6q23 4 53 20v-127q-47 -12 -64 -14q-41 -4 -59 -4q-100 0 -158 45q-55 43 -55 125zM92 532q0 250 127 406q125 154 336 154t336 -154q127 -156 127 -406q0 -252 -127 -407 q-125 -154 -336 -154t-336 154q-127 155 -127 407zM285 532q0 -225 69 -346q68 -117 201 -116.5t200.5 117t67.5 345.5q0 227 -67.5 344t-200.5 117q-135 0 -202.5 -117t-67.5 -344z" />
<glyph unicode="&#x1ec;" horiz-adv-x="1509" d="M488 1693v148h536v-148h-536zM598 -239q0 51 26.5 102t90.5 121h84v-2q-80 -123 -80 -170q0 -46 31 -74q33 -29 79 -28q23 0 52 6q23 4 53 20v-127q-47 -12 -64 -14q-41 -4 -59 -4q-100 0 -158 45q-55 43 -55 125zM104 745q0 182 50 324q51 150 147 254 q89 98 202.5 147.5t252.5 49.5q291 0 473 -213q180 -211 180 -562q0 -180 -49 -323q-47 -141 -152 -254q-90 -100 -200 -148q-114 -49 -252.5 -49t-252 49.5t-202.5 147.5q-96 104 -147 254q-50 141 -50 323zM309 745.5q0 -331.5 113 -499.5t334 -168t333.5 168t112.5 499.5 t-112.5 499.5t-333.5 168t-334 -168t-113 -499.5z" />
<glyph unicode="&#x1ed;" horiz-adv-x="1107" d="M287 1378v148h536v-148h-536zM395 -239q0 51 26.5 102t90.5 121h84v-2q-80 -123 -80 -170q0 -46 31 -74q33 -29 79 -28q23 0 52 6q23 4 53 20v-127q-47 -12 -64 -14q-41 -4 -59 -4q-100 0 -158 45q-55 43 -55 125zM92 532q0 250 127 406q125 154 336 154t336 -154 q127 -156 127 -406q0 -252 -127 -407q-125 -154 -336 -154t-336 154q-127 155 -127 407zM285 532q0 -225 69 -346q68 -117 201 -116.5t200.5 117t67.5 345.5q0 227 -67.5 344t-200.5 117q-135 0 -202.5 -117t-67.5 -344z" />
<glyph unicode="&#x1ee;" horiz-adv-x="1038" d="M241 1899h105l182 -162l182 162h105l-209 -264h-158zM92 84v324h101q8 -158 88 -244q76 -82 219 -82q141 0 219 98q78 96 78 273q0 199 -80 299q-82 100 -242 100h-86v102l309 416h-473v-223h-110v346h784v-125l-332 -444l72 -9q164 -27 258 -149q90 -117 90 -311 q0 -233 -127 -361q-126 -123 -362 -123q-100 0 -205 29q-111 31 -201 84z" />
<glyph unicode="&#x1ef;" horiz-adv-x="1038" d="M201 1638h105l182 -260l182 260h105l-211 -376h-152zM92 -20h101q8 -158 88 -244q78 -84 219 -84q139 0 219 100q78 96 78 271q0 199 -80 299q-84 102 -242 102h-86v100l297 432h-473v-184h-96v291h782v-86l-332 -483l72 -7q164 -27 258 -149q90 -117 90 -313 q0 -231 -127 -359q-129 -125 -362 -125q-100 0 -205 29q-102 29 -201 86v324z" />
<glyph unicode="&#x1f0;" horiz-adv-x="587" d="M-176 -170h84q6 -96 45 -141t113 -45q82 0 120 61q39 59 39 191v1060h-157v107h323v-1167q0 -168 -88 -258q-90 -92 -242 -93q-63 0 -124 17q-57 14 -113 49v219zM8 1638h105l182 -260l182 260h105l-211 -376h-152z" />
<glyph unicode="&#x1f1;" horiz-adv-x="2756" d="M1563 0v72l836 1298h-695v-223h-110v346h1061v-72l-836 -1298h760v209h108v-332h-1124zM102 0v106h170v1280h-170v107h535q347 0 541 -197q195 -199 194.5 -549t-195 -548.5t-540.5 -198.5h-535zM455 106h168q260 0 401 166t141 476q0 311 -139 474.5t-403 163.5h-168 v-1280z" />
<glyph unicode="&#x1f2;" horiz-adv-x="2447" d="M1553 0v86l600 870h-475v-184h-95v291h783v-86l-600 -871h520v193h96v-299h-829zM102 0v106h170v1280h-170v107h535q347 0 541 -197q195 -199 194.5 -549t-195 -548.5t-540.5 -198.5h-535zM455 106h168q260 0 401 166t141 476q0 311 -139 474.5t-403 163.5h-168v-1280z " />
<glyph unicode="&#x1f3;" horiz-adv-x="2150" d="M1254 0v86l600 870h-475v-184h-95v291h783v-86l-600 -871h520v193h96v-299h-829zM92 532q0 252 110.5 406t289.5 154q111 0 186.5 -47.5t124.5 -147.5v553h-158v106h324v-1450h157v-106h-323v166q-49 -100 -125 -147.5t-186 -47.5q-176 0 -287 156q-113 159 -113 405z M285 532.5q0 -219.5 65 -333.5q63 -113 195 -113q127 0 190 100q68 106 68 293v105q0 186 -68 293q-63 100 -190 100q-129 0 -194.5 -112.5t-65.5 -332z" />
<glyph unicode="&#x1f4;" horiz-adv-x="1470" d="M662 1635l164 264h176l-236 -264h-104zM104 745.5q0 354.5 183 563.5q184 211 493 211q125 0 240 -29q131 -33 260 -90v-354h-100q-31 184 -131 276q-100 90 -279 90q-233 0 -346 -166q-115 -168 -115 -502q0 -326 119 -497q117 -170 346 -170q98 0 195 28q92 27 176 84 v385h-252v107h434v-557q-115 -74 -258 -115q-135 -39 -295 -39q-303 0 -487 211q-183 209 -183 563.5z" />
<glyph unicode="&#x1f5;" horiz-adv-x="1177" d="M436 1262l232 376h180l-307 -376h-105zM92 532q0 252 110.5 406t289.5 154q111 0 186.5 -47.5t124.5 -147.5v166h323v-107h-157v-933q0 -225 -115 -353q-113 -125 -324 -125q-94 0 -180 19q-78 16 -166 57v223h86q14 -100 78 -151q61 -49 172 -49q145 0 213 92 q70 94 70 287v143q-49 -100 -125 -147.5t-186 -47.5q-176 0 -287 156q-113 159 -113 405zM285 532.5q0 -219.5 65 -333.5q63 -113 195 -113q127 0 190 100q68 106 68 293v105q0 186 -68 293q-63 100 -190 100q-129 0 -194.5 -112.5t-65.5 -332z" />
<glyph unicode="&#x1f6;" horiz-adv-x="2125" d="M102 0v106h170v1280h-170v107h525v-107h-172v-516h696v516h-170v107h524v-107h-170v-772q0 -287 82 -399q86 -113 203 -113q129 0 192 113q66 119 66 399v340h-156v109h324v-469q0 -338 -121 -481q-117 -141 -297 -142q-236 0 -354 142q-123 145 -123 481v154h-696v-642 h172v-106h-525z" />
<glyph unicode="&#x1f8;" horiz-adv-x="1611" d="M555 1899h176l166 -264h-107zM90 0v106h180v1280h-180v107h344l805 -1178v1071h-178v107h471v-107h-180v-1415h-111l-858 1258v-1123h178v-106h-471z" />
<glyph unicode="&#x1f9;" horiz-adv-x="1185" d="M234 1636h176l233 -376h-104zM68 956v107h323v-189q45 106 119 162t170 56q160 0 233 -101q74 -102 74 -315v-570h150v-106h-457v106h141v512q0 193 -43 266.5t-151 73.5q-113 0 -176 -94q-59 -90 -60 -272v-486h144v-106h-459v106h149v850h-157z" />
<glyph unicode="&#x1fa;" horiz-adv-x="1329" d="M-10 0v106h116l396 1143q-29 23 -53 66q-33 59 -33 143q0 115 71 197q57 63 131 76l127 167h177l-189 -176q58 -18 105 -67q72 -82 71 -197q0 -76 -35 -141q-25 -41 -53 -68l396 -1143h133v-106h-490v106h150l-113 328h-565l-113 -328h148v-106h-377zM369 541h493 l-229 665l-33 2zM526 1458q0 -66 39 -106q41 -43 96.5 -43t96.5 43q41 45 41 106q0 63 -41 108.5t-96.5 45.5t-96.5 -45q-39 -41 -39 -109z" />
<glyph unicode="&#x1fb;" horiz-adv-x="1097" d="M92 319q0 164 107 256q104 90 303 91h231v73q0 121 -65 187q-68 68 -187 67q-96 0 -157 -51q-55 -47 -72 -147h-86v215q88 41 168 61.5t158 20.5q201 0 303 -109q104 -111 104 -319v-558h148v-106h-314v115q-55 -74 -127 -109q-74 -35 -168 -35q-160 0 -252 95 q-94 97 -94 253zM266 1458q0 115 72 197q66 72 154 78l104 165h176l-166 -184q47 -23 80 -59q74 -84 74 -196.5t-72 -194.5q-70 -80 -176 -80q-102 0 -174 80q-72 81 -72 194zM276 319q0 -111 61.5 -176t166.5 -65q100 0 166 72q63 70 63 184v225h-213q-121 0 -184 -59 q-60 -58 -60 -181zM375 1458.5q0 -67.5 39 -108.5q40 -43 98 -43q57 0 98 45q39 41 39 106q0 68 -39 109q-40 43 -98 43t-98 -43q-39 -41 -39 -108.5z" />
<glyph unicode="&#x1fc;" horiz-adv-x="1843" d="M969 1635l164 264h176l-236 -264h-104zM-33 0v106h119l530 1280h-192v107h1311v-332h-111v209h-620v-500h444v187h111v-496h-111v187h-444v-625h634v209h111v-332h-1098v106h172v328h-483l-137 -328h147v-106h-383zM383 541h440v845h-90z" />
<glyph unicode="&#x1fd;" horiz-adv-x="1730" d="M726 1266l232 376h180l-307 -376h-105zM92 319q0 164 107 256q104 90 303 91h231v73q0 121 -63 187q-63 68 -181 67q-104 0 -163 -49q-57 -49 -74 -149h-86v215q88 41 168 61.5t158 20.5q129 0 215 -43t135 -134q66 88 153 132q90 45 193 45q215 0 332 -150 q119 -152 120 -430h-712v-8q0 -217 71 -324q74 -111 215 -110q109 0 179 63q72 66 98 189h133q-39 -174 -145.5 -262.5t-280.5 -88.5q-113 0 -203 45q-96 49 -164 134q-74 -92 -166 -135.5t-202 -43.5q-182 0 -275 90q-96 92 -96 258zM276 319q0 -111 61.5 -176t166.5 -65 q100 0 166 72q63 70 63 184v225h-213q-121 0 -184 -59q-60 -58 -60 -181zM928 618h518q-6 184 -72 281q-63 94 -186 94q-115 0 -182 -96q-66 -93 -78 -279z" />
<glyph unicode="&#x1fe;" horiz-adv-x="1509" d="M652 1635l164 264h176l-236 -264h-104zM90 12l168 207q-80 111 -117 236q-37 129 -37 290q0 346 181 560q182 215 471 215q129 0 235 -43q111 -45 195 -125l160 198l71 -71l-166 -203q77 -108 117 -240q41 -135 41 -291q0 -346 -180 -559q-181 -215 -473 -215 q-126 0 -234 43q-106 43 -198 129l-164 -200zM309 745q0 -127 15 -215q16 -104 45 -178l725 887q-55 86 -144 131q-82 43 -194 43q-221 0 -334 -168t-113 -500zM418 256q61 -92 141 -133q90 -45 197 -45q221 0 333.5 168t112.5 499q0 123 -14 215.5t-47 180.5z" />
<glyph unicode="&#x1ff;" horiz-adv-x="1107" d="M542 1262l232 376h180l-307 -376h-105zM68 -31l135 178q-53 74 -82 172.5t-29 212.5q0 250 127 406q125 154 336 154q84 0 156 -25q70 -25 131 -76l125 166l67 -63l-131 -172q57 -76 84 -172q31 -109 31 -218q0 -252 -127 -407q-125 -154 -336 -154q-90 0 -158 27 q-76 29 -131 80l-129 -172zM285 532q0 -53 8 -131q6 -59 18 -108l445 586q-33 57 -84 85.5t-117 28.5q-133 0 -201 -116q-69 -122 -69 -345zM352 190q35 -57 86 -90q49 -31 117 -30q131 0 201 118q68 117 67 344q0 74 -6 136q-6 66 -20 112z" />
<glyph unicode="&#x200;" horiz-adv-x="1329" d="M264 1899h176l164 -264h-104zM549 1899h178l164 -264h-107zM-10 0v106h116l480 1387h151l480 -1387h133v-106h-490v106h150l-113 328h-565l-113 -328h148v-106h-377zM369 541h493l-246 710z" />
<glyph unicode="&#x201;" horiz-adv-x="1097" d="M111 1638h160l202 -376h-104zM414 1638h153l168 -376h-102zM92 319q0 164 107 256q104 90 303 91h231v73q0 121 -65 187q-68 68 -187 67q-96 0 -157 -51q-55 -47 -72 -147h-86v215q88 41 168 61.5t158 20.5q201 0 303 -109q104 -111 104 -319v-558h148v-106h-314v115 q-55 -74 -127 -109q-74 -35 -168 -35q-160 0 -252 95q-94 97 -94 253zM276 319q0 -111 61.5 -176t166.5 -65q100 0 166 72q63 70 63 184v225h-213q-121 0 -184 -59q-60 -58 -60 -181z" />
<glyph unicode="&#x202;" horiz-adv-x="1329" d="M385 1694q9 144 79 215q72 72 201 72q131 0 203 -72q71 -71 80 -215h-88q-12 78 -58 115q-43 35 -137 34.5t-137 -34.5q-45 -37 -57 -115h-86zM-10 0v106h116l480 1387h151l480 -1387h133v-106h-490v106h150l-113 328h-565l-113 -328h148v-106h-377zM369 541h493 l-246 710z" />
<glyph unicode="&#x203;" horiz-adv-x="1097" d="M232 1321q9 144 79 215q72 72 201 72q131 0 203 -72q71 -71 80 -215h-88q-12 78 -58 115q-43 35 -137 34.5t-137 -34.5q-45 -37 -57 -115h-86zM92 319q0 164 107 256q104 90 303 91h231v73q0 121 -65 187q-68 68 -187 67q-96 0 -157 -51q-55 -47 -72 -147h-86v215 q88 41 168 61.5t158 20.5q201 0 303 -109q104 -111 104 -319v-558h148v-106h-314v115q-55 -74 -127 -109q-74 -35 -168 -35q-160 0 -252 95q-94 97 -94 253zM276 319q0 -111 61.5 -176t166.5 -65q100 0 166 72q63 70 63 184v225h-213q-121 0 -184 -59q-60 -58 -60 -181z" />
<glyph unicode="&#x204;" horiz-adv-x="1343" d="M291 1899h176l164 -264h-104zM576 1899h178l164 -264h-107zM102 0v106h170v1280h-170v107h1082v-332h-111v209h-618v-500h442v187h109v-496h-109v187h-442v-625h632v209h111v-332h-1096z" />
<glyph unicode="&#x205;" horiz-adv-x="1089" d="M144 1638h160l202 -376h-104zM447 1638h153l168 -376h-102zM92 532q0 254 125 406q127 154 328 154q217 0 334 -148q115 -145 120 -432h-714v-8q0 -213 73.5 -323.5t214.5 -110.5q109 0 179 63q72 66 98 189h133q-39 -172 -147 -263q-106 -88 -281 -88q-211 0 -336 154 q-127 155 -127 407zM285 618h520q-6 184 -72 281q-63 94 -188 94q-115 0 -180.5 -96.5t-79.5 -278.5z" />
<glyph unicode="&#x206;" horiz-adv-x="1343" d="M394 1694q9 144 79 215q72 72 201 72q131 0 203 -72q71 -71 80 -215h-88q-12 78 -58 115q-43 35 -137 34.5t-137 -34.5q-45 -37 -57 -115h-86zM102 0v106h170v1280h-170v107h1082v-332h-111v209h-618v-500h442v187h109v-496h-109v187h-442v-625h632v209h111v-332h-1096z " />
<glyph unicode="&#x207;" horiz-adv-x="1089" d="M265 1321q9 144 79 215q72 72 201 72q131 0 203 -72q71 -71 80 -215h-88q-12 78 -58 115q-43 35 -137 34.5t-137 -34.5q-45 -37 -57 -115h-86zM92 532q0 254 125 406q127 154 328 154q217 0 334 -148q115 -145 120 -432h-714v-8q0 -213 73.5 -323.5t214.5 -110.5 q109 0 179 63q72 66 98 189h133q-39 -172 -147 -263q-106 -88 -281 -88q-211 0 -336 154q-127 155 -127 407zM285 618h520q-6 184 -72 281q-63 94 -188 94q-115 0 -180.5 -96.5t-79.5 -278.5z" />
<glyph unicode="&#x208;" horiz-adv-x="727" d="M-35 1899h176l164 -264h-104zM250 1899h178l164 -264h-107zM102 0v106h170v1280h-170v107h525v-107h-172v-1280h172v-106h-525z" />
<glyph unicode="&#x209;" horiz-adv-x="587" d="M68 0v106h157v850h-157v107h323v-957h156v-106h-479zM-108 1638h160l202 -376h-104zM195 1638h153l168 -376h-102z" />
<glyph unicode="&#x20a;" horiz-adv-x="727" d="M84 1694q9 144 79 215q72 72 201 72q131 0 203 -72q71 -71 80 -215h-88q-12 78 -58 115q-43 35 -137 34.5t-137 -34.5q-45 -37 -57 -115h-86zM102 0v106h170v1280h-170v107h525v-107h-172v-1280h172v-106h-525z" />
<glyph unicode="&#x20b;" horiz-adv-x="587" d="M15 1321q9 144 79 215q72 72 201 72q131 0 203 -72q71 -71 80 -215h-88q-12 78 -58 115q-43 35 -137 34.5t-137 -34.5q-45 -37 -57 -115h-86zM68 0v106h157v850h-157v107h323v-957h156v-106h-479z" />
<glyph unicode="&#x20c;" horiz-adv-x="1509" d="M354 1899h176l164 -264h-104zM639 1899h178l164 -264h-107zM104 745q0 182 50 324q51 150 147 254q89 98 202.5 147.5t252.5 49.5q291 0 473 -213q180 -211 180 -562q0 -180 -49 -323q-47 -141 -152 -254q-90 -100 -200 -148q-114 -49 -252.5 -49t-252 49.5t-202.5 147.5 q-96 104 -147 254q-50 141 -50 323zM309 745.5q0 -331.5 113 -499.5t334 -168t333.5 168t112.5 499.5t-112.5 499.5t-333.5 168t-334 -168t-113 -499.5z" />
<glyph unicode="&#x20d;" horiz-adv-x="1107" d="M154 1638h160l202 -376h-104zM457 1638h153l168 -376h-102zM92 532q0 250 127 406q125 154 336 154t336 -154q127 -156 127 -406q0 -252 -127 -407q-125 -154 -336 -154t-336 154q-127 155 -127 407zM285 532q0 -225 69 -346q68 -117 201 -116.5t200.5 117t67.5 345.5 q0 227 -67.5 344t-200.5 117q-135 0 -202.5 -117t-67.5 -344z" />
<glyph unicode="&#x20e;" horiz-adv-x="1509" d="M476 1694q9 144 79 215q72 72 201 72q131 0 203 -72q71 -71 80 -215h-88q-12 78 -58 115q-43 35 -137 34.5t-137 -34.5q-45 -37 -57 -115h-86zM104 745q0 182 50 324q51 150 147 254q89 98 202.5 147.5t252.5 49.5q291 0 473 -213q180 -211 180 -562q0 -180 -49 -323 q-47 -141 -152 -254q-90 -100 -200 -148q-114 -49 -252.5 -49t-252 49.5t-202.5 147.5q-96 104 -147 254q-50 141 -50 323zM309 745.5q0 -331.5 113 -499.5t334 -168t333.5 168t112.5 499.5t-112.5 499.5t-333.5 168t-334 -168t-113 -499.5z" />
<glyph unicode="&#x20f;" horiz-adv-x="1107" d="M275 1321q9 144 79 215q72 72 201 72q131 0 203 -72q71 -71 80 -215h-88q-12 78 -58 115q-43 35 -137 34.5t-137 -34.5q-45 -37 -57 -115h-86zM92 532q0 250 127 406q125 154 336 154t336 -154q127 -156 127 -406q0 -252 -127 -407q-125 -154 -336 -154t-336 154 q-127 155 -127 407zM285 532q0 -225 69 -346q68 -117 201 -116.5t200.5 117t67.5 345.5q0 227 -67.5 344t-200.5 117q-135 0 -202.5 -117t-67.5 -344z" />
<glyph unicode="&#x210;" horiz-adv-x="1386" d="M258 1899h176l164 -264h-104zM543 1899h178l164 -264h-107zM102 0v106h170v1280h-170v107h680q197 0 303.5 -104.5t106.5 -294.5q0 -152 -78 -242q-76 -88 -231 -111q59 -16 108 -65q45 -45 82 -127l195 -443h164v-106h-318l-209 475q-61 138 -110 178q-51 41 -140 41 h-200v-588h190v-106h-543zM455 801h266q135 0 201 71q63 70 63 221.5t-63 221.5q-66 72 -201 71h-266v-585z" />
<glyph unicode="&#x211;" horiz-adv-x="880" d="M96 1638h160l202 -376h-104zM399 1638h153l168 -376h-102zM68 958v105h323v-189q51 113 125 164q78 53 186 54q39 0 84 -7q27 -4 95 -20v-266h-95q-6 78 -41 119q-33 39 -102 38q-123 0 -186 -94q-66 -96 -66 -270v-486h191v-106h-506v106h149v852h-157z" />
<glyph unicode="&#x212;" horiz-adv-x="1386" d="M377 1694q9 144 79 215q72 72 201 72q131 0 203 -72q71 -71 80 -215h-88q-12 78 -58 115q-43 35 -137 34.5t-137 -34.5q-45 -37 -57 -115h-86zM102 0v106h170v1280h-170v107h680q197 0 303.5 -104.5t106.5 -294.5q0 -152 -78 -242q-76 -88 -231 -111q59 -16 108 -65 q45 -45 82 -127l195 -443h164v-106h-318l-209 475q-61 138 -110 178q-51 41 -140 41h-200v-588h190v-106h-543zM455 801h266q135 0 201 71q63 70 63 221.5t-63 221.5q-66 72 -201 71h-266v-585z" />
<glyph unicode="&#x213;" horiz-adv-x="880" d="M217 1321q9 144 79 215q72 72 201 72q131 0 203 -72q71 -71 80 -215h-88q-12 78 -58 115q-43 35 -137 34.5t-137 -34.5q-45 -37 -57 -115h-86zM68 958v105h323v-189q51 113 125 164q78 53 186 54q39 0 84 -7q27 -4 95 -20v-266h-95q-6 78 -41 119q-33 39 -102 38 q-123 0 -186 -94q-66 -96 -66 -270v-486h191v-106h-506v106h149v852h-157z" />
<glyph unicode="&#x214;" horiz-adv-x="1552" d="M409 1899h176l164 -264h-104zM694 1899h178l164 -264h-107zM86 1386v107h526v-107h-172v-772q0 -285 84 -399q82 -113 289 -113q211 0 293 113q84 115 84 399v772h-172v107h452v-107h-170v-792q0 -338 -118 -481q-117 -141 -402 -142q-281 0 -401 142q-121 143 -121 481 v792h-172z" />
<glyph unicode="&#x215;" horiz-adv-x="1185" d="M123 1638h160l202 -376h-104zM426 1638h153l168 -376h-102zM49 956v107h316v-619q0 -195 43 -266.5t153 -71.5q113 0 174.5 94.5t61.5 272.5v483h-146v107h312v-957h155v-106h-321v188q-45 -106 -119 -161.5t-170 -55.5q-160 0 -234 101q-76 104 -75 315v569h-150z" />
<glyph unicode="&#x216;" horiz-adv-x="1552" d="M533 1694q9 144 79 215q72 72 201 72q131 0 203 -72q71 -71 80 -215h-88q-12 78 -58 115q-43 35 -137 34.5t-137 -34.5q-45 -37 -57 -115h-86zM86 1386v107h526v-107h-172v-772q0 -285 84 -399q82 -113 289 -113q211 0 293 113q84 115 84 399v772h-172v107h452v-107h-170 v-792q0 -338 -118 -481q-117 -141 -402 -142q-281 0 -401 142q-121 143 -121 481v792h-172z" />
<glyph unicode="&#x217;" horiz-adv-x="1185" d="M244 1321q9 144 79 215q72 72 201 72q131 0 203 -72q71 -71 80 -215h-88q-12 78 -58 115q-43 35 -137 34.5t-137 -34.5q-45 -37 -57 -115h-86zM49 956v107h316v-619q0 -195 43 -266.5t153 -71.5q113 0 174.5 94.5t61.5 272.5v483h-146v107h312v-957h155v-106h-321v188 q-45 -106 -119 -161.5t-170 -55.5q-160 0 -234 101q-76 104 -75 315v569h-150z" />
<glyph unicode="&#x218;" horiz-adv-x="1261" d="M156 1120q0 193 120 295q123 104 340 105q90 0 207 -23q106 -20 238 -65v-318h-103q-16 160 -94 229.5t-243 69.5q-139 0 -215 -65.5t-76 -186.5q0 -106 55 -168q51 -57 238 -121l165 -55q186 -61 263 -155q78 -96 77 -254q0 -215 -124 -326q-127 -111 -373 -111 q-111 0 -225 25q-123 27 -236 76v340h104q6 -170 88 -252t256 -82q158 0 246 72q84 70 84 204q0 109 -51 166.5t-215 112.5l-176 59q-193 63 -273 162q-77 96 -77 266zM475 -412q72 45 100 99q31 55 31 135v22h141q-6 -104 -57 -176q-51 -74 -158 -129z" />
<glyph unicode="&#x219;" horiz-adv-x="944" d="M104 59v248h95q3 -120 67 -178q66 -59 189 -59q109 0 168 47t59 135q0 70 -43 113t-180 92l-119 45q-123 43 -180 110q-55 63 -56 168q0 145 97 230q94 82 268 82q72 0 158 -23q92 -25 174 -63v-232h-96q-2 102 -66 162q-59 57 -166 57q-104 0 -157.5 -41t-53.5 -123 q0 -68 41 -108q37 -37 162 -82l131 -45q137 -47 195 -117q61 -74 61 -182q0 -152 -104.5 -238t-286.5 -86q-86 0 -180 23q-81 20 -177 65zM281 -412q72 45 100 99q31 55 31 135v22h141q-6 -104 -57 -176q-51 -74 -158 -129z" />
<glyph unicode="&#x21a;" horiz-adv-x="1228" d="M18 1141v352h1192v-352h-108v233h-395v-1268h172v-106h-527v106h172v1268h-395v-233h-111zM401 -412q72 45 100 99q31 55 31 135v22h141q-6 -104 -57 -176q-51 -74 -158 -129z" />
<glyph unicode="&#x21b;" horiz-adv-x="739" d="M53 956v107h146v330h166v-330h313v-107h-313v-675q0 -135 24 -172q27 -39 86 -39q63 0 94 43q27 39 31 137h125q-6 -145 -70 -211q-66 -68 -194 -68q-145 0 -203 70q-59 72 -59 240v675h-146zM238 -412q72 45 100 99q31 55 31 135v22h141q-6 -104 -57 -176 q-51 -74 -158 -129z" />
<glyph unicode="&#x21c;" horiz-adv-x="1153" d="M139 -315q158 61 332 155q154 84 256 201q96 111 96 250t-61 207q-109 121 -258 39l-209 -113v108l211 123q123 74 215 209q68 104 67 258q0 156 -75 224q-74 66 -181 71q-109 6 -192 -96q-74 -104 -98 -274h-103v344q287 129 451 129t284 -105q119 -104 119 -278 t-67 -281q-63 -100 -178 -182q123 -18 200 -133q76 -113 76 -228q0 -219 -125 -350q-121 -127 -342 -225q-186 -82 -418 -168v115z" />
<glyph unicode="&#x21d;" horiz-adv-x="960" d="M63 -334q129 39 289 113q147 68 246 172q78 82 78 182q0 98 -58 160q-86 88 -229 26l-186 -79v100l186 86q111 51 182 149q68 96 68 199q0 104 -64 160q-61 53 -143 53q-94 0 -158 -45q-94 -70 -114 -233h-97v272q72 39 197 76q106 33 238 28q125 -2 229 -86 q104 -83 104 -208t-61 -211q-59 -84 -160 -150q113 -16 181 -102q70 -88 69 -168q0 -176 -115 -285q-117 -111 -323 -192q-195 -78 -359 -115v98z" />
<glyph unicode="&#x21e;" horiz-adv-x="1605" d="M522 1899h105l182 -162l182 162h105l-209 -264h-158zM102 0v106h170v1280h-170v107h525v-107h-172v-516h696v516h-170v107h524v-107h-170v-1280h170v-106h-524v106h170v642h-696v-642h172v-106h-525z" />
<glyph unicode="&#x21f;" horiz-adv-x="1185" d="M12 1968h105l182 -162l182 162h105l-209 -264h-158zM68 1450v106h323v-682q45 106 119 162t170 56q160 0 233 -101q74 -102 74 -315v-570h150v-106h-457v106h141v512q0 197 -43 267q-43 72 -151 71q-113 0 -176 -94q-59 -88 -60 -270v-486h144v-106h-459v106h149v1344 h-157z" />
<glyph unicode="&#x220;" horiz-adv-x="1552" d="M86 0v106h172v1280h-158v107h340v-201q68 114 172 172q102 57 246 58q225 0 333.5 -145.5t108.5 -454.5v-1241h170v-107h-528v107h172v1200q0 295 -67 401q-68 109 -238 109q-178 0 -274 -129q-94 -127 -95 -375v-781h172v-106h-526z" />
<glyph unicode="&#x221;" horiz-adv-x="1499" d="M92 532q0 252 110.5 406t289.5 154q111 0 186.5 -47.5t124.5 -147.5v553h-158v106h324v-1277h12h8q242 0 361.5 -57.5t117.5 -172.5q-2 -199 -340 -199q-145 0 -237 93q-57 61 -80 133q-27 -59 -27 -158v-63h-90v63q0 47 13 121q-8 -8 -29 -21q-76 -47 -186 -47 q-176 0 -287 156q-113 159 -113 405zM285 532.5q0 -219.5 65 -333.5q63 -113 195 -113q127 0 190 100q68 106 68 293v105q0 186 -68 293q-63 100 -190 100q-129 0 -194.5 -112.5t-65.5 -332zM969 178q-10 -98 39 -168q41 -61 122 -61q240 0 240 106q0 123 -377 123h-24z" />
<glyph unicode="&#x224;" horiz-adv-x="1280" d="M84 0v72l836 1298h-695v-223h-110v346h1061v-72l-836 -1298h690h178q-6 -168 -71.5 -293t-196.5 -213l-72 80q82 68 123 164q27 66 35 139h-942z" />
<glyph unicode="&#x225;" horiz-adv-x="970" d="M74 0v86l600 870h-475v-184h-95v291h783v-86l-600 -871h438h178q-10 -176 -72 -294q-63 -121 -196 -211l-74 80q84 66 125 161q31 76 37 158h-649z" />
<glyph unicode="&#x226;" horiz-adv-x="1329" d="M561 1770q0 49 30 82q31 35 74 34.5t74 -34.5q31 -33 31 -82q0 -53 -29 -84q-31 -33 -76 -33t-76 33q-28 31 -28 84zM-10 0v106h116l480 1387h151l480 -1387h133v-106h-490v106h150l-113 328h-565l-113 -328h148v-106h-377zM369 541h493l-246 710z" />
<glyph unicode="&#x227;" horiz-adv-x="1097" d="M407 1452q0 47 31 82t74 35t73.5 -35t30.5 -82q0 -53 -28 -84q-31 -33 -76 -33t-76 33q-29 31 -29 84zM92 319q0 164 107 256q104 90 303 91h231v73q0 121 -65 187q-68 68 -187 67q-96 0 -157 -51q-55 -47 -72 -147h-86v215q88 41 168 61.5t158 20.5q201 0 303 -109 q104 -111 104 -319v-558h148v-106h-314v115q-55 -74 -127 -109q-74 -35 -168 -35q-160 0 -252 95q-94 97 -94 253zM276 319q0 -111 61.5 -176t166.5 -65q100 0 166 72q63 70 63 184v225h-213q-121 0 -184 -59q-60 -58 -60 -181z" />
<glyph unicode="&#x228;" horiz-adv-x="1343" d="M514 -240q35 -18 72 -26q33 -8 67 -8q53 0 82 26.5t29 71.5q0 31 -20 72q-29 57 -60 104h88q57 -63 86 -120.5t29 -104.5q0 -80 -57.5 -125t-157.5 -45q-39 0 -78 6q-40 6 -80 18v131zM102 0v106h170v1280h-170v107h1082v-332h-111v209h-618v-500h442v187h109v-496h-109 v187h-442v-625h632v209h111v-332h-1096z" />
<glyph unicode="&#x229;" horiz-adv-x="1089" d="M335 -240q35 -18 72 -26q33 -8 67 -8q53 0 82 26.5t29 71.5q0 31 -20 72q-29 57 -60 104h88q57 -63 86 -120.5t29 -104.5q0 -80 -57.5 -125t-157.5 -45q-39 0 -78 6q-40 6 -80 18v131zM92 532q0 254 125 406q127 154 328 154q217 0 334 -148q115 -145 120 -432h-714v-8 q0 -213 73.5 -323.5t214.5 -110.5q109 0 179 63q72 66 98 189h133q-39 -172 -147 -263q-106 -88 -281 -88q-211 0 -336 154q-127 155 -127 407zM285 618h520q-6 184 -72 281q-63 94 -188 94q-115 0 -180.5 -96.5t-79.5 -278.5z" />
<glyph unicode="&#x22a;" horiz-adv-x="1509" d="M490 2066v148h536v-148h-536zM104 745q0 182 50 324q51 150 147 254q89 98 202.5 147.5t252.5 49.5q291 0 473 -213q180 -211 180 -562q0 -180 -49 -323q-47 -141 -152 -254q-90 -100 -200 -148q-114 -49 -252.5 -49t-252 49.5t-202.5 147.5q-96 104 -147 254 q-50 141 -50 323zM309 745.5q0 -331.5 113 -499.5t334 -168t333.5 168t112.5 499.5t-112.5 499.5t-333.5 168t-334 -168t-113 -499.5zM476 1768q0 47 30.5 81.5t73.5 34.5q45 0 76 -34.5t31 -81.5q0 -51 -31 -84t-76 -33q-43 0 -73.5 33t-30.5 84zM826 1768q0 47 30.5 81.5 t75.5 34.5q41 0 72 -34q33 -37 33 -82q0 -51 -31 -84t-74 -33q-45 0 -75.5 33t-30.5 84z" />
<glyph unicode="&#x22b;" horiz-adv-x="1107" d="M287 1693v148h536v-148h-536zM92 532q0 250 127 406q125 154 336 154t336 -154q127 -156 127 -406q0 -252 -127 -407q-125 -154 -336 -154t-336 154q-127 155 -127 407zM285 532q0 -225 69 -346q68 -117 201 -116.5t200.5 117t67.5 345.5q0 227 -67.5 344t-200.5 117 q-135 0 -202.5 -117t-67.5 -344zM274 1452q0 45 33 82q31 35 72 35q45 0 75.5 -35t30.5 -82q0 -51 -30.5 -84t-75.5 -33q-43 0 -74 33t-31 84zM624 1452q0 47 31 82t76 35q43 0 73.5 -35t30.5 -82q0 -51 -30.5 -84t-73.5 -33q-45 0 -76 33t-31 84z" />
<glyph unicode="&#x22c;" horiz-adv-x="1509" d="M490 2066v148h536v-148h-536zM104 745q0 182 50 324q51 150 147 254q89 98 202.5 147.5t252.5 49.5q291 0 473 -213q180 -211 180 -562q0 -180 -49 -323q-47 -141 -152 -254q-90 -100 -200 -148q-114 -49 -252.5 -49t-252 49.5t-202.5 147.5q-96 104 -147 254 q-50 141 -50 323zM309 745.5q0 -331.5 113 -499.5t334 -168t333.5 168t112.5 499.5t-112.5 499.5t-333.5 168t-334 -168t-113 -499.5zM459 1667q4 104 47 160q47 59 123 59q29 0 60 -10q33 -10 77 -39l45 -26q29 -16 41 -21q18 -6 35 -6q37 0 57.5 26.5t20.5 75.5h88 q-2 -102 -49 -161q-45 -57 -129 -58q-63 0 -127 45l-2 2l-45 29q-25 16 -37 21q-18 6 -33 6q-35 0 -59 -29q-23 -27 -27 -74h-86z" />
<glyph unicode="&#x22d;" horiz-adv-x="1107" d="M279 1693v148h536v-148h-536zM92 532q0 250 127 406q125 154 336 154t336 -154q127 -156 127 -406q0 -252 -127 -407q-125 -154 -336 -154t-336 154q-127 155 -127 407zM285 532q0 -225 69 -346q68 -117 201 -116.5t200.5 117t67.5 345.5q0 227 -67.5 344t-200.5 117 q-135 0 -202.5 -117t-67.5 -344zM258 1309q4 139 47 209q46 74 129 73q37 0 63 -14q33 -18 62 -47l51 -55q25 -25 35 -31q14 -8 35 -8q39 0 61 41q20 39 25 114h86q-4 -139 -47 -209q-46 -74 -129 -73q-37 0 -64 14q-33 18 -61 47l-51 55q-25 25 -39 31q-20 8 -31 8 q-39 0 -60 -39q-20 -37 -26 -116h-86z" />
<glyph unicode="&#x22e;" horiz-adv-x="1509" d="M652 1768q0 49 30 82q31 35 74 34.5t74 -34.5q31 -33 31 -82q0 -53 -29 -84q-31 -33 -76 -33t-76 33q-28 31 -28 84zM104 745q0 182 50 324q51 150 147 254q89 98 202.5 147.5t252.5 49.5q291 0 473 -213q180 -211 180 -562q0 -180 -49 -323q-47 -141 -152 -254 q-90 -100 -200 -148q-114 -49 -252.5 -49t-252 49.5t-202.5 147.5q-96 104 -147 254q-50 141 -50 323zM309 745.5q0 -331.5 113 -499.5t334 -168t333.5 168t112.5 499.5t-112.5 499.5t-333.5 168t-334 -168t-113 -499.5z" />
<glyph unicode="&#x22f;" horiz-adv-x="1107" d="M450 1452q0 47 31 82t74 35t73.5 -35t30.5 -82q0 -53 -28 -84q-31 -33 -76 -33t-76 33q-29 31 -29 84zM92 532q0 250 127 406q125 154 336 154t336 -154q127 -156 127 -406q0 -252 -127 -407q-125 -154 -336 -154t-336 154q-127 155 -127 407zM285 532q0 -225 69 -346 q68 -117 201 -116.5t200.5 117t67.5 345.5q0 227 -67.5 344t-200.5 117q-135 0 -202.5 -117t-67.5 -344z" />
<glyph unicode="&#x230;" horiz-adv-x="1509" d="M488 2066v148h536v-148h-536zM651 1825q0 47 31 82t74 35t73.5 -35t30.5 -82q0 -53 -28 -84q-31 -33 -76 -33t-76 33q-29 31 -29 84zM104 745q0 182 50 324q51 150 147 254q89 98 202.5 147.5t252.5 49.5q291 0 473 -213q180 -211 180 -562q0 -180 -49 -323 q-47 -141 -152 -254q-90 -100 -200 -148q-114 -49 -252.5 -49t-252 49.5t-202.5 147.5q-96 104 -147 254q-50 141 -50 323zM309 745.5q0 -331.5 113 -499.5t334 -168t333.5 168t112.5 499.5t-112.5 499.5t-333.5 168t-334 -168t-113 -499.5z" />
<glyph unicode="&#x231;" horiz-adv-x="1107" d="M287 1693v148h536v-148h-536zM450 1452q0 47 31 82t74 35t73.5 -35t30.5 -82q0 -53 -28 -84q-31 -33 -76 -33t-76 33q-29 31 -29 84zM92 532q0 250 127 406q125 154 336 154t336 -154q127 -156 127 -406q0 -252 -127 -407q-125 -154 -336 -154t-336 154 q-127 155 -127 407zM285 532q0 -225 69 -346q68 -117 201 -116.5t200.5 117t67.5 345.5q0 227 -67.5 344t-200.5 117q-135 0 -202.5 -117t-67.5 -344z" />
<glyph unicode="&#x232;" horiz-adv-x="1214" d="M338 1693v148h536v-148h-536zM-20 1386v107h499v-107h-157l335 -604l336 604h-151v107h391v-107h-127l-404 -724v-556h172v-106h-526v106h172v537l-416 743h-124z" />
<glyph unicode="&#x233;" horiz-adv-x="1040" d="M246 1378v148h536v-148h-536zM-4 956v107h438v-107h-151l268 -731l268 731h-141v107h358v-107h-106l-441 -1196q-43 -125 -98 -170q-53 -45 -155 -45q-45 0 -86 9q-55 12 -91 22v203h84q6 -68 31 -98q23 -29 82 -29q47 0 78 31q29 29 63 122l64 177l-357 974h-108z" />
<glyph unicode="&#x234;" horiz-adv-x="921" d="M53 1450v106h326v-1024q0 -160 31 -264q125 139 297 140q184 0 184 -238q0 -199 -244 -199q-137 0 -233 72q-8 -27 -8 -119v-143h-103v143q2 100 25 180l-17 21q-98 172 -98 407v918h-160zM465 164q61 -94 184 -94q143 -2 144 106q0 123 -101 123q-164 -4 -227 -135z" />
<glyph unicode="&#x235;" horiz-adv-x="1531" d="M68 956v107h323v-189q45 106 119 162t170 56q160 0 233 -101q74 -102 74 -315v-144q0 -176 35 -264q125 139 297 140q182 0 182 -238q0 -199 -244 -199q-133 0 -233 72q-8 -27 -8 -119v-143h-103v143q2 100 25 180l-16 21q-100 170 -101 407v86q0 193 -43 266.5 t-151 73.5q-113 0 -176 -94q-59 -90 -60 -272v-486h144v-106h-459v106h149v850h-157zM1073 164q61 -94 187 -94q143 -2 143 106q0 123 -100 123q-167 -4 -230 -135z" />
<glyph unicode="&#x236;" horiz-adv-x="907" d="M53 956v107h146v330h166v-330h313v-107h-313v-424q0 -164 32 -264q125 139 297 140q184 0 185 -238q0 -199 -244 -199q-135 0 -236 72q-6 -20 -6 -119v-143h-102l2 143q4 109 22 180l-16 21q-100 170 -100 407v424h-146zM451 164q61 -94 186 -94q141 -2 141 106 q0 123 -98 123q-163 -4 -229 -135z" />
<glyph unicode="&#x237;" horiz-adv-x="569" d="M-176 -170h84q6 -96 45 -141t113 -45q82 0 120 61q39 59 39 191v1060h-157v107h323v-1167q0 -168 -88 -258q-90 -92 -242 -93q-63 0 -124 17q-57 14 -113 49v219z" />
<glyph unicode="&#x238;" horiz-adv-x="1767" d="M92 532q0 252 110.5 406t289.5 154q111 0 186.5 -47.5t124.5 -147.5v553h-160v106h326v-659q49 101 123 147q76 47 186 48q176 0 287 -154q113 -156 112 -406q0 -246 -112 -405q-111 -156 -287 -156q-111 0 -186 47q-74 46 -123 148v-166h-166v166q-49 -100 -125 -147.5 t-186 -47.5q-176 0 -287 156q-113 159 -113 405zM285 532.5q0 -219.5 65 -333.5q63 -113 195 -113q127 0 190 100q68 106 68 293v105q0 186 -68 293q-63 100 -190 100q-129 0 -194.5 -112.5t-65.5 -332zM969 479q0 -190 65 -293q63 -100 193 -100q127 0 190 113 q66 115 66 334t-65.5 331.5t-190.5 112.5q-129 0 -193 -100q-66 -102 -65 -293v-105z" />
<glyph unicode="&#x239;" horiz-adv-x="1767" d="M92 532q0 252 110.5 406t289.5 154q111 0 186.5 -47.5t124.5 -147.5v59v107h166v-107v-59q49 101 123 147q76 47 186 48q176 0 287 -154q113 -156 112 -406q0 -246 -112 -405q-111 -156 -287 -156q-111 0 -186 47q-74 46 -123 148v-485h155h2v-107h-2h-479v107h158v485 q-49 -100 -125 -147.5t-186 -47.5q-176 0 -287 156q-113 159 -113 405zM285 532.5q0 -219.5 65 -333.5q63 -113 195 -113q127 0 190 100q68 106 68 293v105q0 186 -68 293q-63 100 -190 100q-129 0 -194.5 -112.5t-65.5 -332zM969 479q0 -190 65 -293q63 -100 193 -100 q127 0 190 113q66 115 66 334t-65.5 331.5t-190.5 112.5q-129 0 -193 -100q-66 -102 -65 -293v-105z" />
<glyph unicode="&#x23a;" horiz-adv-x="1329" d="M-10 0v106h90l47 62l459 1325h151l142 -408l378 465l72 -71l-414 -504l302 -869h133v-106h-490v106h150l-113 328h-424l-244 -299l-10 -29h148v-106h-248l-47 -57l-58 57h-24zM322 403l24 31h-14zM369 541h65l299 368l-117 342zM561 541h301l-90 258z" />
<glyph unicode="&#x23b;" horiz-adv-x="1409" d="M41 12l197 240q-55 86 -84 170q-49 143 -50 323q0 350 181 562q182 213 477 213q111 0 233 -31q92 -25 197 -68l104 129l72 -71l-104 -129v-303h-103q-12 76 -37 133l-729 -889l25 -43q111 -170 325 -170q150 0 248.5 80t141.5 237h165q-61 -213 -200 -317 q-139 -106 -355 -107q-131 0 -243 49q-111 47 -201 148l-2 4l-186 -229zM309 745q0 -201 45 -352l717 883q-18 25 -45 47q-102 90 -281 90q-215 0 -325 -170q-111 -169 -111 -498z" />
<glyph unicode="&#x23c;" horiz-adv-x="1030" d="M33 -31l151 201q-92 144 -92 362q0 252 127 408q125 152 336 152q92 0 180 -25q53 -12 103 -33l94 123l67 -63l-84 -111v-258h-96q-10 66 -22 102l-459 -610q2 -4 6 -14t8 -17q68 -117 203 -116q108 0 172 61q63 61 86 188h135q-35 -172 -135 -260t-258 -88 q-190 0 -309 123l-144 -188zM285 532q0 -119 18 -206l447 589q-8 8 -13 15q-63 63 -182 63q-133 0 -201 -116q-69 -122 -69 -345z" />
<glyph unicode="&#x23d;" horiz-adv-x="1222" d="M35 629v170h237v587h-170v107h525v-107h-172v-587h239v-170h-239v-506h614v250h111v-373h-1078v106h170v523h-237z" />
<glyph unicode="&#x23e;" horiz-adv-x="1228" d="M-49 12l573 703v659h-395v-233h-111v352h1141l47 57l72 -71l-68 -82v-256h-108v121l-395 -484v-672h172v-106h-527v106h172v451l-504 -614zM707 936l356 438h-356v-438z" />
<glyph unicode="&#x23f;" horiz-adv-x="944" d="M104 59v248h95q3 -120 67 -178q66 -59 189 -59q109 0 168 47t59 135q0 70 -43 113t-180 92l-119 45q-123 43 -180 110q-55 63 -56 168q0 145 97 230q94 82 268 82q72 0 158 -23q92 -25 174 -63v-232h-96q-2 102 -66 162q-59 57 -166 57q-104 0 -157.5 -41t-53.5 -123 q0 -68 41 -108q37 -37 162 -82l131 -45q137 -47 195 -117q61 -74 61 -182q0 -152 -104.5 -238t-286.5 -86q-49 0 -99 6l5 -10l67 -162q35 -88 64 -122q25 -31 98 -31q41 0 63 29q25 31 31 98h84v-203q-31 -10 -88 -22q-39 -8 -100 -9q-131 0 -185 39q-84 61 -127 176 l-71 183q-23 63 -56 96q-29 12 -43 20z" />
<glyph unicode="&#x240;" horiz-adv-x="970" d="M74 0v86l600 870h-475v-184h-95v291h783v-86l-600 -871h43q207 0 305 -229l31 -72q43 -100 63 -122q25 -31 62 -31q43 0 65 29q25 31 31 98h84v-203q-27 -8 -90 -22q-39 -8 -99 -9q-94 0 -147 39q-86 61 -129 176l-37 95q-55 145 -203 145h-192z" />
<glyph unicode="&#x241;" horiz-adv-x="1073" d="M68 1208v219q53 33 116 50q61 16 123 16h264q207 0 322 -113q117 -115 117 -307q0 -195 -119 -307q-121 -115 -320 -115h-43v-545h209v-106h-561v106h170v654h182q135 0 205 80q70 78 70 233.5t-70 233.5q-70 80 -205 79h-221q-78 0 -108 -36q-37 -39 -43 -142h-88z" />
<glyph unicode="&#x242;" horiz-adv-x="854" d="M68 809v217q53 33 116 49q61 16 123 17h45q205 0 320 -113q117 -115 116 -305q0 -195 -116 -309q-80 -78 -201 -103v-156h211v-106h-545v106h170v252q133 0 205 82q70 78 70 234q0 154 -70 231q-70 80 -205 80q-78 0 -108 -37q-37 -39 -43 -139h-88z" />
<glyph unicode="&#x245;" horiz-adv-x="1329" d="M-10 0v106h116l480 1387h151l480 -1387h133v-106h-490v106h150l-394 1145l-397 -1145h148v-106h-377z" />
<glyph unicode="&#x250;" horiz-adv-x="1097" d="M92 956v107h314v-115q55 74 126 109q74 35 168 35q162 0 254 -95q92 -96 93 -254q0 -164 -107 -256q-104 -90 -303 -90h-231v-73q0 -123 65.5 -188.5t185.5 -65.5q96 0 158 51q55 47 72 147h86v-215q-84 -39 -168 -61q-76 -20 -160 -21q-197 0 -301 109 q-104 111 -104 319v557h-148zM406 504h212q121 0 185 59q59 57 59 180q0 113 -61 177q-61 66 -166 65q-100 0 -166 -72q-63 -70 -63 -184v-225z" />
<glyph unicode="&#x251;" horiz-adv-x="1177" d="M92 532q0 252 110.5 406t289.5 154q111 0 186.5 -47.5t124.5 -147.5v166h323v-107h-157v-850h157v-106h-323v166q-49 -100 -125 -147.5t-186 -47.5q-176 0 -287 156q-113 159 -113 405zM285 532.5q0 -219.5 65 -333.5q63 -113 195 -113q127 0 190 100q68 106 68 293v105 q0 186 -68 293q-63 100 -190 100q-129 0 -194.5 -112.5t-65.5 -332z" />
<glyph unicode="&#x252;" horiz-adv-x="1177" d="M92 0v106h158v850h-158v107h324v-166q49 102 125 147q70 47 184 48q178 0 289 -156q113 -152 112 -406q0 -248 -112.5 -403.5t-288.5 -155.5q-109 0 -184 47q-78 49 -125 148v-166h-324zM416 479q0 -190 65 -293q63 -100 192.5 -100t194.5 113q63 109 64 331 q0 221 -63.5 334t-194.5 113q-129 0 -193 -100q-66 -102 -65 -293v-105z" />
<glyph unicode="&#x253;" horiz-adv-x="1177" d="M53 0v106h160v867v231q0 168 88 258q86 94 242 94q61 0 123 -16q72 -23 114 -49v-219h-86q-6 90 -45 139q-37 45 -110 45q-86 0 -121 -59q-39 -57 -39 -193v-237v-70q49 101 123 147q72 47 186 48q176 0 287 -154q113 -156 112 -406q0 -249 -110 -405 q-113 -156 -289 -156q-111 0 -186 47q-76 51 -123 148v-166h-326zM379 479q0 -195 65 -293q63 -100 193 -100q127 0 190 113q68 119 68 334t-68 331q-66 113 -190 113q-129 0 -193 -100q-66 -98 -65 -293v-105z" />
<glyph unicode="&#x254;" horiz-adv-x="1030" d="M92 743q35 172 135.5 260.5t257.5 88.5q211 0 336 -154q127 -156 127 -407.5t-127 -407.5q-127 -152 -336 -152q-92 0 -182 25q-90 23 -180 70v272h96q18 -141 82 -204.5t182 -63.5q135 0 203 114q68 117 68 346.5t-68 346t-203 116.5q-108 0 -172 -61q-63 -61 -86 -189 h-133z" />
<glyph unicode="&#x255;" horiz-adv-x="1030" d="M92 532.5q0 251.5 127 407.5q127 152 336 152q92 0 180 -25q90 -23 180 -70v-272h-96q-18 141 -81.5 204.5t-182.5 63.5q-133 0 -201 -114q-70 -121 -69 -347q0 -164 32 -264q111 131 345 131q119 0 178 -57t57 -172q-2 -199 -342 -199q-135 0 -236 72q-6 -20 -6 -119 v-143h-102l2 143q4 109 23 180l-17 21q-127 156 -127 407.5zM371 164q61 -92 184 -94q242 -4 242 106q0 127 -199 123q-164 -4 -227 -135z" />
<glyph unicode="&#x256;" horiz-adv-x="1191" d="M92 532q0 252 110.5 406t289.5 154q115 0 188 -48q74 -46 123 -147v553h-158v106h324v-1660q0 -129 37 -191q40 -61 122 -61q74 0 111 45q39 49 45 141h86v-219q-55 -33 -115 -49q-51 -16 -125 -17q-152 0 -241 93q-86 95 -86 258v231v39q-47 -96 -123 -148 q-78 -47 -188 -47q-174 0 -289 156q-111 156 -111 405zM285 532.5q0 -219.5 65 -333.5q63 -113 195 -113q127 0 190 100q68 106 68 293v105q0 186 -68 293q-63 100 -190 100q-129 0 -194.5 -112.5t-65.5 -332z" />
<glyph unicode="&#x257;" horiz-adv-x="1257" d="M92 532q0 252 110.5 406t289.5 154q115 0 188 -48q72 -45 121 -147v307q0 168 88 258q86 94 241 94q59 0 125 -16q68 -20 113 -49v-219h-86q-6 94 -45 139q-37 45 -111 45q-82 0 -120 -59q-37 -57 -37 -193v-1098h157v-106h-323v166q-47 -96 -123 -148q-78 -47 -188 -47 q-174 0 -289 156q-111 156 -111 405zM285 532.5q0 -219.5 65 -333.5q63 -113 195 -113q127 0 190 100q68 106 68 293v105q0 186 -68 293q-63 100 -190 100q-129 0 -194.5 -112.5t-65.5 -332z" />
<glyph unicode="&#x258;" horiz-adv-x="1089" d="M92 512q2 281 121 432q117 147 332 148q205 0 329 -154q125 -152 125 -405.5t-129 -407.5q-125 -154 -335 -154q-174 0 -281 88t-145 263h133q27 -123 96 -189q70 -63 180 -63q141 0 215 110q74 106 74 324v8h-715zM287 618h520q-14 180 -82 279q-66 96 -180 96 q-121 0 -186.5 -96.5t-71.5 -278.5z" />
<glyph unicode="&#x259;" horiz-adv-x="1089" d="M92 551h715v8q0 215 -74 326q-74 109 -215 108q-111 0 -180 -63q-70 -66 -96 -189h-133q39 174 145 262.5t281 88.5q211 0 335 -154q129 -154 129 -408t-125 -405q-125 -154 -329 -154q-215 0 -332 150q-119 149 -121 430zM287 444q6 -184 71 -280q63 -94 187 -94 q115 0 180 96q68 98 82 278h-520z" />
<glyph unicode="&#x25a;" horiz-adv-x="1552" d="M109 741q39 174 145 262.5t281 88.5q211 0 335 -154q31 -37 50 -70l245 156h103v-59q0 -131 59 -191q61 -61 135 -61q123 0 135 45l68 -78q-68 -49 -72 -49q-43 -18 -129 -19q-98 0 -186 95q-74 80 -86 213l-229 -148q37 -109 36 -242q0 -254 -125 -405 q-125 -154 -329 -154q-219 0 -332 150q-90 119 -102 229l669 428q-18 61 -47 107q-74 109 -215 108q-111 0 -180 -63q-68 -61 -96 -189h-133zM299 350q0 -98 59 -186q63 -94 187 -94q121 0 180 96q61 96 82 364v29q0 58 -6 111z" />
<glyph unicode="&#x25b;" horiz-adv-x="952" d="M90 268q0 137 94 213q65 55 172 80q-63 16 -120 55q-92 68 -93 195q0 129 88 197q86 66 265 65q55 0 143 -14q84 -16 192 -49v-222h-96q-12 90 -75.5 135.5t-149.5 45.5q-209 0 -209 -168q0 -190 231 -191h84v-104h-84q-137 0 -210 -64q-66 -61 -66 -176q0 -82 45 -129 q80 -82 207 -82q102 0 180 54q74 51 84 155h98v-231q-86 -33 -192 -53q-95 -18 -166 -19q-201 0 -311.5 80t-110.5 227z" />
<glyph unicode="&#x25c;" horiz-adv-x="935" d="M94 33v231h94q0 -104 84 -155q76 -53 181 -54q127 0 206 82q47 51 48 129q0 113 -68 176q-70 63 -211 64h-82v104h82q233 0 234 191q0 168 -211 168q-86 0 -149.5 -45t-76.5 -136h-96v222q100 31 195 49q88 14 141 14q178 0 264 -65q88 -68 88 -197q0 -127 -92 -195 q-57 -39 -121 -55q108 -25 172 -80q90 -76 94 -213q0 -147 -108 -227q-111 -80 -313 -80q-72 0 -164 19q-109 20 -191 53z" />
<glyph unicode="&#x25d;" horiz-adv-x="1423" d="M90 33v231h98q10 -104 84 -155q78 -53 181 -54q127 0 206 82q47 51 48 129q0 113 -68 176q-74 63 -211 64h-82v104h82q233 0 234 191q0 168 -211 168q-86 0 -149.5 -45t-76.5 -136h-96v222q100 31 195 49q88 14 141 14q178 0 264 -65q82 -63 88 -181l217 213h105v-61 q0 -133 57 -191q61 -61 135 -61q98 0 137 45l68 -78q-37 -35 -74 -49q-43 -16 -127 -16q-102 0 -188 92q-74 80 -86 213l-291 -277q-16 -20 -45 -41q-57 -39 -121 -55q108 -25 172 -80q94 -78 94 -213q0 -150 -108 -227q-111 -80 -313 -80q-68 0 -164 19q-111 20 -195 53z " />
<glyph unicode="&#x25e;" horiz-adv-x="1128" d="M92 528q0 307 307 490q53 31 144 55q72 18 137 19q176 0 270 -76q96 -78 97 -219q0 -101 -68 -172q-70 -72 -191 -97q121 -25 191 -96q68 -72 68 -174q0 -141 -95 -217q-96 -78 -272 -78q-25 0 -137 21q-51 6 -144 55q-307 149 -307 489zM248 524q0 -258 215 -397 q14 -14 100 -45q35 -12 90 -12q98 0 149.5 51t51.5 147q0 106 -63.5 157.5t-188.5 51.5h-33v101h33q123 0 189 53q63 51 63 157q0 96 -51 147.5t-150 51.5q-10 0 -90 -18q-39 -10 -100 -45q-215 -124 -215 -400z" />
<glyph unicode="&#x25f;" horiz-adv-x="579" d="M-176 -170h84q6 -96 45 -141t113 -45q82 0 120 61q39 59 39 191v569h-157v104h157v387h-157v107h323v-494h156v-104h-156v-569q0 -168 -88 -258q-90 -92 -242 -93q-63 0 -124 17q-57 14 -113 49v219z" />
<glyph unicode="&#x260;" horiz-adv-x="1257" d="M92 532q0 221 111 375q113 156 289 156h311v141q0 166 86 258q88 94 241 94q63 0 125 -16q72 -23 115 -49v-219h-86q-6 90 -45 139q-37 45 -111 45q-84 0 -122 -59q-37 -61 -37 -193v-12v-1169q0 -227 -115 -353q-113 -125 -324 -125q-94 0 -180 19q-78 16 -166 57v223 h86q14 -100 78 -151q61 -49 172 -49q145 0 213 92q70 94 70 287v143q-49 -100 -125 -147.5t-186 -47.5q-176 0 -287 156q-113 159 -113 405zM285 532q0 -219 65 -333q63 -113 195 -113q127 0 190 100q68 106 68 293v105v372h-258q-129 0 -194.5 -112.5t-65.5 -311.5z" />
<glyph unicode="&#x261;" horiz-adv-x="1177" d="M92 532q0 221 111 375q113 156 289 156h634v-107h-157v-933q0 -225 -115 -353q-113 -125 -324 -125q-94 0 -180 19q-78 16 -166 57v223h86q14 -100 78 -151q61 -49 172 -49q145 0 213 92q70 94 70 287v143q-49 -100 -125 -147.5t-186 -47.5q-176 0 -287 156 q-113 159 -113 405zM285 532q0 -219 65 -333q63 -113 195 -113q127 0 190 100q68 106 68 293v105v372h-258q-129 0 -194.5 -112.5t-65.5 -311.5z" />
<glyph unicode="&#x262;" horiz-adv-x="1001" d="M92 522q0 258 127 410q129 152 346 151q72 0 168 -22q86 -23 182 -64v-272h-96q-25 158 -82 205q-72 63 -182 63q-115 0 -199 -121q-80 -119 -80 -360q0 -240 84 -358q70 -100 285 -101q55 0 119 31q45 18 59 31l-2 284h-178v78h305v-401q-86 -57 -180 -84 q-102 -29 -207 -29q-213 0 -342 154q-127 151 -127 405zM555 -33zM565 57z" />
<glyph unicode="&#x263;" horiz-adv-x="1310" d="M86 961v106h530v-106h-157l221 -324l197 319h-172v107h440v-107h-152l-258 -413q135 -207 211 -375q86 -193 86 -326q0 -154 -102 -225q-104 -74 -312 -74q-188 0 -262 105q-47 66 -47 172q0 115 88 327q63 150 156 318l-324 496h-143zM414 -209q0 -57 28 -88 q47 -53 172 -53q115 0 166 47q35 35 35 90q0 152 -57 305q-55 141 -146 277q-84 -158 -125 -265q-73 -190 -73 -313z" />
<glyph unicode="&#x264;" horiz-adv-x="1038" d="M129 911v109q82 70 180 70q100 0 234 -207q132 203 313 202h2q45 0 72 -57v-74h-96v19q0 47 -41 47h-2q-61 0 -193 -223q86 -156 139 -279q86 -203 86 -323q0 -78 -37 -121q-94 -106 -301 -107q-131 0 -231 107q-43 45 -43 127q0 104 70 258q57 123 159 284 q-139 274 -182 275q-37 0 -37 -88v-19h-92zM328 184q0 -59 45 -86q41 -25 114 -24q80 0 134 65q35 45 34 80q0 66 -51 195q-41 106 -110 243q-76 -119 -121 -239.5t-45 -233.5z" />
<glyph unicode="&#x265;" horiz-adv-x="1185" d="M49 956v107h316v-619q0 -193 45 -266q43 -72 151 -72q113 0 174.5 94.5t61.5 272.5v483h-146v107h312v-1382h155v-107h-321l-158 2v105h158v507q-45 -106 -119 -161.5t-170 -55.5q-160 0 -234 101q-76 104 -75 315v569h-150z" />
<glyph unicode="&#x266;" horiz-adv-x="1185" d="M76 0v106h149v867v231q0 168 88 258q86 94 242 94q59 0 125 -16q68 -20 113 -49v-219h-86q-6 94 -45 139q-37 45 -111 45q-82 0 -121 -59q-39 -61 -39 -193v-330q45 104 119 162q74 55 170 56q160 0 233 -101q74 -102 74 -315v-570h150v-106h-457v106h141v512 q0 197 -43 267q-43 72 -151 71q-113 0 -176 -94q-59 -88 -60 -270v-486h144v-106h-459z" />
<glyph unicode="&#x267;" horiz-adv-x="1185" d="M76 0v106h149v867v231q0 168 88 258q86 94 242 94q59 0 125 -16q68 -20 113 -49v-219h-86q-6 94 -45 139q-37 45 -111 45q-82 0 -121 -59q-39 -61 -39 -193v-237v-93q45 104 119 162q74 55 170 56q160 0 233 -101q74 -102 74 -315v-549v-231q0 -164 -88 -258 q-86 -92 -240 -93q-74 0 -124 17q-59 16 -115 49v219h86q6 -96 45 -141q37 -45 111 -45q80 0 120 61q39 59 39 191v231v491q0 197 -43 267q-43 72 -151 71q-113 0 -176 -94q-59 -88 -60 -270v-486h144v-106h-459z" />
<glyph unicode="&#x268;" horiz-adv-x="587" d="M178 1393q0 46 31 80q31 35 74 34q39 0 69 -34q31 -34 31 -80q0 -49 -29 -80q-31 -33 -73 -33q-41 0 -72 33q-31 34 -31 80zM68 0v106h157v359h-157v104h157v387h-157v107h323v-494h156v-104h-156v-359h156v-106h-479z" />
<glyph unicode="&#x269;" horiz-adv-x="720" d="M68 956v107h323v-713q0 -129 37 -190q40 -61 123 -62v-98q-156 0 -244 94q-84 90 -84 256l2 606h-157z" />
<glyph unicode="&#x26a;" horiz-adv-x="587" d="M68 0v106h157v850h-157v107h479v-102h-156v-855h156v-106h-479z" />
<glyph unicode="&#x26b;" horiz-adv-x="700" d="M66 600q4 141 47 211q45 72 129 72q14 0 34 -4v571h-159v106h325v-813q4 -4 13 -8q14 -8 32 -8q39 0 62 41q20 39 24 115h86q-4 -139 -47 -209q-46 -74 -129 -74q-20 0 -41 6v-500h156v-106h-481v106h159v637q-2 2 -3 2q-3 0 -3 3q-14 8 -32 8q-39 0 -60 -39 q-20 -37 -26 -117h-86z" />
<glyph unicode="&#x26c;" horiz-adv-x="835" d="M68 664q0 231 211 231q74 0 131 -57v612h-160v106h325v-993h220v-98h-220v-359h156v-106h-481v106h160v363q-342 0 -342 195zM262 672q0 -106 137 -109q-18 223 -84 223q-53 1 -53 -114z" />
<glyph unicode="&#x26d;" horiz-adv-x="667" d="M53 1450v106h326v-1660q0 -129 37 -191q39 -61 121 -61q74 0 112 45q39 49 45 141h84v-219q-57 -35 -114 -49q-51 -16 -123 -17q-152 0 -242 93q-86 95 -86 258v1554h-160z" />
<glyph unicode="&#x26e;" horiz-adv-x="1296" d="M53 0v106h160v1344h-160v106h326v-493h778v-86l-332 -483l72 -7q162 -27 256 -149q92 -121 92 -313q0 -231 -127 -359q-129 -125 -364 -125q-100 0 -205 29q-102 29 -201 86v324h103q10 -164 86 -244q80 -84 221 -84q139 0 219 100q78 96 78 271q0 199 -82 299 q-84 102 -240 102h-86v100l297 432h-475v-184h-90v-666h156v-106h-482z" />
<glyph unicode="&#x26f;" horiz-adv-x="1746" d="M68 985v107h315v-656q0 -164 43 -231q45 -70 141 -70q109 0 168.5 94.5t59.5 270.5v485h-144v107h310v-662q0 -158 43 -225q45 -70 143 -70q111 0 170 94q55 88 55 271v485h-143v107h309v-959h160v-104h-326v188q-47 -109 -115 -162q-70 -55 -161 -55q-113 0 -187 61 q-76 63 -100 175q-51 -121 -121 -177q-72 -59 -174 -59q-150 0 -223 104q-76 106 -76 312v569h-147z" />
<glyph unicode="&#x270;" horiz-adv-x="1746" d="M68 985v107h315v-656q0 -164 43 -231q45 -70 141 -70q109 0 168.5 94.5t59.5 270.5v485h-144v107h310v-662q0 -158 43 -225q45 -70 143 -70q111 0 170 94q55 88 55 271v485h-143v107h309v-1411h160v-107h-481v107h155v536q-47 -109 -115 -162q-70 -55 -161 -55 q-113 0 -187 61q-76 63 -100 175q-51 -121 -121 -177q-72 -59 -174 -59q-150 0 -223 104q-76 106 -76 312v569h-147z" />
<glyph unicode="&#x271;" horiz-adv-x="1746" d="M68 958v105h323v-189q45 106 117 162q70 55 162 56q111 0 184 -62q76 -63 100 -174q51 121 121 176q72 59 174 60q152 0 225.5 -104.5t73.5 -311.5v-780q0 -163 -86 -258q-90 -92 -241 -93q-74 0 -125 17q-59 16 -115 49v219h86q6 -95 43 -141q37 -45 113 -45 q83 0 123 61q37 61 36 191v759q0 164 -43 232q-45 70 -143 69q-109 0 -168 -94t-59 -270v-486h143v-106h-453v106h146v556q0 156 -45 227q-43 68 -144 67q-109 0 -167 -94q-57 -90 -58 -270v-486h144v-106h-459v106h149v852h-157z" />
<glyph unicode="&#x272;" horiz-adv-x="1185" d="M-176 -170h84q6 -96 45 -141q37 -45 113 -45q82 0 118 61q39 59 39 191v1060h-157v107h323v-189q45 104 121 162q74 55 170 56q160 0 233 -101q74 -102 74 -315v-570h148v-106h-457v106h143v512q0 195 -43 269q-43 72 -151 71q-115 0 -176 -94q-61 -92 -62 -272 q0 -117 1 -349.5t1 -346.5q0 -162 -90 -258q-86 -92 -240 -93q-74 0 -124 17q-57 14 -113 49v219z" />
<glyph unicode="&#x273;" horiz-adv-x="1277" d="M68 956v107h323v-189q45 104 119 162q74 55 170 56q158 0 233 -101q74 -98 74 -315v-780q0 -125 39 -191q40 -61 123 -61q72 0 111 45q39 49 45 141h86v-219q-55 -34 -117 -49q-51 -16 -123 -17q-152 0 -242 93q-88 98 -88 258v722q0 195 -43 269q-43 72 -151 71 q-115 0 -176 -94q-59 -90 -60 -272v-486h144v-106h-459v106h149v850h-157z" />
<glyph unicode="&#x274;" horiz-adv-x="1189" d="M76 0v106h125l2 850h-127v107h346l422 -774v667h-180v107h473v-107h-129v-985h-162l-477 828l-2 -693h182v-106h-473z" />
<glyph unicode="&#x275;" horiz-adv-x="1107" d="M92 532q0 254 125 406q127 154 338 154t336 -154q127 -156 127 -406q0 -252 -127 -407q-125 -154 -336 -154t-336 154q-127 155 -127 407zM287 569h536q-6 200 -67 308q-68 117 -201 116q-135 0 -203 -116q-59 -105 -65 -308zM287 465q10 -180 67 -279 q68 -117 201 -116.5t201 116.5q55 94 65 279h-534z" />
<glyph unicode="&#x276;" horiz-adv-x="1454" d="M92 534.5q0 249.5 137.5 389t386.5 139.5h777v-238h-88l2 131h-433v-327h308v123h84v-353h-84v123h-308v-416h443v130h86v-236h-787q-248 0 -385 141q-139 144 -139 393.5zM287 524q0 -205 94 -313q92 -111 262 -113l25 -2l39 10v850l-41 -10l-23 2q-164 6 -262 -110 q-94 -109 -94 -314z" />
<glyph unicode="&#x277;" horiz-adv-x="1191" d="M92 399q0 88 17 160q20 106 49 168q162 358 440 358q283 0 444 -358q31 -70 52 -168q16 -72 16 -160q0 -207 -70 -315q-70 -113 -196 -113q-92 0 -156 78q-66 82 -90 223q-23 -147 -84 -223q-63 -78 -158 -78q-125 0 -194 113q-70 114 -70 315zM283 430q0 -365 79 -364 q55 0 111 196q31 108 31 227v39h194v-39q0 -127 29 -227q55 -197 113 -196q80 0 80 364q0 166 -52 342q-84 199 -270 201q-178 2 -264 -201q-51 -176 -51 -342z" />
<glyph unicode="&#x278;" horiz-adv-x="1107" d="M92 532q0 254 125 406q100 123 256 147v365h-158v106h482v-104h-158v-367q147 -25 252 -147q127 -156 127 -406q0 -252 -127 -407q-104 -123 -252 -148v-296h158v-107h-482v107h158v296q-152 25 -254 148q-127 155 -127 407zM285 532q0 -225 69 -346q47 -78 119 -102v897 q-72 -25 -121 -104q-67 -118 -67 -345zM639 84q72 29 117 102q68 117 67 346q0 227 -67 345q-45 74 -117 102v-895z" />
<glyph unicode="&#x279;" horiz-adv-x="921" d="M68 -2v266h94q4 -80 39 -119q37 -39 102 -39q125 0 189 95q66 96 65 270v485h-192v107h507v-107h-149v-852h158v-104h-324v188q-49 -109 -125 -163q-78 -53 -186 -54q-40 0 -86 6q-24 5 -92 21z" />
<glyph unicode="&#x27a;" horiz-adv-x="921" d="M68 -2v266h94q4 -80 39 -119q37 -39 102 -39q121 0 189 95q66 94 65 270v979h-192v104h507v-104h-149v-1346h158v-104h-324v188q-49 -109 -125 -163q-78 -53 -186 -54q-40 0 -86 6q-24 5 -92 21z" />
<glyph unicode="&#x27b;" horiz-adv-x="1015" d="M68 -2v266h94q4 -80 39 -119q37 -39 102 -39q125 0 189 95q66 96 65 270v485h-192v107h507v-107h-147v-829v-231q0 -131 39 -191q40 -61 123 -61q74 0 110 45q39 49 45 141h84v-219q-55 -33 -114 -49q-51 -16 -123 -17q-156 0 -242 92.5t-88 258.5l-2 104v188 q-49 -109 -125 -163q-78 -53 -186 -54q-40 0 -86 6q-24 5 -92 21z" />
<glyph unicode="&#x27c;" horiz-adv-x="880" d="M68 958v105h323v-189q51 113 125 164q74 53 186 54q39 0 84 -7q27 -4 95 -20v-266h-95q-6 78 -41 119q-33 39 -102 38q-125 0 -188.5 -94t-63.5 -270v-909h191v-107h-506v107h149v1275h-157z" />
<glyph unicode="&#x27d;" horiz-adv-x="880" d="M68 958v105h323v-189q51 113 125 164q74 53 186 54q39 0 84 -7q27 -4 95 -20v-266h-95q-6 78 -41 119q-33 39 -102 38q-125 0 -188.5 -94t-63.5 -270q0 -465 -2 -696q0 -129 37 -191q40 -61 123 -61q74 0 113 45q37 46 43 141h86v-219q-55 -33 -115 -49q-51 -16 -123 -17 q-156 0 -244 93q-88 94 -88 258v104v958h-153z" />
<glyph unicode="&#x27e;" horiz-adv-x="833" d="M76 0v106h147v523v104q0 160 88 258q90 94 244 94q65 0 123 -18q66 -16 115 -47v-219h-86q-6 90 -45 139q-37 45 -111 45q-83 0 -123 -61q-37 -61 -37 -191v-104v-523h191v-106h-506z" />
<glyph unicode="&#x27f;" horiz-adv-x="833" d="M76 801v219q51 31 114 47q58 18 123 18q152 0 242 -94q88 -94 88 -258v-104v-523h150v-106h-508v106h192v523v104q0 125 -39 191q-41 61 -121 61q-74 0 -112 -45q-37 -47 -43 -139h-86z" />
<glyph unicode="&#x280;" horiz-adv-x="1093" d="M63 0l3 102h149l-2 859h-150v102h545q141 0 217 -74t76 -211q0 -98 -55 -164q-53 -61 -166 -77q41 -14 78 -48q29 -29 57 -98l127 -289h131l-2 -102h-258l-147 338q-43 100 -80 127q-39 29 -99 29h-108v-392h119l-2 -102h-433zM379 598h156q100 0 143 49q45 51 45 131 q0 84 -45 131q-45 51 -143 52h-156v-363z" />
<glyph unicode="&#x281;" horiz-adv-x="1093" d="M63 0v102h150l2 859h-149l-3 102h433l2 -102h-119v-392h108q59 0 99 29q37 27 80 127l147 338h258l2 -102h-131l-127 -289q-29 -70 -57 -99q-37 -33 -78 -47q113 -16 166 -77q55 -63 55 -164q0 -137 -75.5 -211t-217.5 -74h-545zM379 102h156q98 0 143 52q45 47 45 131 q0 80 -45 131t-143 51h-156v-365z" />
<glyph unicode="&#x282;" horiz-adv-x="944" d="M102 -104v231h2v180h95q3 -120 67 -178v-2h2q68 -57 187 -57q109 0 168 47t59 135q0 70 -43 113t-180 92l-119 45q-123 43 -180 110q-55 63 -56 168q0 145 97 230q94 82 268 82q72 0 158 -23q92 -25 174 -63v-232h-96q-2 102 -66 162q-59 57 -166 57q-104 0 -157.5 -41 t-53.5 -123q0 -68 41 -108q37 -37 162 -82l131 -45q137 -47 195 -117q61 -74 61 -182q0 -152 -104.5 -238t-286.5 -86q-86 0 -180 23l-13 2v-100q0 -131 39 -191q37 -61 121 -61q76 0 113 45q39 45 45 141h84v-219q-55 -33 -115 -49q-51 -16 -123 -17q-156 0 -242 93 q-88 94 -88 258z" />
<glyph unicode="&#x283;" horiz-adv-x="499" d="M-176 -170h84q6 -96 45 -141q37 -45 113 -45q78 0 118 61q55 78 39 191q-84 580 -180 1312q-18 143 88 256q90 94 242 95q59 0 125 -17q57 -14 112 -49v-219h-84q-6 94 -45 139q-37 47 -112 47q-82 0 -121 -61q-53 -80 -37 -191q88 -709 180 -1312q20 -137 -90 -258 q-86 -92 -240 -93q-74 0 -124 17q-57 14 -113 49v219z" />
<glyph unicode="&#x284;" horiz-adv-x="681" d="M-176 -170h84q6 -96 45 -141t113 -45q82 0 120 61q39 59 39 191v569h-157v104h157v387h-157v107h157v133q0 174 84 268q84 92 244 92q59 0 121 -12q59 -12 119 -37v-202h-86q0 72 -39 114q-37 39 -109 39q-94 0 -131 -55q-37 -58 -37 -203v-137v-107v-387h156v-104h-156 v-569q0 -168 -88 -258q-90 -92 -242 -93q-63 0 -124 17q-57 14 -113 49v219z" />
<glyph unicode="&#x285;" horiz-adv-x="894" d="M68 801v219q45 29 112 49q61 16 125 16q156 0 242 -94q117 -123 88 -256l-180 -839q-16 -115 37 -191q41 -61 120 -61q76 0 113 45q39 45 45 141h84v-219q-55 -35 -113 -49q-55 -16 -125 -17q-154 0 -241 93q-117 125 -88 258l182 839q14 104 -41 191q-37 61 -119 61 q-76 0 -112 -45q-39 -45 -45 -141h-84z" />
<glyph unicode="&#x286;" horiz-adv-x="595" d="M-176 -256q-2 115 115.5 172t361.5 57h10q-175 1220 -172 1235q-18 141 90 256q88 94 240 95q63 0 125 -17q59 -16 115 -49v-219h-86q-6 96 -43 139q-41 47 -113 47q-84 0 -121 -61q-53 -84 -39 -191q117 -883 176 -1288q113 -86 115 -305v-66h-90v66q0 92 -29 156 q-23 -76 -78 -133q-92 -92 -237 -93q-338 0 -340 199zM18 -250q0 -106 144 -106q80 0 123 61q45 70 39 168h-25q-281 0 -281 -123z" />
<glyph unicode="&#x287;" horiz-adv-x="739" d="M53 813q6 141 72 211q63 68 194 68q143 0 201 -70q59 -72 60 -240v-676h145v-106h-145v-330h-166v330h-312v106h312v676q0 139 -23 172q-27 39 -88 39q-65 0 -92 -43q-29 -41 -33 -137h-125z" />
<glyph unicode="&#x288;" horiz-adv-x="739" d="M53 956v107h146v330h166v-330h313v-107h-313v-1073q0 -135 24 -172q27 -39 86 -39q63 0 94 43q29 43 31 138h125q-6 -145 -70 -211q-66 -68 -194 -68q-141 0 -203 70q-59 72 -59 239v1073h-146z" />
<glyph unicode="&#x289;" horiz-adv-x="1185" d="M49 465v104h150v387h-150v107h316v-494h432v387h-146v107h312v-494h155v-104h-155v-359h155v-106h-321v188q-45 -106 -119 -161.5t-170 -55.5q-160 0 -234 101q-76 104 -75 315v78h-150zM365 444q0 -193 45 -266q43 -72 151 -72q113 0 174 95q61 96 62 264h-432v-21z" />
<glyph unicode="&#x28a;" horiz-adv-x="1142" d="M92 510q0 158 80 287q78 127 219 192h-299v107h402v-164q-106 -45 -162 -149.5t-56 -256.5q0 -186 80 -297q84 -113 215 -112.5t213 112.5q82 109 82 297q0 152 -55 256q-57 106 -160 150v164h322v-107h-221q141 -66 219 -192q80 -129 80 -287q0 -115 -39 -207 q-35 -92 -111 -172q-68 -70 -149 -102q-82 -35 -181 -35q-94 0 -180 35q-84 35 -149 102q-78 78 -113 172q-37 98 -37 207z" />
<glyph unicode="&#x28b;" horiz-adv-x="1118" d="M68 956v107h323v-713q0 -129 37 -190q40 -61 123 -62q111 -2 213 131q82 106 82 297q0 152 -55 256q-57 104 -162 150v57h100q141 -66 219 -192q82 -133 82 -287q0 -106 -39 -207q-40 -98 -110 -172q-66 -68 -150 -102q-82 -35 -180 -35q-150 6 -244 100q-84 84 -84 256 l2 606h-157z" />
<glyph unicode="&#x28c;" horiz-adv-x="1040" d="M-4 0v106h106l353 957h120l353 -957h108v-106h-440v106h154l-271 732l-268 -732h143v-106h-358z" />
<glyph unicode="&#x28d;" horiz-adv-x="1576" d="M31 0v106h104l285 957h137l238 -795l235 795h133l283 -957h106v-106h-432v106h156l-215 723l-248 -829h-115l-243 829l-217 -723h139v-106h-346z" />
<glyph unicode="&#x28e;" horiz-adv-x="1040" d="M-4 0v106h106l439 1197q47 129 98 170q53 45 156 45q47 0 88 -9q57 -12 88 -22v-203h-84q-6 66 -33 98q-25 29 -78 29q-51 0 -80 -31q-29 -29 -63 -123l-64 -176l359 -975h108v-106h-440v106h154l-271 732l-268 -732h143v-106h-358z" />
<glyph unicode="&#x28f;" horiz-adv-x="1206" d="M76 952v111l495 2v-111l-168 -2l246 -440l246 440h-178v111l426 2v-111l-166 -2l-295 -526v-322l166 2v-106l-465 -2v104l166 2v308l-301 540h-172z" />
<glyph unicode="&#x290;" horiz-adv-x="1099" d="M74 0v86l600 870h-475v-184h-95v291h783v-86l-600 -871h616v-210q0 -132 37 -191q40 -61 123 -61q74 0 111 45q41 47 47 141h84v-219q-55 -33 -115 -49q-51 -16 -123 -17q-154 0 -244 93q-86 92 -86 258v104h-663z" />
<glyph unicode="&#x291;" horiz-adv-x="1030" d="M74 0v86l600 870h-475v-184h-95v291h783v-86l-600 -871l205 -2q4 326 274 326q141 0 141 -229q0 -201 -297 -201v-190h-118v190h-418zM612 109q197 0 197 98q0 121 -57 121q-140 0 -140 -219z" />
<glyph unicode="&#x292;" horiz-adv-x="1038" d="M92 -20h101q8 -158 88 -244q78 -84 219 -84q139 0 219 100q78 96 78 271q0 199 -80 299q-84 102 -242 102h-86v100l297 432h-473v-184h-96v291h782v-86l-332 -483l72 -7q164 -27 258 -149q90 -117 90 -313q0 -231 -127 -359q-129 -125 -362 -125q-100 0 -205 29 q-102 29 -201 86v324z" />
<glyph unicode="&#x293;" horiz-adv-x="1030" d="M117 772v291h782v-86l-332 -483l72 -7q164 -27 258 -149q90 -117 90 -313q0 -231 -127 -359q-8 -8 -33 -28q12 -59 13 -95h-103l-8 54q-143 -55 -231 -56q-338 0 -342 201q-6 231 233 229q272 -2 369 -157q39 84 39 209q0 199 -80 299q-84 102 -242 102h-86v100l297 432 h-473v-184h-96zM352 -252q0 -96 148 -96q123 0 190 80q-68 139 -237 139q-101 0 -101 -123z" />
<glyph unicode="&#x294;" horiz-adv-x="987" d="M211 0v106h158v725h104q80 0 121 64q39 66 39 254q0 184 -39 250q-41 61 -121 61q-72 0 -113 -47q-37 -39 -43 -139h-88v219q53 33 117 49q61 16 123 17q152 0 242 -95q88 -90 88 -315q0 -229 -88 -324q-72 -74 -176 -84v-635h155v-106h-155h-166h-158z" />
<glyph unicode="&#x295;" horiz-adv-x="987" d="M211 1149q0 225 88 315q88 94 242 95q61 0 123 -17q59 -16 114 -49v-219h-86q-6 98 -45 139q-37 47 -110 47q-84 0 -121 -61q-39 -59 -39 -250q0 -195 39 -254q39 -63 121 -64h104v-725h158v-106h-158h-166h-156v106h156v635q-104 10 -176 84q-88 95 -88 324z" />
<glyph unicode="&#x296;" horiz-adv-x="987" d="M211 1452v107h158h166h155v-107h-155v-635q102 -10 176 -86q88 -94 88 -321q0 -225 -88 -316q-88 -94 -242 -94q-61 0 -123 16q-72 20 -117 50v219h88q6 -98 43 -142q39 -45 113 -45q80 0 121 62q39 66 39 250q0 190 -39 256q-39 59 -121 59h-104v727h-158z" />
<glyph unicode="&#x297;" horiz-adv-x="944" d="M102 -104v229v1079q0 164 88 258q86 92 242 92q72 0 123 -16q59 -16 115 -49v-219h-84q-6 96 -45 141q-37 45 -113 45q-84 0 -121 -61q-39 -57 -39 -191v-1077v-231q0 -131 39 -191q37 -61 121 -61q76 0 113 45q39 45 45 141h84v-219q-55 -33 -115 -49q-51 -16 -123 -17 q-156 0 -242 93q-88 94 -88 258z" />
<glyph unicode="&#x298;" horiz-adv-x="1509" d="M104 745.5q0 182.5 50 323.5q51 150 147 254q89 98 202.5 147.5t252.5 49.5q291 0 473 -213q180 -211 180 -562q0 -180 -49 -323q-47 -141 -152 -254q-90 -100 -200 -148q-114 -49 -252.5 -49t-252 49.5t-202.5 147.5q-96 104 -147 254q-50 141 -50 323.5zM309 745.5 q0 -331.5 113 -499.5t334 -168t333.5 168t112.5 499.5t-112.5 499.5t-333.5 168t-334 -168t-113 -499.5zM653 745.5q0 46.5 31 79.5q27 33 72 33q41 0 71 -33q29 -35 29 -80q0 -49 -29 -79q-31 -33 -71 -33q-45 0 -72 33q-31 33 -31 79.5z" />
<glyph unicode="&#x299;" horiz-adv-x="1036" d="M66 0v106h149v850h-149v107h530q313 0 313 -262q0 -96 -55 -152q-57 -57 -160 -69q266 -33 267 -273q0 -158 -97 -231q-98 -76 -301 -76h-497zM383 106h182q102 0 162 56q57 55 57 147q0 90 -57 146q-59 55 -162 55h-182v-404zM383 641h152q92 0 147 45q51 43 51 113 q0 66 -53 112q-51 45 -145 45h-152v-315z" />
<glyph unicode="&#x29a;" horiz-adv-x="1128" d="M92 258q0 102 67.5 174t188.5 96q-121 25 -188.5 96.5t-67.5 174.5q0 141 94.5 217t274.5 76q35 0 137 -19q45 -6 141 -55q307 -150 308 -490q0 -307 -308 -489q-55 -33 -141 -55q-78 -20 -137 -21q-174 0 -275 78q-94 76 -94 217zM285 268q0 -96 51 -147t149 -51 q10 0 90 18q39 10 101 45q217 125 217 399q0 258 -217 398q-14 14 -101 45q-35 12 -90 12q-98 0 -149 -51t-51 -148q0 -109 61 -157q66 -53 191 -53h32v-99h-32q-125 0 -191 -53q-61 -49 -61 -158z" />
<glyph unicode="&#x29b;" horiz-adv-x="1204" d="M92 522q0 258 127 410q129 152 346 151q78 0 168 -22l17 -4v147q0 166 86 258q86 94 241 94q63 0 125 -16q72 -23 115 -49v-219h-86q-6 90 -45 139q-37 45 -111 45q-84 0 -123 -59q-39 -57 -39 -193v-207h2v-272h-96q-25 158 -82 205q-72 63 -182 63q-115 0 -199 -121 q-80 -119 -80 -360q0 -233 84 -358q70 -100 285 -101q55 0 119 31q45 18 59 31l-2 284h-178v78h305v-401q-86 -57 -180 -84q-102 -29 -207 -29q-213 0 -342 154q-127 151 -127 405z" />
<glyph unicode="&#x29c;" horiz-adv-x="1226" d="M63 0v106h150v850h-150v107h463v-107h-147v-317h436v317h-147v107h462v-107h-149v-850h149v-106h-462v106h147v410h-436v-410h147v-106h-463z" />
<glyph unicode="&#x29d;" horiz-adv-x="673" d="M287 1393q0 46 31 80q31 35 74 34q39 0 69 -34q31 -34 31 -80q0 -49 -29 -80q-31 -33 -73 -33q-41 0 -72 33q-31 34 -31 80zM-176 -256q0 229 233 229q172 0 271 -59v1042h-158v107h324v-1167q0 -113 -31 -187q39 -104 45 -164h-102l-17 76q-88 -76 -225 -76 q-340 0 -340 199zM18 -250q0 -94 150 -94q114 0 147 129q-49 88 -196 88q-101 0 -101 -123z" />
<glyph unicode="&#x29e;" horiz-adv-x="1114" d="M53 956v107h471v-107h-137l287 -436l131 135v408h315v-107h-149l2 -1278h157v-106h-483v106h160l-2 842l-404 -414h138v-106h-433v106h164l285 293l-365 557h-137z" />
<glyph unicode="&#x29f;" horiz-adv-x="1189" d="M76 0v106h172v850h-172v107h524v-107h-172v-833h416v250h110v-373h-878z" />
</font>
</defs>
</svg>
