<?xml version="1.0" standalone="no"?>
<!DOCTYPE svg PUBLIC "-//W3C//DTD SVG 1.1//EN" "http://www.w3.org/Graphics/SVG/1.1/DTD/svg11.dtd" >
<svg xmlns="http://www.w3.org/2000/svg">
<metadata>
This is a custom SVG webfont generated by Font Squirrel.
Copyright   : Copyright c 2003 by Bitstream Inc All Rights ReservedDejaVu changes are in public domain
Foundry     : DejaVu fonts team
Foundry URL : httpdejavusourceforgenet
</metadata>
<defs>
<font id="webfonthpAUIN7S" horiz-adv-x="1542" >
<font-face units-per-em="2048" ascent="1556" descent="-492" />
<missing-glyph horiz-adv-x="583" />
<glyph unicode="&#xfb00;" horiz-adv-x="1304" d="M-115 -426l11 98q95 0 141 56q49 61 74 206l178 1022h-160l21 107h157l25 133q31 178 131 268q98 92 260 92q59 0 117 -12q59 -12 114 -37l-36 -202h-87q2 14 3 41q0 47 -21 73q-31 39 -102 39q-92 0 -140 -57q-49 -59 -73 -201l-25 -137h451l22 133q31 178 131 268 q98 92 260 92q59 0 119 -12q57 -12 113 -37l-35 -202h-88q4 29 4 41q0 45 -23 73q-31 39 -100 39q-90 0 -141 -57q-49 -55 -74 -201l-22 -137h266l-19 -107h-268l-176 -1022q-31 -176 -131 -270q-96 -90 -260 -90l10 98q94 0 139 56q49 61 74 206l178 1022h-448l-179 -1022 q-31 -176 -131 -270q-96 -90 -260 -90z" />
<glyph unicode="&#xfb01;" horiz-adv-x="1228" d="M-115 -426l11 98q95 0 141 56q49 61 74 206l178 1022h-160l21 107h157l19 96q33 197 155 297q121 100 330 100q66 0 158 -14q84 -12 155 -39l-39 -217h-84q2 12 3 35q0 59 -37 94q-49 43 -158 43q-137 0 -215 -72q-74 -68 -102 -223l-19 -100h639l-166 -957h156l-19 -106 h-321l168 956h-475l-179 -1022q-31 -176 -131 -270q-96 -90 -260 -90z" />
<glyph unicode="&#xfb02;" horiz-adv-x="1228" d="M-115 -426l11 98q95 0 141 56q49 61 74 206l178 1022h-160l21 107h157l19 96q35 201 159.5 299t343.5 98h357l-254 -1450h158l-19 -106h-321l251 1450h-192q-147 0 -219 -66q-71 -65 -98 -221l-19 -100h266l-18 -107h-266l-179 -1022q-31 -176 -131 -270 q-96 -90 -260 -90z" />
<glyph unicode="&#xfb03;" horiz-adv-x="1734" d="M-115 -426l11 98q95 0 141 56q49 61 74 206l178 1022h-160l21 107h157l25 133q31 178 131 268q98 92 260 92q59 0 117 -12q59 -12 114 -37l-36 -202h-87q2 14 3 41q0 47 -21 73q-31 39 -102 39q-92 0 -140 -57q-49 -59 -73 -201l-25 -137h440l19 96q33 197 155 297 q121 100 330 100q66 0 158 -14q84 -12 156 -39l-39 -217h-84q2 12 2 35q0 59 -37 94q-45 43 -160 43q-135 0 -213 -71.5t-104 -223.5l-17 -100h639l-166 -957h156l-18 -106h-324l168 956h-473l-180 -1022q-31 -178 -129 -270q-96 -90 -263 -90l13 98q92 0 139 56 q51 66 76 206l178 1022h-440l-179 -1022q-31 -176 -131 -270q-96 -90 -260 -90z" />
<glyph unicode="&#xfb04;" horiz-adv-x="1816" d="M-115 -426q164 0 260 90q100 94 131 270l179 1022h463l-179 -1022q-25 -145 -73 -206q-46 -55 -142 -56l-10 -98q164 0 260 90q98 92 129 270l180 1022h265l18 107h-264l18 100q28 157 99 221q72 66 217 66h194l-254 -1450h324l18 106h-157l254 1450h-359 q-218 0 -344 -98q-125 -98 -160 -299l-16 -96h-463l25 137q25 141 73 201q47 57 140 57q72 0 102 -39q20 -27 21 -73q0 -27 -3 -41h87l36 202q-55 25 -114 37q-57 12 -117 12q-162 0 -260 -92q-100 -90 -131 -268l-25 -133h-157l-21 -107h160l-178 -1022q-25 -145 -74 -206 q-46 -55 -141 -56z" />
<glyph unicode="&#x192;&#x192;" horiz-adv-x="1304" d="M-346 -377l35 203h88q-4 -29 -4 -41q0 -45 22 -74q31 -39 101 -39q95 0 141 56q49 61 74 206l178 1022h-158l19 107h157l25 133q31 178 131 268q98 92 260 92q59 0 117 -12q59 -12 114 -37l-36 -202h-87q2 14 3 41q0 47 -21 73q-31 39 -102 39q-92 0 -140 -57 q-49 -59 -73 -201l-25 -137h451l22 133q31 178 131 268q98 92 260 92q59 0 119 -12q57 -12 113 -37l-35 -202h-88q4 29 4 41q0 45 -23 73q-31 39 -102 39q-88 0 -139 -57q-49 -55 -74 -201l-22 -137h266l-19 -107h-268l-178 -1022q-31 -178 -129 -270q-96 -90 -260 -90 q-59 0 -118.5 12.5t-115.5 36.5l37 203h86q-4 -29 -4 -41q0 -45 23 -74q31 -39 102 -39q94 0 139 56q49 61 74 206l180 1022h-450l-179 -1022q-31 -176 -131 -270q-96 -90 -260 -90q-61 0 -118.5 12t-112.5 37z" />
<glyph unicode="&#x192;i" horiz-adv-x="1228" d="M-338 -330l35 203h88q-4 -29 -4 -41q0 -45 22 -74q31 -39 103 -39q90 0 139 55.5t74 207.5l170 974h-158l19 107h157l19 96q33 197 155 297q121 100 330 100q66 0 158 -14q88 -14 155 -39l-39 -217h-84q2 12 3 35q0 59 -37 94q-45 43 -158 43q-137 0 -215 -72 q-74 -68 -102 -223l-19 -100h641l-168 -957h158l-21 -106h-321l168 956h-475l-170 -974q-31 -176 -131 -271q-96 -90 -260 -90q-61 0 -119 12t-113 37z" />
<glyph unicode="&#x192;l" horiz-adv-x="1228" d="M-338 -330l35 203h88q-4 -29 -4 -41q0 -45 22 -74q31 -39 103 -39q90 0 139 55.5t74 207.5l170 974h-158l19 107h157l19 96q35 201 159.5 299t343.5 98h357l-252 -1450h156l-19 -106h-323l253 1450h-192q-147 0 -219 -66q-71 -65 -98 -221l-19 -100h266l-18 -107h-266 l-170 -974q-31 -176 -131 -271q-96 -90 -260 -90q-61 0 -119 12t-113 37z" />
<glyph unicode="&#x192;&#x192;i" horiz-adv-x="1734" d="M-346 -330l35 203h88q-4 -29 -4 -41q0 -45 22 -74q31 -39 101 -39q96 0 141 58q47 59 74 205l178 974h-158l19 107h157l25 133q31 178 131 268q98 92 260 92q59 0 117 -12q59 -12 114 -37l-36 -202h-87q2 14 3 41q0 47 -21 73q-31 39 -102 39q-92 0 -140 -57 q-49 -59 -73 -201l-25 -137h440l17 96q33 195 157 297q121 100 328 100q68 0 160 -14q84 -12 154 -39l-37 -217h-84q2 12 2 35q0 59 -37 94q-49 43 -160 43q-135 0 -213 -71.5t-102 -223.5l-19 -100h639l-166 -957h156l-18 -106h-324l170 956h-475l-170 -974 q-31 -176 -131 -271q-96 -90 -260 -90q-61 0 -118.5 12.5t-113.5 36.5l35 203h86q-2 -14 -2 -41q0 -47 21 -74q31 -39 102 -39q96 0 141 56q49 59 74 207l170 974h-440l-179 -974q-35 -182 -131 -271q-96 -90 -260 -90q-61 0 -118.5 12t-112.5 37z" />
<glyph unicode="&#x192;&#x192;l" horiz-adv-x="1816" d="M-346 -330l35 203h88q-4 -29 -4 -41q0 -45 22 -74q31 -39 101 -39q92 0 141 58q47 55 74 205l178 974h-158l19 107h157l25 133q31 178 131 268q98 92 260 92q59 0 117 -12q59 -12 114 -37l-36 -202h-87q2 14 3 41q0 47 -21 73q-31 39 -102 39q-92 0 -140 -57 q-49 -59 -73 -201l-25 -137h463l16 96q35 201 160 299q126 98 344 98h359l-254 -1450h157l-18 -106h-324l254 1450h-192q-147 0 -219 -66q-74 -68 -101 -221l-16 -100h264l-16 -107h-267l-172 -974q-31 -178 -129 -271q-96 -90 -260 -90q-59 0 -119 12q-57 12 -112 37 l35 203h88q-4 -29 -4 -41q0 -47 20 -74q31 -39 102 -39q92 0 141.5 55.5t74.5 207.5l170 974h-463l-179 -974q-35 -182 -131 -271q-96 -90 -260 -90q-61 0 -118.5 12t-112.5 37z" />
<glyph unicode=" "  horiz-adv-x="583" />
<glyph unicode="&#x09;" horiz-adv-x="583" />
<glyph unicode="&#xa0;" horiz-adv-x="583" />
<glyph unicode="!" horiz-adv-x="739" d="M141 104q8 51 52 95q39 39 92 39q51 0 77.5 -39t18.5 -94.5t-51 -94.5q-41 -39 -92 -39q-53 0 -80 39q-27 37 -17 94zM260 420l45 252l82 821h234l-205 -821l-45 -252h-111z" />
<glyph unicode="&#x22;" horiz-adv-x="845" d="M180 938v555h144v-555h-144zM524 938v555h144v-555h-144z" />
<glyph unicode="#" d="M141 414v153h314l73 334h-282v154h317l94 415h154l-92 -415h254l94 415h154l-95 -415h277v-154h-311l-74 -334h282v-153h-317l-92 -414h-156l94 414h-254l-94 -414h-153l92 414h-279zM608 567h256l74 334h-254z" />
<glyph unicode="$" horiz-adv-x="1171" d="M61 72l50 276h96q-20 -135 35 -207q55 -71 190 -73l86 485q-197 65 -264 147q-70 86 -45 222q29 160 143 258q115 96 295 108l45 268h90l-45 -268q92 -10 168 -32.5t154 -65.5l-45 -262h-99q8 113 -41 182q-49 68 -155 78l-80 -453q211 -68 285 -153q72 -84 47 -232 q-27 -164 -152 -266q-121 -98 -313 -115l-47 -270h-90l47 270q-90 4 -174 27q-81 23 -181 76zM399 987q-14 -78 25 -133q37 -53 131 -86l74 420q-90 -6 -154 -60q-60 -51 -76 -141zM522 68q102 8 168 65q61 53 80 150q14 84 -29 145t-139 92z" />
<glyph unicode="%" horiz-adv-x="1748" d="M166 1114q35 188 135 295q104 111 246 111q143 0 207 -109q66 -113 32 -297q-35 -197 -135 -299q-104 -109 -245 -108q-144 0 -209 110q-64 111 -31 297zM252 -29l1112 1549h135l-1112 -1549h-135zM309 1112q-25 -152 4 -231q31 -84 109 -84q76 0 135 84q61 88 86 231 q25 152 -4 231q-31 84 -107 84q-80 0 -139 -84q-59 -86 -84 -231zM965 377q35 190 135 297q104 111 247.5 110.5t207 -111t30.5 -296.5q-35 -190 -135 -297q-102 -109 -245.5 -109t-207 109t-32.5 297zM1108 377q-25 -152 4 -230q31 -84 108.5 -84t137.5 84q59 86 84 230 q25 152 -4 233q-31 84 -107 84q-78 0 -137 -84q-61 -88 -86 -233z" />
<glyph unicode="&#x26;" horiz-adv-x="1638" d="M72 350q0 52 12 111q20 131 111 248q88 115 245 217q-33 59 -45 123q-6 29 -6 59.5t6 65.5q29 162 148 253q121 92 297 93q70 0 137 -17q84 -20 174 -51l-43 -258h-102v25q0 92 -41 139q-49 55 -148 55q-90 0 -160 -57q-68 -55 -84 -146q-4 -29 -4 -43q0 -33 15 -80 q18 -55 96 -172l371 -544q72 74 127 172q51 90 79 198l19 107h262l-18 -107h-154q-37 -127 -102.5 -243.5t-155.5 -208.5l123 -183h211l-19 -106h-360l-98 145q-106 -86 -226 -131q-113 -43 -237 -43q-233 0 -346 131q-84 101 -84 248zM262 401q0 -114 62 -196 q84 -113 237 -113q96 0 180 35q90 37 164 104l-416 613q-90 -74 -147 -168q-55 -88 -74 -193q-6 -43 -6 -82z" />
<glyph unicode="'" horiz-adv-x="505" d="M180 938v555h144v-555h-144z" />
<glyph unicode="(" horiz-adv-x="718" d="M145 618q61 354 215 592q156 240 392 346l-17 -98q-158 -109 -252 -299q-94 -193 -155 -541q-61 -344 -33 -540q27 -193 145 -299l-16 -98q-199 106 -270 346q-70 233 -9 591z" />
<glyph unicode=")" horiz-adv-x="718" d="M-35 -319l19 98q158 109 252 299t155 540q61 346 33 541q-27 190 -148 299l19 98q199 -106 270 -346q70 -233 8 -592q-61 -354 -215 -591q-155 -240 -393 -346z" />
<glyph unicode="*" horiz-adv-x="919" d="M31 870l352 183l-352 184l67 119l314 -217l-13 381h123l-12 -381l313 217l70 -119l-352 -182l352 -185l-70 -118l-313 217l12 -381h-123l13 381l-314 -217z" />
<glyph unicode="+" d="M195 561v162h505v561h144v-561h506v-162h-506v-561h-144v561h-505z" />
<glyph unicode="," horiz-adv-x="583" d="M37 -199q92 63 151.5 161.5t79.5 227.5l6 37h179q-35 -166 -125 -293q-88 -125 -234 -213z" />
<glyph unicode="-" horiz-adv-x="620" d="M68 471l26 156h461l-27 -156h-460z" />
<glyph unicode="." horiz-adv-x="583" d="M174 104q8 53 49 95q39 39 94 39q51 0 78 -39t19 -94.5t-52 -94.5q-41 -39 -92 -39t-77.5 39t-18.5 94z" />
<glyph unicode="/" horiz-adv-x="620" d="M-147 -190l772 1683h143l-770 -1683h-145z" />
<glyph unicode="0" horiz-adv-x="1171" d="M121 745q66 371 223 572q160 203 377 203q221 0 307 -203q88 -205 22.5 -571.5t-223.5 -571.5q-156 -203 -376 -203q-219 0 -306 203q-87 209 -24 571zM291 238q39 -168 176 -168t235 168q100 172 158 507q61 338 21 508q-39 168 -176.5 168t-235.5 -168 q-96 -164 -158 -508q-59 -343 -20 -507z" />
<glyph unicode="1" horiz-adv-x="1171" d="M129 0l18 106h234l217 1242l-303 -195l22 131l369 236h125l-250 -1414h236l-19 -106h-649z" />
<glyph unicode="2" horiz-adv-x="1171" d="M-8 0l18 109l488 452q168 158 241 275q78 121 103 264q27 150 -28.5 235.5t-180.5 85.5q-127 0 -211 -71.5t-121 -212.5h-100l47 266q106 57 209 88q98 29 196 29q211 0 312 -113q101 -114 67 -307q-37 -219 -366 -525l-22.5 -19t-16.5 -15l-406 -377h561l31 184h107 l-62 -348h-866z" />
<glyph unicode="3" horiz-adv-x="1171" d="M23 72l51 290h100q-16 -145 49 -219q63 -74 207 -73q139 0 233.5 88t122.5 243q31 176 -36.5 266.5t-223.5 90.5h-86l19 102h45q158 0 248 72q92 74 116 219q23 133 -28 201q-51 70 -174 69.5t-201 -63.5q-76 -61 -111 -191h-100l45 263q135 51 213 67q106 23 186 23 q197 0 291 -95q92 -94 66 -262q-25 -137 -117 -225q-96 -94 -238 -123q160 -25 234 -133q74 -106 43 -279q-37 -209 -184 -321q-145 -111 -383 -111q-106 0 -201 25q-102 27 -186 76z" />
<glyph unicode="4" horiz-adv-x="1171" d="M-6 399l18 109l766 1012h178l-178 -1014h258l-18 -107h-258l-51 -293h217l-19 -106h-612l18 106h215l52 293h-586zM139 506h459l139 794z" />
<glyph unicode="5" horiz-adv-x="1171" d="M41 72l51 290h103q-18 -143 43 -217q63 -76 192 -75q139 0 236 104q94 104 129 299q33 193 -24.5 297t-201.5 104q-76 0 -147 -32q-63 -29 -127 -99h-78l131 750h713l-31 -164h-614l-74 -428q47 33 117 53q66 18 143 19q221 0 322 -133q100 -135 61 -367 q-39 -233 -192 -369q-152 -133 -381 -133q-92 0 -185 25q-100 27 -186 76z" />
<glyph unicode="6" horiz-adv-x="1171" d="M115 698q66 387 252 607q182 215 444 215q76 0 147 -15q78 -16 152 -45l-43 -246h-100q6 101 -43 154t-148 53q-176 0 -286.5 -147.5t-165.5 -452.5q76 76 157 113q84 37 181 37q205 0 294 -133q92 -135 54 -367q-41 -229 -191 -365q-152 -135 -358 -135 q-227 0 -317 188.5t-29 538.5zM293 483q-33 -199 16 -307q49 -106 176 -106t213 104q88 106 121 297t-16 297q-49 104 -178 104q-127 0 -213 -100.5t-119 -288.5z" />
<glyph unicode="7" horiz-adv-x="1171" d="M225 1145l60 348h884l-18 -102l-768 -1391h-133l733 1329h-621l-32 -184h-105z" />
<glyph unicode="8" horiz-adv-x="1171" d="M63 408q29 162 132 262q106 104 262 125q-129 27 -189 114q-57 86 -32 224q31 178 161 284q127 102 324 103q199 0 289 -103q92 -104 61 -284q-25 -137 -110 -224q-88 -88 -228 -114q147 -20 217 -125q68 -100 39 -262q-37 -209 -176 -324q-137 -113 -362 -113 q-223 0 -324 113t-64 324zM254 407.5q-27 -159.5 29 -249.5q55 -88 184 -88q131 0 217 88q90 92 117 250q27 160 -29 249q-55 88 -186 88t-217 -88q-88 -90 -115 -249.5zM417.5 1132.5q-24.5 -137.5 25 -213t159.5 -75.5q113 0 189 76q78 78 98 213q25 135 -25 213 q-49 76 -159.5 75.5t-186.5 -76t-100.5 -213z" />
<glyph unicode="9" horiz-adv-x="1171" d="M61 31l43 248h101q-6 -96 45 -154q49 -55 145 -55q176 0 287 147q115 152 168 453q-78 -78 -160 -113q-86 -37 -182 -37q-203 0 -293 133t-51 367q41 229 190.5 364.5t358.5 135.5q225 0 315 -188.5t29 -538.5q-66 -387 -252 -607q-182 -215 -445 -215q-76 0 -147 15 q-78 16 -152 45zM354 1020q-33 -190 17 -297q49 -104 176 -104.5t213 100t119 289.5q35 201 -14.5 307t-176.5 106q-129 0 -215 -104q-84 -102 -119 -297z" />
<glyph unicode=":" horiz-adv-x="620" d="M135 104q8 55 51 95q41 39 90 39q53 0 80 -39t19 -95q-8 -51 -51 -94q-39 -39 -92.5 -39t-79.5 39q-27 37 -17 94zM250 756q8 53 49 94q39 39 92 39q52 0 80 -37q27 -35 16 -96q-8 -55 -51 -94t-92 -39q-51 0 -78 39q-26 37 -16 94z" />
<glyph unicode=";" horiz-adv-x="620" d="M-23 -199q96 66 154 162q59 98 80 227l6 37h176q-37 -170 -123 -293q-88 -125 -233 -213zM274.5 755.5q8.5 55.5 51.5 94.5q41 39 92 39t77.5 -39t18.5 -94.5t-51 -93.5q-41 -39 -92.5 -39t-78 38.5t-18 94z" />
<glyph unicode="&#x3c;" d="M195 559v166l1155 465v-170l-934 -379l934 -377v-170z" />
<glyph unicode="=" d="M195 358v160h1155v-160h-1155zM195 766v160h1155v-160h-1155z" />
<glyph unicode="&#x3e;" d="M195 94v170l935 377l-935 379v170l1155 -465v-166z" />
<glyph unicode="?" horiz-adv-x="987" d="M199 1167l45 260q113 49 194 70q94 23 164 23q199 0 297 -107q96 -106 66 -289q-31 -188 -152 -305q-119 -115 -330 -168l-45 -254h-110l57 328q168 43 264 143q100 102 127 258q25 135 -28 215q-51 80 -164 80q-102 0 -181 -65q-76 -63 -116 -189h-88zM213 104 q8 55 51 95q41 39 92.5 39t78 -39t18 -94.5t-51.5 -94.5q-41 -39 -92 -39q-53 0 -80 39q-26 37 -16 94z" />
<glyph unicode="@" horiz-adv-x="1841" d="M119 190q-31 160 4 353q31 188 119 348q89 163 227 289q135 127 303 194q166 68 342 68q193 0 336 -82q145 -84 225 -240q49 -92 66 -213q16 -115 -6 -239q-46 -267 -222 -424q-172 -154 -428 -158l27 162q-66 -82 -139 -121q-76 -41 -158 -41q-158 0 -233 125 q-76 123 -41 326q33 197 155 325q119 125 277 125q84 0 143.5 -41t97.5 -121l25 142h139l-135 -772q162 37 268.5 161.5t137.5 313.5q20 102 6 211q-12 102 -58 182q-71 132 -196 203q-127 72 -287 71q-82 0 -164 -18q-76 -16 -168 -59q-201 -94 -331 -281 q-133 -188 -177 -436q-29 -172 -8 -307q20 -141 88 -244q78 -121 201 -182.5t279 -61.5q111 0 223 39q111 37 209 113l34 -70q-117 -94 -245 -139q-135 -47 -279 -47q-166 0 -303 67q-135 66 -227 189q-96 126 -127 290zM700 537q-28 -160 19 -246q47 -88 155 -88 q104 0 181 78q78 80 98 204l21 105q23 129 -29 203q-53 78 -156 77q-106 0 -184 -88q-76 -85 -105 -245z" />
<glyph unicode="A" horiz-adv-x="1329" d="M-141 0l18 106h119l721 1387h151l238 -1387h131l-18 -106h-490l19 106h149l-53 328h-568l-167 -328h147l-18 -106h-379zM334 541h491l-120 710z" />
<glyph unicode="B" horiz-adv-x="1353" d="M-29 0l19 106h172l223 1280h-172l18 107h666q203 0 289 -92q63 -68 63 -186q0 -42 -8 -91q-25 -135 -108.5 -212.5t-227.5 -96.5q170 -25 240 -121q51 -71 51 -175q0 -41 -8 -87q-41 -223 -184 -328q-144 -104 -412 -104h-621zM342 106h270q160 0 250 78q88 76 119 248 q9 57 9 103q0 93 -40 143q-61 78 -225 78h-268zM475 862h230q150 0 227.5 63.5t101.5 198.5q8 42 8 77q0 80 -41 122q-59 63 -204 63h-230z" />
<glyph unicode="C" horiz-adv-x="1409" d="M96 422q-11 63 -11 134q0 89 17 189q61 348 280.5 561.5t514.5 213.5q111 0 229 -31q102 -27 250 -98l-61 -344h-101q0 187 -86 276q-86 90 -266 90q-213 0 -354 -170q-139 -168 -199 -498q-24 -132 -23 -240q0 -155 48 -257q80 -170 295 -170q152 0 262 80t182 237h164 q-96 -211 -254 -317.5t-373 -106.5q-131 0 -235 49q-102 49 -174 148q-80 111 -105 254z" />
<glyph unicode="D" horiz-adv-x="1476" d="M-29 0l19 106h172l223 1280h-172l18 107h537q346 0 506 -197q115 -142 115 -365q0 -86 -17 -183q-61 -352 -291 -549q-233 -199 -575 -199h-535zM342 106h170q261 0 430 166q168 166 223 476q18 101 18 186q0 178 -75 289q-111 164 -373 163h-168z" />
<glyph unicode="E" horiz-adv-x="1343" d="M-29 0l19 106h172l223 1280h-172l18 107h1084l-60 -332h-110l37 209h-619l-86 -500h441l32 187h111l-86 -496h-113l35 187h-440l-111 -625h633l37 209h108l-57 -332h-1096z" />
<glyph unicode="F" horiz-adv-x="1277" d="M-29 0l19 106h172l223 1280h-172l18 107h1100l-57 -332h-111l37 209h-637l-86 -500h459l33 187h110l-86 -496h-110l32 187h-458l-115 -642h215l-16 -106h-570z" />
<glyph unicode="G" horiz-adv-x="1470" d="M102 745q61 350 283 564q219 211 533 211q123 0 231 -29q127 -33 246 -90l-62 -354h-100q0 190 -84 276q-86 90 -262 90q-231 0 -374.5 -166t-203.5 -502q-23 -130 -23 -235q0 -160 54 -262q90 -170 317 -170q96 0 199 28q92 27 193 84l65 385h-252l19 107h436l-98 -557 q-123 -72 -279 -115q-141 -39 -301 -39q-303 0 -451 211q-104 150 -104 369q0 91 18 194z" />
<glyph unicode="H" horiz-adv-x="1605" d="M-29 0l19 106h172l223 1280h-172l18 107h527l-21 -107h-170l-90 -516h697l90 516h-170l18 107h524l-18 -107h-170l-225 -1280h172l-21 -106h-524l18 106h172l111 642h-694l-115 -642h172l-18 -106h-525z" />
<glyph unicode="I" horiz-adv-x="727" d="M-29 0l19 106h172l223 1280h-172l18 107h527l-21 -107h-170l-225 -1280h172l-18 -106h-525z" />
<glyph unicode="J" horiz-adv-x="737" d="M-311 -358l41 235h102q-4 -28 -4 -53q0 -58 22 -94q31 -49 109 -49q106 0 164 75q55 74 92 293l236 1337h-209l18 107h561l-18 -107h-170l-236 -1345q-43 -244 -151 -356q-106 -111 -307 -111q-70 0 -127 16q-62 19 -123 52z" />
<glyph unicode="K" horiz-adv-x="1376" d="M-29 0l19 106h172l223 1280h-172l18 107h527l-21 -107h-170l-98 -565l678 565h-148l21 107h444l-16 -107h-154l-673 -563l520 -717h151l-18 -106h-311l-514 709l-107 -603h172l-18 -106h-525z" />
<glyph unicode="L" horiz-adv-x="1222" d="M-29 0l19 106h172l223 1280h-172l18 107h527l-21 -107h-170l-221 -1263h615l43 250h110l-65 -373h-1078z" />
<glyph unicode="M" horiz-adv-x="1886" d="M-29 0l19 106h172l223 1280h-180l16 107h393l285 -1063l657 1063h367l-16 -107h-181l-223 -1280h170l-16 -106h-527l19 106h172l201 1154l-643 -1041h-127l-279 1041l-203 -1154h172l-18 -106h-453z" />
<glyph unicode="N" horiz-adv-x="1611" d="M-39 0l19 106h182l223 1280h-180l18 107h344l600 -1178l189 1071h-180l18 107h471l-18 -107h-183l-245 -1415h-109l-641 1258l-197 -1123h181l-19 -106h-473z" />
<glyph unicode="O" horiz-adv-x="1509" d="M96 422q-10 58 -10 125q0 90 18 198q31 182 105 324q76 143 194 254q111 100 228 147q123 49 260 50q295 0 436 -213q100 -150 100 -366q0 -92 -18 -196q-31 -174 -106 -323q-72 -141 -195 -254q-111 -100 -227 -148q-123 -49 -260 -49q-133 0 -242 49q-108 49 -178 148 q-80 111 -105 254zM309 745q-23 -132 -23 -239q0 -158 50 -260q82 -168 303 -168t362 168q139 166 199 499q24 137 24 246q0 155 -48 254q-82 168 -303.5 168t-362.5 -168q-144 -170 -201 -500z" />
<glyph unicode="P" horiz-adv-x="1239" d="M-29 0l19 106h172l223 1280h-172l18 107h637q201 0 299 -113q74 -86 74 -215q0 -44 -8 -92q-35 -193 -172 -305q-139 -115 -340 -115h-283l-96 -547h209l-19 -106h-561zM459 760h235q133 0 219 80q82 76 111 233q8 50 8 92q0 88 -37 142q-55 80 -190 79h-238z" />
<glyph unicode="Q" horiz-adv-x="1509" d="M111 549q0 92 18 196q31 176 107 324q76 143 194 254q104 98 227 147.5t261 49.5q291 0 436 -213q98 -145 98 -365q0 -104 -16 -197q-53 -297 -223.5 -497.5t-417.5 -259.5q37 -68 100 -99q70 -33 164 -32h223l-33 -185h-104q-242 0 -338 82t-139 217q-307 0 -455 211 q-102 146 -102 367zM311 502q0 -154 49 -256q82 -168 306 -168q221 0 362 168q141 170 201 499q23 141 22 244q0 156 -49 254q-84 170 -303 170q-221 0 -362 -168q-143 -170 -201 -500q-25 -134 -25 -243z" />
<glyph unicode="R" horiz-adv-x="1386" d="M-29 0l19 106h172l223 1280h-172l18 107h682q197 0 285 -104q65 -76 65 -197q0 -46 -10 -98q-27 -152 -120 -242q-92 -88 -250 -111q57 -16 96 -65t59 -127l117 -443h166l-21 -106h-315l-127 475q-37 138 -80 178q-45 41 -131 41h-201l-104 -588h190l-18 -106h-543z M465 801h264q137 0 215 71.5t103 221.5q9 53 8 95q0 81 -33 126q-53 72 -188 71h-267z" />
<glyph unicode="S" horiz-adv-x="1261" d="M53 72l60 340h102q-7 -45 -6 -84q0 -108 51 -168q70 -82 242 -82q162 0 258 72q98 72 119 204q6 35 6 65q0 62 -27 101q-39 57 -194 113l-168 59q-184 66 -244 162q-42 67 -42 166q0 46 9 100q33 188 174 295q139 104 361 105q88 0 200 -23q104 -20 226 -65l-56 -318 h-100q2 24 2 46q0 123 -57 183q-68 70 -232 70q-139 0 -227 -65q-86 -63 -107 -187q-5 -32 -5 -59q0 -66 32 -109q43 -59 215 -121l158 -55q170 -61 231 -155q43 -67 43 -164q0 -42 -8 -90q-37 -213 -182 -326q-145 -111 -391 -111q-111 0 -222 25q-115 25 -221 76z" />
<glyph unicode="T" horiz-adv-x="1228" d="M86 1141l64 352h1191l-61 -352h-111l41 233h-395l-221 -1268h172l-18 -106h-527l19 106h172l223 1268h-397l-39 -233h-113z" />
<glyph unicode="U" horiz-adv-x="1552" d="M201 1386l18 107h526l-20 -107h-170l-135 -772q-22 -126 -22 -217q0 -118 36 -182q63 -113 271 -113q205 0 309 113q104 114 153 399l136 772h-173l21 107h453l-19 -107h-172l-137 -792q-57 -336 -203 -481q-141 -141 -426 -142q-283 0 -377 142q-59 88 -59 252 q0 101 22 229l140 792h-172z" />
<glyph unicode="V" horiz-adv-x="1329" d="M94 1386l19 107h489l-18 -107h-150l197 -1146l596 1146h-152l19 107h395l-19 -107h-131l-723 -1386h-153l-236 1386h-133z" />
<glyph unicode="W" horiz-adv-x="1892" d="M121 1386l18 107h492l-21 -107h-166l86 -1103l519 1210h145l98 -1223l477 1116h-155l18 107h387l-18 -107h-131l-596 -1386h-148l-96 1214l-518 -1214h-147l-111 1386h-133z" />
<glyph unicode="X" horiz-adv-x="1310" d="M-121 0l21 106h153l498 627l-279 653h-145l20 107h533l-18 -107h-160l205 -481l380 481h-174l19 107h440l-18 -107h-152l-454 -575l299 -705h145l-18 -106h-535l18 106h162l-227 533l-422 -533h172l-16 -106h-447z" />
<glyph unicode="Y" horiz-adv-x="1214" d="M90 1386l21 107h497l-16 -107h-158l230 -604l442 604h-152l19 107h391l-18 -107h-127l-533 -724l-96 -556h172l-19 -106h-526l19 106h172l94 537l-285 743h-127z" />
<glyph unicode="Z" horiz-adv-x="1280" d="M-47 0l12 72l1063 1298h-694l-39 -223h-111l62 346h1061l-13 -72l-1065 -1298h760l37 209h111l-60 -332h-1124z" />
<glyph unicode="[" horiz-adv-x="718" d="M0 -270l317 1826h420l-18 -106h-248l-283 -1614h248l-18 -106h-418z" />
<glyph unicode="\" horiz-adv-x="620" d="M147 1493h144l182 -1683h-143z" />
<glyph unicode="]" horiz-adv-x="718" d="M-18 -270l18 106h248l282 1614h-247l18 106h420l-320 -1826h-419z" />
<glyph unicode="^" d="M195 936l489 557h176l490 -557h-140l-438 381l-438 -381h-139z" />
<glyph unicode="_" horiz-adv-x="919" d="M0 -403h922v-80h-922v80z" />
<glyph unicode="`" horiz-adv-x="919" d="M330 1636h178l168 -376h-107z" />
<glyph unicode="a" horiz-adv-x="1097" d="M61 295q0 41 11 106q61 356 282 537q190 154 416 154q154 0 207 -29l-168 -957h141l-18 -106h-291l29 166q-121 -195 -314 -195q-158 0 -237 119q-58 86 -58 205zM238 299q0 -213 186 -213q115 0 190.5 100.5t110.5 292.5l84 482q0 29 -74 28q-172 0 -307 -149 q-131 -150 -180 -424q-10 -54 -10 -117z" />
<glyph unicode="b" horiz-adv-x="1177" d="M80 0l252 1450h-160l21 106h323l-115 -659q63 100 150 147q84 47 194 48q174 0 261 -154q57 -104 57 -246q0 -68 -16 -160q-43 -248 -183 -405q-137 -156 -315 -156q-109 0 -178 47q-68 46 -99 148l-28 -166h-164zM313 338q0 -88 29 -152q49 -100 176 -100q125 0 211 113 q88 117 125 333q16 90 16 180.5t-24 151.5q-47 113 -172 113q-127 0 -209 -100q-86 -104 -119 -293l-18 -105q-15 -73 -15 -141z" />
<glyph unicode="c" horiz-adv-x="1030" d="M78 385q0 76 14 147q43 252 199 408q152 152 360 152q98 0 178 -23q90 -27 168 -72l-47 -272h-96v27q0 119 -47 178q-51 63 -170 63q-133 0 -223 -116.5t-129 -344.5q-18 -104 -19 -188q0 -88 27 -158q47 -117 182 -116q109 0 182 61q72 59 119 188h135 q-66 -172 -180.5 -260t-273.5 -88q-207 0 -310 154q-69 106 -69 260z" />
<glyph unicode="d" horiz-adv-x="1177" d="M37 373q0 80 14 159q43 252 182.5 406t317.5 154q106 0 176 -48q68 -46 98 -147l97 553h-156l18 106h322l-272 -1556h-166l28 166q-63 -100 -149 -148q-84 -47 -193 -47q-174 0 -262 156q-55 105 -55 246zM227 352q0 -92 25 -153q45 -113 174 -113q127 0 209 100.5 t117 292.5l18 105q14 72 14 141q0 88 -28 152q-49 100 -174 100t-213 -113q-86 -111 -123 -332q-19 -102 -19 -180z" />
<glyph unicode="e" horiz-adv-x="1089" d="M78 385q0 74 14 145q43 250 197 408q150 154 366 154q352 0 353 -277q0 -205 -185 -303q-190 -102 -553 -104q-4 -49 -4 -72q0 -94 31 -156q51 -111 195 -110q102 0 155 34q92 66 115 146h121q-39 -131 -170 -217q-94 -61 -278.5 -61.5t-287.5 153.5q-69 106 -69 260z M289 514q291 16 442 119q100 63 100 188q0 172 -202 172q-121 0 -205 -102.5t-135 -376.5z" />
<glyph unicode="f" horiz-adv-x="681" d="M-115 -426l11 98q95 0 141 56q49 61 74 206l178 1022h-158l19 107h157l25 133q31 178 131 268q98 92 260 92q59 0 117 -12q59 -12 114 -37l-36 -202h-87q2 14 3 41q0 47 -21 73q-31 39 -102 39q-92 0 -140 -57q-49 -59 -73 -201l-25 -137h268l-18 -107h-268l-179 -1022 q-31 -176 -131 -270q-96 -90 -260 -90z" />
<glyph unicode="g" horiz-adv-x="1177" d="M66 -379l38 223h86v-11q0 -94 50 -140q52 -49 166 -49q147 0 229 92q86 92 119 287l24 143q-63 -100 -149 -148q-84 -47 -191 -47q-158 0 -237 119q-49 74 -56 178q-1 15 0 30q0 52 9 103q61 356 282 537q186 154 410 154q203 0 254 -29l-182 -1040q-41 -240 -175 -353 q-143 -125 -346 -125q-94 0 -176 19q-73 16 -155 57zM319 272q2 -55 27 -102q43 -84 160 -84q127 0 209 100q86 104 119 293l18 105l66 372q0 33 -99 33q-176 0 -307 -149q-133 -150 -180 -424q-13 -67 -13 -122q-1 -12 0 -22z" />
<glyph unicode="h" horiz-adv-x="1185" d="M88 0l254 1450h-158l19 106h323l-118 -682q63 106 147 162t180 56q158 0 215 -101q35 -63 35 -164q0 -72 -14 -151l-101 -570h148l-19 -106h-313l109 618q16 92 16 173q0 68 -12 94q-31 72 -142 71q-115 0 -192 -94q-76 -90 -107 -270l-104 -592h-166z" />
<glyph unicode="i" horiz-adv-x="587" d="M92 0l168 956h-158l19 107h323l-168 -957h158l-18 -106h-324zM289 1370q0 14 2 23q10 47 45 80q39 35 78 34q41 0 65 -34q18 -25 19 -58q0 -14 -2 -22q-10 -47 -45 -80t-76 -33q-43 0 -68 33q-18 24 -18 57z" />
<glyph unicode="j" horiz-adv-x="569" d="M-338 -389l39 219h86q-2 -16 -2 -45q0 -63 20 -96q31 -45 107 -45q82 0 131 61q51 63 72 191l184 1060h-156l19 107h323l-204 -1167q-29 -166 -133.5 -258.5t-258.5 -92.5q-61 0 -120.5 16.5t-106.5 49.5zM334 1370q0 14 2 23q10 47 45 80q39 35 78 34q41 0 65 -34 q18 -25 19 -58q0 -14 -2 -22q-9 -46 -43 -80q-33 -33 -78 -33q-43 0 -68 33q-18 24 -18 57z" />
<glyph unicode="k" horiz-adv-x="1114" d="M76 0l254 1450h-160l18 106h326l-176 -1013l473 413h-135l16 107h271l-19 -107l-336 -292l266 -558h138l-19 -106h-266l-260 543l-154 -135l-71 -408h-166z" />
<glyph unicode="l" horiz-adv-x="587" d="M76 0l254 1450h-160l18 106h326l-254 -1450h158l-21 -106h-321z" />
<glyph unicode="m" horiz-adv-x="1746" d="M129 0l168 958h-158l19 105h323l-32 -189q63 104 145 162q80 55 170 56q113 0 176.5 -61.5t69.5 -174.5q70 121 151 176q88 59 185 60q152 0 206 -105q33 -59 33 -162q0 -72 -14 -149l-101 -570h150l-18 -106h-316l115 655q14 72 14 133q0 59 -16 99q-31 70 -131 69 q-109 0 -185 -94q-76 -96 -106 -270l-103 -592h-165l114 662q14 86 15 129q0 66 -19 98q-31 68 -131 67q-109 0 -184 -94q-74 -92 -105 -270l-104 -592h-166z" />
<glyph unicode="n" horiz-adv-x="1185" d="M129 0l168 956h-160l21 107h323l-32 -189q63 106 147 162t180 56q158 0 215 -101q35 -63 35 -164q0 -72 -14 -151l-101 -570h148l-19 -106h-315l109 618q18 104 18 173q0 66 -14 96q-31 72 -140 71q-115 0 -192 -94q-76 -90 -107 -272l-104 -592h-166z" />
<glyph unicode="o" horiz-adv-x="1107" d="M78 385q0 76 14 147q43 252 196.5 406t364.5 154q207 0 310 -154q68 -106 67 -258q0 -86 -12 -148q-43 -252 -199 -407q-154 -154 -362 -154q-207 0 -310 154q-69 106 -69 260zM266 348q0 -92 27 -162q49 -117 180 -116q133 0 223 116q86 113 127 346q18 104 19 185 q0 90 -27 160q-49 117 -180 116q-132 0 -221 -116.5t-129 -344.5q-19 -104 -19 -184z" />
<glyph unicode="p" horiz-adv-x="1177" d="M80 -426l242 1382h-160l18 107h326l-29 -166q63 100 150 147q84 47 192 48q180 0 262 -154q55 -101 56 -246q0 -80 -15 -160q-43 -248 -182 -405q-137 -156 -315 -156q-109 0 -179 47q-68 46 -98 148l-102 -592h-166zM389 338q0 -84 31 -152q49 -100 174 -100t211 113 q84 113 125 333q16 90 16 180.5t-24 151.5q-47 113 -172 113q-129 0 -211 -100.5t-117 -292.5l-19 -105q-14 -73 -14 -141z" />
<glyph unicode="q" horiz-adv-x="1177" d="M166 268q-1 15 -1 30q0 52 9 103q61 356 283 537q186 154 409 154q178 0 230 -29l-242 -1382h158l-19 -107h-323l102 592q-59 -98 -137 -148q-76 -47 -174 -47q-160 0 -240 119q-49 74 -55 178zM342 272q2 -59 25 -102q43 -84 159 -84q115 0 191 100.5t110 292.5l84 482 q0 29 -71 28q-172 0 -308 -149q-133 -152 -182 -424q-9 -58 -9 -113q0 -16 1 -31z" />
<glyph unicode="r" horiz-adv-x="880" d="M129 0l168 958h-158l19 105h323l-32 -189q68 113 153 164q88 53 197 54q39 0 82 -7q33 -4 92 -20l-47 -266h-97q2 14 2 37q0 55 -20 82q-27 39 -96 38q-121 0 -203 -94t-113 -270l-104 -592h-166z" />
<glyph unicode="s" horiz-adv-x="944" d="M20 59l43 248h97q-4 -37 -4 -55q0 -182 223 -182q221 0 256 182q2 12 2 49q0 33 -31 70t-160 86l-112 45q-113 43 -152 100t-39 123q0 14 4 55q27 147 138 230q109 82 270.5 82t327.5 -86l-41 -232h-94q4 29 4 43q0 72 -47 125q-45 51 -150 51q-213 0 -242 -164 q-4 -25 -4 -47q0 -33 31 -65q33 -37 143 -78l123 -45q125 -45 176 -119q33 -47 33 -98q0 -211 -151 -320q-120 -86 -302 -86q-184 0 -342 88z" />
<glyph unicode="t" horiz-adv-x="739" d="M100 956l21 107h145l58 330h165l-57 -330h311l-18 -107h-311l-119 -675q-14 -74 -14 -125q0 -27 8 -47q18 -39 80 -39q63 0 100 43q39 47 57 137h125q-35 -145 -108 -211q-76 -68 -207 -68q-143 0 -191 72q-29 45 -28 123q0 51 12 115l119 675h-148z" />
<glyph unicode="u" horiz-adv-x="1185" d="M127 956l18 107h316l-109 -619q-16 -92 -16 -172q0 -68 12 -94q31 -72 141 -72q115 0 191 95q78 96 108 272l105 590h166l-168 -957h156l-19 -106h-321l32 188q-63 -106 -147 -161q-83 -55 -178 -56q-160 0 -217 101q-35 63 -35 164q0 72 14 151l100 569h-149z" />
<glyph unicode="v" horiz-adv-x="1040" d="M70 956l16 107h250l162 -838q98 94 172 228q141 258 194 503h-108l18 107h248q-96 -408 -223 -643q-102 -193 -316 -420h-121l-184 956h-108z" />
<glyph unicode="w" horiz-adv-x="1576" d="M104 954l19 109h246l100 -830l393 830h117l98 -830q120 144 148 197q92 186 194 526l-139 -2l20 109h240l-18 -109h-2q-94 -381 -179 -548q-129 -255 -270 -406h-137l-98 795l-375 -795h-133l-117 956z" />
<glyph unicode="x" horiz-adv-x="1038" d="M4 0l422 510l-211 446h-119l19 107h243l199 -414l342 414h115l-416 -500l219 -457h125l-18 -106h-250l-205 424l-350 -424h-115z" />
<glyph unicode="y" horiz-adv-x="1040" d="M-68 -424l35 203h84q-2 -10 -2 -31q0 -41 19 -65q23 -35 79 -35q160 0 297 153l-227 1155h-108l18 107h248l213 -1055q147 246 180 340q115 311 135 598h-108l18 109h248q-88 -569 -248 -875q-231 -444 -414 -575q-82 -59 -297 -60q-45 0 -84 9q-57 12 -86 22z" />
<glyph unicode="z" horiz-adv-x="970" d="M-18 0l14 86l653 758l-35 12q-35 14 -61 33l-43 31q-84 57 -145 57q-119 0 -259 -152l21 121q154 168 272 168q72 -4 172 -70q104 -70 162 -69q98 0 193 88h53l-14 -86l-656 -758q4 0 13.5 -4t23.5 -8q35 -14 62 -33l43 -31q84 -57 145 -57q119 0 258 152l-23 -121 q-154 -168 -270 -168q-72 4 -172 69q-104 70 -162 70q-98 0 -192 -88h-53z" />
<glyph unicode="{" horiz-adv-x="1171" d="M221 559l19 105h55q127 0 186.5 59t83.5 207l45 258q40 221 129 294.5t314 73.5h55l-18 -104h-62q-127 0 -174 -43q-45 -41 -70 -186l-51 -287q-29 -162 -84 -225q-59 -68 -180 -99q115 -35 147.5 -100.5t4.5 -224.5l-52 -287q-25 -141 6 -184q33 -45 158 -45h62 l-19 -105h-55q-221 0 -287 74q-65 74 -24 295l45 258q25 154 -13 209q-39 57 -166 57h-55z" />
<glyph unicode="|" horiz-adv-x="620" d="M238 -483v2048h145v-2048h-145z" />
<glyph unicode="}" horiz-adv-x="1171" d="M66 -334l18 105h61q126 0 172 43q47 43 72 186l49 287q27 156 84 225q53 66 180 100q-113 31 -145 99q-33 66 -4 225l49 287q25 145 -4 186q-31 43 -158 43h-61l16 104h58q225 0 286.5 -73.5t22.5 -294.5l-45 -258q-25 -152 12 -207q41 -59 168 -59h55l-18 -105h-57 q-129 0 -187 -57q-59 -59 -84 -209l-45 -258q-41 -223 -127 -295q-90 -74 -311 -74h-57z" />
<glyph unicode="~" d="M195 477v152q90 88 170 127q82 41 165.5 41t243.5 -66l8 -4q12 -4 29 -12q127 -57 217 -58q84 0 164 37q78 37 158 113v-148q-84 -84 -172 -131q-76 -41 -164 -41q-84 0 -244 66l-8 4l-31 12q-129 57 -217 58q-84 0 -162 -37q-81 -39 -157 -113z" />
<glyph unicode="&#xa1;" horiz-adv-x="739" d="M123 0l203 821l45 252h108l-43 -252l-82 -821h-231zM360 1389q8 51 52 94q39 39 92 39q51 0 77.5 -39t18.5 -94.5t-51 -94.5q-41 -39 -92 -39t-78 39.5t-19 94.5z" />
<glyph unicode="&#xa2;" horiz-adv-x="1171" d="M139 532q43 244 183 392q137 147 342 166l47 266h90l-47 -266q83 -9 153 -31q74 -23 137 -62l-49 -272h-94q4 123 -37 188.5t-127 77.5l-162 -919q84 12 147.5 75.5t100.5 171.5h133q-59 -156 -157.5 -241.5t-239.5 -104.5l-47 -270h-90l47 270q-195 18 -283 168 q-90 151 -47 391zM334 532q-37 -211 2 -329q37 -117 149 -131l162 919q-119 -14 -196 -131q-82 -121 -117 -328z" />
<glyph unicode="&#xa3;" horiz-adv-x="1171" d="M-10 0l18 106h174l105 594h-174l18 107h174l51 295q37 205 158 311.5t322 106.5q74 0 145 -13q71 -12 135 -37l-43 -245h-94q6 98 -35 145q-45 51 -129 51q-113 0 -180 -78q-72 -80 -98 -241l-52 -295h371l-18 -107h-371l-102 -579h430l41 227h104l-61 -348h-889z" />
<glyph unicode="&#xa4;" horiz-adv-x="1171" d="M94 186l185 207q-37 61 -55.5 123t-18.5 125q0 71 18 129q18 55 60 117l-189 207l86 94l187 -207q57 47 104 66q53 20 117 20q61 0 114 -20q59 -23 109 -62l188 207l84 -94l-186 -209q39 -63 55 -121q18 -61 19 -127q0 -72 -18.5 -129t-57.5 -115l184 -207l-86 -94 l-186 205q-51 -45 -102 -65q-49 -20 -117 -21q-61 0 -115 21q-55 22 -111 61l-184 -205zM346 643q0 -117 70 -192q72 -78 172 -78q102 0 171.5 77.5t69.5 192.5q0 113 -69 188q-72 78 -172.5 78t-171.5 -78q-70 -75 -70 -188z" />
<glyph unicode="&#xa5;" horiz-adv-x="1171" d="M84 473l18 105h365l10 65l-49 141h-289l19 105h235l-170 497h-127l21 107h497l-18 -107h-158l203 -604l410 604h-150l19 107h389l-19 -107h-129l-342 -497h246l-18 -105h-299l-86 -122l-15 -84h363l-19 -105h-362l-64 -367h170l-18 -106h-524l20 106h172l64 367h-365z " />
<glyph unicode="&#xa6;" horiz-adv-x="620" d="M238 -350v758h145v-758h-145zM238 674v758h145v-758h-145z" />
<glyph unicode="&#xa7;" horiz-adv-x="919" d="M4 -139l37 209h82q-12 -82 29 -121q45 -41 139 -41q90 0 155 49q61 47 78 133q20 113 -164 240l-24 18q-176 125 -217 197q-45 78 -27 174q14 88 82 160q66 68 168 98q-66 51 -90 113q-25 66 -10 141q20 129 127 209q104 80 254 80q76 0 135 -15q80 -18 129 -41l-35 -202 h-84q12 70 -29 114q-39 41 -118 41q-88 0 -149.5 -49t-76.5 -131q-18 -94 180 -233l18.5 -14.5t12.5 -8.5q156 -106 201 -184q43 -74 24 -174q-18 -96 -73 -158q-57 -61 -170 -107q63 -47 83.5 -110.5t6.5 -153.5q-20 -129 -129 -211q-102 -78 -260 -78q-80 0 -152 13 q-55 10 -133 43zM246 754q-23 -133 268 -334l27 -19q61 39 94 86q37 53 45 105q12 76 -39 141q-52 68 -252 203q-74 -49 -100 -88q-35 -49 -43 -94z" />
<glyph unicode="&#xa8;" horiz-adv-x="919" d="M356 1452q8 49 45 82q39 35 80 35q43 0 67.5 -35t16.5 -82t-45 -84q-35 -33 -82 -33t-67 33q-23 33 -15 84zM707 1452q8 49 45 82q39 35 79 35q43 0 68 -35t16.5 -82t-45.5 -84q-35 -33 -79 -33q-49 0 -70 33q-22 33 -14 84z" />
<glyph unicode="&#xa9;" horiz-adv-x="1841" d="M256 741q0 158 47 285q49 132 148 240q102 113 215 164q121 55 256 55t254 -55q117 -53 217 -164q98 -108 147 -240q47 -127 47 -285q0 -160 -47 -282q-51 -135 -147 -240q-100 -111 -217 -164q-119 -55 -254.5 -55t-255.5 55q-113 51 -215 164q-96 104 -148 240 q-47 122 -47 282zM346 741q0 -131 43 -243q41 -109 127 -207q82 -94 186.5 -141.5t219.5 -47.5q117 0 221 47.5t186 141.5q80 90 125 207q43 113 43 243q0 132 -43 246q-45 117 -125 207q-82 94 -186.5 141t-220.5 47q-115 0 -219.5 -47t-186.5 -141q-84 -94 -127 -207 q-43 -114 -43 -246zM555 741q0 203 100 322q102 121 269 121q71 0 141 -19q74 -20 147 -57v-213h-73q-15 108 -68 160q-51 51 -145 51q-106 0 -161.5 -92t-55.5 -273q0 -184 55 -272q55 -90 160 -90q86 0 137 47t69 147h107q-25 -135 -104 -202q-82 -70 -209 -70 q-166 0 -269 121q-100 118 -100 319z" />
<glyph unicode="&#xaa;" horiz-adv-x="874" d="M66 535l18 104h627l-19 -104h-626zM119 969q0 39 10 100q27 162 125 285q96 119 221 145q16 4 49 4q37 0 66 -12q45 -20 78 -82l14 84h113l-115 -649h117l-17 -88h-227l31 178q-55 -78 -115 -121q-55 -41 -125 -57q-29 -6 -53 -6q-86 0 -131 67q-41 60 -41 152zM248 1004 q0 -68 20 -103q27 -47 88 -47q10 0 35 4q84 18 146 92q61 78 79 180l17 87q4 20 4 59q0 61 -27 96q-31 41 -86 41q-8 0 -37 -4q-86 -18 -147 -100q-63 -84 -84 -213q-8 -47 -8 -92z" />
<glyph unicode="&#xab;" horiz-adv-x="1126" d="M135 559l15 82l495 418l-20 -115l-328 -344l207 -344l-21 -115zM526 559l15 82l493 418l-18 -115l-328 -344l207 -344l-21 -115z" />
<glyph unicode="&#xac;" d="M195 700v162h1155v-575h-146v413h-1009z" />
<glyph unicode="&#xad;" horiz-adv-x="620" d="M68 471l26 156h461l-27 -156h-460z" />
<glyph unicode="&#xae;" horiz-adv-x="1841" d="M256 741q0 158 47 285q49 132 148 240q102 113 215 164q121 55 256 55t254 -55q117 -53 217 -164q98 -108 147 -240q47 -127 47 -285q0 -160 -47 -282q-51 -135 -147 -240q-100 -111 -217 -164q-119 -55 -254.5 -55t-255.5 55q-113 51 -215 164q-96 104 -148 240 q-47 122 -47 282zM346 741q0 -131 43 -243q41 -109 127 -207q82 -94 186.5 -141.5t219.5 -47.5q117 0 221 47.5t186 141.5q80 90 125 207q43 113 43 243q0 132 -43 246q-45 117 -125 207q-82 94 -186.5 141t-220.5 47q-115 0 -219.5 -47t-186.5 -141q-84 -94 -127 -207 q-43 -114 -43 -246zM596 352v68h74v672h-74v67h373q117 0 174 -55q59 -55 59 -166q0 -83 -43 -129q-43 -45 -133 -55q41 -16 65.5 -39t45.5 -66l102 -229h70v-68h-170l-119 254q-29 68 -59 94q-25 23 -72 23h-82v-303h74v-68h-285zM807 791h111q74 0 112 38q37 37 37 113 t-37 113t-112 37h-111v-301z" />
<glyph unicode="&#xaf;" horiz-adv-x="919" d="M332 1378l24 148h539l-27 -148h-536z" />
<glyph unicode="&#xb0;" horiz-adv-x="919" d="M176 1200q0 137 82 227q83 92 203 93q58 0 110 -25q59 -27 93 -70q39 -41 61 -102q20 -55 20 -123q0 -133 -81 -223q-82 -92 -205 -92t-203 90t-80 225zM299 1200q0 -74 47 -127q45 -51 114.5 -51t114.5 51q47 53 48 127q0 80 -48 129q-49 53 -114 53q-68 0 -115 -53 t-47 -129z" />
<glyph unicode="&#xb1;" d="M195 0v160h1155v-160h-1155zM195 731v162h505v391h144v-391h506v-162h-506v-391h-144v391h-505z" />
<glyph unicode="&#xb2;" horiz-adv-x="737" d="M6 668l14 75l302 254q94 80 133 138q45 66 57 127q14 84 -20 135q-34 49 -111 49q-72 0 -121 -37q-45 -35 -72 -113h-63l29 158q61 29 131 49q57 16 127 17q125 0 190.5 -65.5t46.5 -170.5q-20 -121 -227 -297l-21 -16l-249 -215h346l18 108h68l-35 -196h-543z" />
<glyph unicode="&#xb3;" horiz-adv-x="737" d="M25 709l28 170h64q-8 -72 28 -113q37 -39 121 -39q86 0 137.5 43t67.5 127q16 96 -20 141q-37 47 -129 47h-48l13 74h24q86 0 140 37q51 37 63 111q12 66 -18.5 102.5t-98.5 36.5q-70 0 -118 -33q-45 -29 -64 -96h-61l24 151q86 31 133 39q65 12 117 13q127 0 182 -54 q57 -55 39 -153q-12 -70 -69 -121q-55 -49 -144 -68q102 -14 147.5 -75.5t26.5 -159.5q-23 -115 -108 -174q-88 -61 -238 -62q-68 0 -125 15q-65 16 -114 41z" />
<glyph unicode="&#xb4;" horiz-adv-x="919" d="M473 1262l299 376h178l-370 -376h-107z" />
<glyph unicode="&#xb5;" horiz-adv-x="1196" d="M82 -426l242 1382h-150l19 107h315l-109 -619q-16 -90 -16 -170q0 -66 14 -96q31 -72 140 -72q115 0 190 95q78 96 109 272l102 590h168l-168 -959h156l-19 -104h-321l32 188q-63 -106 -141 -161q-76 -55 -158 -56q-49 0 -90 19q-43 20 -67 53l-82 -469h-166z" />
<glyph unicode="&#xb6;" horiz-adv-x="1171" d="M215 1071q33 188 172 305q138 117 332 117h483l-18 -107h-107l-276 -1583h-96l276 1583h-209l-276 -1583h-97l148 846q-193 18 -277 127q-86 111 -55 295z" />
<glyph unicode="&#xb7;" horiz-adv-x="583" d="M170 711q8 53 53 94q41 39 92.5 39t78 -39t18 -94.5t-51.5 -94.5q-41 -39 -92 -38.5t-80 38.5q-26 38 -18 95z" />
<glyph unicode="&#xb8;" horiz-adv-x="919" d="M231 -371l23 131q31 -16 68 -26q31 -8 65 -8q53 0 86 26q35 29 43 72q6 29 -6 72t-43 104h88q43 -61 63 -121q20 -61 13 -104q-16 -82 -80 -125q-68 -45 -166 -45q-37 0 -76 6q-35 6 -78 18z" />
<glyph unicode="&#xb9;" horiz-adv-x="737" d="M86 668l14 84h156l111 634l-201 -106l16 94l240 129h90l-129 -751h154l-15 -84h-436z" />
<glyph unicode="&#xba;" horiz-adv-x="864" d="M37 535l18 104h621l-21 -104h-618zM102 1128q31 176 146 285q113 106 272 107q158 0 233.5 -106.5t45.5 -285.5q-31 -176 -146 -284q-113 -106 -270 -107q-160 0 -236 106.5t-45 284.5zM258 1128q-27 -152 8 -235q34 -80 129 -80q96 0 158 80q59 78 88 235q27 156 -6 236 q-34 80 -129 80q-92 0 -158 -80q-61 -76 -90 -236z" />
<glyph unicode="&#xbb;" horiz-adv-x="1126" d="M92 141l23 115l325 344l-207 344l21 115l348 -418l-12 -82zM483 141l21 115l327 344l-206 344l20 115l348 -418l-14 -82z" />
<glyph unicode="&#xbc;" horiz-adv-x="1785" d="M942 221l17 84l452 530h127l-94 -532h148l-15 -82h-147l-25 -137h131l-14 -84h-391l14 84h133l25 137h-361zM1039 303h276l72 407zM86 668l14 84h156l111 634l-201 -106l16 94l240 129h90l-129 -751h154l-15 -84h-436zM266 -29l1118 1549h135l-1118 -1549h-135z" />
<glyph unicode="&#xbd;" horiz-adv-x="1785" d="M86 668l14 84h156l111 634l-201 -106l16 94l240 129h90l-129 -751h154l-15 -84h-436zM266 -29l1118 1549h135l-1118 -1549h-135zM936 0l14 75l302 254q94 80 133 138q45 66 57 127q14 84 -20 135q-34 49 -111 49q-72 0 -121 -37q-45 -35 -72 -113h-63l29 158 q61 29 131 49q57 16 127 17q125 0 190.5 -65.5t46.5 -170.5q-20 -121 -227 -297l-21 -16l-249 -215h346l18 108h68l-35 -196h-543z" />
<glyph unicode="&#xbe;" horiz-adv-x="1785" d="M942 221l17 84l452 530h127l-94 -532h148l-15 -82h-147l-25 -137h131l-14 -84h-391l14 84h133l25 137h-361zM1039 303h276l72 407zM25 709l28 170h64q-8 -72 28 -113q37 -39 121 -39q86 0 137.5 43t67.5 127q16 96 -20 141q-37 47 -129 47h-48l13 74h24q86 0 140 37 q51 37 63 111q12 66 -18.5 102.5t-98.5 36.5q-70 0 -118 -33q-45 -29 -64 -96h-61l24 151q86 31 133 39q65 12 117 13q127 0 182 -54q57 -55 39 -153q-12 -70 -69 -121q-55 -49 -144 -68q102 -14 147.5 -75.5t26.5 -159.5q-23 -115 -108 -174q-88 -61 -238 -62 q-68 0 -125 15q-65 16 -114 41zM266 -29l1118 1549h135l-1118 -1549h-135z" />
<glyph unicode="&#xbf;" horiz-adv-x="987" d="M59 369q31 184 154 305q119 115 330 168l45 254h108l-57 -328q-168 -43 -264 -143q-100 -102 -127 -258q-25 -135 28 -215q52 -80 166 -80q100 0 179 65q80 66 118 189h86l-45 -260q-113 -49 -194 -70q-94 -23 -164 -23q-199 0 -297 107q-97 107 -66 289zM573.5 1388.5 q8.5 55.5 51.5 94.5q41 39 92 39t77.5 -39t18.5 -94.5t-51 -94.5q-41 -39 -92.5 -39t-78 39t-18 94.5z" />
<glyph unicode="&#xc0;" horiz-adv-x="1329" d="M-141 0l18 106h119l721 1387h151l238 -1387h131l-18 -106h-490l19 106h149l-53 328h-568l-167 -328h147l-18 -106h-379zM334 541h491l-120 710zM602 1899h178l117 -264h-107z" />
<glyph unicode="&#xc1;" horiz-adv-x="1329" d="M-141 0l18 106h119l721 1387h151l238 -1387h131l-18 -106h-490l19 106h149l-53 328h-568l-167 -328h147l-18 -106h-379zM334 541h491l-120 710zM735 1635l211 264h178l-282 -264h-107z" />
<glyph unicode="&#xc2;" horiz-adv-x="1329" d="M-141 0l18 106h119l721 1387h151l238 -1387h131l-18 -106h-490l19 106h149l-53 328h-568l-167 -328h147l-18 -106h-379zM334 541h491l-120 710zM512 1635l254 264h160l162 -264h-105l-153 161l-213 -161h-105z" />
<glyph unicode="&#xc3;" horiz-adv-x="1329" d="M-141 0l18 106h119l721 1387h151l238 -1387h131l-18 -106h-490l19 106h149l-53 328h-568l-167 -328h147l-18 -106h-379zM334 541h491l-120 710zM528 1667q18 102 76 160q55 59 131 59q29 0 59 -10q31 -12 72 -39l39 -26q25 -16 37 -21q18 -6 33 -6q39 0 63 27 q25 25 35 75h86q-23 -109 -76 -161q-55 -57 -139 -58q-61 0 -119 45l-4 2l-39 29q-20 16 -33 21q-18 6 -30 6q-37 0 -66 -29q-27 -27 -39 -74h-86z" />
<glyph unicode="&#xc4;" horiz-adv-x="1329" d="M-141 0l18 106h119l721 1387h151l238 -1387h131l-18 -106h-490l19 106h149l-53 328h-568l-167 -328h147l-18 -106h-379zM334 541h491l-120 710zM549 1768q10 49 45 82q39 35 80 34q45 0 70 -34q27 -35 16 -82q-8 -49 -45 -82q-39 -35 -82 -35t-67.5 35t-16.5 82z M899 1768q10 49 45 82q39 35 82 34.5t68 -34.5q27 -35 16 -82q-8 -49 -45 -82q-39 -35 -80 -35q-45 0 -69.5 35t-16.5 82z" />
<glyph unicode="&#xc5;" horiz-adv-x="1329" d="M-176 0l16 106h119l664 1278q-58 37 -80 99q-25 70 -11 143q23 117 107 195q86 80 188.5 80t162 -80t36.5 -195q-16 -82 -59 -143q-46 -65 -117 -99l219 -1278h131l-16 -106h-490l19 106h149l-55 328h-565l-170 -328h147l-18 -106h-377zM297 541h491l-120 710zM643 1626 q-12 -61 20.5 -106t90.5 -45q55 0 104 45q45 43 57 106q12 61 -20.5 106.5t-87.5 45.5q-58 0 -105 -43t-59 -109z" />
<glyph unicode="&#xc6;" horiz-adv-x="1843" d="M-162 0l19 106h116l756 1280h-192l18 107h1311l-60 -332h-110l37 209h-621l-86 -500h442l33 187h111l-86 -496h-111l33 187h-442l-111 -625h635l37 209h110l-57 -332h-1098l19 106h170l57 328h-483l-195 -328h148l-19 -106h-381zM346 541h442l148 845h-90z" />
<glyph unicode="&#xc7;" horiz-adv-x="1409" d="M96 422q-11 63 -11 134q0 89 17 189q61 348 280.5 561.5t514.5 213.5q111 0 229 -31q102 -27 250 -98l-61 -344h-101q0 187 -86 276q-86 90 -266 90q-213 0 -354 -170q-139 -168 -199 -498q-24 -132 -23 -240q0 -155 48 -257q80 -170 295 -170q152 0 262 80t182 237h164 q-96 -211 -254 -317.5t-373 -106.5q-131 0 -235 49q-102 49 -174 148q-80 111 -105 254zM342 -371l23 131q31 -16 68 -26q31 -8 65 -8q53 0 86 26q35 29 43 72q6 29 -6 72t-43 104h88q43 -61 63 -121q20 -61 13 -104q-16 -82 -80 -125q-68 -45 -166 -45q-37 0 -76 6 q-35 6 -78 18z" />
<glyph unicode="&#xc8;" horiz-adv-x="1343" d="M-29 0l19 106h172l223 1280h-172l18 107h1084l-60 -332h-110l37 209h-619l-86 -500h441l32 187h111l-86 -496h-113l35 187h-440l-111 -625h633l37 209h108l-57 -332h-1096zM674 1899h178l117 -264h-107z" />
<glyph unicode="&#xc9;" horiz-adv-x="1343" d="M-29 0l19 106h172l223 1280h-172l18 107h1084l-60 -332h-110l37 209h-619l-86 -500h441l32 187h111l-86 -496h-113l35 187h-440l-111 -625h633l37 209h108l-57 -332h-1096zM741 1635l211 264h178l-282 -264h-107z" />
<glyph unicode="&#xca;" horiz-adv-x="1343" d="M-29 0l19 106h172l223 1280h-172l18 107h1084l-60 -332h-110l37 209h-619l-86 -500h441l32 187h111l-86 -496h-113l35 187h-440l-111 -625h633l37 209h108l-57 -332h-1096zM561 1635l254 264h160l162 -264h-105l-153 161l-213 -161h-105z" />
<glyph unicode="&#xcb;" horiz-adv-x="1343" d="M-29 0l19 106h172l223 1280h-172l18 107h1084l-60 -332h-110l37 209h-619l-86 -500h441l32 187h111l-86 -496h-113l35 187h-440l-111 -625h633l37 209h108l-57 -332h-1096zM604 1768q10 49 45 82q39 35 80 34q45 0 70 -34q27 -35 16 -82q-8 -49 -45 -82q-39 -35 -82 -35 t-67.5 35t-16.5 82zM954 1768q10 49 45 82q39 35 82 34.5t68 -34.5q27 -35 16 -82q-8 -49 -45 -82q-39 -35 -80 -35q-45 0 -69.5 35t-16.5 82z" />
<glyph unicode="&#xcc;" horiz-adv-x="727" d="M-29 0l19 106h172l223 1280h-172l18 107h527l-21 -107h-170l-225 -1280h172l-18 -106h-525zM334 1899h178l117 -264h-107z" />
<glyph unicode="&#xcd;" horiz-adv-x="727" d="M-29 0l19 106h172l223 1280h-172l18 107h527l-21 -107h-170l-225 -1280h172l-18 -106h-525zM434 1635l211 264h178l-282 -264h-107z" />
<glyph unicode="&#xce;" horiz-adv-x="727" d="M-29 0l19 106h172l223 1280h-172l18 107h527l-21 -107h-170l-225 -1280h172l-18 -106h-525zM254 1635l254 264h160l162 -264h-105l-153 161l-213 -161h-105z" />
<glyph unicode="&#xcf;" horiz-adv-x="727" d="M-29 0l19 106h172l223 1280h-172l18 107h527l-21 -107h-170l-225 -1280h172l-18 -106h-525zM264 1768q10 49 45 82q39 35 80 34q45 0 70 -34q27 -35 16 -82q-8 -49 -45 -82q-39 -35 -82 -35t-67.5 35t-16.5 82zM614 1768q10 49 45 82q39 35 82 34.5t68 -34.5 q27 -35 16 -82q-8 -49 -45 -82q-39 -35 -80 -35q-45 0 -69.5 35t-16.5 82z" />
<glyph unicode="&#xd0;" horiz-adv-x="1486" d="M-20 0l20 106h170l106 613h-180l23 125h180l94 542h-170l19 107h534q346 0 506 -196.5t98.5 -549t-290.5 -548.5q-233 -199 -576 -199h-534zM350 106h170q262 0 432 166q168 166 223.5 475.5t-57.5 475.5q-111 164 -375 163h-170l-94 -542h303l-22 -125h-301z" />
<glyph unicode="&#xd1;" horiz-adv-x="1611" d="M-39 0l19 106h182l223 1280h-180l18 107h344l600 -1178l189 1071h-180l18 107h471l-18 -107h-183l-245 -1415h-109l-641 1258l-197 -1123h181l-19 -106h-473zM702 1667q18 102 76 160q55 59 131 59q29 0 59 -10q31 -12 72 -39l39 -26q25 -16 37 -21q18 -6 33 -6 q39 0 63 27q25 25 35 75h86q-23 -109 -76 -161q-55 -57 -139 -58q-61 0 -119 45l-4 2l-39 29q-20 16 -33 21q-18 6 -30 6q-37 0 -66 -29q-27 -27 -39 -74h-86z" />
<glyph unicode="&#xd2;" horiz-adv-x="1509" d="M96 422q-10 58 -10 125q0 90 18 198q31 182 105 324q76 143 194 254q111 100 228 147q123 49 260 50q295 0 436 -213q100 -150 100 -366q0 -92 -18 -196q-31 -174 -106 -323q-72 -141 -195 -254q-111 -100 -227 -148q-123 -49 -260 -49q-133 0 -242 49q-108 49 -178 148 q-80 111 -105 254zM309 745q-23 -132 -23 -239q0 -158 50 -260q82 -168 303 -168t362 168q139 166 199 499q24 137 24 246q0 155 -48 254q-82 168 -303.5 168t-362.5 -168q-144 -170 -201 -500zM758 1899h178l117 -264h-107z" />
<glyph unicode="&#xd3;" horiz-adv-x="1509" d="M96 422q-10 58 -10 125q0 90 18 198q31 182 105 324q76 143 194 254q111 100 228 147q123 49 260 50q295 0 436 -213q100 -150 100 -366q0 -92 -18 -196q-31 -174 -106 -323q-72 -141 -195 -254q-111 -100 -227 -148q-123 -49 -260 -49q-133 0 -242 49q-108 49 -178 148 q-80 111 -105 254zM309 745q-23 -132 -23 -239q0 -158 50 -260q82 -168 303 -168t362 168q139 166 199 499q24 137 24 246q0 155 -48 254q-82 168 -303.5 168t-362.5 -168q-144 -170 -201 -500zM825 1635l211 264h178l-282 -264h-107z" />
<glyph unicode="&#xd4;" horiz-adv-x="1509" d="M96 422q-10 58 -10 125q0 90 18 198q31 182 105 324q76 143 194 254q111 100 228 147q123 49 260 50q295 0 436 -213q100 -150 100 -366q0 -92 -18 -196q-31 -174 -106 -323q-72 -141 -195 -254q-111 -100 -227 -148q-123 -49 -260 -49q-133 0 -242 49q-108 49 -178 148 q-80 111 -105 254zM309 745q-23 -132 -23 -239q0 -158 50 -260q82 -168 303 -168t362 168q139 166 199 499q24 137 24 246q0 155 -48 254q-82 168 -303.5 168t-362.5 -168q-144 -170 -201 -500zM645 1635l254 264h160l162 -264h-105l-153 161l-213 -161h-105z" />
<glyph unicode="&#xd5;" horiz-adv-x="1509" d="M96 422q-10 58 -10 125q0 90 18 198q31 182 105 324q76 143 194 254q111 100 228 147q123 49 260 50q295 0 436 -213q100 -150 100 -366q0 -92 -18 -196q-31 -174 -106 -323q-72 -141 -195 -254q-111 -100 -227 -148q-123 -49 -260 -49q-133 0 -242 49q-108 49 -178 148 q-80 111 -105 254zM309 745q-23 -132 -23 -239q0 -158 50 -260q82 -168 303 -168t362 168q139 166 199 499q24 137 24 246q0 155 -48 254q-82 168 -303.5 168t-362.5 -168q-144 -170 -201 -500zM651 1667q18 102 76 160q55 59 131 59q29 0 59 -10q31 -12 72 -39l39 -26 q25 -16 37 -21q18 -6 33 -6q39 0 63 27q25 25 35 75h86q-23 -109 -76 -161q-55 -57 -139 -58q-61 0 -119 45l-4 2l-39 29q-20 16 -33 21q-18 6 -30 6q-37 0 -66 -29q-27 -27 -39 -74h-86z" />
<glyph unicode="&#xd6;" horiz-adv-x="1509" d="M96 422q-10 58 -10 125q0 90 18 198q31 182 105 324q76 143 194 254q111 100 228 147q123 49 260 50q295 0 436 -213q100 -150 100 -366q0 -92 -18 -196q-31 -174 -106 -323q-72 -141 -195 -254q-111 -100 -227 -148q-123 -49 -260 -49q-133 0 -242 49q-108 49 -178 148 q-80 111 -105 254zM309 745q-23 -132 -23 -239q0 -158 50 -260q82 -168 303 -168t362 168q139 166 199 499q24 137 24 246q0 155 -48 254q-82 168 -303.5 168t-362.5 -168q-144 -170 -201 -500zM688 1768q10 49 45 82q39 35 80 34q45 0 70 -34q27 -35 16 -82q-8 -49 -45 -82 q-39 -35 -82 -35t-67.5 35t-16.5 82zM1038 1768q10 49 45 82q39 35 82 34.5t68 -34.5q27 -35 16 -82q-8 -49 -45 -82q-39 -35 -80 -35q-45 0 -69.5 35t-16.5 82z" />
<glyph unicode="&#xd7;" d="M256 180l414 461l-414 463l100 113l416 -461l416 461l102 -113l-416 -463l416 -461l-102 -112l-416 460l-416 -460z" />
<glyph unicode="&#xd8;" horiz-adv-x="1509" d="M-39 12l205 207q-59 102 -76 236q-16 131 12 290q61 342 281 560q219 215 508 215q126 0 227 -43q102 -43 172 -125l197 198l59 -71l-200 -203q58 -108 73 -240q16 -139 -10 -291q-61 -346 -279 -559q-218 -215 -509 -215q-129 0 -228 43q-100 43 -176 129l-197 -200z M287 530q-4 -98 12 -178l881 887q-43 88 -119 131q-78 43 -189 43q-221 0 -362 -168q-143 -170 -201 -500q-18 -106 -22 -215zM332 256q45 -92 119 -133q80 -45 188 -45q221 0 362 168q139 166 199 499q22 117 25 216q2 88 -15 180z" />
<glyph unicode="&#xd9;" horiz-adv-x="1552" d="M201 1386l18 107h526l-20 -107h-170l-135 -772q-22 -126 -22 -217q0 -118 36 -182q63 -113 271 -113q205 0 309 113q104 114 153 399l136 772h-173l21 107h453l-19 -107h-172l-137 -792q-57 -336 -203 -481q-141 -141 -426 -142q-283 0 -377 142q-59 88 -59 252 q0 101 22 229l140 792h-172zM815 1899h178l117 -264h-107z" />
<glyph unicode="&#xda;" horiz-adv-x="1552" d="M201 1386l18 107h526l-20 -107h-170l-135 -772q-22 -126 -22 -217q0 -118 36 -182q63 -113 271 -113q205 0 309 113q104 114 153 399l136 772h-173l21 107h453l-19 -107h-172l-137 -792q-57 -336 -203 -481q-141 -141 -426 -142q-283 0 -377 142q-59 88 -59 252 q0 101 22 229l140 792h-172zM882 1635l211 264h178l-282 -264h-107z" />
<glyph unicode="&#xdb;" horiz-adv-x="1552" d="M201 1386l18 107h526l-20 -107h-170l-135 -772q-22 -126 -22 -217q0 -118 36 -182q63 -113 271 -113q205 0 309 113q104 114 153 399l136 772h-173l21 107h453l-19 -107h-172l-137 -792q-57 -336 -203 -481q-141 -141 -426 -142q-283 0 -377 142q-59 88 -59 252 q0 101 22 229l140 792h-172zM702 1635l254 264h160l162 -264h-105l-153 161l-213 -161h-105z" />
<glyph unicode="&#xdc;" horiz-adv-x="1552" d="M201 1386l18 107h526l-20 -107h-170l-135 -772q-22 -126 -22 -217q0 -118 36 -182q63 -113 271 -113q205 0 309 113q104 114 153 399l136 772h-173l21 107h453l-19 -107h-172l-137 -792q-57 -336 -203 -481q-141 -141 -426 -142q-283 0 -377 142q-59 88 -59 252 q0 101 22 229l140 792h-172zM745 1768q10 49 45 82q39 35 80 34q45 0 70 -34q27 -35 16 -82q-8 -49 -45 -82q-39 -35 -82 -35t-67.5 35t-16.5 82zM1095 1768q10 49 45 82q39 35 82 34.5t68 -34.5q27 -35 16 -82q-8 -49 -45 -82q-39 -35 -80 -35q-45 0 -69.5 35t-16.5 82z " />
<glyph unicode="&#xdd;" horiz-adv-x="1214" d="M90 1386l21 107h497l-16 -107h-158l230 -604l442 604h-152l19 107h391l-18 -107h-127l-533 -724l-96 -556h172l-19 -106h-526l19 106h172l94 537l-285 743h-127zM678 1635l211 264h178l-282 -264h-107z" />
<glyph unicode="&#xde;" horiz-adv-x="1243" d="M-29 0l19 106h172l223 1280h-172l18 107h564l-21 -107h-207l-39 -219h283q201 0 299 -114.5t66 -304.5q-34 -194 -172 -308q-139 -115 -340 -114h-281l-41 -220h209l-19 -106h-561zM401 434h238q131 0 217 80q84 78 113 234q25 154 -30.5 233.5t-190.5 79.5h-238z" />
<glyph unicode="&#xdf;" horiz-adv-x="1230" d="M-158 -426l11 98q95 0 141 56q47 61 74 206l219 1252q31 174 149 272q121 98 309 98q193 0 275 -104q80 -100 55 -315h-18q-135 0 -217 -54q-84 -55 -101 -147q-10 -53 9 -90q18 -41 75 -86l72 -55q120 -98 160 -185q39 -86 18 -198q-28 -154 -147 -252t-289 -99 q-74 0 -148 19q-72 18 -139 53l41 233h98q-14 -98 27 -153q41 -53 133 -53q100 0 168 61.5t86 163.5q14 82 -10 143q-23 51 -121 131l-65 54q-86 68 -113 129q-29 68 -14 147q20 119 112 205q88 82 232 106q14 119 -37 183q-53 66 -160 65q-119 0 -184.5 -65.5t-89.5 -202.5 l-220 -1256q-31 -176 -131 -270q-96 -90 -260 -90z" />
<glyph unicode="&#xe0;" horiz-adv-x="1097" d="M61 295q0 41 11 106q61 356 282 537q190 154 416 154q154 0 207 -29l-168 -957h141l-18 -106h-291l29 166q-121 -195 -314 -195q-158 0 -237 119q-58 86 -58 205zM238 299q0 -213 186 -213q115 0 190.5 100.5t110.5 292.5l84 482q0 29 -74 28q-172 0 -307 -149 q-131 -150 -180 -424q-10 -54 -10 -117zM381 1636h178l168 -376h-107z" />
<glyph unicode="&#xe1;" horiz-adv-x="1097" d="M61 295q0 41 11 106q61 356 282 537q190 154 416 154q154 0 207 -29l-168 -957h141l-18 -106h-291l29 166q-121 -195 -314 -195q-158 0 -237 119q-58 86 -58 205zM238 299q0 -213 186 -213q115 0 190.5 100.5t110.5 292.5l84 482q0 29 -74 28q-172 0 -307 -149 q-131 -150 -180 -424q-10 -54 -10 -117zM524 1262l299 376h178l-370 -376h-107z" />
<glyph unicode="&#xe2;" horiz-adv-x="1097" d="M61 295q0 41 11 106q61 356 282 537q190 154 416 154q154 0 207 -29l-168 -957h141l-18 -106h-291l29 166q-121 -195 -314 -195q-158 0 -237 119q-58 86 -58 205zM238 299q0 -213 186 -213q115 0 190.5 100.5t110.5 292.5l84 482q0 29 -74 28q-172 0 -307 -149 q-131 -150 -180 -424q-10 -54 -10 -117zM364 1262l279 376h149l146 -376h-105l-137 260l-227 -260h-105z" />
<glyph unicode="&#xe3;" horiz-adv-x="1097" d="M61 295q0 41 11 106q61 356 282 537q190 154 416 154q154 0 207 -29l-168 -957h141l-18 -106h-291l29 166q-121 -195 -314 -195q-158 0 -237 119q-58 86 -58 205zM238 299q0 -213 186 -213q115 0 190.5 100.5t110.5 292.5l84 482q0 29 -74 28q-172 0 -307 -149 q-131 -150 -180 -424q-10 -54 -10 -117zM381 1309q25 133 84 209q58 74 141 73q33 0 59 -14q35 -20 56 -47l41 -55q15 -22 30 -31q10 -8 31 -8q39 0 67.5 41t47.5 114h86q-25 -133 -84 -209q-58 -74 -141 -73q-35 0 -62 14q-31 18 -53 47l-41 55q-16 23 -33 31q-14 8 -31 8 q-37 0 -65 -41q-31 -43 -47 -114h-86z" />
<glyph unicode="&#xe4;" horiz-adv-x="1097" d="M61 295q0 41 11 106q61 356 282 537q190 154 416 154q154 0 207 -29l-168 -957h141l-18 -106h-291l29 166q-121 -195 -314 -195q-158 0 -237 119q-58 86 -58 205zM238 299q0 -213 186 -213q115 0 190.5 100.5t110.5 292.5l84 482q0 29 -74 28q-172 0 -307 -149 q-131 -150 -180 -424q-10 -54 -10 -117zM407 1452q8 49 45 82q39 35 80 35q43 0 67.5 -35t16.5 -82t-45 -84q-35 -33 -82 -33t-67 33q-23 33 -15 84zM758 1452q8 49 45 82q39 35 79 35q43 0 68 -35t16.5 -82t-45.5 -84q-35 -33 -79 -33q-49 0 -70 33q-22 33 -14 84z" />
<glyph unicode="&#xe5;" horiz-adv-x="1097" d="M61 295q0 41 11 106q61 356 282 537q190 154 416 154q154 0 207 -29l-168 -957h141l-18 -106h-291l29 166q-121 -195 -314 -195q-158 0 -237 119q-58 86 -58 205zM238 299q0 -213 186 -213q115 0 190.5 100.5t110.5 292.5l84 482q0 29 -74 28q-172 0 -307 -149 q-131 -150 -180 -424q-10 -54 -10 -117zM436 1524q23 119 104 194q86 80 191 80q102 0 162 -80q55 -76 37 -194q-18 -115 -104.5 -195t-190.5 -80q-100 0 -160 80q-59 82 -39 195zM547 1524q-12 -66 20 -109q31 -43 90 -43q58 0 105 43q43 39 57 109q10 66 -20 106 q-33 45 -91 45t-104 -43q-45 -40 -57 -108z" />
<glyph unicode="&#xe6;" horiz-adv-x="1730" d="M61 295q0 41 11 106q61 356 282 537q186 154 416 154q154 0 207 -29l-19 -96q143 125 340 125q352 0 353 -277q0 -397 -740 -407q-4 -49 -4 -72q0 -94 31 -156q53 -111 197 -110q102 0 155 34q90 63 113 146h123q-37 -129 -172 -217q-92 -61 -279 -62q-215 0 -309 197 q-129 -197 -397 -197h-13q-158 0 -237 119q-58 86 -58 205zM238 297q0 -211 186 -211q113 0 188 100q80 104 113 293l84 482q0 29 -74 28q-172 0 -307 -149q-131 -150 -180 -424q-10 -53 -10 -119zM932 514q285 14 440 119q102 66 103 188q0 172 -205 172q-121 0 -205 -102 q-80 -98 -133 -377z" />
<glyph unicode="&#xe7;" horiz-adv-x="1030" d="M78 385q0 76 14 147q43 252 199 408q152 152 360 152q98 0 178 -23q90 -27 168 -72l-47 -272h-96v27q0 119 -47 178q-51 63 -170 63q-133 0 -223 -116.5t-129 -344.5q-18 -104 -19 -188q0 -88 27 -158q47 -117 182 -116q109 0 182 61q72 59 119 188h135 q-66 -172 -180.5 -260t-273.5 -88q-207 0 -310 154q-69 106 -69 260zM178 -371l23 131q31 -16 68 -26q31 -8 65 -8q53 0 86 26q35 29 43 72q6 29 -6 72t-43 104h88q43 -61 63 -121q20 -61 13 -104q-16 -82 -80 -125q-68 -45 -166 -45q-37 0 -76 6q-35 6 -78 18z" />
<glyph unicode="&#xe8;" horiz-adv-x="1089" d="M78 385q0 74 14 145q43 250 197 408q150 154 366 154q352 0 353 -277q0 -205 -185 -303q-190 -102 -553 -104q-4 -49 -4 -72q0 -94 31 -156q51 -111 195 -110q102 0 155 34q92 66 115 146h121q-39 -131 -170 -217q-94 -61 -278.5 -61.5t-287.5 153.5q-69 106 -69 260z M289 514q291 16 442 119q100 63 100 188q0 172 -202 172q-121 0 -205 -102.5t-135 -376.5zM416 1636h178l168 -376h-107z" />
<glyph unicode="&#xe9;" horiz-adv-x="1089" d="M78 385q0 74 14 145q43 250 197 408q150 154 366 154q352 0 353 -277q0 -205 -185 -303q-190 -102 -553 -104q-4 -49 -4 -72q0 -94 31 -156q51 -111 195 -110q102 0 155 34q92 66 115 146h121q-39 -131 -170 -217q-94 -61 -278.5 -61.5t-287.5 153.5q-69 106 -69 260z M289 514q291 16 442 119q100 63 100 188q0 172 -202 172q-121 0 -205 -102.5t-135 -376.5zM559 1262l299 376h178l-370 -376h-107z" />
<glyph unicode="&#xea;" horiz-adv-x="1089" d="M78 385q0 74 14 145q43 250 197 408q150 154 366 154q352 0 353 -277q0 -205 -185 -303q-190 -102 -553 -104q-4 -49 -4 -72q0 -94 31 -156q51 -111 195 -110q102 0 155 34q92 66 115 146h121q-39 -131 -170 -217q-94 -61 -278.5 -61.5t-287.5 153.5q-69 106 -69 260z M289 514q291 16 442 119q100 63 100 188q0 172 -202 172q-121 0 -205 -102.5t-135 -376.5zM399 1262l279 376h149l146 -376h-105l-137 260l-227 -260h-105z" />
<glyph unicode="&#xeb;" horiz-adv-x="1089" d="M78 385q0 74 14 145q43 250 197 408q150 154 366 154q352 0 353 -277q0 -205 -185 -303q-190 -102 -553 -104q-4 -49 -4 -72q0 -94 31 -156q51 -111 195 -110q102 0 155 34q92 66 115 146h121q-39 -131 -170 -217q-94 -61 -278.5 -61.5t-287.5 153.5q-69 106 -69 260z M289 514q291 16 442 119q100 63 100 188q0 172 -202 172q-121 0 -205 -102.5t-135 -376.5zM442 1452q8 49 45 82q39 35 80 35q43 0 67.5 -35t16.5 -82t-45 -84q-35 -33 -82 -33t-67 33q-23 33 -15 84zM793 1452q8 49 45 82q39 35 79 35q43 0 68 -35t16.5 -82t-45.5 -84 q-35 -33 -79 -33q-49 0 -70 33q-22 33 -14 84z" />
<glyph unicode="&#xec;" horiz-adv-x="587" d="M131 0l168 956h-158l19 107h323l-168 -957h156l-16 -106h-324zM164 1636h178l168 -376h-107z" />
<glyph unicode="&#xed;" horiz-adv-x="587" d="M131 0l168 956h-158l19 107h323l-168 -957h156l-16 -106h-324zM307 1262l299 376h178l-370 -376h-107z" />
<glyph unicode="&#xee;" horiz-adv-x="587" d="M131 0l168 956h-158l19 107h323l-168 -957h156l-16 -106h-324zM147 1262l279 376h149l146 -376h-105l-137 260l-227 -260h-105z" />
<glyph unicode="&#xef;" horiz-adv-x="587" d="M131 0l168 956h-158l19 107h323l-168 -957h156l-16 -106h-324zM190 1452q8 49 45 82q39 35 80 35q43 0 67.5 -35t16.5 -82t-45 -84q-35 -33 -82 -33t-67 33q-23 33 -15 84zM541 1452q8 49 45 82q39 35 79 35q43 0 68 -35t16.5 -82t-45.5 -84q-35 -33 -79 -33 q-49 0 -70 33q-22 33 -14 84z" />
<glyph unicode="&#xf0;" horiz-adv-x="1107" d="M49 518q41 238 193 381q156 145 358 145q18 0 64 -4q53 -4 79 -10q-8 51 -34 107q-31 66 -60 108l-315 -149l-19 78l287 135q-47 61 -108 98q-70 43 -146 63l33 86q88 -23 186 -73q86 -45 158 -115l315 150l21 -78l-283 -133q137 -170 187 -363q49 -195 12 -412 q-43 -252 -199 -407q-154 -154 -362 -154q-205 0 -307.5 151.5t-59.5 395.5zM242 508q-37 -209 12 -323.5t178 -114.5q131 0 221 114.5t127 327.5q18 117 17 217q-2 102 -29 199q-55 12 -76 14q-49 4 -71 4q-156 0 -248 -106q-90 -107 -131 -332z" />
<glyph unicode="&#xf1;" horiz-adv-x="1185" d="M129 0l168 956h-160l21 107h323l-32 -189q63 106 147 162t180 56q158 0 215 -101q35 -63 35 -164q0 -72 -14 -151l-101 -570h148l-19 -106h-315l109 618q18 104 18 173q0 66 -14 96q-31 72 -140 71q-115 0 -192 -94q-76 -90 -107 -272l-104 -592h-166zM408 1309 q25 133 84 209q58 74 141 73q33 0 59 -14q35 -20 56 -47l41 -55q15 -22 30 -31q10 -8 31 -8q39 0 67.5 41t47.5 114h86q-25 -133 -84 -209q-58 -74 -141 -73q-35 0 -62 14q-31 18 -53 47l-41 55q-16 23 -33 31q-14 8 -31 8q-37 0 -65 -41q-31 -43 -47 -114h-86z" />
<glyph unicode="&#xf2;" horiz-adv-x="1107" d="M78 385q0 76 14 147q43 252 196.5 406t364.5 154q207 0 310 -154q68 -106 67 -258q0 -86 -12 -148q-43 -252 -199 -407q-154 -154 -362 -154q-207 0 -310 154q-69 106 -69 260zM266 348q0 -92 27 -162q49 -117 180 -116q133 0 223 116q86 113 127 346q18 104 19 185 q0 90 -27 160q-49 117 -180 116q-132 0 -221 -116.5t-129 -344.5q-19 -104 -19 -184zM424 1636h178l168 -376h-107z" />
<glyph unicode="&#xf3;" horiz-adv-x="1107" d="M78 385q0 76 14 147q43 252 196.5 406t364.5 154q207 0 310 -154q68 -106 67 -258q0 -86 -12 -148q-43 -252 -199 -407q-154 -154 -362 -154q-207 0 -310 154q-69 106 -69 260zM266 348q0 -92 27 -162q49 -117 180 -116q133 0 223 116q86 113 127 346q18 104 19 185 q0 90 -27 160q-49 117 -180 116q-132 0 -221 -116.5t-129 -344.5q-19 -104 -19 -184zM567 1262l299 376h178l-370 -376h-107z" />
<glyph unicode="&#xf4;" horiz-adv-x="1107" d="M78 385q0 76 14 147q43 252 196.5 406t364.5 154q207 0 310 -154q68 -106 67 -258q0 -86 -12 -148q-43 -252 -199 -407q-154 -154 -362 -154q-207 0 -310 154q-69 106 -69 260zM266 348q0 -92 27 -162q49 -117 180 -116q133 0 223 116q86 113 127 346q18 104 19 185 q0 90 -27 160q-49 117 -180 116q-132 0 -221 -116.5t-129 -344.5q-19 -104 -19 -184zM407 1262l279 376h149l146 -376h-105l-137 260l-227 -260h-105z" />
<glyph unicode="&#xf5;" horiz-adv-x="1107" d="M78 385q0 76 14 147q43 252 196.5 406t364.5 154q207 0 310 -154q68 -106 67 -258q0 -86 -12 -148q-43 -252 -199 -407q-154 -154 -362 -154q-207 0 -310 154q-69 106 -69 260zM266 348q0 -92 27 -162q49 -117 180 -116q133 0 223 116q86 113 127 346q18 104 19 185 q0 90 -27 160q-49 117 -180 116q-132 0 -221 -116.5t-129 -344.5q-19 -104 -19 -184zM424 1309q25 133 84 209q58 74 141 73q33 0 59 -14q35 -20 56 -47l41 -55q15 -22 30 -31q10 -8 31 -8q39 0 67.5 41t47.5 114h86q-25 -133 -84 -209q-58 -74 -141 -73q-35 0 -62 14 q-31 18 -53 47l-41 55q-16 23 -33 31q-14 8 -31 8q-37 0 -65 -41q-31 -43 -47 -114h-86z" />
<glyph unicode="&#xf6;" horiz-adv-x="1107" d="M78 385q0 76 14 147q43 252 196.5 406t364.5 154q207 0 310 -154q68 -106 67 -258q0 -86 -12 -148q-43 -252 -199 -407q-154 -154 -362 -154q-207 0 -310 154q-69 106 -69 260zM266 348q0 -92 27 -162q49 -117 180 -116q133 0 223 116q86 113 127 346q18 104 19 185 q0 90 -27 160q-49 117 -180 116q-132 0 -221 -116.5t-129 -344.5q-19 -104 -19 -184zM450 1452q8 49 45 82q39 35 80 35q43 0 67.5 -35t16.5 -82t-45 -84q-35 -33 -82 -33t-67 33q-23 33 -15 84zM801 1452q8 49 45 82q39 35 79 35q43 0 68 -35t16.5 -82t-45.5 -84 q-35 -33 -79 -33q-49 0 -70 33q-22 33 -14 84z" />
<glyph unicode="&#xf7;" d="M195 561v162h1155v-162h-1155zM651 272.5q0 53.5 35 94.5q33 39 86 39q51 0 84 -39q37 -43 37 -94.5t-37 -94.5q-33 -39 -84 -39q-53 0 -86 39q-35 41 -35 94.5zM651 1012q0 53 35 94q33 39 86 39q51 0 84 -39q37 -43 37 -94t-37 -94q-33 -39 -84 -39t-86 39t-35 94z" />
<glyph unicode="&#xf8;" horiz-adv-x="1107" d="M-31 -31l166 178q-39 74 -51 172q-12 100 8 213q43 252 196.5 406t362.5 154q86 0 154 -25q63 -23 117 -76l153 166l58 -63l-160 -172q41 -70 53 -172.5t-8 -217.5q-43 -252 -199 -407q-154 -154 -362 -154q-86 0 -152 27q-70 29 -119 80l-159 -172zM270 401 q-4 -59 0 -108l547 586q-25 59 -69 86q-47 29 -113 28q-132 0 -221 -116.5t-129 -344.5q-11 -61 -15 -131zM293 190q25 -59 69 -90q47 -31 111 -30q131 0 221 118q89 117 129 344q16 106 19 136q4 68 -2 112z" />
<glyph unicode="&#xf9;" horiz-adv-x="1185" d="M127 956l18 107h316l-109 -619q-16 -92 -16 -172q0 -68 12 -94q31 -72 141 -72q115 0 191 95q78 96 108 272l105 590h166l-168 -957h156l-19 -106h-321l32 188q-63 -106 -147 -161q-83 -55 -178 -56q-160 0 -217 101q-35 63 -35 164q0 72 14 151l100 569h-149zM396 1636 h178l168 -376h-107z" />
<glyph unicode="&#xfa;" horiz-adv-x="1185" d="M127 956l18 107h316l-109 -619q-16 -92 -16 -172q0 -68 12 -94q31 -72 141 -72q115 0 191 95q78 96 108 272l105 590h166l-168 -957h156l-19 -106h-321l32 188q-63 -106 -147 -161q-83 -55 -178 -56q-160 0 -217 101q-35 63 -35 164q0 72 14 151l100 569h-149zM539 1262 l299 376h178l-370 -376h-107z" />
<glyph unicode="&#xfb;" horiz-adv-x="1185" d="M127 956l18 107h316l-109 -619q-16 -92 -16 -172q0 -68 12 -94q31 -72 141 -72q115 0 191 95q78 96 108 272l105 590h166l-168 -957h156l-19 -106h-321l32 188q-63 -106 -147 -161q-83 -55 -178 -56q-160 0 -217 101q-35 63 -35 164q0 72 14 151l100 569h-149zM379 1262 l279 376h149l146 -376h-105l-137 260l-227 -260h-105z" />
<glyph unicode="&#xfc;" horiz-adv-x="1185" d="M127 956l18 107h316l-109 -619q-16 -92 -16 -172q0 -68 12 -94q31 -72 141 -72q115 0 191 95q78 96 108 272l105 590h166l-168 -957h156l-19 -106h-321l32 188q-63 -106 -147 -161q-83 -55 -178 -56q-160 0 -217 101q-35 63 -35 164q0 72 14 151l100 569h-149zM422 1452 q8 49 45 82q39 35 80 35q43 0 67.5 -35t16.5 -82t-45 -84q-35 -33 -82 -33t-67 33q-23 33 -15 84zM773 1452q8 49 45 82q39 35 79 35q43 0 68 -35t16.5 -82t-45.5 -84q-35 -33 -79 -33q-49 0 -70 33q-22 33 -14 84z" />
<glyph unicode="&#xfd;" horiz-adv-x="1040" d="M-68 -424l35 203h84q-2 -10 -2 -31q0 -41 19 -65q23 -35 79 -35q160 0 297 153l-227 1155h-108l18 107h248l213 -1055q147 246 180 340q115 311 135 598h-108l18 109h248q-88 -569 -248 -875q-231 -444 -414 -575q-82 -59 -297 -60q-45 0 -84 9q-57 12 -86 22zM534 1262 l299 376h178l-370 -376h-107z" />
<glyph unicode="&#xfe;" horiz-adv-x="1177" d="M39 -426l328 1876h-158l16 106h326l-115 -659q63 100 150 147q84 47 194 48q174 0 260 -154q55 -101 56 -246q0 -80 -15 -160q-43 -248 -182 -405q-137 -156 -315 -156q-109 0 -178 47q-68 46 -99 148l-102 -592h-166zM348 338q0 -84 31 -152q49 -100 174 -100t211 113 q84 113 125 333q16 90 16 180.5t-24 151.5q-47 113 -172 113q-129 0 -211 -100.5t-117 -292.5l-19 -105q-14 -73 -14 -141z" />
<glyph unicode="&#xff;" horiz-adv-x="1040" d="M-68 -424l35 203h84q-2 -10 -2 -31q0 -41 19 -65q23 -35 79 -35q160 0 297 153l-227 1155h-108l18 107h248l213 -1055q147 246 180 340q115 311 135 598h-108l18 109h248q-88 -569 -248 -875q-231 -444 -414 -575q-82 -59 -297 -60q-45 0 -84 9q-57 12 -86 22zM417 1452 q8 49 45 82q39 35 80 35q43 0 67.5 -35t16.5 -82t-45 -84q-35 -33 -82 -33t-67 33q-23 33 -15 84zM768 1452q8 49 45 82q39 35 79 35q43 0 68 -35t16.5 -82t-45.5 -84q-35 -33 -79 -33q-49 0 -70 33q-22 33 -14 84z" />
<glyph unicode="&#x100;" horiz-adv-x="1329" d="M535 1693l24 148h539l-27 -148h-536zM-141 0l18 106h119l721 1387h151l238 -1387h131l-18 -106h-490l19 106h149l-53 328h-568l-167 -328h147l-18 -106h-379zM334 541h491l-120 710z" />
<glyph unicode="&#x101;" horiz-adv-x="1097" d="M365 1378l24 148h539l-27 -148h-536zM61 295q0 41 11 106q61 356 282 537q190 154 416 154q154 0 207 -29l-168 -957h141l-18 -106h-291l29 166q-121 -195 -314 -195q-158 0 -237 119q-58 86 -58 205zM238 299q0 -213 186 -213q115 0 190.5 100.5t110.5 292.5l84 482 q0 29 -74 28q-172 0 -307 -149q-131 -150 -180 -424q-10 -54 -10 -117z" />
<glyph unicode="&#x102;" horiz-adv-x="1329" d="M562 1897h86q0 -82 39 -115q37 -35 131 -35t143 35q53 35 78 115h86q-33 -141 -119 -215q-84 -72 -213 -72q-131 0 -190 72q-57 68 -41 215zM-141 0l18 106h119l721 1387h151l238 -1387h131l-18 -106h-490l19 106h149l-53 328h-568l-167 -328h147l-18 -106h-379zM334 541 h491l-120 710z" />
<glyph unicode="&#x103;" horiz-adv-x="1097" d="M404 1581h86q0 -82 39 -115q37 -35 131 -35t143 35q53 35 78 115h86q-33 -141 -119 -215q-84 -72 -213 -72q-131 0 -190 72q-57 68 -41 215zM61 295q0 41 11 106q61 356 282 537q190 154 416 154q154 0 207 -29l-168 -957h141l-18 -106h-291l29 166q-121 -195 -314 -195 q-158 0 -237 119q-58 86 -58 205zM238 299q0 -213 186 -213q115 0 190.5 100.5t110.5 292.5l84 482q0 29 -74 28q-172 0 -307 -149q-131 -150 -180 -424q-10 -54 -10 -117z" />
<glyph unicode="&#x104;" horiz-adv-x="1329" d="M580 -223q10 53 45 102q43 61 109 121h86l-3 -2q-96 -117 -106 -170q-8 -45 16.5 -73.5t73.5 -28.5q25 0 53 6q18 4 56 20l-23 -127q-45 -12 -65 -14q-41 -4 -60 -4q-98 0 -149 45q-49 43 -33 125zM-141 0l18 106h119l721 1387h151l238 -1387h131l-18 -106h-490l19 106 h149l-53 328h-568l-167 -328h147l-18 -106h-379zM334 541h491l-120 710z" />
<glyph unicode="&#x105;" horiz-adv-x="1097" d="M483 -223q10 53 45 102q43 61 109 121h86l-3 -2q-96 -117 -106 -170q-8 -45 16.5 -73.5t73.5 -28.5q25 0 53 6q18 4 56 20l-23 -127q-45 -12 -65 -14q-41 -4 -60 -4q-98 0 -149 45q-49 43 -33 125zM61 295q0 41 11 106q61 356 282 537q190 154 416 154q154 0 207 -29 l-168 -957h141l-18 -106h-291l29 166q-121 -195 -314 -195q-158 0 -237 119q-58 86 -58 205zM238 299q0 -213 186 -213q115 0 190.5 100.5t110.5 292.5l84 482q0 29 -74 28q-172 0 -307 -149q-131 -150 -180 -424q-10 -54 -10 -117z" />
<glyph unicode="&#x106;" horiz-adv-x="1409" d="M96 422q-11 63 -11 134q0 89 17 189q61 348 280.5 561.5t514.5 213.5q111 0 229 -31q102 -27 250 -98l-61 -344h-101q0 187 -86 276q-86 90 -266 90q-213 0 -354 -170q-139 -168 -199 -498q-24 -132 -23 -240q0 -155 48 -257q80 -170 295 -170q152 0 262 80t182 237h164 q-96 -211 -254 -317.5t-373 -106.5q-131 0 -235 49q-102 49 -174 148q-80 111 -105 254zM809 1635l211 264h178l-282 -264h-107z" />
<glyph unicode="&#x107;" horiz-adv-x="1030" d="M78 385q0 76 14 147q43 252 199 408q152 152 360 152q98 0 178 -23q90 -27 168 -72l-47 -272h-96v27q0 119 -47 178q-51 63 -170 63q-133 0 -223 -116.5t-129 -344.5q-18 -104 -19 -188q0 -88 27 -158q47 -117 182 -116q109 0 182 61q72 59 119 188h135 q-66 -172 -180.5 -260t-273.5 -88q-207 0 -310 154q-69 106 -69 260zM559 1262l299 376h178l-370 -376h-107z" />
<glyph unicode="&#x108;" horiz-adv-x="1409" d="M635 1635l254 264h160l162 -264h-105l-153 161l-213 -161h-105zM96 422q-11 63 -11 134q0 89 17 189q61 348 280.5 561.5t514.5 213.5q111 0 229 -31q102 -27 250 -98l-61 -344h-101q0 187 -86 276q-86 90 -266 90q-213 0 -354 -170q-139 -168 -199 -498 q-24 -132 -23 -240q0 -155 48 -257q80 -170 295 -170q152 0 262 80t182 237h164q-96 -211 -254 -317.5t-373 -106.5q-131 0 -235 49q-102 49 -174 148q-80 111 -105 254z" />
<glyph unicode="&#x109;" horiz-adv-x="1030" d="M407 1262l279 376h149l146 -376h-105l-137 260l-227 -260h-105zM78 385q0 76 14 147q43 252 199 408q152 152 360 152q98 0 178 -23q90 -27 168 -72l-47 -272h-96v27q0 119 -47 178q-51 63 -170 63q-133 0 -223 -116.5t-129 -344.5q-18 -104 -19 -188q0 -88 27 -158 q47 -117 182 -116q109 0 182 61q72 59 119 188h135q-66 -172 -180.5 -260t-273.5 -88q-207 0 -310 154q-69 106 -69 260z" />
<glyph unicode="&#x10a;" horiz-adv-x="1409" d="M872.5 1770q10.5 49 45.5 82q39 35 80 34q43 0 67 -34q27 -37 19 -82q-8 -49 -45 -82q-39 -35 -82 -35q-45 0 -70 35q-25 33 -14.5 82zM96 422q-11 63 -11 134q0 89 17 189q61 348 280.5 561.5t514.5 213.5q111 0 229 -31q102 -27 250 -98l-61 -344h-101q0 187 -86 276 q-86 90 -266 90q-213 0 -354 -170q-139 -168 -199 -498q-24 -132 -23 -240q0 -155 48 -257q80 -170 295 -170q152 0 262 80t182 237h164q-96 -211 -254 -317.5t-373 -106.5q-131 0 -235 49q-102 49 -174 148q-80 111 -105 254z" />
<glyph unicode="&#x10b;" horiz-adv-x="1030" d="M620.5 1452q8.5 49 44.5 82q39 35 82 35t67.5 -35t16.5 -82t-45 -84q-35 -33 -82 -33t-67 33q-25 35 -16.5 84zM78 385q0 76 14 147q43 252 199 408q152 152 360 152q98 0 178 -23q90 -27 168 -72l-47 -272h-96v27q0 119 -47 178q-51 63 -170 63q-133 0 -223 -116.5 t-129 -344.5q-18 -104 -19 -188q0 -88 27 -158q47 -117 182 -116q109 0 182 61q72 59 119 188h135q-66 -172 -180.5 -260t-273.5 -88q-207 0 -310 154q-69 106 -69 260z" />
<glyph unicode="&#x10c;" horiz-adv-x="1409" d="M96 422q-11 63 -11 134q0 89 17 189q61 348 280.5 561.5t514.5 213.5q111 0 229 -31q102 -27 250 -98l-61 -344h-101q0 187 -86 276q-86 90 -266 90q-213 0 -354 -170q-139 -168 -199 -498q-24 -132 -23 -240q0 -155 48 -257q80 -170 295 -170q152 0 262 80t182 237h164 q-96 -211 -254 -317.5t-373 -106.5q-131 0 -235 49q-102 49 -174 148q-80 111 -105 254zM684 1899h105l153 -162l211 162h107l-256 -264h-158z" />
<glyph unicode="&#x10d;" horiz-adv-x="1030" d="M78 385q0 76 14 147q43 252 199 408q152 152 360 152q98 0 178 -23q90 -27 168 -72l-47 -272h-96v27q0 119 -47 178q-51 63 -170 63q-133 0 -223 -116.5t-129 -344.5q-18 -104 -19 -188q0 -88 27 -158q47 -117 182 -116q109 0 182 61q72 59 119 188h135 q-66 -172 -180.5 -260t-273.5 -88q-207 0 -310 154q-69 106 -69 260zM465 1638h102l137 -260l230 260h104l-278 -376h-152z" />
<glyph unicode="&#x10e;" horiz-adv-x="1476" d="M-29 0l19 106h172l223 1280h-172l18 107h537q346 0 506 -197q115 -142 115 -365q0 -86 -17 -183q-61 -352 -291 -549q-233 -199 -575 -199h-535zM342 106h170q261 0 430 166q168 166 223 476q18 101 18 186q0 178 -75 289q-111 164 -373 163h-168zM612 1899h105l153 -162 l211 162h107l-256 -264h-158z" />
<glyph unicode="&#x10f;" horiz-adv-x="1177" d="M37 373q0 80 14 159q43 252 182.5 406t317.5 154q106 0 176 -48q68 -46 98 -147l97 553h-156l18 106h322l-272 -1556h-166l28 166q-63 -100 -149 -148q-84 -47 -193 -47q-174 0 -262 156q-55 105 -55 246zM227 352q0 -92 25 -153q45 -113 174 -113q127 0 209 100.5 t117 292.5l18 105q14 72 14 141q0 88 -28 152q-49 100 -174 100t-213 -113q-86 -111 -123 -332q-19 -102 -19 -180zM1200 1178l121 376h180l-197 -376h-104z" />
<glyph unicode="&#x110;" horiz-adv-x="1486" d="M-20 0l20 106h170l106 613h-180l23 125h180l94 542h-170l19 107h534q346 0 506 -196.5t98.5 -549t-290.5 -548.5q-233 -199 -576 -199h-534zM350 106h170q262 0 432 166q168 166 223.5 475.5t-57.5 475.5q-111 164 -375 163h-170l-94 -542h303l-22 -125h-301z" />
<glyph unicode="&#x111;" horiz-adv-x="1177" d="M37 373q0 80 14 159q43 252 182.5 406t317.5 154q106 0 176 -48q68 -46 98 -147l58 330h-293l18 106h293l21 117h-156l18 106h322l-39 -223h160l-21 -106h-157l-215 -1227h-166l28 166q-63 -100 -149 -148q-84 -47 -193 -47q-174 0 -262 156q-55 105 -55 246zM227 352 q0 -92 25 -153q45 -113 174 -113q127 0 209 100.5t117 292.5l18 105q14 72 14 141q0 88 -28 152q-49 100 -174 100t-213 -113q-86 -111 -123 -332q-19 -102 -19 -180z" />
<glyph unicode="&#x112;" horiz-adv-x="1343" d="M570 1693l24 148h539l-27 -148h-536zM-29 0l19 106h172l223 1280h-172l18 107h1084l-60 -332h-110l37 209h-619l-86 -500h441l32 187h111l-86 -496h-113l35 187h-440l-111 -625h633l37 209h108l-57 -332h-1096z" />
<glyph unicode="&#x113;" horiz-adv-x="1089" d="M418 1378l24 148h539l-27 -148h-536zM78 385q0 74 14 145q43 250 197 408q150 154 366 154q352 0 353 -277q0 -205 -185 -303q-190 -102 -553 -104q-4 -49 -4 -72q0 -94 31 -156q51 -111 195 -110q102 0 155 34q92 66 115 146h121q-39 -131 -170 -217 q-94 -61 -278.5 -61.5t-287.5 153.5q-69 106 -69 260zM289 514q291 16 442 119q100 63 100 188q0 172 -202 172q-121 0 -205 -102.5t-135 -376.5z" />
<glyph unicode="&#x114;" horiz-adv-x="1343" d="M614 1901h86q6 -55 47 -82t127 -27q84 0 135 27q57 31 80 82h84q-41 -117 -121 -180q-82 -61 -200.5 -61.5t-180 61t-57.5 180.5zM-29 0l19 106h172l223 1280h-172l18 107h1084l-60 -332h-110l37 209h-619l-86 -500h441l32 187h111l-86 -496h-113l35 187h-440l-111 -625 h633l37 209h108l-57 -332h-1096z" />
<glyph unicode="&#x115;" horiz-adv-x="1089" d="M455 1608h86q0 -82 39 -115q37 -35 131 -35t143 35q53 35 78 115h86q-33 -141 -119 -215q-84 -72 -213 -72q-131 0 -190 72q-57 68 -41 215zM78 385q0 74 14 145q43 250 197 408q150 154 366 154q352 0 353 -277q0 -205 -185 -303q-190 -102 -553 -104q-4 -49 -4 -72 q0 -94 31 -156q51 -111 195 -110q102 0 155 34q92 66 115 146h121q-39 -131 -170 -217q-94 -61 -278.5 -61.5t-287.5 153.5q-69 106 -69 260zM289 514q291 16 442 119q100 63 100 188q0 172 -202 172q-121 0 -205 -102.5t-135 -376.5z" />
<glyph unicode="&#x116;" horiz-adv-x="1343" d="M798.5 1770q10.5 49 45.5 82q39 35 80 34q43 0 67 -34q27 -37 19 -82q-8 -49 -45 -82q-39 -35 -82 -35q-45 0 -70 35q-25 33 -14.5 82zM-29 0l19 106h172l223 1280h-172l18 107h1084l-60 -332h-110l37 209h-619l-86 -500h441l32 187h111l-86 -496h-113l35 187h-440 l-111 -625h633l37 209h108l-57 -332h-1096z" />
<glyph unicode="&#x117;" horiz-adv-x="1089" d="M612.5 1452q8.5 49 44.5 82q39 35 82 35t67.5 -35t16.5 -82t-45 -84q-35 -33 -82 -33t-67 33q-25 35 -16.5 84zM78 385q0 74 14 145q43 250 197 408q150 154 366 154q352 0 353 -277q0 -205 -185 -303q-190 -102 -553 -104q-4 -49 -4 -72q0 -94 31 -156q51 -111 195 -110 q102 0 155 34q92 66 115 146h121q-39 -131 -170 -217q-94 -61 -278.5 -61.5t-287.5 153.5q-69 106 -69 260zM289 514q291 16 442 119q100 63 100 188q0 172 -202 172q-121 0 -205 -102.5t-135 -376.5z" />
<glyph unicode="&#x118;" horiz-adv-x="1343" d="M694 -223q10 53 45 102q43 61 109 121h86l-3 -2q-96 -117 -106 -170q-8 -45 16.5 -73.5t73.5 -28.5q25 0 53 6q18 4 56 20l-23 -127q-45 -12 -65 -14q-41 -4 -60 -4q-98 0 -149 45q-49 43 -33 125zM-29 0l19 106h172l223 1280h-172l18 107h1084l-60 -332h-110l37 209 h-619l-86 -500h441l32 187h111l-86 -496h-113l35 187h-440l-111 -625h633l37 209h108l-57 -332h-1096z" />
<glyph unicode="&#x119;" horiz-adv-x="1089" d="M399 -223q10 53 45 102q43 61 109 121h86l-3 -2q-96 -117 -106 -170q-8 -45 16.5 -73.5t73.5 -28.5q25 0 53 6q18 4 56 20l-23 -127q-45 -12 -65 -14q-41 -4 -60 -4q-98 0 -149 45q-49 43 -33 125zM78 385q0 74 14 145q43 250 197 408q150 154 366 154q352 0 353 -277 q0 -205 -185 -303q-190 -102 -553 -104q-4 -49 -4 -72q0 -94 31 -156q51 -111 195 -110q102 0 155 34q92 66 115 146h121q-39 -131 -170 -217q-94 -61 -278.5 -61.5t-287.5 153.5q-69 106 -69 260zM289 514q291 16 442 119q100 63 100 188q0 172 -202 172 q-121 0 -205 -102.5t-135 -376.5z" />
<glyph unicode="&#x11a;" horiz-adv-x="1343" d="M-29 0l19 106h172l223 1280h-172l18 107h1084l-60 -332h-110l37 209h-619l-86 -500h441l32 187h111l-86 -496h-113l35 187h-440l-111 -625h633l37 209h108l-57 -332h-1096zM684 1899h105l153 -162l211 162h107l-256 -264h-158z" />
<glyph unicode="&#x11b;" horiz-adv-x="1089" d="M78 385q0 74 14 145q43 250 197 408q150 154 366 154q352 0 353 -277q0 -205 -185 -303q-190 -102 -553 -104q-4 -49 -4 -72q0 -94 31 -156q51 -111 195 -110q102 0 155 34q92 66 115 146h121q-39 -131 -170 -217q-94 -61 -278.5 -61.5t-287.5 153.5q-69 106 -69 260z M289 514q291 16 442 119q100 63 100 188q0 172 -202 172q-121 0 -205 -102.5t-135 -376.5zM465 1638h102l137 -260l230 260h104l-278 -376h-152z" />
<glyph unicode="&#x11c;" horiz-adv-x="1470" d="M659 1635l254 264h160l162 -264h-105l-153 161l-213 -161h-105zM102 745q61 350 283 564q219 211 533 211q123 0 231 -29q127 -33 246 -90l-62 -354h-100q0 190 -84 276q-86 90 -262 90q-231 0 -374.5 -166t-203.5 -502q-23 -130 -23 -235q0 -160 54 -262 q90 -170 317 -170q96 0 199 28q92 27 193 84l65 385h-252l19 107h436l-98 -557q-123 -72 -279 -115q-141 -39 -301 -39q-303 0 -451 211q-104 150 -104 369q0 91 18 194z" />
<glyph unicode="&#x11d;" horiz-adv-x="1177" d="M397 1262l279 376h149l146 -376h-105l-137 260l-227 -260h-105zM66 -379l38 223h86v-11q0 -94 50 -140q52 -49 166 -49q147 0 229 92q86 92 119 287l24 143q-63 -100 -149 -148q-84 -47 -191 -47q-158 0 -237 119q-49 74 -56 178q-1 15 0 30q0 52 9 103q61 356 282 537 q186 154 410 154q203 0 254 -29l-182 -1040q-41 -240 -175 -353q-143 -125 -346 -125q-94 0 -176 19q-73 16 -155 57zM319 272q2 -55 27 -102q43 -84 160 -84q127 0 209 100q86 104 119 293l18 105l66 372q0 33 -99 33q-176 0 -307 -149q-133 -150 -180 -424 q-13 -67 -13 -122q-1 -12 0 -22z" />
<glyph unicode="&#x11e;" horiz-adv-x="1470" d="M102 745q61 350 283 564q219 211 533 211q123 0 231 -29q127 -33 246 -90l-62 -354h-100q0 190 -84 276q-86 90 -262 90q-231 0 -374.5 -166t-203.5 -502q-23 -130 -23 -235q0 -160 54 -262q90 -170 317 -170q96 0 199 28q92 27 193 84l65 385h-252l19 107h436l-98 -557 q-123 -72 -279 -115q-141 -39 -301 -39q-303 0 -451 211q-104 150 -104 369q0 91 18 194zM707 1901h86q6 -55 47 -82t127 -27q84 0 135 27q57 31 80 82h84q-41 -117 -121 -180q-82 -61 -200.5 -61.5t-180 61t-57.5 180.5z" />
<glyph unicode="&#x11f;" horiz-adv-x="1177" d="M66 -379l38 223h86v-11q0 -94 50 -140q52 -49 166 -49q147 0 229 92q86 92 119 287l24 143q-63 -100 -149 -148q-84 -47 -191 -47q-158 0 -237 119q-49 74 -56 178q-1 15 0 30q0 52 9 103q61 356 282 537q186 154 410 154q203 0 254 -29l-182 -1040q-41 -240 -175 -353 q-143 -125 -346 -125q-94 0 -176 19q-73 16 -155 57zM319 272q2 -55 27 -102q43 -84 160 -84q127 0 209 100q86 104 119 293l18 105l66 372q0 33 -99 33q-176 0 -307 -149q-133 -150 -180 -424q-13 -67 -13 -122q-1 -12 0 -22zM498 1608h86q0 -82 39 -115q37 -35 131 -35 t143 35q53 35 78 115h86q-33 -141 -119 -215q-84 -72 -213 -72q-131 0 -190 72q-57 68 -41 215z" />
<glyph unicode="&#x120;" horiz-adv-x="1470" d="M896.5 1770q10.5 49 45.5 82q39 35 80 34q43 0 67 -34q27 -37 19 -82q-8 -49 -45 -82q-39 -35 -82 -35q-45 0 -70 35q-25 33 -14.5 82zM102 745q61 350 283 564q219 211 533 211q123 0 231 -29q127 -33 246 -90l-62 -354h-100q0 190 -84 276q-86 90 -262 90 q-231 0 -374.5 -166t-203.5 -502q-23 -130 -23 -235q0 -160 54 -262q90 -170 317 -170q96 0 199 28q92 27 193 84l65 385h-252l19 107h436l-98 -557q-123 -72 -279 -115q-141 -39 -301 -39q-303 0 -451 211q-104 150 -104 369q0 91 18 194z" />
<glyph unicode="&#x121;" horiz-adv-x="1177" d="M610.5 1452q8.5 49 44.5 82q39 35 82 35t67.5 -35t16.5 -82t-45 -84q-35 -33 -82 -33t-67 33q-25 35 -16.5 84zM66 -379l38 223h86v-11q0 -94 50 -140q52 -49 166 -49q147 0 229 92q86 92 119 287l24 143q-63 -100 -149 -148q-84 -47 -191 -47q-158 0 -237 119 q-49 74 -56 178q-1 15 0 30q0 52 9 103q61 356 282 537q186 154 410 154q203 0 254 -29l-182 -1040q-41 -240 -175 -353q-143 -125 -346 -125q-94 0 -176 19q-73 16 -155 57zM319 272q2 -55 27 -102q43 -84 160 -84q127 0 209 100q86 104 119 293l18 105l66 372q0 33 -99 33 q-176 0 -307 -149q-133 -150 -180 -424q-13 -67 -13 -122q-1 -12 0 -22z" />
<glyph unicode="&#x122;" horiz-adv-x="1470" d="M606 -410q72 45 100 99q31 55 31 135v22h141q-6 -104 -57 -176q-51 -74 -158 -129zM102 745q61 350 283 564q219 211 533 211q123 0 231 -29q127 -33 246 -90l-62 -354h-100q0 190 -84 276q-86 90 -262 90q-231 0 -374.5 -166t-203.5 -502q-23 -130 -23 -235 q0 -160 54 -262q90 -170 317 -170q96 0 199 28q92 27 193 84l65 385h-252l19 107h436l-98 -557q-123 -72 -279 -115q-141 -39 -301 -39q-303 0 -451 211q-104 150 -104 369q0 91 18 194z" />
<glyph unicode="&#x123;" horiz-adv-x="1177" d="M627 1215q23 100 90 176q63 72 180 129l50 -49q-72 -41 -117 -99q-43 -55 -56 -135l-4 -22h-143zM66 -379l38 223h86v-11q0 -94 50 -140q52 -49 166 -49q147 0 229 92q86 92 119 287l24 143q-63 -100 -149 -148q-84 -47 -191 -47q-158 0 -237 119q-49 74 -56 178 q-1 15 0 30q0 52 9 103q61 356 282 537q186 154 410 154q203 0 254 -29l-182 -1040q-41 -240 -175 -353q-143 -125 -346 -125q-94 0 -176 19q-73 16 -155 57zM319 272q2 -55 27 -102q43 -84 160 -84q127 0 209 100q86 104 119 293l18 105l66 372q0 33 -99 33 q-176 0 -307 -149q-133 -150 -180 -424q-13 -67 -13 -122q-1 -12 0 -22z" />
<glyph unicode="&#x124;" horiz-adv-x="1605" d="M692 1635l254 264h160l162 -264h-105l-153 161l-213 -161h-105zM-29 0l19 106h172l223 1280h-172l18 107h527l-21 -107h-170l-90 -516h697l90 516h-170l18 107h524l-18 -107h-170l-225 -1280h172l-21 -106h-524l18 106h172l111 642h-694l-115 -642h172l-18 -106h-525z " />
<glyph unicode="&#x125;" horiz-adv-x="1185" d="M100 1635l254 264h160l162 -264h-105l-153 161l-213 -161h-105zM88 0l254 1450h-158l19 106h323l-118 -682q63 106 147 162t180 56q158 0 215 -101q35 -63 35 -164q0 -72 -14 -151l-101 -570h148l-19 -106h-313l109 618q16 92 16 173q0 68 -12 94q-31 72 -142 71 q-115 0 -192 -94q-76 -90 -107 -270l-104 -592h-166z" />
<glyph unicode="&#x126;" horiz-adv-x="1605" d="M-29 0l19 106h170l168 961h-170l20 123h172l35 196h-172l18 107h527l-21 -107h-170l-35 -196h697l35 196h-170l18 107h524l-18 -107h-172l-35 -196h172l-20 -123h-172l-168 -961h170l-19 -106h-524l18 106h172l111 642h-696l-113 -642h172l-18 -106h-525zM477 870h697 l34 197h-696z" />
<glyph unicode="&#x127;" horiz-adv-x="1185" d="M88 0l213 1210h-160l23 121h158l20 119h-158l19 106h323l-39 -225h285l-20 -121h-285l-59 -336q63 106 147 162t180 56q158 0 215 -101q35 -63 35 -164q0 -72 -14 -151l-101 -570h148l-19 -106h-313l109 618q16 92 16 173q0 68 -12 94q-31 72 -142 71q-115 0 -192 -94 q-76 -90 -107 -270l-104 -592h-166z" />
<glyph unicode="&#x128;" horiz-adv-x="727" d="M221 1667q18 102 76 160q55 59 131 59q29 0 59 -10q31 -12 72 -39l39 -26q25 -16 37 -21q18 -6 33 -6q39 0 63 27q25 25 35 75h86q-23 -109 -76 -161q-55 -57 -139 -58q-61 0 -119 45l-4 2l-39 29q-20 16 -33 21q-18 6 -30 6q-37 0 -66 -29q-27 -27 -39 -74h-86zM-29 0 l19 106h172l223 1280h-172l18 107h527l-21 -107h-170l-225 -1280h172l-18 -106h-525z" />
<glyph unicode="&#x129;" horiz-adv-x="587" d="M99 1309q25 133 84 209q58 74 141 73q33 0 59 -14q35 -20 56 -47l41 -55q15 -22 30 -31q10 -8 31 -8q39 0 67.5 41t47.5 114h86q-25 -133 -84 -209q-58 -74 -141 -73q-35 0 -62 14q-31 18 -53 47l-41 55q-16 23 -33 31q-14 8 -31 8q-37 0 -65 -41q-31 -43 -47 -114h-86z M131 0l168 956h-158l19 107h323l-168 -957h156l-16 -106h-324z" />
<glyph unicode="&#x12a;" horiz-adv-x="727" d="M269 1693l24 148h539l-27 -148h-536zM-29 0l19 106h172l223 1280h-172l18 107h527l-21 -107h-170l-225 -1280h172l-18 -106h-525z" />
<glyph unicode="&#x12b;" horiz-adv-x="587" d="M101 1378l24 148h539l-27 -148h-536zM131 0l168 956h-158l19 107h323l-168 -957h156l-16 -106h-324z" />
<glyph unicode="&#x12c;" horiz-adv-x="727" d="M289 1901h86q6 -55 47 -82t127 -27q84 0 135 27q57 31 80 82h84q-41 -117 -121 -180q-82 -61 -200.5 -61.5t-180 61t-57.5 180.5zM-29 0l19 106h172l223 1280h-172l18 107h527l-21 -107h-170l-225 -1280h172l-18 -106h-525z" />
<glyph unicode="&#x12d;" horiz-adv-x="587" d="M187 1608h86q0 -82 39 -115q37 -35 131 -35t143 35q53 35 78 115h86q-33 -141 -119 -215q-84 -72 -213 -72q-131 0 -190 72q-57 68 -41 215zM131 0l168 956h-158l19 107h323l-168 -957h156l-16 -106h-324z" />
<glyph unicode="&#x12e;" horiz-adv-x="727" d="M6 0l19 106h172l223 1280h-172l18 107h527l-21 -107h-170l-225 -1280h172l-18 -106h-525zM121 -223q10 53 45 102q43 61 109 121h86l-3 -2q-96 -117 -106 -170q-8 -45 16.5 -73.5t73.5 -28.5q25 0 53 6q18 4 56 20l-23 -127q-45 -12 -65 -14q-41 -4 -60 -4q-98 0 -149 45 q-49 43 -33 125z" />
<glyph unicode="&#x12f;" horiz-adv-x="587" d="M127 0l168 956h-158l19 107h323l-168 -957h158l-18 -106h-324zM324 1370q0 14 2 23q10 47 45 80q39 35 78 34q41 0 65 -34q18 -25 19 -58q0 -14 -2 -22q-10 -47 -45 -80t-76 -33q-43 0 -68 33q-18 24 -18 57zM55 -223q10 53 45 102q43 61 109 121h86l-3 -2 q-96 -117 -106 -170q-8 -45 16.5 -73.5t73.5 -28.5q25 0 53 6q18 4 56 20l-23 -127q-45 -12 -65 -14q-41 -4 -60 -4q-98 0 -149 45q-49 43 -33 125z" />
<glyph unicode="&#x130;" horiz-adv-x="727" d="M-29 0l19 106h172l223 1280h-172l18 107h527l-21 -107h-170l-225 -1280h172l-18 -106h-525zM438.5 1770q10.5 49 45.5 82q39 35 80 34q43 0 67 -34q27 -37 19 -82q-8 -49 -45 -82q-39 -35 -82 -35q-45 0 -70 35q-25 33 -14.5 82z" />
<glyph unicode="&#x131;" horiz-adv-x="587" d="M131 0l168 956h-158l19 107h323l-168 -957h156l-16 -106h-324z" />
<glyph unicode="&#x132;" horiz-adv-x="1474" d="M426 -358l41 235h102q-4 -28 -4 -53q0 -58 22 -94q31 -49 109 -49q106 0 164 75q55 74 92 293l236 1337h-209l18 107h561l-18 -107h-170l-236 -1345q-43 -244 -151 -356q-106 -111 -307 -111q-70 0 -127 16q-62 19 -123 52zM-29 0l19 106h172l223 1280h-172l18 107h527 l-21 -107h-170l-225 -1280h172l-18 -106h-525z" />
<glyph unicode="&#x133;" horiz-adv-x="980" d="M188 -389l39 219h86q-2 -16 -2 -45q0 -63 20 -96q31 -45 107 -45q82 0 131 61q51 63 72 191l184 1060h-156l19 107h323l-204 -1167q-29 -166 -133.5 -258.5t-258.5 -92.5q-61 0 -120.5 16.5t-106.5 49.5zM860 1370q0 14 2 23q10 47 45 80q39 35 78 34q41 0 65 -34 q18 -25 19 -58q0 -14 -2 -22q-9 -46 -43 -80q-33 -33 -78 -33q-43 0 -68 33q-18 24 -18 57zM92 0l168 956h-158l19 107h323l-168 -957h158l-18 -106h-324zM289 1370q0 14 2 23q10 47 45 80q39 35 78 34q41 0 65 -34q18 -25 19 -58q0 -14 -2 -22q-10 -47 -45 -80t-76 -33 q-43 0 -68 33q-18 24 -18 57z" />
<glyph unicode="&#x134;" horiz-adv-x="737" d="M262 1635l254 264h160l162 -264h-105l-153 161l-213 -161h-105zM-311 -358l41 235h102q-4 -28 -4 -53q0 -58 22 -94q31 -49 109 -49q106 0 164 75q55 74 92 293l236 1337h-209l18 107h561l-18 -107h-170l-236 -1345q-43 -244 -151 -356q-106 -111 -307 -111 q-70 0 -127 16q-62 19 -123 52z" />
<glyph unicode="&#x135;" horiz-adv-x="569" d="M88 1262l279 376h149l146 -376h-105l-137 260l-227 -260h-105zM-299 -389l39 219h86q-10 -96 20.5 -141t102.5 -45q84 0 133 61q51 63 72 191l186 1060h-158l19 107h321l-203 -1167q-29 -166 -133 -258.5t-258 -92.5q-61 0 -120.5 16.5t-106.5 49.5z" />
<glyph unicode="&#x136;" horiz-adv-x="1376" d="M592 -381q72 45 100 99q31 55 31 135v22h141q-6 -104 -57 -176q-51 -74 -158 -129zM-29 0l19 106h172l223 1280h-172l18 107h527l-21 -107h-170l-98 -565l678 565h-148l21 107h444l-16 -107h-154l-673 -563l520 -717h151l-18 -106h-311l-514 709l-107 -603h172l-18 -106 h-525z" />
<glyph unicode="&#x137;" horiz-adv-x="1114" d="M428 -381q72 45 100 99q31 55 31 135v22h141q-6 -104 -57 -176q-51 -74 -158 -129zM76 0l254 1450h-160l18 106h326l-176 -1013l473 413h-135l16 107h271l-19 -107l-336 -292l266 -558h138l-19 -106h-266l-260 543l-154 -135l-71 -408h-166z" />
<glyph unicode="&#x138;" horiz-adv-x="1114" d="M121 0l166 952h-160l18 109h326l-90 -520l473 411h-137l18 109h271l-19 -109l-336 -290l267 -556h137l-19 -106h-266l-260 541l-154 -135l-71 -406h-164z" />
<glyph unicode="&#x139;" horiz-adv-x="1222" d="M393 1637l211 264h178l-282 -264h-107zM-29 0l19 106h172l223 1280h-172l18 107h527l-21 -107h-170l-221 -1263h615l43 250h110l-65 -373h-1078z" />
<glyph unicode="&#x13a;" horiz-adv-x="587" d="M303 1637l211 264h178l-282 -264h-107zM76 0l254 1450h-160l18 106h326l-254 -1450h158l-21 -106h-321z" />
<glyph unicode="&#x13b;" horiz-adv-x="1222" d="M479 -381q72 45 100 99q31 55 31 135v22h141q-6 -104 -57 -176q-51 -74 -158 -129zM-29 0l19 106h172l223 1280h-172l18 107h527l-21 -107h-170l-221 -1263h615l43 250h110l-65 -373h-1078z" />
<glyph unicode="&#x13c;" horiz-adv-x="587" d="M127 -381q72 45 100 99q31 55 31 135v22h141q-6 -104 -57 -176q-51 -74 -158 -129zM76 0l254 1450h-160l18 106h326l-254 -1450h158l-21 -106h-321z" />
<glyph unicode="&#x13d;" horiz-adv-x="1222" d="M717 1117l121 376h180l-197 -376h-104zM-29 0l19 106h172l223 1280h-172l18 107h527l-21 -107h-170l-221 -1263h615l43 250h110l-65 -373h-1078z" />
<glyph unicode="&#x13e;" horiz-adv-x="737" d="M606 1180l121 376h180l-197 -376h-104zM76 0l254 1450h-160l18 106h326l-254 -1450h158l-21 -106h-321z" />
<glyph unicode="&#x13f;" horiz-adv-x="1236" d="M922 844q8 53 53 94q41 39 92.5 39t78 -39t18 -94.5t-51.5 -94.5q-41 -39 -92 -38.5t-80 38.5q-26 38 -18 95zM-29 0l19 106h172l223 1280h-172l18 107h527l-21 -107h-170l-221 -1263h615l43 250h110l-65 -373h-1078z" />
<glyph unicode="&#x140;" horiz-adv-x="854" d="M535 836q8 53 53 94q41 39 92.5 39t78 -39t18 -94.5t-51.5 -94.5q-41 -39 -92 -38.5t-80 38.5q-26 38 -18 95zM76 0l254 1450h-160l18 106h326l-254 -1450h158l-21 -106h-321z" />
<glyph unicode="&#x141;" horiz-adv-x="1232" d="M-20 0l20 106h170l84 480l-162 -113l-47 92l234 162l114 659h-170l19 107h524l-21 -107h-172l-90 -516l318 226l47 -92l-387 -275l-107 -606h615l45 250h110l-65 -373h-1079z" />
<glyph unicode="&#x142;" horiz-adv-x="595" d="M23 670l202 141l113 639h-158l19 106h321l-106 -616l149 98l39 -86l-211 -141l-123 -705h158l-18 -106h-324l119 680l-142 -96z" />
<glyph unicode="&#x143;" horiz-adv-x="1611" d="M856 1637l211 264h178l-282 -264h-107zM-39 0l19 106h182l223 1280h-180l18 107h344l600 -1178l189 1071h-180l18 107h471l-18 -107h-183l-245 -1415h-109l-641 1258l-197 -1123h181l-19 -106h-473z" />
<glyph unicode="&#x144;" horiz-adv-x="1185" d="M532 1215l299 376h178l-370 -376h-107zM129 0l168 956h-160l21 107h323l-32 -189q63 106 147 162t180 56q158 0 215 -101q35 -63 35 -164q0 -72 -14 -151l-101 -570h148l-19 -106h-315l109 618q18 104 18 173q0 66 -14 96q-31 72 -140 71q-115 0 -192 -94 q-76 -90 -107 -272l-104 -592h-166z" />
<glyph unicode="&#x145;" horiz-adv-x="1611" d="M645 -410q72 45 100 99q31 55 31 135v22h141q-6 -104 -57 -176q-51 -74 -158 -129zM-39 0l19 106h182l223 1280h-180l18 107h344l600 -1178l189 1071h-180l18 107h471l-18 -107h-183l-245 -1415h-109l-641 1258l-197 -1123h181l-19 -106h-473z" />
<glyph unicode="&#x146;" horiz-adv-x="1185" d="M479 -381q72 45 100 99q31 55 31 135v22h141q-6 -104 -57 -176q-51 -74 -158 -129zM129 0l168 956h-160l21 107h323l-32 -189q63 106 147 162t180 56q158 0 215 -101q35 -63 35 -164q0 -72 -14 -151l-101 -570h148l-19 -106h-315l109 618q18 104 18 173q0 66 -14 96 q-31 72 -140 71q-115 0 -192 -94q-76 -90 -107 -272l-104 -592h-166z" />
<glyph unicode="&#x147;" horiz-adv-x="1611" d="M-39 0l19 106h182l223 1280h-180l18 107h344l600 -1178l189 1071h-180l18 107h471l-18 -107h-183l-245 -1415h-109l-641 1258l-197 -1123h181l-19 -106h-473zM731 1909h105l153 -162l211 162h107l-256 -264h-158z" />
<glyph unicode="&#x148;" horiz-adv-x="1185" d="M129 0l168 956h-160l21 107h323l-32 -189q63 106 147 162t180 56q158 0 215 -101q35 -63 35 -164q0 -72 -14 -151l-101 -570h148l-19 -106h-315l109 618q18 104 18 173q0 66 -14 96q-31 72 -140 71q-115 0 -192 -94q-76 -90 -107 -272l-104 -592h-166zM465 1638h102 l137 -260l230 260h104l-278 -376h-152z" />
<glyph unicode="&#x149;" horiz-adv-x="1595" d="M487 0l168 956h-160l21 107h323l-32 -189q63 106 147 162t180 56q158 0 215 -101q35 -63 35 -164q0 -72 -14 -151l-101 -570h148l-19 -106h-315l109 618q18 104 18 173q0 66 -14 96q-31 72 -140 71q-115 0 -192 -94q-76 -90 -107 -272l-104 -592h-166zM72 1094 q82 68 127 149q47 86 67 213l13 64h174q-29 -166 -111 -293q-78 -121 -215 -213z" />
<glyph unicode="&#x14a;" horiz-adv-x="1552" d="M86 0l18 106h172l224 1280h-158l18 107h342l-34 -201q174 229 456 230q227 0 310 -146q49 -86 49 -209q0 -117 -23 -245l-153 -881q-43 -244 -152 -356q-106 -111 -305 -111q-132 0 -252 68l41 235h102q-6 -31 -6 -57q0 -139 133 -139q106 0 162 73q53 72 94 295l146 832 q27 145 26 249q0 96 -22 152q-49 109 -225.5 109t-293 -129t-159.5 -375l-135 -781h170l-19 -106h-526z" />
<glyph unicode="&#x14b;" horiz-adv-x="1185" d="M170 0l168 956h-160l19 107h323l-33 -189q61 104 150 162q84 55 178 56q158 0 215 -101q37 -63 37 -162q0 -61 -16 -153l-138 -780q-29 -168 -131 -258q-104 -92 -260 -93q-59 0 -118.5 16.5t-106.5 49.5l39 219h84q-2 -16 -2 -45q0 -61 22 -96q31 -45 105 -45 q82 0 131 61q51 63 72 191l126 722q18 104 19 173q0 66 -14 96q-31 72 -142 71q-113 0 -190 -94q-78 -92 -109 -272l-102 -592h-166z" />
<glyph unicode="&#x14c;" horiz-adv-x="1509" d="M682 1693l24 148h539l-27 -148h-536zM96 422q-10 58 -10 125q0 90 18 198q31 182 105 324q76 143 194 254q111 100 228 147q123 49 260 50q295 0 436 -213q100 -150 100 -366q0 -92 -18 -196q-31 -174 -106 -323q-72 -141 -195 -254q-111 -100 -227 -148 q-123 -49 -260 -49q-133 0 -242 49q-108 49 -178 148q-80 111 -105 254zM309 745q-23 -132 -23 -239q0 -158 50 -260q82 -168 303 -168t362 168q139 166 199 499q24 137 24 246q0 155 -48 254q-82 168 -303.5 168t-362.5 -168q-144 -170 -201 -500z" />
<glyph unicode="&#x14d;" horiz-adv-x="1107" d="M426 1378l24 148h539l-27 -148h-536zM78 385q0 76 14 147q43 252 196.5 406t364.5 154q207 0 310 -154q68 -106 67 -258q0 -86 -12 -148q-43 -252 -199 -407q-154 -154 -362 -154q-207 0 -310 154q-69 106 -69 260zM266 348q0 -92 27 -162q49 -117 180 -116 q133 0 223 116q86 113 127 346q18 104 19 185q0 90 -27 160q-49 117 -180 116q-132 0 -221 -116.5t-129 -344.5q-19 -104 -19 -184z" />
<glyph unicode="&#x14e;" horiz-adv-x="1509" d="M725 1901h86q6 -55 47 -82t127 -27q84 0 135 27q57 31 80 82h84q-41 -117 -121 -180q-82 -61 -200.5 -61.5t-180 61t-57.5 180.5zM96 422q-10 58 -10 125q0 90 18 198q31 182 105 324q76 143 194 254q111 100 228 147q123 49 260 50q295 0 436 -213q100 -150 100 -366 q0 -92 -18 -196q-31 -174 -106 -323q-72 -141 -195 -254q-111 -100 -227 -148q-123 -49 -260 -49q-133 0 -242 49q-108 49 -178 148q-80 111 -105 254zM309 745q-23 -132 -23 -239q0 -158 50 -260q82 -168 303 -168t362 168q139 166 199 499q24 137 24 246q0 155 -48 254 q-82 168 -303.5 168t-362.5 -168q-144 -170 -201 -500z" />
<glyph unicode="&#x14f;" horiz-adv-x="1107" d="M463 1608h86q0 -82 39 -115q37 -35 131 -35t143 35q53 35 78 115h86q-33 -141 -119 -215q-84 -72 -213 -72q-131 0 -190 72q-57 68 -41 215zM78 385q0 76 14 147q43 252 196.5 406t364.5 154q207 0 310 -154q68 -106 67 -258q0 -86 -12 -148q-43 -252 -199 -407 q-154 -154 -362 -154q-207 0 -310 154q-69 106 -69 260zM266 348q0 -92 27 -162q49 -117 180 -116q133 0 223 116q86 113 127 346q18 104 19 185q0 90 -27 160q-49 117 -180 116q-132 0 -221 -116.5t-129 -344.5q-19 -104 -19 -184z" />
<glyph unicode="&#x150;" horiz-adv-x="1509" d="M776 1635l211 264h178l-282 -264h-107zM1063 1635l211 264h176l-283 -264h-104zM96 422q-10 58 -10 125q0 90 18 198q31 182 105 324q76 143 194 254q111 100 228 147q123 49 260 50q295 0 436 -213q100 -150 100 -366q0 -92 -18 -196q-31 -174 -106 -323 q-72 -141 -195 -254q-111 -100 -227 -148q-123 -49 -260 -49q-133 0 -242 49q-108 49 -178 148q-80 111 -105 254zM309 745q-23 -132 -23 -239q0 -158 50 -260q82 -168 303 -168t362 168q139 166 199 499q24 137 24 246q0 155 -48 254q-82 168 -303.5 168t-362.5 -168 q-144 -170 -201 -500z" />
<glyph unicode="&#x151;" horiz-adv-x="1107" d="M500 1262l236 376h153l-286 -376h-103zM764 1262l269 376h159l-323 -376h-105zM78 385q0 76 14 147q43 252 196.5 406t364.5 154q207 0 310 -154q68 -106 67 -258q0 -86 -12 -148q-43 -252 -199 -407q-154 -154 -362 -154q-207 0 -310 154q-69 106 -69 260zM266 348 q0 -92 27 -162q49 -117 180 -116q133 0 223 116q86 113 127 346q18 104 19 185q0 90 -27 160q-49 117 -180 116q-132 0 -221 -116.5t-129 -344.5q-19 -104 -19 -184z" />
<glyph unicode="&#x152;" horiz-adv-x="2095" d="M109 750q61 350 288.5 546.5t575.5 196.5h1091l-59 -332h-111l37 209h-616l-88 -500h442l33 187h108l-86 -496h-108l33 187h-445l-108 -625h633l36 209h111l-57 -332h-1106q-346 0 -508 199q-157 195 -96 551zM313 750q-55 -309 58 -478q111 -166 372 -166h168l224 1280 h-168q-260 0 -430 -163q-169 -162 -224 -473z" />
<glyph unicode="&#x153;" horiz-adv-x="1820" d="M78 385q0 76 14 147q43 252 196.5 406t364.5 154q207 0 310 -154q10 -16 20 -39q12 14 37 39q152 154 369 154q352 0 352 -277q0 -203 -187 -303q-187 -101 -553 -104q-4 -49 -4 -72q0 -94 31 -156q55 -111 197 -110q102 0 155 34q90 63 113 146h123q-37 -129 -172 -217 q-92 -61 -279 -62q-182 0 -284 154l-25 41q-25 -29 -37 -41q-154 -154 -362 -154q-207 0 -310 154q-69 106 -69 260zM285 532q-39 -225 8 -346q47 -117 180 -116.5t223 116.5q86 113 127 346q39 223 -8 345q-45 117 -180 116q-132 0 -221 -117t-129 -344zM1020 514 q291 16 442 119q102 66 103 188q0 172 -205 172q-121 0 -205 -102.5t-135 -376.5z" />
<glyph unicode="&#x154;" horiz-adv-x="1386" d="M762 1637l211 264h178l-282 -264h-107zM-29 0l19 106h172l223 1280h-172l18 107h682q197 0 285 -104q65 -76 65 -197q0 -46 -10 -98q-27 -152 -120 -242q-92 -88 -250 -111q57 -16 96 -65t59 -127l117 -443h166l-21 -106h-315l-127 475q-37 138 -80 178q-45 41 -131 41 h-201l-104 -588h190l-18 -106h-543zM465 801h264q137 0 215 71.5t103 221.5q9 53 8 95q0 81 -33 126q-53 72 -188 71h-267z" />
<glyph unicode="&#x155;" horiz-adv-x="880" d="M532 1215l299 376h178l-370 -376h-107zM129 0l168 958h-158l19 105h323l-32 -189q68 113 153 164q88 53 197 54q39 0 82 -7q33 -4 92 -20l-47 -266h-97q2 14 2 37q0 55 -20 82q-27 39 -96 38q-121 0 -203 -94t-113 -270l-104 -592h-166z" />
<glyph unicode="&#x156;" horiz-adv-x="1386" d="M604 -381q72 45 100 99q31 55 31 135v22h141q-6 -104 -57 -176q-51 -74 -158 -129zM-29 0l19 106h172l223 1280h-172l18 107h682q197 0 285 -104q65 -76 65 -197q0 -46 -10 -98q-27 -152 -120 -242q-92 -88 -250 -111q57 -16 96 -65t59 -127l117 -443h166l-21 -106h-315 l-127 475q-37 138 -80 178q-45 41 -131 41h-201l-104 -588h190l-18 -106h-543zM465 801h264q137 0 215 71.5t103 221.5q9 53 8 95q0 81 -33 126q-53 72 -188 71h-267z" />
<glyph unicode="&#x157;" horiz-adv-x="880" d="M203 -381q72 45 100 99q31 55 31 135v22h141q-6 -104 -57 -176q-51 -74 -158 -129zM129 0l168 958h-158l19 105h323l-32 -189q68 113 153 164q88 53 197 54q39 0 82 -7q33 -4 92 -20l-47 -266h-97q2 14 2 37q0 55 -20 82q-27 39 -96 38q-121 0 -203 -94t-113 -270 l-104 -592h-166z" />
<glyph unicode="&#x158;" horiz-adv-x="1386" d="M-29 0l19 106h172l223 1280h-172l18 107h682q197 0 285 -104q65 -76 65 -197q0 -46 -10 -98q-27 -152 -120 -242q-92 -88 -250 -111q57 -16 96 -65t59 -127l117 -443h166l-21 -106h-315l-127 475q-37 138 -80 178q-45 41 -131 41h-201l-104 -588h190l-18 -106h-543z M465 801h264q137 0 215 71.5t103 221.5q9 53 8 95q0 81 -33 126q-53 72 -188 71h-267zM602 1899h105l153 -162l211 162h107l-256 -264h-158z" />
<glyph unicode="&#x159;" horiz-adv-x="880" d="M129 0l168 958h-158l19 105h323l-32 -189q68 113 153 164q88 53 197 54q39 0 82 -7q33 -4 92 -20l-47 -266h-97q2 14 2 37q0 55 -20 82q-27 39 -96 38q-121 0 -203 -94t-113 -270l-104 -592h-166zM426 1638h102l137 -260l230 260h104l-278 -376h-152z" />
<glyph unicode="&#x15a;" horiz-adv-x="1261" d="M762 1637l211 264h178l-282 -264h-107zM53 72l60 340h102q-7 -45 -6 -84q0 -108 51 -168q70 -82 242 -82q162 0 258 72q98 72 119 204q6 35 6 65q0 62 -27 101q-39 57 -194 113l-168 59q-184 66 -244 162q-42 67 -42 166q0 46 9 100q33 188 174 295q139 104 361 105 q88 0 200 -23q104 -20 226 -65l-56 -318h-100q2 24 2 46q0 123 -57 183q-68 70 -232 70q-139 0 -227 -65q-86 -63 -107 -187q-5 -32 -5 -59q0 -66 32 -109q43 -59 215 -121l158 -55q170 -61 231 -155q43 -67 43 -164q0 -42 -8 -90q-37 -213 -182 -326q-145 -111 -391 -111 q-111 0 -222 25q-115 25 -221 76z" />
<glyph unicode="&#x15b;" horiz-adv-x="944" d="M532 1215l299 376h178l-370 -376h-107zM20 59l43 248h97q-4 -37 -4 -55q0 -182 223 -182q221 0 256 182q2 12 2 49q0 33 -31 70t-160 86l-112 45q-113 43 -152 100t-39 123q0 14 4 55q27 147 138 230q109 82 270.5 82t327.5 -86l-41 -232h-94q4 29 4 43q0 72 -47 125 q-45 51 -150 51q-213 0 -242 -164q-4 -25 -4 -47q0 -33 31 -65q33 -37 143 -78l123 -45q125 -45 176 -119q33 -47 33 -98q0 -211 -151 -320q-120 -86 -302 -86q-184 0 -342 88z" />
<glyph unicode="&#x15c;" horiz-adv-x="1261" d="M520 1635l254 264h160l162 -264h-105l-153 161l-213 -161h-105zM53 72l60 340h102q-7 -45 -6 -84q0 -108 51 -168q70 -82 242 -82q162 0 258 72q98 72 119 204q6 35 6 65q0 62 -27 101q-39 57 -194 113l-168 59q-184 66 -244 162q-42 67 -42 166q0 46 9 100 q33 188 174 295q139 104 361 105q88 0 200 -23q104 -20 226 -65l-56 -318h-100q2 24 2 46q0 123 -57 183q-68 70 -232 70q-139 0 -227 -65q-86 -63 -107 -187q-5 -32 -5 -59q0 -66 32 -109q43 -59 215 -121l158 -55q170 -61 231 -155q43 -67 43 -164q0 -42 -8 -90 q-37 -213 -182 -326q-145 -111 -391 -111q-111 0 -222 25q-115 25 -221 76z" />
<glyph unicode="&#x15d;" horiz-adv-x="944" d="M325 1262l279 376h149l146 -376h-105l-137 260l-227 -260h-105zM20 59l43 248h97q-4 -37 -4 -55q0 -182 223 -182q221 0 256 182q2 12 2 49q0 33 -31 70t-160 86l-112 45q-113 43 -152 100t-39 123q0 14 4 55q27 147 138 230q109 82 270.5 82t327.5 -86l-41 -232h-94 q4 29 4 43q0 72 -47 125q-45 51 -150 51q-213 0 -242 -164q-4 -25 -4 -47q0 -33 31 -65q33 -37 143 -78l123 -45q125 -45 176 -119q33 -47 33 -98q0 -211 -151 -320q-120 -86 -302 -86q-184 0 -342 88z" />
<glyph unicode="&#x15e;" horiz-adv-x="1261" d="M53 72l60 340h102q-7 -45 -6 -84q0 -108 51 -168q70 -82 242 -82q162 0 258 72q98 72 119 204q6 35 6 65q0 62 -27 101q-39 57 -194 113l-168 59q-184 66 -244 162q-42 67 -42 166q0 46 9 100q33 188 174 295q139 104 361 105q88 0 200 -23q104 -20 226 -65l-56 -318 h-100q2 24 2 46q0 123 -57 183q-68 70 -232 70q-139 0 -227 -65q-86 -63 -107 -187q-5 -32 -5 -59q0 -66 32 -109q43 -59 215 -121l158 -55q170 -61 231 -155q43 -67 43 -164q0 -42 -8 -90q-37 -213 -182 -326q-145 -111 -391 -111q-111 0 -222 25q-115 25 -221 76z M213 -371l23 131q31 -16 68 -26q31 -8 65 -8q53 0 86 26q35 29 43 72q6 29 -6 72t-43 104h88q43 -61 63 -121q20 -61 13 -104q-16 -82 -80 -125q-68 -45 -166 -45q-37 0 -76 6q-35 6 -78 18z" />
<glyph unicode="&#x15f;" horiz-adv-x="944" d="M20 59l43 248h97q-4 -37 -4 -55q0 -182 223 -182q221 0 256 182q2 12 2 49q0 33 -31 70t-160 86l-112 45q-113 43 -152 100t-39 123q0 14 4 55q27 147 138 230q109 82 270.5 82t327.5 -86l-41 -232h-94q4 29 4 43q0 72 -47 125q-45 51 -150 51q-213 0 -242 -164 q-4 -25 -4 -47q0 -33 31 -65q33 -37 143 -78l123 -45q125 -45 176 -119q33 -47 33 -98q0 -211 -151 -320q-120 -86 -302 -86q-184 0 -342 88zM90 -371l23 131q31 -16 68 -26q31 -8 65 -8q53 0 86 26q35 29 43 72q6 29 -6 72t-43 104h88q43 -61 63 -121q20 -61 13 -104 q-16 -82 -80 -125q-68 -45 -166 -45q-37 0 -76 6q-35 6 -78 18z" />
<glyph unicode="&#x160;" horiz-adv-x="1261" d="M53 72l60 340h102q-7 -45 -6 -84q0 -108 51 -168q70 -82 242 -82q162 0 258 72q98 72 119 204q6 35 6 65q0 62 -27 101q-39 57 -194 113l-168 59q-184 66 -244 162q-42 67 -42 166q0 46 9 100q33 188 174 295q139 104 361 105q88 0 200 -23q104 -20 226 -65l-56 -318 h-100q2 24 2 46q0 123 -57 183q-68 70 -232 70q-139 0 -227 -65q-86 -63 -107 -187q-5 -32 -5 -59q0 -66 32 -109q43 -59 215 -121l158 -55q170 -61 231 -155q43 -67 43 -164q0 -42 -8 -90q-37 -213 -182 -326q-145 -111 -391 -111q-111 0 -222 25q-115 25 -221 76z M575 1899h105l153 -162l211 162h107l-256 -264h-158z" />
<glyph unicode="&#x161;" horiz-adv-x="944" d="M20 59l43 248h97q-4 -37 -4 -55q0 -182 223 -182q221 0 256 182q2 12 2 49q0 33 -31 70t-160 86l-112 45q-113 43 -152 100t-39 123q0 14 4 55q27 147 138 230q109 82 270.5 82t327.5 -86l-41 -232h-94q4 29 4 43q0 72 -47 125q-45 51 -150 51q-213 0 -242 -164 q-4 -25 -4 -47q0 -33 31 -65q33 -37 143 -78l123 -45q125 -45 176 -119q33 -47 33 -98q0 -211 -151 -320q-120 -86 -302 -86q-184 0 -342 88zM391 1638h102l137 -260l230 260h104l-278 -376h-152z" />
<glyph unicode="&#x162;" horiz-adv-x="1228" d="M196 -371l23 131q31 -16 68 -26q31 -8 65 -8q53 0 86 26q35 29 43 72q6 29 -6 72t-43 104h88q43 -61 63 -121q20 -61 13 -104q-16 -82 -80 -125q-68 -45 -166 -45q-37 0 -76 6q-35 6 -78 18zM86 1141l64 352h1191l-61 -352h-111l41 233h-395l-221 -1268h172l-18 -106 h-527l19 106h172l223 1268h-397l-39 -233h-113z" />
<glyph unicode="&#x163;" horiz-adv-x="739" d="M69 -371l23 131q31 -16 68 -26q31 -8 65 -8q53 0 86 26q35 29 43 72q6 29 -6 72t-43 104h88q43 -61 63 -121q20 -61 13 -104q-16 -82 -80 -125q-68 -45 -166 -45q-37 0 -76 6q-35 6 -78 18zM100 956l21 107h145l58 330h165l-57 -330h311l-18 -107h-311l-119 -675 q-14 -74 -14 -125q0 -27 8 -47q18 -39 80 -39q63 0 100 43q39 47 57 137h125q-35 -145 -108 -211q-76 -68 -207 -68q-143 0 -191 72q-29 45 -28 123q0 51 12 115l119 675h-148z" />
<glyph unicode="&#x164;" horiz-adv-x="1228" d="M86 1141l64 352h1191l-61 -352h-111l41 233h-395l-221 -1268h172l-18 -106h-527l19 106h172l223 1268h-397l-39 -233h-113zM553 1899h105l153 -162l211 162h107l-256 -264h-158z" />
<glyph unicode="&#x165;" horiz-adv-x="739" d="M100 956l21 107h145l58 330h165l-57 -330h311l-18 -107h-311l-119 -675q-14 -74 -14 -125q0 -27 8 -47q18 -39 80 -39q63 0 100 43q39 47 57 137h125q-35 -145 -108 -211q-76 -68 -207 -68q-143 0 -191 72q-29 45 -28 123q0 51 12 115l119 675h-148zM576 1237l121 376 h180l-197 -376h-104z" />
<glyph unicode="&#x166;" horiz-adv-x="1228" d="M86 1141l64 352h1191l-61 -352h-111l41 233h-395l-100 -575h239l-20 -119h-240l-100 -574h172l-18 -106h-527l19 106h172l100 574h-240l21 119h239l103 575h-397l-39 -233h-113z" />
<glyph unicode="&#x167;" horiz-adv-x="739" d="M59 582l27 141h121l41 233h-148l21 107h145l58 330h165l-57 -330h311l-18 -107h-311l-41 -233h172l-27 -141h-172l-51 -301q-12 -80 -12 -125q0 -33 6 -47q18 -39 80 -39q63 0 100 43q39 47 57 137h125q-35 -145 -108 -211q-76 -68 -205 -68q-143 0 -191 72 q-31 43 -30 123q0 51 12 115l51 301h-121z" />
<glyph unicode="&#x168;" horiz-adv-x="1552" d="M708 1667q18 102 76 160q55 59 131 59q29 0 59 -10q31 -12 72 -39l39 -26q25 -16 37 -21q18 -6 33 -6q39 0 63 27q25 25 35 75h86q-23 -109 -76 -161q-55 -57 -139 -58q-61 0 -119 45l-4 2l-39 29q-20 16 -33 21q-18 6 -30 6q-37 0 -66 -29q-27 -27 -39 -74h-86z M201 1386l18 107h526l-20 -107h-170l-135 -772q-22 -126 -22 -217q0 -118 36 -182q63 -113 271 -113q205 0 309 113q104 114 153 399l136 772h-173l21 107h453l-19 -107h-172l-137 -792q-57 -336 -203 -481q-141 -141 -426 -142q-283 0 -377 142q-59 88 -59 252 q0 101 22 229l140 792h-172z" />
<glyph unicode="&#x169;" horiz-adv-x="1185" d="M396 1309q25 133 84 209q58 74 141 73q33 0 59 -14q35 -20 56 -47l41 -55q15 -22 30 -31q10 -8 31 -8q39 0 67.5 41t47.5 114h86q-25 -133 -84 -209q-58 -74 -141 -73q-35 0 -62 14q-31 18 -53 47l-41 55q-16 23 -33 31q-14 8 -31 8q-37 0 -65 -41q-31 -43 -47 -114h-86z M127 956l18 107h316l-109 -619q-16 -92 -16 -172q0 -68 12 -94q31 -72 141 -72q115 0 191 95q78 96 108 272l105 590h166l-168 -957h156l-19 -106h-321l32 188q-63 -106 -147 -161q-83 -55 -178 -56q-160 0 -217 101q-35 63 -35 164q0 72 14 151l100 569h-149z" />
<glyph unicode="&#x16a;" horiz-adv-x="1552" d="M705 1693l24 148h539l-27 -148h-536zM201 1386l18 107h526l-20 -107h-170l-135 -772q-22 -126 -22 -217q0 -118 36 -182q63 -113 271 -113q205 0 309 113q104 114 153 399l136 772h-173l21 107h453l-19 -107h-172l-137 -792q-57 -336 -203 -481q-141 -141 -426 -142 q-283 0 -377 142q-59 88 -59 252q0 101 22 229l140 792h-172z" />
<glyph unicode="&#x16b;" horiz-adv-x="1185" d="M441 1378l24 148h539l-27 -148h-536zM127 956l18 107h316l-109 -619q-16 -92 -16 -172q0 -68 12 -94q31 -72 141 -72q115 0 191 95q78 96 108 272l105 590h166l-168 -957h156l-19 -106h-321l32 188q-63 -106 -147 -161q-83 -55 -178 -56q-160 0 -217 101q-35 63 -35 164 q0 72 14 151l100 569h-149z" />
<glyph unicode="&#x16c;" horiz-adv-x="1552" d="M782 1901h86q6 -55 47 -82t127 -27q84 0 135 27q57 31 80 82h84q-41 -117 -121 -180q-82 -61 -200.5 -61.5t-180 61t-57.5 180.5zM201 1386l18 107h526l-20 -107h-170l-135 -772q-22 -126 -22 -217q0 -118 36 -182q63 -113 271 -113q205 0 309 113q104 114 153 399 l136 772h-173l21 107h453l-19 -107h-172l-137 -792q-57 -336 -203 -481q-141 -141 -426 -142q-283 0 -377 142q-59 88 -59 252q0 101 22 229l140 792h-172z" />
<glyph unicode="&#x16d;" horiz-adv-x="1185" d="M435 1608h86q0 -82 39 -115q37 -35 131 -35t143 35q53 35 78 115h86q-33 -141 -119 -215q-84 -72 -213 -72q-131 0 -190 72q-57 68 -41 215zM127 956l18 107h316l-109 -619q-16 -92 -16 -172q0 -68 12 -94q31 -72 141 -72q115 0 191 95q78 96 108 272l105 590h166 l-168 -957h156l-19 -106h-321l32 188q-63 -106 -147 -161q-83 -55 -178 -56q-160 0 -217 101q-35 63 -35 164q0 72 14 151l100 569h-149z" />
<glyph unicode="&#x16e;" horiz-adv-x="1552" d="M201 1386l18 107h526l-20 -107h-170l-135 -772q-22 -126 -22 -217q0 -118 36 -182q63 -113 271 -113q205 0 309 113q104 114 153 399l136 772h-173l21 107h453l-19 -107h-172l-137 -792q-57 -336 -203 -481q-141 -141 -426 -142q-283 0 -377 142q-59 88 -59 252 q0 101 22 229l140 792h-172zM776 1878q23 119 104 194q86 80 191 80q102 0 162 -80q55 -76 37 -194q-18 -115 -104.5 -195t-190.5 -80q-100 0 -160 80q-59 82 -39 195zM887 1878q-12 -66 20 -109q31 -43 90 -43q58 0 105 43q43 39 57 109q10 66 -20 106q-33 45 -91 45 t-104 -43q-45 -40 -57 -108z" />
<glyph unicode="&#x16f;" horiz-adv-x="1185" d="M127 956l18 107h316l-109 -619q-16 -92 -16 -172q0 -68 12 -94q31 -72 141 -72q115 0 191 95q78 96 108 272l105 590h166l-168 -957h156l-19 -106h-321l32 188q-63 -106 -147 -161q-83 -55 -178 -56q-160 0 -217 101q-35 63 -35 164q0 72 14 151l100 569h-149zM459 1504 q23 119 104 194q86 80 191 80q102 0 162 -80q55 -76 37 -194q-18 -115 -104.5 -195t-190.5 -80q-100 0 -160 80q-59 82 -39 195zM570 1504q-12 -66 20 -109q31 -43 90 -43q58 0 105 43q43 39 57 109q10 66 -20 106q-33 45 -91 45t-104 -43q-45 -40 -57 -108z" />
<glyph unicode="&#x170;" horiz-adv-x="1552" d="M833 1635l211 264h178l-282 -264h-107zM1120 1635l211 264h176l-283 -264h-104zM201 1386l18 107h526l-20 -107h-170l-135 -772q-22 -126 -22 -217q0 -118 36 -182q63 -113 271 -113q205 0 309 113q104 114 153 399l136 772h-173l21 107h453l-19 -107h-172l-137 -792 q-57 -336 -203 -481q-141 -141 -426 -142q-283 0 -377 142q-59 88 -59 252q0 101 22 229l140 792h-172z" />
<glyph unicode="&#x171;" horiz-adv-x="1185" d="M450 1262l236 376h153l-286 -376h-103zM714 1262l269 376h159l-323 -376h-105zM127 956l18 107h316l-109 -619q-16 -92 -16 -172q0 -68 12 -94q31 -72 141 -72q115 0 191 95q78 96 108 272l105 590h166l-168 -957h156l-19 -106h-321l32 188q-63 -106 -147 -161 q-83 -55 -178 -56q-160 0 -217 101q-35 63 -35 164q0 72 14 151l100 569h-149z" />
<glyph unicode="&#x172;" horiz-adv-x="1552" d="M455 -239q10 53 45 102q43 61 109 121h86l-3 -2q-96 -117 -106 -170q-8 -45 16.5 -73.5t73.5 -28.5q25 0 53 6q18 4 56 20l-23 -127q-45 -12 -65 -14q-41 -4 -60 -4q-98 0 -149 45q-49 43 -33 125zM201 1386l18 107h526l-20 -107h-170l-135 -772q-22 -126 -22 -217 q0 -118 36 -182q63 -113 271 -113q205 0 309 113q104 114 153 399l136 772h-173l21 107h453l-19 -107h-172l-137 -792q-57 -336 -203 -481q-141 -141 -426 -142q-283 0 -377 142q-59 88 -59 252q0 101 22 229l140 792h-172z" />
<glyph unicode="&#x173;" horiz-adv-x="1185" d="M725 -223q10 53 45 102q43 61 109 121h86l-3 -2q-96 -117 -106 -170q-8 -45 16.5 -73.5t73.5 -28.5q25 0 53 6q18 4 56 20l-23 -127q-45 -12 -65 -14q-41 -4 -60 -4q-98 0 -149 45q-49 43 -33 125zM127 956l18 107h316l-109 -619q-16 -92 -16 -172q0 -68 12 -94 q31 -72 141 -72q115 0 191 95q78 96 108 272l105 590h166l-168 -957h156l-19 -106h-321l32 188q-63 -106 -147 -161q-83 -55 -178 -56q-160 0 -217 101q-35 63 -35 164q0 72 14 151l100 569h-149z" />
<glyph unicode="&#x174;" horiz-adv-x="1892" d="M121 1386l18 107h492l-21 -107h-166l86 -1103l519 1210h145l98 -1223l477 1116h-155l18 107h387l-18 -107h-131l-596 -1386h-148l-96 1214l-518 -1214h-147l-111 1386h-133zM817 1643l254 264h160l162 -264h-105l-153 161l-213 -161h-105z" />
<glyph unicode="&#x175;" horiz-adv-x="1576" d="M635 1262l279 376h149l146 -376h-105l-137 260l-227 -260h-105zM104 954l19 109h246l100 -830l393 830h117l98 -830q120 144 148 197q92 186 194 526l-139 -2l20 109h240l-18 -109h-2q-94 -381 -179 -548q-129 -255 -270 -406h-137l-98 795l-375 -795h-133l-117 956z" />
<glyph unicode="&#x176;" horiz-adv-x="1214" d="M90 1386l21 107h497l-16 -107h-158l230 -604l442 604h-152l19 107h391l-18 -107h-127l-533 -724l-96 -556h172l-19 -106h-526l19 106h172l94 537l-285 743h-127zM473 1643l254 264h160l162 -264h-105l-153 161l-213 -161h-105z" />
<glyph unicode="&#x177;" horiz-adv-x="1040" d="M358 1262l279 376h149l146 -376h-105l-137 260l-227 -260h-105zM-68 -424l35 203h84q-2 -10 -2 -31q0 -41 19 -65q23 -35 79 -35q160 0 297 153l-227 1155h-108l18 107h248l213 -1055q147 246 180 340q115 311 135 598h-108l18 109h248q-88 -569 -248 -875 q-231 -444 -414 -575q-82 -59 -297 -60q-45 0 -84 9q-57 12 -86 22z" />
<glyph unicode="&#x178;" horiz-adv-x="1214" d="M90 1386l21 107h497l-16 -107h-158l230 -604l442 604h-152l19 107h391l-18 -107h-127l-533 -724l-96 -556h172l-19 -106h-526l19 106h172l94 537l-285 743h-127zM541 1768q10 49 45 82q39 35 80 34q45 0 70 -34q27 -35 16 -82q-8 -49 -45 -82q-39 -35 -82 -35t-67.5 35 t-16.5 82zM891 1768q10 49 45 82q39 35 82 34.5t68 -34.5q27 -35 16 -82q-8 -49 -45 -82q-39 -35 -80 -35q-45 0 -69.5 35t-16.5 82z" />
<glyph unicode="&#x179;" horiz-adv-x="1280" d="M762 1637l211 264h178l-282 -264h-107zM-47 0l12 72l1063 1298h-694l-39 -223h-111l62 346h1061l-13 -72l-1065 -1298h760l37 209h111l-60 -332h-1124z" />
<glyph unicode="&#x17a;" horiz-adv-x="970" d="M532 1215l299 376h178l-370 -376h-107zM-18 0l14 86l653 758l-35 12q-35 14 -61 33l-43 31q-84 57 -145 57q-119 0 -259 -152l21 121q154 168 272 168q72 -4 172 -70q104 -70 162 -69q98 0 193 88h53l-14 -86l-656 -758q4 0 13.5 -4t23.5 -8q35 -14 62 -33l43 -31 q84 -57 145 -57q119 0 258 152l-23 -121q-154 -168 -270 -168q-72 4 -172 69q-104 70 -162 70q-98 0 -192 -88h-53z" />
<glyph unicode="&#x17b;" horiz-adv-x="1280" d="M-47 0l12 72l1063 1298h-694l-39 -223h-111l62 346h1061l-13 -72l-1065 -1298h760l37 209h111l-60 -332h-1124zM724.5 1788q10.5 49 45.5 82q39 35 80 34q43 0 67 -34q27 -37 19 -82q-8 -49 -45 -82q-39 -35 -82 -35q-45 0 -70 35q-25 33 -14.5 82z" />
<glyph unicode="&#x17c;" horiz-adv-x="970" d="M569.5 1386q8.5 49 44.5 82q39 35 82 35t67.5 -35t16.5 -82t-45 -84q-35 -33 -82 -33t-67 33q-25 35 -16.5 84zM-18 0l14 86l653 758l-35 12q-35 14 -61 33l-43 31q-84 57 -145 57q-119 0 -259 -152l21 121q154 168 272 168q72 -4 172 -70q104 -70 162 -69q98 0 193 88 h53l-14 -86l-656 -758q4 0 13.5 -4t23.5 -8q35 -14 62 -33l43 -31q84 -57 145 -57q119 0 258 152l-23 -121q-154 -168 -270 -168q-72 4 -172 69q-104 70 -162 70q-98 0 -192 -88h-53z" />
<glyph unicode="&#x17d;" horiz-adv-x="1280" d="M-47 0l12 72l1063 1298h-694l-39 -223h-111l62 346h1061l-13 -72l-1065 -1298h760l37 209h111l-60 -332h-1124zM585 1899h105l153 -162l211 162h107l-256 -264h-158z" />
<glyph unicode="&#x17e;" horiz-adv-x="970" d="M-18 0l14 86l653 758l-35 12q-35 14 -61 33l-43 31q-84 57 -145 57q-119 0 -259 -152l21 121q154 168 272 168q72 -4 172 -70q104 -70 162 -69q98 0 193 88h53l-14 -86l-656 -758q4 0 13.5 -4t23.5 -8q35 -14 62 -33l43 -31q84 -57 145 -57q119 0 258 152l-23 -121 q-154 -168 -270 -168q-72 4 -172 69q-104 70 -162 70q-98 0 -192 -88h-53zM406 1638h102l137 -260l230 260h104l-278 -376h-152z" />
<glyph unicode="&#x17f;" horiz-adv-x="681" d="M-115 -426l11 98q95 0 141 56q49 61 74 206l178 1022h-160l21 107h157l25 133q31 174 131 268q98 92 260 92q59 0 117 -12q59 -12 114 -37l-36 -202h-87q2 14 3 41q0 47 -21 73q-31 39 -102 39q-92 0 -140 -57q-49 -59 -73 -201l-222 -1266q-31 -176 -131 -270 q-96 -90 -260 -90z" />
<glyph unicode="&#x180;" horiz-adv-x="1177" d="M80 0l211 1210h-160l23 121h157l21 119h-158l19 106h323l-39 -225h285l-21 -121h-284l-56 -313q63 100 150 147q84 47 194 48q174 0 261 -154q57 -104 57 -246q0 -68 -16 -160q-43 -248 -183 -405q-137 -156 -315 -156q-109 0 -178 47q-68 46 -99 148l-28 -166h-164z M313 338q0 -88 29 -152q49 -100 176 -100q125 0 211 113q88 117 125 333q16 90 16 180.5t-24 151.5q-47 113 -172 113q-127 0 -209 -100q-86 -104 -119 -293l-18 -105q-15 -73 -15 -141z" />
<glyph unicode="&#x181;" horiz-adv-x="1353" d="M-125 1020l59 344q102 76 275 113q96 16 194 16h494q200 0 289 -92q86 -90 55 -277q-25 -135 -108.5 -212.5t-227.5 -96.5q170 -25 240 -121q72 -98 43 -262q-41 -223 -184 -328q-144 -104 -412 -104h-621l19 106h172l223 1280q-203 0 -281 -90q-80 -92 -112 -276h-117z M342 106h270q160 0 250 78q88 76 119 248q29 168 -32.5 246t-223.5 78h-268zM475 862h230q150 0 227.5 63.5t101.5 198.5q27 156 -33 199q-88 63 -204 63h-230z" />
<glyph unicode="&#x182;" horiz-adv-x="1353" d="M-29 0l19 106h170l225 1280h-172l18 107h1082l-58 -334h-110l37 211h-619l-88 -508h230q342 0 440 -168q49 -86 49 -186q0 -37 -6 -76q-41 -223 -184 -328q-144 -104 -412 -104h-621zM342 106h270q160 0 250 78q88 76 119 248q10 61 10 100q0 92 -41 146q-61 78 -225 78 h-268z" />
<glyph unicode="&#x183;" horiz-adv-x="1177" d="M-80 0l19 106h157l236 1344h-160l21 106h856l-45 -268h-97l27 146h-438l-95 -537q63 100 150 147q80 47 194 48q174 0 261 -154q84 -152 41 -406q-43 -248 -183 -405q-139 -156 -315 -156q-111 0 -176 47q-72 51 -101 148l-28 -166h-324zM328 479q-33 -190 16 -293 q49 -100 174 -100q129 0 211 113q88 117 125 333q39 217 -8 332q-47 113 -172 113q-127 0 -209 -100q-86 -104 -119 -293z" />
<glyph unicode="&#x184;" horiz-adv-x="1353" d="M-29 0l19 106h172l153 885h-170l19 107l422 395l-111 -631h230q342 0 440 -168q68 -117 43 -262q-41 -223 -184 -328q-144 -104 -412 -104h-621zM342 106h270q160 0 250 78q88 76 119 248q29 172 -31 246q-61 78 -225 78h-268z" />
<glyph unicode="&#x185;" horiz-adv-x="1177" d="M-80 0l19 106h157l180 1018h-159l20 127l379 305l-115 -659q63 100 150 147q84 47 194 48q174 0 261 -154q84 -152 41 -406q-43 -248 -183 -405q-137 -156 -315 -156q-109 0 -178 47q-68 46 -99 148l-28 -166h-324zM328 479q-33 -190 16 -293q49 -100 174 -100t211 113 q88 117 125 333q39 217 -8 332q-47 113 -172 113q-127 0 -209 -100q-86 -104 -119 -293z" />
<glyph unicode="&#x186;" horiz-adv-x="1409" d="M27 100l61 344h100q0 -187 86 -276q86 -90 267 -90q213 0 354 170q139 168 199 497q57 324 -25 498q-80 170 -295 170q-152 0 -262.5 -80t-181.5 -237h-164q96 211 254 317.5t373 106.5q131 0 235 -50q102 -49 174 -147q80 -111 105 -254q25 -141 -7 -324 q-61 -348 -280 -561t-514 -213q-109 0 -230 31q-102 26 -249 98z" />
<glyph unicode="&#x187;" horiz-adv-x="1409" d="M86 422q-23 137 8 323q61 350 279 562q215 213 514 213q109 0 229 -31q70 -18 176 -64q16 88 99 146q74 59 180 59q61 0 121 -16q68 -23 106 -49l-39 -219h-86q18 95 -18 141q-31 45 -105 45q-82 0 -131 -62q-53 -66 -73 -190l-39 -233h-103q0 187 -86 276 q-86 90 -264 90q-215 0 -356 -170q-139 -168 -199 -498q-57 -324 25 -497q80 -170 297 -170q150 0 260 80t182 237h166q-96 -209 -256 -317q-156 -106 -373 -107q-129 0 -233 49q-102 49 -174 148q-82 115 -107 254z" />
<glyph unicode="&#x188;" horiz-adv-x="1030" d="M74 532q47 258 196 408q156 152 365 152q90 0 176 -25q51 -14 84 -29q41 145 127 217q66 53 174 54q61 0 121 -17q61 -20 106 -51l-39 -217h-86q18 94 -18 139q-31 45 -104 45q-86 0 -133.5 -59t-69.5 -193l-41 -231h-96q6 139 -48 205q-51 63 -170 63q-133 0 -223 -114 q-90 -117 -129 -346.5t6 -346.5q49 -117 185 -116q109 0 182 61q72 59 119 188h135q-66 -170 -182 -260q-115 -88 -275 -88q-207 0 -307 154q-98 149 -55 407z" />
<glyph unicode="&#x189;" horiz-adv-x="1486" d="M-20 0l20 106h170l106 613h-180l23 125h180l94 542h-170l19 107h534q346 0 506 -196.5t98.5 -549t-290.5 -548.5q-233 -199 -576 -199h-534zM350 106h170q262 0 432 166q168 166 223.5 475.5t-57.5 475.5q-111 164 -375 163h-170l-94 -542h303l-22 -125h-301z" />
<glyph unicode="&#x18a;" horiz-adv-x="1476" d="M-125 1020l59 344q139 102 275 113q76 16 194 16h365q346 0 506 -196.5t98.5 -549t-291.5 -548.5q-233 -199 -575 -199h-535l19 106h172l223 1280q-203 0 -281 -90q-80 -92 -112 -276h-117zM342 106h170q258 0 428 166q170 168 225 476q55 309 -57 475q-111 164 -373 163 h-168z" />
<glyph unicode="&#x18b;" horiz-adv-x="1353" d="M47 432q25 143 133 262q156 168 500 168h229l88 508h-616l-37 -209h-111l60 332h1079l-18 -107h-170l-226 -1280h172l-20 -106h-621q-267 0 -374 104q-109 105 -68 328zM254 432q-31 -170 30.5 -248t223.5 -78h268l115 650h-270q-160 0 -250 -78q-89 -77 -117 -246z" />
<glyph unicode="&#x18c;" horiz-adv-x="1177" d="M12 532q43 252 183 406q137 154 315 154q113 0 178 -48q68 -46 98 -147l93 537h-439l-24 -146h-94l47 268h858l-21 -106h-157l-236 -1344h160l-19 -106h-325l28 166q-61 -96 -147 -148q-84 -47 -197 -47q-172 0 -260 156q-84 157 -41 405zM207 532q-37 -225 6 -333 q45 -113 172 -113q125 0 211 100q82 100 117 293l18 105q35 193 -14 293t-176 100q-123 0 -211 -113q-83 -111 -123 -332z" />
<glyph unicode="&#x18d;" horiz-adv-x="1107" d="M86 -440l33 196l102 27q-6 -90 51.5 -135t141.5 -45q86 0 155 49q76 53 84 117q18 94 -12 127q-57 76 -143 75q-207 0 -310 154q-98 154 -55 405q43 250 197 408q154 154 364 154q207 0 310 -154q98 -150 55 -408q-41 -248 -199 -405q-70 -70 -127 -98q53 -25 76 -74 q25 -55 0 -193q-22 -129 -123 -196q-100 -68 -276 -68q-41 0 -140 17q-100 20 -184 47zM328 530q-40 -227 6 -344q49 -117 180 -116q133 0 223 116q86 113 127 344.5t-8 346.5q-49 117 -178 116q-133 0 -223 -116q-86 -114 -127 -347z" />
<glyph unicode="&#x18e;" horiz-adv-x="1343" d="M-29 0l58 332h110l-37 -209h633l109 625h-441l-30 -187h-113l88 496h111l-33 -187h440l86 500h-616l-37 -209h-111l60 332h1079l-16 -107h-172l-224 -1280h170l-18 -106h-1096z" />
<glyph unicode="&#x18f;" horiz-adv-x="1509" d="M96 422q-25 141 6 323l15 70h1095q49 279 -36 428q-84 170 -293 170q-162 0 -272.5 -80t-182.5 -237h-164q94 205 254 315q162 109 373 109q295 0 436 -213q143 -215 82 -562q-31 -174 -106 -323q-76 -143 -195 -254q-108 -98 -227 -148q-123 -49 -260.5 -49t-244 49.5 t-175.5 147.5q-80 111 -105 254zM301 694q-51 -291 35 -448q82 -168 303 -168t362 168q138 157 191 448h-891z" />
<glyph unicode="&#x190;" horiz-adv-x="1146" d="M174 303q0 53 8 100q31 170 142 279q113 109 278 133q-133 31 -194 123q-43 65 -43 154q0 35 6 71q27 166 157 262q127 94 340 95q211 0 414 -90l-45 -263h-100v37q0 100 -52 158q-53 59 -204 59q-154 0 -230 -69.5t-100 -206.5q-6 -37 -6 -72q0 -86 47 -139 q66 -72 262 -72h43l-18 -106h-84q-195 0 -295 -90q-98 -88 -125 -254q-8 -47 -8 -95q0 -98 43 -159q63 -88 188 -88q121 0 219 69.5t113 124.5h166q-51 -102 -178 -198q-125 -94 -343 -95q-215 0 -321 111q-80 83 -80 221z" />
<glyph unicode="&#x191;" horiz-adv-x="1277" d="M-340 -358l41 235h104q-35 -197 127 -196q104 0 162 75.5t94 292.5l234 1337h-170l18 107h1098l-57 -332h-111l37 209h-635l-88 -500h459l33 187h110l-86 -496h-110l32 187h-458l-125 -707q-55 -313 -222 -412q-94 -55 -235 -55q-133 0 -252 68z" />
<glyph unicode="&#x192;" horiz-adv-x="681" d="M-338 -330l35 203h88q-4 -29 -4 -41q0 -45 22 -74q31 -39 103 -39q90 0 139 55.5t74 207.5l170 974h-158l19 107h157l25 133q31 176 129 268t262 92q59 0 117 -12q59 -12 114 -37l-36 -202h-87q2 14 3 41q0 47 -21 73q-31 39 -102 39q-92 0 -140 -57q-49 -59 -73 -201 l-25 -137h268l-18 -107h-268l-170 -974q-31 -176 -131 -271q-96 -90 -260 -90q-61 0 -119 12t-113 37z" />
<glyph unicode="&#x193;" horiz-adv-x="1470" d="M94 745q61 353 283 566q221 209 530 209q188 0 400 -84q37 76 102.5 135t179.5 59q125 0 228 -65l-39 -219h-86q25 147 -68 176q-27 10 -55 10q-113 0 -166 -119q-23 -53 -39 -133l-41 -233h-100v6q0 266 -183 333q-74 27 -161 27q-231 0 -377 -166q-143 -166 -203 -502 q-92 -530 188 -641q68 -27 160 -26q201 0 391 112l68 385h-254l18 107h437l-99 -557q-266 -154 -579 -154q-303 0 -451 211q-145 209 -84 563z" />
<glyph unicode="&#x194;" horiz-adv-x="1310" d="M127 12q-18 182 440 721l-278 653h-144l19 107h532l-18 -107h-160l205 -481l381 481h-174l18 107h441l-19 -107h-151l-455 -575q381 -684 182 -854q-168 -145 -481 -145q-320 -1 -338 200zM248 55q-12 -70 46 -103.5t189 -33.5q244 0 269 137q37 215 -144 582 q-323 -375 -360 -582z" />
<glyph unicode="&#x195;" horiz-adv-x="1716" d="M88 0l254 1450h-158l19 106h323l-118 -682q63 106 147 162t180 56q160 0 215 -101q57 -102 21 -315l-58 -326q-20 -129 7 -190q28 -61 110 -62q111 0 236 131q102 109 135 297q25 156 -10 256q-37 102 -138 150l11 57h102q127 -66 184 -192q59 -129 31 -287 q-18 -113 -74 -207q-55 -98 -141 -172q-80 -70 -168 -102q-88 -35 -186 -35q-145 0 -226 100q-70 88 -38 256l47 268q35 197 4 267q-31 72 -142 71q-113 0 -190.5 -94t-108.5 -270l-102 -592h-168z" />
<glyph unicode="&#x196;" horiz-adv-x="727" d="M205 350l180 1036h-172l18 107h527l-21 -107h-170l-182 -1036q-20 -129 6.5 -190.5t110.5 -61.5h10l-16 -98h-13q-182 0 -227 53q-86 98 -51 297z" />
<glyph unicode="&#x197;" horiz-adv-x="727" d="M-29 0l19 106h172l90 523h-240l31 170h240l102 587h-172l18 107h527l-21 -107h-170l-102 -587h237l-28 -170h-240l-92 -523h172l-18 -106h-525z" />
<glyph unicode="&#x198;" horiz-adv-x="1376" d="M-31 0l19 106h172l223 1280h-172l18 107h527l-21 -107h-170l-98 -565l678 565q156 131 266 132q61 0 117 -19q59 -18 106 -49l-37 -217h-86q18 94 -18 139q-29 37 -82 43q-82 0 -156 -59l-637 -533l521 -717h151l-18 -106h-311l-515 709l-104 -603h170l-18 -106h-525z " />
<glyph unicode="&#x199;" horiz-adv-x="1114" d="M76 0l211 1204q27 162 133 258q102 94 258 94q66 0 121 -16q63 -20 104 -49l-37 -219h-86q14 92 -20 139q-33 45 -103 45q-84 0 -131 -59q-49 -59 -71 -193l-117 -661l475 413h-137l16 107h271l-19 -107l-336 -292l266 -558h138l-19 -106h-266l-260 543l-154 -135 l-71 -408h-166z" />
<glyph unicode="&#x19a;" horiz-adv-x="587" d="M0 465l18 104h158l154 881h-160l18 106h326l-172 -987h158l-21 -104h-155l-64 -359h158l-19 -106h-323l82 465h-158z" />
<glyph unicode="&#x19b;" horiz-adv-x="1167" d="M-61 0l18 106h109l542 977l-16 101l-273 -189l-40 86l294 203l-4 23q-18 96 -41 123q-25 31 -73 30q-51 0 -84 -28q-31 -31 -49 -99h-84l34 203q37 12 93 23q41 8 90 8q100 0 145 -45q51 -51 72 -170l147 98l39 -86l-170 -115l203 -1143h108l-18 -106h-360l18 106h143 l-127 736l-411 -736h153l-18 -106h-440z" />
<glyph unicode="&#x19c;" horiz-adv-x="1746" d="M156 387l176 1002h-152l21 106h458l-20 -106h-143l-170 -981q-29 -166 2 -232q31 -70 131 -70q109 0 184 95q78 100 107 270l159 918h-143l18 106h453l-18 -106h-144l-174 -988q-27 -158 4 -227q31 -68 131 -68q111 0 187 95q74 96 104 270l162 918h-146l21 106h459 l-21 -106h-147l-225 -1285h157l-18 -104h-324l33 188q-63 -104 -145 -161q-80 -55 -170 -56q-111 0 -177 62q-63 61 -69 174q-70 -121 -152 -176q-88 -59 -184 -60q-154 0 -207 103q-55 104 -18 313z" />
<glyph unicode="&#x19d;" horiz-adv-x="1611" d="M-340 -358l41 235h102q-18 -96 17 -147q31 -49 110 -49q104 0 162 75q57 78 94 293l234 1337h-180l18 107h344l600 -1178l187 1071h-181l21 107h471l-19 -107h-182l-248 -1415h-106l-641 1258l-207 -1188q-43 -244 -152 -356q-109 -111 -280 -111q-25 0 -82 16 q-68 19 -123 52z" />
<glyph unicode="&#x19e;" horiz-adv-x="1185" d="M166 0l168 956h-158l19 107h323l-33 -189q63 106 147.5 162t180.5 56q160 0 215 -101q57 -104 21 -315l-175 -995h148l-18 -107h-316l182 1044q35 197 4.5 268.5t-139.5 71.5q-115 0 -190 -94q-78 -92 -109 -272l-104 -592h-166z" />
<glyph unicode="&#x19f;" horiz-adv-x="1509" d="M96 422q-25 135 8 323q31 182 105 324q76 143 194 254q111 100 228 147q123 49 260 50q295 0 436 -213q143 -215 82 -562q-31 -174 -106 -323q-76 -143 -195 -254q-111 -100 -227 -148q-123 -49 -260 -49q-133 0 -242 49q-108 49 -178 148q-80 111 -105 254zM301 694 q-43 -291 35 -448q82 -168 303 -168t362 168q129 157 191 448h-891zM324 815h888q37 279 -36 428q-84 170 -304 170q-221 0 -362 -170q-125 -149 -186 -428z" />
<glyph unicode="&#x1a0;" horiz-adv-x="1509" d="M1205 1315l16 92h2q96 -86 137 -86q43 0 74 33q33 35 41 90q2 8 2 55q0 29 -6 60l115 -3q2 -37 0 -69q-4 -45 -9 -66q-18 -115 -69 -174q-53 -61 -125 -61q-45 0 -86 28q-39 29 -92 101zM92 422q-10 58 -10 125q0 90 18 198q31 182 105 324q76 143 194 254 q111 100 228 147q123 49 260 50q295 0 436 -213q100 -150 100 -366q0 -92 -18 -196q-31 -174 -106 -323q-72 -141 -195 -254q-111 -100 -227 -148q-123 -49 -260 -49q-133 0 -242 49q-108 49 -178 148q-80 111 -105 254zM305 745q-23 -132 -23 -239q0 -158 50 -260 q82 -168 303 -168t362 168q139 166 199 499q24 137 24 246q0 155 -48 254q-82 168 -303.5 168t-362.5 -168q-144 -170 -201 -500z" />
<glyph unicode="&#x1a1;" horiz-adv-x="1107" d="M881 846l16 92h2q96 -86 137 -86q43 0 74 33q33 35 41 90q2 8 2 55q0 29 -6 60l115 -3q2 -37 0 -69q-4 -45 -9 -66q-18 -115 -69 -174q-53 -61 -125 -61q-45 0 -86 28q-39 29 -92 101zM76 385q0 76 14 147q43 252 196.5 406t364.5 154q207 0 310 -154q68 -106 67 -258 q0 -86 -12 -148q-43 -252 -199 -407q-154 -154 -362 -154q-207 0 -310 154q-69 106 -69 260zM264 348q0 -92 27 -162q49 -117 180 -116q133 0 223 116q86 113 127 346q18 104 19 185q0 90 -27 160q-49 117 -180 116q-132 0 -221 -116.5t-129 -344.5q-19 -104 -19 -184z" />
<glyph unicode="&#x1a2;" horiz-adv-x="1914" d="M121 422q-25 135 8 323q31 176 106.5 324t192.5 254q104 98 227 147.5t263 49.5q180 0 307 -84q66 27 116 41q59 16 134 16q197 0 268 -111q68 -106 24 -356l-217 -1239h172l-18 -109h-563l18 109h209l215 1231q37 221 10 293q-29 76 -137 75q-78 0 -127 -49 q16 -20 23 -30q143 -211 82 -562q-31 -174 -107 -323q-76 -143 -194 -254q-108 -98 -228 -148q-123 -49 -260 -49q-133 0 -242 49q-104 47 -176 148q-81 115 -106 254zM336 745q-59 -330 24 -499q82 -168 306 -168q219 0 360 168q141 170 201 499q57 332 -25 500t-305 168 q-221 0 -362 -168q-140 -168 -199 -500z" />
<glyph unicode="&#x1a3;" horiz-adv-x="1486" d="M127 532q43 252 196.5 406t364.5 154q127 0 215 -60q0 2 43 15q55 16 127 16q156 0 227 -94q70 -90 41 -256l-180 -1032h158l-19 -107h-323l199 1139q23 133 -5 190q-28 61 -110 62q-55 0 -74 -15l8 -12q98 -150 56 -406q-43 -254 -197 -407.5t-362.5 -153.5t-309.5 154 q-98 149 -55 407zM319 532q-41 -231 9 -346q49 -117 180 -116.5t221 116.5q88 117 129 346q39 223 -8 345q-47 117 -180 116q-132 0 -221.5 -117t-129.5 -344z" />
<glyph unicode="&#x1a4;" horiz-adv-x="1239" d="M-125 1020l59 344q98 72 275 113q96 16 194 16h465q201 0 299 -113q98 -115 66 -307q-35 -193 -172 -305q-139 -115 -340 -115h-283l-96 -547h209l-19 -106h-561l19 106h172l223 1280q-203 0 -281 -90q-80 -92 -112 -276h-117zM459 760h235q133 0 219 80q82 80 111 233 q25 156 -29 234q-55 80 -190 79h-238z" />
<glyph unicode="&#x1a5;" horiz-adv-x="1177" d="M45 -426l270 1540q27 164 133.5 258t258.5 94q66 0 120 -16q59 -16 107 -49l-39 -219h-86q18 92 -18 141q-31 43 -105 43q-82 0 -131 -61q-53 -66 -74 -191l-37 -217q66 98 150 147q80 47 194 48q174 0 261 -154q84 -152 41 -406q-43 -249 -185 -405q-139 -156 -313 -156 q-109 0 -178 47q-70 49 -99 148l-102 -592h-168zM371 479q-35 -193 14 -293t176 -100q129 0 211 113q88 117 125 333q37 223 -8 332q-47 113 -172 113q-129 0 -211 -100.5t-117 -292.5z" />
<glyph unicode="&#x1a6;" horiz-adv-x="1386" d="M0 0l18 106h170l226 1280h-172l18 107h545l-19 -107h-190l-39 -219h328q197 0 284 -102q66 -76 66 -199q0 -41 -10 -98q-55 -309 -371 -352q61 -18 96 -64q39 -47 60 -129l118 -442h162l-16 -107h-318l-127 476q-37 141 -79 180q-41 39 -132 39h-200l-45 -263h188 l-18 -106h-543zM436 475h266q135 0 213 72q80 74 105 221q8 43 8 113q0 61 -35 108q-53 72 -188 72h-266z" />
<glyph unicode="&#x1a7;" horiz-adv-x="1261" d="M96 408q29 162 121 254q94 94 289 155l176 55q195 63 258 121q66 59 84 168q20 121 -41 187q-66 66 -205 65q-160 0 -254 -71.5t-137 -227.5h-100l55 318q145 47 250 65q119 23 209 23q217 0 321.5 -104.5t71.5 -295.5q-27 -162 -127 -266q-94 -96 -299 -162l-186 -59 q-176 -55 -236 -113q-61 -58 -80 -166q-23 -135 49 -207q70 -70 232 -69q174 0 270 82q100 80 133 252h103l-60 -340q-127 -51 -245 -76q-121 -25 -232 -25q-246 0 -352 111q-105 107 -68 326z" />
<glyph unicode="&#x1a8;" horiz-adv-x="944" d="M61 295q20 109 93 180q72 74 217 119l139 45q123 41 176 84q47 41 59 106q14 82 -32.5 123t-151.5 41q-106 0 -176 -57q-72 -59 -92 -162h-96l41 232q86 39 184 63q90 23 164 23q170 0 252 -82q80 -80 55 -230q-18 -106 -84 -168q-74 -70 -199 -110l-127 -45 q-141 -47 -196 -92q-51 -45 -64 -113q-16 -90 35 -135q51 -47 164 -47q121 0 196 59q74 58 99 178h94l-43 -248q-100 -45 -186 -65q-96 -23 -187 -23q-182 0 -270.5 86t-63.5 238z" />
<glyph unicode="&#x1a9;" horiz-adv-x="1302" d="M-55 0l729 748l-469 745h1106l-60 -332h-110l37 209h-625l324 -557l-609 -625h703l24 144h111l-57 -332h-1104z" />
<glyph unicode="&#x1aa;" horiz-adv-x="595" d="M-37 1360q37 199 377 199q143 0 219 -95q47 -59 57 -131q37 55 56 156l10 63h90l-10 -63q-39 -219 -166 -305l-403 -1288q-35 -109 6 -191q27 -61 108 -61q76 0 121 45q45 43 68 141h86l-37 -219q-61 -34 -123 -49q-66 -16 -127 -17q-156 0 -225 93q-90 115 -43 258 q-2 12 385 1232h-9q-242 0 -352.5 58.5t-87.5 173.5zM160 1352q-22 -123 258 -123q4 0 12 1t12 1q25 95 -12 166q-31 61 -108 61q-144 0 -162 -106z" />
<glyph unicode="&#x1ab;" horiz-adv-x="739" d="M90 -389l39 219h84q-10 -96 20.5 -141t104.5 -45q82 0 131 61q53 66 74 191l14 88q-45 -12 -100 -13q-145 0 -191 70q-49 74 -18 240l119 675h-148l21 107h145l57 330h166l-57 -330h311l-18 -107h-312l-116 -675q-25 -133 -8.5 -172t79.5 -39q66 0 103 43t55 137h125 l-61 -354q-29 -166 -133.5 -258.5t-258.5 -92.5q-61 0 -120.5 16.5t-106.5 49.5z" />
<glyph unicode="&#x1ac;" horiz-adv-x="1228" d="M125 1008l61 356q102 76 275 113q98 16 192 16h688l-61 -352h-111l41 233h-395l-221 -1268h172l-18 -106h-527l19 106h172l223 1268q-205 0 -283 -90q-80 -92 -112 -276h-115z" />
<glyph unicode="&#x1ad;" horiz-adv-x="739" d="M86 956l18 107h148l24 141q27 162 134 258q102 94 258 94q66 0 120 -16q68 -23 107 -49l-39 -219h-86q18 92 -20 139q-31 45 -105 45q-84 0 -131 -59q-49 -59 -72 -193l-24 -141h311l-18 -107h-312l-118 -675q-25 -135 -7 -172q20 -39 80 -39q66 0 103 43t55 137h125 q-25 -141 -109 -211q-74 -68 -206 -68q-143 0 -191 72q-45 68 -16 238l118 675h-147z" />
<glyph unicode="&#x1ae;" horiz-adv-x="1228" d="M125 1141l61 352h1192l-59 -352h-113l41 233h-393l-233 -1325q-37 -213 -9 -293q29 -76 136 -75q80 0 129 49q45 45 67 147h103l-41 -235q-61 -29 -142 -52q-63 -16 -133 -16q-199 0 -268 111q-68 106 -25 356l234 1333h-396l-40 -233h-111z" />
<glyph unicode="&#x1af;" horiz-adv-x="1552" d="M1385 1315l16 92h2q96 -86 137 -86q43 0 74 33q33 35 41 90q2 8 2 55q0 29 -6 60l115 -3q2 -37 0 -69q-4 -45 -9 -66q-18 -115 -69 -174q-53 -61 -125 -61q-45 0 -86 28q-39 29 -92 101zM197 1386l18 107h526l-20 -107h-170l-135 -772q-22 -126 -22 -217q0 -118 36 -182 q63 -113 271 -113q205 0 309 113q104 114 153 399l136 772h-173l21 107h453l-19 -107h-172l-137 -792q-57 -336 -203 -481q-141 -141 -426 -142q-283 0 -377 142q-59 88 -59 252q0 101 22 229l140 792h-172z" />
<glyph unicode="&#x1b0;" horiz-adv-x="1185" d="M959 846l16 92h2q96 -86 137 -86q43 0 74 33q33 35 41 90q2 8 2 55q0 29 -6 60l115 -3q2 -37 0 -69q-4 -45 -9 -66q-18 -115 -69 -174q-53 -61 -125 -61q-45 0 -86 28q-39 29 -92 101zM117 956l18 107h316l-109 -619q-16 -92 -16 -172q0 -68 12 -94q31 -72 141 -72 q115 0 191 95q78 96 108 272l105 590h166l-168 -957h156l-19 -106h-321l32 188q-63 -106 -147 -161q-83 -55 -178 -56q-160 0 -217 101q-35 63 -35 164q0 72 14 151l100 569h-149z" />
<glyph unicode="&#x1b1;" horiz-adv-x="1527" d="M102 702q37 215 179 390q139 176 346 264h-303l-25 -137h-104l53 301h532l-32 -183q-176 -72 -285 -225q-113 -156 -152 -387q-49 -276 45 -449q96 -170 295 -170q201 0 353 170q152 166 200 449q41 236 -14 387q-55 156 -205 225l33 183h530l-53 -301h-104l24 137h-301 q172 -86 252 -262t43 -392q-27 -145 -102 -280q-70 -127 -193 -236q-100 -88 -227 -139q-117 -47 -254 -47q-135 0 -238 47q-102 43 -178 139q-84 104 -111 236q-31 133 -4 280z" />
<glyph unicode="&#x1b2;" horiz-adv-x="1398" d="M205 350l180 1036h-172l18 107h527l-21 -107h-170l-182 -1036q-20 -121 6 -190q18 -47 133 -54q193 -10 355 170q152 166 200 449q43 250 -14 387q-55 131 -188 160l20 114h96q186 -84 250 -258q76 -207 39 -426q-23 -143 -100 -280q-76 -135 -193 -236 q-100 -88 -227 -139q-96 -37 -254 -47q-197 -12 -252 53q-86 98 -51 297z" />
<glyph unicode="&#x1b3;" horiz-adv-x="1359" d="M90 1386l21 107h497l-16 -107h-158l230 -604l442 604q133 106 258 107q66 0 121 -16q57 -14 106 -50l-39 -219h-86q10 98 -18 142q-31 45 -105 45q-113 0 -172 -72l-485 -661l-96 -556h172l-19 -106h-526l19 106h172l94 537l-285 743h-127z" />
<glyph unicode="&#x1b4;" horiz-adv-x="1370" d="M-70 -424l35 203h84q-6 -70 14.5 -98.5t75.5 -28.5q47 0 84 30.5t86 122.5l94 177l-188 974h-109l19 107h440l-18 -107h-154l142 -731l350 639q123 221 342 221q84 0 121 -18l54.5 -24.5l38.5 -17.5l11 -5l-37 -219h-86q10 98 -18 139q-31 45 -107 45q-150 0 -227 -145 l-584 -1080q-66 -125 -129 -170t-164 -45q-45 0 -84 9q-57 12 -86 22z" />
<glyph unicode="&#x1b5;" horiz-adv-x="1280" d="M-47 0l12 72l455 557h-223l30 170h332l469 571h-694l-39 -223h-111l62 346h1061l-13 -72l-510 -622h287l-29 -170h-399l-414 -506h760l37 209h111l-60 -332h-1124z" />
<glyph unicode="&#x1b6;" horiz-adv-x="970" d="M-18 0l14 86l326 379h-179l19 104h252l237 275l-37 12q-16 6 -59 33l-45 31q-82 57 -145 57q-119 0 -259 -152l23 121q154 168 270 168q72 0 172.5 -69.5t161.5 -69.5q98 0 193 88h53l-14 -86l-353 -408h209l-16 -104h-283l-213 -246l37 -12q20 -6 62 -33l43 -31 q82 -57 147 -57q117 0 256 152l-23 -121q-154 -168 -270 -168q-72 0 -172 69q-104 70 -162 70q-98 0 -192 -88h-53z" />
<glyph unicode="&#x1b7;" horiz-adv-x="1038" d="M-23 84l58 324h100q-18 -162 45.5 -244t206.5 -82q139 0 236 98q94 96 125 273q35 201 -29 299q-63 100 -223 100h-84l16 102l383 416h-473l-39 -223h-113l62 346h784l-20 -125l-412 -444l72 -9q158 -27 229 -149q72 -121 37 -311q-41 -238 -188.5 -361t-384.5 -123 q-102 0 -201 29q-105 31 -187 84z" />
<glyph unicode="&#x1b8;" horiz-adv-x="1038" d="M43 455q33 190 145 311q117 123 283 149l74 9l-254 444l20 125h787l-62 -346h-108l39 223h-475l235 -416l-16 -102h-86q-160 0 -258 -100q-98 -98 -134 -299q-31 -174 31 -273q59 -98 201 -98q145 0 235 82q92 82 129 244h103l-58 -324q-100 -55 -215 -84 q-109 -29 -210 -29q-238 0 -343 123q-104 125 -63 361z" />
<glyph unicode="&#x1b9;" horiz-adv-x="1038" d="M43 25q35 193 145 313q117 123 283 149l74 7l-248 483l14 86h785l-52 -291h-96l33 184h-473l219 -432l-16 -100h-86q-156 0 -258 -102q-98 -98 -134 -299q-31 -172 31 -271q61 -100 201 -100q141 0 235 84q92 82 129 244h103l-58 -324q-108 -58 -215 -86 q-109 -29 -210 -29q-236 0 -343 125q-104 126 -63 359z" />
<glyph unicode="&#x1bb;" horiz-adv-x="1171" d="M-8 0l18 109l488 452q49 45 69 68h-426l29 170h543q6 10 13 18t13 19q78 121 103 264q27 150 -29 235q-59 86 -180 86q-127 0 -211 -71q-96 -72 -121 -213h-100l47 266q106 57 209 88q98 29 196 29q211 0 312 -113q101 -114 67 -307q-20 -133 -158 -301h142l-31 -170 h-264l-500 -465h561l31 184h107l-62 -348h-866z" />
<glyph unicode="&#x1bc;" horiz-adv-x="1263" d="M119 72l49 290h100q-14 -143 51 -219q66 -74 207 -73q139 0 234 88q92 86 121 243q31 178 -35 267q-68 90 -225 90h-345l111 628h-172l21 107h974l-57 -332h-111l37 209h-512l-90 -510h121q84 0 201 -20q160 -25 233 -133q74 -106 39 -304q-37 -211 -182 -321 q-143 -111 -383 -111q-109 0 -203 25q-98 25 -184 76z" />
<glyph unicode="&#x1bd;" horiz-adv-x="1038" d="M-20 -344l55 324h100q-18 -162 45 -244q66 -84 207 -84q137 0 236 100q96 100 127 271q35 197 -31 299t-223 102h-281l94 534h-159l18 105h858l-47 -266h-94l24 143h-438l-72 -416h115l160 -20q160 -27 231 -150q70 -119 33 -329q-41 -233 -188 -359q-150 -125 -385 -125 q-102 0 -201 29q-95 28 -184 86z" />
<glyph unicode="&#x1be;" horiz-adv-x="987" d="M109 37l36 217h86q-10 -98 21 -139q29 -47 102 -47q84 0 133 61q47 59 82 252q33 193 6 254q-28 61 -110 61h-105l48 262h-160l18 107h160l57 328h164l-55 -328h156l-19 -107h-158l-28 -172q102 -10 162 -84q70 -94 30 -321q-41 -227 -143 -318q-106 -94 -256 -94 q-61 0 -123 17q-51 14 -104 51z" />
<glyph unicode="&#x1c0;" horiz-adv-x="542" d="M68 0l262 1493h145l-262 -1493h-145z" />
<glyph unicode="&#x1c1;" horiz-adv-x="905" d="M68 0l262 1493h145l-262 -1493h-145zM433 0l262 1493h145l-262 -1493h-145z" />
<glyph unicode="&#x1c2;" horiz-adv-x="845" d="M-31 479l29 162h334l37 211h-334l28 162h334l84 479h146l-84 -479h334l-29 -162h-334l-37 -211h334l-29 -162h-333l-84 -479h-146l84 479h-334z" />
<glyph unicode="&#x1c3;" horiz-adv-x="542" d="M68 0l28 156h146l-29 -156h-145zM123 311l207 1182h145l-207 -1182h-145z" />
<glyph unicode="&#x1c4;" horiz-adv-x="2756" d="M-29 0l19 106h172l223 1280h-172l18 107h537q346 0 506 -197q115 -142 115 -365q0 -86 -17 -183q-61 -352 -291 -549q-233 -199 -575 -199h-535zM342 106h170q261 0 430 166q168 166 223 476q18 101 18 186q0 178 -75 289q-111 164 -373 163h-168zM1432 0l12 72 l1063 1298h-694l-39 -223h-111l62 346h1061l-13 -72l-1065 -1298h760l37 209h111l-60 -332h-1124zM2064 1899h105l153 -162l211 162h107l-256 -264h-158z" />
<glyph unicode="&#x1c5;" horiz-adv-x="2447" d="M-29 0l19 106h172l223 1280h-172l18 107h537q346 0 506 -197q115 -142 115 -365q0 -86 -17 -183q-61 -352 -291 -549q-233 -199 -575 -199h-535zM342 106h170q261 0 430 166q168 166 223 476q18 101 18 186q0 178 -75 289q-111 164 -373 163h-168zM1461 0l14 86l653 758 l-35 12q-35 14 -61 33l-43 31q-84 57 -145 57q-119 0 -259 -152l21 121q154 168 272 168q72 -4 172 -70q104 -70 162 -69q98 0 193 88h53l-14 -86l-656 -758q4 0 13.5 -4t23.5 -8q35 -14 62 -33l43 -31q84 -57 145 -57q119 0 258 152l-23 -121q-154 -168 -270 -168 q-72 4 -172 69q-104 70 -162 70q-98 0 -192 -88h-53zM1885 1638h102l137 -260l230 260h104l-278 -376h-152z" />
<glyph unicode="&#x1c6;" horiz-adv-x="2150" d="M37 373q0 80 14 159q43 252 182.5 406t317.5 154q106 0 176 -48q68 -46 98 -147l97 553h-156l18 106h322l-272 -1556h-166l28 166q-63 -100 -149 -148q-84 -47 -193 -47q-174 0 -262 156q-55 105 -55 246zM227 352q0 -92 25 -153q45 -113 174 -113q127 0 209 100.5 t117 292.5l18 105q14 72 14 141q0 88 -28 152q-49 100 -174 100t-213 -113q-86 -111 -123 -332q-19 -102 -19 -180zM1162 0l14 86l653 758l-35 12q-35 14 -61 33l-43 31q-84 57 -145 57q-119 0 -259 -152l21 121q154 168 272 168q72 -4 172 -70q104 -70 162 -69q98 0 193 88 h53l-14 -86l-656 -758q4 0 13.5 -4t23.5 -8q35 -14 62 -33l43 -31q84 -57 145 -57q119 0 258 152l-23 -121q-154 -168 -270 -168q-72 4 -172 69q-104 70 -162 70q-98 0 -192 -88h-53zM1586 1638h102l137 -260l230 260h104l-278 -376h-152z" />
<glyph unicode="&#x1c7;" horiz-adv-x="1961" d="M-29 0l19 106h172l223 1280h-172l18 107h527l-21 -107h-170l-221 -1263h615l43 250h110l-65 -373h-1078zM914 -358l41 235h102q-4 -28 -4 -53q0 -58 22 -94q31 -49 109 -49q106 0 164 75q55 74 92 293l236 1337h-209l18 107h561l-18 -107h-170l-236 -1345 q-43 -244 -151 -356q-106 -111 -307 -111q-70 0 -127 16q-62 19 -123 52z" />
<glyph unicode="&#x1c8;" horiz-adv-x="1794" d="M-29 0l19 106h172l223 1280h-172l18 107h527l-21 -107h-170l-221 -1263h615l43 250h110l-65 -373h-1078zM887 -389l39 219h86q-2 -16 -2 -45q0 -63 20 -96q31 -45 107 -45q82 0 131 61q51 63 72 191l184 1060h-156l19 107h323l-204 -1167q-29 -166 -133.5 -258.5 t-258.5 -92.5q-61 0 -120.5 16.5t-106.5 49.5zM1559 1370q0 14 2 23q10 47 45 80q39 35 78 34q41 0 65 -34q18 -25 19 -58q0 -14 -2 -22q-9 -46 -43 -80q-33 -33 -78 -33q-43 0 -68 33q-18 24 -18 57z" />
<glyph unicode="&#x1c9;" horiz-adv-x="1159" d="M76 0l254 1450h-160l18 106h326l-254 -1450h158l-21 -106h-321zM252 -389l39 219h86q-2 -16 -2 -45q0 -63 20 -96q31 -45 107 -45q82 0 131 61q51 63 72 191l184 1060h-156l19 107h323l-204 -1167q-29 -166 -133.5 -258.5t-258.5 -92.5q-61 0 -120.5 16.5t-106.5 49.5z M924 1370q0 14 2 23q10 47 45 80q39 35 78 34q41 0 65 -34q18 -25 19 -58q0 -14 -2 -22q-9 -46 -43 -80q-33 -33 -78 -33q-43 0 -68 33q-18 24 -18 57z" />
<glyph unicode="&#x1ca;" horiz-adv-x="2349" d="M-39 0l19 106h182l223 1280h-180l18 107h344l600 -1178l189 1071h-180l18 107h471l-18 -107h-183l-245 -1415h-109l-641 1258l-197 -1123h181l-19 -106h-473zM1303 -358l41 235h102q-4 -28 -4 -53q0 -58 22 -94q31 -49 109 -49q106 0 164 75q55 74 92 293l236 1337h-209 l18 107h561l-18 -107h-170l-236 -1345q-43 -244 -151 -356q-106 -111 -307 -111q-70 0 -127 16q-62 19 -123 52z" />
<glyph unicode="&#x1cb;" horiz-adv-x="2183" d="M-39 0l19 106h182l223 1280h-180l18 107h344l600 -1178l189 1071h-180l18 107h471l-18 -107h-183l-245 -1415h-109l-641 1258l-197 -1123h181l-19 -106h-473zM1276 -389l39 219h86q-2 -16 -2 -45q0 -63 20 -96q31 -45 107 -45q82 0 131 61q51 63 72 191l184 1060h-156 l19 107h323l-204 -1167q-29 -166 -133.5 -258.5t-258.5 -92.5q-61 0 -120.5 16.5t-106.5 49.5zM1948 1370q0 14 2 23q10 47 45 80q39 35 78 34q41 0 65 -34q18 -25 19 -58q0 -14 -2 -22q-9 -46 -43 -80q-33 -33 -78 -33q-43 0 -68 33q-18 24 -18 57z" />
<glyph unicode="&#x1cc;" horiz-adv-x="1757" d="M129 0l168 956h-160l21 107h323l-32 -189q63 106 147 162t180 56q158 0 215 -101q35 -63 35 -164q0 -72 -14 -151l-101 -570h148l-19 -106h-315l109 618q18 104 18 173q0 66 -14 96q-31 72 -140 71q-115 0 -192 -94q-76 -90 -107 -272l-104 -592h-166zM850 -389l39 219 h86q-2 -16 -2 -45q0 -63 20 -96q31 -45 107 -45q82 0 131 61q51 63 72 191l184 1060h-156l19 107h323l-204 -1167q-29 -166 -133.5 -258.5t-258.5 -92.5q-61 0 -120.5 16.5t-106.5 49.5zM1522 1370q0 14 2 23q10 47 45 80q39 35 78 34q41 0 65 -34q18 -25 19 -58 q0 -14 -2 -22q-9 -46 -43 -80q-33 -33 -78 -33q-43 0 -68 33q-18 24 -18 57z" />
<glyph unicode="&#x1cd;" horiz-adv-x="1329" d="M-141 0l18 106h119l721 1387h151l238 -1387h131l-18 -106h-490l19 106h149l-53 328h-568l-167 -328h147l-18 -106h-379zM334 541h491l-120 710zM528 1899h105l153 -162l211 162h107l-256 -264h-158z" />
<glyph unicode="&#x1ce;" horiz-adv-x="1097" d="M61 295q0 41 11 106q61 356 282 537q190 154 416 154q154 0 207 -29l-168 -957h141l-18 -106h-291l29 166q-121 -195 -314 -195q-158 0 -237 119q-58 86 -58 205zM238 299q0 -213 186 -213q115 0 190.5 100.5t110.5 292.5l84 482q0 29 -74 28q-172 0 -307 -149 q-131 -150 -180 -424q-10 -54 -10 -117zM406 1638h102l137 -260l230 260h104l-278 -376h-152z" />
<glyph unicode="&#x1cf;" horiz-adv-x="727" d="M-29 0l19 106h172l223 1280h-172l18 107h527l-21 -107h-170l-225 -1280h172l-18 -106h-525zM282 1899h105l153 -162l211 162h107l-256 -264h-158z" />
<glyph unicode="&#x1d0;" horiz-adv-x="587" d="M131 0l168 956h-158l19 107h323l-168 -957h156l-16 -106h-324zM203 1638h102l137 -260l230 260h104l-278 -376h-152z" />
<glyph unicode="&#x1d1;" horiz-adv-x="1509" d="M96 422q-10 58 -10 125q0 90 18 198q31 182 105 324q76 143 194 254q111 100 228 147q123 49 260 50q295 0 436 -213q100 -150 100 -366q0 -92 -18 -196q-31 -174 -106 -323q-72 -141 -195 -254q-111 -100 -227 -148q-123 -49 -260 -49q-133 0 -242 49q-108 49 -178 148 q-80 111 -105 254zM309 745q-23 -132 -23 -239q0 -158 50 -260q82 -168 303 -168t362 168q139 166 199 499q24 137 24 246q0 155 -48 254q-82 168 -303.5 168t-362.5 -168q-144 -170 -201 -500zM688 1899h105l153 -162l211 162h107l-256 -264h-158z" />
<glyph unicode="&#x1d2;" horiz-adv-x="1107" d="M78 385q0 76 14 147q43 252 196.5 406t364.5 154q207 0 310 -154q68 -106 67 -258q0 -86 -12 -148q-43 -252 -199 -407q-154 -154 -362 -154q-207 0 -310 154q-69 106 -69 260zM266 348q0 -92 27 -162q49 -117 180 -116q133 0 223 116q86 113 127 346q18 104 19 185 q0 90 -27 160q-49 117 -180 116q-132 0 -221 -116.5t-129 -344.5q-19 -104 -19 -184zM467 1638h102l137 -260l230 260h104l-278 -376h-152z" />
<glyph unicode="&#x1d3;" horiz-adv-x="1552" d="M201 1386l18 107h526l-20 -107h-170l-135 -772q-22 -126 -22 -217q0 -118 36 -182q63 -113 271 -113q205 0 309 113q104 114 153 399l136 772h-173l21 107h453l-19 -107h-172l-137 -792q-57 -336 -203 -481q-141 -141 -426 -142q-283 0 -377 142q-59 88 -59 252 q0 101 22 229l140 792h-172zM737 1899h105l153 -162l211 162h107l-256 -264h-158z" />
<glyph unicode="&#x1d4;" horiz-adv-x="1185" d="M127 956l18 107h316l-109 -619q-16 -92 -16 -172q0 -68 12 -94q31 -72 141 -72q115 0 191 95q78 96 108 272l105 590h166l-168 -957h156l-19 -106h-321l32 188q-63 -106 -147 -161q-83 -55 -178 -56q-160 0 -217 101q-35 63 -35 164q0 72 14 151l100 569h-149zM447 1638 h102l137 -260l230 260h104l-278 -376h-152z" />
<glyph unicode="&#x1d5;" horiz-adv-x="1552" d="M836 2058l24 148h539l-27 -148h-536zM201 1386l18 107h526l-20 -107h-170l-135 -772q-22 -126 -22 -217q0 -118 36 -182q63 -113 271 -113q205 0 309 113q104 114 153 399l136 772h-173l21 107h453l-19 -107h-172l-137 -792q-57 -336 -203 -481q-141 -141 -426 -142 q-283 0 -377 142q-59 88 -59 252q0 101 22 229l140 792h-172zM745 1768q10 49 45 82q39 35 80 34q45 0 70 -34q27 -35 16 -82q-8 -49 -45 -82q-39 -35 -82 -35t-67.5 35t-16.5 82zM1095 1768q10 49 45 82q39 35 82 34.5t68 -34.5q27 -35 16 -82q-8 -49 -45 -82 q-39 -35 -80 -35q-45 0 -69.5 35t-16.5 82z" />
<glyph unicode="&#x1d6;" horiz-adv-x="1185" d="M127 956l18 107h316l-109 -619q-16 -92 -16 -172q0 -68 12 -94q31 -72 141 -72q115 0 191 95q78 96 108 272l105 590h166l-168 -957h156l-19 -106h-321l32 188q-63 -106 -147 -161q-83 -55 -178 -56q-160 0 -217 101q-35 63 -35 164q0 72 14 151l100 569h-149zM422 1452 q8 49 45 82q39 35 80 35q43 0 67.5 -35t16.5 -82t-45 -84q-35 -33 -82 -33t-67 33q-23 33 -15 84zM773 1452q8 49 45 82q39 35 79 35q43 0 68 -35t16.5 -82t-45.5 -84q-35 -33 -79 -33q-49 0 -70 33q-22 33 -14 84zM488 1693l24 148h539l-27 -148h-536z" />
<glyph unicode="&#x1d7;" horiz-adv-x="1552" d="M948 1958l211 264h178l-282 -264h-107zM201 1386l18 107h526l-20 -107h-170l-135 -772q-22 -126 -22 -217q0 -118 36 -182q63 -113 271 -113q205 0 309 113q104 114 153 399l136 772h-173l21 107h453l-19 -107h-172l-137 -792q-57 -336 -203 -481q-141 -141 -426 -142 q-283 0 -377 142q-59 88 -59 252q0 101 22 229l140 792h-172zM745 1768q10 49 45 82q39 35 80 34q45 0 70 -34q27 -35 16 -82q-8 -49 -45 -82q-39 -35 -82 -35t-67.5 35t-16.5 82zM1095 1768q10 49 45 82q39 35 82 34.5t68 -34.5q27 -35 16 -82q-8 -49 -45 -82 q-39 -35 -80 -35q-45 0 -69.5 35t-16.5 82z" />
<glyph unicode="&#x1d8;" horiz-adv-x="1185" d="M127 956l18 107h316l-109 -619q-16 -92 -16 -172q0 -68 12 -94q31 -72 141 -72q115 0 191 95q78 96 108 272l105 590h166l-168 -957h156l-19 -106h-321l32 188q-63 -106 -147 -161q-83 -55 -178 -56q-160 0 -217 101q-35 63 -35 164q0 72 14 151l100 569h-149zM422 1452 q8 49 45 82q39 35 80 35q43 0 67.5 -35t16.5 -82t-45 -84q-35 -33 -82 -33t-67 33q-23 33 -15 84zM773 1452q8 49 45 82q39 35 79 35q43 0 68 -35t16.5 -82t-45.5 -84q-35 -33 -79 -33q-49 0 -70 33q-22 33 -14 84zM616 1635l299 376h178l-370 -376h-107z" />
<glyph unicode="&#x1d9;" horiz-adv-x="1552" d="M833 2224h105l153 -162l211 162h107l-256 -264h-158zM201 1386l18 107h526l-20 -107h-170l-135 -772q-22 -126 -22 -217q0 -118 36 -182q63 -113 271 -113q205 0 309 113q104 114 153 399l136 772h-173l21 107h453l-19 -107h-172l-137 -792q-57 -336 -203 -481 q-141 -141 -426 -142q-283 0 -377 142q-59 88 -59 252q0 101 22 229l140 792h-172zM745 1768q10 49 45 82q39 35 80 34q45 0 70 -34q27 -35 16 -82q-8 -49 -45 -82q-39 -35 -82 -35t-67.5 35t-16.5 82zM1095 1768q10 49 45 82q39 35 82 34.5t68 -34.5q27 -35 16 -82 q-8 -49 -45 -82q-39 -35 -80 -35q-45 0 -69.5 35t-16.5 82z" />
<glyph unicode="&#x1da;" horiz-adv-x="1185" d="M127 956l18 107h316l-109 -619q-16 -92 -16 -172q0 -68 12 -94q31 -72 141 -72q115 0 191 95q78 96 108 272l105 590h166l-168 -957h156l-19 -106h-321l32 188q-63 -106 -147 -161q-83 -55 -178 -56q-160 0 -217 101q-35 63 -35 164q0 72 14 151l100 569h-149zM422 1452 q8 49 45 82q39 35 80 35q43 0 67.5 -35t16.5 -82t-45 -84q-35 -33 -82 -33t-67 33q-23 33 -15 84zM773 1452q8 49 45 82q39 35 79 35q43 0 68 -35t16.5 -82t-45.5 -84q-35 -33 -79 -33q-49 0 -70 33q-22 33 -14 84zM506 2011h102l137 -260l230 260h104l-278 -376h-152z" />
<glyph unicode="&#x1db;" horiz-adv-x="1552" d="M862 2226h178l117 -264h-107zM201 1386l18 107h526l-20 -107h-170l-135 -772q-22 -126 -22 -217q0 -118 36 -182q63 -113 271 -113q205 0 309 113q104 114 153 399l136 772h-173l21 107h453l-19 -107h-172l-137 -792q-57 -336 -203 -481q-141 -141 -426 -142 q-283 0 -377 142q-59 88 -59 252q0 101 22 229l140 792h-172zM745 1768q10 49 45 82q39 35 80 34q45 0 70 -34q27 -35 16 -82q-8 -49 -45 -82q-39 -35 -82 -35t-67.5 35t-16.5 82zM1095 1768q10 49 45 82q39 35 82 34.5t68 -34.5q27 -35 16 -82q-8 -49 -45 -82 q-39 -35 -80 -35q-45 0 -69.5 35t-16.5 82z" />
<glyph unicode="&#x1dc;" horiz-adv-x="1185" d="M127 956l18 107h316l-109 -619q-16 -92 -16 -172q0 -68 12 -94q31 -72 141 -72q115 0 191 95q78 96 108 272l105 590h166l-168 -957h156l-19 -106h-321l32 188q-63 -106 -147 -161q-83 -55 -178 -56q-160 0 -217 101q-35 63 -35 164q0 72 14 151l100 569h-149zM422 1452 q8 49 45 82q39 35 80 35q43 0 67.5 -35t16.5 -82t-45 -84q-35 -33 -82 -33t-67 33q-23 33 -15 84zM773 1452q8 49 45 82q39 35 79 35q43 0 68 -35t16.5 -82t-45.5 -84q-35 -33 -79 -33q-49 0 -70 33q-22 33 -14 84zM488 2009h178l168 -376h-107z" />
<glyph unicode="&#x1dd;" horiz-adv-x="1089" d="M94 551h715l2 8q37 217 -16 326q-55 109 -197 108q-113 0 -190 -63q-82 -66 -129 -189h-134q70 172 191 263q121 88 297 88q207 0 309 -154q100 -152 57 -408q-43 -248 -196 -405q-152 -154 -357 -154q-219 0 -307 150q-90 149 -45 430zM272 444q-27 -184 23 -280 q49 -94 170 -94q113 0 196.5 96t129.5 278h-519z" />
<glyph unicode="&#x1de;" horiz-adv-x="1329" d="M629 2058l24 148h539l-27 -148h-536zM-141 0l18 106h119l721 1387h151l238 -1387h131l-18 -106h-490l19 106h149l-53 328h-568l-167 -328h147l-18 -106h-379zM334 541h491l-120 710zM549 1768q10 49 45 82q39 35 80 34q45 0 70 -34q27 -35 16 -82q-8 -49 -45 -82 q-39 -35 -82 -35t-67.5 35t-16.5 82zM899 1768q10 49 45 82q39 35 82 34.5t68 -34.5q27 -35 16 -82q-8 -49 -45 -82q-39 -35 -80 -35q-45 0 -69.5 35t-16.5 82z" />
<glyph unicode="&#x1df;" horiz-adv-x="1097" d="M61 295q0 41 11 106q61 356 282 537q190 154 416 154q154 0 207 -29l-168 -957h141l-18 -106h-291l29 166q-121 -195 -314 -195q-158 0 -237 119q-58 86 -58 205zM238 299q0 -213 186 -213q115 0 190.5 100.5t110.5 292.5l84 482q0 29 -74 28q-172 0 -307 -149 q-131 -150 -180 -424q-10 -54 -10 -117zM407 1452q8 49 45 82q39 35 80 35q43 0 67.5 -35t16.5 -82t-45 -84q-35 -33 -82 -33t-67 33q-23 33 -15 84zM758 1452q8 49 45 82q39 35 79 35q43 0 68 -35t16.5 -82t-45.5 -84q-35 -33 -79 -33q-49 0 -70 33q-22 33 -14 84z M451 1693l24 148h539l-27 -148h-536z" />
<glyph unicode="&#x1e0;" horiz-adv-x="1329" d="M763.5 1770q10.5 49 45.5 82q39 35 80 34q43 0 67 -34q27 -37 19 -82q-8 -49 -45 -82q-39 -35 -82 -35q-45 0 -70 35q-25 33 -14.5 82zM-141 0l18 106h119l721 1387h151l238 -1387h131l-18 -106h-490l19 106h149l-53 328h-568l-167 -328h147l-18 -106h-379zM334 541h491 l-120 710zM629 2058l24 148h539l-27 -148h-536z" />
<glyph unicode="&#x1e1;" horiz-adv-x="1097" d="M459 1693l24 148h539l-27 -148h-536zM577.5 1452q8.5 49 44.5 82q39 35 82 35t67.5 -35t16.5 -82t-45 -84q-35 -33 -82 -33t-67 33q-25 35 -16.5 84zM61 295q0 41 11 106q61 356 282 537q190 154 416 154q154 0 207 -29l-168 -957h141l-18 -106h-291l29 166 q-121 -195 -314 -195q-158 0 -237 119q-58 86 -58 205zM238 299q0 -213 186 -213q115 0 190.5 100.5t110.5 292.5l84 482q0 29 -74 28q-172 0 -307 -149q-131 -150 -180 -424q-10 -54 -10 -117z" />
<glyph unicode="&#x1e2;" horiz-adv-x="1843" d="M1006 1693l24 148h539l-27 -148h-536zM-162 0l19 106h116l756 1280h-192l18 107h1311l-60 -332h-110l37 209h-621l-86 -500h442l33 187h111l-86 -496h-111l33 187h-442l-111 -625h635l37 209h110l-57 -332h-1098l19 106h170l57 328h-483l-195 -328h148l-19 -106h-381z M346 541h442l148 845h-90z" />
<glyph unicode="&#x1e3;" horiz-adv-x="1730" d="M711 1378l24 148h539l-27 -148h-536zM61 295q0 41 11 106q61 356 282 537q186 154 416 154q154 0 207 -29l-19 -96q143 125 340 125q352 0 353 -277q0 -397 -740 -407q-4 -49 -4 -72q0 -94 31 -156q53 -111 197 -110q102 0 155 34q90 63 113 146h123q-37 -129 -172 -217 q-92 -61 -279 -62q-215 0 -309 197q-129 -197 -397 -197h-13q-158 0 -237 119q-58 86 -58 205zM238 297q0 -211 186 -211q113 0 188 100q80 104 113 293l84 482q0 29 -74 28q-172 0 -307 -149q-131 -150 -180 -424q-10 -53 -10 -119zM932 514q285 14 440 119q102 66 103 188 q0 172 -205 172q-121 0 -205 -102q-80 -98 -133 -377z" />
<glyph unicode="&#x1e4;" horiz-adv-x="1560" d="M86 551q0 102 16 194q61 350 283 564q219 211 533 211q123 0 231 -29q127 -33 246 -90l-62 -354h-100q0 190 -84 276q-86 90 -262 90q-231 0 -374.5 -166t-203.5 -502q-23 -135 -22 -235q0 -160 53 -262q90 -170 317 -170q96 0 199 28q92 27 193 84l20 129h-397l16 107 h402l24 149h-252l19 107h436l-45 -256h180l-18 -107h-181l-34 -194q-123 -72 -279 -115q-141 -39 -301 -39q-303 0 -451 211q-102 148 -102 369z" />
<glyph unicode="&#x1e5;" horiz-adv-x="1177" d="M66 -379l38 223h86q-2 -102 50 -151t166 -49q147 0 229 92q84 92 117 287l26 143q-63 -100 -149 -148q-84 -47 -191 -47q-158 0 -237 119q-49 70 -56 178q-4 68 9 133q61 356 282 537q190 154 408 154q207 0 258 -29l-84 -477h156l-21 -107h-156l-79 -456 q-41 -240 -175 -353q-143 -125 -346 -125q-94 0 -176 19q-73 16 -155 57zM319 272q2 -55 27 -102q47 -84 160 -84q127 0 209 100.5t116 292.5h-219l21 107h219l66 370q0 33 -99 33q-176 0 -307 -149q-133 -152 -182 -424q-13 -87 -11 -144z" />
<glyph unicode="&#x1e6;" horiz-adv-x="1470" d="M684 1899h105l153 -162l211 162h107l-256 -264h-158zM102 745q61 350 283 564q219 211 533 211q123 0 231 -29q127 -33 246 -90l-62 -354h-100q0 190 -84 276q-86 90 -262 90q-231 0 -374.5 -166t-203.5 -502q-23 -130 -23 -235q0 -160 54 -262q90 -170 317 -170 q96 0 199 28q92 27 193 84l65 385h-252l19 107h436l-98 -557q-123 -72 -279 -115q-141 -39 -301 -39q-303 0 -451 211q-104 150 -104 369q0 91 18 194z" />
<glyph unicode="&#x1e7;" horiz-adv-x="1177" d="M492 1638h102l137 -260l230 260h104l-278 -376h-152zM66 -379l38 223h86v-11q0 -94 50 -140q52 -49 166 -49q147 0 229 92q86 92 119 287l24 143q-63 -100 -149 -148q-84 -47 -191 -47q-158 0 -237 119q-49 74 -56 178q-1 15 0 30q0 52 9 103q61 356 282 537 q186 154 410 154q203 0 254 -29l-182 -1040q-41 -240 -175 -353q-143 -125 -346 -125q-94 0 -176 19q-73 16 -155 57zM319 272q2 -55 27 -102q43 -84 160 -84q127 0 209 100q86 104 119 293l18 105l66 372q0 33 -99 33q-176 0 -307 -149q-133 -150 -180 -424 q-13 -67 -13 -122q-1 -12 0 -22z" />
<glyph unicode="&#x1e8;" horiz-adv-x="1376" d="M-29 0l19 106h172l223 1280h-172l18 107h527l-21 -107h-170l-98 -565l678 565h-148l21 107h444l-16 -107h-154l-673 -563l520 -717h151l-18 -106h-311l-514 709l-107 -603h172l-18 -106h-525zM661 1899h105l153 -162l211 162h107l-256 -264h-158z" />
<glyph unicode="&#x1e9;" horiz-adv-x="1114" d="M217 1975h105l153 -162l211 162h107l-256 -264h-158zM76 0l254 1450h-160l18 106h326l-176 -1013l473 413h-135l16 107h271l-19 -107l-336 -292l266 -558h138l-19 -106h-266l-260 543l-154 -135l-71 -408h-166z" />
<glyph unicode="&#x1ea;" horiz-adv-x="1509" d="M96 422q-10 58 -10 125q0 90 18 198q31 182 105 324q76 143 194 254q111 100 228 147q123 49 260 50q295 0 436 -213q100 -150 100 -366q0 -92 -18 -196q-31 -174 -106 -323q-72 -141 -195 -254q-111 -100 -227 -148q-123 -49 -260 -49q-133 0 -242 49q-108 49 -178 148 q-80 111 -105 254zM309 745q-23 -132 -23 -239q0 -158 50 -260q82 -168 303 -168t362 168q139 166 199 499q24 137 24 246q0 155 -48 254q-82 168 -303.5 168t-362.5 -168q-144 -170 -201 -500zM436 -239q10 53 45 102q43 61 109 121h86l-3 -2q-96 -117 -106 -170 q-8 -45 16.5 -73.5t73.5 -28.5q25 0 53 6q18 4 56 20l-23 -127q-45 -12 -65 -14q-41 -4 -60 -4q-98 0 -149 45q-49 43 -33 125z" />
<glyph unicode="&#x1eb;" horiz-adv-x="1107" d="M78 385q0 76 14 147q43 252 196.5 406t364.5 154q207 0 310 -154q68 -106 67 -258q0 -86 -12 -148q-43 -252 -199 -407q-154 -154 -362 -154q-207 0 -310 154q-69 106 -69 260zM266 348q0 -92 27 -162q49 -117 180 -116q133 0 223 116q86 113 127 346q18 104 19 185 q0 90 -27 160q-49 117 -180 116q-132 0 -221 -116.5t-129 -344.5q-19 -104 -19 -184zM266 -239q10 53 45 102q43 61 109 121h86l-3 -2q-96 -117 -106 -170q-8 -45 16.5 -73.5t73.5 -28.5q25 0 53 6q18 4 56 20l-23 -127q-45 -12 -65 -14q-41 -4 -60 -4q-98 0 -149 45 q-49 43 -33 125z" />
<glyph unicode="&#x1ec;" horiz-adv-x="1509" d="M96 422q-10 58 -10 125q0 90 18 198q31 182 105 324q76 143 194 254q111 100 228 147q123 49 260 50q295 0 436 -213q100 -150 100 -366q0 -92 -18 -196q-31 -174 -106 -323q-72 -141 -195 -254q-111 -100 -227 -148q-123 -49 -260 -49q-133 0 -242 49q-108 49 -178 148 q-80 111 -105 254zM309 745q-23 -132 -23 -239q0 -158 50 -260q82 -168 303 -168t362 168q139 166 199 499q24 137 24 246q0 155 -48 254q-82 168 -303.5 168t-362.5 -168q-144 -170 -201 -500zM436 -239q10 53 45 102q43 61 109 121h86l-3 -2q-96 -117 -106 -170 q-8 -45 16.5 -73.5t73.5 -28.5q25 0 53 6q18 4 56 20l-23 -127q-45 -12 -65 -14q-41 -4 -60 -4q-98 0 -149 45q-49 43 -33 125zM627 1693l24 148h539l-27 -148h-536z" />
<glyph unicode="&#x1ed;" horiz-adv-x="1107" d="M78 385q0 76 14 147q43 252 196.5 406t364.5 154q207 0 310 -154q68 -106 67 -258q0 -86 -12 -148q-43 -252 -199 -407q-154 -154 -362 -154q-207 0 -310 154q-69 106 -69 260zM266 348q0 -92 27 -162q49 -117 180 -116q133 0 223 116q86 113 127 346q18 104 19 185 q0 90 -27 160q-49 117 -180 116q-132 0 -221 -116.5t-129 -344.5q-19 -104 -19 -184zM266 -239q10 53 45 102q43 61 109 121h86l-3 -2q-96 -117 -106 -170q-8 -45 16.5 -73.5t73.5 -28.5q25 0 53 6q18 4 56 20l-23 -127q-45 -12 -65 -14q-41 -4 -60 -4q-98 0 -149 45 q-49 43 -33 125zM426 1378l24 148h539l-27 -148h-536z" />
<glyph unicode="&#x1ee;" horiz-adv-x="1038" d="M462 1899h105l153 -162l211 162h107l-256 -264h-158zM-23 84l58 324h100q-18 -162 45.5 -244t206.5 -82q139 0 236 98q94 96 125 273q35 201 -29 299q-63 100 -223 100h-84l16 102l383 416h-473l-39 -223h-113l62 346h784l-20 -125l-412 -444l72 -9q158 -27 229 -149 q72 -121 37 -311q-41 -238 -188.5 -361t-384.5 -123q-102 0 -201 29q-105 31 -187 84z" />
<glyph unicode="&#x1ef;" horiz-adv-x="1038" d="M406 1638h102l137 -260l230 260h104l-278 -376h-152zM-20 -344l55 324h100q-18 -162 45 -244q66 -84 207 -84q137 0 236 100q96 100 127 271q35 197 -31 299t-223 102h-84l16 100l373 432h-473l-33 -184h-96l51 291h782l-14 -86l-418 -483l72 -7q158 -27 229 -149 q72 -121 37 -313q-41 -233 -188 -359q-150 -125 -385 -125q-102 0 -201 29q-95 28 -184 86z" />
<glyph unicode="&#x1f0;" horiz-adv-x="587" d="M240 1638h102l137 -260l230 260h104l-278 -376h-152zM-299 -389l39 219h86q-10 -96 20.5 -141t102.5 -45q84 0 133 61q51 63 72 191l186 1060h-158l19 107h321l-203 -1167q-29 -166 -133 -258.5t-258 -92.5q-61 0 -120.5 16.5t-106.5 49.5z" />
<glyph unicode="&#x1f1;" horiz-adv-x="2756" d="M1432 0l12 72l1063 1298h-694l-39 -223h-111l62 346h1061l-13 -72l-1065 -1298h760l37 209h111l-60 -332h-1124zM-29 0l19 106h172l223 1280h-172l18 107h537q346 0 506 -197q115 -142 115 -365q0 -86 -17 -183q-61 -352 -291 -549q-233 -199 -575 -199h-535zM342 106 h170q261 0 430 166q168 166 223 476q18 101 18 186q0 178 -75 289q-111 164 -373 163h-168z" />
<glyph unicode="&#x1f2;" horiz-adv-x="2447" d="M1461 0l14 86l653 758l-35 12q-35 14 -61 33l-43 31q-84 57 -145 57q-119 0 -259 -152l21 121q154 168 272 168q72 -4 172 -70q104 -70 162 -69q98 0 193 88h53l-14 -86l-656 -758q4 0 13.5 -4t23.5 -8q35 -14 62 -33l43 -31q84 -57 145 -57q119 0 258 152l-23 -121 q-154 -168 -270 -168q-72 4 -172 69q-104 70 -162 70q-98 0 -192 -88h-53zM-29 0l19 106h172l223 1280h-172l18 107h537q346 0 506 -197q115 -142 115 -365q0 -86 -17 -183q-61 -352 -291 -549q-233 -199 -575 -199h-535zM342 106h170q261 0 430 166q168 166 223 476 q18 101 18 186q0 178 -75 289q-111 164 -373 163h-168z" />
<glyph unicode="&#x1f3;" horiz-adv-x="2150" d="M1162 0l14 86l653 758l-35 12q-35 14 -61 33l-43 31q-84 57 -145 57q-119 0 -259 -152l21 121q154 168 272 168q72 -4 172 -70q104 -70 162 -69q98 0 193 88h53l-14 -86l-656 -758q4 0 13.5 -4t23.5 -8q35 -14 62 -33l43 -31q84 -57 145 -57q119 0 258 152l-23 -121 q-154 -168 -270 -168q-72 4 -172 69q-104 70 -162 70q-98 0 -192 -88h-53zM37 373q0 80 14 159q43 252 182.5 406t317.5 154q106 0 176 -48q68 -46 98 -147l97 553h-156l18 106h322l-272 -1556h-166l28 166q-63 -100 -149 -148q-84 -47 -193 -47q-174 0 -262 156 q-55 105 -55 246zM227 352q0 -92 25 -153q45 -113 174 -113q127 0 209 100.5t117 292.5l18 105q14 72 14 141q0 88 -28 152q-49 100 -174 100t-213 -113q-86 -111 -123 -332q-19 -102 -19 -180z" />
<glyph unicode="&#x1f4;" horiz-adv-x="1470" d="M819 1637l211 264h178l-282 -264h-107zM102 745q61 350 283 564q219 211 533 211q123 0 231 -29q127 -33 246 -90l-62 -354h-100q0 190 -84 276q-86 90 -262 90q-231 0 -374.5 -166t-203.5 -502q-23 -130 -23 -235q0 -160 54 -262q90 -170 317 -170q96 0 199 28 q92 27 193 84l65 385h-252l19 107h436l-98 -557q-123 -72 -279 -115q-141 -39 -301 -39q-303 0 -451 211q-104 150 -104 369q0 91 18 194z" />
<glyph unicode="&#x1f5;" horiz-adv-x="1177" d="M557 1262l299 376h178l-370 -376h-107zM66 -379l38 223h86v-11q0 -94 50 -140q52 -49 166 -49q147 0 229 92q86 92 119 287l24 143q-63 -100 -149 -148q-84 -47 -191 -47q-158 0 -237 119q-49 74 -56 178q-1 15 0 30q0 52 9 103q61 356 282 537q186 154 410 154 q203 0 254 -29l-182 -1040q-41 -240 -175 -353q-143 -125 -346 -125q-94 0 -176 19q-73 16 -155 57zM319 272q2 -55 27 -102q43 -84 160 -84q127 0 209 100q86 104 119 293l18 105l66 372q0 33 -99 33q-176 0 -307 -149q-133 -150 -180 -424q-13 -67 -13 -122q-1 -12 0 -22z " />
<glyph unicode="&#x1f6;" horiz-adv-x="2125" d="M-27 0l19 106h172l223 1280h-172l21 107h524l-19 -107h-172l-90 -516h697l90 516h-170l18 107h524l-18 -107h-170l-135 -772q-49 -291 12 -399q63 -113 182 -113q131 0 213 113q88 119 138 399l59 340h-158l21 109h321l-82 -469q-61 -344 -202 -481q-141 -141 -324 -142 q-233 0 -332 142q-94 139 -35 481l27 154h-696l-113 -642h170l-18 -106h-525z" />
<glyph unicode="&#x1f8;" horiz-adv-x="1611" d="M746 1899h178l117 -264h-107zM-39 0l19 106h182l223 1280h-180l18 107h344l600 -1178l189 1071h-180l18 107h471l-18 -107h-183l-245 -1415h-109l-641 1258l-197 -1123h181l-19 -106h-473z" />
<glyph unicode="&#x1f9;" horiz-adv-x="1185" d="M416 1636h178l168 -376h-107zM129 0l168 956h-160l21 107h323l-32 -189q63 106 147 162t180 56q158 0 215 -101q35 -63 35 -164q0 -72 -14 -151l-101 -570h148l-19 -106h-315l109 618q18 104 18 173q0 66 -14 96q-31 72 -140 71q-115 0 -192 -94q-76 -90 -107 -272 l-104 -592h-166z" />
<glyph unicode="&#x1fa;" horiz-adv-x="1329" d="M-176 0l18 106h117l596 1143q-27 27 -43 66q-23 66 -8 143q23 119 106 197q66 63 146 76l155 167h179l-222 -176q55 -18 93 -67q59 -80 36 -197q-14 -80 -59 -141q-35 -45 -64 -68l195 -1143h133l-18 -106h-490l19 106h149l-55 328h-565l-170 -328h147l-18 -106h-377z M299 541h492l-113 665l-33 2zM614 1458q-12 -61 21 -106q31 -43 90 -43q58 0 104 43q45 43 57.5 106.5t-20 108.5t-90.5 45q-53 0 -102 -45q-48 -43 -60 -109z" />
<glyph unicode="&#x1fb;" horiz-adv-x="1097" d="M61 268q-2 57 11 133q61 356 282 537q186 154 408 154q162 0 213 -29l-166 -957h141l-18 -106h-293l31 166q-57 -96 -140 -148q-76 -47 -174 -47q-160 0 -239 119q-50 74 -56 178zM238 272q2 -59 24 -102q43 -84 160 -84q115 0 190.5 100.5t110.5 292.5l86 482 q0 29 -74 28q-172 0 -307 -149q-131 -150 -180 -424q-14 -72 -10 -144zM451 1458q23 121 104 197q78 72 170 78l131 165h178l-198 -184q45 -25 69 -59q59 -80 37 -197q-23 -119 -104 -194q-86 -80 -189 -80q-104 0 -162 80q-59 79 -36 194zM559 1458q-12 -63 21 -108 q31 -43 90 -43q55 0 104 45q47 45 60 106q12 63 -21 109q-31 43 -90 43q-58 0 -105 -43t-59 -109zM639 0z" />
<glyph unicode="&#x1fc;" horiz-adv-x="1843" d="M1122 1637l211 264h178l-282 -264h-107zM-162 0l19 106h116l756 1280h-192l18 107h1311l-60 -332h-110l37 209h-621l-86 -500h442l33 187h111l-86 -496h-111l33 187h-442l-111 -625h635l37 209h110l-57 -332h-1098l19 106h170l57 328h-483l-195 -328h148l-19 -106h-381z M346 541h442l148 845h-90z" />
<glyph unicode="&#x1fd;" horiz-adv-x="1730" d="M848 1266l299 376h178l-370 -376h-107zM61 295q0 41 11 106q61 356 282 537q186 154 416 154q154 0 207 -29l-19 -96q143 125 340 125q352 0 353 -277q0 -397 -740 -407q-4 -49 -4 -72q0 -94 31 -156q53 -111 197 -110q102 0 155 34q90 63 113 146h123 q-37 -129 -172 -217q-92 -61 -279 -62q-215 0 -309 197q-129 -197 -397 -197h-13q-158 0 -237 119q-58 86 -58 205zM238 297q0 -211 186 -211q113 0 188 100q80 104 113 293l84 482q0 29 -74 28q-172 0 -307 -149q-131 -150 -180 -424q-10 -53 -10 -119zM932 514 q285 14 440 119q102 66 103 188q0 172 -205 172q-121 0 -205 -102q-80 -98 -133 -377z" />
<glyph unicode="&#x1fe;" horiz-adv-x="1509" d="M794 1637l211 264h178l-282 -264h-107zM-39 12l205 207q-59 102 -76 236q-16 131 12 290q61 342 281 560q219 215 508 215q126 0 227 -43q102 -43 172 -125l197 198l59 -71l-200 -203q58 -108 73 -240q16 -139 -10 -291q-61 -346 -279 -559q-218 -215 -509 -215 q-129 0 -228 43q-100 43 -176 129l-197 -200zM287 530q-4 -98 12 -178l881 887q-43 88 -119 131q-78 43 -189 43q-221 0 -362 -168q-143 -170 -201 -500q-18 -106 -22 -215zM332 256q45 -92 119 -133q80 -45 188 -45q221 0 362 168q139 166 199 499q22 117 25 216 q2 88 -15 180z" />
<glyph unicode="&#x1ff;" horiz-adv-x="1107" d="M567 1262l299 376h178l-370 -376h-107zM-31 -31l166 178q-39 74 -51 172q-12 100 8 213q43 252 196.5 406t362.5 154q86 0 154 -25q63 -23 117 -76l153 166l58 -63l-160 -172q41 -70 53 -172.5t-8 -217.5q-43 -252 -199 -407q-154 -154 -362 -154q-86 0 -152 27 q-70 29 -119 80l-159 -172zM270 401q-4 -59 0 -108l547 586q-25 59 -69 86q-47 29 -113 28q-132 0 -221 -116.5t-129 -344.5q-11 -61 -15 -131zM293 190q25 -59 69 -90q47 -31 111 -30q131 0 221 118q89 117 129 344q16 106 19 136q4 68 -2 112z" />
<glyph unicode="&#x200;" horiz-adv-x="1329" d="M486 1899h178l117 -264h-105zM770 1899h179l116 -264h-104zM-141 0l18 106h119l721 1387h151l238 -1387h131l-18 -106h-490l19 106h149l-53 328h-568l-167 -328h147l-18 -106h-379zM334 541h491l-120 710z" />
<glyph unicode="&#x201;" horiz-adv-x="1097" d="M282 1638h160l205 -376h-107zM588 1638h151l170 -376h-102zM61 295q0 41 11 106q61 356 282 537q190 154 416 154q154 0 207 -29l-168 -957h141l-18 -106h-291l29 166q-121 -195 -314 -195q-158 0 -237 119q-58 86 -58 205zM238 299q0 -213 186 -213q115 0 190.5 100.5 t110.5 292.5l84 482q0 29 -74 28q-172 0 -307 -149q-131 -150 -180 -424q-10 -54 -10 -117z" />
<glyph unicode="&#x202;" horiz-adv-x="1329" d="M557 1694q34 144 116 215q84 72 215 72q129 0 189 -72q58 -71 43 -215h-86q2 80 -39 115q-37 35 -131 34.5t-144 -34.5q-53 -33 -77 -115h-86zM-141 0l18 106h119l721 1387h151l238 -1387h131l-18 -106h-490l19 106h149l-53 328h-568l-167 -328h147l-18 -106h-379z M334 541h491l-120 710z" />
<glyph unicode="&#x203;" horiz-adv-x="1097" d="M375 1321q34 144 116 215q84 72 215 72q129 0 189 -72q58 -71 43 -215h-86q2 80 -39 115q-37 35 -131 34.5t-144 -34.5q-53 -33 -77 -115h-86zM61 295q0 41 11 106q61 356 282 537q190 154 416 154q154 0 207 -29l-168 -957h141l-18 -106h-291l29 166 q-121 -195 -314 -195q-158 0 -237 119q-58 86 -58 205zM238 299q0 -213 186 -213q115 0 190.5 100.5t110.5 292.5l84 482q0 29 -74 28q-172 0 -307 -149q-131 -150 -180 -424q-10 -54 -10 -117z" />
<glyph unicode="&#x204;" horiz-adv-x="1343" d="M492 1899h178l117 -264h-105zM776 1899h179l116 -264h-104zM-29 0l19 106h172l223 1280h-172l18 107h1084l-60 -332h-110l37 209h-619l-86 -500h441l32 187h111l-86 -496h-113l35 187h-440l-111 -625h633l37 209h108l-57 -332h-1096z" />
<glyph unicode="&#x205;" horiz-adv-x="1089" d="M315 1638h160l205 -376h-107zM621 1638h151l170 -376h-102zM78 385q0 74 14 145q43 250 197 408q150 154 366 154q352 0 353 -277q0 -205 -185 -303q-190 -102 -553 -104q-4 -49 -4 -72q0 -94 31 -156q51 -111 195 -110q102 0 155 34q92 66 115 146h121 q-39 -131 -170 -217q-94 -61 -278.5 -61.5t-287.5 153.5q-69 106 -69 260zM289 514q291 16 442 119q100 63 100 188q0 172 -202 172q-121 0 -205 -102.5t-135 -376.5z" />
<glyph unicode="&#x206;" horiz-adv-x="1343" d="M566 1694q34 144 116 215q84 72 215 72q129 0 189 -72q58 -71 43 -215h-86q2 80 -39 115q-37 35 -131 34.5t-144 -34.5q-53 -33 -77 -115h-86zM-29 0l19 106h172l223 1280h-172l18 107h1084l-60 -332h-110l37 209h-619l-86 -500h441l32 187h111l-86 -496h-113l35 187 h-440l-111 -625h633l37 209h108l-57 -332h-1096z" />
<glyph unicode="&#x207;" horiz-adv-x="1089" d="M410 1321q34 144 116 215q84 72 215 72q129 0 189 -72q58 -71 43 -215h-86q2 80 -39 115q-37 35 -131 34.5t-144 -34.5q-53 -33 -77 -115h-86zM78 385q0 74 14 145q43 250 197 408q150 154 366 154q352 0 353 -277q0 -205 -185 -303q-190 -102 -553 -104q-4 -49 -4 -72 q0 -94 31 -156q51 -111 195 -110q102 0 155 34q92 66 115 146h121q-39 -131 -170 -217q-94 -61 -278.5 -61.5t-287.5 153.5q-69 106 -69 260zM289 514q291 16 442 119q100 63 100 188q0 172 -202 172q-121 0 -205 -102.5t-135 -376.5z" />
<glyph unicode="&#x208;" horiz-adv-x="727" d="M201 1899h178l117 -264h-105zM485 1899h179l116 -264h-104zM-29 0l19 106h172l223 1280h-172l18 107h527l-21 -107h-170l-225 -1280h172l-18 -106h-525z" />
<glyph unicode="&#x209;" horiz-adv-x="587" d="M88 0l168 956h-158l19 107h323l-168 -957h156l-16 -106h-324zM26 1636h160l205 -376h-107zM332 1636h151l170 -376h-102z" />
<glyph unicode="&#x20a;" horiz-adv-x="727" d="M263 1694q34 144 116 215q84 72 215 72q129 0 189 -72q58 -71 43 -215h-86q2 80 -39 115q-37 35 -131 34.5t-144 -34.5q-53 -33 -77 -115h-86zM-29 0l19 106h172l223 1280h-172l18 107h527l-21 -107h-170l-225 -1280h172l-18 -106h-525z" />
<glyph unicode="&#x20b;" horiz-adv-x="587" d="M88 0l168 956h-158l19 107h323l-168 -957h156l-16 -106h-324zM111 1264q34 144 116 215q84 72 215 72q129 0 189 -72q58 -71 43 -215h-86q2 80 -39 115q-37 35 -131 34.5t-144 -34.5q-53 -33 -77 -115h-86z" />
<glyph unicode="&#x20c;" horiz-adv-x="1509" d="M580 1899h178l117 -264h-105zM864 1899h179l116 -264h-104zM96 422q-10 58 -10 125q0 90 18 198q31 182 105 324q76 143 194 254q111 100 228 147q123 49 260 50q295 0 436 -213q100 -150 100 -366q0 -92 -18 -196q-31 -174 -106 -323q-72 -141 -195 -254 q-111 -100 -227 -148q-123 -49 -260 -49q-133 0 -242 49q-108 49 -178 148q-80 111 -105 254zM309 745q-23 -132 -23 -239q0 -158 50 -260q82 -168 303 -168t362 168q139 166 199 499q24 137 24 246q0 155 -48 254q-82 168 -303.5 168t-362.5 -168q-144 -170 -201 -500z" />
<glyph unicode="&#x20d;" horiz-adv-x="1107" d="M325 1638h160l205 -376h-107zM631 1638h151l170 -376h-102zM78 385q0 76 14 147q43 252 196.5 406t364.5 154q207 0 310 -154q68 -106 67 -258q0 -86 -12 -148q-43 -252 -199 -407q-154 -154 -362 -154q-207 0 -310 154q-69 106 -69 260zM266 348q0 -92 27 -162 q49 -117 180 -116q133 0 223 116q86 113 127 346q18 104 19 185q0 90 -27 160q-49 117 -180 116q-132 0 -221 -116.5t-129 -344.5q-19 -104 -19 -184z" />
<glyph unicode="&#x20e;" horiz-adv-x="1509" d="M648 1694q34 144 116 215q84 72 215 72q129 0 189 -72q58 -71 43 -215h-86q2 80 -39 115q-37 35 -131 34.5t-144 -34.5q-53 -33 -77 -115h-86zM96 422q-10 58 -10 125q0 90 18 198q31 182 105 324q76 143 194 254q111 100 228 147q123 49 260 50q295 0 436 -213 q100 -150 100 -366q0 -92 -18 -196q-31 -174 -106 -323q-72 -141 -195 -254q-111 -100 -227 -148q-123 -49 -260 -49q-133 0 -242 49q-108 49 -178 148q-80 111 -105 254zM309 745q-23 -132 -23 -239q0 -158 50 -260q82 -168 303 -168t362 168q139 166 199 499 q24 137 24 246q0 155 -48 254q-82 168 -303.5 168t-362.5 -168q-144 -170 -201 -500z" />
<glyph unicode="&#x20f;" horiz-adv-x="1107" d="M418 1321q34 144 116 215q84 72 215 72q129 0 189 -72q58 -71 43 -215h-86q2 80 -39 115q-37 35 -131 34.5t-144 -34.5q-53 -33 -77 -115h-86zM78 385q0 76 14 147q43 252 196.5 406t364.5 154q207 0 310 -154q68 -106 67 -258q0 -86 -12 -148q-43 -252 -199 -407 q-154 -154 -362 -154q-207 0 -310 154q-69 106 -69 260zM266 348q0 -92 27 -162q49 -117 180 -116q133 0 223 116q86 113 127 346q18 104 19 185q0 90 -27 160q-49 117 -180 116q-132 0 -221 -116.5t-129 -344.5q-19 -104 -19 -184z" />
<glyph unicode="&#x210;" horiz-adv-x="1386" d="M486 1899h178l117 -264h-105zM770 1899h179l116 -264h-104zM-29 0l19 106h172l223 1280h-172l18 107h682q197 0 285 -104q65 -76 65 -197q0 -46 -10 -98q-27 -152 -120 -242q-92 -88 -250 -111q57 -16 96 -65t59 -127l117 -443h166l-21 -106h-315l-127 475 q-37 138 -80 178q-45 41 -131 41h-201l-104 -588h190l-18 -106h-543zM465 801h264q137 0 215 71.5t103 221.5q9 53 8 95q0 81 -33 126q-53 72 -188 71h-267z" />
<glyph unicode="&#x211;" horiz-adv-x="880" d="M278 1638h160l205 -376h-107zM584 1638h151l170 -376h-102zM129 0l168 958h-158l19 105h323l-32 -189q68 113 153 164q88 53 197 54q39 0 82 -7q33 -4 92 -20l-47 -266h-97q2 14 2 37q0 55 -20 82q-27 39 -96 38q-121 0 -203 -94t-113 -270l-104 -592h-166z" />
<glyph unicode="&#x212;" horiz-adv-x="1386" d="M555 1694q34 144 116 215q84 72 215 72q129 0 189 -72q58 -71 43 -215h-86q2 80 -39 115q-37 35 -131 34.5t-144 -34.5q-53 -33 -77 -115h-86zM-29 0l19 106h172l223 1280h-172l18 107h682q197 0 285 -104q65 -76 65 -197q0 -46 -10 -98q-27 -152 -120 -242 q-92 -88 -250 -111q57 -16 96 -65t59 -127l117 -443h166l-21 -106h-315l-127 475q-37 138 -80 178q-45 41 -131 41h-201l-104 -588h190l-18 -106h-543zM465 801h264q137 0 215 71.5t103 221.5q9 53 8 95q0 81 -33 126q-53 72 -188 71h-267z" />
<glyph unicode="&#x213;" horiz-adv-x="880" d="M371 1321q34 144 116 215q84 72 215 72q129 0 189 -72q58 -71 43 -215h-86q2 80 -39 115q-37 35 -131 34.5t-144 -34.5q-53 -33 -77 -115h-86zM129 0l168 958h-158l19 105h323l-32 -189q68 113 153 164q88 53 197 54q39 0 82 -7q33 -4 92 -20l-47 -266h-97q2 14 2 37 q0 55 -20 82q-27 39 -96 38q-121 0 -203 -94t-113 -270l-104 -592h-166z" />
<glyph unicode="&#x214;" horiz-adv-x="1552" d="M647 1899h178l117 -264h-105zM931 1899h179l116 -264h-104zM201 1386l18 107h526l-20 -107h-170l-135 -772q-22 -126 -22 -217q0 -118 36 -182q63 -113 271 -113q205 0 309 113q104 114 153 399l136 772h-173l21 107h453l-19 -107h-172l-137 -792q-57 -336 -203 -481 q-141 -141 -426 -142q-283 0 -377 142q-59 88 -59 252q0 101 22 229l140 792h-172z" />
<glyph unicode="&#x215;" horiz-adv-x="1185" d="M297 1638h160l205 -376h-107zM603 1638h151l170 -376h-102zM127 956l18 107h316l-109 -619q-16 -92 -16 -172q0 -68 12 -94q31 -72 141 -72q115 0 191 95q78 96 108 272l105 590h166l-168 -957h156l-19 -106h-321l32 188q-63 -106 -147 -161q-83 -55 -178 -56 q-160 0 -217 101q-35 63 -35 164q0 72 14 151l100 569h-149z" />
<glyph unicode="&#x216;" horiz-adv-x="1552" d="M709 1694q34 144 116 215q84 72 215 72q129 0 189 -72q58 -71 43 -215h-86q2 80 -39 115q-37 35 -131 34.5t-144 -34.5q-53 -33 -77 -115h-86zM201 1386l18 107h526l-20 -107h-170l-135 -772q-22 -126 -22 -217q0 -118 36 -182q63 -113 271 -113q205 0 309 113 q104 114 153 399l136 772h-173l21 107h453l-19 -107h-172l-137 -792q-57 -336 -203 -481q-141 -141 -426 -142q-283 0 -377 142q-59 88 -59 252q0 101 22 229l140 792h-172z" />
<glyph unicode="&#x217;" horiz-adv-x="1185" d="M390 1321q34 144 116 215q84 72 215 72q129 0 189 -72q58 -71 43 -215h-86q2 80 -39 115q-37 35 -131 34.5t-144 -34.5q-53 -33 -77 -115h-86zM127 956l18 107h316l-109 -619q-16 -92 -16 -172q0 -68 12 -94q31 -72 141 -72q115 0 191 95q78 96 108 272l105 590h166 l-168 -957h156l-19 -106h-321l32 188q-63 -106 -147 -161q-83 -55 -178 -56q-160 0 -217 101q-35 63 -35 164q0 72 14 151l100 569h-149z" />
<glyph unicode="&#x218;" horiz-adv-x="1261" d="M53 72l60 340h102q-7 -45 -6 -84q0 -108 51 -168q70 -82 242 -82q162 0 258 72q98 72 119 204q6 35 6 65q0 62 -27 101q-39 57 -194 113l-168 59q-184 66 -244 162q-42 67 -42 166q0 46 9 100q33 188 174 295q139 104 361 105q88 0 200 -23q104 -20 226 -65l-56 -318 h-100q2 24 2 46q0 123 -57 183q-68 70 -232 70q-139 0 -227 -65q-86 -63 -107 -187q-5 -32 -5 -59q0 -66 32 -109q43 -59 215 -121l158 -55q170 -61 231 -155q43 -67 43 -164q0 -42 -8 -90q-37 -213 -182 -326q-145 -111 -391 -111q-111 0 -222 25q-115 25 -221 76z M475 -412q72 45 100 99q31 55 31 135v22h141q-6 -104 -57 -176q-51 -74 -158 -129z" />
<glyph unicode="&#x219;" horiz-adv-x="944" d="M20 59l43 248h97q-4 -37 -4 -55q0 -182 223 -182q221 0 256 182q2 12 2 49q0 33 -31 70t-160 86l-112 45q-113 43 -152 100t-39 123q0 14 4 55q27 147 138 230q109 82 270.5 82t327.5 -86l-41 -232h-94q4 29 4 43q0 72 -47 125q-45 51 -150 51q-213 0 -242 -164 q-4 -25 -4 -47q0 -33 31 -65q33 -37 143 -78l123 -45q125 -45 176 -119q33 -47 33 -98q0 -211 -151 -320q-120 -86 -302 -86q-184 0 -342 88zM281 -412q72 45 100 99q31 55 31 135v22h141q-6 -104 -57 -176q-51 -74 -158 -129z" />
<glyph unicode="&#x21a;" horiz-adv-x="1228" d="M86 1141l64 352h1191l-61 -352h-111l41 233h-395l-221 -1268h172l-18 -106h-527l19 106h172l223 1268h-397l-39 -233h-113zM401 -412q72 45 100 99q31 55 31 135v22h141q-6 -104 -57 -176q-51 -74 -158 -129z" />
<glyph unicode="&#x21b;" horiz-adv-x="739" d="M100 956l21 107h145l58 330h165l-57 -330h311l-18 -107h-311l-119 -675q-14 -74 -14 -125q0 -27 8 -47q18 -39 80 -39q63 0 100 43q39 47 57 137h125q-35 -145 -108 -211q-76 -68 -207 -68q-143 0 -191 72q-29 45 -28 123q0 51 12 115l119 675h-148zM238 -412 q72 45 100 99q31 55 31 135v22h141q-6 -104 -57 -176q-51 -74 -158 -129z" />
<glyph unicode="&#x21c;" horiz-adv-x="1153" d="M-31 -430l21 115q176 66 358 155q174 86 291 201q117 113 141.5 250t-26.5 207q-88 121 -252 39l-228 -113l19 108l231 123q138 74 252 209q88 106 115 258q27 156 -37 224q-61 66 -170 71q-106 6 -209 -96q-88 -100 -145 -274h-101l60 344q307 129 471 129 q166 0 266 -105q102 -104 72 -278q-29 -170 -119 -281q-82 -102 -209 -182q123 -18 178 -133q55 -114 37 -228q-37 -217 -188 -350q-150 -131 -381 -225q-230 -94 -447 -168z" />
<glyph unicode="&#x21d;" horiz-adv-x="960" d="M-70 -432l19 98q139 41 309 113q160 68 277 172q88 78 106 182q18 100 -29 160q-70 88 -225 26l-199 -79l17 100l201 86q121 51 208 149q86 96 105 199q18 104 -37 160q-53 53 -133 53q-96 0 -166 -45q-104 -68 -156 -233h-98l49 272q84 41 209 76q113 33 244 28 q127 -4 215 -86q89 -83 67 -208q-20 -125 -98 -211q-72 -82 -186 -150q109 -16 162 -102q53 -88 40 -168q-31 -174 -165 -285q-137 -111 -357 -192q-209 -78 -379 -115z" />
<glyph unicode="&#x21e;" horiz-adv-x="1605" d="M729 1899h105l153 -162l211 162h107l-256 -264h-158zM-29 0l19 106h172l223 1280h-172l18 107h527l-21 -107h-170l-90 -516h697l90 516h-170l18 107h524l-18 -107h-170l-225 -1280h172l-21 -106h-524l18 106h172l111 642h-694l-115 -642h172l-18 -106h-525z" />
<glyph unicode="&#x21f;" horiz-adv-x="1185" d="M217 1975h105l153 -162l211 162h107l-256 -264h-158zM88 0l254 1450h-158l19 106h323l-118 -682q63 106 147 162t180 56q158 0 215 -101q35 -63 35 -164q0 -72 -14 -151l-101 -570h148l-19 -106h-313l109 618q16 92 16 173q0 68 -12 94q-31 72 -142 71q-115 0 -192 -94 q-76 -90 -107 -270l-104 -592h-166z" />
<glyph unicode="&#x220;" horiz-adv-x="1552" d="M86 0l18 106h172l224 1280h-158l18 107h342l-34 -201q174 229 456 230q227 0 310 -146q49 -86 49 -209q0 -117 -23 -245l-217 -1241h172l-18 -107h-529l19 107h172l211 1200q27 145 26 249q0 96 -22 152q-49 109 -225.5 109t-293 -129t-159.5 -375l-135 -781h170 l-19 -106h-526z" />
<glyph unicode="&#x221;" horiz-adv-x="1499" d="M61 532.5q43 251.5 183 405.5q137 154 315 154q109 0 178 -48q68 -46 99 -147l98 553h-158l19 106h321l-223 -1277h14h8q244 0 352.5 -57.5t86.5 -172.5q-37 -199 -375 -199q-144 0 -221 93q-45 57 -56 133q-39 -61 -55 -158l-10 -63h-90l10 63q14 72 33 121 q-14 -10 -33 -21q-84 -47 -192 -47q-176 0 -263 156q-84 154 -41 405.5zM256 532q-37 -225 6 -333q45 -113 174 -113q127 0 209 100q86 104 119 293l16 105q35 193 -14 293t-174 100t-213 -113q-82 -105 -123 -332zM877 178q-25 -94 10 -168q31 -61 110 -61q242 0 260 106 q22 123 -356 123h-24z" />
<glyph unicode="&#x224;" horiz-adv-x="1280" d="M-14 0l12 72l1065 1298h-694l-39 -223h-113l62 346h1060l-12 -72l-1063 -1298h692h177q-37 -170 -123 -293q-88 -125 -234 -213l-57 80q96 68 151 164q39 66 60 139h-944z" />
<glyph unicode="&#x225;" horiz-adv-x="970" d="M16 0l15 86l751 870h-475l-31 -184h-96l51 291h783l-15 -86l-751 -871h438h178q-37 -172 -123 -294q-84 -121 -233 -211l-59 80q94 68 151 161q47 78 66 158h-650z" />
<glyph unicode="&#x226;" horiz-adv-x="1329" d="M763.5 1770q10.5 49 45.5 82q39 35 80 34q43 0 67 -34q27 -37 19 -82q-8 -49 -45 -82q-39 -35 -82 -35q-45 0 -70 35q-25 33 -14.5 82zM-141 0l18 106h119l721 1387h151l238 -1387h131l-18 -106h-490l19 106h149l-53 328h-568l-167 -328h147l-18 -106h-379zM334 541h491 l-120 710z" />
<glyph unicode="&#x227;" horiz-adv-x="1097" d="M577.5 1452q8.5 49 44.5 82q39 35 82 35t67.5 -35t16.5 -82t-45 -84q-35 -33 -82 -33t-67 33q-25 35 -16.5 84zM61 295q0 41 11 106q61 356 282 537q190 154 416 154q154 0 207 -29l-168 -957h141l-18 -106h-291l29 166q-121 -195 -314 -195q-158 0 -237 119 q-58 86 -58 205zM238 299q0 -213 186 -213q115 0 190.5 100.5t110.5 292.5l84 482q0 29 -74 28q-172 0 -307 -149q-131 -150 -180 -424q-10 -54 -10 -117z" />
<glyph unicode="&#x228;" horiz-adv-x="1343" d="M263 -371l23 131q31 -16 68 -26q31 -8 65 -8q53 0 86 26q35 29 43 72q6 29 -6 72t-43 104h88q43 -61 63 -121q20 -61 13 -104q-16 -82 -80 -125q-68 -45 -166 -45q-37 0 -76 6q-35 6 -78 18zM-29 0l19 106h172l223 1280h-172l18 107h1084l-60 -332h-110l37 209h-619 l-86 -500h441l32 187h111l-86 -496h-113l35 187h-440l-111 -625h633l37 209h108l-57 -332h-1096z" />
<glyph unicode="&#x229;" horiz-adv-x="1089" d="M169 -371l23 131q31 -16 68 -26q31 -8 65 -8q53 0 86 26q35 29 43 72q6 29 -6 72t-43 104h88q43 -61 63 -121q20 -61 13 -104q-16 -82 -80 -125q-68 -45 -166 -45q-37 0 -76 6q-35 6 -78 18zM78 385q0 74 14 145q43 250 197 408q150 154 366 154q352 0 353 -277 q0 -205 -185 -303q-190 -102 -553 -104q-4 -49 -4 -72q0 -94 31 -156q51 -111 195 -110q102 0 155 34q92 66 115 146h121q-39 -131 -170 -217q-94 -61 -278.5 -61.5t-287.5 153.5q-69 106 -69 260zM289 514q291 16 442 119q100 63 100 188q0 172 -202 172 q-121 0 -205 -102.5t-135 -376.5z" />
<glyph unicode="&#x22a;" horiz-adv-x="1509" d="M776 2058l24 148h539l-27 -148h-536zM96 422q-10 58 -10 125q0 90 18 198q31 182 105 324q76 143 194 254q111 100 228 147q123 49 260 50q295 0 436 -213q100 -150 100 -366q0 -92 -18 -196q-31 -174 -106 -323q-72 -141 -195 -254q-111 -100 -227 -148 q-123 -49 -260 -49q-133 0 -242 49q-108 49 -178 148q-80 111 -105 254zM309 745q-23 -132 -23 -239q0 -158 50 -260q82 -168 303 -168t362 168q139 166 199 499q24 137 24 246q0 155 -48 254q-82 168 -303.5 168t-362.5 -168q-144 -170 -201 -500zM688 1768q10 49 45 82 q39 35 80 34q45 0 70 -34q27 -35 16 -82q-8 -49 -45 -82q-39 -35 -82 -35t-67.5 35t-16.5 82zM1038 1768q10 49 45 82q39 35 82 34.5t68 -34.5q27 -35 16 -82q-8 -49 -45 -82q-39 -35 -80 -35q-45 0 -69.5 35t-16.5 82z" />
<glyph unicode="&#x22b;" horiz-adv-x="1107" d="M78 385q0 76 14 147q43 252 196.5 406t364.5 154q207 0 310 -154q68 -106 67 -258q0 -86 -12 -148q-43 -252 -199 -407q-154 -154 -362 -154q-207 0 -310 154q-69 106 -69 260zM266 348q0 -92 27 -162q49 -117 180 -116q133 0 223 116q86 113 127 346q18 104 19 185 q0 90 -27 160q-49 117 -180 116q-132 0 -221 -116.5t-129 -344.5q-19 -104 -19 -184zM450 1452q8 49 45 82q39 35 80 35q43 0 67.5 -35t16.5 -82t-45 -84q-35 -33 -82 -33t-67 33q-23 33 -15 84zM801 1452q8 49 45 82q39 35 79 35q43 0 68 -35t16.5 -82t-45.5 -84 q-35 -33 -79 -33q-49 0 -70 33q-22 33 -14 84zM516 1693l24 148h539l-27 -148h-536z" />
<glyph unicode="&#x22c;" horiz-adv-x="1509" d="M776 2058l24 148h539l-27 -148h-536zM96 422q-10 58 -10 125q0 90 18 198q31 182 105 324q76 143 194 254q111 100 228 147q123 49 260 50q295 0 436 -213q100 -150 100 -366q0 -92 -18 -196q-31 -174 -106 -323q-72 -141 -195 -254q-111 -100 -227 -148 q-123 -49 -260 -49q-133 0 -242 49q-108 49 -178 148q-80 111 -105 254zM309 745q-23 -132 -23 -239q0 -158 50 -260q82 -168 303 -168t362 168q139 166 199 499q24 137 24 246q0 155 -48 254q-82 168 -303.5 168t-362.5 -168q-144 -170 -201 -500zM651 1667q18 102 76 160 q55 59 131 59q29 0 59 -10q31 -12 72 -39l39 -26q25 -16 37 -21q18 -6 33 -6q39 0 63 27q25 25 35 75h86q-23 -109 -76 -161q-55 -57 -139 -58q-61 0 -119 45l-4 2l-39 29q-20 16 -33 21q-18 6 -30 6q-37 0 -66 -29q-27 -27 -39 -74h-86z" />
<glyph unicode="&#x22d;" horiz-adv-x="1107" d="M78 385q0 76 14 147q43 252 196.5 406t364.5 154q207 0 310 -154q68 -106 67 -258q0 -86 -12 -148q-43 -252 -199 -407q-154 -154 -362 -154q-207 0 -310 154q-69 106 -69 260zM266 348q0 -92 27 -162q49 -117 180 -116q133 0 223 116q86 113 127 346q18 104 19 185 q0 90 -27 160q-49 117 -180 116q-132 0 -221 -116.5t-129 -344.5q-19 -104 -19 -184zM424 1309q25 133 84 209q58 74 141 73q33 0 59 -14q35 -20 56 -47l41 -55q15 -22 30 -31q10 -8 31 -8q39 0 67.5 41t47.5 114h86q-25 -133 -84 -209q-58 -74 -141 -73q-35 0 -62 14 q-31 18 -53 47l-41 55q-16 23 -33 31q-14 8 -31 8q-37 0 -65 -41q-31 -43 -47 -114h-86zM508 1693l24 148h539l-27 -148h-536z" />
<glyph unicode="&#x22e;" horiz-adv-x="1509" d="M853.5 1770q10.5 49 45.5 82q39 35 80 34q43 0 67 -34q27 -37 19 -82q-8 -49 -45 -82q-39 -35 -82 -35q-45 0 -70 35q-25 33 -14.5 82zM96 422q-10 58 -10 125q0 90 18 198q31 182 105 324q76 143 194 254q111 100 228 147q123 49 260 50q295 0 436 -213 q100 -150 100 -366q0 -92 -18 -196q-31 -174 -106 -323q-72 -141 -195 -254q-111 -100 -227 -148q-123 -49 -260 -49q-133 0 -242 49q-108 49 -178 148q-80 111 -105 254zM309 745q-23 -132 -23 -239q0 -158 50 -260q82 -168 303 -168t362 168q139 166 199 499 q24 137 24 246q0 155 -48 254q-82 168 -303.5 168t-362.5 -168q-144 -170 -201 -500z" />
<glyph unicode="&#x22f;" horiz-adv-x="1107" d="M78 385q0 76 14 147q43 252 196.5 406t364.5 154q207 0 310 -154q68 -106 67 -258q0 -86 -12 -148q-43 -252 -199 -407q-154 -154 -362 -154q-207 0 -310 154q-69 106 -69 260zM266 348q0 -92 27 -162q49 -117 180 -116q133 0 223 116q86 113 127 346q18 104 19 185 q0 90 -27 160q-49 117 -180 116q-132 0 -221 -116.5t-129 -344.5q-19 -104 -19 -184zM620.5 1452q8.5 49 44.5 82q39 35 82 35t67.5 -35t16.5 -82t-45 -84q-35 -33 -82 -33t-67 33q-25 35 -16.5 84z" />
<glyph unicode="&#x230;" horiz-adv-x="1509" d="M717 2058l24 148h539l-27 -148h-536zM850.5 1825q8.5 49 44.5 82q39 35 82 35t67.5 -35t16.5 -82t-45 -84q-35 -33 -82 -33t-67 33q-25 35 -16.5 84zM96 422q-10 58 -10 125q0 90 18 198q31 182 105 324q76 143 194 254q111 100 228 147q123 49 260 50q295 0 436 -213 q100 -150 100 -366q0 -92 -18 -196q-31 -174 -106 -323q-72 -141 -195 -254q-111 -100 -227 -148q-123 -49 -260 -49q-133 0 -242 49q-108 49 -178 148q-80 111 -105 254zM309 745q-23 -132 -23 -239q0 -158 50 -260q82 -168 303 -168t362 168q139 166 199 499 q24 137 24 246q0 155 -48 254q-82 168 -303.5 168t-362.5 -168q-144 -170 -201 -500z" />
<glyph unicode="&#x231;" horiz-adv-x="1107" d="M78 385q0 76 14 147q43 252 196.5 406t364.5 154q207 0 310 -154q68 -106 67 -258q0 -86 -12 -148q-43 -252 -199 -407q-154 -154 -362 -154q-207 0 -310 154q-69 106 -69 260zM266 348q0 -92 27 -162q49 -117 180 -116q133 0 223 116q86 113 127 346q18 104 19 185 q0 90 -27 160q-49 117 -180 116q-132 0 -221 -116.5t-129 -344.5q-19 -104 -19 -184zM620.5 1452q8.5 49 44.5 82q39 35 82 35t67.5 -35t16.5 -82t-45 -84q-35 -33 -82 -33t-67 33q-25 35 -16.5 84zM516 1693l24 148h539l-27 -148h-536z" />
<glyph unicode="&#x232;" horiz-adv-x="1214" d="M533 1693l24 148h539l-27 -148h-536zM90 1386l21 107h497l-16 -107h-158l230 -604l442 604h-152l19 107h391l-18 -107h-127l-533 -724l-96 -556h172l-19 -106h-526l19 106h172l94 537l-285 743h-127z" />
<glyph unicode="&#x233;" horiz-adv-x="1040" d="M385 1378l24 148h539l-27 -148h-536zM-68 -424l35 203h84q-2 -10 -2 -31q0 -41 19 -65q23 -35 79 -35q160 0 297 153l-227 1155h-108l18 107h248l213 -1055q147 246 180 340q115 311 135 598h-108l18 109h248q-88 -569 -248 -875q-231 -444 -414 -575q-82 -59 -297 -60 q-45 0 -84 9q-57 12 -86 22z" />
<glyph unicode="&#x234;" horiz-adv-x="921" d="M147 -219l27 143q25 113 55 180l-14 21q-70 176 -27 407l160 918h-158l19 106h323l-178 -1024q-29 -166 -14 -264q147 139 322 140q184 0 143 -238q-33 -199 -281 -199q-137 0 -221 72q-10 -25 -27 -119l-24 -143h-105zM375 164q45 -94 170 -94q143 -2 162 106 q23 123 -78 123q-168 -4 -254 -135z" />
<glyph unicode="&#x235;" horiz-adv-x="1531" d="M147 0l168 956h-157l18 107h324l-33 -189q63 106 147 162q82 55 181 56q158 0 215 -100.5t20 -315.5l-24 -144q-31 -184 -15 -264q147 139 322 140q184 0 141 -238q-33 -199 -278 -199q-137 0 -222 72q-14 -27 -26 -119l-27 -143h-102l26 143q25 113 56 180l-15 21 q-70 170 -26 407l14 86q33 190 2 267q-31 74 -139 73q-113 0 -191 -94q-78 -92 -108 -272l-105 -592h-166zM1026 164q45 -94 168 -94q141 -4 164 106q22 123 -80 123q-166 -4 -252 -135z" />
<glyph unicode="&#x236;" horiz-adv-x="907" d="M119 956l16 107h148l57 330h166l-57 -330h311l-19 -107h-311l-74 -424q-29 -166 -14 -264q147 139 322 140q184 0 141 -238q-33 -199 -279 -199q-137 0 -221 72q-12 -23 -29 -119l-24 -143h-102l26 143q25 113 55 180l-14 21q-70 168 -29 407l74 424h-143zM377 164 q45 -94 170 -94q143 -2 162 106q22 123 -80 123q-166 -4 -252 -135z" />
<glyph unicode="&#x237;" horiz-adv-x="569" d="M-299 -389l39 219h86q-10 -96 20.5 -141t102.5 -45q84 0 133 61q51 63 72 191l186 1060h-158l19 107h321l-203 -1167q-29 -166 -133 -258.5t-258 -92.5q-61 0 -120.5 16.5t-106.5 49.5z" />
<glyph unicode="&#x238;" horiz-adv-x="1767" d="M51 532.5q43 251.5 182.5 405.5t317.5 154q106 0 176 -48q68 -46 98 -147l97 553h-158l16 106h326l-115 -659q63 100 150 147q84 47 194 48q174 0 260 -154q84 -152 41 -406q-43 -248 -182 -405q-137 -156 -315 -156q-109 0 -178 47q-68 46 -99 148l-28 -166h-166l28 166 q-63 -100 -149 -148q-84 -47 -193 -47q-176 0 -262 156q-84 154 -41 405.5zM246 532q-39 -221 6 -333.5t174 -112.5q127 0 209 100.5t117 292.5l18 105q35 193 -14 293t-174 100t-213 -113q-86 -111 -123 -332zM918 479q-35 -193 14 -293t176 -100q125 0 211 113 q84 113 125 333q37 223 -8 332q-47 113 -172 113q-129 0 -211 -100.5t-117 -292.5z" />
<glyph unicode="&#x239;" horiz-adv-x="1767" d="M127 532.5q43 251.5 182 405.5q137 154 316 154q109 0 178 -48q68 -46 98 -147l29 166h166l-29 -166q63 100 150 147q84 47 192 48q176 0 262 -154q84 -152 41 -406q-43 -248 -182 -405q-137 -156 -316 -156q-109 0 -178 47q-68 46 -98 148l-84 -485h156h2l-19 -107h-2 h-321l102 592q-63 -100 -149 -148q-84 -47 -195 -47q-174 0 -260 156q-84 154 -41 405.5zM319 532q-37 -223 9 -333q45 -113 172 -113q129 0 211 100.5t116 292.5l19 105q35 193 -14.5 293t-176.5 100q-123 0 -211 -113q-84 -109 -125 -332zM993 479q-35 -193 14.5 -293 t176.5 -100q125 0 211 113q86 115 123 333q40 221 -7 332q-47 113 -174 113t-208.5 -100.5t-116.5 -292.5z" />
<glyph unicode="&#x23a;" horiz-adv-x="1329" d="M-141 0l18 106h88l62 62l690 1325h151l70 -408l461 465l57 -71l-500 -504l150 -869h131l-18 -106h-490l19 106h149l-53 328h-424l-297 -299l-14 -29h147l-18 -106h-250l-58 -57l-47 57h-24zM262 403l31 31h-17zM334 541h63l367 368l-59 342zM526 541h299l-43 258z" />
<glyph unicode="&#x23b;" horiz-adv-x="1409" d="M-86 12l238 240q-41 80 -56 170q-25 143 6 323q61 348 280.5 561.5t514.5 213.5q111 0 227 -31q94 -27 187 -68l127 129l59 -71l-129 -129l-53 -303h-101q0 66 -14 133l-885 -889l19 -43q80 -170 295 -170q152 0 262 80t182 237h164q-96 -211 -254 -317.5t-373 -106.5 q-131 0 -235 49q-102 49 -174 148l-2 4l-228 -229zM293 393l872 883q-12 23 -37 47q-84 90 -266 90q-213 0 -354 -170q-139 -168 -199 -498q-34 -200 -16 -352z" />
<glyph unicode="&#x23c;" horiz-adv-x="1030" d="M-66 -31l189 201q-68 144 -31 362q43 252 199 408q152 152 360 152q92 0 178 -25q49 -12 97 -33l114 123l58 -63l-103 -111l-45 -258h-96q2 51 -4 102l-567 -610l10 -31q47 -117 182 -116q109 0 182 61q72 59 119 188h135q-66 -172 -180.5 -260t-273.5 -88 q-188 0 -287 123l-178 -188zM266 326l549 589q-6 12 -8 15q-51 63 -170 63q-133 0 -223 -116.5t-129 -344.5q-23 -116 -19 -206z" />
<glyph unicode="&#x23d;" horiz-adv-x="1222" d="M-29 0l19 106h172l90 523h-240l31 170h240l102 587h-172l18 107h527l-21 -107h-170l-102 -587h237l-28 -170h-240l-88 -506h615l43 250h110l-65 -373h-1078z" />
<glyph unicode="&#x23e;" horiz-adv-x="1228" d="M-178 12l696 703l117 659h-397l-39 -233h-113l64 352h1140l58 57l59 -71l-82 -82l-45 -256h-111l23 121l-481 -484l-117 -672h172l-18 -106h-527l19 106h172l80 451l-611 -614zM739 936l435 438h-359z" />
<glyph unicode="&#x23f;" horiz-adv-x="944" d="M57 59l43 248h97q-18 -117 36 -178q53 -59 177 -59q109 0 178 47t84 135q12 70 -25 113q-37 45 -164 92l-112 45q-113 43 -158 110.5t-27 167.5q25 145 136 230q109 82 280 82q74 0 158 -22.5t160 -63.5l-39 -232h-97q14 104 -37 161.5t-155 57.5q-102 0 -166 -41 q-59 -39 -76 -123q-12 -68 23 -108q33 -39 147 -82l123 -45q131 -47 176 -117q49 -76 29 -182q-25 -152 -145.5 -238t-303.5 -86q-51 0 -96 6l2 -10l39 -162q23 -96 41 -122q22 -31 92 -31q43 0 72 28.5t47 98.5h86l-37 -203q-33 -10 -94 -22q-41 -8 -100 -9q-129 0 -177 39 q-74 61 -98 176l-39 183q-16 70 -39 96q-21 8 -41 20z" />
<glyph unicode="&#x240;" horiz-adv-x="970" d="M20 0l17 86l749 870h-473l-32 -184h-97l52 291h784l-16 -86l-752 -871h45q203 0 262 -229l19 -72q25 -98 43 -122q23 -31 57 -31q41 0 69.5 28.5t47.5 98.5h84l-35 -203q-33 -10 -94 -22q-41 -8 -101 -9q-94 0 -141 39q-74 61 -98 176l-21 95q-31 145 -176 145h-193z" />
<glyph unicode="&#x241;" horiz-adv-x="1073" d="M45 0l18 106h170l115 654h182q137 0 220 80t110 233q29 152 -29 234q-55 80 -192 79h-219q-77 0 -117 -36q-45 -43 -67 -142h-86l36 219q59 33 125 49.5t127 16.5h264q203 0 301.5 -112.5t63.5 -307.5q-34 -194 -172 -307q-139 -115 -340 -115h-43l-94 -545h207l-19 -106 h-561z" />
<glyph unicode="&#x242;" horiz-adv-x="854" d="M115 809l37 217q59 33 124.5 49.5t126.5 16.5h43q203 0 301.5 -113t63.5 -305q-35 -199 -172 -309q-98 -80 -215 -103l-47 -262h-164l61 358q131 0 220 82q82 76 110 234q25 154 -29 231q-55 80 -190 80q-77 0 -117 -37q-45 -43 -67 -139h-86z" />
<glyph unicode="&#x245;" horiz-adv-x="1329" d="M-141 0l18 106h119l721 1387h151l238 -1387h131l-18 -106h-490l19 106h149l-192 1145l-596 -1145h147l-18 -106h-379z" />
<glyph unicode="&#x250;" horiz-adv-x="1097" d="M166 956l18 107h314l-21 -115q68 74 148 109t174 35q160 0 235.5 -94.5t48.5 -254.5q-27 -162 -151 -256q-121 -90 -318 -90h-233l-12 -73q-23 -121 32 -189q55 -66 174 -65q98 0 168 51q68 49 99 147h86l-39 -215q-92 -40 -178 -61q-80 -20 -162 -21q-201 0 -285 109 q-86 111 -49 319l98 557h-147zM399 504h213q123 0 195 59.5t92 179.5q20 109 -31 177q-49 66 -153 65q-102 0 -180 -72q-76 -70 -95 -184z" />
<glyph unicode="&#x251;" horiz-adv-x="1177" d="M92 537q43 246 182 403q133 152 355 152q154 0 219 -68q57 -57 61 -188v-37l56 110q53 106 151 158h92l-12 -59q-92 -31 -137 -123l-144 -285l11 -305q2 -156 35 -174q46 -25 172 49l-23 -121q-203 -117 -309 4q-47 53 -51 137l-2 72l-56 -110q-43 -86 -137 -142 q-57 -35 -162 -35q-178 4 -260 154q-84 158 -41 408zM285 532q-37 -223 8 -333q49 -123 172 -113q104 10 221 254l57 119l-4 293q-6 236 -127 235q-100 0 -202 -123q-86 -105 -125 -332z" />
<glyph unicode="&#x252;" horiz-adv-x="1243" d="M92 0l10 57q94 31 140 125l143 285l-10 305q-2 156 -35 174q-46 25 -172 -49l22 121q203 117 310 -6q47 -53 51 -138l2 -69l53 110q43 86 139 142q57 35 160 35q180 -4 262 -156q84 -158 41 -406q-43 -246 -184 -405q-131 -150 -352 -150q-156 0 -219 68q-59 59 -62 186 l-2 37l-53 -110q-51 -102 -154 -156h-90zM555 608l6 -295q4 -233 127 -233q102 0 203 121q86 104 125 334q37 221 -8 331q-49 123 -172 115q-106 -10 -224 -256z" />
<glyph unicode="&#x253;" horiz-adv-x="1177" d="M80 0l170 973l41 231q29 166 133 258q102 94 256 94q68 0 123 -16q63 -20 104 -49l-39 -219h-84q8 94 -20 139q-27 45 -105 45q-84 0 -131 -59q-49 -59 -71 -193l-56 -307q63 98 152 147q80 47 192 48q174 0 261 -154q84 -152 41 -406q-43 -248 -183 -405 q-139 -156 -315 -156q-111 0 -176 47q-70 49 -99 148l-28 -166h-166zM328 479q-33 -190 16 -293q49 -100 174 -100t211 113q84 113 125 333q39 217 -8 332q-47 113 -172 113q-127 0 -209 -100q-86 -104 -119 -293z" />
<glyph unicode="&#x254;" horiz-adv-x="1030" d="M43 66l45 272h98q-6 -139 47 -205q51 -63 170 -63q131 0 222 114q90 117 129 346q41 231 -9 347q-45 117 -182 116q-106 0 -180 -61.5t-121 -188.5h-133q66 172 180.5 260.5t274.5 88.5q207 0 309 -154q98 -150 55 -408q-47 -256 -198 -407q-156 -152 -363 -152 q-90 0 -176 25q-88 23 -168 70z" />
<glyph unicode="&#x255;" horiz-adv-x="1030" d="M96 -219l27 143q25 113 55 180l-14 21q-100 154 -55 407q43 252 198 408q156 152 363 152q90 0 176 -25q88 -23 168 -70l-47 -272h-97q6 139 -47 205q-51 63 -170 63q-133 0 -223 -114q-90 -117 -129 -347q-28 -160 -12 -264q133 131 366 131q240 0 195 -229 q-39 -199 -377 -199q-137 0 -221 72q-14 -33 -29 -119l-24 -143h-103zM324 164q43 -92 168 -94q240 -2 258 106q10 63 -33 94t-142 29q-165 -4 -251 -135z" />
<glyph unicode="&#x256;" horiz-adv-x="1191" d="M88 532q43 252 182.5 406t317.5 154q113 0 178 -47.5t96 -147.5l96 553h-155l18 106h322l-289 -1660q-23 -133 4 -191q28 -61 111 -61q76 0 121 45q46 46 67 141h86l-39 -219q-61 -34 -123 -49q-55 -16 -127 -17q-156 0 -225 93q-71 95 -43 258l41 231l8 39 q-59 -94 -149 -148q-84 -47 -195 -47q-174 0 -262 156q-84 157 -41 405zM283 532q-37 -223 8 -333q45 -113 172 -113t209 100.5t116 292.5l21 105q33 190 -16 293q-49 100 -175 100q-129 0 -212 -113q-82 -105 -123 -332z" />
<glyph unicode="&#x257;" horiz-adv-x="1257" d="M51 532q43 252 182.5 406t317.5 154q111 0 176.5 -47.5t95.5 -147.5l56 307q29 166 133 258q102 94 258 94q66 0 121 -16q63 -20 104 -49l-37 -219h-86q12 90 -20 139q-31 45 -105 45q-84 0 -131 -59q-49 -59 -72 -193l-210 -1204h-166l28 166q-70 -104 -147 -148 q-84 -47 -195 -47q-178 0 -262 156q-84 157 -41 405zM246 532q-39 -221 6 -333.5t174 -112.5q127 0 209 100.5t117 292.5l18 105q35 193 -14 293t-174 100q-129 0 -213 -113q-86 -111 -123 -332z" />
<glyph unicode="&#x258;" horiz-adv-x="1089" d="M72 322h133q6 -125 63.5 -188.5t167.5 -63.5q143 0 236 110q92 106 129 324l2 8h-715q55 285 196.5 432.5t358.5 147.5q203 0 301 -154t55 -405.5t-198 -407.5q-154 -154 -365 -154q-176 0 -266 88q-88 87 -98 263zM301 618h520q18 180 -33 279q-49 96 -161 96 q-121 0 -205 -96q-86 -99 -121 -279z" />
<glyph unicode="&#x259;" horiz-adv-x="1089" d="M94 551h715l2 8q37 217 -16 326q-55 109 -197 108q-113 0 -190 -63q-82 -66 -129 -189h-134q70 172 191 263q121 88 297 88q207 0 309 -154q100 -152 57 -408q-43 -248 -196 -405q-152 -154 -357 -154q-219 0 -307 150q-90 149 -45 430zM272 444q-27 -184 23 -280 q49 -94 170 -94q113 0 196.5 96t129.5 278h-519z" />
<glyph unicode="&#x25a;" horiz-adv-x="1552" d="M78 350l745 428q-6 61 -28 107q-55 109 -197 108q-113 0 -190 -63q-74 -57 -129 -189h-134q70 172 191 263q121 88 297 88q207 0 309 -154q23 -35 37 -70l272 156h103l-11 -59q-23 -135 25 -191q53 -61 125 -61q125 0 143 45l56 -78q-78 -49 -82 -49q-45 -18 -129 -19 q-102 0 -172 95q-61 80 -49 213l-254 -148q18 -106 -7 -242q-43 -248 -196 -405q-152 -154 -357 -154q-219 0 -307 150q-71 116 -61 229zM266 350q-14 -98 29 -186q49 -94 170 -94q119 0 197 96q72 90 143 364l6 29q8 39 12 111z" />
<glyph unicode="&#x25b;" horiz-adv-x="987" d="M47 268q25 137 131 213q74 55 187 80q-63 16 -113 55q-80 68 -57 195q22 129 122 197q98 66 277 65q53 0 139 -14q94 -20 187 -49l-39 -222h-99q6 90 -51 135.5t-141 45.5q-211 0 -240 -168q-16 -94 34 -142.5t165 -48.5h84l-21 -104h-82q-141 0 -223 -64 q-76 -59 -96 -176q-15 -80 25 -129q63 -82 192 -82q100 0 188 54q84 51 113 155h96l-39 -231q-90 -33 -202 -53q-96 -18 -168 -19q-201 0 -299 80q-97 82 -70 227z" />
<glyph unicode="&#x25c;" horiz-adv-x="935" d="M8 33l41 231h94q-18 -102 58 -155q70 -53 172 -54q129 0 219 82q55 47 72 129q20 113 -37 176q-59 63 -201 64h-84l20 104h82q231 0 267 191q14 84 -31 126t-150 42q-86 0 -157 -45q-74 -47 -101 -136h-96l39 222q113 33 203 49q88 14 145 14q178 0 252 -65 q76 -66 53 -197q-23 -127 -125 -195q-63 -39 -131 -55q102 -25 158 -80q80 -76 57 -213q-25 -145 -149 -227q-126 -80 -326 -80q-72 0 -164 19q-102 20 -180 53z" />
</font>
</defs>
</svg>
