<?xml version="1.0" standalone="no"?>
<!DOCTYPE svg PUBLIC "-//W3C//DTD SVG 1.1//EN" "http://www.w3.org/Graphics/SVG/1.1/DTD/svg11.dtd" >
<svg xmlns="http://www.w3.org/2000/svg">
<metadata>
This is a custom SVG webfont generated by Font Squirrel.
Copyright   : Copyright c 2003 by Bitstream Inc All Rights ReservedDejaVu changes are in public domain
Foundry     : DejaVu fonts team
Foundry URL : httpdejavusourceforgenet
</metadata>
<defs>
<font id="webfontC1fDQ2mQ" horiz-adv-x="1714" >
<font-face units-per-em="2048" ascent="1556" descent="-492" />
<missing-glyph horiz-adv-x="712" />
<glyph unicode="&#xfb00;" horiz-adv-x="1693" d="M-121 -389q12 68 23 113q82 0 127 57q47 59 71 186l191 975h-158l23 121h157l27 133q33 176 166 268t348 92q78 0 166 -10q72 -8 154 -28l-46 -228h-112q2 10 2 29q0 57 -25 88q-31 37 -98 37q-82 0 -127 -58q-51 -63 -74 -186l-26 -137h462l27 133q33 176 166 268 q131 92 348 92q76 0 164 -10q72 -8 154 -28l-43 -228h-113q0 6 1 15.5t1 13.5q0 57 -25 88q-31 37 -100 37q-82 0 -127 -58q-47 -59 -72 -186l-26 -137h266l-22 -121h-269l-186 -971q-39 -207 -166 -270q-188 -90 -412 -90q12 68 23 113q82 0 127 57q47 59 72 186l190 975 h-463l-188 -971q-39 -207 -166 -270q-189 -90 -412 -90z" />
<glyph unicode="&#xfb01;" horiz-adv-x="1488" d="M-121 -389q12 68 23 113q82 0 127 57q47 59 71 186l191 975h-158l23 121h157l17 76q41 209 200 311q166 106 439 106q98 0 202 -12q106 -12 220 -37l-48 -239h-112q0 2 1 8t1 8q0 74 -47 115q-51 45 -158 45q-145 0 -229 -72t-115 -223l-16 -86h714l-182 -942h152 l-23 -121h-506l183 942h-361l-188 -971q-39 -207 -166 -270q-189 -90 -412 -90z" />
<glyph unicode="&#xfb02;" horiz-adv-x="1488" d="M-121 -389q12 68 23 113q82 0 127 57q47 59 71 186l191 975h-158l23 121h157l17 76q41 213 207 315q168 102 471 102h467l-279 -1435h152l-23 -121h-506l281 1444h-88q-143 0 -219 -70q-78 -72 -109 -225l-16 -86h241l-22 -121h-242l-188 -971q-39 -207 -166 -270 q-189 -90 -412 -90z" />
<glyph unicode="&#xfb03;" horiz-adv-x="2269" d="M-121 -389q223 0 412 90q127 63 166 270l188 971h459l-189 -975q-25 -127 -71 -186q-45 -57 -127 -57q-23 -100 -25 -113q225 0 414 90q125 61 164 270l188 971h361l-183 -942h506l25 121h-154l185 942h-715l16 86q27 150 113 223q84 72 231 72q104 0 156 -45 q47 -41 47 -115v-16h111l47 239q-113 25 -219 37q-104 12 -201 12q-274 0 -441 -106q-160 -102 -200 -311l-15 -76h-460l26 137q23 123 74 186q45 57 127 58q68 0 98 -37q25 -31 25 -88q0 -18 -2 -29h112l46 228q-82 20 -154 28q-88 10 -166 10q-215 0 -348 -92t-166 -268 l-27 -133h-157l-23 -121h158l-191 -975q-25 -127 -71 -186q-45 -57 -127 -57q-11 -45 -23 -113z" />
<glyph unicode="&#xfb04;" horiz-adv-x="2344" d="M-121 -389q12 68 23 113q82 0 127 57q47 59 71 186l191 975h-158l23 121h157l27 133q33 176 166 268t348 92q78 0 166 -10q72 -8 154 -28l-46 -228h-112q2 10 2 29q0 57 -25 88q-31 37 -98 37q-82 0 -127 -58q-51 -63 -74 -186l-26 -137h454l23 76q70 236 198 315 q168 102 474 102h467l-279 -1435h152l-23 -121h-508l281 1444h-88q-143 0 -219 -69.5t-107 -225.5l-16 -86h241l-22 -121h-244l-188 -971q-39 -209 -164 -270q-188 -90 -414 -90q2 12 25 113q82 0 127 57q47 59 71 186l191 975h-455l-188 -971q-39 -207 -166 -270 q-189 -90 -412 -90z" />
<glyph unicode="&#x192;&#x192;" horiz-adv-x="1693" d="M-379 -350l45 227h113q-2 -10 -2 -29q0 -57 24 -88q31 -37 99 -36q82 0 127 57q47 59 71 186l193 975h-158l23 121h157l27 133q33 176 166 268t348 92q78 0 166 -10q72 -8 154 -28l-46 -228h-112q2 10 2 29q0 57 -25 88q-31 37 -98 37q-82 0 -127 -58q-51 -63 -74 -186 l-26 -137h462l27 133q33 176 166 268q131 92 348 92q76 0 164 -10q72 -8 154 -28l-43 -228h-113q0 6 1 15.5t1 13.5q0 57 -25 88q-31 37 -100 37q-82 0 -127 -58q-47 -59 -72 -186l-26 -137h266l-22 -121h-269l-188 -971q-33 -176 -166 -270q-129 -90 -350 -90 q-76 0 -164 10q-72 8 -154 29l43 227h113v-29q0 -59 22 -88q31 -37 101 -36q82 0 127 57q47 59 71 186l193 975h-463l-190 -971q-33 -176 -166 -270q-129 -90 -350 -90q-76 0 -164 10q-72 9 -154 29z" />
<glyph unicode="&#x192;i" horiz-adv-x="1488" d="M-377 -350l45 227h113q-2 -10 -2 -29q0 -57 24 -88q31 -37 99 -36q82 0 127 57q47 59 71 186l191 975h-158l23 121h157l17 76q41 209 200 311q166 106 439 106q98 0 202 -12q106 -12 220 -37l-48 -239h-112q0 2 1 8t1 8q0 74 -47 115q-51 45 -158 45q-145 0 -229 -72 t-115 -223l-16 -86h714l-182 -942h152l-23 -121h-506l183 942h-361l-188 -971q-33 -176 -166 -268q-132 -92 -350 -92q-76 0 -164 10q-72 9 -154 29z" />
<glyph unicode="&#x192;l" horiz-adv-x="1488" d="M-377 -350l45 227h113q-2 -10 -2 -29q0 -57 24 -88q31 -37 99 -36q82 0 127 57q47 59 71 186l191 975h-158l23 121h157l17 76q41 213 207 315q168 102 471 102h467l-279 -1435h152l-23 -121h-506l281 1444h-88q-143 0 -219 -70q-78 -72 -109 -225l-16 -86h241l-22 -121 h-242l-188 -971q-33 -176 -166 -268q-132 -92 -350 -92q-76 0 -164 10q-72 9 -154 29z" />
<glyph unicode="&#x192;&#x192;i" horiz-adv-x="2269" d="M-379 -350l45 227h113q-2 -10 -2 -29q0 -57 24 -88q31 -37 99 -36q82 0 127 57q47 59 71 186l193 975h-158l23 121h157l27 133q33 176 166 268t348 92q78 0 166 -10q72 -8 154 -28l-46 -228h-112q2 10 2 29q0 57 -25 88q-31 37 -98 37q-82 0 -127 -58q-51 -63 -74 -186 l-26 -137h460l15 76q41 209 200 311q166 106 441 106q96 0 201 -12q106 -12 219 -37l-47 -239h-111v16q0 74 -47 115q-51 45 -156 45q-147 0 -231 -72q-86 -74 -113 -223l-16 -86h715l-185 -942h154l-25 -121h-506l183 942h-361l-188 -971q-33 -174 -166 -268 q-129 -92 -348 -92q-78 0 -166 10q-72 8 -154 29l45 227h113q0 -6 -1 -15t-1 -14q0 -57 24 -88q31 -37 101 -36q82 0 127 57q47 59 71 186l189 975h-459l-190 -971q-33 -176 -166 -270q-129 -90 -350 -90q-76 0 -164 10q-72 9 -154 29z" />
<glyph unicode="&#x192;&#x192;l" horiz-adv-x="2344" d="M-379 -350l45 227h113q-2 -10 -2 -29q0 -57 24 -88q31 -37 99 -36q82 0 127 57q47 59 71 186l193 975h-158l23 121h157l27 133q33 176 166 268t348 92q78 0 166 -10q72 -8 154 -28l-46 -228h-112q2 10 2 29q0 57 -25 88q-31 37 -98 37q-82 0 -127 -58q-51 -63 -74 -186 l-26 -137h454l23 76q70 236 198 315q168 102 474 102h467l-279 -1435h152l-23 -121h-508l281 1444h-88q-143 0 -219 -69.5t-107 -225.5l-16 -86h241l-22 -121h-244l-188 -971q-33 -178 -164 -268q-132 -92 -350 -92q-76 0 -164 10q-76 8 -156 29l45 227h113q-2 -10 -2 -29 q0 -57 24 -88q31 -37 101 -36q82 0 127 57q47 59 71 186l191 975h-455l-190 -971q-33 -176 -166 -270q-129 -90 -350 -90q-76 0 -164 10q-72 9 -154 29z" />
<glyph unicode=" "  horiz-adv-x="712" />
<glyph unicode="&#x09;" horiz-adv-x="712" />
<glyph unicode="&#xa0;" horiz-adv-x="712" />
<glyph unicode="!" horiz-adv-x="897" d="M150 162q16 82 81 135q68 55 144 55q77 0 123 -55q47 -55 30.5 -135t-82.5 -135q-68 -55 -145 -56q-80 0 -123 56q-42 57 -28 135zM326 461l36 190l48 842h374l-282 -842l-37 -190h-139z" />
<glyph unicode="&#x22;" horiz-adv-x="1064" d="M195 938v555h237v-555h-237zM635 938v555h237v-555h-237z" />
<glyph unicode="#" d="M139 383v215h328l70 274h-283v213h338l96 385h223l-96 -385h264l97 385h221l-97 -385h277v-213h-330l-69 -274h284v-215h-336l-96 -383h-221l96 383h-264l-96 -383h-223l96 383h-279zM690 598h264l70 274h-264z" />
<glyph unicode="$" horiz-adv-x="1423" d="M84 59l57 291h119q-8 -135 57.5 -200.5t208.5 -65.5h15l80 405q-242 55 -330 149.5t-58 258.5q33 174 179 283q141 104 362 110l53 269h121l-51 -269q104 -6 208.5 -28.5t186.5 -59.5l-53 -272h-121q6 119 -55 180q-63 63 -189 68l-71 -373q256 -57 346 -158 q90 -98 55 -280q-37 -186 -182 -287q-150 -102 -383 -109l-51 -270h-121l51 270q-109 2 -217 25q-117 22 -217 63zM539 1022q-12 -72 20 -113q35 -43 127 -71l68 340q-90 -12 -146 -54q-57 -43 -69 -102zM662 84q102 12 163 55q59 43 76 117q14 72 -27 123q-37 47 -141 78z " />
<glyph unicode="%" horiz-adv-x="1945" d="M121 1114q41 201 160 301q123 104 313 104.5t270 -104.5q82 -109 43 -301q-41 -203 -159 -303q-123 -104 -314 -104q-188 0 -270 104q-84 104 -43 303zM268 -29l1237 1549h172l-1237 -1549h-172zM375 877q14 -70 80 -70q63 0 106 70q39 63 74 237q33 172 18 236 q-14 70 -80 69q-63 0 -106 -69q-43 -72 -74 -236q-34 -165 -18 -237zM1038 379q37 197 160 301t311 104q193 0 273 -104.5t43 -300.5q-41 -203 -160 -303q-123 -104 -313.5 -104.5t-270.5 104.5q-82 108 -43 303zM1292 141q14 -70 80 -69q63 0 107 69q39 63 73 238 q33 172 19 235q-14 70 -80 70q-63 0 -107 -70q-43 -72 -73 -235q-35 -166 -19 -238z" />
<glyph unicode="&#x26;" horiz-adv-x="1847" d="M14 352q0 41 11 99q29 158 141 278q104 115 309 199q-35 63 -51 129q-8 31 -8 65q0 27 6 52q31 164 186 256q154 90 406 90q76 0 170 -13q76 -10 215 -34l-62 -312h-129v29q0 100 -41 151q-45 57 -153 58q-102 0 -168 -47q-70 -49 -84 -131q-2 -8 -2 -23q0 -92 129 -252 q10 -14 24 -28l367 -482q66 59 123 158q55 94 84 201l22 120h318l-23 -120h-176q-45 -145 -112 -258q-70 -117 -160 -201l166 -215h170l-25 -121h-479l-101 131q-119 -82 -245 -121q-125 -39 -273 -39q-301 0 -442 127q-113 100 -113 254zM383 426q0 -109 61 -188 q86 -109 248 -109q78 0 158 25q82 25 162 75l-451 588q-70 -70 -110 -143q-41 -72 -60 -158q-8 -41 -8 -90z" />
<glyph unicode="'" horiz-adv-x="626" d="M195 938v555h237v-555h-237z" />
<glyph unicode="(" horiz-adv-x="968" d="M192.5 618.5q67.5 344.5 276.5 575.5q209 229 575 362l-22 -120q-174 -94 -285 -285q-102 -178 -172 -533q-68 -348 -35 -532q35 -190 172 -285l-22 -120q-315 127 -434 358q-121 235 -53.5 579.5z" />
<glyph unicode=")" horiz-adv-x="968" d="M-78 -319l23 120q172 92 282 285q106 184 174 532q68 342 33 532.5t-172 285.5l25 120q313 -131 434 -362t53 -576q-68 -348 -278 -579q-212 -233 -574 -358z" />
<glyph unicode="*" horiz-adv-x="1069" d="M45 874l361 170l-361 168l98 158l328 -242l-27 392h183l-27 -392l328 242l98 -158l-360 -168l360 -170l-98 -155l-328 239l27 -389h-183l27 389l-328 -239z" />
<glyph unicode="+" d="M217 528v230h526v526h230v-526h526v-230h-526v-526h-230v526h-526z" />
<glyph unicode="," horiz-adv-x="712" d="M-8 -197q121 84 188 189q70 106 96 241l17 86h285l-3 -8q-43 -221 -165.5 -380.5t-335.5 -268.5z" />
<glyph unicode="-" horiz-adv-x="849" d="M86 414l51 270h629l-53 -270h-627z" />
<glyph unicode="." horiz-adv-x="712" d="M166 162q16 82 82 135q68 55 145.5 55t122.5 -55q47 -55 30.5 -135t-81.5 -135q-68 -55 -146 -56q-77 0 -122.5 55.5t-30.5 135.5z" />
<glyph unicode="/" horiz-adv-x="747" d="M-164 -190l854 1683h221l-854 -1683h-221z" />
<glyph unicode="0" horiz-adv-x="1423" d="M96 745q74 377 270.5 576t497.5 199q299 0 418 -199q121 -201 47 -576q-74 -377 -270.5 -575.5t-497.5 -198.5q-299 0 -418 199q-121 200 -47 575zM442 197q23 -109 144 -109q119 0 184.5 108.5t151.5 548.5q84 428 61 547q-22 111 -141 111q-121 0 -186.5 -108.5 t-151.5 -549.5q-85 -431 -62 -548z" />
<glyph unicode="1" horiz-adv-x="1423" d="M133 0l25 121h278l236 1208l-346 -184l28 149l418 226h315l-272 -1399h283l-25 -121h-940z" />
<glyph unicode="2" horiz-adv-x="1423" d="M-10 0l47 244l250 153q326 197 442 332q123 141 156 320q35 176 -21 264q-55 90 -190 90q-115 0 -203 -72q-82 -68 -129 -207h-121l62 322q127 37 254 55q123 18 243 19q287 0 422 -117t96 -324q-29 -150 -139 -266q-113 -121 -391 -278l-469 -273h709l32 176h138 l-84 -438h-1104z" />
<glyph unicode="3" horiz-adv-x="1423" d="M8 51l64 328h121q-18 -141 47 -217q63 -74 200 -74q156 0 252 84q98 86 129 240q31 164 -37 250q-70 88 -229 88h-66l23 120h53q147 0 234 68q90 72 114 203q25 125 -32 194q-55 68 -187 68q-117 0 -198.5 -63.5t-118.5 -188.5h-121l57 299q150 37 267 53q115 16 245 17 q268 0 396 -97q125 -94 90 -276q-25 -135 -125 -219q-100 -86 -264 -113q186 -31 264 -133q76 -98 41 -279q-41 -211 -228 -321q-188 -111 -501 -111q-123 0 -240 21q-133 22 -250 59z" />
<glyph unicode="4" horiz-adv-x="1423" d="M12 393l23 115l821 1012h377l-195 -998h256l-24 -129h-256l-53 -272h223l-25 -121h-821l22 121h224l53 272h-625zM215 522h447l141 725z" />
<glyph unicode="5" horiz-adv-x="1423" d="M37 53l61 326h121q-20 -147 35 -219t195 -72q145 0 235 98q89 98 129 301q39 197 -10 297q-49 98 -193 99q-77 0 -141 -31q-59 -29 -129 -98h-100l145 739h918l-52 -262h-798l-64 -328q80 55 162 78q86 25 176 25q276 0 409.5 -139.5t86.5 -379.5q-47 -246 -233.5 -381 t-475.5 -135q-127 0 -238 21q-135 24 -239 61z" />
<glyph unicode="6" horiz-adv-x="1423" d="M121 698q80 408 293 615t561 207q94 0 188 -15q113 -16 213 -45l-51 -264h-121q-6 100 -65.5 153.5t-167.5 53.5q-178 0 -283 -123q-102 -121 -158 -395q76 53 162 78q94 27 180 26q229 0 334 -135t60 -367q-49 -246 -221.5 -381t-446.5 -135q-303 0 -426 185 q-123 182 -51 542zM469 176q29 -88 129 -88q102 0 166 88q57 82 102 303q43 215 14.5 303t-129 88t-163.5 -88q-57 -82 -103 -303q-43 -219 -16 -303z" />
<glyph unicode="7" horiz-adv-x="1423" d="M213 1008l94 485h1094l-49 -254l-858 -1239h-203l835 1210h-737l-39 -202h-137z" />
<glyph unicode="8" horiz-adv-x="1423" d="M39 397q31 166 143 267q117 104 297 131q-154 37 -213 120.5t-35 214.5q37 188 199 289t432 101q272 0 393 -101q123 -100 86 -289q-25 -127 -120 -215q-92 -84 -258 -120q168 -27 243 -131q72 -98 41 -267q-39 -205 -217 -315.5t-471 -110.5q-291 0 -426 111 q-133 110 -94 315zM436 157.5q33 -69.5 148 -69.5q113 0 174 70q59 68 96 256q35 186 2 252q-35 70 -147 69q-115 0 -174 -69q-61 -70 -95 -252q-37 -187 -4 -256.5zM612 911q29 -59 119 -59q94 0 143 59q47 55 78 215q33 162 6 217q-29 59 -118 60q-94 0 -144 -60 q-49 -57 -80 -217q-31 -158 -4 -215z" />
<glyph unicode="9" horiz-adv-x="1423" d="M49 31l51 264h121q6 -100 65.5 -153.5t170.5 -53.5q174 0 278.5 123t159.5 397q-78 -53 -162 -80q-82 -27 -180 -26q-227 0 -332 133q-106 133 -59 369q49 250 219 383t444 133q305 0 428 -184.5t52 -542.5q-80 -406 -295 -615q-213 -207 -559 -207q-96 0 -191 15 q-107 16 -211 45zM544.5 709q28.5 -88 129 -88t164.5 88q57 82 102 303q43 219 16 303q-29 88 -131 88q-100 0 -163 -88q-57 -82 -103 -303q-43 -215 -14.5 -303z" />
<glyph unicode=":" horiz-adv-x="755" d="M125 162q16 82 82 135q68 55 143 55q77 0 123 -55q47 -55 30.5 -135t-81.5 -135q-68 -55 -146 -56q-77 0 -122 56q-45 53 -29 135zM252 813q14 78 82 135q63 55 143 56q77 0 123 -56q47 -55 31 -135q-14 -76 -82 -133q-66 -55 -145.5 -55t-122.5 55q-43 57 -29 133z" />
<glyph unicode=";" horiz-adv-x="755" d="M-49 -188q127 88 190 186q70 106 97 242l16 88h285q-43 -225 -168 -387q-127 -164 -336 -271zM281 813q16 80 81 135q68 55 146 56q77 0 123 -56q45 -53 28 -135q-14 -76 -81 -133q-66 -55 -146 -55t-123 55q-42 57 -28 133z" />
<glyph unicode="&#x3c;" d="M217 530v226l1282 463v-240l-979 -338l979 -336v-239z" />
<glyph unicode="=" d="M217 301v227h1282v-227h-1282zM217 756v227h1282v-227h-1282z" />
<glyph unicode="&#x3e;" d="M217 66v239l979 336l-979 338v240l1282 -463v-226z" />
<glyph unicode="?" horiz-adv-x="1198" d="M211 1145l59 307q127 33 246 51q104 16 221 17q250 0 365 -111q113 -111 74 -315q-39 -201 -193 -318t-401 -135l-39 -205h-140l58 299q150 43 231 135q82 90 113 246q27 143 -19 217t-165 74q-106 0 -183 -66q-72 -61 -106 -196h-121zM229.5 162q16.5 82 81.5 135 q68 55 146 55q76 0 123 -55t30 -135q-14 -80 -84 -135q-68 -55 -145 -56q-77 0 -123 56q-45 53 -28.5 135z" />
<glyph unicode="@" horiz-adv-x="2048" d="M131 186q-33 164 4 357q37 190 135.5 356t248 291t329.5 188q175 61 381 62q178 0 313 -49q143 -51 234 -146q109 -109 149 -254q39 -137 4 -315q-55 -276 -241 -430q-188 -154 -471 -154h-31l26 148q-63 -78 -135 -111q-80 -37 -170 -37q-190 0 -276 121 q-84 119 -45 330q39 209 174 331q131 119 323 119q86 0 154 -39q63 -35 94 -108l25 125h219l-145 -742q152 41 251 156q100 117 136 293q27 141 -5 260q-31 117 -126 213q-80 80 -193 121q-111 41 -256 41q-127 0 -250 -35q-111 -31 -227 -104q-163 -108 -271 -271 q-111 -168 -147 -360q-31 -152 -8 -293q20 -129 92 -238q82 -119 211 -180t291 -61q119 0 241 34q125 35 238 101l39 -94q-139 -80 -293 -125q-147 -43 -291 -43q-195 0 -342 63q-152 66 -254 189q-100 122 -135 290zM827 543q-29 -147 14.5 -235.5t141.5 -88.5 q100 0 178 78q80 80 105 207l14 76q25 127 -23 208q-45 78 -147 78q-98 0 -176 -88q-80 -88 -107 -235z" />
<glyph unicode="A" horiz-adv-x="1587" d="M-162 0l25 121h121l829 1372h240l295 -1372h143l-25 -121h-698l23 121h147l-64 305h-561l-186 -305h178l-22 -121h-445zM385 547h463l-119 571z" />
<glyph unicode="B" horiz-adv-x="1730" d="M-49 0l22 121h193l244 1251h-193l25 121h884q270 0 392 -92q92 -71 92 -196q0 -38 -8 -81q-25 -135 -136 -211q-111 -77 -301 -98q221 -20 324 -121q75 -73 75 -186q0 -36 -8 -76q-43 -223 -231 -328q-186 -104 -545 -104h-829zM551 121h141q193 0 299.5 75.5 t136.5 235.5q9 47 9 87q0 97 -54 153q-76 78 -268 78h-141zM696 870h131q172 0 267 62q96 61 120 192q7 34 7 64q0 82 -50 125q-70 59 -245 59h-131z" />
<glyph unicode="C" horiz-adv-x="1628" d="M86 745q68 354 330 566q261 209 639 209q132 0 270 -31q123 -27 285 -98l-72 -367h-127q-4 193 -86 281q-88 94 -254 94q-215 0 -354 -160q-137 -160 -203 -494q-30 -152 -30 -270q0 -137 40 -223q74 -160 295 -160q152 0 260.5 82t186.5 252h198q-106 -233 -278 -342 q-178 -113 -434 -113q-379 0 -557 209q-128 150 -128 377q0 88 19 188z" />
<glyph unicode="D" horiz-adv-x="1775" d="M-49 0l22 121h193l244 1251h-193l25 121h766q401 0 577 -193q125 -136 125 -358q0 -90 -20 -194q-70 -362 -322 -555q-250 -193 -651 -193h-766zM551 121h137q236 0 373 149q135 147 201 478q29 148 29 258q0 135 -44 217q-80 150 -313 149h-139z" />
<glyph unicode="E" horiz-adv-x="1560" d="M-49 0l22 121h193l244 1251h-193l25 121h1341l-67 -352h-140l41 215h-626l-95 -479h391l37 190h138l-101 -516h-137l39 190h-391l-117 -604h645l41 215h137l-67 -352h-1360z" />
<glyph unicode="F" horiz-adv-x="1452" d="M-49 0l22 121h193l244 1251h-193l25 121h1331l-70 -352h-137l43 215h-616l-95 -479h379l37 190h137l-100 -516h-135l37 190h-379l-121 -620h233l-22 -121h-813z" />
<glyph unicode="G" horiz-adv-x="1748" d="M86 745q72 362 330 568q262 207 645 207q160 0 307 -31q137 -29 293 -98l-72 -367h-127q-6 199 -94 287t-278 88q-231 0 -371 -158q-141 -160 -205 -496q-31 -159 -31 -277q0 -134 39 -218q74 -158 293 -158q83 0 160 19q66 16 141 57l80 410h-180l24 120h539l-113 -573 q-201 -84 -358 -117q-175 -37 -350 -37q-385 0 -563 207q-128 148 -129 377q0 89 20 190z" />
<glyph unicode="H" horiz-adv-x="1933" d="M-49 0l22 121h193l244 1251h-193l25 121h768l-25 -121h-190l-99 -502h594l99 502h-193l25 121h768l-25 -121h-190l-244 -1251h190l-22 -121h-768l22 121h193l119 612h-594l-119 -612h190l-22 -121h-768z" />
<glyph unicode="I" horiz-adv-x="956" d="M-49 0l22 121h193l244 1251h-193l25 121h768l-25 -121h-190l-244 -1251h190l-22 -121h-768z" />
<glyph unicode="J" horiz-adv-x="968" d="M-324 -358l45 235h132q-4 -27 -4 -50q0 -57 22 -87q33 -45 104 -45q98 0 152 74q51 74 92 280l256 1323h-217l25 121h794l-22 -121h-193l-258 -1331q-45 -242 -192.5 -354.5t-411.5 -112.5q-90 0 -162 16q-90 21 -162 52z" />
<glyph unicode="K" horiz-adv-x="1779" d="M-49 0l22 121h193l244 1251h-193l25 121h768l-25 -121h-190l-107 -545l739 545h-159l22 121h557l-22 -121h-201l-625 -461l576 -790h145l-22 -121h-506l-524 725l-117 -604h190l-22 -121h-768z" />
<glyph unicode="L" horiz-adv-x="1439" d="M-49 0l22 121h193l244 1251h-193l25 121h768l-25 -121h-190l-240 -1235h588l45 236h135l-74 -373h-1298z" />
<glyph unicode="M" horiz-adv-x="2265" d="M-59 0l22 121h191l243 1251h-188l22 121h617l239 -958l615 958h614l-22 -121h-193l-243 -1251h190l-23 -121h-768l23 121h190l224 1139l-668 -1041h-252l-258 1041l-221 -1139h188l-22 -121h-520z" />
<glyph unicode="N" horiz-adv-x="1871" d="M-55 0l22 121h193l243 1251h-190l23 121h466l697 -1057l180 936h-188l22 121h522l-22 -121h-193l-266 -1372h-262l-705 1079l-188 -958h190l-22 -121h-522z" />
<glyph unicode="O" horiz-adv-x="1783" d="M86 745q70 360 326 567.5t630 207.5q379 0 551 -205q123 -147 123 -373q0 -92 -20 -197q-72 -365 -326 -569.5t-631 -204.5t-549 205q-124 149 -124 376q0 91 20 193zM512 254q61 -162 252 -162q188 0 315 162q123 156 189 491q33 167 32 292q0 121 -30 200 q-61 162 -252 162t-316 -162q-123 -160 -188 -492q-33 -166 -32 -290q0 -120 30 -201z" />
<glyph unicode="P" horiz-adv-x="1538" d="M-49 0l22 121h193l244 1251h-193l25 121h850q252 0 372 -119q94 -91 94 -226q0 -43 -10 -91q-41 -203 -209 -320q-170 -119 -417 -119h-275l-96 -497h240l-23 -121h-817zM672 739h110q131 0 226 86q92 84 120 232q9 49 10 89q0 84 -40 140q-61 86 -193 86h-110z" />
<glyph unicode="Q" horiz-adv-x="1783" d="M102 549q0 96 21 196q70 360 326 567.5t628 207.5q377 0 551 -205q125 -150 125 -375q0 -94 -20 -195q-61 -317 -267 -516q-207 -201 -516 -245q41 -57 115 -82q164 -57 299 -58h192l-47 -245h-172q-252 0 -407 114q-115 86 -160 258q-375 6 -547 209q-121 146 -121 369z M518 455q0 -121 31 -201q61 -162 252 -162q188 0 315 162q123 156 189 491q33 164 32 295q0 117 -30 197q-61 162 -252 162t-316 -162q-123 -160 -188 -492q-33 -175 -33 -290z" />
<glyph unicode="R" horiz-adv-x="1701" d="M-49 0l22 121h193l244 1251h-193l25 121h852q261 0 381 -104q93 -81 92 -213q0 -40 -8 -84q-31 -156 -150 -246q-121 -92 -326 -117q86 -12 140 -59q51 -45 80 -133l137 -416h151l-22 -121h-492l-149 451q-43 139 -82 178t-127 39h-62l-106 -547h190l-22 -121h-768z M680 788h131q143 0 231 76q90 78 117 217q9 45 9 83q0 82 -42 132q-63 76 -200 76h-131z" />
<glyph unicode="S" horiz-adv-x="1478" d="M27 72l69 354h127v-11q0 -161 88 -241q90 -82 283 -82q154 0 248 59.5t114 172.5q5 25 5 46q0 59 -33 95q-46 49 -209 92l-213 55q-203 53 -277 156q-46 64 -46 168q0 52 12 115q43 223 215 346t438 123q121 0 266 -23q127 -20 281 -65l-64 -330h-127q0 154 -84 225.5 t-264 71.5q-150 0 -233.5 -51.5t-106.5 -153.5q-6 -28 -5 -51q0 -55 30 -90q43 -49 235 -101l213 -55q197 -53 271 -162q48 -71 47 -179q0 -56 -13 -124q-43 -225 -223 -344q-178 -117 -481 -117q-147 0 -285 25q-147 27 -278 76z" />
<glyph unicode="T" horiz-adv-x="1523" d="M96 1120l72 373h1481l-72 -373h-135l45 236h-414l-239 -1235h198l-22 -121h-785l25 121h196l240 1235h-407l-46 -236h-137z" />
<glyph unicode="U" horiz-adv-x="1785" d="M195 1372l22 121h768l-22 -121h-193l-143 -747q-25 -127 -25 -219q0 -110 35 -170q66 -113 276 -113q209 0 315.5 112.5t162.5 389.5l145 747h-190l22 121h520l-22 -121h-193l-147 -768q-63 -340 -244 -487q-176 -145 -524 -145.5t-469 147.5q-77 95 -78 269q0 97 25 218 l149 766h-190z" />
<glyph unicode="V" horiz-adv-x="1587" d="M111 1372l22 121h701l-23 -121h-145l208 -989l601 989h-179l23 121h444l-22 -121h-125l-832 -1372h-237l-295 1372h-141z" />
<glyph unicode="W" horiz-adv-x="2299" d="M104 1372l23 121h709l-25 -121h-160l107 -917l524 1038h285l123 -1055l473 934h-178l22 121h463l-25 -121h-151l-695 -1372h-258l-127 1087l-548 -1087h-258l-158 1372h-146z" />
<glyph unicode="X" horiz-adv-x="1587" d="M-109 0l23 121h184l504 571l-334 680h-137l25 121h741l-23 -121h-163l207 -420l366 420h-174l25 121h520l-25 -121h-182l-475 -536l350 -715h141l-22 -121h-746l25 121h166l-225 454l-402 -454h184l-22 -121h-531z" />
<glyph unicode="Y" horiz-adv-x="1460" d="M104 1372l23 121h717l-25 -121h-166l226 -569l444 569h-147l22 121h428l-22 -121h-127l-551 -702l-109 -549h203l-25 -121h-788l22 121h201l98 497l-297 754h-127z" />
<glyph unicode="Z" horiz-adv-x="1492" d="M-70 0l27 141l1128 1215h-714l-43 -223h-138l70 360h1296l-26 -141l-1118 -1215h753l41 209h137l-67 -346h-1346z" />
<glyph unicode="[" horiz-adv-x="968" d="M80 -270l352 1826h567l-22 -120h-213l-307 -1586h213l-25 -120h-565z" />
<glyph unicode="\" horiz-adv-x="747" d="M164 1493h221l199 -1683h-222z" />
<glyph unicode="]" horiz-adv-x="968" d="M-33 -270l25 120h213l307 1586h-213l23 120h569l-354 -1826h-570z" />
<glyph unicode="^" d="M207 936l543 557h223l536 -557h-213l-438 315l-438 -315h-213z" />
<glyph unicode="_" horiz-adv-x="1024" d="M0 -293h1024v-190h-1024v190z" />
<glyph unicode="`" horiz-adv-x="1024" d="M262 1638h281l182 -376h-164z" />
<glyph unicode="a" horiz-adv-x="1325" d="M72 449q43 221 233 415q227 227 533 228q301 0 344 -62l-176 -909l133 2l-25 -123h-442l24 135q-111 -164 -305 -164t-278 127q-56 84 -56 209q0 65 15 142zM397 199q25 -72 121 -72q92 0 152 84q57 82 94 268l78 398q-2 59 -62 59q-133 0 -264 -160q-57 -70 -108 -321 q-21 -104 -21 -175q-1 -51 10 -81z" />
<glyph unicode="b" horiz-adv-x="1431" d="M51 0l279 1436h-152l23 120h506l-121 -628q61 84 143 123q86 41 197 41q227 0 327 -150q70 -100 70 -248q0 -76 -18 -162q-53 -262 -211 -411.5t-385 -149.5q-111 0 -181 41q-72 43 -98 123l-24 -135h-355zM477 309q0 -55 17 -98q31 -84 137 -84q109 0 170 88t106 317 q29 147 29 230q0 53 -12 86q-27 88 -136 88q-106 0 -169.5 -82t-100.5 -270l-20 -105q-21 -96 -21 -170z" />
<glyph unicode="c" horiz-adv-x="1245" d="M70 387q0 74 14 145q53 266 233 412q184 147 457 148q119 0 221 -21q117 -23 217 -63l-57 -295h-113q2 14 2 45q0 102 -40 155q-49 66 -164 66q-150 0 -232 -100q-80 -96 -129 -347q-25 -129 -24 -219q0 -76 18 -125q40 -104 178 -104q109 0 185 63q78 66 114 185h166 q-74 -181 -209 -271q-137 -90 -336 -90q-285 0 -411 148q-90 102 -90 268z" />
<glyph unicode="d" horiz-adv-x="1431" d="M23 369q0 84 16 163q53 262 209 410q158 150 385 150q111 0 180 -41q72 -43 98 -123l99 508h-152l23 120h505l-301 -1556h-354l27 135q-63 -84 -146 -123q-88 -41 -196 -41q-227 0 -328 150q-65 98 -65 248zM408 303q0 -51 10 -88q27 -88 137 -88q102 0 168 84 q63 82 100 268l21 105q18 98 18 170q0 63 -14 100q-31 82 -135 82q-109 0 -172 -88q-59 -84 -107 -316q-26 -135 -26 -229z" />
<glyph unicode="e" horiz-adv-x="1302" d="M68 379q0 63 16 149q53 270 231 416q180 147 445 148q190 0 323 -74q131 -74 131 -209q0 -31 -6 -57q-66 -326 -753 -353q-6 -34 -6 -104q0 -211 204 -211q117 0 199 61.5t125 176.5h166q-76 -178 -223 -267q-141 -84 -373 -84q-274 0 -395 146q-84 102 -84 262zM477 518 h23q307 0 354 244q6 37 6 69q0 147 -125 148q-94 0 -149.5 -90t-108.5 -371z" />
<glyph unicode="f" horiz-adv-x="880" d="M-121 -389q12 68 23 113q82 0 127 57q47 59 71 186l191 975h-158l23 121h157l27 133q33 176 166 268t348 92q78 0 166 -10q72 -8 154 -28l-46 -228h-112q2 10 2 29q0 57 -25 88q-31 37 -98 37q-82 0 -127 -58q-51 -63 -74 -186l-26 -137h268l-25 -121h-266l-188 -971 q-39 -207 -166 -270q-189 -90 -412 -90z" />
<glyph unicode="g" horiz-adv-x="1431" d="M45 -389l51 254h113v-17q0 -94 53 -139q59 -51 191 -51q166 0 245.5 78t120.5 278l25 121q-123 -164 -348 -164q-223 0 -326 127q-72 89 -72 226q0 58 13 125q51 268 305 466q229 176 561 177q268 0 389 -97l-192 -981q-49 -244 -228 -346q-218 -123 -473 -123 q-98 0 -213 17q-107 15 -215 49zM502 199q31 -72 139 -72q104 0 170 84q61 78 98 268l78 398q-6 59 -69 59q-181 0 -295 -160q-72 -104 -115 -321q-20 -101 -20 -168q0 -56 14 -88z" />
<glyph unicode="h" horiz-adv-x="1488" d="M70 0l278 1436h-158l23 120h512l-125 -643q80 92 174 138q84 41 215 41q180 0 250 -107q45 -66 45 -174q0 -66 -14 -135l-109 -555h154l-25 -121h-506l134 686q14 66 14 119q0 45 -12 69q-25 51 -109 52q-109 0 -172 -78q-66 -80 -98 -250l-117 -598h-354z" />
<glyph unicode="i" horiz-adv-x="776" d="M70 0l184 942h-152l23 121h506l-185 -942h152l-23 -121h-505zM299 1325q0 25 2 39q16 82 84 137t147 55q76 0 123 -57q33 -39 33 -94q0 -12 -4 -41q-16 -82 -80 -135q-68 -55 -145 -55q-82 0 -127 55q-33 39 -33 96z" />
<glyph unicode="j" horiz-adv-x="739" d="M-340 -416l43 226h115q-6 -31 -6 -56q0 -39 14 -59q23 -37 88 -37q76 0 113 47q37 45 61 170l207 1067h-152l25 121h506l-232 -1188q-31 -162 -164 -246t-356 -84q-51 0 -127 11q-59 8 -135 28zM332 1325q0 10 4 39q16 80 82 137q65 55 147 55q78 0 125 -57 q33 -41 33 -96q0 -10 -4 -39q-16 -80 -82 -135q-68 -55 -145.5 -55t-124.5 55q-35 41 -35 96z" />
<glyph unicode="k" horiz-adv-x="1417" d="M70 0l278 1436h-149l22 120h504l-193 -999l504 385h-127l23 121h289l-25 -121l-322 -246l336 -575h115l-22 -121h-392l-290 500l-117 -88l-80 -412h-354z" />
<glyph unicode="l" horiz-adv-x="776" d="M70 0l278 1436h-149l22 120h504l-279 -1435h152l-23 -121h-505z" />
<glyph unicode="m" horiz-adv-x="2166" d="M115 0l184 942h-152l23 121h506l-31 -150q80 92 170 135.5t199 43.5q129 0 200.5 -49.5t96.5 -153.5q96 109 188 156t211 47q182 0 254 -105q43 -65 43 -172q0 -68 -14 -139l-109 -555h154l-25 -121h-506l121 623q27 139 27 198q0 29 -8 53q-20 51 -103 52 q-96 0 -160 -72q-70 -78 -92 -207l-127 -647h-354l123 623q25 129 24 196q0 31 -8 55q-20 51 -102 52q-98 0 -162 -72q-66 -76 -90 -207l-127 -647h-354z" />
<glyph unicode="n" horiz-adv-x="1488" d="M115 0l184 942h-152l23 121h506l-31 -150q80 92 174 138q84 41 215 41q180 0 250 -107q45 -66 45 -174q0 -66 -14 -135l-109 -555h154l-25 -121h-506l134 686q14 66 14 119q0 45 -12 69q-25 51 -109 52q-109 0 -172 -78q-66 -80 -98 -250l-117 -598h-354z" />
<glyph unicode="o" horiz-adv-x="1363" d="M70 393q0 70 14 139q52 264 240 412q188 147 469 148q283 0 411 -148q94 -106 94 -272q0 -70 -14 -140q-52 -261 -240 -411q-186 -150 -468.5 -150t-411.5 150q-94 106 -94 272zM446 270q0 -53 11 -90q27 -96 141 -96q109 0 174.5 96t114.5 352q33 162 33 267 q0 49 -11 86q-25 94 -139 94q-111 0 -176 -96q-66 -98 -115 -351q-33 -174 -33 -262z" />
<glyph unicode="p" horiz-adv-x="1431" d="M51 -426l266 1368h-151l22 121h506l-24 -135q61 84 143 123q86 41 197 41q227 0 327 -150q70 -100 70 -248q0 -76 -18 -162q-53 -262 -211 -411.5t-385 -149.5q-111 0 -181 41q-72 43 -98 123l-108 -561h-355zM561 309q0 -55 17 -98q31 -84 137 -84q109 0 170 88t106 317 q27 135 27 230q0 49 -10 86q-27 88 -138 88q-104 0 -167.5 -82t-100.5 -270l-20 -105q-21 -113 -21 -170z" />
<glyph unicode="q" horiz-adv-x="1431" d="M109 449q51 268 305 466q229 176 559 177q268 0 389 -97l-252 -1294l162 -2l-25 -123l-516 -2l111 561q-123 -164 -348 -164q-223 0 -326 127q-72 89 -72 226q0 58 13 125zM500 199q31 -72 139 -72q102 0 168 84q63 82 100 268l78 398q-6 59 -70 59q-182 0 -297 -160 q-70 -100 -112 -321q-20 -101 -20 -168q0 -56 14 -88z" />
<glyph unicode="r" horiz-adv-x="1077" d="M115 0l184 942h-164l25 121h516l-37 -189q74 111 170 164.5t219 53.5q16 0 74 -5q41 -2 100 -12l-61 -317h-113q2 14 2 39q0 59 -22 88q-29 41 -109 41q-117 0 -203 -103q-90 -106 -123 -282l-104 -541h-354z" />
<glyph unicode="s" horiz-adv-x="1150" d="M0 31l55 297h115q0 -4 -1 -14.5t-1 -14.5q0 -96 59.5 -155.5t178.5 -59.5q231 0 260 145q4 25 4 47q0 27 -24.5 58t-127.5 55l-137 37q-158 41 -209 106q-49 66 -49 146q0 31 6 72q33 170 172 258q131 84 354 84q221 0 455 -64l-51 -268h-115q4 25 4 37q0 182 -225 182 q-229 0 -254 -135q-2 -10 -2 -39q0 -65 123 -98l137 -37q199 -51 254 -119t55 -154q0 -41 -8 -75q-33 -176 -180 -265q-143 -86 -416 -86q-203 1 -432 60z" />
<glyph unicode="t" horiz-adv-x="944" d="M100 942l23 121h153l66 330h352l-63 -330h295l-23 -121h-295l-127 -651q-16 -80 -16 -133q0 -31 4 -39q16 -35 74 -35q63 0 102 43q37 39 60 133h149q-41 -162 -131 -225.5t-283 -63.5q-219 0 -284 70q-41 41 -41 135q0 49 12 115l127 651h-154z" />
<glyph unicode="u" horiz-adv-x="1488" d="M129 942l25 121h505l-120 -621q-25 -127 -25 -192q0 -41 8 -60q23 -53 111 -53q109 0 172 78q65 80 98 252l117 596h354l-182 -942h149l-22 -121h-506l29 150q-82 -94 -172 -138q-84 -41 -215 -41q-180 0 -250 105q-45 66 -45 176q0 66 14 135l109 555h-154z" />
<glyph unicode="v" horiz-adv-x="1189" d="M43 942l23 121h434l162 -793q31 0 188 213q145 201 211 459h-117l25 123l235 -2q4 -250 -198 -584q-193 -322 -367 -479h-285l-194 942h-117z" />
<glyph unicode="w" horiz-adv-x="1761" d="M61 942l25 121h434l103 -696l372 696h211l111 -764q12 12 149 182q139 182 199 461l-139 -2l24 123h273q-59 -385 -183 -578q-193 -301 -385 -485h-243l-97 666l-356 -666h-242l-139 942h-117z" />
<glyph unicode="x" horiz-adv-x="1220" d="M-37 0l467 518l-221 424h-119l23 121h434l201 -385l348 385h143l-455 -500l230 -442h141l-22 -121h-453l-209 401l-367 -401h-141z" />
<glyph unicode="y" horiz-adv-x="1189" d="M-39 -412l43 222h113q-4 -33 -4 -46q0 -68 47 -90q25 -10 63 -16q16 -2 49 -2q109 0 224 72l-283 1214h-117l25 121h434l238 -1028q117 172 192 354q76 186 154 551h-144l25 123h287q-23 -115 -62 -293q-88 -403 -201 -594q-291 -489 -528 -579q-129 -51 -323 -52 q-95 0 -232 43z" />
<glyph unicode="z" horiz-adv-x="1161" d="M-31 0l23 121l698 747q-41 16 -59 29q-127 68 -207 68q-117 0 -299 -146l31 160q176 168 336 168q78 -2 210 -70q141 -72 199 -71q53 0 115 22q55 20 82 37l98 -2l-22 -119l-701 -749q45 -16 64 -29q127 -68 204 -68q119 0 301 146l-30 -158q-180 -170 -338 -170 q-78 2 -211 70q-141 72 -199 71q-53 0 -114 -22q-55 -20 -82 -37z" />
<glyph unicode="{" horiz-adv-x="1316" d="M160 551l24 121h62q141 0 204.5 57t94.5 209l49 250q20 100 45 166q23 57 57 92q61 61 150 86q86 25 323 24h148l-25 -120h-102q-111 0 -162 -47q-51 -49 -76 -183l-53 -270q-31 -158 -94 -227q-59 -66 -197 -97q121 -33 160 -100q35 -61 4 -225l-51 -271 q-25 -139 4 -182q31 -47 145 -47h103l-25 -121h-147q-237 0 -314 25q-78 25 -114 86q-22 37 -25 92q-2 47 21 166l49 250q29 154 -12 209q-43 57 -185 57h-61z" />
<glyph unicode="|" horiz-adv-x="743" d="M264 -483v2048h215v-2048h-215z" />
<glyph unicode="}" horiz-adv-x="1316" d="M2 -334l25 121h100q111 0 162 47q51 49 76 182l53 271q31 156 94 225q61 68 199 100q-123 31 -160 98.5t-6 225.5l53 270q25 137 -8 183q-35 47 -144 47h-100l25 120h145q237 0 313 -24q78 -25 115 -86q22 -37 25 -92q2 -47 -21 -166l-49 -250q-31 -147 14 -209 q43 -57 183 -57h61l-24 -121h-62q-141 0 -205 -57q-68 -61 -94 -209l-47 -250q-20 -100 -45 -166q-20 -53 -59 -92q-61 -61 -150 -86q-86 -25 -324 -25h-145z" />
<glyph unicode="~" d="M217 453v206q96 88 189 127q94 41 192 41t246 -57q10 -4 16 -7t10 -3l15 -6q172 -68 274 -68q77 0 160 37q94 41 180 108v-206q-92 -86 -186 -127t-194.5 -41t-248.5 57q-8 2 -14 6t-10 4q-2 0 -9.5 3t-11.5 5q-174 66 -268 66q-77 0 -160 -37q-94 -40 -180 -108z" />
<glyph unicode="&#xa1;" horiz-adv-x="897" d="M115 0l280 842l37 190h139l-36 -190l-46 -842h-374zM371 1329q16 80 82 135q68 55 145 56q77 0 123 -56q45 -53 29 -135q-16 -80 -82 -133q-68 -55 -146 -55q-80 0 -123 55q-42 57 -28 133z" />
<glyph unicode="&#xa2;" horiz-adv-x="1423" d="M162 532q53 264 229 408q180 145 459 152l49 264h123l-53 -269q53 -2 135 -22q51 -12 186 -57l-55 -295h-115q10 127 -33 190.5t-139 75.5l-174 -891q92 14 158 78q63 59 96 166h166q-66 -158 -174 -246q-113 -90 -266 -109l-56 -276h-120l53 270q-276 6 -398 152 q-122 149 -71 409zM537 221q25 -100 118 -127l170 875q-104 -25 -168 -125q-61 -98 -102 -312q-41 -217 -18 -311z" />
<glyph unicode="&#xa3;" horiz-adv-x="1423" d="M0 0l23 121h192l113 573h-195l25 121h192l56 277q43 215 194.5 321.5t427.5 106.5q74 0 154 -9q111 -12 207 -26l-56 -283h-121q12 100 -24 152q-39 53 -123 53q-119 0 -184 -74q-63 -74 -99 -250l-53 -268h352l-22 -121h-352l-109 -557h420l45 228h135l-70 -365h-1128z " />
<glyph unicode="&#xa4;" horiz-adv-x="1302" d="M76 215l209 209q-29 41 -45 100q-14 49 -15 117q0 66 15 117q16 55 45 100l-209 205l153 158l207 -211q47 31 103 45q51 14 114 14q57 0 109 -14q57 -16 112 -45l205 211l152 -154l-209 -205q27 -49 45 -112q14 -51 14 -109q0 -66 -14 -115q-16 -59 -45 -100l209 -211 l-156 -154l-207 211q-41 -29 -100 -45q-49 -14 -115 -14q-61 0 -112 14q-57 16 -105 41l-209 -207zM434 641q0 -92 63.5 -155.5t155.5 -63.5t155.5 63.5t63.5 155.5t-63.5 155.5t-155.5 63.5t-155.5 -63.5t-63.5 -155.5z" />
<glyph unicode="&#xa5;" horiz-adv-x="1423" d="M59 467l23 117h401l13 59l-35 135h-342l22 117h287l-129 477h-137l22 121h695l-25 -121h-170l152 -551l362 551h-149l22 121h436l-22 -121h-135l-316 -477h293l-22 -117h-351l-75 -116l-17 -78h404l-23 -117h-401l-70 -346h191l-23 -121h-760l25 121h188l70 346h-404z " />
<glyph unicode="&#xa6;" horiz-adv-x="743" d="M264 -350v758h215v-758h-215zM264 674v758h215v-758h-215z" />
<glyph unicode="&#xa7;" horiz-adv-x="1069" d="M-2 -150l47 240h119q-10 -92 33 -131q45 -41 149 -41q86 0 141.5 37t67.5 106q10 49 -10 80q-23 35 -103 80l-120 72q-166 96 -224 182q-55 82 -32 199q20 102 92 176q70 74 194 117q-72 45 -100.5 110.5t-9.5 153.5q25 135 149 213q121 76 322 76q86 0 157 -11 q61 -8 185 -34l-47 -240h-119q12 84 -33 129q-43 43 -139 43q-82 0 -135.5 -37t-65.5 -104q-9 -46 12 -80q23 -35 101 -80l121 -72q170 -98 225 -182q53 -80 31 -199q-23 -106 -91 -178q-70 -74 -194 -117q76 -47 100 -110q27 -68 8 -154q-25 -135 -149 -213 q-121 -76 -326 -76q-96 0 -169.5 10t-186.5 35zM322 745q-12 -63 22.5 -112t134.5 -109l152 -88q51 33 82 74q29 39 39 82q12 59 -25 110q-37 53 -137 111l-150 88q-53 -37 -80 -72q-30 -39 -38 -84z" />
<glyph unicode="&#xa8;" horiz-adv-x="1024" d="M336 1468q12 59 63.5 102.5t112.5 43.5t94 -43q35 -43 23 -103q-12 -61 -64 -104t-110 -43q-57 0 -97 45q-34 45 -22 102zM782 1468q12 59 63.5 102.5t111 43.5t96.5 -43t24 -103q-12 -61 -63 -102q-55 -45 -113 -45q-59 0 -94 45q-37 47 -25 102z" />
<glyph unicode="&#xa9;" horiz-adv-x="2048" d="M283 741q0 152 55 285t162 240q109 109 241 164t283 55t283 -55q133 -55 241 -164q106 -106 161.5 -239.5t55.5 -285.5q0 -154 -55 -282q-59 -135 -162 -240q-109 -109 -241 -164t-283 -55t-283 55q-133 55 -241 164q-102 104 -162 240q-55 128 -55 282zM436 741.5 q0 -120.5 43 -225t129 -190.5t190.5 -129t225.5 -43t225.5 43t190.5 129t129 190.5t43 225t-43 225t-129 190.5q-90 90 -191 131q-104 43 -225 43t-225 -43q-100 -41 -191 -131q-86 -86 -129 -190.5t-43 -225zM606 741.5q0 200.5 117 321.5t313 121q78 0 158 -19 q88 -20 168 -57v-223h-105q-12 94 -65 147t-133 53q-104 0 -164 -92q-59 -94 -59 -252q0 -162 59 -252t164 -90q76 0 123 45q51 47 71 136h138q-29 -139 -119 -209t-246 -70q-186 0 -303 121q-117 119 -117 319.5z" />
<glyph unicode="&#xaa;" horiz-adv-x="995" d="M14 504l27 135h797l-27 -135h-797zM131 952q0 55 12 119q37 186 140 303q102 119 249 146q25 6 48 6q37 0 69 -17q47 -20 70 -77l16 90h162l-115 -592h115l-29 -152h-276l24 129q-47 -70 -106 -110q-66 -45 -129 -58q-33 -6 -66 -6q-94 0 -143 68q-41 57 -41 151z M317 1006q0 -57 19 -95q25 -57 82 -57q16 0 24 2q76 14 138 92q59 76 82 189l12 65q8 39 8 78q0 57 -20 92q-29 47 -82 47q-18 0 -29 -2q-78 -16 -137 -98q-61 -86 -86 -213q-11 -45 -11 -100z" />
<glyph unicode="&#xab;" horiz-adv-x="1280" d="M141 516l33 168l545 385l-29 -147l-303 -322l178 -321l-28 -148zM602 516l33 168l543 385l-27 -147l-303 -322l176 -321l-29 -148z" />
<glyph unicode="&#xac;" d="M217 676v227h1282v-616h-229v389h-1053z" />
<glyph unicode="&#xad;" horiz-adv-x="849" d="M86 414l51 270h629l-53 -270h-627z" />
<glyph unicode="&#xae;" horiz-adv-x="2048" d="M283 741q0 152 55 285t162 240q109 109 241 164t283 55t283 -55q133 -55 241 -164q106 -106 161.5 -239.5t55.5 -285.5q0 -154 -55 -282q-59 -135 -162 -240q-109 -109 -241 -164t-283 -55t-283 55q-133 55 -241 164q-102 104 -162 240q-55 128 -55 282zM436 741.5 q0 -120.5 43 -225t129 -190.5t190.5 -129t225.5 -43t225.5 43t190.5 129t129 190.5t43 225t-43 225t-129 190.5q-90 90 -191 131q-104 43 -225 43t-225 -43q-100 -41 -191 -131q-86 -86 -129 -190.5t-43 -225zM649 352v82h86v643h-86v82h453q121 0 188 -55q70 -57 70 -150 q0 -89 -49 -141q-47 -49 -146 -59q43 -14 70 -37q31 -28 49 -68l100 -215h60v-82h-223l-117 254q-31 70 -62 90q-29 20 -84 21h-26v-283h86v-82h-369zM932 799h67q78 0 121 36.5t43 102.5t-43 102.5t-121 36.5h-67v-278z" />
<glyph unicode="&#xaf;" horiz-adv-x="1024" d="M319 1360l35 188h631l-37 -188h-629z" />
<glyph unicode="&#xb0;" horiz-adv-x="1024" d="M178 1200q0 141 96.5 237.5t237.5 96.5q66 0 127 -25q51 -20 109 -73q49 -53 71 -109q25 -61 25 -126.5t-24.5 -127t-69.5 -106.5q-49 -49 -110.5 -74t-129.5 -25q-141 0 -236 95q-96 96 -96 237zM340 1200q0 -72 49 -121t123 -49t123 49t49 121t-51 123q-49 49 -121 49 q-74 0 -123 -49t-49 -123z" />
<glyph unicode="&#xb1;" d="M217 0v227h1282v-227h-1282zM217 698v228h526v358h230v-358h526v-228h-526v-358h-230v358h-526z" />
<glyph unicode="&#xb2;" horiz-adv-x="894" d="M4 684l27 133l145 84q209 121 275 193q63 70 81 163q16 84 -16 132q-31 47 -104 47q-66 0 -115 -41q-52 -43 -74 -111h-94l39 195q78 23 151 30q86 10 158 11q186 0 271 -64q86 -63 63 -178q-16 -84 -82 -148q-70 -66 -242 -153l-270 -139h414l18 96h101l-50 -250h-696z " />
<glyph unicode="&#xb3;" horiz-adv-x="894" d="M16 711l37 200h97q-8 -80 28 -120q37 -39 115 -39q86 0 141 43q57 45 72 125q16 82 -25 124q-39 43 -133 43h-41l17 84h30q84 0 131 33q51 35 64 99q12 66 -21 98q-35 35 -104 35q-68 0 -113 -37t-63 -101h-96l34 183q106 20 168 28q86 10 142 11q180 0 262 -51.5 t63 -153.5q-16 -74 -76 -119q-66 -49 -165 -63q115 -14 168 -72q51 -55 32 -148q-25 -123 -139 -184t-313 -61q-72 0 -158 10q-70 8 -154 33z" />
<glyph unicode="&#xb4;" horiz-adv-x="1024" d="M465 1262l332 376h278l-446 -376h-164z" />
<glyph unicode="&#xb5;" horiz-adv-x="1497" d="M63 -426l267 1368h-152l25 121h506l-117 -596q-29 -147 -29 -215q0 -43 8 -59q25 -55 113 -56q106 0 170 80q66 80 98 250l117 596h354l-184 -942h154l-25 -121h-506l25 125q-68 -80 -133 -119q-57 -35 -136 -35q-29 0 -59 11q-28 9 -55 30l-86 -438h-355z" />
<glyph unicode="&#xb6;" horiz-adv-x="1302" d="M229 1071q37 190 189 305q154 117 368 117h555l-22 -125h-115l-303 -1565h-151l303 1565h-162l-305 -1565h-152l164 846q-217 18 -309 127q-97 111 -60 295z" />
<glyph unicode="&#xb7;" horiz-adv-x="712" d="M166 711q16 82 82 135q68 55 145.5 55t122.5 -55q47 -55 30.5 -135t-81.5 -133q-68 -55 -146 -56q-77 0 -122 56q-47 55 -31 133z" />
<glyph unicode="&#xb8;" horiz-adv-x="1024" d="M229 -375l29 156q37 -16 84 -27q35 -8 76 -8q61 0 96 23q33 23 43 69q6 31 -2 62q-6 20 -49 100h127q53 -70 69 -119q18 -53 9 -106q-14 -84 -90 -131q-72 -45 -195 -45q-49 0 -98 6q-33 4 -99 20z" />
<glyph unicode="&#xb9;" horiz-adv-x="894" d="M82 684l16 94h164l121 613l-203 -101l21 105l245 125h228l-146 -742h164l-16 -94h-594z" />
<glyph unicode="&#xba;" horiz-adv-x="1024" d="M14 504l27 135h797l-27 -135h-797zM84 1128q37 186 174 287q141 104 352 105q213 0 312 -105q100 -106 63 -287q-37 -182 -174 -286q-139 -104 -352 -104.5t-312 104.5q-100 106 -63 286zM379 893q18 -70 96 -70q76 0 123 72q51 78 80 233q31 164 12 236q-18 70 -96 70 t-123 -70q-51 -78 -80 -236q-32 -157 -12 -235z" />
<glyph unicode="&#xbb;" horiz-adv-x="1280" d="M102 131l29 148l301 321l-176 322l29 147l393 -385l-33 -168zM561 131l31 148l301 321l-176 322l26 147l396 -385l-33 -168z" />
<glyph unicode="&#xbc;" horiz-adv-x="2134" d="M1120 231l17 88l483 533h252l-103 -527h148l-19 -94h-147l-25 -121h125l-16 -94h-518l16 94h125l25 121h-363zM1262 325h239l66 334zM82 684l16 94h164l121 613l-203 -101l21 105l245 125h228l-146 -742h164l-16 -94h-594zM365 -29l1237 1549h169l-1236 -1549h-170z" />
<glyph unicode="&#xbd;" horiz-adv-x="2134" d="M82 684l16 94h164l121 613l-203 -101l21 105l245 125h228l-146 -742h164l-16 -94h-594zM365 -29l1237 1549h169l-1236 -1549h-170zM1114 16l27 133l145 84q209 121 275 193q63 70 81 163q16 84 -16 132q-31 47 -104 47q-66 0 -115 -41q-52 -43 -74 -111h-94l39 195 q78 23 151 30q86 10 158 11q186 0 271 -64q86 -63 63 -178q-16 -84 -82 -148q-70 -66 -242 -153l-270 -139h414l18 96h101l-50 -250h-696z" />
<glyph unicode="&#xbe;" horiz-adv-x="2134" d="M1120 231l17 88l483 533h252l-103 -527h148l-19 -94h-147l-25 -121h125l-16 -94h-518l16 94h125l25 121h-363zM1262 325h239l66 334zM16 711l37 200h97q-8 -80 28 -120q37 -39 115 -39q86 0 141 43q57 45 72 125q16 82 -25 124q-39 43 -133 43h-41l17 84h30q84 0 131 33 q51 35 64 99q12 66 -21 98q-35 35 -104 35q-68 0 -113 -37t-63 -101h-96l34 183q106 20 168 28q86 10 142 11q180 0 262 -51.5t63 -153.5q-16 -74 -76 -119q-66 -49 -165 -63q115 -14 168 -72q51 -55 32 -148q-25 -123 -139 -184t-313 -61q-72 0 -158 10q-70 8 -154 33z M365 -29l1237 1549h169l-1236 -1549h-170z" />
<glyph unicode="&#xbf;" horiz-adv-x="1198" d="M25 397q39 201 192.5 317.5t400.5 135.5l39 205h140l-58 -299q-150 -43 -231 -135q-82 -90 -113 -246q-27 -143 19 -217t166 -74q106 0 182 66q72 61 106 196h121l-59 -307q-127 -33 -246 -51q-104 -16 -221 -17q-250 0 -365 111q-112 110 -73 315zM592 1329 q16 80 82 135q68 55 145 56q77 0 123 -56q45 -53 29 -135q-16 -80 -82 -133q-68 -55 -144 -55q-82 0 -124 55q-43 57 -29 133z" />
<glyph unicode="&#xc0;" horiz-adv-x="1587" d="M-162 0l25 121h121l829 1372h240l295 -1372h143l-25 -121h-698l23 121h147l-64 305h-561l-186 -305h178l-22 -121h-445zM385 547h463l-119 571zM670 1899h278l132 -264h-164z" />
<glyph unicode="&#xc1;" horiz-adv-x="1587" d="M-162 0l25 121h121l829 1372h240l295 -1372h143l-25 -121h-698l23 121h147l-64 305h-561l-186 -305h178l-22 -121h-445zM385 547h463l-119 571zM793 1635l233 264h279l-348 -264h-164z" />
<glyph unicode="&#xc2;" horiz-adv-x="1587" d="M-162 0l25 121h121l829 1372h240l295 -1372h143l-25 -121h-698l23 121h147l-64 305h-561l-186 -305h178l-22 -121h-445zM385 547h463l-119 571zM557 1635l277 264h307l172 -264h-166l-180 161l-246 -161h-164z" />
<glyph unicode="&#xc3;" horiz-adv-x="1587" d="M-162 0l25 121h121l829 1372h240l295 -1372h143l-25 -121h-698l23 121h147l-64 305h-561l-186 -305h178l-22 -121h-445zM385 547h463l-119 571zM590 1635l2 12q25 125 90 190q70 66 168 66q61 0 133 -39q9 -3 13 -6l65 -33q25 -12 43 -18q25 -4 35 -4q41 0 70 24 q29 23 38 70v4h111l-2 -15q-25 -123 -90.5 -188t-167.5 -65q-31 0 -66 10q-43 12 -79 35l-52 28q-33 16 -49 21q-25 6 -43 6q-39 0 -69 -27q-29 -25 -39 -67v-4h-111z" />
<glyph unicode="&#xc4;" horiz-adv-x="1587" d="M-162 0l25 121h121l829 1372h240l295 -1372h143l-25 -121h-698l23 121h147l-64 305h-561l-186 -305h178l-22 -121h-445zM385 547h463l-119 571zM614.5 1775.5q12.5 59.5 63.5 102.5q55 45 113 45q59 0 94 -45q35 -43 22 -102q-12 -61 -61 -103q-49 -43 -111 -43 q-59 0 -96 43t-24.5 102.5zM1061 1776q12 57 66 102q55 45 110 45q57 0 96 -45q37 -43 25 -102q-12 -57 -66 -103q-51 -43 -110.5 -43t-95.5 43q-37 46 -25 103z" />
<glyph unicode="&#xc5;" horiz-adv-x="1587" d="M-201 0l25 121h121l764 1263q-51 37 -70 97q-20 68 -6 135q23 119 123 201q102 84 217 84q117 0 184 -84q68 -82 45 -201q-16 -82 -55 -133q-43 -58 -111 -99l273 -1263h141l-23 -121h-700l25 121h145l-63 305h-562l-184 -305h178l-22 -121h-445zM346 547h463l-117 571z M786 1616q-8 -53 21 -92q31 -39 86 -39t100 39q47 41 56 92q8 53 -21 92q-31 39 -86 39q-53 0 -98 -39q-50 -43 -58 -92z" />
<glyph unicode="&#xc6;" horiz-adv-x="2117" d="M-209 0l25 121h112l838 1251h-203l25 121h1550l-67 -352h-140l41 215h-602l-92 -479h367l36 190h136l-101 -516h-135l39 190h-369l-116 -604h622l41 215h135l-67 -352h-1336l25 121h188l60 303h-522l-201 -303h164l-25 -121h-428zM362 545h465l160 827h-74z" />
<glyph unicode="&#xc7;" horiz-adv-x="1628" d="M86 745q68 354 330 566q261 209 639 209q132 0 270 -31q123 -27 285 -98l-72 -367h-127q-4 193 -86 281q-88 94 -254 94q-215 0 -354 -160q-137 -160 -203 -494q-30 -152 -30 -270q0 -137 40 -223q74 -160 295 -160q152 0 260.5 82t186.5 252h198q-106 -233 -278 -342 q-178 -113 -434 -113q-379 0 -557 209q-128 150 -128 377q0 88 19 188zM432 -375l29 156q37 -16 84 -27q35 -8 76 -8q61 0 96 23q33 23 43 69q6 31 -2 62q-6 20 -49 100h127q53 -70 69 -119q18 -53 9 -106q-14 -84 -90 -131q-72 -45 -195 -45q-49 0 -98 6q-33 4 -99 20z" />
<glyph unicode="&#xc8;" horiz-adv-x="1560" d="M-49 0l22 121h193l244 1251h-193l25 121h1341l-67 -352h-140l41 215h-626l-95 -479h391l37 190h138l-101 -516h-137l39 190h-391l-117 -604h645l41 215h137l-67 -352h-1360zM715 1899h278l132 -264h-164z" />
<glyph unicode="&#xc9;" horiz-adv-x="1560" d="M-49 0l22 121h193l244 1251h-193l25 121h1341l-67 -352h-140l41 215h-626l-95 -479h391l37 190h138l-101 -516h-137l39 190h-391l-117 -604h645l41 215h137l-67 -352h-1360zM838 1635l233 264h279l-348 -264h-164z" />
<glyph unicode="&#xca;" horiz-adv-x="1560" d="M-49 0l22 121h193l244 1251h-193l25 121h1341l-67 -352h-140l41 215h-626l-95 -479h391l37 190h138l-101 -516h-137l39 190h-391l-117 -604h645l41 215h137l-67 -352h-1360zM602 1635l277 264h307l172 -264h-166l-180 161l-246 -161h-164z" />
<glyph unicode="&#xcb;" horiz-adv-x="1560" d="M-49 0l22 121h193l244 1251h-193l25 121h1341l-67 -352h-140l41 215h-626l-95 -479h391l37 190h138l-101 -516h-137l39 190h-391l-117 -604h645l41 215h137l-67 -352h-1360zM700.5 1775.5q12.5 59.5 63.5 102.5q55 45 113 45q59 0 94 -45q35 -43 22 -102 q-12 -61 -61 -103q-49 -43 -111 -43q-59 0 -96 43t-24.5 102.5zM1147 1776q12 57 66 102q55 45 110 45q57 0 96 -45q37 -43 25 -102q-12 -57 -66 -103q-51 -43 -110.5 -43t-95.5 43q-37 46 -25 103z" />
<glyph unicode="&#xcc;" horiz-adv-x="956" d="M-49 0l22 121h193l244 1251h-193l25 121h768l-25 -121h-190l-244 -1251h190l-22 -121h-768zM379 1899h278l132 -264h-164z" />
<glyph unicode="&#xcd;" horiz-adv-x="956" d="M-49 0l22 121h193l244 1251h-193l25 121h768l-25 -121h-190l-244 -1251h190l-22 -121h-768zM502 1635l233 264h279l-348 -264h-164z" />
<glyph unicode="&#xce;" horiz-adv-x="956" d="M-49 0l22 121h193l244 1251h-193l25 121h768l-25 -121h-190l-244 -1251h190l-22 -121h-768zM266 1635l277 264h307l172 -264h-166l-180 161l-246 -161h-164z" />
<glyph unicode="&#xcf;" horiz-adv-x="956" d="M-49 0l22 121h193l244 1251h-193l25 121h768l-25 -121h-190l-244 -1251h190l-22 -121h-768zM286.5 1775.5q12.5 59.5 63.5 102.5q55 45 113 45q59 0 94 -45q35 -43 22 -102q-12 -61 -61 -103q-49 -43 -111 -43q-59 0 -96 43t-24.5 102.5zM733 1776q12 57 66 102 q55 45 110 45q57 0 96 -45q37 -43 25 -102q-12 -57 -66 -103q-51 -43 -110.5 -43t-95.5 43q-37 46 -25 103z" />
<glyph unicode="&#xd0;" horiz-adv-x="1789" d="M-37 0l25 121h190l117 592h-213l27 137h213l102 522h-193l23 121h768q399 0 575 -193q175 -190 105 -552q-70 -360 -320 -555q-248 -193 -651 -193h-768zM563 121h139q233 0 371 149q135 147 201 478q66 326 -14 475t-314 149h-137l-102 -522h331l-26 -137h-332z" />
<glyph unicode="&#xd1;" horiz-adv-x="1871" d="M-55 0l22 121h193l243 1251h-190l23 121h466l697 -1057l180 936h-188l22 121h522l-22 -121h-193l-266 -1372h-262l-705 1079l-188 -958h190l-22 -121h-522zM754 1635l2 12q25 125 90 190q70 66 168 66q61 0 133 -39q9 -3 13 -6l65 -33q25 -12 43 -18q25 -4 35 -4 q41 0 70 24q29 23 38 70v4h111l-2 -15q-25 -123 -90.5 -188t-167.5 -65q-31 0 -66 10q-43 12 -79 35l-52 28q-33 16 -49 21q-25 6 -43 6q-39 0 -69 -27q-29 -25 -39 -67v-4h-111z" />
<glyph unicode="&#xd2;" horiz-adv-x="1783" d="M86 745q70 360 326 567.5t630 207.5q379 0 551 -205q123 -147 123 -373q0 -92 -20 -197q-72 -365 -326 -569.5t-631 -204.5t-549 205q-124 149 -124 376q0 91 20 193zM512 254q61 -162 252 -162q188 0 315 162q123 156 189 491q33 167 32 292q0 121 -30 200 q-61 162 -252 162t-316 -162q-123 -160 -188 -492q-33 -166 -32 -290q0 -120 30 -201zM793 1899h278l132 -264h-164z" />
<glyph unicode="&#xd3;" horiz-adv-x="1783" d="M86 745q70 360 326 567.5t630 207.5q379 0 551 -205q123 -147 123 -373q0 -92 -20 -197q-72 -365 -326 -569.5t-631 -204.5t-549 205q-124 149 -124 376q0 91 20 193zM512 254q61 -162 252 -162q188 0 315 162q123 156 189 491q33 167 32 292q0 121 -30 200 q-61 162 -252 162t-316 -162q-123 -160 -188 -492q-33 -166 -32 -290q0 -120 30 -201zM916 1635l233 264h279l-348 -264h-164z" />
<glyph unicode="&#xd4;" horiz-adv-x="1783" d="M86 745q70 360 326 567.5t630 207.5q379 0 551 -205q123 -147 123 -373q0 -92 -20 -197q-72 -365 -326 -569.5t-631 -204.5t-549 205q-124 149 -124 376q0 91 20 193zM512 254q61 -162 252 -162q188 0 315 162q123 156 189 491q33 167 32 292q0 121 -30 200 q-61 162 -252 162t-316 -162q-123 -160 -188 -492q-33 -166 -32 -290q0 -120 30 -201zM680 1635l277 264h307l172 -264h-166l-180 161l-246 -161h-164z" />
<glyph unicode="&#xd5;" horiz-adv-x="1783" d="M86 745q70 360 326 567.5t630 207.5q379 0 551 -205q123 -147 123 -373q0 -92 -20 -197q-72 -365 -326 -569.5t-631 -204.5t-549 205q-124 149 -124 376q0 91 20 193zM512 254q61 -162 252 -162q188 0 315 162q123 156 189 491q33 167 32 292q0 121 -30 200 q-61 162 -252 162t-316 -162q-123 -160 -188 -492q-33 -166 -32 -290q0 -120 30 -201zM713 1635l2 12q25 125 90 190q70 66 168 66q61 0 133 -39q9 -3 13 -6l65 -33q25 -12 43 -18q25 -4 35 -4q41 0 70 24q29 23 38 70v4h111l-2 -15q-25 -123 -90.5 -188t-167.5 -65 q-31 0 -66 10q-43 12 -79 35l-52 28q-33 16 -49 21q-25 6 -43 6q-39 0 -69 -27q-29 -25 -39 -67v-4h-111z" />
<glyph unicode="&#xd6;" horiz-adv-x="1783" d="M86 745q70 360 326 567.5t630 207.5q379 0 551 -205q123 -147 123 -373q0 -92 -20 -197q-72 -365 -326 -569.5t-631 -204.5t-549 205q-124 149 -124 376q0 91 20 193zM512 254q61 -162 252 -162q188 0 315 162q123 156 189 491q33 167 32 292q0 121 -30 200 q-61 162 -252 162t-316 -162q-123 -160 -188 -492q-33 -166 -32 -290q0 -120 30 -201zM778.5 1775.5q12.5 59.5 63.5 102.5q55 45 113 45q59 0 94 -45q35 -43 22 -102q-12 -61 -61 -103q-49 -43 -111 -43q-59 0 -96 43t-24.5 102.5zM1225 1776q12 57 66 102q55 45 110 45 q57 0 96 -45q37 -43 25 -102q-12 -57 -66 -103q-51 -43 -110.5 -43t-95.5 43q-37 46 -25 103z" />
<glyph unicode="&#xd7;" d="M264 201l441 440l-441 440l154 156l440 -440l440 440l154 -156l-440 -440l440 -440l-154 -154l-440 440l-440 -440z" />
<glyph unicode="&#xd8;" horiz-adv-x="1783" d="M-76 12l240 201q-72 102 -90.5 235.5t12.5 296.5q70 360 326 567.5t630 207.5q162 0 285 -39q129 -41 215 -115l242 203l74 -90l-238 -199q70 -102 88 -238q18 -133 -12 -297q-72 -365 -326 -569.5t-631 -204.5q-160 0 -282 39q-121 39 -215 117l-244 -205zM483 479 l809 678q-18 119 -87.5 180.5t-186.5 61.5q-190 0 -316 -162q-123 -160 -188 -492q-6 -37 -22 -143q-9 -57 -9 -123zM492 334q20 -121 88 -182q66 -59 184 -60q194 0 319 166q127 168 195 526q14 72 16 115q4 55 -2 94z" />
<glyph unicode="&#xd9;" horiz-adv-x="1785" d="M195 1372l22 121h768l-22 -121h-193l-143 -747q-25 -127 -25 -219q0 -110 35 -170q66 -113 276 -113q209 0 315.5 112.5t162.5 389.5l145 747h-190l22 121h520l-22 -121h-193l-147 -768q-63 -340 -244 -487q-176 -145 -524 -145.5t-469 147.5q-77 95 -78 269q0 97 25 218 l149 766h-190zM842 1899h278l132 -264h-164z" />
<glyph unicode="&#xda;" horiz-adv-x="1785" d="M195 1372l22 121h768l-22 -121h-193l-143 -747q-25 -127 -25 -219q0 -110 35 -170q66 -113 276 -113q209 0 315.5 112.5t162.5 389.5l145 747h-190l22 121h520l-22 -121h-193l-147 -768q-63 -340 -244 -487q-176 -145 -524 -145.5t-469 147.5q-77 95 -78 269q0 97 25 218 l149 766h-190zM965 1635l233 264h279l-348 -264h-164z" />
<glyph unicode="&#xdb;" horiz-adv-x="1785" d="M195 1372l22 121h768l-22 -121h-193l-143 -747q-25 -127 -25 -219q0 -110 35 -170q66 -113 276 -113q209 0 315.5 112.5t162.5 389.5l145 747h-190l22 121h520l-22 -121h-193l-147 -768q-63 -340 -244 -487q-176 -145 -524 -145.5t-469 147.5q-77 95 -78 269q0 97 25 218 l149 766h-190zM729 1635l277 264h307l172 -264h-166l-180 161l-246 -161h-164z" />
<glyph unicode="&#xdc;" horiz-adv-x="1785" d="M195 1372l22 121h768l-22 -121h-193l-143 -747q-25 -127 -25 -219q0 -110 35 -170q66 -113 276 -113q209 0 315.5 112.5t162.5 389.5l145 747h-190l22 121h520l-22 -121h-193l-147 -768q-63 -340 -244 -487q-176 -145 -524 -145.5t-469 147.5q-77 95 -78 269q0 97 25 218 l149 766h-190zM827.5 1775.5q12.5 59.5 63.5 102.5q55 45 113 45q59 0 94 -45q35 -43 22 -102q-12 -61 -61 -103q-49 -43 -111 -43q-59 0 -96 43t-24.5 102.5zM1274 1776q12 57 66 102q55 45 110 45q57 0 96 -45q37 -43 25 -102q-12 -57 -66 -103q-51 -43 -110.5 -43 t-95.5 43q-37 46 -25 103z" />
<glyph unicode="&#xdd;" horiz-adv-x="1460" d="M104 1372l23 121h717l-25 -121h-166l226 -569l444 569h-147l22 121h428l-22 -121h-127l-551 -702l-109 -549h203l-25 -121h-788l22 121h201l98 497l-297 754h-127zM754 1635l233 264h279l-348 -264h-164z" />
<glyph unicode="&#xde;" horiz-adv-x="1548" d="M-49 0l22 121h193l244 1251h-193l25 121h815l-25 -121h-237l-33 -170h272q252 0 373 -119q125 -123 86 -317q-41 -201 -209 -317q-174 -121 -420 -121h-272l-41 -207h240l-23 -121h-817zM614 449h111q131 0 225 86t123 231t-33 229q-61 86 -190 86h-113z" />
<glyph unicode="&#xdf;" horiz-adv-x="1554" d="M-156 -389q12 68 23 113q82 0 127 57q47 59 72 186l231 1180q41 201 199 305q160 104 428 104q260 0 376.5 -106.5t98.5 -333.5h-23q-156 0 -244 -45t-106 -135q-8 -37 8 -74q18 -37 88 -94l76 -63q154 -129 186 -207q33 -80 13 -187q-31 -162 -172 -250 q-143 -90 -367 -90q-84 0 -164 15q-90 16 -180 45l51 258h121q-8 -106 31 -156q40 -49 135 -49q76 0 131 43q53 41 70 117q23 106 -121 223l-4 3q-4 3 -11.5 8t-13.5 11l-76 64q-86 74 -116 154q-31 78 -11 182q25 131 123 217q92 80 262 115q18 125 -20 174q-41 49 -152 49 q-104 0 -168 -60q-63 -61 -88 -194l-235 -1219q-39 -207 -166 -270q-189 -90 -412 -90z" />
<glyph unicode="&#xe0;" horiz-adv-x="1325" d="M72 449q43 221 233 415q227 227 533 228q301 0 344 -62l-176 -909l133 2l-25 -123h-442l24 135q-111 -164 -305 -164t-278 127q-56 84 -56 209q0 65 15 142zM397 199q25 -72 121 -72q92 0 152 84q57 82 94 268l78 398q-2 59 -62 59q-133 0 -264 -160q-57 -70 -108 -321 q-21 -104 -21 -175q-1 -51 10 -81zM350 1638h281l182 -376h-164z" />
<glyph unicode="&#xe1;" horiz-adv-x="1325" d="M72 449q43 221 233 415q227 227 533 228q301 0 344 -62l-176 -909l133 2l-25 -123h-442l24 135q-111 -164 -305 -164t-278 127q-56 84 -56 209q0 65 15 142zM397 199q25 -72 121 -72q92 0 152 84q57 82 94 268l78 398q-2 59 -62 59q-133 0 -264 -160q-57 -70 -108 -321 q-21 -104 -21 -175q-1 -51 10 -81zM553 1262l332 376h278l-446 -376h-164z" />
<glyph unicode="&#xe2;" horiz-adv-x="1325" d="M72 449q43 221 233 415q227 227 533 228q301 0 344 -62l-176 -909l133 2l-25 -123h-442l24 135q-111 -164 -305 -164t-278 127q-56 84 -56 209q0 65 15 142zM397 199q25 -72 121 -72q92 0 152 84q57 82 94 268l78 398q-2 59 -62 59q-133 0 -264 -160q-57 -70 -108 -321 q-21 -104 -21 -175q-1 -51 10 -81zM303 1262l332 376h241l183 -376h-164l-170 225l-256 -225h-166z" />
<glyph unicode="&#xe3;" horiz-adv-x="1325" d="M72 449q43 221 233 415q227 227 533 228q301 0 344 -62l-176 -909l133 2l-25 -123h-442l24 135q-111 -164 -305 -164t-278 127q-56 84 -56 209q0 65 15 142zM397 199q25 -72 121 -72q92 0 152 84q57 82 94 268l78 398q-2 59 -62 59q-133 0 -264 -160q-57 -70 -108 -321 q-21 -104 -21 -175q-1 -51 10 -81zM362 1309l2 16q27 145 97 221q68 76 170 76q35 0 69 -12t74 -43l62 -47l2 -2q41 -29 75 -29q41 0 72 35q31 33 43 96h111l-4 -16q-27 -141 -97 -222q-70 -76 -170 -75q-31 0 -69 14q-35 12 -72 41l-64 47h-2q-41 31 -73 31q-43 0 -74 -35 q-29 -31 -41 -96h-111z" />
<glyph unicode="&#xe4;" horiz-adv-x="1325" d="M72 449q43 221 233 415q227 227 533 228q301 0 344 -62l-176 -909l133 2l-25 -123h-442l24 135q-111 -164 -305 -164t-278 127q-56 84 -56 209q0 65 15 142zM397 199q25 -72 121 -72q92 0 152 84q57 82 94 268l78 398q-2 59 -62 59q-133 0 -264 -160q-57 -70 -108 -321 q-21 -104 -21 -175q-1 -51 10 -81zM424 1468q12 59 63.5 102.5t112.5 43.5t94 -43q35 -43 23 -103q-12 -61 -64 -104t-110 -43q-57 0 -97 45q-34 45 -22 102zM870 1468q12 59 63.5 102.5t111 43.5t96.5 -43t24 -103q-12 -61 -63 -102q-55 -45 -113 -45q-59 0 -94 45 q-37 47 -25 102z" />
<glyph unicode="&#xe5;" horiz-adv-x="1325" d="M72 449q43 221 233 415q227 227 533 228q301 0 344 -62l-176 -909l133 2l-25 -123h-442l24 135q-111 -164 -305 -164t-278 127q-56 84 -56 209q0 65 15 142zM397 199q25 -72 121 -72q92 0 152 84q57 82 94 268l78 398q-2 59 -62 59q-133 0 -264 -160q-57 -70 -108 -321 q-21 -104 -21 -175q-1 -51 10 -81zM475 1534q23 121 123 203q96 82 217 82q119 0 186 -82q66 -80 43 -203q-23 -121 -122 -203q-96 -82 -218 -82q-119 0 -186 82q-66 80 -43 203zM629 1534q-12 -53 20.5 -92t85.5 -39q55 0 101 39q46 37 55 92q10 55 -21 92q-31 39 -86 39 q-53 0 -98 -39q-49 -39 -57 -92z" />
<glyph unicode="&#xe6;" horiz-adv-x="1906" d="M55 309q0 303 240 543t543 240q215 0 299 -31q104 31 227 31q193 0 324 -74q133 -74 133 -209q0 -31 -6 -57q-66 -326 -754 -353q-8 -45 -8 -65q0 -250 207 -250q114 0 196 61t125 177h168q-76 -178 -223 -267q-141 -84 -381 -84q-233 0 -357 111q-147 -111 -397 -111 q-193 0 -278 127q-58 84 -58 211zM387 289q0 -59 10 -90q25 -72 119 -72t154 84q57 82 94 268l78 398q-2 59 -62 59q-133 0 -264 -160q-59 -72 -94 -250q-35 -180 -35 -237zM1083 518q332 0 375 244q6 37 6 69q0 147 -123 148q-96 0 -147 -84q-55 -92 -100 -313z" />
<glyph unicode="&#xe7;" horiz-adv-x="1245" d="M70 387q0 74 14 145q53 266 233 412q184 147 457 148q119 0 221 -21q117 -23 217 -63l-57 -295h-113q2 14 2 45q0 102 -40 155q-49 66 -164 66q-150 0 -232 -100q-80 -96 -129 -347q-25 -129 -24 -219q0 -76 18 -125q40 -104 178 -104q109 0 185 63q78 66 114 185h166 q-74 -181 -209 -271q-137 -90 -336 -90q-285 0 -411 148q-90 102 -90 268zM264 -375l29 156q37 -16 84 -27q35 -8 76 -8q61 0 96 23q33 23 43 69q6 31 -2 62q-6 20 -49 100h127q53 -70 69 -119q18 -53 9 -106q-14 -84 -90 -131q-72 -45 -195 -45q-49 0 -98 6q-33 4 -99 20z " />
<glyph unicode="&#xe8;" horiz-adv-x="1302" d="M68 379q0 63 16 149q53 270 231 416q180 147 445 148q190 0 323 -74q131 -74 131 -209q0 -31 -6 -57q-66 -326 -753 -353q-6 -34 -6 -104q0 -211 204 -211q117 0 199 61.5t125 176.5h166q-76 -178 -223 -267q-141 -84 -373 -84q-274 0 -395 146q-84 102 -84 262zM477 518 h23q307 0 354 244q6 37 6 69q0 147 -125 148q-94 0 -149.5 -90t-108.5 -371zM401 1638h281l182 -376h-164z" />
<glyph unicode="&#xe9;" horiz-adv-x="1302" d="M68 379q0 63 16 149q53 270 231 416q180 147 445 148q190 0 323 -74q131 -74 131 -209q0 -31 -6 -57q-66 -326 -753 -353q-6 -34 -6 -104q0 -211 204 -211q117 0 199 61.5t125 176.5h166q-76 -178 -223 -267q-141 -84 -373 -84q-274 0 -395 146q-84 102 -84 262zM477 518 h23q307 0 354 244q6 37 6 69q0 147 -125 148q-94 0 -149.5 -90t-108.5 -371zM604 1262l332 376h278l-446 -376h-164z" />
<glyph unicode="&#xea;" horiz-adv-x="1302" d="M68 379q0 63 16 149q53 270 231 416q180 147 445 148q190 0 323 -74q131 -74 131 -209q0 -31 -6 -57q-66 -326 -753 -353q-6 -34 -6 -104q0 -211 204 -211q117 0 199 61.5t125 176.5h166q-76 -178 -223 -267q-141 -84 -373 -84q-274 0 -395 146q-84 102 -84 262zM477 518 h23q307 0 354 244q6 37 6 69q0 147 -125 148q-94 0 -149.5 -90t-108.5 -371zM354 1262l332 376h241l183 -376h-164l-170 225l-256 -225h-166z" />
<glyph unicode="&#xeb;" horiz-adv-x="1302" d="M68 379q0 63 16 149q53 270 231 416q180 147 445 148q190 0 323 -74q131 -74 131 -209q0 -31 -6 -57q-66 -326 -753 -353q-6 -34 -6 -104q0 -211 204 -211q117 0 199 61.5t125 176.5h166q-76 -178 -223 -267q-141 -84 -373 -84q-274 0 -395 146q-84 102 -84 262zM477 518 h23q307 0 354 244q6 37 6 69q0 147 -125 148q-94 0 -149.5 -90t-108.5 -371zM475 1468q12 59 63.5 102.5t112.5 43.5t94 -43q35 -43 23 -103q-12 -61 -64 -104t-110 -43q-57 0 -97 45q-34 45 -22 102zM921 1468q12 59 63.5 102.5t111 43.5t96.5 -43t24 -103 q-12 -61 -63 -102q-55 -45 -113 -45q-59 0 -94 45q-37 47 -25 102z" />
<glyph unicode="&#xec;" horiz-adv-x="776" d="M119 0l182 942h-151l22 121h506l-182 -942h151l-22 -121h-506zM139 1638h281l182 -376h-164z" />
<glyph unicode="&#xed;" horiz-adv-x="776" d="M119 0l182 942h-151l22 121h506l-182 -942h151l-22 -121h-506zM342 1262l332 376h278l-446 -376h-164z" />
<glyph unicode="&#xee;" horiz-adv-x="776" d="M119 0l182 942h-151l22 121h506l-182 -942h151l-22 -121h-506zM92 1262l332 376h241l183 -376h-164l-170 225l-256 -225h-166z" />
<glyph unicode="&#xef;" horiz-adv-x="776" d="M119 0l182 942h-151l22 121h506l-182 -942h151l-22 -121h-506zM213 1468q12 59 63.5 102.5t112.5 43.5t94 -43q35 -43 23 -103q-12 -61 -64 -104t-110 -43q-57 0 -97 45q-34 45 -22 102zM659 1468q12 59 63.5 102.5t111 43.5t96.5 -43t24 -103q-12 -61 -63 -102 q-55 -45 -113 -45q-59 0 -94 45q-37 47 -25 102z" />
<glyph unicode="&#xf0;" horiz-adv-x="1363" d="M33 508q47 233 233 381q193 152 434 151q41 0 84 -6q41 -6 82 -18q-8 63 -30.5 118.5t-57.5 106.5l-348 -149l-31 100l306 131q-51 41 -117 70q-78 35 -164 53l47 110q147 -20 248 -53q111 -37 190 -92l361 154l26 -103l-290 -125q162 -152 221 -350.5t16 -429.5 q-51 -274 -242 -430q-188 -156 -473 -156q-274 0 -407 146q-135 147 -88 391zM412 178q27 -94 139.5 -94t175.5 94q61 92 109 330q20 100 26 203q6 94 0 180q-49 20 -80 29q-33 8 -67 8q-111 0 -176.5 -96.5t-110.5 -323.5q-45 -230 -16 -330z" />
<glyph unicode="&#xf1;" horiz-adv-x="1488" d="M115 0l184 942h-152l23 121h506l-31 -150q80 92 174 138q84 41 215 41q180 0 250 -107q45 -66 45 -174q0 -66 -14 -135l-109 -555h154l-25 -121h-506l134 686q14 66 14 119q0 45 -12 69q-25 51 -109 52q-109 0 -172 -78q-66 -80 -98 -250l-117 -598h-354zM489 1309l2 16 q27 145 97 221q68 76 170 76q35 0 69 -12t74 -43l62 -47l2 -2q41 -29 75 -29q41 0 72 35q31 33 43 96h111l-4 -16q-27 -141 -97 -222q-70 -76 -170 -75q-31 0 -69 14q-35 12 -72 41l-64 47h-2q-41 31 -73 31q-43 0 -74 -35q-29 -31 -41 -96h-111z" />
<glyph unicode="&#xf2;" horiz-adv-x="1363" d="M70 393q0 70 14 139q52 264 240 412q188 147 469 148q283 0 411 -148q94 -106 94 -272q0 -70 -14 -140q-52 -261 -240 -411q-186 -150 -468.5 -150t-411.5 150q-94 106 -94 272zM446 270q0 -53 11 -90q27 -96 141 -96q109 0 174.5 96t114.5 352q33 162 33 267 q0 49 -11 86q-25 94 -139 94q-111 0 -176 -96q-66 -98 -115 -351q-33 -174 -33 -262zM434 1638h281l182 -376h-164z" />
<glyph unicode="&#xf3;" horiz-adv-x="1363" d="M70 393q0 70 14 139q52 264 240 412q188 147 469 148q283 0 411 -148q94 -106 94 -272q0 -70 -14 -140q-52 -261 -240 -411q-186 -150 -468.5 -150t-411.5 150q-94 106 -94 272zM446 270q0 -53 11 -90q27 -96 141 -96q109 0 174.5 96t114.5 352q33 162 33 267 q0 49 -11 86q-25 94 -139 94q-111 0 -176 -96q-66 -98 -115 -351q-33 -174 -33 -262zM637 1262l332 376h278l-446 -376h-164z" />
<glyph unicode="&#xf4;" horiz-adv-x="1363" d="M70 393q0 70 14 139q52 264 240 412q188 147 469 148q283 0 411 -148q94 -106 94 -272q0 -70 -14 -140q-52 -261 -240 -411q-186 -150 -468.5 -150t-411.5 150q-94 106 -94 272zM446 270q0 -53 11 -90q27 -96 141 -96q109 0 174.5 96t114.5 352q33 162 33 267 q0 49 -11 86q-25 94 -139 94q-111 0 -176 -96q-66 -98 -115 -351q-33 -174 -33 -262zM387 1262l332 376h241l183 -376h-164l-170 225l-256 -225h-166z" />
<glyph unicode="&#xf5;" horiz-adv-x="1363" d="M70 393q0 70 14 139q52 264 240 412q188 147 469 148q283 0 411 -148q94 -106 94 -272q0 -70 -14 -140q-52 -261 -240 -411q-186 -150 -468.5 -150t-411.5 150q-94 106 -94 272zM446 270q0 -53 11 -90q27 -96 141 -96q109 0 174.5 96t114.5 352q33 162 33 267 q0 49 -11 86q-25 94 -139 94q-111 0 -176 -96q-66 -98 -115 -351q-33 -174 -33 -262zM446 1309l2 16q27 145 97 221q68 76 170 76q35 0 69 -12t74 -43l62 -47l2 -2q41 -29 75 -29q41 0 72 35q31 33 43 96h111l-4 -16q-27 -141 -97 -222q-70 -76 -170 -75q-31 0 -69 14 q-35 12 -72 41l-64 47h-2q-41 31 -73 31q-43 0 -74 -35q-29 -31 -41 -96h-111z" />
<glyph unicode="&#xf6;" horiz-adv-x="1363" d="M70 393q0 70 14 139q52 264 240 412q188 147 469 148q283 0 411 -148q94 -106 94 -272q0 -70 -14 -140q-52 -261 -240 -411q-186 -150 -468.5 -150t-411.5 150q-94 106 -94 272zM446 270q0 -53 11 -90q27 -96 141 -96q109 0 174.5 96t114.5 352q33 162 33 267 q0 49 -11 86q-25 94 -139 94q-111 0 -176 -96q-66 -98 -115 -351q-33 -174 -33 -262zM508 1468q12 59 63.5 102.5t112.5 43.5t94 -43q35 -43 23 -103q-12 -61 -64 -104t-110 -43q-57 0 -97 45q-34 45 -22 102zM954 1468q12 59 63.5 102.5t111 43.5t96.5 -43t24 -103 q-12 -61 -63 -102q-55 -45 -113 -45q-59 0 -94 45q-37 47 -25 102z" />
<glyph unicode="&#xf7;" d="M217 528v228h1282v-228h-1282zM709 272q0 61 45 107q43 43 104 43q63 0 106.5 -43t43.5 -107q0 -61 -43 -104q-45 -45 -107 -45q-59 0 -104 45t-45 104zM709 1012q0 59 45 104t104 45q61 0 107 -45q43 -43 43 -104q0 -63 -43 -106.5t-107 -43.5q-61 0 -104 43 q-45 46 -45 107z" />
<glyph unicode="&#xf8;" horiz-adv-x="1363" d="M-55 -16l196 163q-49 70 -65 172q-14 90 8 213q52 264 240 412q188 147 469 148q117 0 207 -25t151 -74l201 168l69 -86l-194 -162q49 -66 65 -168q14 -90 -8 -213q-49 -261 -240 -411q-188 -150 -469 -150q-109 0 -198 25t-160 74l-205 -172zM449 262q-2 -88 34 -133 q39 -45 115 -45q109 0 172 94q66 96 111 330l26 141zM459 416l463 385q0 92 -37 135t-115 43q-109 0 -174 -96q-63 -94 -111 -330z" />
<glyph unicode="&#xf9;" horiz-adv-x="1488" d="M129 942l25 121h505l-120 -621q-25 -127 -25 -192q0 -41 8 -60q23 -53 111 -53q109 0 172 78q65 80 98 252l117 596h354l-182 -942h149l-22 -121h-506l29 150q-82 -94 -172 -138q-84 -41 -215 -41q-180 0 -250 105q-45 66 -45 176q0 66 14 135l109 555h-154zM457 1638 h281l182 -376h-164z" />
<glyph unicode="&#xfa;" horiz-adv-x="1488" d="M129 942l25 121h505l-120 -621q-25 -127 -25 -192q0 -41 8 -60q23 -53 111 -53q109 0 172 78q65 80 98 252l117 596h354l-182 -942h149l-22 -121h-506l29 150q-82 -94 -172 -138q-84 -41 -215 -41q-180 0 -250 105q-45 66 -45 176q0 66 14 135l109 555h-154zM660 1262 l332 376h278l-446 -376h-164z" />
<glyph unicode="&#xfb;" horiz-adv-x="1488" d="M129 942l25 121h505l-120 -621q-25 -127 -25 -192q0 -41 8 -60q23 -53 111 -53q109 0 172 78q65 80 98 252l117 596h354l-182 -942h149l-22 -121h-506l29 150q-82 -94 -172 -138q-84 -41 -215 -41q-180 0 -250 105q-45 66 -45 176q0 66 14 135l109 555h-154zM410 1262 l332 376h241l183 -376h-164l-170 225l-256 -225h-166z" />
<glyph unicode="&#xfc;" horiz-adv-x="1488" d="M129 942l25 121h505l-120 -621q-25 -127 -25 -192q0 -41 8 -60q23 -53 111 -53q109 0 172 78q65 80 98 252l117 596h354l-182 -942h149l-22 -121h-506l29 150q-82 -94 -172 -138q-84 -41 -215 -41q-180 0 -250 105q-45 66 -45 176q0 66 14 135l109 555h-154zM531 1468 q12 59 63.5 102.5t112.5 43.5t94 -43q35 -43 23 -103q-12 -61 -64 -104t-110 -43q-57 0 -97 45q-34 45 -22 102zM977 1468q12 59 63.5 102.5t111 43.5t96.5 -43t24 -103q-12 -61 -63 -102q-55 -45 -113 -45q-59 0 -94 45q-37 47 -25 102z" />
<glyph unicode="&#xfd;" horiz-adv-x="1189" d="M-39 -412l43 222h113q-4 -33 -4 -46q0 -68 47 -90q25 -10 63 -16q16 -2 49 -2q109 0 224 72l-283 1214h-117l25 121h434l238 -1028q117 172 192 354q76 186 154 551h-144l25 123h287q-23 -115 -62 -293q-88 -403 -201 -594q-291 -489 -528 -579q-129 -51 -323 -52 q-95 0 -232 43zM549 1262l332 376h278l-446 -376h-164z" />
<glyph unicode="&#xfe;" horiz-adv-x="1431" d="M6 -426l363 1862h-154l25 120h505l-120 -628q61 84 143 123q86 41 197 41q227 0 327 -150q68 -98 68 -248q0 -70 -17 -162q-53 -262 -210.5 -411.5t-384.5 -149.5q-111 0 -181 41q-72 43 -98 123l-109 -561h-354zM516 309q0 -61 14 -98q31 -84 139.5 -84t170 88 t106.5 317q27 135 27 230q0 49 -10 86q-27 88 -138 88q-104 0 -167.5 -82t-100.5 -270l-20 -105q-21 -113 -21 -170z" />
<glyph unicode="&#xff;" horiz-adv-x="1189" d="M-39 -412l43 222h113q-4 -33 -4 -46q0 -68 47 -90q25 -10 63 -16q16 -2 49 -2q109 0 224 72l-283 1214h-117l25 121h434l238 -1028q117 172 192 354q76 186 154 551h-144l25 123h287q-23 -115 -62 -293q-88 -403 -201 -594q-291 -489 -528 -579q-129 -51 -323 -52 q-95 0 -232 43zM420 1468q12 59 63.5 102.5t112.5 43.5t94 -43q35 -43 23 -103q-12 -61 -64 -104t-110 -43q-57 0 -97 45q-34 45 -22 102zM866 1468q12 59 63.5 102.5t111 43.5t96.5 -43t24 -103q-12 -61 -63 -102q-55 -45 -113 -45q-59 0 -94 45q-37 47 -25 102z" />
<glyph unicode="&#x100;" horiz-adv-x="1587" d="M657 1684l35 188h631l-37 -188h-629zM-162 0l25 121h121l829 1372h240l295 -1372h143l-25 -121h-698l23 121h147l-64 305h-561l-186 -305h178l-22 -121h-445zM385 547h463l-119 571z" />
<glyph unicode="&#x101;" horiz-adv-x="1325" d="M389 1374l35 188h631l-37 -188h-629zM72 449q43 221 233 415q227 227 533 228q301 0 344 -62l-176 -909l133 2l-25 -123h-442l24 135q-111 -164 -305 -164t-278 127q-56 84 -56 209q0 65 15 142zM397 199q25 -72 121 -72q92 0 152 84q57 82 94 268l78 398q-2 59 -62 59 q-133 0 -264 -160q-57 -70 -108 -321q-21 -104 -21 -175q-1 -51 10 -81z" />
<glyph unicode="&#x102;" horiz-adv-x="1587" d="M655 1917h125q-8 -74 39 -112.5t150 -38.5q98 0 161 39q61 39 84 112h125q-27 -145 -135 -229q-106 -82 -266 -82q-162 0 -238 82q-74 77 -45 229zM-162 0l25 121h121l829 1372h240l295 -1372h143l-25 -121h-698l23 121h147l-64 305h-561l-186 -305h178l-22 -121h-445z M385 547h463l-119 571z" />
<glyph unicode="&#x103;" horiz-adv-x="1325" d="M467 1589h125q-8 -74 39 -112.5t150 -38.5q98 0 161 39q61 39 84 112h125q-27 -145 -135 -229q-106 -82 -266 -82q-162 0 -238 82q-74 77 -45 229zM72 449q43 221 233 415q227 227 533 228q301 0 344 -62l-176 -909l133 2l-25 -123h-442l24 135q-111 -164 -305 -164 t-278 127q-56 84 -56 209q0 65 15 142zM397 199q25 -72 121 -72q92 0 152 84q57 82 94 268l78 398q-2 59 -62 59q-133 0 -264 -160q-57 -70 -108 -321q-21 -104 -21 -175q-1 -51 10 -81z" />
<glyph unicode="&#x104;" horiz-adv-x="1587" d="M602 -225q8 49 54 106q43 55 118 119h125q-53 -55 -88 -102q-27 -35 -33 -66q-10 -41 16.5 -63.5t76.5 -22.5q43 0 82 8q53 12 81 23l-30 -156q-31 -6 -107 -16q-49 -6 -90 -6q-113 0 -166 47t-39 129zM-162 0l25 121h121l829 1372h240l295 -1372h143l-25 -121h-698 l23 121h147l-64 305h-561l-186 -305h178l-22 -121h-445zM385 547h463l-119 571z" />
<glyph unicode="&#x105;" horiz-adv-x="1325" d="M499 -225q8 49 54 106q43 55 118 119h125q-53 -55 -88 -102q-27 -35 -33 -66q-10 -41 16.5 -63.5t76.5 -22.5q43 0 82 8q53 12 81 23l-30 -156q-31 -6 -107 -16q-49 -6 -90 -6q-113 0 -166 47t-39 129zM72 449q43 221 233 415q227 227 533 228q301 0 344 -62l-176 -909 l133 2l-25 -123h-442l24 135q-111 -164 -305 -164t-278 127q-56 84 -56 209q0 65 15 142zM397 199q25 -72 121 -72q92 0 152 84q57 82 94 268l78 398q-2 59 -62 59q-133 0 -264 -160q-57 -70 -108 -321q-21 -104 -21 -175q-1 -51 10 -81z" />
<glyph unicode="&#x106;" horiz-adv-x="1628" d="M86 745q68 354 330 566q261 209 639 209q132 0 270 -31q123 -27 285 -98l-72 -367h-127q-4 193 -86 281q-88 94 -254 94q-215 0 -354 -160q-137 -160 -203 -494q-30 -152 -30 -270q0 -137 40 -223q74 -160 295 -160q152 0 260.5 82t186.5 252h198q-106 -233 -278 -342 q-178 -113 -434 -113q-379 0 -557 209q-128 150 -128 377q0 88 19 188zM912 1635l233 264h279l-348 -264h-164z" />
<glyph unicode="&#x107;" horiz-adv-x="1245" d="M70 387q0 74 14 145q53 266 233 412q184 147 457 148q119 0 221 -21q117 -23 217 -63l-57 -295h-113q2 14 2 45q0 102 -40 155q-49 66 -164 66q-150 0 -232 -100q-80 -96 -129 -347q-25 -129 -24 -219q0 -76 18 -125q40 -104 178 -104q109 0 185 63q78 66 114 185h166 q-74 -181 -209 -271q-137 -90 -336 -90q-285 0 -411 148q-90 102 -90 268zM617 1262l332 376h278l-446 -376h-164z" />
<glyph unicode="&#x108;" horiz-adv-x="1628" d="M676 1635l277 264h307l172 -264h-166l-180 161l-246 -161h-164zM86 745q68 354 330 566q261 209 639 209q132 0 270 -31q123 -27 285 -98l-72 -367h-127q-4 193 -86 281q-88 94 -254 94q-215 0 -354 -160q-137 -160 -203 -494q-30 -152 -30 -270q0 -137 40 -223 q74 -160 295 -160q152 0 260.5 82t186.5 252h198q-106 -233 -278 -342q-178 -113 -434 -113q-379 0 -557 209q-128 150 -128 377q0 88 19 188z" />
<glyph unicode="&#x109;" horiz-adv-x="1245" d="M367 1262l332 376h241l183 -376h-164l-170 225l-256 -225h-166zM70 387q0 74 14 145q53 266 233 412q184 147 457 148q119 0 221 -21q117 -23 217 -63l-57 -295h-113q2 14 2 45q0 102 -40 155q-49 66 -164 66q-150 0 -232 -100q-80 -96 -129 -347q-25 -129 -24 -219 q0 -76 18 -125q40 -104 178 -104q109 0 185 63q78 66 114 185h166q-74 -181 -209 -271q-137 -90 -336 -90q-285 0 -411 148q-90 102 -90 268z" />
<glyph unicode="&#x10a;" horiz-adv-x="1628" d="M955 1775.5q12 59.5 63 102.5q55 45 111 45q57 0 96 -45q35 -43 22.5 -102.5t-63.5 -102.5q-53 -43 -110 -43q-59 0 -97 43q-34 43 -22 102.5zM86 745q68 354 330 566q261 209 639 209q132 0 270 -31q123 -27 285 -98l-72 -367h-127q-4 193 -86 281q-88 94 -254 94 q-215 0 -354 -160q-137 -160 -203 -494q-30 -152 -30 -270q0 -137 40 -223q74 -160 295 -160q152 0 260.5 82t186.5 252h198q-106 -233 -278 -342q-178 -113 -434 -113q-379 0 -557 209q-128 150 -128 377q0 88 19 188z" />
<glyph unicode="&#x10b;" horiz-adv-x="1245" d="M672 1468q12 57 66 103q53 43 110 43q59 0 97 -43q35 -43 22 -103q-12 -61 -63 -102q-55 -45 -113 -45q-59 0 -94 45q-37 47 -25 102zM70 387q0 74 14 145q53 266 233 412q184 147 457 148q119 0 221 -21q117 -23 217 -63l-57 -295h-113q2 14 2 45q0 102 -40 155 q-49 66 -164 66q-150 0 -232 -100q-80 -96 -129 -347q-25 -129 -24 -219q0 -76 18 -125q40 -104 178 -104q109 0 185 63q78 66 114 185h166q-74 -181 -209 -271q-137 -90 -336 -90q-285 0 -411 148q-90 102 -90 268z" />
<glyph unicode="&#x10c;" horiz-adv-x="1628" d="M86 745q68 354 330 566q261 209 639 209q132 0 270 -31q123 -27 285 -98l-72 -367h-127q-4 193 -86 281q-88 94 -254 94q-215 0 -354 -160q-137 -160 -203 -494q-30 -152 -30 -270q0 -137 40 -223q74 -160 295 -160q152 0 260.5 82t186.5 252h198q-106 -233 -278 -342 q-178 -113 -434 -113q-379 0 -557 209q-128 150 -128 377q0 88 19 188zM758 1899h164l182 -162l244 162h166l-277 -264h-307z" />
<glyph unicode="&#x10d;" horiz-adv-x="1245" d="M70 387q0 74 14 145q53 266 233 412q184 147 457 148q119 0 221 -21q117 -23 217 -63l-57 -295h-113q2 14 2 45q0 102 -40 155q-49 66 -164 66q-150 0 -232 -100q-80 -96 -129 -347q-25 -129 -24 -219q0 -76 18 -125q40 -104 178 -104q109 0 185 63q78 66 114 185h166 q-74 -181 -209 -271q-137 -90 -336 -90q-285 0 -411 148q-90 102 -90 268zM461 1638h164l168 -227l258 227h166l-332 -376h-241z" />
<glyph unicode="&#x10e;" horiz-adv-x="1775" d="M-49 0l22 121h193l244 1251h-193l25 121h766q401 0 577 -193q125 -136 125 -358q0 -90 -20 -194q-70 -362 -322 -555q-250 -193 -651 -193h-766zM551 121h137q236 0 373 149q135 147 201 478q29 148 29 258q0 135 -44 217q-80 150 -313 149h-139zM733 1899h164l182 -162 l244 162h166l-277 -264h-307z" />
<glyph unicode="&#x10f;" horiz-adv-x="1431" d="M23 369q0 84 16 163q53 262 209 410q158 150 385 150q111 0 180 -41q72 -43 98 -123l99 508h-152l23 120h505l-301 -1556h-354l27 135q-63 -84 -146 -123q-88 -41 -196 -41q-227 0 -328 150q-65 98 -65 248zM408 303q0 -51 10 -88q27 -88 137 -88q102 0 168 84 q63 82 100 268l21 105q18 98 18 170q0 63 -14 100q-31 82 -135 82q-109 0 -172 -88q-59 -84 -107 -316q-26 -135 -26 -229zM1478 1178l144 376h278l-258 -376h-164z" />
<glyph unicode="&#x110;" horiz-adv-x="1789" d="M-37 0l25 121h190l117 592h-213l27 137h213l102 522h-193l23 121h768q399 0 575 -193q175 -190 105 -552q-70 -360 -320 -555q-248 -193 -651 -193h-768zM563 121h139q233 0 371 149q135 147 201 478q66 326 -14 475t-314 149h-137l-102 -522h331l-26 -137h-332z" />
<glyph unicode="&#x111;" horiz-adv-x="1431" d="M23 369q0 84 16 163q53 262 209 410q158 150 385 150q111 0 180 -41q72 -43 98 -123l58 295h-326l25 120h323l19 93h-152l23 120h505l-40 -213h172l-25 -120h-170l-238 -1223h-354l27 135q-63 -84 -146 -123q-88 -41 -196 -41q-227 0 -328 150q-65 98 -65 248zM408 303 q0 -51 10 -88q27 -88 137 -88q102 0 168 84q63 82 100 268l21 105q18 98 18 170q0 63 -14 100q-31 82 -135 82q-109 0 -172 -88q-59 -84 -107 -316q-26 -135 -26 -229z" />
<glyph unicode="&#x112;" horiz-adv-x="1560" d="M636 1684l35 188h631l-37 -188h-629zM-49 0l22 121h193l244 1251h-193l25 121h1341l-67 -352h-140l41 215h-626l-95 -479h391l37 190h138l-101 -516h-137l39 190h-391l-117 -604h645l41 215h137l-67 -352h-1360z" />
<glyph unicode="&#x113;" horiz-adv-x="1302" d="M464 1374l35 188h631l-37 -188h-629zM68 379q0 63 16 149q53 270 231 416q180 147 445 148q190 0 323 -74q131 -74 131 -209q0 -31 -6 -57q-66 -326 -753 -353q-6 -34 -6 -104q0 -211 204 -211q117 0 199 61.5t125 176.5h166q-76 -178 -223 -267q-141 -84 -373 -84 q-274 0 -395 146q-84 102 -84 262zM477 518h23q307 0 354 244q6 37 6 69q0 147 -125 148q-94 0 -149.5 -90t-108.5 -371z" />
<glyph unicode="&#x114;" horiz-adv-x="1560" d="M713 1899h123q12 -57 61 -84q51 -29 133 -29q84 0 148 29q63 31 92 84h123q-55 -133 -152 -199q-100 -66 -239 -65q-143 0 -215 65.5t-74 198.5zM-49 0l22 121h193l244 1251h-193l25 121h1341l-67 -352h-140l41 215h-626l-95 -479h391l37 190h138l-101 -516h-137l39 190 h-391l-117 -604h645l41 215h137l-67 -352h-1360z" />
<glyph unicode="&#x115;" horiz-adv-x="1302" d="M487 1589h125q-8 -74 39 -112.5t150 -38.5q98 0 161 39q61 39 84 112h125q-27 -145 -135 -229q-106 -82 -266 -82q-162 0 -238 82q-74 77 -45 229zM68 379q0 63 16 149q53 270 231 416q180 147 445 148q190 0 323 -74q131 -74 131 -209q0 -31 -6 -57q-66 -326 -753 -353 q-6 -34 -6 -104q0 -211 204 -211q117 0 199 61.5t125 176.5h166q-76 -178 -223 -267q-141 -84 -373 -84q-274 0 -395 146q-84 102 -84 262zM477 518h23q307 0 354 244q6 37 6 69q0 147 -125 148q-94 0 -149.5 -90t-108.5 -371z" />
<glyph unicode="&#x116;" horiz-adv-x="1560" d="M881 1775.5q12 59.5 63 102.5q55 45 111 45q57 0 96 -45q35 -43 22.5 -102.5t-63.5 -102.5q-53 -43 -110 -43q-59 0 -97 43q-34 43 -22 102.5zM-49 0l22 121h193l244 1251h-193l25 121h1341l-67 -352h-140l41 215h-626l-95 -479h391l37 190h138l-101 -516h-137l39 190 h-391l-117 -604h645l41 215h137l-67 -352h-1360z" />
<glyph unicode="&#x117;" horiz-adv-x="1302" d="M659 1468q12 57 66 103q53 43 110 43q59 0 97 -43q35 -43 22 -103q-12 -61 -63 -102q-55 -45 -113 -45q-59 0 -94 45q-37 47 -25 102zM68 379q0 63 16 149q53 270 231 416q180 147 445 148q190 0 323 -74q131 -74 131 -209q0 -31 -6 -57q-66 -326 -753 -353 q-6 -34 -6 -104q0 -211 204 -211q117 0 199 61.5t125 176.5h166q-76 -178 -223 -267q-141 -84 -373 -84q-274 0 -395 146q-84 102 -84 262zM477 518h23q307 0 354 244q6 37 6 69q0 147 -125 148q-94 0 -149.5 -90t-108.5 -371z" />
<glyph unicode="&#x118;" horiz-adv-x="1560" d="M866 -225q8 49 54 106q43 55 118 119h125q-53 -55 -88 -102q-27 -35 -33 -66q-10 -41 16.5 -63.5t76.5 -22.5q43 0 82 8q53 12 81 23l-30 -156q-31 -6 -107 -16q-49 -6 -90 -6q-113 0 -166 47t-39 129zM-49 0l22 121h193l244 1251h-193l25 121h1341l-67 -352h-140l41 215 h-626l-95 -479h391l37 190h138l-101 -516h-137l39 190h-391l-117 -604h645l41 215h137l-67 -352h-1360z" />
<glyph unicode="&#x119;" horiz-adv-x="1302" d="M370 -225q8 49 54 106q43 55 118 119h125q-53 -55 -88 -102q-27 -35 -33 -66q-10 -41 16.5 -63.5t76.5 -22.5q43 0 82 8q53 12 81 23l-30 -156q-31 -6 -107 -16q-49 -6 -90 -6q-113 0 -166 47t-39 129zM68 379q0 63 16 149q53 270 231 416q180 147 445 148q190 0 323 -74 q131 -74 131 -209q0 -31 -6 -57q-66 -326 -753 -353q-6 -34 -6 -104q0 -211 204 -211q117 0 199 61.5t125 176.5h166q-76 -178 -223 -267q-141 -84 -373 -84q-274 0 -395 146q-84 102 -84 262zM477 518h23q307 0 354 244q6 37 6 69q0 147 -125 148q-94 0 -149.5 -90 t-108.5 -371z" />
<glyph unicode="&#x11a;" horiz-adv-x="1560" d="M-49 0l22 121h193l244 1251h-193l25 121h1341l-67 -352h-140l41 215h-626l-95 -479h391l37 190h138l-101 -516h-137l39 190h-391l-117 -604h645l41 215h137l-67 -352h-1360zM680 1905h164l182 -162l244 162h166l-277 -264h-307z" />
<glyph unicode="&#x11b;" horiz-adv-x="1302" d="M68 379q0 63 16 149q53 270 231 416q180 147 445 148q190 0 323 -74q131 -74 131 -209q0 -31 -6 -57q-66 -326 -753 -353q-6 -34 -6 -104q0 -211 204 -211q117 0 199 61.5t125 176.5h166q-76 -178 -223 -267q-141 -84 -373 -84q-274 0 -395 146q-84 102 -84 262zM477 518 h23q307 0 354 244q6 37 6 69q0 147 -125 148q-94 0 -149.5 -90t-108.5 -371zM461 1638h164l168 -227l258 227h166l-332 -376h-241z" />
<glyph unicode="&#x11c;" horiz-adv-x="1748" d="M694 1635l277 264h307l172 -264h-166l-180 161l-246 -161h-164zM86 745q72 362 330 568q262 207 645 207q160 0 307 -31q137 -29 293 -98l-72 -367h-127q-6 199 -94 287t-278 88q-231 0 -371 -158q-141 -160 -205 -496q-31 -159 -31 -277q0 -134 39 -218 q74 -158 293 -158q83 0 160 19q66 16 141 57l80 410h-180l24 120h539l-113 -573q-201 -84 -358 -117q-175 -37 -350 -37q-385 0 -563 207q-128 148 -129 377q0 89 20 190z" />
<glyph unicode="&#x11d;" horiz-adv-x="1431" d="M381 1262l332 376h241l183 -376h-164l-170 225l-256 -225h-166zM45 -389l51 254h113v-17q0 -94 53 -139q59 -51 191 -51q166 0 245.5 78t120.5 278l25 121q-123 -164 -348 -164q-223 0 -326 127q-72 89 -72 226q0 58 13 125q51 268 305 466q229 176 561 177 q268 0 389 -97l-192 -981q-49 -244 -228 -346q-218 -123 -473 -123q-98 0 -213 17q-107 15 -215 49zM502 199q31 -72 139 -72q104 0 170 84q61 78 98 268l78 398q-6 59 -69 59q-181 0 -295 -160q-72 -104 -115 -321q-20 -101 -20 -168q0 -56 14 -88z" />
<glyph unicode="&#x11e;" horiz-adv-x="1748" d="M86 745q72 362 330 568q262 207 645 207q160 0 307 -31q137 -29 293 -98l-72 -367h-127q-6 199 -94 287t-278 88q-231 0 -371 -158q-141 -160 -205 -496q-31 -159 -31 -277q0 -134 39 -218q74 -158 293 -158q83 0 160 19q66 16 141 57l80 410h-180l24 120h539l-113 -573 q-201 -84 -358 -117q-175 -37 -350 -37q-385 0 -563 207q-128 148 -129 377q0 89 20 190zM770 1899h123q12 -57 61 -84q51 -29 133 -29q84 0 148 29q63 31 92 84h123q-55 -133 -152 -199q-100 -66 -239 -65q-143 0 -215 65.5t-74 198.5z" />
<glyph unicode="&#x11f;" horiz-adv-x="1431" d="M45 -389l51 254h113v-17q0 -94 53 -139q59 -51 191 -51q166 0 245.5 78t120.5 278l25 121q-123 -164 -348 -164q-223 0 -326 127q-72 89 -72 226q0 58 13 125q51 268 305 466q229 176 561 177q268 0 389 -97l-192 -981q-49 -244 -228 -346q-218 -123 -473 -123 q-98 0 -213 17q-107 15 -215 49zM502 199q31 -72 139 -72q104 0 170 84q61 78 98 268l78 398q-6 59 -69 59q-181 0 -295 -160q-72 -104 -115 -321q-20 -101 -20 -168q0 -56 14 -88zM553 1589h125q-8 -74 39 -112.5t150 -38.5q98 0 161 39q61 39 84 112h125 q-27 -145 -135 -229q-106 -82 -266 -82q-162 0 -238 82q-74 77 -45 229z" />
<glyph unicode="&#x120;" horiz-adv-x="1748" d="M973 1775.5q12 59.5 63 102.5q55 45 111 45q57 0 96 -45q35 -43 22.5 -102.5t-63.5 -102.5q-53 -43 -110 -43q-59 0 -97 43q-34 43 -22 102.5zM86 745q72 362 330 568q262 207 645 207q160 0 307 -31q137 -29 293 -98l-72 -367h-127q-6 199 -94 287t-278 88 q-231 0 -371 -158q-141 -160 -205 -496q-31 -159 -31 -277q0 -134 39 -218q74 -158 293 -158q83 0 160 19q66 16 141 57l80 410h-180l24 120h539l-113 -573q-201 -84 -358 -117q-175 -37 -350 -37q-385 0 -563 207q-128 148 -129 377q0 89 20 190z" />
<glyph unicode="&#x121;" horiz-adv-x="1431" d="M786 1468q12 57 66 103q53 43 110 43q59 0 97 -43q35 -43 22 -103q-12 -61 -63 -102q-55 -45 -113 -45q-59 0 -94 45q-37 47 -25 102zM45 -389l51 254h113v-17q0 -94 53 -139q59 -51 191 -51q166 0 245.5 78t120.5 278l25 121q-123 -164 -348 -164q-223 0 -326 127 q-72 89 -72 226q0 58 13 125q51 268 305 466q229 176 561 177q268 0 389 -97l-192 -981q-49 -244 -228 -346q-218 -123 -473 -123q-98 0 -213 17q-107 15 -215 49zM502 199q31 -72 139 -72q104 0 170 84q61 78 98 268l78 398q-6 59 -69 59q-181 0 -295 -160 q-72 -104 -115 -321q-20 -101 -20 -168q0 -56 14 -88z" />
<glyph unicode="&#x122;" horiz-adv-x="1748" d="M659 -419q90 45 133 94q45 51 62 121l8 43h215l-2 -4q-23 -113 -107 -191q-82 -78 -239 -135zM86 745q72 362 330 568q262 207 645 207q160 0 307 -31q137 -29 293 -98l-72 -367h-127q-6 199 -94 287t-278 88q-231 0 -371 -158q-141 -160 -205 -496q-31 -159 -31 -277 q0 -134 39 -218q74 -158 293 -158q83 0 160 19q66 16 141 57l80 410h-180l24 120h539l-113 -573q-201 -84 -358 -117q-175 -37 -350 -37q-385 0 -563 207q-128 148 -129 377q0 89 20 190z" />
<glyph unicode="&#x123;" horiz-adv-x="1431" d="M723 1215q23 117 106 194q82 78 240 136l69 -72q-90 -45 -133 -94q-45 -51 -61 -121l-8 -43h-213zM45 -389l51 254h113v-17q0 -94 53 -139q59 -51 191 -51q166 0 245.5 78t120.5 278l25 121q-123 -164 -348 -164q-223 0 -326 127q-72 89 -72 226q0 58 13 125 q51 268 305 466q229 176 561 177q268 0 389 -97l-192 -981q-49 -244 -228 -346q-218 -123 -473 -123q-98 0 -213 17q-107 15 -215 49zM502 199q31 -72 139 -72q104 0 170 84q61 78 98 268l78 398q-6 59 -69 59q-181 0 -295 -160q-72 -104 -115 -321q-20 -101 -20 -168 q0 -56 14 -88z" />
<glyph unicode="&#x124;" horiz-adv-x="1933" d="M755 1635l277 264h307l172 -264h-166l-180 161l-246 -161h-164zM-49 0l22 121h193l244 1251h-193l25 121h768l-25 -121h-190l-99 -502h594l99 502h-193l25 121h768l-25 -121h-190l-244 -1251h190l-22 -121h-768l22 121h193l119 612h-594l-119 -612h190l-22 -121h-768z " />
<glyph unicode="&#x125;" horiz-adv-x="1488" d="M110 1635l277 264h307l172 -264h-166l-180 161l-246 -161h-164zM70 0l278 1436h-158l23 120h512l-125 -643q80 92 174 138q84 41 215 41q180 0 250 -107q45 -66 45 -174q0 -66 -14 -135l-109 -555h154l-25 -121h-506l134 686q14 66 14 119q0 45 -12 69q-25 51 -109 52 q-109 0 -172 -78q-66 -80 -98 -250l-117 -598h-354z" />
<glyph unicode="&#x126;" horiz-adv-x="1933" d="M-49 0l22 121h193l180 932h-190l26 137h191l37 182h-193l25 121h768l-25 -121h-190l-37 -182h594l37 182h-193l25 121h768l-25 -121h-190l-37 -182h192l-26 -137h-193l-180 -932h190l-22 -121h-768l22 121h193l119 612h-594l-119 -612h190l-22 -121h-768zM696 870h594 l35 183h-594z" />
<glyph unicode="&#x127;" horiz-adv-x="1488" d="M70 0l231 1196h-158l27 137h160l18 103h-158l23 120h512l-43 -223h360l-26 -137h-361l-55 -283q80 92 174 138q84 41 215 41q180 0 250 -107q45 -66 45 -174q0 -66 -14 -135l-109 -555h154l-25 -121h-506l134 686q14 66 14 119q0 45 -12 69q-25 51 -109 52 q-109 0 -172 -78q-66 -80 -98 -250l-117 -598h-354z" />
<glyph unicode="&#x128;" horiz-adv-x="956" d="M299 1635l2 12q25 125 90 190q70 66 168 66q61 0 133 -39q9 -3 13 -6l65 -33q25 -12 43 -18q25 -4 35 -4q41 0 70 24q29 23 38 70v4h111l-2 -15q-25 -123 -90.5 -188t-167.5 -65q-31 0 -66 10q-43 12 -79 35l-52 28q-33 16 -49 21q-25 6 -43 6q-39 0 -69 -27 q-29 -25 -39 -67v-4h-111zM-49 0l22 121h193l244 1251h-193l25 121h768l-25 -121h-190l-244 -1251h190l-22 -121h-768z" />
<glyph unicode="&#x129;" horiz-adv-x="776" d="M151 1309l2 16q27 145 97 221q68 76 170 76q35 0 69 -12t74 -43l62 -47l2 -2q41 -29 75 -29q41 0 72 35q31 33 43 96h111l-4 -16q-27 -141 -97 -222q-70 -76 -170 -75q-31 0 -69 14q-35 12 -72 41l-64 47h-2q-41 31 -73 31q-43 0 -74 -35q-29 -31 -41 -96h-111zM119 0 l182 942h-151l22 121h506l-182 -942h151l-22 -121h-506z" />
<glyph unicode="&#x12a;" horiz-adv-x="956" d="M350 1684l35 188h631l-37 -188h-629zM-49 0l22 121h193l244 1251h-193l25 121h768l-25 -121h-190l-244 -1251h190l-22 -121h-768z" />
<glyph unicode="&#x12b;" horiz-adv-x="776" d="M133 1374l35 188h631l-37 -188h-629zM119 0l182 942h-151l22 121h506l-182 -942h151l-22 -121h-506z" />
<glyph unicode="&#x12c;" horiz-adv-x="956" d="M377 1899h123q12 -57 61 -84q51 -29 133 -29q84 0 148 29q63 31 92 84h123q-55 -133 -152 -199q-100 -66 -239 -65q-143 0 -215 65.5t-74 198.5zM-49 0l22 121h193l244 1251h-193l25 121h768l-25 -121h-190l-244 -1251h190l-22 -121h-768z" />
<glyph unicode="&#x12d;" horiz-adv-x="776" d="M225 1589h125q-8 -74 39 -112.5t150 -38.5q98 0 161 39q61 39 84 112h125q-27 -145 -135 -229q-106 -82 -266 -82q-162 0 -238 82q-74 77 -45 229zM119 0l182 942h-151l22 121h506l-182 -942h151l-22 -121h-506z" />
<glyph unicode="&#x12e;" horiz-adv-x="956" d="M-10 0l22 121h193l244 1251h-193l25 121h768l-25 -121h-190l-244 -1251h190l-22 -121h-768zM268 -225q8 49 54 106q43 55 118 119h125q-53 -55 -88 -102q-27 -35 -33 -66q-10 -41 16.5 -63.5t76.5 -22.5q43 0 82 8q53 12 81 23l-30 -156q-31 -6 -107 -16q-49 -6 -90 -6 q-113 0 -166 47t-39 129z" />
<glyph unicode="&#x12f;" horiz-adv-x="776" d="M109 0l184 942h-152l23 121h506l-185 -942h152l-23 -121h-505zM338 1325q0 25 2 39q16 82 84 137t147 55q76 0 123 -57q33 -39 33 -94q0 -12 -4 -41q-16 -82 -80 -135q-68 -55 -145 -55q-82 0 -127 55q-33 39 -33 96zM166 -225q8 49 54 106q43 55 118 119h125 q-53 -55 -88 -102q-27 -35 -33 -66q-10 -41 16.5 -63.5t76.5 -22.5q43 0 82 8q53 12 81 23l-30 -156q-31 -6 -107 -16q-49 -6 -90 -6q-113 0 -166 47t-39 129z" />
<glyph unicode="&#x130;" horiz-adv-x="956" d="M-49 0l22 121h193l244 1251h-193l25 121h768l-25 -121h-190l-244 -1251h190l-22 -121h-768zM545 1775.5q12 59.5 63 102.5q55 45 111 45q57 0 96 -45q35 -43 22.5 -102.5t-63.5 -102.5q-53 -43 -110 -43q-59 0 -97 43q-34 43 -22 102.5z" />
<glyph unicode="&#x131;" horiz-adv-x="776" d="M119 0l182 942h-151l22 121h506l-182 -942h151l-22 -121h-506z" />
<glyph unicode="&#x132;" horiz-adv-x="1927" d="M637 -358l45 235h132q-4 -27 -4 -50q0 -57 22 -87q33 -45 104 -45q98 0 152 74q51 74 92 280l256 1323h-217l25 121h794l-22 -121h-193l-258 -1331q-45 -242 -192.5 -354.5t-411.5 -112.5q-90 0 -162 16q-90 21 -162 52zM-49 0l22 121h193l244 1251h-193l25 121h768 l-25 -121h-190l-244 -1251h190l-22 -121h-768z" />
<glyph unicode="&#x133;" horiz-adv-x="1536" d="M457 -416l43 226h115q-6 -31 -6 -56q0 -39 14 -59q23 -37 88 -37q76 0 113 47q37 45 61 170l207 1067h-152l25 121h506l-232 -1188q-31 -162 -164 -246t-356 -84q-51 0 -127 11q-59 8 -135 28zM1129 1325q0 10 4 39q16 80 82 137q65 55 147 55q78 0 125 -57 q33 -41 33 -96q0 -10 -4 -39q-16 -80 -82 -135q-68 -55 -145.5 -55t-124.5 55q-35 41 -35 96zM70 0l184 942h-152l23 121h506l-185 -942h152l-23 -121h-505zM299 1325q0 25 2 39q16 82 84 137t147 55q76 0 123 -57q33 -39 33 -94q0 -12 -4 -41q-16 -82 -80 -135 q-68 -55 -145 -55q-82 0 -127 55q-33 39 -33 96z" />
<glyph unicode="&#x134;" horiz-adv-x="968" d="M278 1635l277 264h307l172 -264h-166l-180 161l-246 -161h-164zM-324 -358l45 235h132q-4 -27 -4 -50q0 -57 22 -87q33 -45 104 -45q98 0 152 74q51 74 92 280l256 1323h-217l25 121h794l-22 -121h-193l-258 -1331q-45 -242 -192.5 -354.5t-411.5 -112.5q-90 0 -162 16 q-90 21 -162 52z" />
<glyph unicode="&#x135;" horiz-adv-x="739" d="M22 1262l332 376h241l183 -376h-164l-170 225l-256 -225h-166zM-293 -416l45 226h113q-14 -78 8 -117q20 -35 88 -35q72 0 113 47q35 41 61 170l207 1067h-149l22 121h506l-232 -1188q-31 -162 -163.5 -246t-356.5 -84q-55 0 -127 11q-63 8 -135 28z" />
<glyph unicode="&#x136;" horiz-adv-x="1779" d="M725 -391q90 45 133 94q45 51 62 121l8 43h215l-2 -4q-23 -113 -107 -191q-82 -78 -239 -135zM-49 0l22 121h193l244 1251h-193l25 121h768l-25 -121h-190l-107 -545l739 545h-159l22 121h557l-22 -121h-201l-625 -461l576 -790h145l-22 -121h-506l-524 725l-117 -604 h190l-22 -121h-768z" />
<glyph unicode="&#x137;" horiz-adv-x="1417" d="M512 -391q90 45 133 94q45 51 62 121l8 43h215l-2 -4q-23 -113 -107 -191q-82 -78 -239 -135zM70 0l278 1436h-149l22 120h504l-193 -999l504 385h-127l23 121h289l-25 -121l-322 -246l336 -575h115l-22 -121h-392l-290 500l-117 -88l-80 -412h-354z" />
<glyph unicode="&#x138;" horiz-adv-x="1417" d="M119 0l180 938h-149l22 123h506l-98 -506l503 383h-127l25 123h287l-25 -123l-319 -244l336 -573h114l-22 -121h-391l-293 500l-115 -88l-82 -412h-352z" />
<glyph unicode="&#x139;" horiz-adv-x="1439" d="M588 1637l233 264h279l-348 -264h-164zM-49 0l22 121h193l244 1251h-193l25 121h768l-25 -121h-190l-240 -1235h588l45 236h135l-74 -373h-1298z" />
<glyph unicode="&#x13a;" horiz-adv-x="776" d="M467 1637l233 264h279l-348 -264h-164zM70 0l278 1436h-149l22 120h504l-279 -1435h152l-23 -121h-505z" />
<glyph unicode="&#x13b;" horiz-adv-x="1439" d="M502 -391q90 45 133 94q45 51 62 121l8 43h215l-2 -4q-23 -113 -107 -191q-82 -78 -239 -135zM-49 0l22 121h193l244 1251h-193l25 121h768l-25 -121h-190l-240 -1235h588l45 236h135l-74 -373h-1298z" />
<glyph unicode="&#x13c;" horiz-adv-x="776" d="M147 -391q90 45 133 94q45 51 62 121l8 43h215l-2 -4q-23 -113 -107 -191q-82 -78 -239 -135zM70 0l278 1436h-149l22 120h504l-279 -1435h152l-23 -121h-505z" />
<glyph unicode="&#x13d;" horiz-adv-x="1439" d="M983 1117l144 376h278l-258 -376h-164zM-49 0l22 121h193l244 1251h-193l25 121h768l-25 -121h-190l-240 -1235h588l45 236h135l-74 -373h-1298z" />
<glyph unicode="&#x13e;" horiz-adv-x="1038" d="M786 1180l144 376h278l-258 -376h-164zM70 0l278 1436h-149l22 120h504l-279 -1435h152l-23 -121h-505z" />
<glyph unicode="&#x13f;" horiz-adv-x="1439" d="M1073 887q16 82 82 135q68 55 145.5 55t122.5 -55q47 -55 30.5 -135t-81.5 -133q-68 -55 -146 -56q-77 0 -122 56q-47 55 -31 133zM-49 0l22 121h193l244 1251h-193l25 121h768l-25 -121h-190l-240 -1235h588l45 236h135l-74 -373h-1298z" />
<glyph unicode="&#x140;" horiz-adv-x="1138" d="M707 883q16 82 82 135q68 55 145.5 55t122.5 -55q47 -55 30.5 -135t-81.5 -133q-68 -55 -146 -56q-77 0 -122 56q-47 55 -31 133zM70 0l278 1436h-149l22 120h504l-279 -1435h152l-23 -121h-505z" />
<glyph unicode="&#x141;" horiz-adv-x="1452" d="M-37 0l25 121h190l84 428l-239 -127l-48 117l318 168l131 665h-193l23 121h768l-23 -121h-190l-86 -434l379 201l49 -117l-459 -244l-125 -641h588l45 236h135l-71 -373h-1301z" />
<glyph unicode="&#x142;" horiz-adv-x="786" d="M-14 662l241 133l125 641h-149l22 120h506l-108 -557l174 97l43 -105l-244 -133l-143 -737h149l-22 -121h-506l127 653l-174 -96z" />
<glyph unicode="&#x143;" horiz-adv-x="1871" d="M963 1637l233 264h279l-348 -264h-164zM-55 0l22 121h193l243 1251h-190l23 121h466l697 -1057l180 936h-188l22 121h522l-22 -121h-193l-266 -1372h-262l-705 1079l-188 -958h190l-22 -121h-522z" />
<glyph unicode="&#x144;" horiz-adv-x="1488" d="M606 1215l332 376h278l-446 -376h-164zM115 0l184 942h-152l23 121h506l-31 -150q80 92 174 138q84 41 215 41q180 0 250 -107q45 -66 45 -174q0 -66 -14 -135l-109 -555h154l-25 -121h-506l134 686q14 66 14 119q0 45 -12 69q-25 51 -109 52q-109 0 -172 -78 q-66 -80 -98 -250l-117 -598h-354z" />
<glyph unicode="&#x145;" horiz-adv-x="1871" d="M600 -391q90 45 133 94q45 51 62 121l8 43h215l-2 -4q-23 -113 -107 -191q-82 -78 -239 -135zM-55 0l22 121h193l243 1251h-190l23 121h466l697 -1057l180 936h-188l22 121h522l-22 -121h-193l-266 -1372h-262l-705 1079l-188 -958h190l-22 -121h-522z" />
<glyph unicode="&#x146;" horiz-adv-x="1488" d="M551 -391q90 45 133 94q45 51 62 121l8 43h215l-2 -4q-23 -113 -107 -191q-82 -78 -239 -135zM115 0l184 942h-152l23 121h506l-31 -150q80 92 174 138q84 41 215 41q180 0 250 -107q45 -66 45 -174q0 -66 -14 -135l-109 -555h154l-25 -121h-506l134 686q14 66 14 119 q0 45 -12 69q-25 51 -109 52q-109 0 -172 -78q-66 -80 -98 -250l-117 -598h-354z" />
<glyph unicode="&#x147;" horiz-adv-x="1871" d="M-55 0l22 121h193l243 1251h-190l23 121h466l697 -1057l180 936h-188l22 121h522l-22 -121h-193l-266 -1372h-262l-705 1079l-188 -958h190l-22 -121h-522zM786 1899h164l182 -162l244 162h166l-277 -264h-307z" />
<glyph unicode="&#x148;" horiz-adv-x="1488" d="M115 0l184 942h-152l23 121h506l-31 -150q80 92 174 138q84 41 215 41q180 0 250 -107q45 -66 45 -174q0 -66 -14 -135l-109 -555h154l-25 -121h-506l134 686q14 66 14 119q0 45 -12 69q-25 51 -109 52q-109 0 -172 -78q-66 -80 -98 -250l-117 -598h-354zM461 1638h164 l168 -227l258 227h166l-332 -376h-241z" />
<glyph unicode="&#x149;" horiz-adv-x="2064" d="M602 0l184 942h-152l23 121h506l-31 -150q80 92 174 138q84 41 215 41q180 0 250 -107q45 -66 45 -174q0 -66 -14 -135l-109 -555h154l-25 -121h-506l134 686q14 66 14 119q0 45 -12 69q-25 51 -109 52q-109 0 -172 -78q-66 -80 -98 -250l-117 -598h-354zM154 1069 q115 72 172 162q59 92 88 233l12 56h269q-49 -207 -160 -349q-113 -143 -301 -237z" />
<glyph unicode="&#x14a;" horiz-adv-x="1785" d="M70 0l24 121h191l241 1251h-149l22 121h539l-31 -154q94 94 209 140q111 43 273 43q225 0 313 -142q55 -90 55 -200q0 -115 -20 -215l-181 -924q-47 -244 -190 -354q-147 -113 -412 -113q-166 0 -325 68l47 235h133q-4 -37 -4 -49q0 -133 127 -133q96 0 149 74 q55 78 95 280l170 879q29 143 28.5 229t-10.5 117q-31 96 -154 96q-150 0 -247 -125q-96 -123 -152 -403l-139 -721h190l-24 -121h-768z" />
<glyph unicode="&#x14b;" horiz-adv-x="1488" d="M160 0l182 942h-152l25 121h506l-31 -150q82 94 172 138q84 41 215 41q180 0 250 -107q47 -70 47 -174q0 -66 -14 -135l-156 -801q-31 -162 -164 -246t-356 -84q-55 0 -127 11q-55 8 -135 28l45 226h113q-6 -31 -7 -56q0 -39 15 -59q23 -37 90 -37q74 0 110 47 q37 45 62 170l158 811q14 66 14 119q0 45 -12 69q-25 51 -111 52q-109 0 -172 -78q-66 -80 -98 -250l-117 -598h-352z" />
<glyph unicode="&#x14c;" horiz-adv-x="1783" d="M761 1684l35 188h631l-37 -188h-629zM86 745q70 360 326 567.5t630 207.5q379 0 551 -205q123 -147 123 -373q0 -92 -20 -197q-72 -365 -326 -569.5t-631 -204.5t-549 205q-124 149 -124 376q0 91 20 193zM512 254q61 -162 252 -162q188 0 315 162q123 156 189 491 q33 167 32 292q0 121 -30 200q-61 162 -252 162t-316 -162q-123 -160 -188 -492q-33 -166 -32 -290q0 -120 30 -201z" />
<glyph unicode="&#x14d;" horiz-adv-x="1363" d="M493 1374l35 188h631l-37 -188h-629zM70 393q0 70 14 139q52 264 240 412q188 147 469 148q283 0 411 -148q94 -106 94 -272q0 -70 -14 -140q-52 -261 -240 -411q-186 -150 -468.5 -150t-411.5 150q-94 106 -94 272zM446 270q0 -53 11 -90q27 -96 141 -96q109 0 174.5 96 t114.5 352q33 162 33 267q0 49 -11 86q-25 94 -139 94q-111 0 -176 -96q-66 -98 -115 -351q-33 -174 -33 -262z" />
<glyph unicode="&#x14e;" horiz-adv-x="1783" d="M791 1899h123q12 -57 61 -84q51 -29 133 -29q84 0 148 29q63 31 92 84h123q-55 -133 -152 -199q-100 -66 -239 -65q-143 0 -215 65.5t-74 198.5zM86 745q70 360 326 567.5t630 207.5q379 0 551 -205q123 -147 123 -373q0 -92 -20 -197q-72 -365 -326 -569.5t-631 -204.5 t-549 205q-124 149 -124 376q0 91 20 193zM512 254q61 -162 252 -162q188 0 315 162q123 156 189 491q33 167 32 292q0 121 -30 200q-61 162 -252 162t-316 -162q-123 -160 -188 -492q-33 -166 -32 -290q0 -120 30 -201z" />
<glyph unicode="&#x14f;" horiz-adv-x="1363" d="M520 1589h125q-8 -74 39 -112.5t150 -38.5q98 0 161 39q61 39 84 112h125q-27 -145 -135 -229q-106 -82 -266 -82q-162 0 -238 82q-74 77 -45 229zM70 393q0 70 14 139q52 264 240 412q188 147 469 148q283 0 411 -148q94 -106 94 -272q0 -70 -14 -140 q-52 -261 -240 -411q-186 -150 -468.5 -150t-411.5 150q-94 106 -94 272zM446 270q0 -53 11 -90q27 -96 141 -96q109 0 174.5 96t114.5 352q33 162 33 267q0 49 -11 86q-25 94 -139 94q-111 0 -176 -96q-66 -98 -115 -351q-33 -174 -33 -262z" />
<glyph unicode="&#x150;" horiz-adv-x="1783" d="M793 1635l233 264h281l-350 -264h-164zM1125 1635l233 264h281l-350 -264h-164zM86 745q70 360 326 567.5t630 207.5q379 0 551 -205q123 -147 123 -373q0 -92 -20 -197q-72 -365 -326 -569.5t-631 -204.5t-549 205q-124 149 -124 376q0 91 20 193zM512 254 q61 -162 252 -162q188 0 315 162q123 156 189 491q33 167 32 292q0 121 -30 200q-61 162 -252 162t-316 -162q-123 -160 -188 -492q-33 -166 -32 -290q0 -120 30 -201z" />
<glyph unicode="&#x151;" horiz-adv-x="1363" d="M471 1262l262 376h217l-317 -376h-162zM801 1262l299 376h235l-370 -376h-164zM70 393q0 70 14 139q52 264 240 412q188 147 469 148q283 0 411 -148q94 -106 94 -272q0 -70 -14 -140q-52 -261 -240 -411q-186 -150 -468.5 -150t-411.5 150q-94 106 -94 272zM446 270 q0 -53 11 -90q27 -96 141 -96q109 0 174.5 96t114.5 352q33 162 33 267q0 49 -11 86q-25 94 -139 94q-111 0 -176 -96q-66 -98 -115 -351q-33 -174 -33 -262z" />
<glyph unicode="&#x152;" horiz-adv-x="2416" d="M86 747.5q43 219.5 159.5 385t291.5 251.5q113 59 249 84q138 25 351 25h1302l-67 -352h-138l41 215h-606l-92 -479h367l36 190h138l-101 -516h-137l39 190h-369l-116 -604h622l41 215h137l-67 -352h-1321q-199 0 -338 27q-133 25 -219 82q-139 86 -193 251 q-53 168 -10 387.5zM505.5 747.5q-61.5 -313.5 41.5 -471.5q100 -156 368 -155h127l244 1251h-127q-260 0 -428 -158q-164 -153 -225.5 -466.5z" />
<glyph unicode="&#x153;" horiz-adv-x="2103" d="M70 393q0 70 14 139q52 264 240 412q188 147 450 148q261 0 393 -111q166 111 377 111q209 0 332 -68q170 -98 137 -272q-66 -326 -756 -353q-6 -34 -6 -104q0 -211 207 -211q115 0 199 61q82 61 125 177h166q-76 -178 -224 -267q-141 -84 -378 -84q-236 0 -357 111 q-172 -111 -434 -111t-391 150q-94 106 -94 272zM446 291q0 -74 11 -111q27 -96 141 -96q109 0 174 96q68 100 107 307q41 203 41 287q0 74 -11 111q-25 94 -139 94q-111 0 -176 -96q-68 -98 -107 -305q-41 -215 -41 -287zM1280 518q328 -10 377 244q16 74 0 133 q-20 84 -119 84q-92 0 -147 -86q-56 -95 -111 -375z" />
<glyph unicode="&#x154;" horiz-adv-x="1701" d="M907 1637l233 264h279l-348 -264h-164zM-49 0l22 121h193l244 1251h-193l25 121h852q261 0 381 -104q93 -81 92 -213q0 -40 -8 -84q-31 -156 -150 -246q-121 -92 -326 -117q86 -12 140 -59q51 -45 80 -133l137 -416h151l-22 -121h-492l-149 451q-43 139 -82 178t-127 39 h-62l-106 -547h190l-22 -121h-768zM680 788h131q143 0 231 76q90 78 117 217q9 45 9 83q0 82 -42 132q-63 76 -200 76h-131z" />
<glyph unicode="&#x155;" horiz-adv-x="1077" d="M606 1215l332 376h278l-446 -376h-164zM115 0l184 942h-164l25 121h516l-37 -189q74 111 170 164.5t219 53.5q16 0 74 -5q41 -2 100 -12l-61 -317h-113q2 14 2 39q0 59 -22 88q-29 41 -109 41q-117 0 -203 -103q-90 -106 -123 -282l-104 -541h-354z" />
<glyph unicode="&#x156;" horiz-adv-x="1701" d="M659 -391q90 45 133 94q45 51 62 121l8 43h215l-2 -4q-23 -113 -107 -191q-82 -78 -239 -135zM-49 0l22 121h193l244 1251h-193l25 121h852q261 0 381 -104q93 -81 92 -213q0 -40 -8 -84q-31 -156 -150 -246q-121 -92 -326 -117q86 -12 140 -59q51 -45 80 -133l137 -416 h151l-22 -121h-492l-149 451q-43 139 -82 178t-127 39h-62l-106 -547h190l-22 -121h-768zM680 788h131q143 0 231 76q90 78 117 217q9 45 9 83q0 82 -42 132q-63 76 -200 76h-131z" />
<glyph unicode="&#x157;" horiz-adv-x="1077" d="M213 -391q90 45 133 94q45 51 62 121l8 43h215l-2 -4q-23 -113 -107 -191q-82 -78 -239 -135zM115 0l184 942h-164l25 121h516l-37 -189q74 111 170 164.5t219 53.5q16 0 74 -5q41 -2 100 -12l-61 -317h-113q2 14 2 39q0 59 -22 88q-29 41 -109 41q-117 0 -203 -103 q-90 -106 -123 -282l-104 -541h-354z" />
<glyph unicode="&#x158;" horiz-adv-x="1701" d="M-49 0l22 121h193l244 1251h-193l25 121h852q261 0 381 -104q93 -81 92 -213q0 -40 -8 -84q-31 -156 -150 -246q-121 -92 -326 -117q86 -12 140 -59q51 -45 80 -133l137 -416h151l-22 -121h-492l-149 451q-43 139 -82 178t-127 39h-62l-106 -547h190l-22 -121h-768z M680 788h131q143 0 231 76q90 78 117 217q9 45 9 83q0 82 -42 132q-63 76 -200 76h-131zM733 1899h164l182 -162l244 162h166l-277 -264h-307z" />
<glyph unicode="&#x159;" horiz-adv-x="1077" d="M115 0l184 942h-164l25 121h516l-37 -189q74 111 170 164.5t219 53.5q16 0 74 -5q41 -2 100 -12l-61 -317h-113q2 14 2 39q0 59 -22 88q-29 41 -109 41q-117 0 -203 -103q-90 -106 -123 -282l-104 -541h-354zM461 1638h164l168 -227l258 227h166l-332 -376h-241z" />
<glyph unicode="&#x15a;" horiz-adv-x="1478" d="M907 1637l233 264h279l-348 -264h-164zM27 72l69 354h127v-11q0 -161 88 -241q90 -82 283 -82q154 0 248 59.5t114 172.5q5 25 5 46q0 59 -33 95q-46 49 -209 92l-213 55q-203 53 -277 156q-46 64 -46 168q0 52 12 115q43 223 215 346t438 123q121 0 266 -23 q127 -20 281 -65l-64 -330h-127q0 154 -84 225.5t-264 71.5q-150 0 -233.5 -51.5t-106.5 -153.5q-6 -28 -5 -51q0 -55 30 -90q43 -49 235 -101l213 -55q197 -53 271 -162q48 -71 47 -179q0 -56 -13 -124q-43 -225 -223 -344q-178 -117 -481 -117q-147 0 -285 25 q-147 27 -278 76z" />
<glyph unicode="&#x15b;" horiz-adv-x="1150" d="M606 1215l332 376h278l-446 -376h-164zM0 31l55 297h115q0 -4 -1 -14.5t-1 -14.5q0 -96 59.5 -155.5t178.5 -59.5q231 0 260 145q4 25 4 47q0 27 -24.5 58t-127.5 55l-137 37q-158 41 -209 106q-49 66 -49 146q0 31 6 72q33 170 172 258q131 84 354 84q221 0 455 -64 l-51 -268h-115q4 25 4 37q0 182 -225 182q-229 0 -254 -135q-2 -10 -2 -39q0 -65 123 -98l137 -37q199 -51 254 -119t55 -154q0 -41 -8 -75q-33 -176 -180 -265q-143 -86 -416 -86q-203 1 -432 60z" />
<glyph unicode="&#x15c;" horiz-adv-x="1478" d="M516 1635l277 264h307l172 -264h-166l-180 161l-246 -161h-164zM27 72l69 354h127v-11q0 -161 88 -241q90 -82 283 -82q154 0 248 59.5t114 172.5q5 25 5 46q0 59 -33 95q-46 49 -209 92l-213 55q-203 53 -277 156q-46 64 -46 168q0 52 12 115q43 223 215 346t438 123 q121 0 266 -23q127 -20 281 -65l-64 -330h-127q0 154 -84 225.5t-264 71.5q-150 0 -233.5 -51.5t-106.5 -153.5q-6 -28 -5 -51q0 -55 30 -90q43 -49 235 -101l213 -55q197 -53 271 -162q48 -71 47 -179q0 -56 -13 -124q-43 -225 -223 -344q-178 -117 -481 -117 q-147 0 -285 25q-147 27 -278 76z" />
<glyph unicode="&#x15d;" horiz-adv-x="1150" d="M281 1262l332 376h241l183 -376h-164l-170 225l-256 -225h-166zM0 31l55 297h115q0 -4 -1 -14.5t-1 -14.5q0 -96 59.5 -155.5t178.5 -59.5q231 0 260 145q4 25 4 47q0 27 -24.5 58t-127.5 55l-137 37q-158 41 -209 106q-49 66 -49 146q0 31 6 72q33 170 172 258 q131 84 354 84q221 0 455 -64l-51 -268h-115q4 25 4 37q0 182 -225 182q-229 0 -254 -135q-2 -10 -2 -39q0 -65 123 -98l137 -37q199 -51 254 -119t55 -154q0 -41 -8 -75q-33 -176 -180 -265q-143 -86 -416 -86q-203 1 -432 60z" />
<glyph unicode="&#x15e;" horiz-adv-x="1478" d="M27 72l69 354h127v-11q0 -161 88 -241q90 -82 283 -82q154 0 248 59.5t114 172.5q5 25 5 46q0 59 -33 95q-46 49 -209 92l-213 55q-203 53 -277 156q-46 64 -46 168q0 52 12 115q43 223 215 346t438 123q121 0 266 -23q127 -20 281 -65l-64 -330h-127q0 154 -84 225.5 t-264 71.5q-150 0 -233.5 -51.5t-106.5 -153.5q-6 -28 -5 -51q0 -55 30 -90q43 -49 235 -101l213 -55q197 -53 271 -162q48 -71 47 -179q0 -56 -13 -124q-43 -225 -223 -344q-178 -117 -481 -117q-147 0 -285 25q-147 27 -278 76zM245 -375l29 156q37 -16 84 -27 q35 -8 76 -8q61 0 96 23q33 23 43 69q6 31 -2 62q-6 20 -49 100h127q53 -70 69 -119q18 -53 9 -106q-14 -84 -90 -131q-72 -45 -195 -45q-49 0 -98 6q-33 4 -99 20z" />
<glyph unicode="&#x15f;" horiz-adv-x="1150" d="M0 31l55 297h115q0 -4 -1 -14.5t-1 -14.5q0 -96 59.5 -155.5t178.5 -59.5q231 0 260 145q4 25 4 47q0 27 -24.5 58t-127.5 55l-137 37q-158 41 -209 106q-49 66 -49 146q0 31 6 72q33 170 172 258q131 84 354 84q221 0 455 -64l-51 -268h-115q4 25 4 37q0 182 -225 182 q-229 0 -254 -135q-2 -10 -2 -39q0 -65 123 -98l137 -37q199 -51 254 -119t55 -154q0 -41 -8 -75q-33 -176 -180 -265q-143 -86 -416 -86q-203 1 -432 60zM75 -375l29 156q37 -16 84 -27q35 -8 76 -8q61 0 96 23q33 23 43 69q6 31 -2 62q-6 20 -49 100h127q53 -70 69 -119 q18 -53 9 -106q-14 -84 -90 -131q-72 -45 -195 -45q-49 0 -98 6q-33 4 -99 20z" />
<glyph unicode="&#x160;" horiz-adv-x="1478" d="M27 72l69 354h127v-11q0 -161 88 -241q90 -82 283 -82q154 0 248 59.5t114 172.5q5 25 5 46q0 59 -33 95q-46 49 -209 92l-213 55q-203 53 -277 156q-46 64 -46 168q0 52 12 115q43 223 215 346t438 123q121 0 266 -23q127 -20 281 -65l-64 -330h-127q0 154 -84 225.5 t-264 71.5q-150 0 -233.5 -51.5t-106.5 -153.5q-6 -28 -5 -51q0 -55 30 -90q43 -49 235 -101l213 -55q197 -53 271 -162q48 -71 47 -179q0 -56 -13 -124q-43 -225 -223 -344q-178 -117 -481 -117q-147 0 -285 25q-147 27 -278 76zM606 1899h164l182 -162l244 162h166 l-277 -264h-307z" />
<glyph unicode="&#x161;" horiz-adv-x="1150" d="M0 31l55 297h115q0 -4 -1 -14.5t-1 -14.5q0 -96 59.5 -155.5t178.5 -59.5q231 0 260 145q4 25 4 47q0 27 -24.5 58t-127.5 55l-137 37q-158 41 -209 106q-49 66 -49 146q0 31 6 72q33 170 172 258q131 84 354 84q221 0 455 -64l-51 -268h-115q4 25 4 37q0 182 -225 182 q-229 0 -254 -135q-2 -10 -2 -39q0 -65 123 -98l137 -37q199 -51 254 -119t55 -154q0 -41 -8 -75q-33 -176 -180 -265q-143 -86 -416 -86q-203 1 -432 60zM375 1638h164l168 -227l258 227h166l-332 -376h-241z" />
<glyph unicode="&#x162;" horiz-adv-x="1523" d="M272 -375l29 156q37 -16 84 -27q35 -8 76 -8q61 0 96 23q33 23 43 69q6 31 -2 62q-6 20 -49 100h127q53 -70 69 -119q18 -53 9 -106q-14 -84 -90 -131q-72 -45 -195 -45q-49 0 -98 6q-33 4 -99 20zM96 1120l72 373h1481l-72 -373h-135l45 236h-414l-239 -1235h198 l-22 -121h-785l25 121h196l240 1235h-407l-46 -236h-137z" />
<glyph unicode="&#x163;" horiz-adv-x="944" d="M149 -375l29 156q37 -16 84 -27q35 -8 76 -8q61 0 96 23q33 23 43 69q6 31 -2 62q-6 20 -49 100h127q53 -70 69 -119q18 -53 9 -106q-14 -84 -90 -131q-72 -45 -195 -45q-49 0 -98 6q-33 4 -99 20zM100 942l23 121h153l66 330h352l-63 -330h295l-23 -121h-295l-127 -651 q-16 -80 -16 -133q0 -31 4 -39q16 -35 74 -35q63 0 102 43q37 39 60 133h149q-41 -162 -131 -225.5t-283 -63.5q-219 0 -284 70q-41 41 -41 135q0 49 12 115l127 651h-154z" />
<glyph unicode="&#x164;" horiz-adv-x="1523" d="M96 1120l72 373h1481l-72 -373h-135l45 236h-414l-239 -1235h198l-22 -121h-785l25 121h196l240 1235h-407l-46 -236h-137zM637 1899h164l182 -162l244 162h166l-277 -264h-307z" />
<glyph unicode="&#x165;" horiz-adv-x="944" d="M100 942l23 121h153l66 330h352l-63 -330h295l-23 -121h-295l-127 -651q-16 -80 -16 -133q0 -31 4 -39q16 -35 74 -35q63 0 102 43q37 39 60 133h149q-41 -162 -131 -225.5t-283 -63.5q-219 0 -284 70q-41 41 -41 135q0 49 12 115l127 651h-154zM772 1221l144 376h278 l-258 -376h-164z" />
<glyph unicode="&#x166;" horiz-adv-x="1523" d="M96 1120l72 373h1481l-72 -373h-135l45 236h-414l-96 -504h246l-37 -193h-248l-104 -538h198l-22 -121h-785l25 121h196l107 538h-248l37 193h248l96 504h-407l-46 -236h-137z" />
<glyph unicode="&#x167;" horiz-adv-x="944" d="M14 473l37 193h150l53 276h-154l23 121h153l66 330h352l-63 -330h295l-23 -121h-295l-53 -276h182l-37 -193h-184l-35 -182q-16 -80 -16 -133q0 -31 4 -39q16 -35 74 -35q63 0 102 43q37 39 60 133h149q-39 -160 -131 -223q-90 -66 -283 -66q-219 0 -284 70 q-41 41 -41 135q0 49 12 115l35 182h-148z" />
<glyph unicode="&#x168;" horiz-adv-x="1785" d="M762 1635l2 12q25 125 90 190q70 66 168 66q61 0 133 -39q9 -3 13 -6l65 -33q25 -12 43 -18q25 -4 35 -4q41 0 70 24q29 23 38 70v4h111l-2 -15q-25 -123 -90.5 -188t-167.5 -65q-31 0 -66 10q-43 12 -79 35l-52 28q-33 16 -49 21q-25 6 -43 6q-39 0 -69 -27 q-29 -25 -39 -67v-4h-111zM195 1372l22 121h768l-22 -121h-193l-143 -747q-25 -127 -25 -219q0 -110 35 -170q66 -113 276 -113q209 0 315.5 112.5t162.5 389.5l145 747h-190l22 121h520l-22 -121h-193l-147 -768q-63 -340 -244 -487q-176 -145 -524 -145.5t-469 147.5 q-77 95 -78 269q0 97 25 218l149 766h-190z" />
<glyph unicode="&#x169;" horiz-adv-x="1488" d="M469 1309l2 16q27 145 97 221q68 76 170 76q35 0 69 -12t74 -43l62 -47l2 -2q41 -29 75 -29q41 0 72 35q31 33 43 96h111l-4 -16q-27 -141 -97 -222q-70 -76 -170 -75q-31 0 -69 14q-35 12 -72 41l-64 47h-2q-41 31 -73 31q-43 0 -74 -35q-29 -31 -41 -96h-111zM129 942 l25 121h505l-120 -621q-25 -127 -25 -192q0 -41 8 -60q23 -53 111 -53q109 0 172 78q65 80 98 252l117 596h354l-182 -942h149l-22 -121h-506l29 150q-82 -94 -172 -138q-84 -41 -215 -41q-180 0 -250 105q-45 66 -45 176q0 66 14 135l109 555h-154z" />
<glyph unicode="&#x16a;" horiz-adv-x="1785" d="M837 1684l35 188h631l-37 -188h-629zM195 1372l22 121h768l-22 -121h-193l-143 -747q-25 -127 -25 -219q0 -110 35 -170q66 -113 276 -113q209 0 315.5 112.5t162.5 389.5l145 747h-190l22 121h520l-22 -121h-193l-147 -768q-63 -340 -244 -487q-176 -145 -524 -145.5 t-469 147.5q-77 95 -78 269q0 97 25 218l149 766h-190z" />
<glyph unicode="&#x16b;" horiz-adv-x="1488" d="M542 1374l35 188h631l-37 -188h-629zM129 942l25 121h505l-120 -621q-25 -127 -25 -192q0 -41 8 -60q23 -53 111 -53q109 0 172 78q65 80 98 252l117 596h354l-182 -942h149l-22 -121h-506l29 150q-82 -94 -172 -138q-84 -41 -215 -41q-180 0 -250 105q-45 66 -45 176 q0 66 14 135l109 555h-154z" />
<glyph unicode="&#x16c;" horiz-adv-x="1785" d="M840 1899h123q12 -57 61 -84q51 -29 133 -29q84 0 148 29q63 31 92 84h123q-55 -133 -152 -199q-100 -66 -239 -65q-143 0 -215 65.5t-74 198.5zM195 1372l22 121h768l-22 -121h-193l-143 -747q-25 -127 -25 -219q0 -110 35 -170q66 -113 276 -113q209 0 315.5 112.5 t162.5 389.5l145 747h-190l22 121h520l-22 -121h-193l-147 -768q-63 -340 -244 -487q-176 -145 -524 -145.5t-469 147.5q-77 95 -78 269q0 97 25 218l149 766h-190z" />
<glyph unicode="&#x16d;" horiz-adv-x="1488" d="M543 1589h125q-8 -74 39 -112.5t150 -38.5q98 0 161 39q61 39 84 112h125q-27 -145 -135 -229q-106 -82 -266 -82q-162 0 -238 82q-74 77 -45 229zM129 942l25 121h505l-120 -621q-25 -127 -25 -192q0 -41 8 -60q23 -53 111 -53q109 0 172 78q65 80 98 252l117 596h354 l-182 -942h149l-22 -121h-506l29 150q-82 -94 -172 -138q-84 -41 -215 -41q-180 0 -250 105q-45 66 -45 176q0 66 14 135l109 555h-154z" />
<glyph unicode="&#x16e;" horiz-adv-x="1785" d="M195 1372l22 121h768l-22 -121h-193l-143 -747q-25 -127 -25 -219q0 -110 35 -170q66 -113 276 -113q209 0 315.5 112.5t162.5 389.5l145 747h-190l22 121h520l-22 -121h-193l-147 -768q-63 -340 -244 -487q-176 -145 -524 -145.5t-469 147.5q-77 95 -78 269q0 97 25 218 l149 766h-190zM987 1878q23 121 123 203q96 82 217 82q119 0 186 -82q66 -80 43 -203q-23 -121 -122 -203q-96 -82 -218 -82q-119 0 -186 82q-66 80 -43 203zM1141 1878q-12 -53 20.5 -92t85.5 -39q55 0 101 39q46 37 55 92q10 55 -21 92q-31 39 -86 39q-53 0 -98 -39 q-49 -39 -57 -92z" />
<glyph unicode="&#x16f;" horiz-adv-x="1488" d="M129 942l25 121h505l-120 -621q-25 -127 -25 -192q0 -41 8 -60q23 -53 111 -53q109 0 172 78q65 80 98 252l117 596h354l-182 -942h149l-22 -121h-506l29 150q-82 -94 -172 -138q-84 -41 -215 -41q-180 0 -250 105q-45 66 -45 176q0 66 14 135l109 555h-154zM557 1464 q23 121 123 203q96 82 217 82q119 0 186 -82q66 -80 43 -203q-23 -121 -122 -203q-96 -82 -218 -82q-119 0 -186 82q-66 80 -43 203zM711 1464q-12 -53 20.5 -92t85.5 -39q55 0 101 39q46 37 55 92q10 55 -21 92q-31 39 -86 39q-53 0 -98 -39q-49 -39 -57 -92z" />
<glyph unicode="&#x170;" horiz-adv-x="1785" d="M842 1635l233 264h281l-350 -264h-164zM1174 1635l233 264h281l-350 -264h-164zM195 1372l22 121h768l-22 -121h-193l-143 -747q-25 -127 -25 -219q0 -110 35 -170q66 -113 276 -113q209 0 315.5 112.5t162.5 389.5l145 747h-190l22 121h520l-22 -121h-193l-147 -768 q-63 -340 -244 -487q-176 -145 -524 -145.5t-469 147.5q-77 95 -78 269q0 97 25 218l149 766h-190z" />
<glyph unicode="&#x171;" horiz-adv-x="1488" d="M494 1262l262 376h217l-317 -376h-162zM824 1262l299 376h235l-370 -376h-164zM129 942l25 121h505l-120 -621q-25 -127 -25 -192q0 -41 8 -60q23 -53 111 -53q109 0 172 78q65 80 98 252l117 596h354l-182 -942h149l-22 -121h-506l29 150q-82 -94 -172 -138 q-84 -41 -215 -41q-180 0 -250 105q-45 66 -45 176q0 66 14 135l109 555h-154z" />
<glyph unicode="&#x172;" horiz-adv-x="1785" d="M524 -241q8 49 54 106q43 55 118 119h125q-53 -55 -88 -102q-27 -35 -33 -66q-10 -41 16.5 -63.5t76.5 -22.5q43 0 82 8q53 12 81 23l-30 -156q-31 -6 -107 -16q-49 -6 -90 -6q-113 0 -166 47t-39 129zM195 1372l22 121h768l-22 -121h-193l-143 -747q-25 -127 -25 -219 q0 -110 35 -170q66 -113 276 -113q209 0 315.5 112.5t162.5 389.5l145 747h-190l22 121h520l-22 -121h-193l-147 -768q-63 -340 -244 -487q-176 -145 -524 -145.5t-469 147.5q-77 95 -78 269q0 97 25 218l149 766h-190z" />
<glyph unicode="&#x173;" horiz-adv-x="1488" d="M913 -225q8 49 54 106q43 55 118 119h125q-53 -55 -88 -102q-27 -35 -33 -66q-10 -41 16.5 -63.5t76.5 -22.5q43 0 82 8q53 12 81 23l-30 -156q-31 -6 -107 -16q-49 -6 -90 -6q-113 0 -166 47t-39 129zM129 942l25 121h505l-120 -621q-25 -127 -25 -192q0 -41 8 -60 q23 -53 111 -53q109 0 172 78q65 80 98 252l117 596h354l-182 -942h149l-22 -121h-506l29 150q-82 -94 -172 -138q-84 -41 -215 -41q-180 0 -250 105q-45 66 -45 176q0 66 14 135l109 555h-154z" />
<glyph unicode="&#x174;" horiz-adv-x="2299" d="M104 1372l23 121h709l-25 -121h-160l107 -917l524 1038h285l123 -1055l473 934h-178l22 121h463l-25 -121h-151l-695 -1372h-258l-127 1087l-548 -1087h-258l-158 1372h-146zM950 1643l277 264h307l172 -264h-166l-180 161l-246 -161h-164z" />
<glyph unicode="&#x175;" horiz-adv-x="1761" d="M588 1262l332 376h241l183 -376h-164l-170 225l-256 -225h-166zM61 942l25 121h434l103 -696l372 696h211l111 -764q12 12 149 182q139 182 199 461l-139 -2l24 123h273q-59 -385 -183 -578q-193 -301 -385 -485h-243l-97 666l-356 -666h-242l-139 942h-117z" />
<glyph unicode="&#x176;" horiz-adv-x="1460" d="M104 1372l23 121h717l-25 -121h-166l226 -569l444 569h-147l22 121h428l-22 -121h-127l-551 -702l-109 -549h203l-25 -121h-788l22 121h201l98 497l-297 754h-127zM524 1643l277 264h307l172 -264h-166l-180 161l-246 -161h-164z" />
<glyph unicode="&#x177;" horiz-adv-x="1189" d="M301 1262l332 376h241l183 -376h-164l-170 225l-256 -225h-166zM-39 -412l43 222h113q-4 -33 -4 -46q0 -68 47 -90q25 -10 63 -16q16 -2 49 -2q109 0 224 72l-283 1214h-117l25 121h434l238 -1028q117 172 192 354q76 186 154 551h-144l25 123h287q-23 -115 -62 -293 q-88 -403 -201 -594q-291 -489 -528 -579q-129 -51 -323 -52q-95 0 -232 43z" />
<glyph unicode="&#x178;" horiz-adv-x="1460" d="M104 1372l23 121h717l-25 -121h-166l226 -569l444 569h-147l22 121h428l-22 -121h-127l-551 -702l-109 -549h203l-25 -121h-788l22 121h201l98 497l-297 754h-127zM616.5 1775.5q12.5 59.5 63.5 102.5q55 45 113 45q59 0 94 -45q35 -43 22 -102q-12 -61 -61 -103 q-49 -43 -111 -43q-59 0 -96 43t-24.5 102.5zM1063 1776q12 57 66 102q55 45 110 45q57 0 96 -45q37 -43 25 -102q-12 -57 -66 -103q-51 -43 -110.5 -43t-95.5 43q-37 46 -25 103z" />
<glyph unicode="&#x179;" horiz-adv-x="1492" d="M907 1637l233 264h279l-348 -264h-164zM-70 0l27 141l1128 1215h-714l-43 -223h-138l70 360h1296l-26 -141l-1118 -1215h753l41 209h137l-67 -346h-1346z" />
<glyph unicode="&#x17a;" horiz-adv-x="1161" d="M606 1215l332 376h278l-446 -376h-164zM-31 0l23 121l698 747q-41 16 -59 29q-127 68 -207 68q-117 0 -299 -146l31 160q176 168 336 168q78 -2 210 -70q141 -72 199 -71q53 0 115 22q55 20 82 37l98 -2l-22 -119l-701 -749q45 -16 64 -29q127 -68 204 -68q119 0 301 146 l-30 -158q-180 -170 -338 -170q-78 2 -211 70q-141 72 -199 71q-53 0 -114 -22q-55 -20 -82 -37z" />
<glyph unicode="&#x17b;" horiz-adv-x="1492" d="M-70 0l27 141l1128 1215h-714l-43 -223h-138l70 360h1296l-26 -141l-1118 -1215h753l41 209h137l-67 -346h-1346zM815 1801.5q12 59.5 63 102.5q55 45 111 45q57 0 96 -45q35 -43 22.5 -102.5t-63.5 -102.5q-53 -43 -110 -43q-59 0 -97 43q-34 43 -22 102.5z" />
<glyph unicode="&#x17c;" horiz-adv-x="1161" d="M583 1409q12 57 66 103q53 43 110 43q59 0 97 -43q35 -43 22 -103q-12 -61 -63 -102q-55 -45 -113 -45q-59 0 -94 45q-37 47 -25 102zM-31 0l23 121l698 747q-41 16 -59 29q-127 68 -207 68q-117 0 -299 -146l31 160q176 168 336 168q78 -2 210 -70q141 -72 199 -71 q53 0 115 22q55 20 82 37l98 -2l-22 -119l-701 -749q45 -16 64 -29q127 -68 204 -68q119 0 301 146l-30 -158q-180 -170 -338 -170q-78 2 -211 70q-141 72 -199 71q-53 0 -114 -22q-55 -20 -82 -37z" />
<glyph unicode="&#x17d;" horiz-adv-x="1492" d="M-70 0l27 141l1128 1215h-714l-43 -223h-138l70 360h1296l-26 -141l-1118 -1215h753l41 209h137l-67 -346h-1346zM614 1899h164l182 -162l244 162h166l-277 -264h-307z" />
<glyph unicode="&#x17e;" horiz-adv-x="1161" d="M-31 0l23 121l698 747q-41 16 -59 29q-127 68 -207 68q-117 0 -299 -146l31 160q176 168 336 168q78 -2 210 -70q141 -72 199 -71q53 0 115 22q55 20 82 37l98 -2l-22 -119l-701 -749q45 -16 64 -29q127 -68 204 -68q119 0 301 146l-30 -158q-180 -170 -338 -170 q-78 2 -211 70q-141 72 -199 71q-53 0 -114 -22q-55 -20 -82 -37zM379 1638h164l168 -227l258 227h166l-332 -376h-241z" />
<glyph unicode="&#x17f;" horiz-adv-x="880" d="M-121 -389q12 68 23 113q82 0 127 57q47 59 71 186l191 975h-158l23 121h157l27 133q33 176 166 268t348 92q78 0 166 -10q72 -8 154 -28l-46 -228h-112q2 10 2 29q0 57 -25 88q-31 37 -98 37q-82 0 -127 -58q-51 -63 -74 -186l-237 -1229q-39 -207 -166 -270 q-189 -90 -412 -90z" />
<glyph unicode="&#x180;" horiz-adv-x="1431" d="M51 0l232 1196h-158l27 137h157l21 103h-152l23 120h506l-43 -223h360l-29 -137h-358l-51 -268q61 84 143 123q86 41 197 41q227 0 327 -150q70 -100 70 -248q0 -76 -18 -162q-53 -262 -211 -411.5t-385 -149.5q-111 0 -181 41q-72 43 -98 123l-24 -135h-355zM477 309 q0 -55 17 -98q31 -84 137 -84q109 0 170 88t106 317q29 147 29 230q0 53 -12 86q-27 88 -136 88q-106 0 -169.5 -82t-100.5 -270l-20 -105q-21 -96 -21 -170z" />
<glyph unicode="&#x181;" horiz-adv-x="1730" d="M-197 1006l70 358q98 70 342 113q88 16 217 16h694q279 0 392 -92q121 -96 84 -277q-25 -135 -136 -211q-111 -77 -301 -98q225 0 324 -121q98 -96 67 -262q-43 -225 -231 -328q-186 -104 -545 -104h-829l22 121h193l244 1251q-197 0 -283 -90q-90 -96 -125 -276h-199z M551 121h141q193 0 299.5 75.5t137 235.5t-45.5 240q-76 78 -268 78h-141zM696 870h131q172 0 267 62q96 66 120 192q25 131 -45 189q-70 59 -243 59h-131z" />
<glyph unicode="&#x182;" horiz-adv-x="1748" d="M-49 0l22 121h193l244 1251h-193l25 121h1450l-72 -373h-135l45 236h-739l-95 -486h131q254 0 365 -20q190 -33 315 -156q76 -74 76 -186q0 -49 -6 -76q-43 -223 -231 -328q-186 -104 -564 -104h-831zM551 121h143q209 0 316 76q109 78 139 235q8 41 8 86q0 98 -53 152 q-80 80 -287 80h-143z" />
<glyph unicode="&#x183;" horiz-adv-x="1431" d="M-100 0l22 121h152l256 1315h-152l23 120h1106l-58 -288h-121l33 168h-477l-98 -508q63 86 143 125t197 39q229 0 329.5 -149.5t49.5 -410.5q-53 -264 -209 -411q-158 -150 -387 -150q-111 0 -181 41q-72 43 -98 123l-24 -135h-506zM492 211q31 -84 139 -84t169.5 88 t106.5 317q45 225 17 316q-27 88 -135.5 88t-172.5 -82q-59 -78 -98 -270l-20 -105q-37 -186 -6 -268z" />
<glyph unicode="&#x184;" horiz-adv-x="1748" d="M-49 0l22 121h193l137 713h-287l25 120l776 539l-121 -623h131q205 0 342 -18q16 0 23 -2q190 -33 311 -152l4 -4q100 -98 70 -262q-43 -223 -231 -328q-186 -104 -564 -104h-831zM551 121h143q201 0 310 72l2 2q2 2 4 2q109 78 139 235q31 160 -47 240q-74 74 -268 78 h-17h-143z" />
<glyph unicode="&#x185;" horiz-adv-x="1431" d="M-102 0l24 121h152l172 887h-199l25 120l635 428l-121 -628q61 84 143 123q86 41 197 41q229 0 329.5 -149.5t49.5 -410.5q-53 -262 -211 -411.5t-385 -149.5q-111 0 -181 41q-72 43 -98 123l-27 -135h-505zM492 211q31 -84 139 -84t170 88q66 94 106 317q43 231 17 316 q-29 88 -138 88q-104 0 -167.5 -82t-100.5 -270l-20 -105q-37 -186 -6 -268z" />
<glyph unicode="&#x186;" horiz-adv-x="1628" d="M2 100l72 367h127q4 -193 86 -281q88 -94 254 -94q218 0 356 160q135 156 201 493q63 332 -11 494q-74 160 -294 160q-152 0 -260.5 -82t-186.5 -252h-199q106 236 279 344q176 111 434 111q379 0 557 -209q176 -207 109 -566q-68 -354 -330 -565q-261 -209 -639 -209 q-132 0 -270 31q-123 26 -285 98z" />
<glyph unicode="&#x187;" horiz-adv-x="1628" d="M66 745q70 358 331 568q256 207 637 207q132 0 271 -31q31 -6 112 -33q41 129 139.5 196.5t200.5 67.5q53 0 125 -10q63 -8 135 -29l-43 -225h-112q16 84 -9 117q-20 35 -90 35q-74 0 -110 -47q-37 -45 -62 -170l-71 -367h-127q-4 188 -88 283q-86 92 -254 92 q-215 0 -355 -162q-138 -160 -202 -492q-63 -332 10 -493q74 -160 295 -160q154 0 262 82q111 83 184 252h199q-106 -233 -279 -342q-178 -113 -432 -113q-379 0 -557 209q-178 207 -110 565z" />
<glyph unicode="&#x188;" horiz-adv-x="1245" d="M49 532q53 266 234 412q184 147 456 148q117 0 219 -21l11 51q31 164 164 248q131 82 233 82q70 0 127 -8q43 -6 133 -31l-43 -223h-113q14 80 -10 115q-20 35 -88 34q-74 0 -110 -47q-37 -45 -62 -170l-22 -114l-58 -295h-112q10 137 -39 200q-49 66 -164 66 q-150 0 -232 -100q-80 -96 -129 -347q-46 -240 -6 -344t178 -104q109 0 185 63q78 66 114 185h166q-76 -184 -209 -272.5t-335 -88.5q-283 0 -412 148q-129 145 -76 413z" />
<glyph unicode="&#x189;" horiz-adv-x="1789" d="M-37 0l25 121h190l117 592h-213l27 137h213l102 522h-193l23 121h768q399 0 575 -193q175 -190 105 -552q-70 -360 -320 -555q-248 -193 -651 -193h-768zM563 121h139q233 0 371 149q135 147 201 478q66 326 -14 475t-314 149h-137l-102 -522h331l-26 -137h-332z" />
<glyph unicode="&#x18a;" horiz-adv-x="1775" d="M-197 1006l70 358q98 70 342 113q88 16 217 16h576q401 0 577 -193q175 -190 105 -552t-322 -555t-651 -193h-766l22 121h193l244 1251q-197 0 -283 -90q-90 -96 -125 -276h-199zM551 121h137q238 0 375 149q133 145 199 478q63 324 -17 475q-76 150 -311 149h-139z" />
<glyph unicode="&#x18b;" horiz-adv-x="1748" d="M35 432q31 162 172 262l4 4q168 117 371 152q6 2 22 2q145 18 348 18h133l95 486h-740l-45 -236h-135l72 373h1450l-23 -121h-190l-246 -1251h193l-23 -121h-831q-375 0 -523 104q-147 105 -104 328zM463 432q-31 -158 47 -235l4 -4q82 -72 281 -72h143l125 629h-145h-17 q-197 0 -299 -78q-108 -80 -139 -240z" />
<glyph unicode="&#x18c;" horiz-adv-x="1431" d="M2 532q51 260 211 410q158 150 385 150q115 0 180 -39q70 -41 99 -125l98 508h-477l-33 -168h-123l57 288h1104l-22 -120h-152l-256 -1315h152l-23 -121h-506l27 135q-61 -82 -145 -123q-86 -41 -197 -41q-227 0 -328 150q-102 153 -51 411zM383 215q27 -88 135 -88 q104 0 170 84q63 82 100 268l21 105q37 184 4 270q-31 82 -135 82q-111 0 -172 -88q-59 -84 -107 -316q-45 -225 -16 -317z" />
<glyph unicode="&#x18d;" horiz-adv-x="1363" d="M80 -455l41 213h112q-2 -35 11 -57q4 -10 45 -45q59 -47 164 -47q119 0 192 49l39 27q46 34 55 122q31 164 -118 164q-283 0 -412 150q-131 154 -80 409q53 262 242 412q186 150 469 150q281 0 409 -150q132 -151 80 -412q-53 -264 -239 -409q-111 -90 -127 -80 q143 -94 116 -238q-35 -170 -180 -237l-12 -6q-139 -63 -359 -64q-101 0 -221 12q-116 12 -227 37zM504 180q25 -96 139 -96q113 0 178 96q68 102 115 350q49 252 20 353q-27 96 -139 96t-178 -96q-63 -92 -113 -353q-49 -258 -22 -350z" />
<glyph unicode="&#x18e;" horiz-adv-x="1560" d="M-49 0l67 352h138l-41 -215h647l117 604h-392l-36 -190h-138l101 516h137l-37 -190h391l92 479h-626l-41 -215h-140l68 352h1344l-23 -121h-193l-243 -1251h190l-22 -121h-1360z" />
<glyph unicode="&#x18f;" horiz-adv-x="1783" d="M86 745l16 84h1180q51 270 -25 408q-74 162 -294 162q-147 0 -261 -84q-109 -82 -186 -252h-199q104 229 281 344q178 113 430 113q379 0 557 -209t111 -566q-72 -367 -324 -569q-254 -205 -630.5 -205t-551.5 205q-176 207 -104 569zM500 670q-55 -281 12 -416 q68 -162 252 -162q190 0 315 162q119 141 172 416h-751z" />
<glyph unicode="&#x190;" horiz-adv-x="1476" d="M166 313q0 -145 108 -231q141 -111 521 -111q238 0 395.5 94.5t224.5 198.5h-198q-127 -176 -353 -176q-190 0 -252 84q-39 53 -39 123q0 244 146 367q102 88 383 88h65l23 120h-51q-266 0 -328 68q-43 49 -43 127q0 45 6 72q25 129 109 198q83 68 252 68 q168 0 221 -59.5t53 -157.5q0 -6 -1 -17.5t-1 -17.5h121l57 299q-248 70 -498 70q-346 0 -509 -97q-163 -95 -197 -276q-8 -49 -8 -72q0 -207 268 -260q-399 -61 -467 -412q-8 -41 -8 -90z" />
<glyph unicode="&#x191;" horiz-adv-x="1452" d="M-348 -358l45 235h129q-27 -143 68 -174q23 -8 57 -8q96 0 149 76q51 68 93 278l258 1323h-193l25 121h1331l-70 -352h-135l41 215h-616l-93 -479h379l37 190h137l-100 -516h-137l37 190h-379l-137 -700q-51 -262 -218 -373q-143 -94 -385 -94q-163 0 -323 68z" />
<glyph unicode="&#x192;" horiz-adv-x="880" d="M-377 -350l45 227h113q0 -6 -1 -15t-1 -14q0 -59 22 -88q31 -37 101 -36q82 0 127 57q47 59 71 186l191 975h-158l23 121h157l27 133q33 176 166 268t348 92q78 0 166 -10q72 -8 154 -28l-46 -228h-112q0 6 1 15.5t1 13.5q0 57 -25 88q-31 37 -98 37q-82 0 -127 -58 q-51 -63 -74 -186l-26 -137h268l-25 -121h-266l-188 -971q-34 -178 -166 -270q-129 -90 -350 -90q-92 0 -164 8q-58 6 -154 31z" />
<glyph unicode="&#x193;" horiz-adv-x="1748" d="M66 745q70 360 331 568q260 207 643 207q236 0 310 -31l114 -53q57 158 144 217q98 68 200 67q53 0 125 -10q59 -8 138 -29l-46 -225h-112q16 82 -10 117q-20 35 -88 35q-74 0 -111 -47q-37 -45 -62 -170l-71 -367h-127q-6 199 -94 287t-281 88q-231 0 -371 -158 q-141 -160 -204 -496q-66 -338 7.5 -495.5t293.5 -157.5q83 0 159 19q74 18 144 57l80 410h-181l23 120h539l-111 -573q-201 -84 -358 -117q-175 -37 -351 -37q-385 0 -563 207q-182 207 -110 567z" />
<glyph unicode="&#x194;" horiz-adv-x="1576" d="M154 1386l18 107h682l-20 -107h-56l185 -419l393 419h-199l21 107h563l-23 -107h-192l-506 -532q414 -764 201 -897q-231 -145 -613 -145q-406 0 -440 200q-29 184 516 699l-346 675h-184zM334 80q-12 -76 61.5 -113t235.5 -35q287 2 303 154q12 113 -186 510 q-391 -383 -414 -516z" />
<glyph unicode="&#x195;" horiz-adv-x="2134" d="M70 0l278 1436h-158l25 120h512l-125 -643q82 94 172 138q84 41 215 41q176 0 250 -107q70 -104 31 -309l-64 -330q-43 -225 109 -225q100 0 184 112.5t121 296.5q31 158 8 256q-29 121 -53 150l6 43h129q170 -68 244 -193q80 -129 51 -272q-20 -106 -90 -207 q-68 -96 -176 -172q-96 -68 -211 -102q-111 -35 -238 -35q-254 0 -362.5 87t-73.5 263l64 338q29 139 4 188q-25 51 -111 52q-106 0 -172 -78q-66 -80 -98 -250l-117 -598h-354z" />
<glyph unicode="&#x196;" horiz-adv-x="956" d="M207 338l203 1034h-193l25 121h768l-25 -121h-190l-199 -1022q-25 -131 2 -190q28 -61 123 -62l-21 -98h-198q-203 0 -234 25q-108 77 -61 313z" />
<glyph unicode="&#x197;" horiz-adv-x="956" d="M-49 0l22 121h193l104 538h-250l37 193h250l103 520h-193l25 121h768l-25 -121h-190l-103 -520h248l-37 -193h-248l-104 -538h190l-22 -121h-768z" />
<glyph unicode="&#x198;" horiz-adv-x="1779" d="M-49 0l22 121h193l244 1251h-193l25 121h768l-25 -121h-190l-107 -545l739 545q158 117 302 121q61 0 126 -8q39 -6 136 -31l-43 -223h-113q14 78 -10.5 114.5t-87.5 34.5q-102 -2 -164 -49l-574 -420l576 -790h145l-22 -121h-506l-524 725l-117 -604h190l-22 -121h-768z " />
<glyph unicode="&#x199;" horiz-adv-x="1417" d="M70 0l237 1227q31 162 164 245.5t356 83.5q55 0 127 -10q55 -8 136 -28l-43 -226h-113q14 78 -10 117q-23 35 -88 35q-74 0 -111 -47q-39 -53 -63 -170l-130 -670l504 385h-127l23 121h289l-25 -121l-322 -246l336 -575h115l-22 -121h-392l-290 500l-117 -88l-80 -412 h-354z" />
<glyph unicode="&#x19a;" horiz-adv-x="776" d="M12 479l23 121h151l162 836h-149l22 120h504l-184 -956h151l-22 -121h-154l-70 -358h152l-23 -121h-505l94 479h-152z" />
<glyph unicode="&#x19b;" horiz-adv-x="1435" d="M-74 0l23 121h117l696 989l-469 -252l-43 107l477 256q-47 127 -104 155q-41 23 -127 25q-66 0 -109 -37q-39 -35 -57 -115h-115l43 221q74 20 137 31q72 12 113 12q225 0 317 -241l238 127l43 -107l-246 -131v-2l244 -1038h123l-23 -121h-399l22 121h140l-117 579 l-420 -579h129l-22 -121h-611z" />
<glyph unicode="&#x19c;" horiz-adv-x="2166" d="M156 387l190 985h-151l22 121h635l-25 -121h-127l-182 -932q-37 -201 -16.5 -252t102.5 -51q94 0 160 72q68 74 92 207l186 956h-127l23 121h608l-22 -121h-127l-183 -932q-37 -201 -16 -252t102 -51q96 0 162 72q68 74 92 207l185 956h-127l24 121h631l-22 -121h-152 l-244 -1251h152l-23 -121h-505l28 150q-80 -92 -168 -135.5t-198 -43.5q-131 0 -201 49q-74 51 -94 154q-90 -102 -191 -154q-96 -49 -211 -49q-184 0 -253.5 102.5t-28.5 313.5z" />
<glyph unicode="&#x19d;" horiz-adv-x="1871" d="M-354 -358l45 235h129q-27 -143 67 -174q23 -8 58 -8q96 0 149 76q53 74 92 278l258 1323h-190l22 121h467l697 -1057l182 936h-190l22 121h522l-22 -121h-193l-266 -1372h-262l-705 1079l-202 -1038q-55 -285 -185 -389q-100 -78 -237 -78q-27 0 -99 16q-85 21 -159 52z " />
<glyph unicode="&#x19e;" horiz-adv-x="1488" d="M156 0l184 942h-152l25 121h504l-29 -150q82 94 172 138q84 41 215 41q180 0 250 -107q72 -111 33 -309l-193 -981h152l-25 -121h-504l218 1112q25 139 2 188q-25 51 -111 52q-106 0 -172 -78q-66 -80 -98 -250l-117 -598h-354z" />
<glyph unicode="&#x19f;" horiz-adv-x="1783" d="M86 745.5q70 360.5 326 567.5t630 207q379 0 551 -205q172 -207 103 -570q-72 -365 -326 -569.5t-631 -204.5t-549 205q-174 209 -104 569.5zM500 670q-43 -270 12 -416q61 -162 251.5 -162t315.5 162q106 135 172 416h-751zM532 829h750q41 270 -10 408 q-61 162 -254 162q-190 0 -316 -162q-104 -138 -170 -408z" />
<glyph unicode="&#x1a0;" horiz-adv-x="1783" d="M1481 1251l25 127q63 -55 88 -70q34 -18 61 -18q41 0 70 29q31 31 39 80q8 35 8 80t-8 77h155q0 -37 -4 -102q-2 -47 -12 -90q-23 -115 -80 -176q-58 -61 -141 -62q-51 0 -100.5 31t-100.5 94zM86 745q70 360 326 567.5t630 207.5q379 0 551 -205q123 -147 123 -373 q0 -92 -20 -197q-72 -365 -326 -569.5t-631 -204.5t-549 205q-124 149 -124 376q0 91 20 193zM512 254q61 -162 252 -162q188 0 315 162q123 156 189 491q33 167 32 292q0 121 -30 200q-61 162 -252 162t-316 -162q-123 -160 -188 -492q-33 -166 -32 -290q0 -120 30 -201z " />
<glyph unicode="&#x1a1;" horiz-adv-x="1363" d="M1108 817l25 127q63 -55 88 -70q34 -18 61 -18q41 0 70 29q31 31 39 80q8 35 8 80t-8 77h155q0 -37 -4 -102q-2 -47 -12 -90q-23 -115 -80 -176q-58 -61 -141 -62q-51 0 -100.5 31t-100.5 94zM70 393q0 70 14 139q52 264 240 412q188 147 469 148q283 0 411 -148 q94 -106 94 -272q0 -70 -14 -140q-52 -261 -240 -411q-186 -150 -468.5 -150t-411.5 150q-94 106 -94 272zM446 270q0 -53 11 -90q27 -96 141 -96q109 0 174.5 96t114.5 352q33 162 33 267q0 49 -11 86q-25 94 -139 94q-111 0 -176 -96q-66 -98 -115 -351q-33 -174 -33 -262 z" />
<glyph unicode="&#x1a2;" horiz-adv-x="2457" d="M117 745q70 360 325.5 567.5t628.5 207.5q256 0 418 -95q88 33 176 52q80 16 170 16q266 0 369 -113q100 -109 53 -354l-244 -1255h191l-25 -121h-768l25 121h190l242 1247q41 209 16 280q-25 74 -121 74q-74 0 -123 -45q-12 -8 -16 -14q172 -207 102 -568 q-72 -365 -325.5 -569.5t-630.5 -204.5t-551 204.5t-102 569.5zM543 254q61 -162 252 -162q188 0 315 162q123 156 188 491q63 330 2 492t-251.5 162t-315.5 -162q-123 -160 -188 -492q-63 -327 -2 -491z" />
<glyph unicode="&#x1a3;" horiz-adv-x="1931" d="M125 532q53 266 237 412q186 147 472 148q186 0 307 -66q150 37 266 37q223 0 324 -84q98 -83 67 -246l-203 -1038h164l-22 -121h-520l227 1159q25 125 4 170q-23 47 -86 47q-68 0 -100 -26q109 -150 61 -400q-49 -252 -238 -403q-186 -150 -471 -150q-283 0 -411 150 q-129 151 -78 411zM495.5 180q26.5 -96 141.5 -96q111 0 176 96q63 92 113 352q49 255 24 351t-139 96q-113 0 -178 -96q-66 -98 -115 -351q-49 -256 -22.5 -352z" />
<glyph unicode="&#x1a4;" horiz-adv-x="1538" d="M-197 1006l70 358q98 70 342 113q88 16 217 16h660q252 0 372 -119q125 -117 84 -317q-40 -200 -209 -320q-170 -119 -417 -119h-275l-96 -497h240l-23 -121h-817l22 121h193l244 1251q-197 0 -283 -90q-90 -96 -125 -276h-199zM672 739h110q131 0 226 86 q92 84 120.5 231.5t-30.5 229.5q-61 86 -193 86h-110z" />
<glyph unicode="&#x1a5;" horiz-adv-x="1431" d="M16 -426l301 1548q31 166 162 248t359 82q70 0 127 -8q47 -6 135 -31l-45 -223h-113q14 76 -8 115q-20 35 -88 34q-72 0 -113 -47q-35 -41 -61 -170l-37 -194q63 86 143 125t197 39q227 0 327.5 -149.5t51.5 -410.5t-209 -411q-158 -150 -387 -150q-111 0 -180 41 q-72 43 -99 123l-108 -561h-355zM541 211q31 -84 139 -84t170 88q66 94 106 317q43 231 17 316q-27 88 -137 88q-106 0 -170 -82q-59 -78 -99 -270l-20 -105q-37 -186 -6 -268z" />
<glyph unicode="&#x1a6;" horiz-adv-x="1701" d="M-25 0l25 121h190l246 1251h-190l22 121h764l-22 -121h-189l-33 -170h277q261 0 381 -104q92 -80 92 -211q0 -45 -8 -86q-61 -311 -475 -363q86 -12 139 -59t80 -133l137 -416h154l-25 -121h-489l-152 451q-49 150 -86 182q-39 35 -125 35h-59l-54 -256h193l-25 -121 h-768zM651 498h131q143 0 232 75q90 78 116 218q8 39 9 79q0 86 -41 136q-63 76 -201 75h-131z" />
<glyph unicode="&#x1a7;" horiz-adv-x="1478" d="M74 432q37 190 151 303q111 109 334 162l236 55q215 53 274 101q61 49 80 141q20 100 -45 154q-63 51 -215 51q-180 0 -293 -72q-111 -72 -170 -225h-127l63 330q168 45 306 65q154 23 278 23q264 0 387 -123q125 -123 82 -346q-33 -182 -143 -283q-106 -100 -338 -156 l-236 -55q-181 -43 -245 -92q-63 -47 -82 -141q-23 -115 47 -172q72 -59 225 -60q195 0 315 82q125 84 187 252h127l-70 -354q-156 -51 -307 -76q-150 -25 -297 -25q-303 0 -434 117q-133 117 -90 344z" />
<glyph unicode="&#x1a8;" horiz-adv-x="1150" d="M47 322q29 141 123 217q98 80 313 131l154 37q88 23 125 53.5t49 83.5q12 66 -37 100q-51 35 -158 35q-127 0 -206.5 -55.5t-110.5 -163.5h-113l54 268q115 29 243 47q119 16 205 17q248 0 354 -84q102 -84 68 -258q-25 -129 -113 -205q-92 -80 -262 -119l-153 -37 q-104 -23 -154 -61q-43 -34 -55 -99q-12 -70 37 -106q51 -39 157 -39q131 0 217 61q86 66 123 183h115l-57 -297q-117 -29 -244 -45q-106 -14 -213 -15q-274 0 -383 84q-111 87 -78 267z" />
<glyph unicode="&#x1a9;" horiz-adv-x="1447" d="M-61 0l809 748l-521 745h1227l-63 -332h-123l37 195h-510l307 -469l-668 -608h662l28 143h123l-82 -422h-1226z" />
<glyph unicode="&#x1aa;" horiz-adv-x="677" d="M-109 -96l426 1229q-25 -2 -73 -3q-63 0 -109 13q-145 37 -115 188q43 223 392 225q129 0 225 -83q61 -53 78 -123q29 20 53 51q35 41 63 123h111q-20 -96 -80 -170q-49 -63 -155 -119q0 -2 -1 -4t-1 -4l-459 -1327q-39 -117 0 -187q33 -57 104 -57q66 0 115 39 q45 37 67 115h111l-43 -228q-92 -20 -166 -28q-92 -10 -168 -11q-206 0 -313 92q-119 105 -62 269zM156 1346q-12 -63 26.5 -95t130.5 -30q23 0 35 2l2 4q43 125 4 170q-25 27 -53 30q-127 7 -145 -81z" />
<glyph unicode="&#x1ab;" horiz-adv-x="944" d="M129 -416l45 226h113q-14 -74 10 -117q20 -35 88 -35q70 0 111 47q37 47 61 170l18 96h-4q-218 0 -282 68q-66 68 -29 252l125 651h-154l25 121h154l63 330h354l-63 -330h295l-25 -121h-295l-125 -651q-28 -138 -12 -172q16 -35 74 -35h276l-41 -209q-31 -162 -164 -246 t-356 -84q-49 0 -125 11q-63 8 -137 28z" />
<glyph unicode="&#x1ac;" horiz-adv-x="1523" d="M86 1006l70 358q98 70 342 113q88 16 217 16h934l-72 -373h-135l45 236h-414l-239 -1235h198l-22 -121h-785l25 121h196l240 1235q-207 0 -278 -74q-86 -92 -123 -276h-199z" />
<glyph unicode="&#x1ad;" horiz-adv-x="944" d="M84 942l22 121h154l33 164q31 162 164 245.5t356 83.5q53 0 125 -10q63 -8 135 -28l-43 -226h-112q12 82 -9 117q-23 35 -90 35q-70 0 -110 -47q-37 -43 -62 -170l-33 -164h295l-22 -121h-295l-127 -651q-28 -138 -12 -172q16 -35 73 -35q65 0 105 43q39 41 57 133h150 q-31 -160 -131 -223q-94 -66 -283 -66q-219 0 -285 70q-63 66 -28 250l127 651h-154z" />
<glyph unicode="&#x1ae;" horiz-adv-x="1523" d="M137 1120l74 373h1479l-72 -373h-135l45 236h-412l-254 -1307q-41 -207 -16 -278q25 -76 121 -76q74 0 123 45q47 45 71 137h129l-45 -235q-90 -33 -180 -52q-76 -16 -170 -16q-266 0 -369 113q-100 109 -53 354l256 1315h-410l-45 -236h-137z" />
<glyph unicode="&#x1af;" horiz-adv-x="1785" d="M201 1372l22 121h768l-22 -121h-193l-143 -747q-25 -127 -25 -219q0 -110 35 -170q66 -113 276 -113q209 0 315.5 112.5t162.5 389.5l145 747h-190l22 121h520l-22 -121h-193l-147 -768q-63 -340 -244 -487q-176 -145 -524 -145.5t-469 147.5q-77 95 -78 269q0 97 25 218 l149 766h-190zM1612 1247l25 127q63 -55 88 -70q34 -18 61 -18q41 0 70 29q31 31 39 80q8 35 8 80t-8 77h155q0 -37 -4 -102q-2 -47 -12 -90q-23 -115 -80 -176q-58 -61 -141 -62q-51 0 -100.5 31t-100.5 94z" />
<glyph unicode="&#x1b0;" horiz-adv-x="1488" d="M133 942l25 121h505l-120 -621q-25 -127 -25 -192q0 -41 8 -60q23 -53 111 -53q109 0 172 78q65 80 98 252l117 596h354l-182 -942h149l-22 -121h-506l29 150q-82 -94 -172 -138q-84 -41 -215 -41q-180 0 -250 105q-45 66 -45 176q0 66 14 135l109 555h-154zM1231 817 l25 127q63 -55 88 -70q34 -18 61 -18q41 0 70 29q31 31 39 80q8 35 8 80t-8 77h155q0 -37 -4 -102q-2 -47 -12 -90q-23 -115 -80 -176q-58 -61 -141 -62q-51 0 -100.5 31t-100.5 94z" />
<glyph unicode="&#x1b1;" horiz-adv-x="1822" d="M82 702q43 223 194 381q154 160 410 252h-334l-24 -125h-138l62 310h731l-37 -193q-160 -31 -272 -184q-109 -150 -162 -418q-57 -291 14 -449q72 -156 262.5 -155.5t321.5 155.5q127 152 186 451q51 268 0 416q-53 154 -198 184l37 193h735l-62 -310h-135l25 125h-336 q217 -92 309 -251.5t49 -381.5q-61 -313 -323 -507.5t-633 -194.5q-369 0 -557 195q-186 192 -125 507z" />
<glyph unicode="&#x1b2;" horiz-adv-x="1822" d="M272 338l203 1034h-190l22 121h768l-22 -121h-193l-194 -999q-25 -131 2 -191q28 -61 123 -61q190 0 321 155q127 152 186 451q53 264 0 416q-45 129 -104 129l20 100h119q229 -88 342 -289q90 -162 47 -381q-61 -315 -323 -509q-260 -193 -631 -193h-201q-203 0 -233 25 q-109 77 -62 313z" />
<glyph unicode="&#x1b3;" horiz-adv-x="1460" d="M102 1372l25 121h717l-25 -121h-166l226 -569l444 569q98 123 268 123q43 0 84 -10q59 -8 137 -29l-45 -225h-112q14 76 -8 115q-20 37 -91 36q-74 0 -110 -47l-520 -665l-109 -549h203l-25 -121h-788l22 121h201l98 497l-299 754h-127z" />
<glyph unicode="&#x1b4;" horiz-adv-x="1429" d="M-43 -412l43 222h115q-12 -78 14.5 -115t91.5 -37q70 0 113 35t106 135l23 37l-254 1077h-115l25 121h612l-24 -121h-127l147 -629l375 629q88 150 260 150q25 0 96 -11q59 -8 137 -28l-45 -226h-112q14 78 -8 117q-20 35 -91 35q-82 4 -110 -47l-699 -1172 q-71 -117 -147 -166t-193 -49q-57 0 -106 11q-72 14 -127 32z" />
<glyph unicode="&#x1b5;" horiz-adv-x="1492" d="M-70 0l27 141l481 518h-221l37 193h362l469 504h-714l-43 -223h-138l70 360h1296l-26 -141l-463 -500h244l-37 -193h-381l-481 -522h753l41 209h137l-67 -346h-1346z" />
<glyph unicode="&#x1b6;" horiz-adv-x="1161" d="M-31 0l23 121l334 358h-199l23 121h288l252 268q-23 8 -59 29q-123 68 -207 68q-117 0 -299 -146l31 160q184 170 336 168q76 0 210 -70q141 -72 199 -71q53 0 115 22q55 20 82 37l98 -2l-22 -119l-320 -344h184l-22 -121h-277l-266 -284q41 -14 64 -29q123 -68 204 -68 q119 0 301 146l-30 -158q-186 -172 -338 -170q-76 0 -211 70q-141 72 -199 71q-53 0 -114 -22q-55 -20 -82 -37z" />
<glyph unicode="&#x1b7;" horiz-adv-x="1343" d="M-61 51l63 328h121q-16 -145 47 -217q65 -74 203 -74q154 0 250 84q100 88 131 240q31 162 -39 250t-230 88h-65l45 225l338 381h-430l-43 -223h-137l69 360h979l-27 -137l-462 -516q213 -20 311 -107q135 -117 94 -330q-41 -211 -227 -321q-188 -111 -502 -111 q-121 0 -238 21q-136 24 -251 59z" />
<glyph unicode="&#x1b8;" horiz-adv-x="1343" d="M6 403q41 209 225 330q133 86 353 107l-265 516l27 137h979l-70 -360h-137l43 223h-430l193 -381l-45 -225h-66q-160 0 -262 -88q-104 -90 -135 -250q-31 -154 37 -240q66 -84 219 -84q137 0 229 74q94 76 131 217h121l-63 -328q-125 -35 -275 -59q-123 -20 -248 -21 q-313 0 -456 111q-146 110 -105 321z" />
<glyph unicode="&#x1b9;" horiz-adv-x="1343" d="M10 16q41 209 226 330q129 86 352 107l-269 491l23 119h991l-57 -299h-121l37 182h-461l197 -358l-43 -226h-68q-160 0 -262 -88q-104 -90 -135 -249q-31 -154 37 -240q66 -84 219 -84q137 0 229 74q90 72 131 217h121l-63 -328q-125 -35 -275 -59q-123 -20 -248 -21 q-313 0 -456 111q-146 110 -105 321z" />
<glyph unicode="&#x1bb;" horiz-adv-x="1423" d="M-10 0l47 244l250 153q256 160 370 262h-444l39 193h563q49 90 70 197q35 176 -21 264q-53 90 -190 90q-115 0 -203 -72q-82 -68 -129 -207h-121l62 322q127 37 254 55q123 18 243 19q287 0 422 -115q135 -117 96 -326q-25 -123 -106 -227h117l-37 -193h-303 q-68 -45 -201 -124l-469 -273h709l32 176h138l-84 -438h-1104z" />
<glyph unicode="&#x1bc;" horiz-adv-x="1542" d="M129 51l64 328h120q-16 -143 49 -217q63 -74 201 -74q156 0 252 84q98 86 129 240q31 162 -38.5 250t-227.5 88h-387l121 622h-193l25 121h1331l-70 -352h-135l41 215h-616l-95 -486q152 0 347 -30q188 -31 266 -133q76 -100 37 -304q-41 -209 -230 -321 q-186 -111 -499 -111q-123 0 -240 21q-137 24 -252 59z" />
<glyph unicode="&#x1bd;" horiz-adv-x="1161" d="M-57 -336l63 328h121q-18 -141 47 -217q65 -74 203 -74q154 0 250 84q100 88 131 240q31 160 -39 249q-68 88 -227 88h-265l113 580h-152l25 121h1104l-55 -289h-121l30 168h-477l-90 -459q113 -4 156 -12q250 -51 309 -104q138 -120 92 -351q-41 -211 -227 -321 q-188 -111 -502 -111q-123 0 -239 21q-133 22 -250 59z" />
<glyph unicode="&#x1be;" horiz-adv-x="1097" d="M-76 37l35 196h113q-12 -80 10 -114.5t111 -34.5q104 0 137 45q35 51 84 283q43 211 6 254q-25 31 -98 30h-115l45 232h-156l23 121h155l68 344h352l-65 -344h147l-22 -121h-150l-26 -142q31 -12 100 -84q82 -84 35 -321q-43 -225 -160 -318q-119 -94 -377 -94 q-63 0 -133 17q-58 14 -119 51z" />
<glyph unicode="&#x1c0;" horiz-adv-x="602" d="M49 0l291 1493h215l-291 -1493h-215z" />
<glyph unicode="&#x1c1;" horiz-adv-x="1007" d="M452 0l291 1493h215l-291 -1493h-215zM49 0l291 1493h215l-291 -1493h-215z" />
<glyph unicode="&#x1c2;" horiz-adv-x="937" d="M-35 479l33 162h344l41 211h-344l31 162h344l94 479h215l-94 -479h346l-33 -162h-344l-41 -211h344l-31 -162h-344l-94 -479h-215l94 479h-346z" />
<glyph unicode="&#x1c3;" horiz-adv-x="602" d="M49 0l41 215h215l-41 -215h-215zM133 432l207 1061h215l-207 -1061h-215z" />
<glyph unicode="&#x1c4;" horiz-adv-x="3270" d="M1706 0l27 141l1128 1215h-714l-43 -223h-138l70 360h1296l-26 -141l-1118 -1215h753l41 209h137l-67 -346h-1346zM2390 1899h164l182 -162l244 162h166l-277 -264h-307zM-49 0l22 121h193l244 1251h-193l25 121h766q401 0 577 -193q125 -136 125 -358q0 -90 -20 -194 q-70 -362 -322 -555q-250 -193 -651 -193h-766zM551 121h137q236 0 373 149q135 147 201 478q29 148 29 258q0 135 -44 217q-80 150 -313 149h-139z" />
<glyph unicode="&#x1c5;" horiz-adv-x="2938" d="M1745 0l23 121l698 747q-41 16 -59 29q-127 68 -207 68q-117 0 -299 -146l31 160q176 168 336 168q78 -2 210 -70q141 -72 199 -71q53 0 115 22q55 20 82 37l98 -2l-22 -119l-701 -749q45 -16 64 -29q127 -68 204 -68q119 0 301 146l-30 -158q-180 -170 -338 -170 q-78 2 -211 70q-141 72 -199 71q-53 0 -114 -22q-55 -20 -82 -37zM2155 1638h164l168 -227l258 227h166l-332 -376h-241zM-49 0l22 121h193l244 1251h-193l25 121h766q401 0 577 -193q125 -136 125 -358q0 -90 -20 -194q-70 -362 -322 -555q-250 -193 -651 -193h-766z M551 121h137q236 0 373 149q135 147 201 478q29 148 29 258q0 135 -44 217q-80 150 -313 149h-139z" />
<glyph unicode="&#x1c6;" horiz-adv-x="2594" d="M1401 0l23 121l698 747q-41 16 -59 29q-127 68 -207 68q-117 0 -299 -146l31 160q176 168 336 168q78 -2 210 -70q141 -72 199 -71q53 0 115 22q55 20 82 37l98 -2l-22 -119l-701 -749q45 -16 64 -29q127 -68 204 -68q119 0 301 146l-30 -158q-180 -170 -338 -170 q-78 2 -211 70q-141 72 -199 71q-53 0 -114 -22q-55 -20 -82 -37zM1811 1638h164l168 -227l258 227h166l-332 -376h-241zM23 369q0 84 16 163q53 262 209 410q158 150 385 150q111 0 180 -41q72 -43 98 -123l99 508h-152l23 120h505l-301 -1556h-354l27 135 q-63 -84 -146 -123q-88 -41 -196 -41q-227 0 -328 150q-65 98 -65 248zM408 303q0 -51 10 -88q27 -88 137 -88q102 0 168 84q63 82 100 268l21 105q18 98 18 170q0 63 -14 100q-31 82 -135 82q-109 0 -172 -88q-59 -84 -107 -316q-26 -135 -26 -229z" />
<glyph unicode="&#x1c7;" horiz-adv-x="2408" d="M1116 -358l45 235h132q-4 -27 -4 -50q0 -57 22 -87q33 -45 104 -45q98 0 152 74q51 74 92 280l256 1323h-217l25 121h794l-22 -121h-193l-258 -1331q-45 -242 -192.5 -354.5t-411.5 -112.5q-90 0 -162 16q-90 21 -162 52zM-49 0l22 121h193l244 1251h-193l25 121h768 l-25 -121h-190l-240 -1235h588l45 236h135l-74 -373h-1298z" />
<glyph unicode="&#x1c8;" horiz-adv-x="2179" d="M1102 -416l43 226h115q-6 -31 -6 -56q0 -39 14 -59q23 -37 88 -37q76 0 113 47q37 45 61 170l207 1067h-152l25 121h506l-232 -1188q-31 -162 -164 -246t-356 -84q-51 0 -127 11q-59 8 -135 28zM1774 1325q0 10 4 39q16 80 82 137q65 55 147 55q78 0 125 -57 q33 -41 33 -96q0 -10 -4 -39q-16 -80 -82 -135q-68 -55 -145.5 -55t-124.5 55q-35 41 -35 96zM-49 0l22 121h193l244 1251h-193l25 121h768l-25 -121h-190l-240 -1235h588l45 236h135l-74 -373h-1298z" />
<glyph unicode="&#x1c9;" horiz-adv-x="1517" d="M438 -416l43 226h115q-6 -31 -6 -56q0 -39 14 -59q23 -37 88 -37q76 0 113 47q37 45 61 170l207 1067h-152l25 121h506l-232 -1188q-31 -162 -164 -246t-356 -84q-51 0 -127 11q-59 8 -135 28zM1110 1325q0 10 4 39q16 80 82 137q65 55 147 55q78 0 125 -57 q33 -41 33 -96q0 -10 -4 -39q-16 -80 -82 -135q-68 -55 -145.5 -55t-124.5 55q-35 41 -35 96zM70 0l278 1436h-149l22 120h504l-279 -1435h152l-23 -121h-505z" />
<glyph unicode="&#x1ca;" horiz-adv-x="2840" d="M1548 -358l45 235h132q-4 -27 -4 -50q0 -57 22 -87q33 -45 104 -45q98 0 152 74q51 74 92 280l256 1323h-217l25 121h794l-22 -121h-193l-258 -1331q-45 -242 -192.5 -354.5t-411.5 -112.5q-90 0 -162 16q-90 21 -162 52zM-55 0l22 121h193l243 1251h-190l23 121h466 l697 -1057l180 936h-188l22 121h522l-22 -121h-193l-266 -1372h-262l-705 1079l-188 -958h190l-22 -121h-522z" />
<glyph unicode="&#x1cb;" horiz-adv-x="2611" d="M1534 -416l43 226h115q-6 -31 -6 -56q0 -39 14 -59q23 -37 88 -37q76 0 113 47q37 45 61 170l207 1067h-152l25 121h506l-232 -1188q-31 -162 -164 -246t-356 -84q-51 0 -127 11q-59 8 -135 28zM2206 1325q0 10 4 39q16 80 82 137q65 55 147 55q78 0 125 -57 q33 -41 33 -96q0 -10 -4 -39q-16 -80 -82 -135q-68 -55 -145.5 -55t-124.5 55q-35 41 -35 96zM-55 0l22 121h193l243 1251h-190l23 121h466l697 -1057l180 936h-188l22 121h522l-22 -121h-193l-266 -1372h-262l-705 1079l-188 -958h190l-22 -121h-522z" />
<glyph unicode="&#x1cc;" horiz-adv-x="2228" d="M1151 -416l43 226h115q-6 -31 -6 -56q0 -39 14 -59q23 -37 88 -37q76 0 113 47q37 45 61 170l207 1067h-152l25 121h506l-232 -1188q-31 -162 -164 -246t-356 -84q-51 0 -127 11q-59 8 -135 28zM1823 1325q0 10 4 39q16 80 82 137q65 55 147 55q78 0 125 -57 q33 -41 33 -96q0 -10 -4 -39q-16 -80 -82 -135q-68 -55 -145.5 -55t-124.5 55q-35 41 -35 96zM115 0l184 942h-152l23 121h506l-31 -150q80 92 174 138q84 41 215 41q180 0 250 -107q45 -66 45 -174q0 -66 -14 -135l-109 -555h154l-25 -121h-506l134 686q14 66 14 119 q0 45 -12 69q-25 51 -109 52q-109 0 -172 -78q-66 -80 -98 -250l-117 -598h-354z" />
<glyph unicode="&#x1cd;" horiz-adv-x="1587" d="M-162 0l25 121h121l829 1372h240l295 -1372h143l-25 -121h-698l23 121h147l-64 305h-561l-186 -305h178l-22 -121h-445zM385 547h463l-119 571zM588 1899h164l182 -162l244 162h166l-277 -264h-307z" />
<glyph unicode="&#x1ce;" horiz-adv-x="1325" d="M72 449q43 221 233 415q227 227 533 228q301 0 344 -62l-176 -909l133 2l-25 -123h-442l24 135q-111 -164 -305 -164t-278 127q-56 84 -56 209q0 65 15 142zM397 199q25 -72 121 -72q92 0 152 84q57 82 94 268l78 398q-2 59 -62 59q-133 0 -264 -160q-57 -70 -108 -321 q-21 -104 -21 -175q-1 -51 10 -81zM379 1638h164l168 -227l258 227h166l-332 -376h-241z" />
<glyph unicode="&#x1cf;" horiz-adv-x="956" d="M-49 0l22 121h193l244 1251h-193l25 121h768l-25 -121h-190l-244 -1251h190l-22 -121h-768zM321 1899h164l182 -162l244 162h166l-277 -264h-307z" />
<glyph unicode="&#x1d0;" horiz-adv-x="776" d="M119 0l182 942h-151l22 121h506l-182 -942h151l-22 -121h-506zM170 1638h164l168 -227l258 227h166l-332 -376h-241z" />
<glyph unicode="&#x1d1;" horiz-adv-x="1783" d="M86 745q70 360 326 567.5t630 207.5q379 0 551 -205q123 -147 123 -373q0 -92 -20 -197q-72 -365 -326 -569.5t-631 -204.5t-549 205q-124 149 -124 376q0 91 20 193zM512 254q61 -162 252 -162q188 0 315 162q123 156 189 491q33 167 32 292q0 121 -30 200 q-61 162 -252 162t-316 -162q-123 -160 -188 -492q-33 -166 -32 -290q0 -120 30 -201zM764 1899h164l182 -162l244 162h166l-277 -264h-307z" />
<glyph unicode="&#x1d2;" horiz-adv-x="1363" d="M70 393q0 70 14 139q52 264 240 412q188 147 469 148q283 0 411 -148q94 -106 94 -272q0 -70 -14 -140q-52 -261 -240 -411q-186 -150 -468.5 -150t-411.5 150q-94 106 -94 272zM446 270q0 -53 11 -90q27 -96 141 -96q109 0 174.5 96t114.5 352q33 162 33 267 q0 49 -11 86q-25 94 -139 94q-111 0 -176 -96q-66 -98 -115 -351q-33 -174 -33 -262zM534 1638h164l168 -227l258 227h166l-332 -376h-241z" />
<glyph unicode="&#x1d3;" horiz-adv-x="1785" d="M195 1372l22 121h768l-22 -121h-193l-143 -747q-25 -127 -25 -219q0 -110 35 -170q66 -113 276 -113q209 0 315.5 112.5t162.5 389.5l145 747h-190l22 121h520l-22 -121h-193l-147 -768q-63 -340 -244 -487q-176 -145 -524 -145.5t-469 147.5q-77 95 -78 269q0 97 25 218 l149 766h-190zM819 1899h164l182 -162l244 162h166l-277 -264h-307z" />
<glyph unicode="&#x1d4;" horiz-adv-x="1488" d="M129 942l25 121h505l-120 -621q-25 -127 -25 -192q0 -41 8 -60q23 -53 111 -53q109 0 172 78q65 80 98 252l117 596h354l-182 -942h149l-22 -121h-506l29 150q-82 -94 -172 -138q-84 -41 -215 -41q-180 0 -250 105q-45 66 -45 176q0 66 14 135l109 555h-154zM504 1638 h164l168 -227l258 227h166l-332 -376h-241z" />
<glyph unicode="&#x1d5;" horiz-adv-x="1785" d="M943 2056l35 188h631l-37 -188h-629zM195 1372l22 121h768l-22 -121h-193l-143 -747q-25 -127 -25 -219q0 -110 35 -170q66 -113 276 -113q209 0 315.5 112.5t162.5 389.5l145 747h-190l22 121h520l-22 -121h-193l-147 -768q-63 -340 -244 -487q-176 -145 -524 -145.5 t-469 147.5q-77 95 -78 269q0 97 25 218l149 766h-190zM827.5 1775.5q12.5 59.5 63.5 102.5q55 45 113 45q59 0 94 -45q35 -43 22 -102q-12 -61 -61 -103q-49 -43 -111 -43q-59 0 -96 43t-24.5 102.5zM1274 1776q12 57 66 102q55 45 110 45q57 0 96 -45q37 -43 25 -102 q-12 -57 -66 -103q-51 -43 -110.5 -43t-95.5 43q-37 46 -25 103z" />
<glyph unicode="&#x1d6;" horiz-adv-x="1488" d="M129 942l25 121h505l-120 -621q-25 -127 -25 -192q0 -41 8 -60q23 -53 111 -53q109 0 172 78q65 80 98 252l117 596h354l-182 -942h149l-22 -121h-506l29 150q-82 -94 -172 -138q-84 -41 -215 -41q-180 0 -250 105q-45 66 -45 176q0 66 14 135l109 555h-154zM531 1468 q12 59 63.5 102.5t112.5 43.5t94 -43q35 -43 23 -103q-12 -61 -64 -104t-110 -43q-57 0 -97 45q-34 45 -22 102zM977 1468q12 59 63.5 102.5t111 43.5t96.5 -43t24 -103q-12 -61 -63 -102q-55 -45 -113 -45q-59 0 -94 45q-37 47 -25 102zM634 1684l35 188h631l-37 -188h-629 z" />
<glyph unicode="&#x1d7;" horiz-adv-x="1785" d="M1014 1948l233 264h279l-348 -264h-164zM195 1372l22 121h768l-22 -121h-193l-143 -747q-25 -127 -25 -219q0 -110 35 -170q66 -113 276 -113q209 0 315.5 112.5t162.5 389.5l145 747h-190l22 121h520l-22 -121h-193l-147 -768q-63 -340 -244 -487q-176 -145 -524 -145.5 t-469 147.5q-77 95 -78 269q0 97 25 218l149 766h-190zM827.5 1775.5q12.5 59.5 63.5 102.5q55 45 113 45q59 0 94 -45q35 -43 22 -102q-12 -61 -61 -103q-49 -43 -111 -43q-59 0 -96 43t-24.5 102.5zM1274 1776q12 57 66 102q55 45 110 45q57 0 96 -45q37 -43 25 -102 q-12 -57 -66 -103q-51 -43 -110.5 -43t-95.5 43q-37 46 -25 103z" />
<glyph unicode="&#x1d8;" horiz-adv-x="1488" d="M762 1645l332 376h278l-446 -376h-164zM129 942l25 121h505l-120 -621q-25 -127 -25 -192q0 -41 8 -60q23 -53 111 -53q109 0 172 78q65 80 98 252l117 596h354l-182 -942h149l-22 -121h-506l29 150q-82 -94 -172 -138q-84 -41 -215 -41q-180 0 -250 105q-45 66 -45 176 q0 66 14 135l109 555h-154zM531 1468q12 59 63.5 102.5t112.5 43.5t94 -43q35 -43 23 -103q-12 -61 -64 -104t-110 -43q-57 0 -97 45q-34 45 -22 102zM977 1468q12 59 63.5 102.5t111 43.5t96.5 -43t24 -103q-12 -61 -63 -102q-55 -45 -113 -45q-59 0 -94 45q-37 47 -25 102 z" />
<glyph unicode="&#x1d9;" horiz-adv-x="1785" d="M858 2212h164l182 -162l244 162h166l-277 -264h-307zM195 1372l22 121h768l-22 -121h-193l-143 -747q-25 -127 -25 -219q0 -110 35 -170q66 -113 276 -113q209 0 315.5 112.5t162.5 389.5l145 747h-190l22 121h520l-22 -121h-193l-147 -768q-63 -340 -244 -487 q-176 -145 -524 -145.5t-469 147.5q-77 95 -78 269q0 97 25 218l149 766h-190zM827.5 1775.5q12.5 59.5 63.5 102.5q55 45 113 45q59 0 94 -45q35 -43 22 -102q-12 -61 -61 -103q-49 -43 -111 -43q-59 0 -96 43t-24.5 102.5zM1274 1776q12 57 66 102q55 45 110 45 q57 0 96 -45q37 -43 25 -102q-12 -57 -66 -103q-51 -43 -110.5 -43t-95.5 43q-37 46 -25 103z" />
<glyph unicode="&#x1da;" horiz-adv-x="1488" d="M614 2027h164l168 -227l258 227h166l-332 -376h-241zM129 942l25 121h505l-120 -621q-25 -127 -25 -192q0 -41 8 -60q23 -53 111 -53q109 0 172 78q65 80 98 252l117 596h354l-182 -942h149l-22 -121h-506l29 150q-82 -94 -172 -138q-84 -41 -215 -41q-180 0 -250 105 q-45 66 -45 176q0 66 14 135l109 555h-154zM531 1468q12 59 63.5 102.5t112.5 43.5t94 -43q35 -43 23 -103q-12 -61 -64 -104t-110 -43q-57 0 -97 45q-34 45 -22 102zM977 1468q12 59 63.5 102.5t111 43.5t96.5 -43t24 -103q-12 -61 -63 -102q-55 -45 -113 -45q-59 0 -94 45 q-37 47 -25 102z" />
<glyph unicode="&#x1db;" horiz-adv-x="1785" d="M940 2212h278l132 -264h-164zM195 1372l22 121h768l-22 -121h-193l-143 -747q-25 -127 -25 -219q0 -110 35 -170q66 -113 276 -113q209 0 315.5 112.5t162.5 389.5l145 747h-190l22 121h520l-22 -121h-193l-147 -768q-63 -340 -244 -487q-176 -145 -524 -145.5 t-469 147.5q-77 95 -78 269q0 97 25 218l149 766h-190zM827.5 1775.5q12.5 59.5 63.5 102.5q55 45 113 45q59 0 94 -45q35 -43 22 -102q-12 -61 -61 -103q-49 -43 -111 -43q-59 0 -96 43t-24.5 102.5zM1274 1776q12 57 66 102q55 45 110 45q57 0 96 -45q37 -43 25 -102 q-12 -57 -66 -103q-51 -43 -110.5 -43t-95.5 43q-37 46 -25 103z" />
<glyph unicode="&#x1dc;" horiz-adv-x="1488" d="M630 2021h281l182 -376h-164zM129 942l25 121h505l-120 -621q-25 -127 -25 -192q0 -41 8 -60q23 -53 111 -53q109 0 172 78q65 80 98 252l117 596h354l-182 -942h149l-22 -121h-506l29 150q-82 -94 -172 -138q-84 -41 -215 -41q-180 0 -250 105q-45 66 -45 176 q0 66 14 135l109 555h-154zM531 1468q12 59 63.5 102.5t112.5 43.5t94 -43q35 -43 23 -103q-12 -61 -64 -104t-110 -43q-57 0 -97 45q-34 45 -22 102zM977 1468q12 59 63.5 102.5t111 43.5t96.5 -43t24 -103q-12 -61 -63 -102q-55 -45 -113 -45q-59 0 -94 45q-37 47 -25 102 z" />
<glyph unicode="&#x1dd;" horiz-adv-x="1302" d="M94 582h731v8q39 203 -4 297q-43 92 -182 92q-114 0 -197 -61q-82 -61 -125 -177h-165q76 180 221 267q141 84 375 84q274 0 395 -145.5t67 -416.5q-53 -266 -231 -411q-180 -147 -449 -148q-264 0 -374.5 156t-61.5 455zM442 168q20 -84 115 -84q92 0 148 84 q57 88 94 276l4 19h-342q-41 -209 -19 -295z" />
<glyph unicode="&#x1de;" horiz-adv-x="1587" d="M720 2056l35 188h631l-37 -188h-629zM-162 0l25 121h121l829 1372h240l295 -1372h143l-25 -121h-698l23 121h147l-64 305h-561l-186 -305h178l-22 -121h-445zM385 547h463l-119 571zM614.5 1775.5q12.5 59.5 63.5 102.5q55 45 113 45q59 0 94 -45q35 -43 22 -102 q-12 -61 -61 -103q-49 -43 -111 -43q-59 0 -96 43t-24.5 102.5zM1061 1776q12 57 66 102q55 45 110 45q57 0 96 -45q37 -43 25 -102q-12 -57 -66 -103q-51 -43 -110.5 -43t-95.5 43q-37 46 -25 103z" />
<glyph unicode="&#x1df;" horiz-adv-x="1325" d="M72 449q43 221 233 415q227 227 533 228q301 0 344 -62l-176 -909l133 2l-25 -123h-442l24 135q-111 -164 -305 -164t-278 127q-56 84 -56 209q0 65 15 142zM397 199q25 -72 121 -72q92 0 152 84q57 82 94 268l78 398q-2 59 -62 59q-133 0 -264 -160q-57 -70 -108 -321 q-21 -104 -21 -175q-1 -51 10 -81zM424 1468q12 59 63.5 102.5t112.5 43.5t94 -43q35 -43 23 -103q-12 -61 -64 -104t-110 -43q-57 0 -97 45q-34 45 -22 102zM870 1468q12 59 63.5 102.5t111 43.5t96.5 -43t24 -103q-12 -61 -63 -102q-55 -45 -113 -45q-59 0 -94 45 q-37 47 -25 102zM528 1684l35 188h631l-37 -188h-629z" />
<glyph unicode="&#x1e0;" horiz-adv-x="1587" d="M695 2056l35 188h631l-37 -188h-629zM831 1841q12 57 66 103q53 43 110 43q59 0 97 -43q35 -43 22 -103q-12 -61 -63 -102q-55 -45 -113 -45q-59 0 -94 45q-37 47 -25 102zM-162 0l25 121h121l829 1372h240l295 -1372h143l-25 -121h-698l23 121h147l-64 305h-561 l-186 -305h178l-22 -121h-445zM385 547h463l-119 571z" />
<glyph unicode="&#x1e1;" horiz-adv-x="1325" d="M472 1684l35 188h631l-37 -188h-629zM608 1468q12 57 66 103q53 43 110 43q59 0 97 -43q35 -43 22 -103q-12 -61 -63 -102q-55 -45 -113 -45q-59 0 -94 45q-37 47 -25 102zM72 449q43 221 233 415q227 227 533 228q301 0 344 -62l-176 -909l133 2l-25 -123h-442l24 135 q-111 -164 -305 -164t-278 127q-56 84 -56 209q0 65 15 142zM397 199q25 -72 121 -72q92 0 152 84q57 82 94 268l78 398q-2 59 -62 59q-133 0 -264 -160q-57 -70 -108 -321q-21 -104 -21 -175q-1 -51 10 -81z" />
<glyph unicode="&#x1e2;" horiz-adv-x="2117" d="M1087 1684l35 188h631l-37 -188h-629zM-209 0l25 121h112l838 1251h-203l25 121h1550l-67 -352h-140l41 215h-602l-92 -479h367l36 190h136l-101 -516h-135l39 190h-369l-116 -604h622l41 215h135l-67 -352h-1336l25 121h188l60 303h-522l-201 -303h164l-25 -121h-428z M362 545h465l160 827h-74z" />
<glyph unicode="&#x1e3;" horiz-adv-x="1996" d="M774 1374l35 188h631l-37 -188h-629zM55 309q0 303 240 543t543 240q215 0 299 -31q104 31 227 31q193 0 324 -74q133 -74 133 -209q0 -31 -6 -57q-66 -326 -754 -353q-8 -45 -8 -65q0 -250 207 -250q114 0 196 61t125 177h168q-76 -178 -223 -267q-141 -84 -381 -84 q-233 0 -357 111q-147 -111 -397 -111q-193 0 -278 127q-58 84 -58 211zM387 289q0 -59 10 -90q25 -72 119 -72t154 84q57 82 94 268l78 398q-2 59 -62 59q-133 0 -264 -160q-59 -72 -94 -250q-35 -180 -35 -237zM1083 518q332 0 375 244q6 37 6 69q0 147 -123 148 q-96 0 -147 -84q-55 -92 -100 -313z" />
<glyph unicode="&#x1e4;" horiz-adv-x="1832" d="M86 745q72 362 330 568q262 207 645 207q160 0 307 -31q137 -29 293 -98l-72 -367h-127q-6 199 -94 287t-278 88q-231 0 -371 -158q-141 -160 -205 -496q-66 -338 8 -495.5t293 -157.5q83 0 160 19q66 16 141 57l29 143h-369l23 119h368l29 148h-180l24 120h539l-53 -268 h198l-22 -119h-199l-37 -186q-201 -84 -358 -117q-175 -37 -350 -37q-385 0 -563 207q-181 207 -109 567z" />
<glyph unicode="&#x1e5;" horiz-adv-x="1431" d="M45 -389l51 254h113v-17q0 -94 53 -139q59 -51 191 -51q166 0 245.5 78t120.5 278l25 121q-123 -164 -348 -164q-223 0 -325.5 127t-59.5 351q51 268 305 466q229 176 561 177q268 0 389 -97l-80 -399h152l-25 -121h-149l-90 -461q-49 -244 -228 -346 q-218 -123 -473 -123q-98 0 -213 17q-107 15 -215 49zM501.5 198.5q30.5 -71.5 139.5 -71.5q104 0 170 84q61 78 98 264h-207l23 121h209l53 281q-6 59 -69 59q-181 0 -295 -160q-72 -104 -115 -321q-37 -185 -6.5 -256.5z" />
<glyph unicode="&#x1e6;" horiz-adv-x="1748" d="M723 1899h164l182 -162l244 162h166l-277 -264h-307zM43 741q72 362 330 568q262 207 645 207q160 0 307 -31q137 -29 293 -98l-72 -367h-127q-6 199 -94 287t-278 88q-231 0 -371 -158q-141 -160 -205 -496q-31 -159 -31 -277q0 -134 39 -218q74 -158 293 -158 q83 0 160 19q66 16 141 57l80 410h-180l24 120h539l-113 -573q-201 -84 -358 -117q-175 -37 -350 -37q-385 0 -563 207q-128 148 -129 377q0 89 20 190z" />
<glyph unicode="&#x1e7;" horiz-adv-x="1431" d="M506 1638h164l168 -227l258 227h166l-332 -376h-241zM-8 -389l51 254h113v-17q0 -94 53 -139q59 -51 191 -51q166 0 245.5 78t120.5 278l25 121q-123 -164 -348 -164q-223 0 -326 127q-72 89 -72 226q0 58 13 125q51 268 305 466q229 176 561 177q268 0 389 -97 l-192 -981q-49 -244 -228 -346q-218 -123 -473 -123q-98 0 -213 17q-107 15 -215 49zM449 199q31 -72 139 -72q104 0 170 84q61 78 98 268l78 398q-6 59 -69 59q-181 0 -295 -160q-72 -104 -115 -321q-20 -101 -20 -168q0 -56 14 -88z" />
<glyph unicode="&#x1e8;" horiz-adv-x="1779" d="M-84 0l22 121h193l244 1251h-193l25 121h768l-25 -121h-190l-107 -545l739 545h-159l22 121h557l-22 -121h-201l-625 -461l576 -790h145l-22 -121h-506l-524 725l-117 -604h190l-22 -121h-768zM846 1899h164l182 -162l244 162h166l-277 -264h-307z" />
<glyph unicode="&#x1e9;" horiz-adv-x="1417" d="M35 0l278 1436h-149l22 120h504l-193 -999l504 385h-127l23 121h289l-25 -121l-322 -246l336 -575h115l-22 -121h-392l-290 500l-117 -88l-80 -412h-354zM139 1899h164l182 -162l244 162h166l-277 -264h-307z" />
<glyph unicode="&#x1ea;" horiz-adv-x="1783" d="M86 745q70 360 326 567.5t630 207.5q379 0 551 -205q123 -147 123 -373q0 -92 -20 -197q-72 -365 -326 -569.5t-631 -204.5t-549 205q-124 149 -124 376q0 91 20 193zM512 254q61 -162 252 -162q188 0 315 162q123 156 189 491q33 167 32 292q0 121 -30 200 q-61 162 -252 162t-316 -162q-123 -160 -188 -492q-33 -166 -32 -290q0 -120 30 -201zM522 -241q8 49 54 106q43 55 118 119h125q-53 -55 -88 -102q-27 -35 -33 -66q-10 -41 16.5 -63.5t76.5 -22.5q43 0 82 8q53 12 81 23l-30 -156q-31 -6 -107 -16q-49 -6 -90 -6 q-113 0 -166 47t-39 129z" />
<glyph unicode="&#x1eb;" horiz-adv-x="1363" d="M70 393q0 70 14 139q52 264 240 412q188 147 469 148q283 0 411 -148q94 -106 94 -272q0 -70 -14 -140q-52 -261 -240 -411q-186 -150 -468.5 -150t-411.5 150q-94 106 -94 272zM446 270q0 -53 11 -90q27 -96 141 -96q109 0 174.5 96t114.5 352q33 162 33 267 q0 49 -11 86q-25 94 -139 94q-111 0 -176 -96q-66 -98 -115 -351q-33 -174 -33 -262zM350 -241q8 49 54 106q43 55 118 119h125q-53 -55 -88 -102q-27 -35 -33 -66q-10 -41 16.5 -63.5t76.5 -22.5q43 0 82 8q53 12 81 23l-30 -156q-31 -6 -107 -16q-49 -6 -90 -6 q-113 0 -166 47t-39 129z" />
<glyph unicode="&#x1ec;" horiz-adv-x="1783" d="M86 745q70 360 326 567.5t630 207.5q379 0 551 -205q123 -147 123 -373q0 -92 -20 -197q-72 -365 -326 -569.5t-631 -204.5t-549 205q-124 149 -124 376q0 91 20 193zM512 254q61 -162 252 -162q188 0 315 162q123 156 189 491q33 167 32 292q0 121 -30 200 q-61 162 -252 162t-316 -162q-123 -160 -188 -492q-33 -166 -32 -290q0 -120 30 -201zM522 -241q8 49 54 106q43 55 118 119h125q-53 -55 -88 -102q-27 -35 -33 -66q-10 -41 16.5 -63.5t76.5 -22.5q43 0 82 8q53 12 81 23l-30 -156q-31 -6 -107 -16q-49 -6 -90 -6 q-113 0 -166 47t-39 129zM698 1684l35 188h631l-37 -188h-629z" />
<glyph unicode="&#x1ed;" horiz-adv-x="1363" d="M70 393q0 70 14 139q52 264 240 412q188 147 469 148q283 0 411 -148q94 -106 94 -272q0 -70 -14 -140q-52 -261 -240 -411q-186 -150 -468.5 -150t-411.5 150q-94 106 -94 272zM446 270q0 -53 11 -90q27 -96 141 -96q109 0 174.5 96t114.5 352q33 162 33 267 q0 49 -11 86q-25 94 -139 94q-111 0 -176 -96q-66 -98 -115 -351q-33 -174 -33 -262zM350 -241q8 49 54 106q43 55 118 119h125q-53 -55 -88 -102q-27 -35 -33 -66q-10 -41 16.5 -63.5t76.5 -22.5q43 0 82 8q53 12 81 23l-30 -156q-31 -6 -107 -16q-49 -6 -90 -6 q-113 0 -166 47t-39 129zM491 1374l35 188h631l-37 -188h-629z" />
<glyph unicode="&#x1ee;" horiz-adv-x="1343" d="M434 1899h164l182 -162l244 162h166l-277 -264h-307zM-61 51l63 328h121q-16 -145 47 -217q65 -74 203 -74q154 0 250 84q100 88 131 240q31 162 -39 250t-230 88h-65l45 225l338 381h-430l-43 -223h-137l69 360h979l-27 -137l-462 -516q213 -20 311 -107 q135 -117 94 -330q-41 -211 -227 -321q-188 -111 -502 -111q-121 0 -238 21q-136 24 -251 59z" />
<glyph unicode="&#x1ef;" horiz-adv-x="1161" d="M419 1638h164l168 -227l258 227h166l-332 -376h-241zM-57 -336l63 328h121q-18 -141 47 -217q65 -74 203 -74q154 0 250 84q100 88 131 240q31 160 -39 249q-68 88 -227 88h-66l43 226l334 358h-459l-35 -182h-119l58 299h989l-23 -119l-458 -491q213 -20 311 -107 q135 -119 94 -330t-227 -321q-188 -111 -502 -111q-123 0 -239 21q-133 22 -250 59z" />
<glyph unicode="&#x1f0;" horiz-adv-x="739" d="M211 1638h164l168 -227l258 227h166l-332 -376h-241zM-293 -416l45 226h113q-14 -78 8 -117q20 -35 88 -35q72 0 113 47q35 41 61 170l207 1067h-149l22 121h506l-232 -1188q-31 -162 -163.5 -246t-356.5 -84q-55 0 -127 11q-63 8 -135 28z" />
<glyph unicode="&#x1f1;" horiz-adv-x="3270" d="M1706 0l27 141l1128 1215h-714l-43 -223h-138l70 360h1296l-26 -141l-1118 -1215h753l41 209h137l-67 -346h-1346zM-49 0l22 121h193l244 1251h-193l25 121h766q401 0 577 -193q125 -136 125 -358q0 -90 -20 -194q-70 -362 -322 -555q-250 -193 -651 -193h-766zM551 121 h137q236 0 373 149q135 147 201 478q29 148 29 258q0 135 -44 217q-80 150 -313 149h-139z" />
<glyph unicode="&#x1f2;" horiz-adv-x="2938" d="M1745 0l23 121l698 747q-41 16 -59 29q-127 68 -207 68q-117 0 -299 -146l31 160q176 168 336 168q78 -2 210 -70q141 -72 199 -71q53 0 115 22q55 20 82 37l98 -2l-22 -119l-701 -749q45 -16 64 -29q127 -68 204 -68q119 0 301 146l-30 -158q-180 -170 -338 -170 q-78 2 -211 70q-141 72 -199 71q-53 0 -114 -22q-55 -20 -82 -37zM-49 0l22 121h193l244 1251h-193l25 121h766q401 0 577 -193q125 -136 125 -358q0 -90 -20 -194q-70 -362 -322 -555q-250 -193 -651 -193h-766zM551 121h137q236 0 373 149q135 147 201 478q29 148 29 258 q0 135 -44 217q-80 150 -313 149h-139z" />
<glyph unicode="&#x1f3;" horiz-adv-x="2594" d="M1401 0l23 121l698 747q-41 16 -59 29q-127 68 -207 68q-117 0 -299 -146l31 160q176 168 336 168q78 -2 210 -70q141 -72 199 -71q53 0 115 22q55 20 82 37l98 -2l-22 -119l-701 -749q45 -16 64 -29q127 -68 204 -68q119 0 301 146l-30 -158q-180 -170 -338 -170 q-78 2 -211 70q-141 72 -199 71q-53 0 -114 -22q-55 -20 -82 -37zM23 369q0 84 16 163q53 262 209 410q158 150 385 150q111 0 180 -41q72 -43 98 -123l99 508h-152l23 120h505l-301 -1556h-354l27 135q-63 -84 -146 -123q-88 -41 -196 -41q-227 0 -328 150q-65 98 -65 248z M408 303q0 -51 10 -88q27 -88 137 -88q102 0 168 84q63 82 100 268l21 105q18 98 18 170q0 63 -14 100q-31 82 -135 82q-109 0 -172 -88q-59 -84 -107 -316q-26 -135 -26 -229z" />
<glyph unicode="&#x1f4;" horiz-adv-x="1748" d="M883 1637l233 264h279l-348 -264h-164zM47 747q72 362 330 568q262 207 645 207q160 0 307 -31q137 -29 293 -98l-72 -367h-127q-6 199 -94 287t-278 88q-231 0 -371 -158q-141 -160 -205 -496q-31 -159 -31 -277q0 -134 39 -218q74 -158 293 -158q83 0 160 19 q66 16 141 57l80 410h-180l24 120h539l-113 -573q-201 -84 -358 -117q-175 -37 -350 -37q-385 0 -563 207q-128 148 -129 377q0 89 20 190z" />
<glyph unicode="&#x1f5;" horiz-adv-x="1431" d="M649 1215l332 376h278l-446 -376h-164zM-8 -389l51 254h113v-17q0 -94 53 -139q59 -51 191 -51q166 0 245.5 78t120.5 278l25 121q-123 -164 -348 -164q-223 0 -326 127q-72 89 -72 226q0 58 13 125q51 268 305 466q229 176 561 177q268 0 389 -97l-192 -981 q-49 -244 -228 -346q-218 -123 -473 -123q-98 0 -213 17q-107 15 -215 49zM449 199q31 -72 139 -72q104 0 170 84q61 78 98 268l78 398q-6 59 -69 59q-181 0 -295 -160q-72 -104 -115 -321q-20 -101 -20 -168q0 -56 14 -88z" />
<glyph unicode="&#x1f6;" horiz-adv-x="2500" d="M-45 0l22 121h191l244 1251h-193l25 121h768l-25 -121h-190l-99 -502h594l99 502h-193l25 121h768l-25 -121h-190l-146 -747q-63 -328 -26 -392q68 -111 221 -110q178 0 284.5 112.5t161.5 389.5l62 317h-191l25 121h327l-88 -459q-68 -342 -243 -487 q-182 -145 -496 -146q-307 0 -410 148q-86 125 -16 485l25 129h-594l-119 -612h192l-22 -121h-768z" />
<glyph unicode="&#x1f8;" horiz-adv-x="1871" d="M-90 0l22 121h193l243 1251h-190l23 121h466l697 -1057l180 936h-188l22 121h522l-22 -121h-193l-266 -1372h-262l-705 1079l-188 -958h190l-22 -121h-522zM817 1899h278l132 -264h-164z" />
<glyph unicode="&#x1f9;" horiz-adv-x="1488" d="M-88 0l22 121h152l160 821h-152l23 121h506l-29 -150q82 94 172 138q84 41 215 41q178 0 250 -104.5t31 -311.5l-109 -555h154l-25 -121h-635l25 121h129l108 565q25 139 2 188q-25 51 -108 52q-109 0 -172 -78q-66 -80 -99 -250l-94 -477h131l-22 -121h-635zM453 1638 h278l184 -376h-163z" />
<glyph unicode="&#x1fa;" horiz-adv-x="1587" d="M-201 0l25 121h121l682 1126q-15 22 -25 49q-20 57 -4 134q23 119 123 200q82 70 172 82l166 189h278l-280 -213q35 -20 65 -58q66 -80 43 -200q-16 -82 -55 -134q-18 -28 -43 -49l242 -1126h141l-23 -121h-700l25 121h145l-63 305h-562l-184 -305h178l-22 -121h-445z M346 547h463l-117 571zM750 1430q-8 -51 22 -93q31 -39 84 -39q55 0 100 39q49 43 58 93q8 53 -21 92q-31 39 -86 39t-100 -39q-49 -43 -57 -92z" />
<glyph unicode="&#x1fb;" horiz-adv-x="1325" d="M72 449q43 221 233 415q227 227 533 228q301 0 344 -62l-176 -909l133 2l-25 -123h-442l24 135q-111 -164 -305 -164t-278 127.5t-41 350.5zM397 199q25 -72 121 -72q92 0 152 84q57 82 94 268l78 398q-2 59 -62 59q-133 0 -264 -160q-57 -70 -108 -321 q-38 -180 -11 -256zM479 1430q23 121 123 202q80 68 174 80l166 189h279l-281 -213q39 -23 66 -56q68 -82 45 -202q-20 -115 -123 -201q-100 -84 -217 -84q-119 0 -187 84q-68 82 -45 201zM635 1430q-12 -53 20.5 -92.5t83.5 -39.5q55 0 101 39q49 43 57 93q8 51 -23 92 q-31 39 -83 39q-55 0 -101 -39q-47 -41 -55 -92z" />
<glyph unicode="&#x1fc;" horiz-adv-x="2117" d="M1190 1637l233 264h279l-348 -264h-164zM-209 0l25 121h112l838 1251h-203l25 121h1550l-67 -352h-140l41 215h-602l-92 -479h367l36 190h136l-101 -516h-135l39 190h-369l-116 -604h622l41 215h135l-67 -352h-1336l25 121h188l60 303h-522l-201 -303h164l-25 -121h-428z M362 545h465l160 827h-74z" />
<glyph unicode="&#x1fd;" horiz-adv-x="1906" d="M927 1262l332 376h278l-446 -376h-164zM55 309q0 303 240 543t543 240q215 0 299 -31q104 31 227 31q193 0 324 -74q133 -74 133 -209q0 -31 -6 -57q-66 -326 -754 -353q-8 -45 -8 -65q0 -250 207 -250q114 0 196 61t125 177h168q-76 -178 -223 -267q-141 -84 -381 -84 q-233 0 -357 111q-147 -111 -397 -111q-193 0 -278 127q-58 84 -58 211zM387 289q0 -59 10 -90q25 -72 119 -72t154 84q57 82 94 268l78 398q-2 59 -62 59q-133 0 -264 -160q-59 -72 -94 -250q-35 -180 -35 -237zM1083 518q332 0 375 244q6 37 6 69q0 147 -123 148 q-96 0 -147 -84q-55 -92 -100 -313z" />
<glyph unicode="&#x1fe;" horiz-adv-x="1783" d="M883 1637l233 264h279l-348 -264h-164zM-76 12l240 201q-72 102 -90.5 235.5t12.5 296.5q70 360 326 567.5t630 207.5q162 0 285 -39q129 -41 215 -115l242 203l74 -90l-238 -199q70 -102 88 -238q18 -133 -12 -297q-72 -365 -326 -569.5t-631 -204.5q-160 0 -282 39 q-121 39 -215 117l-244 -205zM483 479l809 678q-18 119 -87.5 180.5t-186.5 61.5q-190 0 -316 -162q-123 -160 -188 -492q-6 -37 -22 -143q-9 -57 -9 -123zM492 334q20 -121 88 -182q66 -59 184 -60q194 0 319 166q127 168 195 526q14 72 16 115q4 55 -2 94z" />
<glyph unicode="&#x1ff;" horiz-adv-x="1363" d="M637 1262l332 376h278l-446 -376h-164zM-55 -16l196 163q-49 70 -65 172q-14 90 8 213q52 264 240 412q188 147 469 148q117 0 207 -25t151 -74l201 168l69 -86l-194 -162q49 -66 65 -168q14 -90 -8 -213q-49 -261 -240 -411q-188 -150 -469 -150q-109 0 -198 25t-160 74 l-205 -172zM449 262q-2 -88 34 -133q39 -45 115 -45q109 0 172 94q66 96 111 330l26 141zM459 416l463 385q0 92 -37 135t-115 43q-109 0 -174 -96q-63 -94 -111 -330z" />
<glyph unicode="&#x200;" horiz-adv-x="1587" d="M524 1901h278l129 -264h-163zM856 1901h278l129 -264h-164zM-162 0l25 121h121l829 1372h240l295 -1372h143l-25 -121h-698l23 121h147l-64 305h-561l-186 -305h178l-22 -121h-445zM385 547h463l-119 571z" />
<glyph unicode="&#x201;" horiz-adv-x="1325" d="M320 1638h235l154 -376h-166zM705 1638h217l117 -376h-162zM72 449q43 221 233 415q227 227 533 228q301 0 344 -62l-176 -909l133 2l-25 -123h-442l24 135q-111 -164 -305 -164t-278 127q-56 84 -56 209q0 65 15 142zM397 199q25 -72 121 -72q92 0 152 84q57 82 94 268 l78 398q-2 59 -62 59q-133 0 -264 -160q-57 -70 -108 -321q-21 -104 -21 -175q-1 -51 10 -81z" />
<glyph unicode="&#x202;" horiz-adv-x="1587" d="M634 1651q27 145 136 229q106 82 268 82q160 0 235 -82q74 -78 45 -229h-124q8 74 -39 113t-150 39q-98 0 -162 -39q-61 -39 -84 -113h-125zM-162 0l25 121h121l829 1372h240l295 -1372h143l-25 -121h-698l23 121h147l-64 305h-561l-186 -305h178l-22 -121h-445zM385 547 h463l-119 571z" />
<glyph unicode="&#x203;" horiz-adv-x="1325" d="M411 1278q27 145 136 229q106 82 268 82q160 0 235 -82q74 -78 45 -229h-124q8 74 -39 113t-150 39q-98 0 -162 -39q-61 -39 -84 -113h-125zM72 449q43 221 233 415q227 227 533 228q301 0 344 -62l-176 -909l133 2l-25 -123h-442l24 135q-111 -164 -305 -164t-278 127 q-56 84 -56 209q0 65 15 142zM397 199q25 -72 121 -72q92 0 152 84q57 82 94 268l78 398q-2 59 -62 59q-133 0 -264 -160q-57 -70 -108 -321q-21 -104 -21 -175q-1 -51 10 -81z" />
<glyph unicode="&#x204;" horiz-adv-x="1560" d="M565 1901h278l129 -264h-163zM897 1901h278l129 -264h-164zM-49 0l22 121h193l244 1251h-193l25 121h1341l-67 -352h-140l41 215h-626l-95 -479h391l37 190h138l-101 -516h-137l39 190h-391l-117 -604h645l41 215h137l-67 -352h-1360z" />
<glyph unicode="&#x205;" horiz-adv-x="1302" d="M371 1638h235l154 -376h-166zM756 1638h217l117 -376h-162zM68 379q0 63 16 149q53 270 231 416q180 147 445 148q190 0 323 -74q131 -74 131 -209q0 -31 -6 -57q-66 -326 -753 -353q-6 -34 -6 -104q0 -211 204 -211q117 0 199 61.5t125 176.5h166q-76 -178 -223 -267 q-141 -84 -373 -84q-274 0 -395 146q-84 102 -84 262zM477 518h23q307 0 354 244q6 37 6 69q0 147 -125 148q-94 0 -149.5 -90t-108.5 -371z" />
<glyph unicode="&#x206;" horiz-adv-x="1560" d="M677 1651q27 145 136 229q106 82 268 82q160 0 235 -82q74 -78 45 -229h-124q8 74 -39 113t-150 39q-98 0 -162 -39q-61 -39 -84 -113h-125zM-49 0l22 121h193l244 1251h-193l25 121h1341l-67 -352h-140l41 215h-626l-95 -479h391l37 190h138l-101 -516h-137l39 190h-391 l-117 -604h645l41 215h137l-67 -352h-1360z" />
<glyph unicode="&#x207;" horiz-adv-x="1302" d="M462 1278q27 145 136 229q106 82 268 82q160 0 235 -82q74 -78 45 -229h-124q8 74 -39 113t-150 39q-98 0 -162 -39q-61 -39 -84 -113h-125zM68 379q0 63 16 149q53 270 231 416q180 147 445 148q190 0 323 -74q131 -74 131 -209q0 -31 -6 -57q-66 -326 -753 -353 q-6 -34 -6 -104q0 -211 204 -211q117 0 199 61.5t125 176.5h166q-76 -178 -223 -267q-141 -84 -373 -84q-274 0 -395 146q-84 102 -84 262zM477 518h23q307 0 354 244q6 37 6 69q0 147 -125 148q-94 0 -149.5 -90t-108.5 -371z" />
<glyph unicode="&#x208;" horiz-adv-x="956" d="M223 1901h278l129 -264h-163zM555 1901h278l129 -264h-164zM-49 0l22 121h193l244 1251h-193l25 121h768l-25 -121h-190l-244 -1251h190l-22 -121h-768z" />
<glyph unicode="&#x209;" horiz-adv-x="776" d="M33 1640h235l154 -376h-166zM418 1640h217l117 -376h-162zM70 0l182 942h-151l22 121h506l-182 -942h151l-22 -121h-506z" />
<glyph unicode="&#x20a;" horiz-adv-x="956" d="M342 1651q27 145 136 229q106 82 268 82q160 0 235 -82q74 -78 45 -229h-124q8 74 -39 113t-150 39q-98 0 -162 -39q-61 -39 -84 -113h-125zM-49 0l22 121h193l244 1251h-193l25 121h768l-25 -121h-190l-244 -1251h190l-22 -121h-768z" />
<glyph unicode="&#x20b;" horiz-adv-x="776" d="M70 0l182 942h-151l22 121h506l-182 -942h151l-22 -121h-506zM112 1260q27 145 136 229q106 82 268 82q160 0 235 -82q74 -78 45 -229h-124q8 74 -39 113t-150 39q-98 0 -162 -39q-61 -39 -84 -113h-125z" />
<glyph unicode="&#x20c;" horiz-adv-x="1783" d="M637 1901h278l129 -264h-163zM969 1901h278l129 -264h-164zM86 745q70 360 326 567.5t630 207.5q379 0 551 -205q123 -147 123 -373q0 -92 -20 -197q-72 -365 -326 -569.5t-631 -204.5t-549 205q-124 149 -124 376q0 91 20 193zM512 254q61 -162 252 -162q188 0 315 162 q123 156 189 491q33 167 32 292q0 121 -30 200q-61 162 -252 162t-316 -162q-123 -160 -188 -492q-33 -166 -32 -290q0 -120 30 -201z" />
<glyph unicode="&#x20d;" horiz-adv-x="1363" d="M404 1638h235l154 -376h-166zM789 1638h217l117 -376h-162zM70 393q0 70 14 139q52 264 240 412q188 147 469 148q283 0 411 -148q94 -106 94 -272q0 -70 -14 -140q-52 -261 -240 -411q-186 -150 -468.5 -150t-411.5 150q-94 106 -94 272zM446 270q0 -53 11 -90 q27 -96 141 -96q109 0 174.5 96t114.5 352q33 162 33 267q0 49 -11 86q-25 94 -139 94q-111 0 -176 -96q-66 -98 -115 -351q-33 -174 -33 -262z" />
<glyph unicode="&#x20e;" horiz-adv-x="1783" d="M755 1651q27 145 136 229q106 82 268 82q160 0 235 -82q74 -78 45 -229h-124q8 74 -39 113t-150 39q-98 0 -162 -39q-61 -39 -84 -113h-125zM86 745q70 360 326 567.5t630 207.5q379 0 551 -205q123 -147 123 -373q0 -92 -20 -197q-72 -365 -326 -569.5t-631 -204.5 t-549 205q-124 149 -124 376q0 91 20 193zM512 254q61 -162 252 -162q188 0 315 162q123 156 189 491q33 167 32 292q0 121 -30 200q-61 162 -252 162t-316 -162q-123 -160 -188 -492q-33 -166 -32 -290q0 -120 30 -201z" />
<glyph unicode="&#x20f;" horiz-adv-x="1363" d="M495 1278q27 145 136 229q106 82 268 82q160 0 235 -82q74 -78 45 -229h-124q8 74 -39 113t-150 39q-98 0 -162 -39q-61 -39 -84 -113h-125zM70 393q0 70 14 139q52 264 240 412q188 147 469 148q283 0 411 -148q94 -106 94 -272q0 -70 -14 -140q-52 -261 -240 -411 q-186 -150 -468.5 -150t-411.5 150q-94 106 -94 272zM446 270q0 -53 11 -90q27 -96 141 -96q109 0 174.5 96t114.5 352q33 162 33 267q0 49 -11 86q-25 94 -139 94q-111 0 -176 -96q-66 -98 -115 -351q-33 -174 -33 -262z" />
<glyph unicode="&#x210;" horiz-adv-x="1701" d="M615 1901h278l129 -264h-163zM947 1901h278l129 -264h-164zM-49 0l22 121h193l244 1251h-193l25 121h852q261 0 381 -104q93 -81 92 -213q0 -40 -8 -84q-31 -156 -150 -246q-121 -92 -326 -117q86 -12 140 -59q51 -45 80 -133l137 -416h151l-22 -121h-492l-149 451 q-43 139 -82 178t-127 39h-62l-106 -547h190l-22 -121h-768zM680 788h131q143 0 231 76q90 78 117 217q9 45 9 83q0 82 -42 132q-63 76 -200 76h-131z" />
<glyph unicode="&#x211;" horiz-adv-x="1077" d="M383 1638h235l154 -376h-166zM768 1638h217l117 -376h-162zM115 0l184 942h-164l25 121h516l-37 -189q74 111 170 164.5t219 53.5q16 0 74 -5q41 -2 100 -12l-61 -317h-113q2 14 2 39q0 59 -22 88q-29 41 -109 41q-117 0 -203 -103q-90 -106 -123 -282l-104 -541h-354z " />
<glyph unicode="&#x212;" horiz-adv-x="1701" d="M727 1651q27 145 136 229q106 82 268 82q160 0 235 -82q74 -78 45 -229h-124q8 74 -39 113t-150 39q-98 0 -162 -39q-61 -39 -84 -113h-125zM-49 0l22 121h193l244 1251h-193l25 121h852q261 0 381 -104q93 -81 92 -213q0 -40 -8 -84q-31 -156 -150 -246 q-121 -92 -326 -117q86 -12 140 -59q51 -45 80 -133l137 -416h151l-22 -121h-492l-149 451q-43 139 -82 178t-127 39h-62l-106 -547h190l-22 -121h-768zM680 788h131q143 0 231 76q90 78 117 217q9 45 9 83q0 82 -42 132q-63 76 -200 76h-131z" />
<glyph unicode="&#x213;" horiz-adv-x="1077" d="M475 1278q27 145 136 229q106 82 268 82q160 0 235 -82q74 -78 45 -229h-124q8 74 -39 113t-150 39q-98 0 -162 -39q-61 -39 -84 -113h-125zM115 0l184 942h-164l25 121h516l-37 -189q74 111 170 164.5t219 53.5q16 0 74 -5q41 -2 100 -12l-61 -317h-113q2 14 2 39 q0 59 -22 88q-29 41 -109 41q-117 0 -203 -103q-90 -106 -123 -282l-104 -541h-354z" />
<glyph unicode="&#x214;" horiz-adv-x="1785" d="M692 1901h278l129 -264h-163zM1024 1901h278l129 -264h-164zM195 1372l22 121h768l-22 -121h-193l-143 -747q-25 -127 -25 -219q0 -110 35 -170q66 -113 276 -113q209 0 315.5 112.5t162.5 389.5l145 747h-190l22 121h520l-22 -121h-193l-147 -768q-63 -340 -244 -487 q-176 -145 -524 -145.5t-469 147.5q-77 95 -78 269q0 97 25 218l149 766h-190z" />
<glyph unicode="&#x215;" horiz-adv-x="1488" d="M426 1638h235l154 -376h-166zM811 1638h217l117 -376h-162zM129 942l25 121h505l-120 -621q-25 -127 -25 -192q0 -41 8 -60q23 -53 111 -53q109 0 172 78q65 80 98 252l117 596h354l-182 -942h149l-22 -121h-506l29 150q-82 -94 -172 -138q-84 -41 -215 -41 q-180 0 -250 105q-45 66 -45 176q0 66 14 135l109 555h-154z" />
<glyph unicode="&#x216;" horiz-adv-x="1785" d="M806 1651q27 145 136 229q106 82 268 82q160 0 235 -82q74 -78 45 -229h-124q8 74 -39 113t-150 39q-98 0 -162 -39q-61 -39 -84 -113h-125zM195 1372l22 121h768l-22 -121h-193l-143 -747q-25 -127 -25 -219q0 -110 35 -170q66 -113 276 -113q209 0 315.5 112.5 t162.5 389.5l145 747h-190l22 121h520l-22 -121h-193l-147 -768q-63 -340 -244 -487q-176 -145 -524 -145.5t-469 147.5q-77 95 -78 269q0 97 25 218l149 766h-190z" />
<glyph unicode="&#x217;" horiz-adv-x="1488" d="M518 1278q27 145 136 229q106 82 268 82q160 0 235 -82q74 -78 45 -229h-124q8 74 -39 113t-150 39q-98 0 -162 -39q-61 -39 -84 -113h-125zM129 942l25 121h505l-120 -621q-25 -127 -25 -192q0 -41 8 -60q23 -53 111 -53q109 0 172 78q65 80 98 252l117 596h354 l-182 -942h149l-22 -121h-506l29 150q-82 -94 -172 -138q-84 -41 -215 -41q-180 0 -250 105q-45 66 -45 176q0 66 14 135l109 555h-154z" />
<glyph unicode="&#x218;" horiz-adv-x="1478" d="M492 -399q90 45 133 94q45 51 62 121l8 43h215l-2 -4q-23 -113 -107 -191q-82 -78 -239 -135zM27 72l69 354h127v-11q0 -161 88 -241q90 -82 283 -82q154 0 248 59.5t114 172.5q5 25 5 46q0 59 -33 95q-46 49 -209 92l-213 55q-203 53 -277 156q-46 64 -46 168 q0 52 12 115q43 223 215 346t438 123q121 0 266 -23q127 -20 281 -65l-64 -330h-127q0 154 -84 225.5t-264 71.5q-150 0 -233.5 -51.5t-106.5 -153.5q-6 -28 -5 -51q0 -55 30 -90q43 -49 235 -101l213 -55q197 -53 271 -162q48 -71 47 -179q0 -56 -13 -124 q-43 -225 -223 -344q-178 -117 -481 -117q-147 0 -285 25q-147 27 -278 76z" />
<glyph unicode="&#x219;" horiz-adv-x="1150" d="M299 -399q90 45 133 94q45 51 62 121l8 43h215l-2 -4q-23 -113 -107 -191q-82 -78 -239 -135zM0 31l55 297h115q0 -4 -1 -14.5t-1 -14.5q0 -96 59.5 -155.5t178.5 -59.5q231 0 260 145q4 25 4 47q0 27 -24.5 58t-127.5 55l-137 37q-158 41 -209 106q-49 66 -49 146 q0 31 6 72q33 170 172 258q131 84 354 84q221 0 455 -64l-51 -268h-115q4 25 4 37q0 182 -225 182q-229 0 -254 -135q-2 -10 -2 -39q0 -65 123 -98l137 -37q199 -51 254 -119t55 -154q0 -41 -8 -75q-33 -176 -180 -265q-143 -86 -416 -86q-203 1 -432 60z" />
<glyph unicode="&#x21a;" horiz-adv-x="1523" d="M508 -399q90 45 133 94q45 51 62 121l8 43h215l-2 -4q-23 -113 -107 -191q-82 -78 -239 -135zM96 1120l72 373h1481l-72 -373h-135l45 236h-414l-239 -1235h198l-22 -121h-785l25 121h196l240 1235h-407l-46 -236h-137z" />
<glyph unicode="&#x21b;" horiz-adv-x="944" d="M299 -399q90 45 133 94q45 51 62 121l8 43h215l-2 -4q-23 -113 -107 -191q-82 -78 -239 -135zM100 942l23 121h153l66 330h352l-63 -330h295l-23 -121h-295l-127 -651q-16 -80 -16 -133q0 -31 4 -39q16 -35 74 -35q63 0 102 43q37 39 60 133h149q-41 -162 -131 -225.5 t-283 -63.5q-219 0 -284 70q-41 41 -41 135q0 49 12 115l127 651h-154z" />
<glyph unicode="&#x21c;" horiz-adv-x="1413" d="M-53 -430l26 129q129 29 385 156q385 190 433 424q20 109 -29 178q-86 117 -254 39l-229 -109l26 131l240 139q170 98 246 193q94 113 120 260q27 150 -26 219q-72 88 -154 70q-249 -55 -375 -375h-127l72 367q182 68 291 96q115 29 274 33q246 2 375 -109 q131 -113 100.5 -278.5t-129.5 -276.5q-94 -106 -243 -182q141 -18 207 -133q63 -111 41 -230q-33 -176 -310 -356q-195 -127 -463 -231q-296 -117 -497 -154z" />
<glyph unicode="&#x21d;" horiz-adv-x="1243" d="M-47 -432l22 113q158 35 328 110q350 156 381 313q18 96 -27 150q-46 55 -116 55q-63 0 -107 -14l-196 -66l22 113l205 88q111 47 213 156q78 84 96 172q20 106 -26 157q-49 57 -123 58q-111 0 -205 -66q-90 -61 -133 -200h-113l57 294q256 86 490 86q238 0 352 -100 q117 -102 96 -215q-40 -203 -319 -332q131 -16 188 -106q59 -92 41 -187q-47 -231 -729 -473q-198 -71 -397 -106z" />
<glyph unicode="&#x21e;" horiz-adv-x="1933" d="M796 1899h164l182 -162l244 162h166l-277 -264h-307zM-49 0l22 121h193l244 1251h-193l25 121h768l-25 -121h-190l-99 -502h594l99 502h-193l25 121h768l-25 -121h-190l-244 -1251h190l-22 -121h-768l22 121h193l119 612h-594l-119 -612h190l-22 -121h-768z" />
<glyph unicode="&#x21f;" horiz-adv-x="1488" d="M174 1899h164l182 -162l244 162h166l-277 -264h-307zM70 0l278 1436h-158l23 120h512l-125 -643q80 92 174 138q84 41 215 41q180 0 250 -107q45 -66 45 -174q0 -66 -14 -135l-109 -555h154l-25 -121h-506l134 686q14 66 14 119q0 45 -12 69q-25 51 -109 52 q-109 0 -172 -78q-66 -80 -98 -250l-117 -598h-354z" />
<glyph unicode="&#x220;" horiz-adv-x="1785" d="M70 0l24 121h191l241 1251h-149l22 121h539l-31 -154q100 96 209 140q111 43 266 43q230 0 320 -142q55 -86 55 -200.5t-20 -214.5l-246 -1270h190l-22 -121h-766l22 121h191l240 1233q29 143 28.5 229t-10.5 117q-31 96 -154 96q-150 0 -247 -125q-96 -123 -152 -403 l-139 -721h190l-24 -121h-768z" />
<glyph unicode="&#x221;" horiz-adv-x="1617" d="M45 532q51 260 211 410q158 150 383 150q113 0 182.5 -41t96.5 -123l98 508h-152l25 120h506l-228 -1163l90 2q57 0 109 -10q145 -25 115 -190q-43 -221 -394 -226q-141 0 -225 82q-20 20 -16 25q-29 -20 -53 -51q-35 -41 -64 -123h-111q14 74 54 141q-6 -8 -54 -31 q-86 -41 -196 -41q-225 0 -326 150q-102 153 -51 411zM424 215q27 -88 137 -88q102 0 168 84q63 82 100 268l23 105q35 180 2 270q-31 82 -135 82q-109 0 -172 -88q-63 -90 -107 -316q-43 -231 -16 -317zM1145 129q12 -29 51 -31q131 -6 150 82q25 129 -160 125 q-23 0 -35 -2l-2 -4q-24 -125 -4 -170z" />
<glyph unicode="&#x224;" horiz-adv-x="1492" d="M-16 0l26 141l1129 1215h-715l-45 -223h-137l69 360h1297l-27 -141l-1116 -1215h604h287l-6 -26q-43 -221 -166 -381t-336 -269l-84 142q127 88 190 188q66 106 88 209h-1058z" />
<glyph unicode="&#x225;" horiz-adv-x="1161" d="M20 0l23 121l772 825h-459l-37 -182h-118l59 299h989l-22 -119l-772 -825h325h287l-2 -8q-43 -221 -166 -381q-125 -162 -338 -269l-82 142q121 84 189 188q63 94 90 209h-738z" />
<glyph unicode="&#x226;" horiz-adv-x="1587" d="M830 1775.5q12 59.5 63 102.5q55 45 111 45q57 0 96 -45q35 -43 22.5 -102.5t-63.5 -102.5q-53 -43 -110 -43q-59 0 -97 43q-34 43 -22 102.5zM-162 0l25 121h121l829 1372h240l295 -1372h143l-25 -121h-698l23 121h147l-64 305h-561l-186 -305h178l-22 -121h-445z M385 547h463l-119 571z" />
<glyph unicode="&#x227;" horiz-adv-x="1325" d="M608 1468q12 57 66 103q53 43 110 43q59 0 97 -43q35 -43 22 -103q-12 -61 -63 -102q-55 -45 -113 -45q-59 0 -94 45q-37 47 -25 102zM72 449q43 221 233 415q227 227 533 228q301 0 344 -62l-176 -909l133 2l-25 -123h-442l24 135q-111 -164 -305 -164t-278 127 q-56 84 -56 209q0 65 15 142zM397 199q25 -72 121 -72q92 0 152 84q57 82 94 268l78 398q-2 59 -62 59q-133 0 -264 -160q-57 -70 -108 -321q-21 -104 -21 -175q-1 -51 10 -81z" />
<glyph unicode="&#x228;" horiz-adv-x="1560" d="M768 -375l29 156q37 -16 84 -27q35 -8 76 -8q61 0 96 23q33 23 43 69q6 31 -2 62q-6 20 -49 100h127q53 -70 69 -119q18 -53 9 -106q-14 -84 -90 -131q-72 -45 -195 -45q-49 0 -98 6q-33 4 -99 20zM-49 0l22 121h193l244 1251h-193l25 121h1341l-67 -352h-140l41 215 h-626l-95 -479h391l37 190h138l-101 -516h-137l39 190h-391l-117 -604h645l41 215h137l-67 -352h-1360z" />
<glyph unicode="&#x229;" horiz-adv-x="1302" d="M510 -375l29 156q37 -16 84 -27q35 -8 76 -8q61 0 96 23q33 23 43 69q6 31 -2 62q-6 20 -49 100h127q53 -70 69 -119q18 -53 9 -106q-14 -84 -90 -131q-72 -45 -195 -45q-49 0 -98 6q-33 4 -99 20zM68 379q0 63 16 149q53 270 231 416q180 147 445 148q190 0 323 -74 q131 -74 131 -209q0 -31 -6 -57q-66 -326 -753 -353q-6 -34 -6 -104q0 -211 204 -211q117 0 199 61.5t125 176.5h166q-76 -178 -223 -267q-141 -84 -373 -84q-274 0 -395 146q-84 102 -84 262zM477 518h23q307 0 354 244q6 37 6 69q0 147 -125 148q-94 0 -149.5 -90 t-108.5 -371z" />
<glyph unicode="&#x22a;" horiz-adv-x="1783" d="M915 2056l35 188h631l-37 -188h-629zM86 745q70 360 326 567.5t630 207.5q379 0 551 -205q123 -147 123 -373q0 -92 -20 -197q-72 -365 -326 -569.5t-631 -204.5t-549 205q-124 149 -124 376q0 91 20 193zM512 254q61 -162 252 -162q188 0 315 162q123 156 189 491 q33 167 32 292q0 121 -30 200q-61 162 -252 162t-316 -162q-123 -160 -188 -492q-33 -166 -32 -290q0 -120 30 -201zM778.5 1775.5q12.5 59.5 63.5 102.5q55 45 113 45q59 0 94 -45q35 -43 22 -102q-12 -61 -61 -103q-49 -43 -111 -43q-59 0 -96 43t-24.5 102.5zM1225 1776 q12 57 66 102q55 45 110 45q57 0 96 -45q37 -43 25 -102q-12 -57 -66 -103q-51 -43 -110.5 -43t-95.5 43q-37 46 -25 103z" />
<glyph unicode="&#x22b;" horiz-adv-x="1363" d="M70 393q0 70 14 139q52 264 240 412q188 147 469 148q283 0 411 -148q94 -106 94 -272q0 -70 -14 -140q-52 -261 -240 -411q-186 -150 -468.5 -150t-411.5 150q-94 106 -94 272zM446 270q0 -53 11 -90q27 -96 141 -96q109 0 174.5 96t114.5 352q33 162 33 267 q0 49 -11 86q-25 94 -139 94q-111 0 -176 -96q-66 -98 -115 -351q-33 -174 -33 -262zM508 1468q12 59 63.5 102.5t112.5 43.5t94 -43q35 -43 23 -103q-12 -61 -64 -104t-110 -43q-57 0 -97 45q-34 45 -22 102zM954 1468q12 59 63.5 102.5t111 43.5t96.5 -43t24 -103 q-12 -61 -63 -102q-55 -45 -113 -45q-59 0 -94 45q-37 47 -25 102zM612 1684l35 188h631l-37 -188h-629z" />
<glyph unicode="&#x22c;" horiz-adv-x="1783" d="M865 2056l35 188h631l-37 -188h-629zM86 745q70 360 326 567.5t630 207.5q379 0 551 -205q123 -147 123 -373q0 -92 -20 -197q-72 -365 -326 -569.5t-631 -204.5t-549 205q-124 149 -124 376q0 91 20 193zM512 254q61 -162 252 -162q188 0 315 162q123 156 189 491 q33 167 32 292q0 121 -30 200q-61 162 -252 162t-316 -162q-123 -160 -188 -492q-33 -166 -32 -290q0 -120 30 -201zM713 1635l2 12q25 125 90 190q70 66 168 66q61 0 133 -39q9 -3 13 -6l65 -33q25 -12 43 -18q25 -4 35 -4q41 0 70 24q29 23 38 70v4h111l-2 -15 q-25 -123 -90.5 -188t-167.5 -65q-31 0 -66 10q-43 12 -79 35l-52 28q-33 16 -49 21q-25 6 -43 6q-39 0 -69 -27q-29 -25 -39 -67v-4h-111z" />
<glyph unicode="&#x22d;" horiz-adv-x="1363" d="M70 393q0 70 14 139q52 264 240 412q188 147 469 148q283 0 411 -148q94 -106 94 -272q0 -70 -14 -140q-52 -261 -240 -411q-186 -150 -468.5 -150t-411.5 150q-94 106 -94 272zM446 270q0 -53 11 -90q27 -96 141 -96q109 0 174.5 96t114.5 352q33 162 33 267 q0 49 -11 86q-25 94 -139 94q-111 0 -176 -96q-66 -98 -115 -351q-33 -174 -33 -262zM446 1309l2 16q27 145 97 221q68 76 170 76q35 0 69 -12t74 -43l62 -47l2 -2q41 -29 75 -29q41 0 72 35q31 33 43 96h111l-4 -16q-27 -141 -97 -222q-70 -76 -170 -75q-31 0 -69 14 q-35 12 -72 41l-64 47h-2q-41 31 -73 31q-43 0 -74 -35q-29 -31 -41 -96h-111zM550 1684l35 188h631l-37 -188h-629z" />
<glyph unicode="&#x22e;" horiz-adv-x="1783" d="M86 745q70 360 326 567.5t630 207.5q379 0 551 -205q123 -147 123 -373q0 -92 -20 -197q-72 -365 -326 -569.5t-631 -204.5t-549 205q-124 149 -124 376q0 91 20 193zM512 254q61 -162 252 -162q188 0 315 162q123 156 189 491q33 167 32 292q0 121 -30 200 q-61 162 -252 162t-316 -162q-123 -160 -188 -492q-33 -166 -32 -290q0 -120 30 -201zM883 1775.5q12 59.5 63 102.5q55 45 111 45q57 0 96 -45q35 -43 22.5 -102.5t-63.5 -102.5q-53 -43 -110 -43q-59 0 -97 43q-34 43 -22 102.5z" />
<glyph unicode="&#x22f;" horiz-adv-x="1363" d="M70 393q0 70 14 139q52 264 240 412q188 147 469 148q283 0 411 -148q94 -106 94 -272q0 -70 -14 -140q-52 -261 -240 -411q-186 -150 -468.5 -150t-411.5 150q-94 106 -94 272zM446 270q0 -53 11 -90q27 -96 141 -96q109 0 174.5 96t114.5 352q33 162 33 267 q0 49 -11 86q-25 94 -139 94q-111 0 -176 -96q-66 -98 -115 -351q-33 -174 -33 -262zM692 1468q12 57 66 103q53 43 110 43q59 0 97 -43q35 -43 22 -103q-12 -61 -63 -102q-55 -45 -113 -45q-59 0 -94 45q-37 47 -25 102z" />
<glyph unicode="&#x230;" horiz-adv-x="1783" d="M915 2056l35 188h631l-37 -188h-629zM952 1841q12 57 66 103q53 43 110 43q59 0 97 -43q35 -43 22 -103q-12 -61 -63 -102q-55 -45 -113 -45q-59 0 -94 45q-37 47 -25 102zM86 745q70 360 326 567.5t630 207.5q379 0 551 -205q123 -147 123 -373q0 -92 -20 -197 q-72 -365 -326 -569.5t-631 -204.5t-549 205q-124 149 -124 376q0 91 20 193zM512 254q61 -162 252 -162q188 0 315 162q123 156 189 491q33 167 32 292q0 121 -30 200q-61 162 -252 162t-316 -162q-123 -160 -188 -492q-33 -166 -32 -290q0 -120 30 -201z" />
<glyph unicode="&#x231;" horiz-adv-x="1363" d="M70 393q0 70 14 139q52 264 240 412q188 147 469 148q283 0 411 -148q94 -106 94 -272q0 -70 -14 -140q-52 -261 -240 -411q-186 -150 -468.5 -150t-411.5 150q-94 106 -94 272zM446 270q0 -53 11 -90q27 -96 141 -96q109 0 174.5 96t114.5 352q33 162 33 267 q0 49 -11 86q-25 94 -139 94q-111 0 -176 -96q-66 -98 -115 -351q-33 -174 -33 -262zM692 1468q12 57 66 103q53 43 110 43q59 0 97 -43q35 -43 22 -103q-12 -61 -63 -102q-55 -45 -113 -45q-59 0 -94 45q-37 47 -25 102zM591 1684l35 188h631l-37 -188h-629z" />
<glyph unicode="&#x232;" horiz-adv-x="1460" d="M675 1684l35 188h631l-37 -188h-629zM104 1372l23 121h717l-25 -121h-166l226 -569l444 569h-147l22 121h428l-22 -121h-127l-551 -702l-109 -549h203l-25 -121h-788l22 121h201l98 497l-297 754h-127z" />
<glyph unicode="&#x233;" horiz-adv-x="1189" d="M415 1374l35 188h631l-37 -188h-629zM-39 -412l43 222h113q-4 -33 -4 -46q0 -68 47 -90q25 -10 63 -16q16 -2 49 -2q109 0 224 72l-283 1214h-117l25 121h434l238 -1028q117 172 192 354q76 186 154 551h-144l25 123h287q-23 -115 -62 -293q-88 -403 -201 -594 q-291 -489 -528 -579q-129 -51 -323 -52q-95 0 -232 43z" />
<glyph unicode="&#x234;" horiz-adv-x="1173" d="M170 -231l29 145q18 86 67 178q-18 20 -18 21q-102 152 -53 411l176 912h-152l25 120h506l-201 -1032q-20 -104 -14 -209q162 74 342 74q209 0 165 -217q-41 -211 -376 -213q-180 -2 -299 72q-16 -29 -33 -117l-29 -145h-135zM553 221q63 -152 219 -151q139 0 160 106 q25 123 -66 123q-256 -4 -313 -78z" />
<glyph unicode="&#x235;" horiz-adv-x="1888" d="M137 0l182 942h-149l23 121h505l-28 -150q82 94 172 138q84 41 215 41q180 0 250 -105q72 -104 30 -311l-28 -152q-20 -104 -15 -209q164 74 342 74q209 0 166 -217q-41 -211 -377 -213q-180 -2 -299 72q-16 -29 -32 -117l-27 -145h-137l28 145q18 86 68 178q0 2 -18 21 q-102 152 -54 411l31 162q25 139 2 188q-25 51 -108 52q-109 0 -172 -78q-66 -80 -99 -250l-116 -598h-355zM1313 221q63 -152 221 -151q137 0 158 106q25 123 -66 123q-256 -4 -313 -78z" />
<glyph unicode="&#x236;" horiz-adv-x="1155" d="M119 942l24 121h154l63 330h355l-64 -330h295l-24 -121h-295l-82 -422q-16 -76 -13 -205q164 74 342 74q209 0 166 -217q-41 -211 -376 -213q-180 -2 -299 72q-16 -29 -33 -117l-29 -145h-135l29 145q18 86 67 178q-18 20 -18 21q-104 154 -56 407l82 422h-153zM551 221 q63 -152 219 -151q139 0 160 106q25 123 -68 123q-254 -2 -311 -78z" />
<glyph unicode="&#x237;" horiz-adv-x="739" d="M-293 -416l45 226h113q-14 -78 8 -117q20 -35 88 -35q72 0 113 47q35 41 61 170l207 1067h-149l22 121h506l-232 -1188q-31 -162 -163.5 -246t-356.5 -84q-55 0 -127 11q-63 8 -135 28z" />
<glyph unicode="&#x238;" horiz-adv-x="2111" d="M39 532q53 262 209 410q158 150 385 150q111 0 180 -41q72 -43 98 -123l99 508h-152l23 120h505l-120 -628q61 84 143 123q86 41 197 41q229 0 329.5 -149.5t49.5 -410.5q-53 -262 -211 -411.5t-385 -149.5q-111 0 -181 41q-72 43 -98 123l-2 -14l-23 -121h-354l23 121 l4 14q-63 -84 -146 -123q-88 -41 -196 -41q-227 0 -328 150t-49 411zM418 215q27 -88 137 -88q102 0 168 84q63 82 100 268l21 105q37 184 4 270q-31 82 -135 82q-109 0 -172 -88q-59 -84 -107 -316q-45 -225 -16 -317zM1174 211q31 -84 137 -84q109 0 170 88t106 317 q45 225 17 316q-29 88 -135.5 88t-170 -82t-100.5 -270l-20 -105q-37 -182 -4 -268z" />
<glyph unicode="&#x239;" horiz-adv-x="2111" d="M121 530q49 258 211 412q158 150 387 150q109 0 178 -41q72 -43 98 -123l27 135h352l-24 -135q63 84 145 123q88 41 197 41q225 0 325 -150q101 -151 49 -412q-49 -258 -208 -409q-158 -150 -385 -150q-111 0 -181 41q-72 43 -98 123l-84 -440h152l-25 -121h-506l111 561 q-61 -82 -146 -123q-86 -41 -196 -41q-227 0 -327.5 149.5t-51.5 409.5zM502 215q27 -88 137 -88q102 0 168 84q63 82 100 268l21 105q37 184 4 270q-31 82 -137 82q-109 0 -172 -88q-61 -86 -105 -316q-43 -231 -16 -317zM1257 211q31 -84 138 -84q109 0 170 88 q66 94 106 317q43 231 17 316q-29 88 -138 88q-104 0 -167.5 -82t-100.5 -270l-20 -105q-38 -182 -5 -268z" />
<glyph unicode="&#x23a;" horiz-adv-x="1587" d="M-170 12l14 13l19 96h96l51 43l803 1329h240l84 -385l551 461l71 -90l-596 -500l187 -858h141l-25 -121h-698l25 121h145l-64 305h-370l-365 -305h168l-24 -121h-287l-94 -78zM301 410l23 16h-11zM385 547h84l324 272l-64 299zM647 547h201l-29 143z" />
<glyph unicode="&#x23b;" horiz-adv-x="1628" d="M-152 12l293 244q-113 199 -55 489q68 354 330 566q261 209 639 209q129 0 268 -31q100 -25 211 -66l174 146l74 -90l-185 -154l-59 -301h-127q0 76 -14 133l-910 -762q8 -82 37 -143q74 -160 295 -160q152 0 260.5 82t186.5 252h198q-106 -233 -278 -342 q-178 -113 -434 -113q-360 0 -541 193l-289 -242zM485 547l867 723q-16 25 -27 37q-86 92 -254 92q-215 0 -354 -160q-137 -160 -203 -494q-23 -114 -29 -198z" />
<glyph unicode="&#x23c;" horiz-adv-x="1245" d="M-115 -16l234 194q-78 139 -35 354q51 262 235 412q181 147 455 148q119 0 221 -21q78 -16 146 -37l151 127l70 -86l-162 -135l-45 -227h-111q4 57 -2 96l-587 -492q0 -86 18 -129q40 -104 178 -104q109 0 185 63q78 66 114 185h166q-74 -181 -209 -271 q-137 -90 -336 -90q-256 0 -387 121l-231 -194zM469 471l532 447q-51 61 -161 61q-150 0 -232 -100q-80 -96 -129 -347q-8 -38 -10 -61z" />
<glyph unicode="&#x23d;" horiz-adv-x="1439" d="M-49 0l22 121h193l104 538h-250l39 193h248l103 520h-193l25 121h768l-25 -121h-190l-103 -520h248l-39 -193h-246l-100 -522h588l45 236h135l-74 -373h-1298z" />
<glyph unicode="&#x23e;" horiz-adv-x="1523" d="M-203 12l754 629l137 715h-412l-45 -236h-135l72 373h1399l90 76l74 -90l-103 -84l-51 -275h-137l26 137l-489 -407l-141 -729h198l-24 -121h-785l25 121h199l65 340l-643 -539zM1012 1028l391 328h-328z" />
<glyph unicode="&#x23f;" horiz-adv-x="1150" d="M39 31l57 297h115q-16 -188 143 -232q47 -10 101 -12q193 0 241 113q8 20 11 32q14 80 -41 117q-29 20 -107 43l-137 37q-160 43 -217 119q-59 78 -35 205q49 248 307 315q104 27 250 27q190 0 424 -64l-51 -268h-115q25 219 -231 219q-209 0 -242 -123q-2 -4 -2 -12 q-14 -74 43 -107q31 -16 78 -30l137 -37q195 -51 260 -129q68 -82 41 -219q-39 -207 -233 -291q-121 -53 -324 -60q0 -4 2 -10l4 -12l25 -111q23 -100 53 -135q33 -35 98 -35q10 0 51 37q39 35 58 115h112l-43 -221q-147 -41 -243 -43h-107q-133 0 -217 59q-88 61 -106 156 l-43 204q-2 20 -23 33q-41 8 -61 15q-25 4 -33 8z" />
<glyph unicode="&#x240;" horiz-adv-x="1161" d="M12 0l25 121l770 825h-459l-37 -182h-118l59 299h989l-22 -119l-773 -825q188 0 220 -154l26 -137q23 -98 53 -133q33 -37 101 -37q9 0 49 37q41 37 59 115h113l-43 -222q-57 -16 -137 -32q-51 -10 -213 -11q-133 0 -217 60q-86 59 -109 155l-41 197q-9 43 -92 43h-203z " />
<glyph unicode="&#x241;" horiz-adv-x="1351" d="M-2 0l22 121h193l121 618h262q129 0 223 86q92 84 121 231.5t-31 229.5q-61 86 -190 86h-232q-102 0 -131 -29q-33 -33 -53 -114h-113l37 198q66 33 141.5 49.5t141.5 16.5h393q252 0 373 -119q125 -123 86 -317q-39 -199 -211 -318q-174 -121 -418 -121h-39l-96 -497 h240l-23 -121h-817z" />
<glyph unicode="&#x242;" horiz-adv-x="1120" d="M152 827l36 199q66 33 142 49.5t141 16.5h162q250 0 373 -117q125 -123 86 -320q-37 -197 -209 -317q-98 -68 -224 -98l-47 -240h-354l68 340q129 0 223 86q96 86 123 229q29 145 -33 232q-59 84 -190 84q-104 0 -132 -27q-31 -31 -53 -117h-112z" />
<glyph unicode="&#x245;" horiz-adv-x="1587" d="M-162 0l25 121h121l829 1372h240l295 -1372h143l-25 -121h-698l23 121h147l-209 997l-602 -997h178l-22 -121h-445z" />
<glyph unicode="&#x250;" horiz-adv-x="1325" d="M164 942l22 121h506l-24 -135q90 88 180 125q92 39 203 39q162 0 233 -88q70 -86 39 -250q-33 -176 -178 -269q-139 -88 -395 -88h-187l-10 -63q-25 -131 22 -191q49 -61 179 -61q108 0 172 43q66 43 108 143h113l-45 -229q-94 -31 -207 -51q-92 -16 -217 -17 q-289 0 -397 107q-111 106 -68 332l102 532h-151zM588 516h133q100 0 162 53q63 55 82 156q18 104 -9 152q-27 49 -106 49q-84 0 -143.5 -53.5t-77.5 -143.5z" />
<glyph unicode="&#x251;" horiz-adv-x="1431" d="M84 532q51 260 211 410q154 150 473 145q350 -2 426 -155q96 76 207 131h129l-10 -43q-133 -92 -217 -195q-25 -34 -93 -153l-10 -326q-6 -215 82 -219q84 -2 178 61l-30 -155q-295 -108 -461 12q-29 20 -62 59q-49 -58 -135 -92q-100 -41 -248 -41q-291 0 -391 150 q-98 147 -49 411zM463 215q27 -88 137 -88q102 0 168 84q16 25 80 149l33 420q12 147 -123 156q-102 8 -172 -88q-63 -90 -107 -316q-43 -231 -16 -317z" />
<glyph unicode="&#x252;" horiz-adv-x="1431" d="M84 -4l8 45q137 94 217 192q33 47 94 154l9 328q6 213 -80 219q-86 3 -178 -62l28 154q297 109 463 -12q29 -20 62 -60q53 63 133 95q96 39 247 38q291 0 391.5 -149.5t51.5 -409.5q-53 -262 -211 -411q-154 -150 -473 -146q-352 4 -428 156q-100 -78 -205 -131h-129z M733 281q-12 -147 123 -156q104 -9 172 86q61 86 105 315q43 236 18 318q-29 92 -137 88q-104 0 -170 -82q-6 -10 -78 -152z" />
<glyph unicode="&#x253;" horiz-adv-x="1431" d="M51 0l240 1227q31 164 162 246q133 84 358 83q53 0 125 -10q63 -8 135 -28l-43 -226h-113q12 78 -10 115q-20 37 -88 37q-74 0 -110 -47q-39 -49 -64 -170l-57 -297q66 86 143 123q80 39 197 39q229 0 329.5 -149.5t49.5 -410.5q-53 -262 -211 -411.5t-385 -149.5 q-111 0 -181 41q-72 43 -98 123l-24 -135h-355zM494 211q31 -84 137 -84q109 0 170 88t106 317q45 225 17 316q-29 88 -135.5 88t-170 -82t-100.5 -270l-20 -105q-37 -182 -4 -268z" />
<glyph unicode="&#x254;" horiz-adv-x="1245" d="M27 55l57 295h113q-12 -133 39 -200q49 -66 163 -66q150 0 232 100q80 96 129 346q46 240 6 344.5t-178 104.5q-109 0 -185 -64q-78 -66 -114 -184h-166q76 184 209 272.5t336 88.5q283 0 411 -148q129 -145 76 -414q-53 -266 -233 -411q-184 -147 -457 -148 q-119 0 -221 21q-117 22 -217 63z" />
<glyph unicode="&#x255;" horiz-adv-x="1245" d="M94 520q49 252 250 408q201 152 477 151q168 0 244 -22q82 -20 164 -72l-53 -272h-95q8 139 -41 205q-49 63 -163 63q-150 0 -248 -115q-104 -123 -144 -346q-18 -94 -12 -205q156 70 401 74q268 0 220 -231q-43 -199 -492 -199q-182 0 -297 72q-16 -29 -33 -117 l-26 -145h-137l28 145q18 86 68 178l-21 21q-139 153 -90 407zM492 221q61 -152 219 -151q252 0 274 116q10 57 -34 86t-146 27q-260 -4 -313 -78z" />
<glyph unicode="&#x256;" horiz-adv-x="1431" d="M80 532q53 262 209 410q158 150 385 150q111 0 180 -41q72 -43 98 -123l99 508h-152l23 120h505l-301 -1556h-2l-22 -125q-25 -125 -4 -170q23 -47 92 -47q68 0 102.5 35t53.5 117h112l-43 -226q-86 -20 -147 -28q-78 -10 -129 -11q-223 0 -324 84q-98 83 -67 246l49 258 q-63 -82 -144 -121q-88 -41 -196 -41q-227 0 -328 150q-98 147 -49 411zM459 215q27 -88 137 -88q104 0 170 84q61 78 98 268l23 105q37 184 4 270q-31 82 -137 82q-109 0 -172 -88q-63 -90 -107 -316q-43 -231 -16 -317z" />
<glyph unicode="&#x257;" horiz-adv-x="1492" d="M39 532q53 262 209 410q158 150 385 150q111 0 180 -41q72 -43 98 -123l60 299q31 164 162 246q133 84 358 83q53 0 125 -10q63 -8 135 -28l-43 -226h-113q12 78 -10 115q-20 37 -88 37q-74 0 -111 -47q-39 -49 -63 -170l-238 -1227h-354l27 135q-63 -84 -146 -123 q-88 -41 -196 -41q-227 0 -328 150t-49 411zM418 215q27 -88 137 -88q102 0 168 84q63 82 100 268l21 105q37 184 4 270q-31 82 -135 82q-109 0 -172 -88q-59 -84 -107 -316q-45 -225 -16 -317z" />
<glyph unicode="&#x258;" horiz-adv-x="1302" d="M70 322h166q-2 -113 57 -177q59 -61 174 -61q137 0 217 92q82 94 121 297v8h-731q68 297 239 455q170 156 435 156q268 0 391 -147.5t71 -412.5q-51 -270 -229 -415q-176 -145 -451 -146q-233 0 -342 84q-110 87 -118 267zM485 600h342l4 18q39 199 15 279 q-25 82 -115 82q-96 0 -149 -84q-58 -88 -97 -295z" />
<glyph unicode="&#x259;" horiz-adv-x="1302" d="M94 582h731v8q39 203 -4 297q-43 92 -182 92q-114 0 -197 -61q-82 -61 -125 -177h-165q76 180 221 267q141 84 375 84q274 0 395 -145.5t67 -416.5q-53 -266 -231 -411q-180 -147 -449 -148q-264 0 -374.5 156t-61.5 455zM442 168q20 -84 115 -84q92 0 148 84 q57 88 94 276l4 19h-342q-41 -209 -19 -295z" />
<glyph unicode="&#x25a;" horiz-adv-x="1857" d="M82 342l199 102l565 293q4 96 -25 152q-43 90 -182 90q-114 0 -197 -61q-82 -61 -125 -177h-165q76 180 221 267q141 84 375 84q276 0 395 -146q20 -25 28 -39l228 117l174 -2l-8 -43q-18 -90 20 -135q41 -45 101 -45q96 0 112 32l88 -151q-86 -49 -90 -49 q-49 -18 -143 -19q-117 0 -193 95q-63 80 -51 200l-197 -102q29 -119 -2 -275q-53 -266 -231 -411q-180 -147 -449 -148q-262 0 -374 156q-62 86 -74 215zM440 168q23 -84 117 -84q92 0 148 84q59 88 94 276l30 162l-378 -196q-29 -170 -11 -242z" />
<glyph unicode="&#x25b;" horiz-adv-x="1243" d="M51 283q25 131 127 198q119 80 262 94q-132 28 -190 87q-57 57 -39 149q23 117 143 184q139 78 400 82q266 0 448 -49l-41 -213h-112q4 70 -64 111q-63 39 -156 39q-123 0 -196 -50q-72 -49 -82 -106q-16 -70 35 -117q57 -55 184 -55h68l-27 -137h-61q-150 0 -252 -70 q-80 -53 -95 -141q-14 -78 37 -133q63 -68 217 -68q150 0 250 80q47 35 66 98h110l-45 -233q-272 -57 -477 -58q-225 0 -366 62q-177 74 -144 246z" />
<glyph unicode="&#x25c;" horiz-adv-x="1148" d="M-12 33l45 233h110q-2 -59 29 -98q68 -80 219 -80q154 0 244 68q76 57 90 133q18 88 -41 141q-76 70 -225 70h-62l27 137h65q129 0 209 55q63 45 80 117q12 61 -39 106q-55 49 -180 50q-94 0 -172 -39q-78 -37 -104 -111h-113l41 213q203 49 469 49q260 -4 367 -82 q94 -68 71 -184q-18 -92 -96 -149q-80 -59 -223 -87q141 -16 225 -94q74 -68 49 -198q-34 -172 -239 -246q-166 -61 -392 -62q-204 1 -454 58z" />
<glyph unicode="&#x25d;" horiz-adv-x="1857" d="M-12 33l45 233h110q-2 -59 29 -98q68 -80 219 -80q154 0 244 68q76 57 90 133q18 88 -41 141q-76 70 -225 70h-62l27 137h65q129 0 209 55q63 45 80 117q12 61 -39 106q-55 49 -180 50q-94 0 -172 -39q-78 -37 -104 -111h-113l41 213q203 49 469 49q260 -4 367 -82 q80 -59 77 -145l275 174l174 -2l-8 -43q-18 -94 20 -135q41 -45 98 -45q98 0 115 32l88 -151q-86 -49 -90 -49q-49 -18 -143 -19q-117 0 -193 95q-63 80 -51 200l-387 -245q-80 -59 -223 -87q137 -14 225 -94q74 -68 49 -198q-34 -172 -239 -246q-166 -61 -392 -62 q-204 1 -454 58z" />
<glyph unicode="&#x25e;" horiz-adv-x="1472" d="M84 528q61 309 465 490q74 35 180 55q90 18 201 19q276 0 403 -76q129 -76 101 -219q-22 -101 -136 -172q-119 -72 -303 -97q176 -25 267 -96q88 -72 67 -174q-27 -141 -186 -217q-162 -78 -465 -78q-6 0 -160 21q-57 8 -162 55q-338 153 -272 489zM385 524 q-49 -250 137 -397q31 -23 92 -45q31 -12 88 -12q106 0 177 51q66 51 84 147q14 74 -43 138q-59 61 -197 61h-39l25 121h36q141 0 224 63q80 59 96 137q18 94 -29 148q-49 51 -155 51q-16 0 -95 -18q-39 -8 -108 -45q-242 -124 -293 -400z" />
<glyph unicode="&#x25f;" horiz-adv-x="790" d="M-293 -416l45 226h113q-14 -78 8 -117q20 -35 88 -35q72 0 113 47q35 41 61 170l119 604h-150l23 121h149l66 342h-149l22 121h506l-90 -463h153l-22 -121h-156l-117 -604q-31 -162 -163.5 -246t-356.5 -84q-55 0 -127 11q-63 8 -135 28z" />
</font>
</defs>
</svg>
