<?xml version="1.0" standalone="no"?>
<!DOCTYPE svg PUBLIC "-//W3C//DTD SVG 1.1//EN" "http://www.w3.org/Graphics/SVG/1.1/DTD/svg11.dtd" >
<svg xmlns="http://www.w3.org/2000/svg">
<metadata>
This is a custom SVG webfont generated by Font Squirrel.
Copyright   : Copyright c 2003 by Bitstream Inc All Rights ReservedDejaVu changes are in public domain
Foundry     : DejaVu fonts team
Foundry URL : httpdejavusourceforgenet
</metadata>
<defs>
<font id="webfont3NfSkWMU" horiz-adv-x="1714" >
<font-face units-per-em="2048" ascent="1556" descent="-492" />
<missing-glyph horiz-adv-x="712" />
<glyph unicode="&#xfb00;" horiz-adv-x="1679" d="M63 942v121h158v133q0 176 112.5 268t334.5 92q76 0 163 -10q78 -8 160 -28v-228h-112q-10 82 -45 117q-37 37 -107 37q-80 0 -117 -58q-35 -55 -35 -186v-137h447v133q0 176 113 268q115 92 331 92q78 0 166 -10q78 -8 160 -28v-228h-113q-10 82 -45 117q-37 37 -106 37 q-80 0 -117 -58q-37 -59 -37 -186v-137h268v-121h-268v-821h207v-121h-711v121h152v821h-447v-821h205v-121h-708v121h149v821h-158z" />
<glyph unicode="&#xfb01;" horiz-adv-x="1488" d="M63 942v121h158v76q0 207 141 311q143 106 418 106q96 0 205 -12q111 -12 225 -37v-239h-112q-12 86 -71.5 131t-164.5 45q-145 0 -217 -72q-70 -70 -70 -223v-86h715v-942h152v-121h-635v121h129v821h-361v-821h130v-121h-635v121h151v821h-158z" />
<glyph unicode="&#xfb02;" horiz-adv-x="1488" d="M63 942v121h158v76q0 215 146 315q150 102 452 102h467v-1435h152v-121h-635v121h129v1323h-88q-141 0 -205 -69.5t-64 -225.5v-86h242v-121h-242v-821h130v-121h-635v121h151v821h-158z" />
<glyph unicode="&#xfb03;" horiz-adv-x="2291" d="M63 942v121h158v133q0 176 115 268q114 92 332 92q78 0 166 -10q74 -8 157 -28v-228h-110q-10 80 -47 117t-107 37q-78 0 -115 -58q-37 -59 -37 -186v-137h447v76q0 209 139 311q143 106 418 106q96 0 205 -12q111 -12 225 -37v-239h-111q-12 86 -71.5 131t-163.5 45 q-147 0 -219 -72q-70 -70 -70 -223v-86h717v-942h152v-121h-635v121h129v821h-363v-821h131v-121h-635v121h152v821h-447v-821h205v-121h-708v121h149v821h-158z" />
<glyph unicode="&#xfb04;" horiz-adv-x="2285" d="M63 942v121h158v133q0 176 113 268q114 92 332 92q78 0 165 -10q78 -8 160 -28v-228h-112q-10 82 -45 117q-37 37 -107 37q-80 0 -117 -58q-35 -55 -35 -186v-137h445v76q0 215 145 315q150 102 453 102h467v-1435h151v-121h-634v121h129v1323h-89q-141 0 -204 -70 q-66 -72 -66 -225v-86h244v-121h-244v-821h131v-121h-635v121h152v821h-445v-821h205v-121h-710v121h151v821h-158z" />
<glyph unicode=" "  horiz-adv-x="712" />
<glyph unicode="&#x09;" horiz-adv-x="712" />
<glyph unicode="&#xa0;" horiz-adv-x="712" />
<glyph unicode="!" horiz-adv-x="897" d="M260 162q0 80 55.5 135t133.5 55q80 0 135 -55t55 -135t-55.5 -135.5t-134.5 -55.5q-78 0 -133.5 55.5t-55.5 135.5zM262 1493h375l-119 -842v-190h-139v190z" />
<glyph unicode="&#x22;" horiz-adv-x="1064" d="M195 938v555h237v-555h-237zM635 938v555h237v-555h-237z" />
<glyph unicode="#" d="M139 383v215h328l70 274h-283v213h338l96 385h223l-96 -385h264l97 385h221l-97 -385h277v-213h-330l-69 -274h284v-215h-336l-96 -383h-221l96 383h-264l-96 -383h-223l96 383h-279zM690 598h264l70 274h-264z" />
<glyph unicode="$" horiz-adv-x="1423" d="M182 897q0 178 123 282.5t342 110.5v269h121v-269q109 -6 215 -28q111 -23 199 -60v-272h-121q-14 115 -92 180q-76 63 -201 68v-373q270 -57 379 -158q109 -98 108 -280q0 -184 -127 -287t-360 -109v-270h-121v270q-109 2 -223 25q-117 23 -229 63v291h120 q18 -139 95 -200q82 -66 223 -66h14v405q-250 55 -356 150q-109 96 -109 258zM463 1022q0 -70 43 -113q45 -45 141 -71v340q-88 -12 -135 -54q-49 -43 -49 -102zM768 84q101 12 154 55q51 43 51 117t-49 123q-47 47 -156 78v-373z" />
<glyph unicode="%" horiz-adv-x="1945" d="M49 1114q0 199 101 301q100 104 292.5 104.5t292.5 -104.5q100 -102 101 -301q0 -201 -101 -303q-100 -104 -292.5 -104t-292.5 104q-101 102 -101 303zM322 1114q0 -164 28 -237q27 -70 92.5 -70t92.5 70q29 74 28 237q0 162 -28 236q-27 70 -92.5 69.5t-92.5 -69.5 q-28 -74 -28 -236zM420 -29l934 1549h172l-934 -1549h-172zM1110 379q0 195 102 301q102 104 291 104t291 -104q102 -106 102 -301q0 -197 -102 -303q-102 -104 -290.5 -104.5t-291.5 104.5q-102 106 -102 303zM1382 379q0 -164 29 -238q27 -70 92.5 -69.5t91.5 69.5 q29 74 29 238q0 162 -29 235q-27 70 -92 70q-68 0 -94 -70q-27 -67 -27 -235z" />
<glyph unicode="&#x26;" horiz-adv-x="1847" d="M82 451q0 162 86 278q84 115 272 199q-55 70 -78 129q-25 61 -24 117q0 164 137 256q135 90 387 90q74 0 172 -13q84 -10 223 -34v-312h-129q-18 123 -75.5 180.5t-165.5 57.5q-104 0 -160 -47q-57 -49 -57 -131q0 -90 180 -275l29 -28l460 -482q59 66 95 158 q35 90 43 201h-183v120h500v-120h-176q-18 -154 -62 -258q-45 -113 -120 -201l206 -215h170v-121h-479l-127 131q-104 -82 -221 -121t-264 -39q-303 0 -469 127q-170 130 -170 353zM436 516q0 -172 107 -278q109 -109 270 -109q78 0 152 25q76 25 147 75l-565 588 q-53 -66 -82 -143q-29 -80 -29 -158z" />
<glyph unicode="'" horiz-adv-x="626" d="M195 938v555h237v-555h-237z" />
<glyph unicode="(" horiz-adv-x="968" d="M193 618q0 344 163 576q162 229 506 362v-120q-156 -94 -227 -285q-70 -184 -70 -532.5t70 -532.5q72 -190 227 -285v-120q-338 127 -504 358q-165 233 -165 579z" />
<glyph unicode=")" horiz-adv-x="968" d="M104 -199q156 94 228 285q70 184 69.5 532.5t-69.5 532.5q-72 190 -228 285v120q340 -131 506 -362q164 -227 164 -576q0 -346 -166 -579q-166 -231 -504 -358v120z" />
<glyph unicode="*" horiz-adv-x="1069" d="M45 874l361 170l-361 168l98 158l328 -242l-27 392h183l-27 -392l328 242l98 -158l-360 -168l360 -170l-98 -155l-328 239l27 -389h-183l27 389l-328 -239z" />
<glyph unicode="+" d="M217 528v230h526v526h230v-526h526v-230h-526v-526h-230v526h-526z" />
<glyph unicode="," horiz-adv-x="712" d="M27 -197q104 82 153 189q49 104 49 241v86h285v-8q0 -221 -92 -380.5t-285 -268.5z" />
<glyph unicode="-" horiz-adv-x="849" d="M111 414v270h628v-270h-628z" />
<glyph unicode="." horiz-adv-x="712" d="M166 162q0 80 55 135t135 55t135.5 -55t55.5 -135t-55.5 -135.5t-135.5 -55.5t-135 55.5t-55 135.5z" />
<glyph unicode="/" horiz-adv-x="747" d="M0 -190l526 1683h222l-527 -1683h-221z" />
<glyph unicode="0" horiz-adv-x="1423" d="M96 745q0 377 160 576t457 199t456.5 -199t159.5 -575.5t-159.5 -575.5t-456.5 -199t-457 198.5t-160 575.5zM504 745.5q0 -436.5 45 -548.5q43 -109 164 -109t164 109q45 113 45 548q0 430 -45 547q-43 111 -164 111t-164 -109q-45 -112 -45 -548.5z" />
<glyph unicode="1" horiz-adv-x="1423" d="M250 1145v149l375 226h315v-1399h281v-121h-940v121h280v1208z" />
<glyph unicode="2" horiz-adv-x="1423" d="M137 0v244l221 153q281 193 377 332q94 137 94 320q0 174 -71.5 264t-208.5 90q-117 0 -188.5 -71.5t-90.5 -207.5h-120v322q125 37 241 55q121 18 242 19q285 0 444.5 -117t159.5 -324q0 -152 -88 -266q-94 -123 -336 -278l-416 -273h707v176h137v-438h-1104z" />
<glyph unicode="3" horiz-adv-x="1423" d="M143 51v328h121q12 -145 88 -217q78 -74 217 -74q154 0 236 84t82 240q0 162 -86 250t-246 88h-66v120h52q147 0 221 68t74 203q0 127 -70 194.5t-199 67.5q-121 0 -186 -64q-68 -66 -84 -188h-121v299q141 37 256 53q109 16 242 17q268 0 413.5 -96.5t145.5 -276.5 q0 -137 -82 -219q-86 -86 -244 -113q195 -31 291 -133t96 -279q0 -211 -165.5 -321.5t-479.5 -110.5q-123 0 -243 21q-140 24 -263 59z" />
<glyph unicode="4" horiz-adv-x="1423" d="M84 393v115l625 1012h376v-998h256v-129h-256v-272h222v-121h-822v121h222v272h-623zM262 522h445v725z" />
<glyph unicode="5" horiz-adv-x="1423" d="M168 53v326h121q6 -150 76 -219q72 -72 208 -72q147 0 218 98q72 100 71.5 301t-69.5 297q-72 98 -211 99q-77 0 -136 -31q-53 -29 -110 -98h-100v739h919v-262h-799v-328q66 53 148 78q80 25 170 25q274 0 436 -140q160 -137 160 -379q0 -246 -160 -381t-448 -135 q-127 0 -242 21q-141 24 -252 61z" />
<glyph unicode="6" horiz-adv-x="1423" d="M129 698q0 408 174 615t520 207q94 0 193 -15q113 -16 221 -45v-264h-121q-25 102 -94 154q-72 53 -180 53q-178 0 -258 -123t-80 -395q66 53 145 78q86 27 176 26q229 0 359 -135q131 -137 131 -367q0 -246 -147.5 -381t-417.5 -135q-307 0 -463 185q-158 186 -158 542z M537 479q0 -217 43 -303q43 -88 147 -88t147 88q43 86 43.5 303t-43.5 303q-43 88 -147 88t-147 -88q-43 -86 -43 -303z" />
<glyph unicode="7" horiz-adv-x="1423" d="M162 1008v485h1093v-254l-616 -1239h-203l600 1210h-737v-202h-137z" />
<glyph unicode="8" horiz-adv-x="1423" d="M106 397q0 164 93 267q94 104 270 131q-162 39 -236 120q-78 88 -77 215q0 186 143 289q139 100 412 101q274 0 413 -101q141 -100 142 -289q0 -131 -78 -215t-236 -120q176 -27 271 -131q92 -102 92 -267q0 -205 -156 -315q-157 -111 -448 -111q-292 0 -449 111 q-156 110 -156 315zM504 414q0 -184 47 -256q45 -70 159.5 -70t159.5 70q47 72 48 256q0 186 -46 252q-47 70 -161 69q-113 0 -160 -69.5t-47 -251.5zM543 1126q0 -157 37 -215q37 -59 131 -59t131 59q37 58 37 215q0 160 -37 217q-37 59 -131.5 59.5t-130.5 -59.5 q-37 -57 -37 -217z" />
<glyph unicode="9" horiz-adv-x="1423" d="M111 1004q0 250 145 383t418 133q309 0 465 -185q158 -186 157 -542q0 -403 -176 -615q-174 -207 -518 -207q-94 0 -192 15q-113 16 -222 45v264h121q25 -102 94 -154q72 -53 181 -53q176 0 256 123q82 127 82 397q-61 -51 -148 -80q-78 -27 -174 -26q-229 0 -358 133 q-131 136 -131 369zM508 1012q0 -217 43 -303q43 -88 147.5 -88t147.5 88q43 86 43 303t-43 303q-43 88 -147.5 88t-147.5 -88q-43 -86 -43 -303z" />
<glyph unicode=":" horiz-adv-x="755" d="M188 162q0 80 55.5 135t133.5 55q80 0 135 -55t55 -135t-55 -135.5t-135 -55.5q-78 0 -133.5 55.5t-55.5 135.5zM188 813q0 80 55.5 135.5t133.5 55.5q80 0 135 -55.5t55 -135.5q0 -78 -55 -133t-135 -55q-78 0 -133.5 55t-55.5 133z" />
<glyph unicode=";" horiz-adv-x="755" d="M53 -188q104 84 154 186q49 104 49 242v88h285q0 -224 -92 -387q-92 -162 -285 -271zM188 813q0 80 55.5 135.5t133.5 55.5q80 0 135 -55.5t55 -135.5q0 -78 -55 -133t-135 -55q-78 0 -133.5 55t-55.5 133z" />
<glyph unicode="&#x3c;" d="M217 530v226l1282 463v-240l-979 -338l979 -336v-239z" />
<glyph unicode="=" d="M217 301v227h1282v-227h-1282zM217 756v227h1282v-227h-1282z" />
<glyph unicode="&#x3e;" d="M217 66v239l979 336l-979 338v240l1282 -463v-226z" />
<glyph unicode="?" horiz-adv-x="1198" d="M133 1145v307q111 31 236 51q98 16 217 17q252 0 387 -111t135 -315q0 -199 -131 -318q-129 -117 -375 -135v-205h-139v299q139 43 205 135q66 94 65 246q0 143 -61.5 217t-179.5 74q-111 0 -170 -66q-57 -63 -68 -196h-121zM342 162q0 80 55.5 135t135 55t135 -55 t55.5 -135t-55.5 -135.5t-135 -55.5t-135 55.5t-55.5 135.5z" />
<glyph unicode="@" horiz-adv-x="2048" d="M135 543q0 188 66 356q63 162 192 291q131 129 291 188q163 61 369 62q176 0 323 -49q154 -51 262 -146q133 -113 199 -254q66 -143 66 -315q0 -276 -158 -430q-156 -154 -442 -154h-31v148q-45 -74 -115 -111q-72 -37 -162 -37q-193 0 -301 121t-108 330q0 211 108 331 q106 119 301 119q88 0 162 -39q72 -37 115 -108v125h219v-742q145 41 221 156q78 119 78 293q0 143 -55 260q-57 121 -168 213q-94 78 -215 121q-117 41 -265 41q-127 0 -243 -35q-102 -31 -207 -104q-143 -109 -219 -271q-76 -160 -76 -360q0 -154 49 -293 q49 -137 137 -238q106 -119 245.5 -180t303.5 -61q119 0 236 34q115 35 217 101l57 -94q-127 -82 -266 -125q-138 -43 -283 -43q-197 0 -356 63q-166 66 -289 189q-127 125 -192 290q-66 169 -66 357zM827 543q0 -150 60 -236q61 -88 160 -88q102 0 163 78q61 76 62 207v76 q0 129 -62 208q-59 78 -163 78q-96 0 -160 -88q-60 -83 -60 -235z" />
<glyph unicode="A" horiz-adv-x="1587" d="M-16 0v121h122l562 1372h239l563 -1372h142v-121h-699v121h146l-123 305h-561l-125 -305h178v-121h-444zM424 547h463l-230 571z" />
<glyph unicode="B" horiz-adv-x="1730" d="M96 0v121h191v1251h-191v121h885q272 0 409.5 -92t137.5 -277q0 -135 -94 -211q-96 -78 -281 -98q223 -20 344 -121q121 -98 121 -262q0 -223 -168 -327.5t-524 -104.5h-830zM672 121h143q193 0 283 76q92 78 92 235q0 160 -92 240q-90 78 -283 78h-143v-629zM672 870 h131q172 0 256 62q82 61 82 192q0 129 -80 189q-82 59 -258 59h-131v-502z" />
<glyph unicode="C" horiz-adv-x="1628" d="M86 745.5q0 356.5 219 565.5t598 209q132 0 277 -31q131 -29 305 -98v-367h-127q-41 193 -141 281q-106 94 -273 94q-215 0 -323 -160q-106 -158 -106.5 -493.5t106.5 -493.5q109 -160 325 -160q150 0 244 82t137 252h199q-59 -233 -211 -342q-156 -113 -412 -113 q-379 0 -598 209t-219 565.5z" />
<glyph unicode="D" horiz-adv-x="1775" d="M96 0v121h191v1251h-191v121h766q399 0 615 -193q213 -190 213 -552q0 -360 -213 -555q-211 -193 -615 -193h-766zM672 121h139q236 0 342 149q109 152 109 478q0 324 -109 475q-106 150 -342 149h-139v-1251z" />
<glyph unicode="E" horiz-adv-x="1560" d="M96 0v121h191v1251h-191v121h1342v-352h-138v215h-628v-479h391v190h137v-516h-137v190h-391v-604h647v215h137v-352h-1360z" />
<glyph unicode="F" horiz-adv-x="1452" d="M96 0v121h191v1251h-191v121h1331v-352h-137v215h-616v-479h379v190h137v-516h-137v190h-379v-620h235v-121h-813z" />
<glyph unicode="G" horiz-adv-x="1748" d="M86 745.5q0 360.5 219 567.5t604 207q162 0 316 -31q141 -29 311 -98v-367h-127q-47 199 -149.5 287t-296.5 88q-231 0 -340 -158t-109 -496q0 -336 104 -495q102 -158 324 -158q86 0 155.5 18.5t131.5 57.5v410h-180v120h538v-573q-184 -84 -336 -117q-170 -37 -342 -37 q-385 0 -604 207t-219 567.5z" />
<glyph unicode="H" horiz-adv-x="1933" d="M96 0v121h191v1251h-191v121h768v-121h-192v-502h594v502h-191v121h768v-121h-192v-1251h192v-121h-768v121h191v612h-594v-612h192v-121h-768z" />
<glyph unicode="I" horiz-adv-x="956" d="M96 0v121h191v1251h-191v121h768v-121h-192v-1251h192v-121h-768z" />
<glyph unicode="J" horiz-adv-x="968" d="M-150 -123h130q6 -96 45 -137q41 -45 114 -45q94 0 135 74q39 72 39 280v1323h-217v121h795v-121h-191v-1331q0 -244 -122 -354q-125 -113 -390 -113q-94 0 -168 16q-92 20 -170 52v235z" />
<glyph unicode="K" horiz-adv-x="1779" d="M96 0v121h191v1251h-191v121h768v-121h-192v-545l633 545h-160v121h557v-121h-199l-536 -461l729 -790h147v-121h-506l-665 725v-604h192v-121h-768z" />
<glyph unicode="L" horiz-adv-x="1439" d="M96 0v121h191v1251h-191v121h768v-121h-192v-1235h588v236h135v-373h-1299z" />
<glyph unicode="M" horiz-adv-x="2265" d="M86 0v121h190v1251h-190v121h616l426 -958l428 958h615v-121h-191v-1251h191v-121h-768v121h190v1139l-463 -1041h-253l-461 1041v-1139h190v-121h-520z" />
<glyph unicode="N" horiz-adv-x="1871" d="M90 0v121h191v1251h-191v121h467l901 -1057v936h-190v121h522v-121h-191v-1372h-262l-915 1079v-958h190v-121h-522z" />
<glyph unicode="O" horiz-adv-x="1783" d="M86 745q0 360 215 568q217 207 590 207q379 0 592 -205t213 -569.5t-215 -569.5q-213 -205 -590 -205q-379 0 -592 204.5t-213 569.5zM514 745.5q0 -325.5 94 -491.5q92 -162 282.5 -162t285.5 162q92 160 92 491.5t-92 491.5q-94 162 -285 162t-283 -162 q-94 -166 -94 -491.5z" />
<glyph unicode="P" horiz-adv-x="1538" d="M96 0v121h191v1251h-191v121h850q250 0 395 -119q147 -121 148 -317q0 -200 -148 -320q-145 -119 -395 -119h-274v-497h241v-121h-817zM672 739h112q129 0 207 86q78 88 78 232q0 141 -78 229q-78 86 -207 86h-112v-633z" />
<glyph unicode="Q" horiz-adv-x="1783" d="M86 745q0 360 215 568q217 207 590 207q379 0 592 -205t213 -570q0 -322 -164 -516q-170 -201 -469 -245q51 -57 129 -82q77 -25 197 -25h51v-246h-29q-193 0 -317 82q-126 83 -209 258q-375 6 -588 209q-211 203 -211 565zM514 745.5q0 -325.5 94 -491.5 q92 -162 282.5 -162t285.5 162q92 160 92 491.5t-92 491.5q-94 162 -285 162t-283 -162q-94 -166 -94 -491.5z" />
<glyph unicode="R" horiz-adv-x="1701" d="M96 0v121h191v1251h-191v121h852q260 0 401.5 -104.5t141.5 -296.5q0 -158 -100 -246q-106 -92 -304 -117q86 -12 150 -59q59 -45 106 -133l218 -416h153v-121h-491l-238 451q-66 137 -117 178q-47 39 -135 39h-61v-547h192v-121h-768zM672 788h131q139 0 215 76 t76 217.5t-76 214.5q-80 76 -215 76h-131v-584z" />
<glyph unicode="S" horiz-adv-x="1478" d="M135 1051q0 223 147.5 346t413.5 123q125 0 273 -23q135 -20 293 -65v-330h-127q-29 154 -127 225q-100 72 -279 72q-147 0 -223 -51.5t-76 -153.5q0 -92 51 -141q51 -47 256 -101l224 -55q211 -53 301 -162q94 -113 94 -303q0 -227 -156 -344t-459 -117q-147 0 -290 25 q-145 25 -293 76v354h127q27 -168 137 -252q106 -82 299 -82q154 0 235.5 59.5t81.5 172.5q0 92 -55 141t-227 92l-224 55q-219 55 -309 156q-88 97 -88 283z" />
<glyph unicode="T" horiz-adv-x="1523" d="M23 1120v373h1480v-373h-135v236h-412v-1235h199v-121h-784v121h198v1235h-409v-236h-137z" />
<glyph unicode="U" horiz-adv-x="1785" d="M70 1372v121h768v-121h-191v-747q0 -279 86 -389q88 -113 299 -113q207 0 293 112.5t86 389.5v747h-190v121h520v-121h-191v-768q0 -342 -147 -487q-150 -145 -498 -146q-344 0 -495 148q-150 147 -150 487v766h-190z" />
<glyph unicode="V" horiz-adv-x="1587" d="M-12 1372v121h700v-121h-145l403 -989l406 989h-178v121h444v-121h-125l-563 -1372h-238l-563 1372h-141z" />
<glyph unicode="W" horiz-adv-x="2299" d="M-18 1372v121h708v-121h-160l285 -917l322 1038h284l328 -1055l291 934h-178v121h462v-121h-153l-426 -1372h-258l-338 1087l-338 -1087h-258l-426 1372h-145z" />
<glyph unicode="X" horiz-adv-x="1587" d="M10 1372v121h742v-121h-164l289 -420l286 420h-174v121h520v-121h-184l-369 -536l490 -715h141v-121h-745v121h166l-314 454l-311 -454h184v-121h-530v121h184l393 571l-467 680h-137z" />
<glyph unicode="Y" horiz-adv-x="1460" d="M-18 1372v121h716v-121h-166l336 -569l334 569h-149v121h428v-121h-127l-414 -702v-549h201v-121h-789v121h201v497l-444 754h-127z" />
<glyph unicode="Z" horiz-adv-x="1492" d="M76 0v141l891 1215h-715v-223h-137v360h1296v-141l-881 -1215h754v209h137v-346h-1345z" />
<glyph unicode="[" horiz-adv-x="968" d="M256 -270v1826h567v-120h-213v-1586h213v-120h-567z" />
<glyph unicode="\" horiz-adv-x="747" d="M0 1493h221l527 -1683h-222z" />
<glyph unicode="]" horiz-adv-x="968" d="M145 -150h213v1586h-213v120h568v-1826h-568v120z" />
<glyph unicode="^" d="M207 936l543 557h223l536 -557h-213l-438 315l-438 -315h-213z" />
<glyph unicode="_" horiz-adv-x="1024" d="M0 -293h1024v-190h-1024v190z" />
<glyph unicode="`" horiz-adv-x="1024" d="M141 1638h279l258 -376h-164z" />
<glyph unicode="a" horiz-adv-x="1325" d="M84 309q0 180 125 268.5t379 88.5h186v63q0 129 -61.5 190.5t-188.5 61.5q-106 0 -164 -43q-57 -41 -81 -143h-113v229q90 31 196 51q90 16 216 17q287 0 417 -107q133 -109 133 -332v-532h152v-121h-506v135q-74 -88 -156 -125q-84 -39 -196 -39q-162 0 -250 88t-88 250 zM436 338q0 -104 39 -152q41 -49 117 -49q86 0 133 53q49 55 49 144v213h-133q-100 0 -152 -53q-53 -58 -53 -156z" />
<glyph unicode="b" horiz-adv-x="1431" d="M47 0v121h152v1315h-152v120h506v-628q47 84 121 123q78 41 188 41q227 0 357 -150q131 -154 131 -410q0 -258 -131 -411q-129 -150 -357 -150q-111 0 -188 41q-74 39 -121 123v-135h-506zM553 479q0 -184 47 -268t154 -84q111 0 153 88q45 94 45 317q0 225 -45 316 q-43 88 -153 88q-109 0 -154 -82q-47 -84 -47 -270v-105z" />
<glyph unicode="c" horiz-adv-x="1245" d="M84 532q0 264 153.5 412t428.5 148q117 0 225 -21q117 -23 229 -63v-295h-112q-16 139 -78 200q-66 66 -178 66q-150 0 -211.5 -100.5t-61.5 -346.5q0 -240 61.5 -344t198.5 -104q109 0 172 63q61 61 78 185h166q-37 -180 -155.5 -270.5t-319.5 -90.5q-283 0 -440 148 q-156 147 -156 413z" />
<glyph unicode="d" horiz-adv-x="1431" d="M84 532q0 258 129 410q129 150 356 150q111 0 189 -41q74 -39 121 -123v508h-152v120h506v-1435h151v-121h-505v135q-47 -84 -121 -123q-78 -41 -189 -41q-227 0 -356 150t-129 411zM479 532q0 -229 45 -317t154 -88q104 0 153 84q47 80 48 268v105q0 190 -48 270 q-49 82 -153 82q-109 0 -154 -88q-45 -91 -45 -316z" />
<glyph unicode="e" horiz-adv-x="1302" d="M84 532q0 264 152 412q150 147 419 148q264 0 405.5 -156t149.5 -455h-731v-8q0 -205 61.5 -297t200.5 -92q115 0 187 61q70 59 90 177h166q-43 -182 -170 -267q-125 -84 -359 -84q-274 0 -424 146q-147 145 -147 415zM479 600h342q0 211 -39 295t-133 84q-92 0 -131 -82 q-39 -80 -39 -279v-18z" />
<glyph unicode="f" horiz-adv-x="880" d="M63 942v121h158v133q0 176 113 268q114 92 332 92q78 0 165 -10q78 -8 160 -28v-228h-112q-10 82 -45 117q-37 37 -107 37q-80 0 -117 -58q-35 -55 -35 -186v-137h267v-121h-267v-821h205v-121h-710v121h151v821h-158z" />
<glyph unicode="g" horiz-adv-x="1431" d="M84 532q0 258 129 410q129 150 356 150q111 0 189 -41q74 -39 121 -123v135h505v-121h-151v-928q0 -223 -160 -346t-450 -123q-100 0 -215 17q-111 16 -224 49v254h113q16 -104 84 -156q70 -51 199 -51q166 0 231 78q68 80 68 278v121q-47 -84 -121 -123 q-78 -41 -189 -41q-227 0 -356 150t-129 411zM479 532q0 -229 45 -317t154 -88q104 0 153 84q47 80 48 268v105q0 190 -48 270q-49 82 -153 82q-109 0 -154 -88q-45 -91 -45 -316z" />
<glyph unicode="h" horiz-adv-x="1488" d="M63 1436v120h512v-643q66 96 146 137.5t207 41.5q178 0 270 -104.5t92 -311.5v-555h152v-121h-635v121h129v565q0 135 -35 188q-33 51 -119 52q-111 0 -157 -78q-49 -80 -50 -250v-477h130v-121h-635v121h151v1315h-158z" />
<glyph unicode="i" horiz-adv-x="776" d="M70 0v121h151v821h-151v121h505v-942h152v-121h-657zM188 1364q0 82 55.5 137t137.5 55q80 0 135 -55t55 -137q0 -80 -55 -135t-135 -55q-82 0 -137.5 55t-55.5 135z" />
<glyph unicode="j" horiz-adv-x="739" d="M-152 -190h113q4 -84 31 -117q29 -35 96 -35q74 0 102.5 47t28.5 170v1067h-151v121h505v-1188q0 -163 -116 -246q-119 -84 -340 -84q-51 0 -127 11q-59 8 -142 28v226zM178 1364q0 82 55.5 137t137.5 55q78 0 135 -57q55 -55 55 -135t-55 -135t-135 -55q-82 0 -137.5 55 t-55.5 135z" />
<glyph unicode="k" horiz-adv-x="1417" d="M70 0v121h151v1315h-151v120h505v-999l429 385h-127v121h485v-121h-197l-274 -246l448 -575h115v-121h-610v121h125l-295 379l-99 -88v-291h134v-121h-639z" />
<glyph unicode="l" horiz-adv-x="776" d="M70 0v121h151v1315h-151v120h505v-1435h152v-121h-657z" />
<glyph unicode="m" horiz-adv-x="2166" d="M70 0v121h151v821h-151v121h505v-150q61 92 141.5 135.5t190.5 43.5q131 0 211 -50q82 -51 125 -153q72 106 160 155q82 47 201 48q186 0 274 -103q90 -106 90 -313v-555h152v-121h-633v121h127v502q0 200 -31 251t-113 52q-96 0 -147 -72t-51 -207v-526h127v-121h-608 v121h127v502q0 200 -31 251t-113 52q-96 0 -147.5 -72t-51.5 -207v-526h127v-121h-632z" />
<glyph unicode="n" horiz-adv-x="1488" d="M70 0v121h151v821h-151v121h505v-150q66 96 146 137.5t207 41.5q178 0 270 -104.5t92 -311.5v-555h152v-121h-635v121h129v565q0 135 -35 188q-33 51 -119 52q-111 0 -157 -78q-49 -80 -50 -250v-477h130v-121h-635z" />
<glyph unicode="o" horiz-adv-x="1363" d="M84 532q0 264 159.5 412t440.5 148t440.5 -147.5t159.5 -412.5q0 -261 -160 -411q-158 -150 -440.5 -150t-439.5 150q-160 150 -160 411zM479 532q0 -256 45 -352t160 -96q111 0 158 96q45 92 45 352q0 258 -45 351q-47 96 -158 96q-113 0 -160 -96q-45 -93 -45 -351z " />
<glyph unicode="p" horiz-adv-x="1431" d="M47 -305h152v1247h-152v121h506v-135q47 84 121 123q78 41 188 41q227 0 357 -150q131 -154 131 -410q0 -258 -131 -411q-129 -150 -357 -150q-111 0 -188 41q-74 39 -121 123v-440h164v-121h-670v121zM553 479q0 -184 47 -268t154 -84q111 0 153 88q45 94 45 317 q0 225 -45 316q-43 88 -153 88q-109 0 -154 -82q-47 -84 -47 -270v-105z" />
<glyph unicode="q" horiz-adv-x="1431" d="M84 532q0 258 129 410q129 150 356 150q111 0 189 -41q74 -39 121 -123v135h505v-121h-151v-1247h151v-121h-669v121h164v440q-47 -84 -121 -123q-78 -41 -189 -41q-227 0 -356 150t-129 411zM479 532q0 -229 45 -317t154 -88q104 0 153 84q47 80 48 268v105 q0 190 -48 270q-49 82 -153 82q-109 0 -154 -88q-45 -91 -45 -316z" />
<glyph unicode="r" horiz-adv-x="1077" d="M59 942v121h516v-189q53 113 138 164q88 53 209 54q18 0 75 -5q45 -4 103 -12v-317h-113q-6 82 -47 127q-39 41 -115 41q-117 0 -184 -103q-66 -98 -66 -282v-420h193v-121h-698v121h151v821h-162z" />
<glyph unicode="s" horiz-adv-x="1150" d="M88 750q0 172 121 258q117 84 369 84q100 0 200 -15q104 -14 236 -49v-268h-113q-10 109 -77.5 164t-196.5 55q-106 0 -164 -35q-55 -35 -55 -100q0 -51 32 -84q31 -31 115 -53l145 -37q207 -51 289 -131q80 -76 80 -217q0 -178 -129 -264.5t-399 -86.5q-106 0 -209 15 q-125 16 -236 45v297h113q14 -117 90 -180.5t203 -63.5q108 0 166 37q57 37 57 108q0 65 -37 99q-41 39 -141 61l-146 37q-166 40 -239 117q-74 76 -74 207z" />
<glyph unicode="t" horiz-adv-x="944" d="M49 942v121h154v330h354v-330h295v-121h-295v-651q0 -137 22.5 -172t79.5 -35q63 0 95 43q29 41 32 133h150q-10 -162 -88 -225.5t-270 -63.5q-221 0 -297 68q-78 68 -78 252v651h-154z" />
<glyph unicode="u" horiz-adv-x="1488" d="M47 942v121h506v-621q0 -201 33 -252q35 -53 121 -53q111 0 157 78q49 80 49 252v475h-129v121h484v-942h151v-121h-506v150q-66 -96 -145.5 -137.5t-206.5 -41.5q-178 0 -270 104.5t-92 311.5v555h-152z" />
<glyph unicode="v" horiz-adv-x="1189" d="M-37 942v121h610v-121h-129l269 -672l268 672h-139v121h399v-121h-123l-377 -942h-284l-377 942h-117z" />
<glyph unicode="w" horiz-adv-x="1761" d="M-18 942v121h602v-121h-125l196 -575l238 696h211l242 -709l200 588h-139v121h397v-121h-125l-321 -942h-244l-225 666l-227 -666h-242l-322 942h-116z" />
<glyph unicode="x" horiz-adv-x="1220" d="M0 0v121h152l282 397l-305 424h-119v121h649v-121h-129l189 -264l188 264h-131v121h414v-121h-141l-271 -379l316 -442h141v-121h-676v121h137l-200 280l-201 -280h143v-121h-438z" />
<glyph unicode="y" horiz-adv-x="1189" d="M-27 942v121h613v-121h-127l270 -629l252 629h-141v121h399v-121h-129l-471 -1182q-49 -117 -116.5 -166t-182.5 -49q-57 0 -109 11q-68 14 -131 32v222h113q4 -78 37 -115t100.5 -37t104.5 35q40 37 80 135l16 37l-463 1077h-115z" />
<glyph unicode="z" horiz-adv-x="1161" d="M72 0v121l610 825h-459v-182h-119v299h990v-119l-611 -825h492v192h119v-311h-1022z" />
<glyph unicode="{" horiz-adv-x="1316" d="M172 551v121h61q143 0 195 57q53 59 53 209v250q0 111 13 166q12 53 41 92q49 61 133 86q82 25 317 24h148v-120h-103q-113 0 -153.5 -47.5t-40.5 -182.5v-270q0 -160 -50 -227q-47 -66 -178 -97q129 -33 180 -100q47 -61 48 -225v-271q0 -135 41 -182t153 -47h103v-121 h-148q-236 0 -317 25q-84 25 -133 86q-29 39 -41 92q-12 55 -13 166v250q0 150 -53 209q-51 57 -195 57h-61z" />
<glyph unicode="|" horiz-adv-x="743" d="M264 -483v2048h215v-2048h-215z" />
<glyph unicode="}" horiz-adv-x="1316" d="M186 -213h101q111 0 153 47q41 43 41 182v271q0 158 49.5 225.5t180.5 99.5q-131 31 -180.5 98.5t-49.5 225.5v270q0 139 -41 183q-43 47 -153 47h-101v120h146q233 0 317 -24.5t133 -85.5q29 -39 41 -92q12 -55 13 -166v-250q0 -150 53 -209q51 -57 194 -57h62v-121h-62 q-143 0 -194 -57q-53 -59 -53 -209v-250q0 -111 -13 -166q-12 -53 -41 -92q-49 -61 -133 -86t-317 -25h-146v121z" />
<glyph unicode="~" d="M217 453v206q96 88 189 127q94 41 192 41t246 -57q10 -4 16 -7t10 -3l15 -6q172 -68 274 -68q77 0 160 37q94 41 180 108v-206q-92 -86 -186 -127t-194.5 -41t-248.5 57q-8 2 -14 6t-10 4q-2 0 -9.5 3t-11.5 5q-174 66 -268 66q-77 0 -160 -37q-94 -40 -180 -108z" />
<glyph unicode="&#xa1;" horiz-adv-x="897" d="M260 1329q0 80 55.5 135.5t133.5 55.5q80 0 135 -55.5t55 -135.5q0 -78 -55.5 -133t-134.5 -55q-78 0 -133.5 55t-55.5 133zM262 0l117 842v190h139v-190l119 -842h-375z" />
<glyph unicode="&#xa2;" horiz-adv-x="1423" d="M160 532q0 262 151.5 407.5t427.5 152.5v264h121v-269q53 -2 139 -22q63 -14 199 -57v-295h-113q-16 127 -69 190q-55 63 -156 76v-891q90 14 144 78q51 61 63 166h166q-31 -156 -127 -246t-246 -109v-276h-121v270q-281 6 -428 152q-151 147 -151 409zM553 532 q0 -209 43 -311q43 -100 143 -127v875q-100 -25 -143 -125q-43 -103 -43 -312z" />
<glyph unicode="&#xa3;" horiz-adv-x="1423" d="M147 0v121h193v573h-193v121h193v277q0 213 133 321q131 106 408 107q76 0 155 -9q115 -12 211 -26v-283h-121q-6 96 -55 152q-47 53 -133 53q-115 0 -168 -74q-51 -72 -51 -250v-268h352v-121h-352v-557h420v228h137v-365h-1129z" />
<glyph unicode="&#xa4;" horiz-adv-x="1302" d="M76 215l209 209q-29 41 -45 100q-14 49 -15 117q0 66 15 117q16 55 45 100l-209 205l153 158l207 -211q47 31 103 45q51 14 114 14q57 0 109 -14q57 -16 112 -45l205 211l152 -154l-209 -205q27 -49 45 -112q14 -51 14 -109q0 -66 -14 -115q-16 -59 -45 -100l209 -211 l-156 -154l-207 211q-41 -29 -100 -45q-49 -14 -115 -14q-61 0 -112 14q-57 16 -105 41l-209 -207zM434 641q0 -92 63.5 -155.5t155.5 -63.5t155.5 63.5t63.5 155.5t-63.5 155.5t-155.5 63.5t-155.5 -63.5t-63.5 -155.5z" />
<glyph unicode="&#xa5;" horiz-adv-x="1423" d="M39 1372v121h694v-121h-170l258 -551l256 551h-151v121h436v-121h-135l-221 -477h292v-117h-350l-53 -116v-78h403v-117h-403v-346h190v-121h-759v121h190v346h-403v117h403v59l-61 135h-342v117h286l-223 477h-137z" />
<glyph unicode="&#xa6;" horiz-adv-x="743" d="M264 -350v758h215v-758h-215zM264 674v758h215v-758h-215z" />
<glyph unicode="&#xa7;" horiz-adv-x="1069" d="M63 674q0 104 58 176q58 74 172 117q-83 46 -123 110q-39 63 -39 154q0 135 109 213q106 76 305 76q90 0 162 -11q70 -10 190 -34v-240h-119q-6 86 -57 129q-53 43 -150 43q-80 0 -127 -37q-45 -37 -45 -104q0 -47 27 -80q28 -34 117 -80l135 -72q186 -96 260 -182 q70 -82 70 -199q0 -106 -58 -178q-59 -76 -170 -117q80 -45 121 -110q39 -63 39 -154q0 -135 -109 -213q-106 -76 -309 -76q-100 0 -174 11q-82 10 -192 34v240h118q10 -92 60 -131q53 -41 158 -41q86 0 133 37t47 106q0 47 -27 80q-31 37 -117 80l-135 72 q-190 100 -260 182t-70 199zM305 745q0 -61 45 -112q43 -49 156 -109l168 -88q45 33 69 74q23 37 23 82q0 57 -47 110q-45 51 -158 111l-166 88q-51 -39 -67 -72q-23 -41 -23 -84z" />
<glyph unicode="&#xa8;" horiz-adv-x="1024" d="M141 1468.5q0 59.5 43 102.5t105 43q59 0 102 -43t43 -103q0 -61 -43 -104t-102.5 -43t-104.5 45q-43 43 -43 102.5zM588 1468.5q0 59.5 43 102.5t104 43t104.5 -43t43.5 -102.5t-43 -102.5q-45 -45 -104.5 -45t-104.5 45q-43 43 -43 102.5z" />
<glyph unicode="&#xa9;" horiz-adv-x="2048" d="M283 741q0 152 55 285t162 240q109 109 241 164t283 55t283 -55q133 -55 241 -164q106 -106 161.5 -239.5t55.5 -285.5q0 -154 -55 -282q-59 -135 -162 -240q-109 -109 -241 -164t-283 -55t-283 55q-133 55 -241 164q-102 104 -162 240q-55 128 -55 282zM436 741.5 q0 -120.5 43 -225t129 -190.5t190.5 -129t225.5 -43t225.5 43t190.5 129t129 190.5t43 225t-43 225t-129 190.5q-90 90 -191 131q-104 43 -225 43t-225 -43q-100 -41 -191 -131q-86 -86 -129 -190.5t-43 -225zM606 741.5q0 200.5 117 321.5t313 121q78 0 158 -19 q88 -20 168 -57v-223h-105q-12 94 -65 147t-133 53q-104 0 -164 -92q-59 -94 -59 -252q0 -162 59 -252t164 -90q76 0 123 45q51 47 71 136h138q-29 -139 -119 -209t-246 -70q-186 0 -303 121q-117 119 -117 319.5z" />
<glyph unicode="&#xaa;" horiz-adv-x="995" d="M61 973q0 127 94.5 190.5t286.5 63.5h140v28q0 90 -47 134q-49 45 -142 45q-80 0 -121 -33q-45 -35 -53 -94h-96v166q82 25 149 34q76 12 162 13q215 0 313.5 -74t98.5 -234v-362h115v-94h-379v92q-51 -57 -115 -84q-61 -27 -150 -27q-123 0 -190 62q-66 59 -66 174z M113 504v135h798v-135h-798zM326 993q0 -63 30.5 -96t87.5 -33q63 0 100.5 37t37.5 100v132h-101q-72 0 -114 -37q-41 -35 -41 -103z" />
<glyph unicode="&#xab;" horiz-adv-x="1280" d="M158 516v168l469 385v-147l-240 -322l240 -321v-148zM618 516v168l469 385v-147l-239 -322l239 -321v-148z" />
<glyph unicode="&#xac;" d="M217 676v227h1282v-616h-229v389h-1053z" />
<glyph unicode="&#xad;" horiz-adv-x="849" d="M111 414v270h628v-270h-628z" />
<glyph unicode="&#xae;" horiz-adv-x="2048" d="M283 741q0 152 55 285t162 240q109 109 241 164t283 55t283 -55q133 -55 241 -164q106 -106 161.5 -239.5t55.5 -285.5q0 -154 -55 -282q-59 -135 -162 -240q-109 -109 -241 -164t-283 -55t-283 55q-133 55 -241 164q-102 104 -162 240q-55 128 -55 282zM436 741.5 q0 -120.5 43 -225t129 -190.5t190.5 -129t225.5 -43t225.5 43t190.5 129t129 190.5t43 225t-43 225t-129 190.5q-90 90 -191 131q-104 43 -225 43t-225 -43q-100 -41 -191 -131q-86 -86 -129 -190.5t-43 -225zM649 352v82h86v643h-86v82h453q121 0 188 -55q70 -57 70 -150 q0 -89 -49 -141q-47 -49 -146 -59q43 -14 70 -37q31 -28 49 -68l100 -215h60v-82h-223l-117 254q-31 70 -62 90q-29 20 -84 21h-26v-283h86v-82h-369zM932 799h67q78 0 121 36.5t43 102.5t-43 102.5t-121 36.5h-67v-278z" />
<glyph unicode="&#xaf;" horiz-adv-x="1024" d="M197 1360v188h630v-188h-630z" />
<glyph unicode="&#xb0;" horiz-adv-x="1024" d="M178 1200q0 141 96.5 237.5t237.5 96.5q66 0 127 -25q51 -20 109 -73q49 -53 71 -109q25 -61 25 -126.5t-24.5 -127t-69.5 -106.5q-49 -49 -110.5 -74t-129.5 -25q-141 0 -236 95q-96 96 -96 237zM340 1200q0 -72 49 -121t123 -49t123 49t49 121t-51 123q-49 49 -121 49 q-74 0 -123 -49t-49 -123z" />
<glyph unicode="&#xb1;" d="M217 0v227h1282v-227h-1282zM217 698v228h526v358h230v-358h526v-228h-526v-358h-230v358h-526z" />
<glyph unicode="&#xb2;" horiz-adv-x="894" d="M86 684v133l129 84q190 125 238 193q49 70 49 163q0 88 -41 132q-43 47 -115 47q-66 0 -106.5 -41t-51.5 -111h-94v195q71 22 148 30q86 10 155 11q180 0 280.5 -63.5t100.5 -178.5q0 -83 -55 -148q-55 -66 -211 -153l-244 -139h414v96h100v-250h-696z" />
<glyph unicode="&#xb3;" horiz-adv-x="894" d="M90 711v200h96q6 -82 50 -120q41 -39 122 -39q88 0 134 43q47 43 47 124.5t-49.5 124.5t-139.5 43h-41v84h31q84 0 125 33q43 34 43 99q0 66 -39 98q-41 35 -111 35q-68 0 -106.5 -37t-44.5 -101h-96v183q100 20 163 28q82 10 138 11q182 0 272 -52q94 -53 94 -153 q0 -72 -53 -119q-55 -49 -154 -63q119 -14 183 -72q61 -55 61 -148q0 -123 -102.5 -184t-302.5 -61q-72 0 -160 10q-66 8 -160 33z" />
<glyph unicode="&#xb4;" horiz-adv-x="1024" d="M346 1262l258 376h279l-373 -376h-164z" />
<glyph unicode="&#xb5;" horiz-adv-x="1497" d="M57 -305h152v1247h-152v121h506v-596q0 -217 35 -274q33 -55 121 -56q106 0 155.5 80t49.5 250v475h-131v121h485v-942h152v-121h-506v125q-55 -84 -108.5 -119t-129.5 -35q-27 0 -61 11q-25 8 -62 30v-317h152v-121h-658v121z" />
<glyph unicode="&#xb6;" horiz-adv-x="1302" d="M147 1071q0 188 129.5 305t346.5 117h555v-125h-113v-1565h-152v1565h-163v-1565h-152v846q-219 18 -334 127q-117 111 -117 295z" />
<glyph unicode="&#xb7;" horiz-adv-x="712" d="M166 711q0 80 55 135t135 55t135.5 -55t55.5 -135q0 -78 -55.5 -133.5t-135.5 -55.5t-135 55.5t-55 133.5z" />
<glyph unicode="&#xb8;" horiz-adv-x="1024" d="M262 -219q41 -16 88 -27q39 -8 78 -8q63 0 92 23q31 25 31 69q0 25 -16 62q-14 31 -68 100h127q63 -66 92 -119q29 -51 29 -106q0 -86 -63.5 -131t-186.5 -45q-47 0 -98 6q-35 4 -105 20v156z" />
<glyph unicode="&#xb9;" horiz-adv-x="894" d="M143 1290v105l222 125h227v-742h164v-94h-594v94h164v613z" />
<glyph unicode="&#xba;" horiz-adv-x="1024" d="M61 1128q0 182 119 287q120 104 332 105q212 0 332 -105q119 -104 119 -286.5t-119 -286.5q-120 -104 -332 -105q-212 0 -332 105q-119 104 -119 286zM113 504v135h798v-135h-798zM369 1128.5q0 -167.5 32 -235.5q33 -70 111 -70q74 0 109 72q35 74 34 233q0 162 -34 236 q-33 70 -109 70q-78 0 -111 -70q-32 -68 -32 -235.5z" />
<glyph unicode="&#xbb;" horiz-adv-x="1280" d="M193 131v148l239 321l-239 322v147l469 -385v-168zM653 131v148l240 321l-240 322v147l469 -385v-168z" />
<glyph unicode="&#xbc;" horiz-adv-x="2134" d="M1288 231v88l379 533h252v-527h147v-94h-147v-121h125v-94h-518v94h125v121h-363zM1411 325h240v334zM143 1290v105l222 125h227v-742h164v-94h-594v94h164v613zM516 -29l934 1549h170l-934 -1549h-170z" />
<glyph unicode="&#xbd;" horiz-adv-x="2134" d="M143 1290v105l222 125h227v-742h164v-94h-594v94h164v613zM516 -29l934 1549h170l-934 -1549h-170zM1325 16v133l129 84q190 125 238 193q49 70 49 163q0 88 -41 132q-43 47 -115 47q-66 0 -106.5 -41t-51.5 -111h-94v195q71 22 148 30q86 10 155 11q180 0 280.5 -63.5 t100.5 -178.5q0 -83 -55 -148q-55 -66 -211 -153l-244 -139h414v96h100v-250h-696z" />
<glyph unicode="&#xbe;" horiz-adv-x="2134" d="M1288 231v88l379 533h252v-527h147v-94h-147v-121h125v-94h-518v94h125v121h-363zM1411 325h240v334zM90 711v200h96q6 -82 50 -120q41 -39 122 -39q88 0 134 43q47 43 47 124.5t-49.5 124.5t-139.5 43h-41v84h31q84 0 125 33q43 34 43 99q0 66 -39 98q-41 35 -111 35 q-68 0 -106.5 -37t-44.5 -101h-96v183q100 20 163 28q82 10 138 11q182 0 272 -52q94 -53 94 -153q0 -72 -53 -119q-55 -49 -154 -63q119 -14 183 -72q61 -55 61 -148q0 -123 -102.5 -184t-302.5 -61q-72 0 -160 10q-66 8 -160 33zM516 -29l934 1549h170l-934 -1549h-170z " />
<glyph unicode="&#xbf;" horiz-adv-x="1198" d="M92 397q0 199 131 318q129 117 375 135v205h139v-299q-141 -43 -205 -135q-66 -94 -65 -246q0 -143 61.5 -217t180.5 -74q109 0 168 66q59 68 69 196h121v-307q-111 -31 -236 -51q-98 -16 -217 -17q-252 0 -387 110.5t-135 315.5zM479 1329q0 80 55.5 135.5t133.5 55.5 q80 0 135 -55.5t55 -135.5q0 -78 -55 -133t-135 -55q-78 0 -133.5 55t-55.5 133z" />
<glyph unicode="&#xc0;" horiz-adv-x="1587" d="M-16 0v121h122l562 1372h239l563 -1372h142v-121h-699v121h146l-123 305h-561l-125 -305h178v-121h-444zM424 547h463l-230 571zM477 1899h279l182 -264h-164z" />
<glyph unicode="&#xc1;" horiz-adv-x="1587" d="M-16 0v121h122l562 1372h239l563 -1372h142v-121h-699v121h146l-123 305h-561l-125 -305h178v-121h-444zM424 547h463l-230 571zM606 1635l182 264h279l-297 -264h-164z" />
<glyph unicode="&#xc2;" horiz-adv-x="1587" d="M-16 0v121h122l562 1372h239l563 -1372h142v-121h-699v121h146l-123 305h-561l-125 -305h178v-121h-444zM424 547h463l-230 571zM395 1635l223 264h308l223 -264h-164l-213 161l-213 -161h-164z" />
<glyph unicode="&#xc3;" horiz-adv-x="1587" d="M-16 0v121h122l562 1372h239l563 -1372h142v-121h-699v121h146l-123 305h-561l-125 -305h178v-121h-444zM424 547h463l-230 571zM414 1635v12q0 123 55 190q53 66 153 66q63 0 142 -39q9 -3 12 -6l72 -33q39 -16 47 -18q25 -4 35 -4q41 0 65.5 24.5t24.5 69.5v4h110v-15 q0 -123 -53 -188t-155 -65q-31 0 -68 10q-41 12 -86 35l-57 28q-39 18 -52 21q-25 6 -45 6q-41 0 -65.5 -24.5t-24.5 -69.5v-4h-110z" />
<glyph unicode="&#xc4;" horiz-adv-x="1587" d="M-16 0v121h122l562 1372h239l563 -1372h142v-121h-699v121h146l-123 305h-561l-125 -305h178v-121h-444zM424 547h463l-230 571zM401 1776q0 61 43 104t105 43q59 0 102 -43t43 -104q0 -59 -43 -102.5t-102 -43.5q-61 0 -104.5 43.5t-43.5 102.5zM848 1776q0 61 43 104 t104 43t104.5 -43t43.5 -104q0 -59 -43 -102.5t-105 -43.5q-61 0 -104 43.5t-43 102.5z" />
<glyph unicode="&#xc5;" horiz-adv-x="1587" d="M-16 0v121h122l519 1263q-61 39 -90 97q-31 61 -31 135q0 117 84 201t200.5 84t200.5 -84t84 -201q0 -76 -31 -133q-33 -59 -90 -99l518 -1263h142v-121h-699v121h146l-123 305h-561l-125 -305h178v-121h-444zM424 547h463l-228 571zM657 1616q0 -53 39 -92t92.5 -39 t92.5 39t39 92t-39 92t-92.5 39t-92.5 -39t-39 -92z" />
<glyph unicode="&#xc6;" horiz-adv-x="2117" d="M-63 0v121h114l592 1251h-201v121h1551v-352h-138v215h-602v-479h367v190h135v-516h-135v190h-367v-604h623v215h135v-352h-1335v121h190v303h-522l-143 -303h164v-121h-428zM401 545h465v827h-75z" />
<glyph unicode="&#xc7;" horiz-adv-x="1628" d="M86 745.5q0 356.5 219 565.5t598 209q132 0 277 -31q131 -29 305 -98v-367h-127q-41 193 -141 281q-106 94 -273 94q-215 0 -323 -160q-106 -158 -106.5 -493.5t106.5 -493.5q109 -160 325 -160q150 0 244 82t137 252h199q-59 -233 -211 -342q-156 -113 -412 -113 q-379 0 -598 209t-219 565.5zM629 -219q41 -16 88 -27q39 -8 78 -8q63 0 92 23q31 25 31 69q0 25 -16 62q-14 31 -68 100h127q63 -66 92 -119q29 -51 29 -106q0 -86 -63.5 -131t-186.5 -45q-47 0 -98 6q-35 4 -105 20v156z" />
<glyph unicode="&#xc8;" horiz-adv-x="1560" d="M96 0v121h191v1251h-191v121h1342v-352h-138v215h-628v-479h391v190h137v-516h-137v190h-391v-604h647v215h137v-352h-1360zM520 1899h279l182 -264h-164z" />
<glyph unicode="&#xc9;" horiz-adv-x="1560" d="M96 0v121h191v1251h-191v121h1342v-352h-138v215h-628v-479h391v190h137v-516h-137v190h-391v-604h647v215h137v-352h-1360zM649 1635l182 264h279l-297 -264h-164z" />
<glyph unicode="&#xca;" horiz-adv-x="1560" d="M96 0v121h191v1251h-191v121h1342v-352h-138v215h-628v-479h391v190h137v-516h-137v190h-391v-604h647v215h137v-352h-1360zM438 1635l223 264h308l223 -264h-164l-213 161l-213 -161h-164z" />
<glyph unicode="&#xcb;" horiz-adv-x="1560" d="M96 0v121h191v1251h-191v121h1342v-352h-138v215h-628v-479h391v190h137v-516h-137v190h-391v-604h647v215h137v-352h-1360zM444 1776q0 61 43 104t105 43q59 0 102 -43t43 -104q0 -59 -43 -102.5t-102 -43.5q-61 0 -104.5 43.5t-43.5 102.5zM891 1776q0 61 43 104 t104 43t104.5 -43t43.5 -104q0 -59 -43 -102.5t-105 -43.5q-61 0 -104 43.5t-43 102.5z" />
<glyph unicode="&#xcc;" horiz-adv-x="956" d="M96 0v121h191v1251h-191v121h768v-121h-192v-1251h192v-121h-768zM184 1899h279l182 -264h-164z" />
<glyph unicode="&#xcd;" horiz-adv-x="956" d="M96 0v121h191v1251h-191v121h768v-121h-192v-1251h192v-121h-768zM313 1635l182 264h279l-297 -264h-164z" />
<glyph unicode="&#xce;" horiz-adv-x="956" d="M96 0v121h191v1251h-191v121h768v-121h-192v-1251h192v-121h-768zM102 1635l223 264h308l223 -264h-164l-213 161l-213 -161h-164z" />
<glyph unicode="&#xcf;" horiz-adv-x="956" d="M96 0v121h191v1251h-191v121h768v-121h-192v-1251h192v-121h-768zM108 1776q0 61 43 104t105 43q59 0 102 -43t43 -104q0 -59 -43 -102.5t-102 -43.5q-61 0 -104.5 43.5t-43.5 102.5zM555 1776q0 61 43 104t104 43t104.5 -43t43.5 -104q0 -59 -43 -102.5t-105 -43.5 q-61 0 -104 43.5t-43 102.5z" />
<glyph unicode="&#xd0;" horiz-adv-x="1789" d="M88 713v137h213v522h-192v121h768q397 0 612 -193q213 -190 213 -552q0 -360 -213 -555q-211 -193 -612 -193h-768v121h192v592h-213zM686 121h139q236 0 342.5 149.5t106.5 477.5q0 326 -106.5 475t-342.5 149h-139v-522h332v-137h-332v-592z" />
<glyph unicode="&#xd1;" horiz-adv-x="1871" d="M90 0v121h191v1251h-191v121h467l901 -1057v936h-190v121h522v-121h-191v-1372h-262l-915 1079v-958h190v-121h-522zM578 1635v12q0 123 55 190q53 66 153 66q63 0 142 -39q9 -3 12 -6l72 -33q39 -16 47 -18q25 -4 35 -4q41 0 65.5 24.5t24.5 69.5v4h110v-15 q0 -123 -53 -188t-155 -65q-31 0 -68 10q-41 12 -86 35l-57 28q-39 18 -52 21q-25 6 -45 6q-41 0 -65.5 -24.5t-24.5 -69.5v-4h-110z" />
<glyph unicode="&#xd2;" horiz-adv-x="1783" d="M86 745q0 360 215 568q217 207 590 207q379 0 592 -205t213 -569.5t-215 -569.5q-213 -205 -590 -205q-379 0 -592 204.5t-213 569.5zM514 745.5q0 -325.5 94 -491.5q92 -162 282.5 -162t285.5 162q92 160 92 491.5t-92 491.5q-94 162 -285 162t-283 -162 q-94 -166 -94 -491.5zM598 1899h279l182 -264h-164z" />
<glyph unicode="&#xd3;" horiz-adv-x="1783" d="M86 745q0 360 215 568q217 207 590 207q379 0 592 -205t213 -569.5t-215 -569.5q-213 -205 -590 -205q-379 0 -592 204.5t-213 569.5zM514 745.5q0 -325.5 94 -491.5q92 -162 282.5 -162t285.5 162q92 160 92 491.5t-92 491.5q-94 162 -285 162t-283 -162 q-94 -166 -94 -491.5zM727 1635l182 264h279l-297 -264h-164z" />
<glyph unicode="&#xd4;" horiz-adv-x="1783" d="M86 745q0 360 215 568q217 207 590 207q379 0 592 -205t213 -569.5t-215 -569.5q-213 -205 -590 -205q-379 0 -592 204.5t-213 569.5zM514 745.5q0 -325.5 94 -491.5q92 -162 282.5 -162t285.5 162q92 160 92 491.5t-92 491.5q-94 162 -285 162t-283 -162 q-94 -166 -94 -491.5zM516 1635l223 264h308l223 -264h-164l-213 161l-213 -161h-164z" />
<glyph unicode="&#xd5;" horiz-adv-x="1783" d="M86 745q0 360 215 568q217 207 590 207q379 0 592 -205t213 -569.5t-215 -569.5q-213 -205 -590 -205q-379 0 -592 204.5t-213 569.5zM514 745.5q0 -325.5 94 -491.5q92 -162 282.5 -162t285.5 162q92 160 92 491.5t-92 491.5q-94 162 -285 162t-283 -162 q-94 -166 -94 -491.5zM535 1635v12q0 123 55 190q53 66 153 66q63 0 142 -39q9 -3 12 -6l72 -33q39 -16 47 -18q25 -4 35 -4q41 0 65.5 24.5t24.5 69.5v4h110v-15q0 -123 -53 -188t-155 -65q-31 0 -68 10q-41 12 -86 35l-57 28q-39 18 -52 21q-25 6 -45 6q-41 0 -65.5 -24.5 t-24.5 -69.5v-4h-110z" />
<glyph unicode="&#xd6;" horiz-adv-x="1783" d="M86 745q0 360 215 568q217 207 590 207q379 0 592 -205t213 -569.5t-215 -569.5q-213 -205 -590 -205q-379 0 -592 204.5t-213 569.5zM514 745.5q0 -325.5 94 -491.5q92 -162 282.5 -162t285.5 162q92 160 92 491.5t-92 491.5q-94 162 -285 162t-283 -162 q-94 -166 -94 -491.5zM522 1776q0 61 43 104t105 43q59 0 102 -43t43 -104q0 -59 -43 -102.5t-102 -43.5q-61 0 -104.5 43.5t-43.5 102.5zM969 1776q0 61 43 104t104 43t104.5 -43t43.5 -104q0 -59 -43 -102.5t-105 -43.5q-61 0 -104 43.5t-43 102.5z" />
<glyph unicode="&#xd7;" d="M264 201l441 440l-441 440l154 156l440 -440l440 440l154 -156l-440 -440l440 -440l-154 -154l-440 440l-440 -440z" />
<glyph unicode="&#xd8;" horiz-adv-x="1783" d="M68 12l200 201q-90 98 -137 236q-45 129 -45 296q0 360 215 568q217 207 590 207q164 0 293 -39q139 -41 237 -115l203 203l90 -90l-198 -199q88 -104 135 -238q45 -129 45 -297q0 -365 -215 -569q-213 -205 -590 -205q-162 0 -291 39t-238 117l-204 -205zM514 745 q0 -100 4 -143q8 -82 17 -123l677 678q-43 119 -125 180q-84 61 -196 62q-190 0 -283 -162q-94 -166 -94 -492zM571 334q45 -121 125 -182q78 -59 195 -60q195 0 287 166t92 526q0 66 -6 115q-6 53 -19 94z" />
<glyph unicode="&#xd9;" horiz-adv-x="1785" d="M70 1372v121h768v-121h-191v-747q0 -279 86 -389q88 -113 299 -113q207 0 293 112.5t86 389.5v747h-190v121h520v-121h-191v-768q0 -342 -147 -487q-150 -145 -498 -146q-344 0 -495 148q-150 147 -150 487v766h-190zM649 1899h279l182 -264h-164z" />
<glyph unicode="&#xda;" horiz-adv-x="1785" d="M70 1372v121h768v-121h-191v-747q0 -279 86 -389q88 -113 299 -113q207 0 293 112.5t86 389.5v747h-190v121h520v-121h-191v-768q0 -342 -147 -487q-150 -145 -498 -146q-344 0 -495 148q-150 147 -150 487v766h-190zM778 1635l182 264h279l-297 -264h-164z" />
<glyph unicode="&#xdb;" horiz-adv-x="1785" d="M70 1372v121h768v-121h-191v-747q0 -279 86 -389q88 -113 299 -113q207 0 293 112.5t86 389.5v747h-190v121h520v-121h-191v-768q0 -342 -147 -487q-150 -145 -498 -146q-344 0 -495 148q-150 147 -150 487v766h-190zM567 1635l223 264h308l223 -264h-164l-213 161 l-213 -161h-164z" />
<glyph unicode="&#xdc;" horiz-adv-x="1785" d="M70 1372v121h768v-121h-191v-747q0 -279 86 -389q88 -113 299 -113q207 0 293 112.5t86 389.5v747h-190v121h520v-121h-191v-768q0 -342 -147 -487q-150 -145 -498 -146q-344 0 -495 148q-150 147 -150 487v766h-190zM573 1776q0 61 43 104t105 43q59 0 102 -43t43 -104 q0 -59 -43 -102.5t-102 -43.5q-61 0 -104.5 43.5t-43.5 102.5zM1020 1776q0 61 43 104t104 43t104.5 -43t43.5 -104q0 -59 -43 -102.5t-105 -43.5q-61 0 -104 43.5t-43 102.5z" />
<glyph unicode="&#xdd;" horiz-adv-x="1460" d="M-18 1372v121h716v-121h-166l336 -569l334 569h-149v121h428v-121h-127l-414 -702v-549h201v-121h-789v121h201v497l-444 754h-127zM565 1635l182 264h279l-297 -264h-164z" />
<glyph unicode="&#xde;" horiz-adv-x="1548" d="M96 0v121h191v1251h-191v121h815v-121h-239v-170h274q250 0 395 -119q147 -121 147.5 -317.5t-147.5 -316.5q-150 -121 -395 -121h-274v-207h241v-121h-817zM672 449h112q129 0 207 86q78 88 78 231q0 141 -78 229q-78 86 -207 86h-112v-632z" />
<glyph unicode="&#xdf;" horiz-adv-x="1554" d="M70 0v121h151v1026q0 203 139 305q141 104 410 104q260 0 397 -106q135 -104 162 -334h-22q-156 0 -234 -45q-80 -46 -80 -135q0 -39 23 -74q18 -29 106 -94l88 -63q176 -127 225.5 -207t49.5 -187q0 -162 -125 -250q-127 -90 -348 -90q-88 0 -168 15q-92 16 -187 45v258 h121q12 -106 61.5 -155.5t143.5 -49.5q77 0 123 43q47 43 47 117q0 106 -164 223q-8 6 -17 12t-16 10l-88 64q-102 76 -147 152q-45 78 -45 184q0 135 80 217q78 80 241 115q-6 125 -55 174t-160 49q-109 0 -157 -60q-49 -57 -50 -194v-1190h-505z" />
<glyph unicode="&#xe0;" horiz-adv-x="1325" d="M84 309q0 180 125 268.5t379 88.5h186v63q0 129 -61.5 190.5t-188.5 61.5q-106 0 -164 -43q-57 -41 -81 -143h-113v229q90 31 196 51q90 16 216 17q287 0 417 -107q133 -109 133 -332v-532h152v-121h-506v135q-74 -88 -156 -125q-84 -39 -196 -39q-162 0 -250 88t-88 250 zM436 338q0 -104 39 -152q41 -49 117 -49q86 0 133 53q49 55 49 144v213h-133q-100 0 -152 -53q-53 -58 -53 -156zM229 1638h279l258 -376h-164z" />
<glyph unicode="&#xe1;" horiz-adv-x="1325" d="M84 309q0 180 125 268.5t379 88.5h186v63q0 129 -61.5 190.5t-188.5 61.5q-106 0 -164 -43q-57 -41 -81 -143h-113v229q90 31 196 51q90 16 216 17q287 0 417 -107q133 -109 133 -332v-532h152v-121h-506v135q-74 -88 -156 -125q-84 -39 -196 -39q-162 0 -250 88t-88 250 zM436 338q0 -104 39 -152q41 -49 117 -49q86 0 133 53q49 55 49 144v213h-133q-100 0 -152 -53q-53 -58 -53 -156zM434 1262l258 376h279l-373 -376h-164z" />
<glyph unicode="&#xe2;" horiz-adv-x="1325" d="M84 309q0 180 125 268.5t379 88.5h186v63q0 129 -61.5 190.5t-188.5 61.5q-106 0 -164 -43q-57 -41 -81 -143h-113v229q90 31 196 51q90 16 216 17q287 0 417 -107q133 -109 133 -332v-532h152v-121h-506v135q-74 -88 -156 -125q-84 -39 -196 -39q-162 0 -250 88t-88 250 zM436 338q0 -104 39 -152q41 -49 117 -49q86 0 133 53q49 55 49 144v213h-133q-100 0 -152 -53q-53 -58 -53 -156zM223 1262l256 376h242l256 -376h-164l-213 225l-213 -225h-164z" />
<glyph unicode="&#xe3;" horiz-adv-x="1325" d="M84 309q0 180 125 268.5t379 88.5h186v63q0 129 -61.5 190.5t-188.5 61.5q-106 0 -164 -43q-57 -41 -81 -143h-113v229q90 31 196 51q90 16 216 17q287 0 417 -107q133 -109 133 -332v-532h152v-121h-506v135q-74 -88 -156 -125q-84 -39 -196 -39q-162 0 -250 88t-88 250 zM436 338q0 -104 39 -152q41 -49 117 -49q86 0 133 53q49 55 49 144v213h-133q-100 0 -152 -53q-53 -58 -53 -156zM242 1309v16q0 143 53 221q51 76 155 76q35 0 72 -12q35 -12 82 -43l72 -47l2 -2q45 -29 80 -29q41 0 65 35q25 33 25 96h110v-16q0 -143 -53 -222 q-51 -76 -155 -75q-35 0 -72 12q-35 12 -82 43l-72 47h-2q-45 31 -80 31q-41 0 -65 -35q-25 -33 -25 -96h-110z" />
<glyph unicode="&#xe4;" horiz-adv-x="1325" d="M84 309q0 180 125 268.5t379 88.5h186v63q0 129 -61.5 190.5t-188.5 61.5q-106 0 -164 -43q-57 -41 -81 -143h-113v229q90 31 196 51q90 16 216 17q287 0 417 -107q133 -109 133 -332v-532h152v-121h-506v135q-74 -88 -156 -125q-84 -39 -196 -39q-162 0 -250 88t-88 250 zM436 338q0 -104 39 -152q41 -49 117 -49q86 0 133 53q49 55 49 144v213h-133q-100 0 -152 -53q-53 -58 -53 -156zM229 1468.5q0 59.5 43 102.5t105 43q59 0 102 -43t43 -103q0 -61 -43 -104t-102.5 -43t-104.5 45q-43 43 -43 102.5zM676 1468.5q0 59.5 43 102.5t104 43 t104.5 -43t43.5 -102.5t-43 -102.5q-45 -45 -104.5 -45t-104.5 45q-43 43 -43 102.5z" />
<glyph unicode="&#xe5;" horiz-adv-x="1325" d="M84 309q0 180 125 268.5t379 88.5h186v63q0 129 -61.5 190.5t-188.5 61.5q-106 0 -164 -43q-57 -41 -81 -143h-113v229q90 31 196 51q90 16 216 17q287 0 417 -107q133 -109 133 -332v-532h152v-121h-506v135q-74 -88 -156 -125q-84 -39 -196 -39q-162 0 -250 88t-88 250 zM436 338q0 -104 39 -152q41 -49 117 -49q86 0 133 53q49 55 49 144v213h-133q-100 0 -152 -53q-53 -58 -53 -156zM315 1534q0 117 84 201t201 84t201 -84t84 -201t-84 -201t-201 -84t-201 84t-84 201zM469 1534q0 -55 39 -92q43 -39 92 -39q55 0 92 39q39 43 39 92 q0 53 -39 92t-92 39q-55 0 -92 -39q-39 -43 -39 -92z" />
<glyph unicode="&#xe6;" horiz-adv-x="1996" d="M84 309q0 180 127 268.5t387 88.5h186v63q0 115 -71 182q-70 68 -193 68q-102 0 -159.5 -43t-81.5 -141h-113v229q90 31 196 51q90 16 216 17q139 0 235 -39q100 -41 162 -117q76 76 170 117q90 39 203 39q262 0 403 -154q141 -156 152 -457h-732v-8q0 -205 61.5 -297 t201.5 -92q114 0 184 61q70 59 90 177h168q-43 -182 -170 -267q-125 -84 -358 -84q-135 0 -238 39q-111 43 -182 117q-88 -76 -195 -117q-102 -39 -229 -39q-206 0 -314 86q-106 86 -106 252zM436 324q0 -113 39 -160q40 -49 129 -49q88 0 133 55q47 57 47 160v217h-133 q-111 0 -162 -55q-53 -57 -53 -168zM1171 600h342q0 211 -38.5 295t-133.5 84q-92 0 -131 -82q-39 -80 -39 -279v-18z" />
<glyph unicode="&#xe7;" horiz-adv-x="1245" d="M84 532q0 264 153.5 412t428.5 148q117 0 225 -21q117 -23 229 -63v-295h-112q-16 139 -78 200q-66 66 -178 66q-150 0 -211.5 -100.5t-61.5 -346.5q0 -240 61.5 -344t198.5 -104q109 0 172 63q61 61 78 185h166q-37 -180 -155.5 -270.5t-319.5 -90.5q-283 0 -440 148 q-156 147 -156 413zM401 -219q41 -16 88 -27q39 -8 78 -8q63 0 92 23q31 25 31 69q0 25 -16 62q-14 31 -68 100h127q63 -66 92 -119q29 -51 29 -106q0 -86 -63.5 -131t-186.5 -45q-47 0 -98 6q-35 4 -105 20v156z" />
<glyph unicode="&#xe8;" horiz-adv-x="1302" d="M84 532q0 264 152 412q150 147 419 148q264 0 405.5 -156t149.5 -455h-731v-8q0 -205 61.5 -297t200.5 -92q115 0 187 61q70 59 90 177h166q-43 -182 -170 -267q-125 -84 -359 -84q-274 0 -424 146q-147 145 -147 415zM479 600h342q0 211 -39 295t-133 84q-92 0 -131 -82 q-39 -80 -39 -279v-18zM280 1638h279l258 -376h-164z" />
<glyph unicode="&#xe9;" horiz-adv-x="1302" d="M84 532q0 264 152 412q150 147 419 148q264 0 405.5 -156t149.5 -455h-731v-8q0 -205 61.5 -297t200.5 -92q115 0 187 61q70 59 90 177h166q-43 -182 -170 -267q-125 -84 -359 -84q-274 0 -424 146q-147 145 -147 415zM479 600h342q0 211 -39 295t-133 84q-92 0 -131 -82 q-39 -80 -39 -279v-18zM485 1262l258 376h279l-373 -376h-164z" />
<glyph unicode="&#xea;" horiz-adv-x="1302" d="M84 532q0 264 152 412q150 147 419 148q264 0 405.5 -156t149.5 -455h-731v-8q0 -205 61.5 -297t200.5 -92q115 0 187 61q70 59 90 177h166q-43 -182 -170 -267q-125 -84 -359 -84q-274 0 -424 146q-147 145 -147 415zM479 600h342q0 211 -39 295t-133 84q-92 0 -131 -82 q-39 -80 -39 -279v-18zM274 1262l256 376h242l256 -376h-164l-213 225l-213 -225h-164z" />
<glyph unicode="&#xeb;" horiz-adv-x="1302" d="M84 532q0 264 152 412q150 147 419 148q264 0 405.5 -156t149.5 -455h-731v-8q0 -205 61.5 -297t200.5 -92q115 0 187 61q70 59 90 177h166q-43 -182 -170 -267q-125 -84 -359 -84q-274 0 -424 146q-147 145 -147 415zM479 600h342q0 211 -39 295t-133 84q-92 0 -131 -82 q-39 -80 -39 -279v-18zM280 1468.5q0 59.5 43 102.5t105 43q59 0 102 -43t43 -103q0 -61 -43 -104t-102.5 -43t-104.5 45q-43 43 -43 102.5zM727 1468.5q0 59.5 43 102.5t104 43t104.5 -43t43.5 -102.5t-43 -102.5q-45 -45 -104.5 -45t-104.5 45q-43 43 -43 102.5z" />
<glyph unicode="&#xec;" horiz-adv-x="776" d="M70 0v121h151v821h-151v121h505v-942h152v-121h-657zM18 1638h279l258 -376h-164z" />
<glyph unicode="&#xed;" horiz-adv-x="776" d="M70 0v121h151v821h-151v121h505v-942h152v-121h-657zM223 1262l258 376h279l-373 -376h-164z" />
<glyph unicode="&#xee;" horiz-adv-x="776" d="M70 0v121h151v821h-151v121h505v-942h152v-121h-657zM12 1262l256 376h242l256 -376h-164l-213 225l-213 -225h-164z" />
<glyph unicode="&#xef;" horiz-adv-x="776" d="M70 0v121h151v821h-151v121h505v-942h152v-121h-657zM18 1468.5q0 59.5 43 102.5t105 43q59 0 102 -43t43 -103q0 -61 -43 -104t-102.5 -43t-104.5 45q-43 43 -43 102.5zM465 1468.5q0 59.5 43 102.5t104 43t104.5 -43t43.5 -102.5t-43 -102.5q-45 -45 -104.5 -45 t-104.5 45q-43 43 -43 102.5z" />
<glyph unicode="&#xf0;" horiz-adv-x="1363" d="M84 508q0 230 160 381q162 152 403 151q41 0 84 -6q47 -6 88 -18q-23 70 -53 119q-33 51 -80 106l-319 -149l-50 100l279 131q-59 41 -129 70q-84 35 -176 53l28 110q150 -18 256 -53q117 -37 209 -92l330 154l47 -103l-266 -125q190 -154 289 -350q100 -201 100 -430 q0 -274 -160 -430q-158 -156 -440 -156q-279 0 -438 146q-162 147 -162 391zM479 508q0 -231 47 -330q45 -94 158 -94t158 94q45 92 45 330q0 108 -13 203q-12 94 -36 180q-51 20 -84 28.5t-70 8.5q-111 0 -158 -97q-47 -98 -47 -323z" />
<glyph unicode="&#xf1;" horiz-adv-x="1488" d="M70 0v121h151v821h-151v121h505v-150q66 96 146 137.5t207 41.5q178 0 270 -104.5t92 -311.5v-555h152v-121h-635v121h129v565q0 135 -35 188q-33 51 -119 52q-111 0 -157 -78q-49 -80 -50 -250v-477h130v-121h-635zM369 1309v16q0 143 53 221q51 76 155 76q35 0 72 -12 q35 -12 82 -43l72 -47l2 -2q45 -29 80 -29q41 0 65 35q25 33 25 96h110v-16q0 -143 -53 -222q-51 -76 -155 -75q-35 0 -72 12q-35 12 -82 43l-72 47h-2q-45 31 -80 31q-41 0 -65 -35q-25 -33 -25 -96h-110z" />
<glyph unicode="&#xf2;" horiz-adv-x="1363" d="M84 532q0 264 159.5 412t440.5 148t440.5 -147.5t159.5 -412.5q0 -261 -160 -411q-158 -150 -440.5 -150t-439.5 150q-160 150 -160 411zM479 532q0 -256 45 -352t160 -96q111 0 158 96q45 92 45 352q0 258 -45 351q-47 96 -158 96q-113 0 -160 -96q-45 -93 -45 -351z M313 1638h279l258 -376h-164z" />
<glyph unicode="&#xf3;" horiz-adv-x="1363" d="M84 532q0 264 159.5 412t440.5 148t440.5 -147.5t159.5 -412.5q0 -261 -160 -411q-158 -150 -440.5 -150t-439.5 150q-160 150 -160 411zM479 532q0 -256 45 -352t160 -96q111 0 158 96q45 92 45 352q0 258 -45 351q-47 96 -158 96q-113 0 -160 -96q-45 -93 -45 -351z M518 1262l258 376h279l-373 -376h-164z" />
<glyph unicode="&#xf4;" horiz-adv-x="1363" d="M84 532q0 264 159.5 412t440.5 148t440.5 -147.5t159.5 -412.5q0 -261 -160 -411q-158 -150 -440.5 -150t-439.5 150q-160 150 -160 411zM479 532q0 -256 45 -352t160 -96q111 0 158 96q45 92 45 352q0 258 -45 351q-47 96 -158 96q-113 0 -160 -96q-45 -93 -45 -351z M307 1262l256 376h242l256 -376h-164l-213 225l-213 -225h-164z" />
<glyph unicode="&#xf5;" horiz-adv-x="1363" d="M84 532q0 264 159.5 412t440.5 148t440.5 -147.5t159.5 -412.5q0 -261 -160 -411q-158 -150 -440.5 -150t-439.5 150q-160 150 -160 411zM479 532q0 -256 45 -352t160 -96q111 0 158 96q45 92 45 352q0 258 -45 351q-47 96 -158 96q-113 0 -160 -96q-45 -93 -45 -351z M326 1309v16q0 143 53 221q51 76 155 76q35 0 72 -12q35 -12 82 -43l72 -47l2 -2q45 -29 80 -29q41 0 65 35q25 33 25 96h110v-16q0 -143 -53 -222q-51 -76 -155 -75q-35 0 -72 12q-35 12 -82 43l-72 47h-2q-45 31 -80 31q-41 0 -65 -35q-25 -33 -25 -96h-110z" />
<glyph unicode="&#xf6;" horiz-adv-x="1363" d="M84 532q0 264 159.5 412t440.5 148t440.5 -147.5t159.5 -412.5q0 -261 -160 -411q-158 -150 -440.5 -150t-439.5 150q-160 150 -160 411zM479 532q0 -256 45 -352t160 -96q111 0 158 96q45 92 45 352q0 258 -45 351q-47 96 -158 96q-113 0 -160 -96q-45 -93 -45 -351z M313 1468.5q0 59.5 43 102.5t105 43q59 0 102 -43t43 -103q0 -61 -43 -104t-102.5 -43t-104.5 45q-43 43 -43 102.5zM760 1468.5q0 59.5 43 102.5t104 43t104.5 -43t43.5 -102.5t-43 -102.5q-45 -45 -104.5 -45t-104.5 45q-43 43 -43 102.5z" />
<glyph unicode="&#xf7;" d="M217 528v228h1282v-228h-1282zM709 272q0 61 45 107q43 43 104 43q63 0 106.5 -43t43.5 -107q0 -61 -43 -104q-45 -45 -107 -45q-59 0 -104 45t-45 104zM709 1012q0 59 45 104t104 45q61 0 107 -45q43 -43 43 -104q0 -63 -43 -106.5t-107 -43.5q-61 0 -104 43 q-45 46 -45 107z" />
<glyph unicode="&#xf8;" horiz-adv-x="1363" d="M51 -16l164 163q-63 72 -98 172q-33 92 -33 213q0 264 159.5 412t440.5 148q115 0 211 -25q95 -25 166 -74l168 168l86 -86l-164 -162q68 -74 100 -168q33 -92 33 -213q0 -261 -160 -411q-158 -150 -440 -150q-113 0 -205 24.5t-172 74.5l-172 -172zM481 416l387 385 q-20 96 -61 135q-46 43 -123 43q-109 0 -156 -96q-47 -98 -47 -330v-137zM500 262q16 -90 61 -133q49 -45 123 -45q111 0 156 94q45 92 45 330v141z" />
<glyph unicode="&#xf9;" horiz-adv-x="1488" d="M47 942v121h506v-621q0 -201 33 -252q35 -53 121 -53q111 0 157 78q49 80 49 252v475h-129v121h484v-942h151v-121h-506v150q-66 -96 -145.5 -137.5t-206.5 -41.5q-178 0 -270 104.5t-92 311.5v555h-152zM336 1638h279l258 -376h-164z" />
<glyph unicode="&#xfa;" horiz-adv-x="1488" d="M47 942v121h506v-621q0 -201 33 -252q35 -53 121 -53q111 0 157 78q49 80 49 252v475h-129v121h484v-942h151v-121h-506v150q-66 -96 -145.5 -137.5t-206.5 -41.5q-178 0 -270 104.5t-92 311.5v555h-152zM541 1262l258 376h279l-373 -376h-164z" />
<glyph unicode="&#xfb;" horiz-adv-x="1488" d="M47 942v121h506v-621q0 -201 33 -252q35 -53 121 -53q111 0 157 78q49 80 49 252v475h-129v121h484v-942h151v-121h-506v150q-66 -96 -145.5 -137.5t-206.5 -41.5q-178 0 -270 104.5t-92 311.5v555h-152zM330 1262l256 376h242l256 -376h-164l-213 225l-213 -225h-164z " />
<glyph unicode="&#xfc;" horiz-adv-x="1488" d="M47 942v121h506v-621q0 -201 33 -252q35 -53 121 -53q111 0 157 78q49 80 49 252v475h-129v121h484v-942h151v-121h-506v150q-66 -96 -145.5 -137.5t-206.5 -41.5q-178 0 -270 104.5t-92 311.5v555h-152zM336 1468.5q0 59.5 43 102.5t105 43q59 0 102 -43t43 -103 q0 -61 -43 -104t-102.5 -43t-104.5 45q-43 43 -43 102.5zM783 1468.5q0 59.5 43 102.5t104 43t104.5 -43t43.5 -102.5t-43 -102.5q-45 -45 -104.5 -45t-104.5 45q-43 43 -43 102.5z" />
<glyph unicode="&#xfd;" horiz-adv-x="1189" d="M-27 942v121h613v-121h-127l270 -629l252 629h-141v121h399v-121h-129l-471 -1182q-49 -117 -116.5 -166t-182.5 -49q-57 0 -109 11q-68 14 -131 32v222h113q4 -78 37 -115t100.5 -37t104.5 35q40 37 80 135l16 37l-463 1077h-115zM430 1262l258 376h279l-373 -376h-164z " />
<glyph unicode="&#xfe;" horiz-adv-x="1431" d="M47 -305h152v1741h-152v120h506v-628q47 84 121 123q78 41 188 41q227 0 357 -150q131 -154 131 -410q0 -258 -131 -411q-129 -150 -357 -150q-111 0 -188 41q-74 39 -121 123v-440h164v-121h-670v121zM553 479q0 -184 47 -268t154 -84q111 0 153 88q45 94 45 317 q0 225 -45 316q-43 88 -153 88q-109 0 -154 -82q-47 -84 -47 -270v-105z" />
<glyph unicode="&#xff;" horiz-adv-x="1189" d="M-27 942v121h613v-121h-127l270 -629l252 629h-141v121h399v-121h-129l-471 -1182q-49 -117 -116.5 -166t-182.5 -49q-57 0 -109 11q-68 14 -131 32v222h113q4 -78 37 -115t100.5 -37t104.5 35q40 37 80 135l16 37l-463 1077h-115zM225 1468.5q0 59.5 43 102.5t105 43 q59 0 102 -43t43 -103q0 -61 -43 -104t-102.5 -43t-104.5 45q-43 43 -43 102.5zM672 1468.5q0 59.5 43 102.5t104 43t104.5 -43t43.5 -102.5t-43 -102.5q-45 -45 -104.5 -45t-104.5 45q-43 43 -43 102.5z" />
<glyph unicode="&#x100;" horiz-adv-x="1587" d="M473 1684v188h630v-188h-630zM-16 0v121h122l562 1372h239l563 -1372h142v-121h-699v121h146l-123 305h-561l-125 -305h178v-121h-444zM424 547h463l-230 571z" />
<glyph unicode="&#x101;" horiz-adv-x="1325" d="M263 1374v188h630v-188h-630zM84 309q0 180 125 268.5t379 88.5h186v63q0 129 -61.5 190.5t-188.5 61.5q-106 0 -164 -43q-57 -41 -81 -143h-113v229q90 31 196 51q90 16 216 17q287 0 417 -107q133 -109 133 -332v-532h152v-121h-506v135q-74 -88 -156 -125 q-84 -39 -196 -39q-162 0 -250 88t-88 250zM436 338q0 -104 39 -152q41 -49 117 -49q86 0 133 53q49 55 49 144v213h-133q-100 0 -152 -53q-53 -58 -53 -156z" />
<glyph unicode="&#x102;" horiz-adv-x="1587" d="M442 1917h125q6 -72 61 -112q53 -39 155.5 -39t156.5 39q55 41 61 112h125q0 -145 -90 -229q-88 -82 -252 -82q-160 0 -252 82q-86 77 -90 229zM-16 0v121h122l562 1372h239l563 -1372h142v-121h-699v121h146l-123 305h-561l-125 -305h178v-121h-444zM424 547h463 l-230 571z" />
<glyph unicode="&#x103;" horiz-adv-x="1325" d="M289 1589h125q6 -72 61 -112q53 -39 155.5 -39t156.5 39q55 41 61 112h125q0 -145 -90 -229q-88 -82 -252 -82q-160 0 -252 82q-86 77 -90 229zM84 309q0 180 125 268.5t379 88.5h186v63q0 129 -61.5 190.5t-188.5 61.5q-106 0 -164 -43q-57 -41 -81 -143h-113v229 q90 31 196 51q90 16 216 17q287 0 417 -107q133 -109 133 -332v-532h152v-121h-506v135q-74 -88 -156 -125q-84 -39 -196 -39q-162 0 -250 88t-88 250zM436 338q0 -104 39 -152q41 -49 117 -49q86 0 133 53q49 55 49 144v213h-133q-100 0 -152 -53q-53 -58 -53 -156z" />
<glyph unicode="&#x104;" horiz-adv-x="1587" d="M792 -225q0 51 31 106q29 51 96 119h125q-53 -70 -69 -102q-18 -37 -19 -66q0 -41 29 -63.5t80 -22.5q45 0 80 8q53 12 78 23v-156q-37 -8 -103 -16q-49 -6 -90 -6q-113 0 -176 47q-62 46 -62 129zM-16 0v121h122l562 1372h239l563 -1372h142v-121h-699v121h146l-123 305 h-561l-125 -305h178v-121h-444zM424 547h463l-230 571z" />
<glyph unicode="&#x105;" horiz-adv-x="1325" d="M653 -225q0 51 31 106q29 51 96 119h125q-53 -70 -69 -102q-18 -37 -19 -66q0 -41 29 -63.5t80 -22.5q45 0 80 8q53 12 78 23v-156q-37 -8 -103 -16q-49 -6 -90 -6q-113 0 -176 47q-62 46 -62 129zM84 309q0 180 125 268.5t379 88.5h186v63q0 129 -61.5 190.5 t-188.5 61.5q-106 0 -164 -43q-57 -41 -81 -143h-113v229q90 31 196 51q90 16 216 17q287 0 417 -107q133 -109 133 -332v-532h152v-121h-506v135q-74 -88 -156 -125q-84 -39 -196 -39q-162 0 -250 88t-88 250zM436 338q0 -104 39 -152q41 -49 117 -49q86 0 133 53 q49 55 49 144v213h-133q-100 0 -152 -53q-53 -58 -53 -156z" />
<glyph unicode="&#x106;" horiz-adv-x="1628" d="M86 745.5q0 356.5 219 565.5t598 209q132 0 277 -31q131 -29 305 -98v-367h-127q-41 193 -141 281q-106 94 -273 94q-215 0 -323 -160q-106 -158 -106.5 -493.5t106.5 -493.5q109 -160 325 -160q150 0 244 82t137 252h199q-59 -233 -211 -342q-156 -113 -412 -113 q-379 0 -598 209t-219 565.5zM723 1635l182 264h279l-297 -264h-164z" />
<glyph unicode="&#x107;" horiz-adv-x="1245" d="M84 532q0 264 153.5 412t428.5 148q117 0 225 -21q117 -23 229 -63v-295h-112q-16 139 -78 200q-66 66 -178 66q-150 0 -211.5 -100.5t-61.5 -346.5q0 -240 61.5 -344t198.5 -104q109 0 172 63q61 61 78 185h166q-37 -180 -155.5 -270.5t-319.5 -90.5q-283 0 -440 148 q-156 147 -156 413zM498 1262l258 376h279l-373 -376h-164z" />
<glyph unicode="&#x108;" horiz-adv-x="1628" d="M512 1635l223 264h308l223 -264h-164l-213 161l-213 -161h-164zM86 745.5q0 356.5 219 565.5t598 209q132 0 277 -31q131 -29 305 -98v-367h-127q-41 193 -141 281q-106 94 -273 94q-215 0 -323 -160q-106 -158 -106.5 -493.5t106.5 -493.5q109 -160 325 -160 q150 0 244 82t137 252h199q-59 -233 -211 -342q-156 -113 -412 -113q-379 0 -598 209t-219 565.5z" />
<glyph unicode="&#x109;" horiz-adv-x="1245" d="M287 1262l256 376h242l256 -376h-164l-213 225l-213 -225h-164zM84 532q0 264 153.5 412t428.5 148q117 0 225 -21q117 -23 229 -63v-295h-112q-16 139 -78 200q-66 66 -178 66q-150 0 -211.5 -100.5t-61.5 -346.5q0 -240 61.5 -344t198.5 -104q109 0 172 63 q61 61 78 185h166q-37 -180 -155.5 -270.5t-319.5 -90.5q-283 0 -440 148q-156 147 -156 413z" />
<glyph unicode="&#x10a;" horiz-adv-x="1628" d="M742 1776q0 61 43 104t104 43t104 -43t43 -104q0 -59 -43 -102.5t-104 -43.5t-104 43.5t-43 102.5zM86 745.5q0 356.5 219 565.5t598 209q132 0 277 -31q131 -29 305 -98v-367h-127q-41 193 -141 281q-106 94 -273 94q-215 0 -323 -160q-106 -158 -106.5 -493.5 t106.5 -493.5q109 -160 325 -160q150 0 244 82t137 252h199q-59 -233 -211 -342q-156 -113 -412 -113q-379 0 -598 209t-219 565.5z" />
<glyph unicode="&#x10b;" horiz-adv-x="1245" d="M517 1468.5q0 59.5 43 102.5t104 43t104 -43t43 -102.5t-43 -102.5q-45 -45 -104 -45t-104 45q-43 43 -43 102.5zM84 532q0 264 153.5 412t428.5 148q117 0 225 -21q117 -23 229 -63v-295h-112q-16 139 -78 200q-66 66 -178 66q-150 0 -211.5 -100.5t-61.5 -346.5 q0 -240 61.5 -344t198.5 -104q109 0 172 63q61 61 78 185h166q-37 -180 -155.5 -270.5t-319.5 -90.5q-283 0 -440 148q-156 147 -156 413z" />
<glyph unicode="&#x10c;" horiz-adv-x="1628" d="M86 745.5q0 356.5 219 565.5t598 209q132 0 277 -31q131 -29 305 -98v-367h-127q-41 193 -141 281q-106 94 -273 94q-215 0 -323 -160q-106 -158 -106.5 -493.5t106.5 -493.5q109 -160 325 -160q150 0 244 82t137 252h199q-59 -233 -211 -342q-156 -113 -412 -113 q-379 0 -598 209t-219 565.5zM512 1899h164l213 -162l213 162h164l-223 -264h-308z" />
<glyph unicode="&#x10d;" horiz-adv-x="1245" d="M84 532q0 264 153.5 412t428.5 148q117 0 225 -21q117 -23 229 -63v-295h-112q-16 139 -78 200q-66 66 -178 66q-150 0 -211.5 -100.5t-61.5 -346.5q0 -240 61.5 -344t198.5 -104q109 0 172 63q61 61 78 185h166q-37 -180 -155.5 -270.5t-319.5 -90.5q-283 0 -440 148 q-156 147 -156 413zM287 1638h164l213 -227l213 227h164l-256 -376h-242z" />
<glyph unicode="&#x10e;" horiz-adv-x="1775" d="M96 0v121h191v1251h-191v121h766q399 0 615 -193q213 -190 213 -552q0 -360 -213 -555q-211 -193 -615 -193h-766zM672 121h139q236 0 342 149q109 152 109 478q0 324 -109 475q-106 150 -342 149h-139v-1251zM487 1899h164l213 -162l213 162h164l-223 -264h-308z" />
<glyph unicode="&#x10f;" horiz-adv-x="1431" d="M84 532q0 258 129 410q129 150 356 150q111 0 189 -41q74 -39 121 -123v508h-152v120h506v-1435h151v-121h-505v135q-47 -84 -121 -123q-78 -41 -189 -41q-227 0 -356 150t-129 411zM479 532q0 -229 45 -317t154 -88q104 0 153 84q47 80 48 268v105q0 190 -48 270 q-49 82 -153 82q-109 0 -154 -88q-45 -91 -45 -316zM1397 1178l70 376h278l-184 -376h-164z" />
<glyph unicode="&#x110;" horiz-adv-x="1789" d="M88 713v137h213v522h-192v121h768q397 0 612 -193q213 -190 213 -552q0 -360 -213 -555q-211 -193 -612 -193h-768v121h192v592h-213zM686 121h139q236 0 342.5 149.5t106.5 477.5q0 326 -106.5 475t-342.5 149h-139v-522h332v-137h-332v-592z" />
<glyph unicode="&#x111;" horiz-adv-x="1431" d="M84 532q0 258 129 410q129 150 356 150q111 0 189 -41q74 -39 121 -123v295h-324v120h324v93h-152v120h506v-213h172v-120h-172v-1102h151v-121h-505v135q-47 -84 -121 -123q-78 -41 -189 -41q-227 0 -356 150t-129 411zM479 532q0 -229 45 -317t154 -88q104 0 153 84 q47 80 48 268v105q0 190 -48 270q-49 82 -153 82q-109 0 -154 -88q-45 -91 -45 -316z" />
<glyph unicode="&#x112;" horiz-adv-x="1560" d="M453 1684v188h630v-188h-630zM96 0v121h191v1251h-191v121h1342v-352h-138v215h-628v-479h391v190h137v-516h-137v190h-391v-604h647v215h137v-352h-1360z" />
<glyph unicode="&#x113;" horiz-adv-x="1302" d="M340 1374v188h630v-188h-630zM84 532q0 264 152 412q150 147 419 148q264 0 405.5 -156t149.5 -455h-731v-8q0 -205 61.5 -297t200.5 -92q115 0 187 61q70 59 90 177h166q-43 -182 -170 -267q-125 -84 -359 -84q-274 0 -424 146q-147 145 -147 415zM479 600h342 q0 211 -39 295t-133 84q-92 0 -131 -82q-39 -80 -39 -279v-18z" />
<glyph unicode="&#x114;" horiz-adv-x="1560" d="M475 1899h123q23 -55 78 -84q57 -29 139 -29q90 0 141 29q55 31 76 84h123q-27 -129 -113 -196.5t-227 -67.5q-143 0 -227 65q-86 68 -113 199zM96 0v121h191v1251h-191v121h1342v-352h-138v215h-628v-479h391v190h137v-516h-137v190h-391v-604h647v215h137v-352h-1360z " />
<glyph unicode="&#x115;" horiz-adv-x="1302" d="M309 1589h125q6 -72 61 -112q53 -39 155.5 -39t156.5 39q55 41 61 112h125q0 -145 -90 -229q-88 -82 -252 -82q-160 0 -252 82q-86 77 -90 229zM84 532q0 264 152 412q150 147 419 148q264 0 405.5 -156t149.5 -455h-731v-8q0 -205 61.5 -297t200.5 -92q115 0 187 61 q70 59 90 177h166q-43 -182 -170 -267q-125 -84 -359 -84q-274 0 -424 146q-147 145 -147 415zM479 600h342q0 211 -39 295t-133 84q-92 0 -131 -82q-39 -80 -39 -279v-18z" />
<glyph unicode="&#x116;" horiz-adv-x="1560" d="M668 1776q0 61 43 104t104 43t104 -43t43 -104q0 -59 -43 -102.5t-104 -43.5t-104 43.5t-43 102.5zM96 0v121h191v1251h-191v121h1342v-352h-138v215h-628v-479h391v190h137v-516h-137v190h-391v-604h647v215h137v-352h-1360z" />
<glyph unicode="&#x117;" horiz-adv-x="1302" d="M504 1468.5q0 59.5 43 102.5t104 43t104 -43t43 -102.5t-43 -102.5q-45 -45 -104 -45t-104 45q-43 43 -43 102.5zM84 532q0 264 152 412q150 147 419 148q264 0 405.5 -156t149.5 -455h-731v-8q0 -205 61.5 -297t200.5 -92q115 0 187 61q70 59 90 177h166 q-43 -182 -170 -267q-125 -84 -359 -84q-274 0 -424 146q-147 145 -147 415zM479 600h342q0 211 -39 295t-133 84q-92 0 -131 -82q-39 -80 -39 -279v-18z" />
<glyph unicode="&#x118;" horiz-adv-x="1560" d="M1028 -225q0 51 31 106q29 51 96 119h125q-53 -70 -69 -102q-18 -37 -19 -66q0 -41 29 -63.5t80 -22.5q45 0 80 8q53 12 78 23v-156q-37 -8 -103 -16q-49 -6 -90 -6q-113 0 -176 47q-62 46 -62 129zM96 0v121h191v1251h-191v121h1342v-352h-138v215h-628v-479h391v190 h137v-516h-137v190h-391v-604h647v215h137v-352h-1360z" />
<glyph unicode="&#x119;" horiz-adv-x="1302" d="M645 -225q0 51 31 106q29 51 96 119h125q-53 -70 -69 -102q-18 -37 -19 -66q0 -41 29 -63.5t80 -22.5q45 0 80 8q53 12 78 23v-156q-37 -8 -103 -16q-49 -6 -90 -6q-113 0 -176 47q-62 46 -62 129zM84 532q0 264 152 412q150 147 419 148q264 0 405.5 -156t149.5 -455 h-731v-8q0 -205 61.5 -297t200.5 -92q115 0 187 61q70 59 90 177h166q-43 -182 -170 -267q-125 -84 -359 -84q-274 0 -424 146q-147 145 -147 415zM479 600h342q0 211 -39 295t-133 84q-92 0 -131 -82q-39 -80 -39 -279v-18z" />
<glyph unicode="&#x11a;" horiz-adv-x="1560" d="M96 0v121h191v1251h-191v121h1342v-352h-138v215h-628v-479h391v190h137v-516h-137v190h-391v-604h647v215h137v-352h-1360zM434 1905h164l213 -162l213 162h164l-223 -264h-308z" />
<glyph unicode="&#x11b;" horiz-adv-x="1302" d="M84 532q0 264 152 412q150 147 419 148q264 0 405.5 -156t149.5 -455h-731v-8q0 -205 61.5 -297t200.5 -92q115 0 187 61q70 59 90 177h166q-43 -182 -170 -267q-125 -84 -359 -84q-274 0 -424 146q-147 145 -147 415zM479 600h342q0 211 -39 295t-133 84q-92 0 -131 -82 q-39 -80 -39 -279v-18zM287 1638h164l213 -227l213 227h164l-256 -376h-242z" />
<glyph unicode="&#x11c;" horiz-adv-x="1748" d="M532 1635l223 264h308l223 -264h-164l-213 161l-213 -161h-164zM86 745.5q0 360.5 219 567.5t604 207q162 0 316 -31q141 -29 311 -98v-367h-127q-47 199 -149.5 287t-296.5 88q-231 0 -340 -158t-109 -496q0 -336 104 -495q102 -158 324 -158q86 0 155.5 18.5 t131.5 57.5v410h-180v120h538v-573q-184 -84 -336 -117q-170 -37 -342 -37q-385 0 -604 207t-219 567.5z" />
<glyph unicode="&#x11d;" horiz-adv-x="1431" d="M301 1262l256 376h242l256 -376h-164l-213 225l-213 -225h-164zM84 532q0 258 129 410q129 150 356 150q111 0 189 -41q74 -39 121 -123v135h505v-121h-151v-928q0 -223 -160 -346t-450 -123q-100 0 -215 17q-111 16 -224 49v254h113q16 -104 84 -156q70 -51 199 -51 q166 0 231 78q68 80 68 278v121q-47 -84 -121 -123q-78 -41 -189 -41q-227 0 -356 150t-129 411zM479 532q0 -229 45 -317t154 -88q104 0 153 84q47 80 48 268v105q0 190 -48 270q-49 82 -153 82q-109 0 -154 -88q-45 -91 -45 -316z" />
<glyph unicode="&#x11e;" horiz-adv-x="1748" d="M86 745.5q0 360.5 219 567.5t604 207q162 0 316 -31q141 -29 311 -98v-367h-127q-47 199 -149.5 287t-296.5 88q-231 0 -340 -158t-109 -496q0 -336 104 -495q102 -158 324 -158q86 0 155.5 18.5t131.5 57.5v410h-180v120h538v-573q-184 -84 -336 -117q-170 -37 -342 -37 q-385 0 -604 207t-219 567.5zM534 1899h123q23 -55 78 -84q57 -29 139 -29q90 0 141 29q55 31 76 84h123q-27 -129 -113 -196.5t-227 -67.5q-143 0 -227 65q-86 68 -113 199z" />
<glyph unicode="&#x11f;" horiz-adv-x="1431" d="M84 532q0 258 129 410q129 150 356 150q111 0 189 -41q74 -39 121 -123v135h505v-121h-151v-928q0 -223 -160 -346t-450 -123q-100 0 -215 17q-111 16 -224 49v254h113q16 -104 84 -156q70 -51 199 -51q166 0 231 78q68 80 68 278v121q-47 -84 -121 -123 q-78 -41 -189 -41q-227 0 -356 150t-129 411zM479 532q0 -229 45 -317t154 -88q104 0 153 84q47 80 48 268v105q0 190 -48 270q-49 82 -153 82q-109 0 -154 -88q-45 -91 -45 -316zM375 1589h125q6 -72 61 -112q53 -39 155.5 -39t156.5 39q55 41 61 112h125q0 -145 -90 -229 q-88 -82 -252 -82q-160 0 -252 82q-86 77 -90 229z" />
<glyph unicode="&#x120;" horiz-adv-x="1748" d="M762 1776q0 61 43 104t104 43t104 -43t43 -104q0 -59 -43 -102.5t-104 -43.5t-104 43.5t-43 102.5zM86 745.5q0 360.5 219 567.5t604 207q162 0 316 -31q141 -29 311 -98v-367h-127q-47 199 -149.5 287t-296.5 88q-231 0 -340 -158t-109 -496q0 -336 104 -495 q102 -158 324 -158q86 0 155.5 18.5t131.5 57.5v410h-180v120h538v-573q-184 -84 -336 -117q-170 -37 -342 -37q-385 0 -604 207t-219 567.5z" />
<glyph unicode="&#x121;" horiz-adv-x="1431" d="M531 1468.5q0 59.5 43 102.5t104 43t104 -43t43 -102.5t-43 -102.5q-45 -45 -104 -45t-104 45q-43 43 -43 102.5zM84 532q0 258 129 410q129 150 356 150q111 0 189 -41q74 -39 121 -123v135h505v-121h-151v-928q0 -223 -160 -346t-450 -123q-100 0 -215 17 q-111 16 -224 49v254h113q16 -104 84 -156q70 -51 199 -51q166 0 231 78q68 80 68 278v121q-47 -84 -121 -123q-78 -41 -189 -41q-227 0 -356 150t-129 411zM479 532q0 -229 45 -317t154 -88q104 0 153 84q47 80 48 268v105q0 190 -48 270q-49 82 -153 82q-109 0 -154 -88 q-45 -91 -45 -316z" />
<glyph unicode="&#x122;" horiz-adv-x="1748" d="M729 -419q80 45 115 94q37 51 37 121v43h215v-4q0 -113 -70 -191q-68 -80 -213 -135zM86 745.5q0 360.5 219 567.5t604 207q162 0 316 -31q141 -29 311 -98v-367h-127q-47 199 -149.5 287t-296.5 88q-231 0 -340 -158t-109 -496q0 -336 104 -495q102 -158 324 -158 q86 0 155.5 18.5t131.5 57.5v410h-180v120h538v-573q-184 -84 -336 -117q-170 -37 -342 -37q-385 0 -604 207t-219 567.5z" />
<glyph unicode="&#x123;" horiz-adv-x="1431" d="M559 1215v4q0 109 72 190q68 80 213 136l82 -72q-80 -45 -115 -94q-37 -53 -37 -121v-43h-215zM84 532q0 258 129 410q129 150 356 150q111 0 189 -41q74 -39 121 -123v135h505v-121h-151v-928q0 -223 -160 -346t-450 -123q-100 0 -215 17q-111 16 -224 49v254h113 q16 -104 84 -156q70 -51 199 -51q166 0 231 78q68 80 68 278v121q-47 -84 -121 -123q-78 -41 -189 -41q-227 0 -356 150t-129 411zM479 532q0 -229 45 -317t154 -88q104 0 153 84q47 80 48 268v105q0 190 -48 270q-49 82 -153 82q-109 0 -154 -88q-45 -91 -45 -316z" />
<glyph unicode="&#x124;" horiz-adv-x="1933" d="M594 1635l223 264h308l223 -264h-164l-213 161l-213 -161h-164zM96 0v121h191v1251h-191v121h768v-121h-192v-502h594v502h-191v121h768v-121h-192v-1251h192v-121h-768v121h191v612h-594v-612h192v-121h-768z" />
<glyph unicode="&#x125;" horiz-adv-x="1488" d="M-53 1635l223 264h308l223 -264h-164l-213 161l-213 -161h-164zM63 1436v120h512v-643q66 96 146 137.5t207 41.5q178 0 270 -104.5t92 -311.5v-555h152v-121h-635v121h129v565q0 135 -35 188q-33 51 -119 52q-111 0 -157 -78q-49 -80 -50 -250v-477h130v-121h-635v121 h151v1315h-158z" />
<glyph unicode="&#x126;" horiz-adv-x="1933" d="M96 0v121h191v932h-191v137h191v182h-191v121h768v-121h-192v-182h594v182h-191v121h768v-121h-192v-182h192v-137h-192v-932h192v-121h-768v121h191v612h-594v-612h192v-121h-768zM672 870h594v183h-594v-183z" />
<glyph unicode="&#x127;" horiz-adv-x="1488" d="M63 1196v137h158v103h-158v120h512v-223h359v-137h-359v-283q66 96 146 137.5t207 41.5q178 0 270 -104.5t92 -311.5v-555h152v-121h-635v121h129v565q0 135 -35 188q-33 51 -119 52q-111 0 -157 -78q-49 -80 -50 -250v-477h130v-121h-635v121h151v1075h-158z" />
<glyph unicode="&#x128;" horiz-adv-x="956" d="M121 1635v12q0 123 55 190q53 66 153 66q63 0 142 -39q9 -3 12 -6l72 -33q39 -16 47 -18q25 -4 35 -4q41 0 65.5 24.5t24.5 69.5v4h110v-15q0 -123 -53 -188t-155 -65q-31 0 -68 10q-41 12 -86 35l-57 28q-39 18 -52 21q-25 6 -45 6q-41 0 -65.5 -24.5t-24.5 -69.5v-4 h-110zM96 0v121h191v1251h-191v121h768v-121h-192v-1251h192v-121h-768z" />
<glyph unicode="&#x129;" horiz-adv-x="776" d="M31 1309v16q0 143 53 221q51 76 155 76q35 0 72 -12q35 -12 82 -43l72 -47l2 -2q45 -29 80 -29q41 0 65 35q25 33 25 96h110v-16q0 -143 -53 -222q-51 -76 -155 -75q-35 0 -72 12q-35 12 -82 43l-72 47h-2q-45 31 -80 31q-41 0 -65 -35q-25 -33 -25 -96h-110zM70 0v121 h151v821h-151v121h505v-942h152v-121h-657z" />
<glyph unicode="&#x12a;" horiz-adv-x="956" d="M164 1684v188h630v-188h-630zM96 0v121h191v1251h-191v121h768v-121h-192v-1251h192v-121h-768z" />
<glyph unicode="&#x12b;" horiz-adv-x="776" d="M7 1374v188h630v-188h-630zM70 0v121h151v821h-151v121h505v-942h152v-121h-657z" />
<glyph unicode="&#x12c;" horiz-adv-x="956" d="M139 1899h123q23 -55 78 -84q57 -29 139 -29q90 0 141 29q55 31 76 84h123q-27 -129 -113 -196.5t-227 -67.5q-143 0 -227 65q-86 68 -113 199zM96 0v121h191v1251h-191v121h768v-121h-192v-1251h192v-121h-768z" />
<glyph unicode="&#x12d;" horiz-adv-x="776" d="M47 1589h125q6 -72 61 -112q53 -39 155.5 -39t156.5 39q55 41 61 112h125q0 -145 -90 -229q-88 -82 -252 -82q-160 0 -252 82q-86 77 -90 229zM70 0v121h151v821h-151v121h505v-942h152v-121h-657z" />
<glyph unicode="&#x12e;" horiz-adv-x="956" d="M96 0v121h191v1251h-191v121h768v-121h-192v-1251h192v-121h-768zM419 -225q0 51 31 106q29 51 96 119h125q-53 -70 -69 -102q-18 -37 -19 -66q0 -41 29 -63.5t80 -22.5q45 0 80 8q53 12 78 23v-156q-37 -8 -103 -16q-49 -6 -90 -6q-113 0 -176 47q-62 46 -62 129z" />
<glyph unicode="&#x12f;" horiz-adv-x="776" d="M70 0v121h151v821h-151v121h505v-942h152v-121h-657zM188 1364q0 82 55.5 137t137.5 55q80 0 135 -55t55 -137q0 -80 -55 -135t-135 -55q-82 0 -137.5 55t-55.5 135zM323 -225q0 51 31 106q29 51 96 119h125q-53 -70 -69 -102q-18 -37 -19 -66q0 -41 29 -63.5t80 -22.5 q45 0 80 8q53 12 78 23v-156q-37 -8 -103 -16q-49 -6 -90 -6q-113 0 -176 47q-62 46 -62 129z" />
<glyph unicode="&#x130;" horiz-adv-x="956" d="M96 0v121h191v1251h-191v121h768v-121h-192v-1251h192v-121h-768zM332 1776q0 61 43 104t104 43t104 -43t43 -104q0 -59 -43 -102.5t-104 -43.5t-104 43.5t-43 102.5z" />
<glyph unicode="&#x131;" horiz-adv-x="776" d="M70 0v121h151v821h-151v121h505v-942h152v-121h-657z" />
<glyph unicode="&#x132;" horiz-adv-x="1927" d="M96 0v121h191v1251h-191v121h768v-121h-192v-1251h192v-121h-768zM811 -123h130q6 -96 45 -137q41 -45 114 -45q94 0 135 74q39 72 39 280v1323h-217v121h795v-121h-191v-1331q0 -244 -122 -354q-125 -113 -390 -113q-94 0 -168 16q-92 20 -170 52v235z" />
<glyph unicode="&#x133;" horiz-adv-x="1536" d="M70 0v121h151v821h-151v121h505v-942h152v-121h-657zM188 1364q0 82 55.5 137t137.5 55q80 0 135 -55t55 -137q0 -80 -55 -135t-135 -55q-82 0 -137.5 55t-55.5 135zM645 -190h113q4 -84 31 -117q29 -35 96 -35q74 0 102.5 47t28.5 170v1067h-151v121h505v-1188 q0 -163 -116 -246q-119 -84 -340 -84q-51 0 -127 11q-59 8 -142 28v226zM975 1364q0 82 55.5 137t137.5 55q78 0 135 -57q55 -55 55 -135t-55 -135t-135 -55q-82 0 -137.5 55t-55.5 135z" />
<glyph unicode="&#x134;" horiz-adv-x="968" d="M117 1635l223 264h308l223 -264h-164l-213 161l-213 -161h-164zM-150 -123h130q6 -96 45 -137q41 -45 114 -45q94 0 135 74q39 72 39 280v1323h-217v121h795v-121h-191v-1331q0 -244 -122 -354q-125 -113 -390 -113q-94 0 -168 16q-92 20 -170 52v235z" />
<glyph unicode="&#x135;" horiz-adv-x="739" d="M-58 1262l256 376h242l256 -376h-164l-213 225l-213 -225h-164zM-152 -190h113q4 -84 31 -117q29 -35 96 -35q74 0 102.5 47t28.5 170v1067h-151v121h505v-1188q0 -163 -116 -246q-119 -84 -340 -84q-51 0 -127 11q-59 8 -142 28v226z" />
<glyph unicode="&#x136;" horiz-adv-x="1779" d="M788 -391q80 45 115 94q37 51 37 121v43h215v-4q0 -113 -70 -191q-68 -80 -213 -135zM96 0v121h191v1251h-191v121h768v-121h-192v-545l633 545h-160v121h557v-121h-199l-536 -461l729 -790h147v-121h-506l-665 725v-604h192v-121h-768z" />
<glyph unicode="&#x137;" horiz-adv-x="1417" d="M581 -391q80 45 115 94q37 51 37 121v43h215v-4q0 -113 -70 -191q-68 -80 -213 -135zM70 0v121h151v1315h-151v120h505v-999l429 385h-127v121h485v-121h-197l-274 -246l448 -575h115v-121h-610v121h125l-295 379l-99 -88v-291h134v-121h-639z" />
<glyph unicode="&#x138;" horiz-adv-x="1417" d="M70 0v121h151v817h-151v123h505v-506l429 383h-127v123h485v-123h-197l-274 -244l448 -573h115v-121h-610v121h125l-295 379l-99 -88v-291h134v-121h-639z" />
<glyph unicode="&#x139;" horiz-adv-x="1439" d="M399 1637l182 264h279l-297 -264h-164zM96 0v121h191v1251h-191v121h768v-121h-192v-1235h588v236h135v-373h-1299z" />
<glyph unicode="&#x13a;" horiz-adv-x="776" d="M280 1637l182 264h279l-297 -264h-164zM70 0v121h151v1315h-151v120h505v-1435h152v-121h-657z" />
<glyph unicode="&#x13b;" horiz-adv-x="1439" d="M565 -391q80 45 115 94q37 51 37 121v43h215v-4q0 -113 -70 -191q-68 -80 -213 -135zM96 0v121h191v1251h-191v121h768v-121h-192v-1235h588v236h135v-373h-1299z" />
<glyph unicode="&#x13c;" horiz-adv-x="776" d="M219 -391q80 45 115 94q37 51 37 121v43h215v-4q0 -113 -70 -191q-68 -80 -213 -135zM70 0v121h151v1315h-151v120h505v-1435h152v-121h-657z" />
<glyph unicode="&#x13d;" horiz-adv-x="1439" d="M1046 1117l70 376h278l-184 -376h-164zM96 0v121h191v1251h-191v121h768v-121h-192v-1235h588v236h135v-373h-1299z" />
<glyph unicode="&#x13e;" horiz-adv-x="776" d="M708 1180l70 376h278l-184 -376h-164zM70 0v121h151v1315h-151v120h505v-1435h152v-121h-657z" />
<glyph unicode="&#x13f;" horiz-adv-x="1439" d="M1038 887q0 80 55 135t135 55t135.5 -55t55.5 -135q0 -78 -55.5 -133.5t-135.5 -55.5t-135 55.5t-55 133.5zM96 0v121h191v1251h-191v121h768v-121h-192v-1235h588v236h135v-373h-1299z" />
<glyph unicode="&#x140;" horiz-adv-x="776" d="M674 883q0 80 55 135t135 55t135.5 -55t55.5 -135q0 -78 -55.5 -133.5t-135.5 -55.5t-135 55.5t-55 133.5zM70 0v121h151v1315h-151v120h505v-1435h152v-121h-657z" />
<glyph unicode="&#x141;" horiz-adv-x="1452" d="M16 539l285 168v665h-192v121h768v-121h-191v-434l340 201l70 -117l-410 -244v-641h588v236h135v-373h-1300v121h192v428l-215 -127z" />
<glyph unicode="&#x142;" horiz-adv-x="786" d="M8 662l217 133v641h-151v120h506v-557l155 97l64 -105l-219 -133v-737h151v-121h-657v121h151v532l-155 -96z" />
<glyph unicode="&#x143;" horiz-adv-x="1871" d="M774 1637l182 264h279l-297 -264h-164zM90 0v121h191v1251h-191v121h467l901 -1057v936h-190v121h522v-121h-191v-1372h-262l-915 1079v-958h190v-121h-522z" />
<glyph unicode="&#x144;" horiz-adv-x="1488" d="M498 1215l258 376h279l-373 -376h-164zM70 0v121h151v821h-151v121h505v-150q66 96 146 137.5t207 41.5q178 0 270 -104.5t92 -311.5v-555h152v-121h-635v121h129v565q0 135 -35 188q-33 51 -119 52q-111 0 -157 -78q-49 -80 -50 -250v-477h130v-121h-635z" />
<glyph unicode="&#x145;" horiz-adv-x="1871" d="M665 -391q80 45 115 94q37 51 37 121v43h215v-4q0 -113 -70 -191q-68 -80 -213 -135zM90 0v121h191v1251h-191v121h467l901 -1057v936h-190v121h522v-121h-191v-1372h-262l-915 1079v-958h190v-121h-522z" />
<glyph unicode="&#x146;" horiz-adv-x="1488" d="M575 -391q80 45 115 94q37 51 37 121v43h215v-4q0 -113 -70 -191q-68 -80 -213 -135zM70 0v121h151v821h-151v121h505v-150q66 96 146 137.5t207 41.5q178 0 270 -104.5t92 -311.5v-555h152v-121h-635v121h129v565q0 135 -35 188q-33 51 -119 52q-111 0 -157 -78 q-49 -80 -50 -250v-477h130v-121h-635z" />
<glyph unicode="&#x147;" horiz-adv-x="1871" d="M90 0v121h191v1251h-191v121h467l901 -1057v936h-190v121h522v-121h-191v-1372h-262l-915 1079v-958h190v-121h-522zM543 1899h164l213 -162l213 162h164l-223 -264h-308z" />
<glyph unicode="&#x148;" horiz-adv-x="1488" d="M70 0v121h151v821h-151v121h505v-150q66 96 146 137.5t207 41.5q178 0 270 -104.5t92 -311.5v-555h152v-121h-635v121h129v565q0 135 -35 188q-33 51 -119 52q-111 0 -157 -78q-49 -80 -50 -250v-477h130v-121h-635zM287 1638h164l213 -227l213 227h164l-256 -376h-242z " />
<glyph unicode="&#x149;" horiz-adv-x="2064" d="M94 1069q98 70 140 162q45 100 45 233v56h268q-10 -207 -92 -349q-84 -141 -256 -237zM598 0v121h151v821h-151v121h505v-150q66 96 146 137.5t207 41.5q178 0 270 -104.5t92 -311.5v-555h152v-121h-635v121h129v565q0 135 -35 188q-33 51 -119 52q-111 0 -157 -78 q-49 -80 -50 -250v-477h130v-121h-635z" />
<glyph unicode="&#x14a;" horiz-adv-x="1785" d="M70 0v121h190v1251h-151v121h538v-154q78 94 184 140q102 43 263 43q223 0 339.5 -141.5t116.5 -415.5v-924q0 -244 -123 -354q-125 -113 -391 -113q-92 0 -166 16q-96 20 -172 52v235h133q0 -94 43 -137q45 -45 117 -45q94 0 135 74q39 72 39 280v879q0 248 -49 346 q-47 96 -172 96q-152 0 -225 -127q-72 -125 -72 -401v-721h191v-121h-768z" />
<glyph unicode="&#x14b;" horiz-adv-x="1488" d="M70 0v121h151v821h-151v121h505v-150q66 96 146 137.5t207 41.5q178 0 270 -104.5t92 -311.5v-801q0 -163 -116 -246q-119 -84 -340 -84q-51 0 -127 11q-59 8 -142 28v226h113q4 -84 31 -117q29 -35 96 -35q74 0 102.5 47t28.5 170v811q0 135 -35 188q-33 51 -119 52 q-111 0 -157 -78q-49 -80 -50 -250v-477h130v-121h-635z" />
<glyph unicode="&#x14c;" horiz-adv-x="1783" d="M576 1684v188h630v-188h-630zM86 745q0 360 215 568q217 207 590 207q379 0 592 -205t213 -569.5t-215 -569.5q-213 -205 -590 -205q-379 0 -592 204.5t-213 569.5zM514 745.5q0 -325.5 94 -491.5q92 -162 282.5 -162t285.5 162q92 160 92 491.5t-92 491.5 q-94 162 -285 162t-283 -162q-94 -166 -94 -491.5z" />
<glyph unicode="&#x14d;" horiz-adv-x="1363" d="M369 1374v188h630v-188h-630zM84 532q0 264 159.5 412t440.5 148t440.5 -147.5t159.5 -412.5q0 -261 -160 -411q-158 -150 -440.5 -150t-439.5 150q-160 150 -160 411zM479 532q0 -256 45 -352t160 -96q111 0 158 96q45 92 45 352q0 258 -45 351q-47 96 -158 96 q-113 0 -160 -96q-45 -93 -45 -351z" />
<glyph unicode="&#x14e;" horiz-adv-x="1783" d="M553 1899h123q23 -55 78 -84q57 -29 139 -29q90 0 141 29q55 31 76 84h123q-27 -129 -113 -196.5t-227 -67.5q-143 0 -227 65q-86 68 -113 199zM86 745q0 360 215 568q217 207 590 207q379 0 592 -205t213 -569.5t-215 -569.5q-213 -205 -590 -205q-379 0 -592 204.5 t-213 569.5zM514 745.5q0 -325.5 94 -491.5q92 -162 282.5 -162t285.5 162q92 160 92 491.5t-92 491.5q-94 162 -285 162t-283 -162q-94 -166 -94 -491.5z" />
<glyph unicode="&#x14f;" horiz-adv-x="1363" d="M342 1589h125q6 -72 61 -112q53 -39 155.5 -39t156.5 39q55 41 61 112h125q0 -145 -90 -229q-88 -82 -252 -82q-160 0 -252 82q-86 77 -90 229zM84 532q0 264 159.5 412t440.5 148t440.5 -147.5t159.5 -412.5q0 -261 -160 -411q-158 -150 -440.5 -150t-439.5 150 q-160 150 -160 411zM479 532q0 -256 45 -352t160 -96q111 0 158 96q45 92 45 352q0 258 -45 351q-47 96 -158 96q-113 0 -160 -96q-45 -93 -45 -351z" />
<glyph unicode="&#x150;" horiz-adv-x="1783" d="M645 1635l182 264h279l-297 -264h-164zM977 1635l182 264h279l-297 -264h-164zM86 745q0 360 215 568q217 207 590 207q379 0 592 -205t213 -569.5t-215 -569.5q-213 -205 -590 -205q-379 0 -592 204.5t-213 569.5zM514 745.5q0 -325.5 94 -491.5q92 -162 282.5 -162 t285.5 162q92 160 92 491.5t-92 491.5q-94 162 -285 162t-283 -162q-94 -166 -94 -491.5z" />
<glyph unicode="&#x151;" horiz-adv-x="1363" d="M397 1262l189 376h217l-244 -376h-162zM727 1262l225 376h236l-297 -376h-164zM84 532q0 264 159.5 412t440.5 148t440.5 -147.5t159.5 -412.5q0 -261 -160 -411q-158 -150 -440.5 -150t-439.5 150q-160 150 -160 411zM479 532q0 -256 45 -352t160 -96q111 0 158 96 q45 92 45 352q0 258 -45 351q-47 96 -158 96q-113 0 -160 -96q-45 -93 -45 -351z" />
<glyph unicode="&#x152;" horiz-adv-x="2416" d="M86 748q0 223 84 385q86 166 242 251q104 61 233 84q135 25 346 25h1303v-352h-137v215h-605v-479h367v190h137v-516h-137v190h-367v-604h623v215h137v-352h-1321q-197 0 -342 27q-139 25 -237 82q-156 86 -242 251q-84 163 -84 388zM506 747.5q0 -313.5 133 -471.5 q131 -156 399 -155h127v1251h-127q-264 0 -399 -158q-133 -153 -133 -466.5z" />
<glyph unicode="&#x153;" horiz-adv-x="2103" d="M84 532q0 264 159.5 412t440.5 148q131 0 227 -39q106 -43 174 -117q76 82 168.5 119t210.5 37q260 0 402 -156q139 -156 149 -455h-731v-8q0 -207 62 -299q59 -90 198 -90q115 0 187 61q70 59 90 177h166q-39 -174 -164 -262.5t-336 -88.5q-135 0 -232 39 q-104 43 -170 117q-72 -78 -176 -117t-241 -39q-268 0 -426 151.5t-158 409.5zM479 532q0 -256 45 -352t160 -96q111 0 158 96q45 92 45 352q0 258 -45 351q-47 96 -158 96q-113 0 -160 -96q-45 -93 -45 -351zM1284 600h340q0 211 -39 295t-133 84q-90 0 -129 -82 q-39 -80 -39 -279v-18z" />
<glyph unicode="&#x154;" horiz-adv-x="1701" d="M721 1637l182 264h279l-297 -264h-164zM96 0v121h191v1251h-191v121h852q260 0 401.5 -104.5t141.5 -296.5q0 -158 -100 -246q-106 -92 -304 -117q86 -12 150 -59q59 -45 106 -133l218 -416h153v-121h-491l-238 451q-66 137 -117 178q-47 39 -135 39h-61v-547h192v-121 h-768zM672 788h131q139 0 215 76t76 217.5t-76 214.5q-80 76 -215 76h-131v-584z" />
<glyph unicode="&#x155;" horiz-adv-x="1077" d="M498 1215l258 376h279l-373 -376h-164zM59 942v121h516v-189q53 113 138 164q88 53 209 54q18 0 75 -5q45 -4 103 -12v-317h-113q-6 82 -47 127q-39 41 -115 41q-117 0 -184 -103q-66 -98 -66 -282v-420h193v-121h-698v121h151v821h-162z" />
<glyph unicode="&#x156;" horiz-adv-x="1701" d="M725 -391q80 45 115 94q37 51 37 121v43h215v-4q0 -113 -70 -191q-68 -80 -213 -135zM96 0v121h191v1251h-191v121h852q260 0 401.5 -104.5t141.5 -296.5q0 -158 -100 -246q-106 -92 -304 -117q86 -12 150 -59q59 -45 106 -133l218 -416h153v-121h-491l-238 451 q-66 137 -117 178q-47 39 -135 39h-61v-547h192v-121h-768zM672 788h131q139 0 215 76t76 217.5t-76 214.5q-80 76 -215 76h-131v-584z" />
<glyph unicode="&#x157;" horiz-adv-x="1077" d="M239 -391q80 45 115 94q37 51 37 121v43h215v-4q0 -113 -70 -191q-68 -80 -213 -135zM59 942v121h516v-189q53 113 138 164q88 53 209 54q18 0 75 -5q45 -4 103 -12v-317h-113q-6 82 -47 127q-39 41 -115 41q-117 0 -184 -103q-66 -98 -66 -282v-420h193v-121h-698v121 h151v821h-162z" />
<glyph unicode="&#x158;" horiz-adv-x="1701" d="M96 0v121h191v1251h-191v121h852q260 0 401.5 -104.5t141.5 -296.5q0 -158 -100 -246q-106 -92 -304 -117q86 -12 150 -59q59 -45 106 -133l218 -416h153v-121h-491l-238 451q-66 137 -117 178q-47 39 -135 39h-61v-547h192v-121h-768zM672 788h131q139 0 215 76 t76 217.5t-76 214.5q-80 76 -215 76h-131v-584zM487 1899h164l213 -162l213 162h164l-223 -264h-308z" />
<glyph unicode="&#x159;" horiz-adv-x="1077" d="M59 942v121h516v-189q53 113 138 164q88 53 209 54q18 0 75 -5q45 -4 103 -12v-317h-113q-6 82 -47 127q-39 41 -115 41q-117 0 -184 -103q-66 -98 -66 -282v-420h193v-121h-698v121h151v821h-162zM287 1638h164l213 -227l213 227h164l-256 -376h-242z" />
<glyph unicode="&#x15a;" horiz-adv-x="1478" d="M721 1637l182 264h279l-297 -264h-164zM135 1051q0 223 147.5 346t413.5 123q125 0 273 -23q135 -20 293 -65v-330h-127q-29 154 -127 225q-100 72 -279 72q-147 0 -223 -51.5t-76 -153.5q0 -92 51 -141q51 -47 256 -101l224 -55q211 -53 301 -162q94 -113 94 -303 q0 -227 -156 -344t-459 -117q-147 0 -290 25q-145 25 -293 76v354h127q27 -168 137 -252q106 -82 299 -82q154 0 235.5 59.5t81.5 172.5q0 92 -55 141t-227 92l-224 55q-219 55 -309 156q-88 97 -88 283z" />
<glyph unicode="&#x15b;" horiz-adv-x="1150" d="M498 1215l258 376h279l-373 -376h-164zM88 750q0 172 121 258q117 84 369 84q100 0 200 -15q104 -14 236 -49v-268h-113q-10 109 -77.5 164t-196.5 55q-106 0 -164 -35q-55 -35 -55 -100q0 -51 32 -84q31 -31 115 -53l145 -37q207 -51 289 -131q80 -76 80 -217 q0 -178 -129 -264.5t-399 -86.5q-106 0 -209 15q-125 16 -236 45v297h113q14 -117 90 -180.5t203 -63.5q108 0 166 37q57 37 57 108q0 65 -37 99q-41 39 -141 61l-146 37q-166 40 -239 117q-74 76 -74 207z" />
<glyph unicode="&#x15c;" horiz-adv-x="1478" d="M352 1635l223 264h308l223 -264h-164l-213 161l-213 -161h-164zM135 1051q0 223 147.5 346t413.5 123q125 0 273 -23q135 -20 293 -65v-330h-127q-29 154 -127 225q-100 72 -279 72q-147 0 -223 -51.5t-76 -153.5q0 -92 51 -141q51 -47 256 -101l224 -55 q211 -53 301 -162q94 -113 94 -303q0 -227 -156 -344t-459 -117q-147 0 -290 25q-145 25 -293 76v354h127q27 -168 137 -252q106 -82 299 -82q154 0 235.5 59.5t81.5 172.5q0 92 -55 141t-227 92l-224 55q-219 55 -309 156q-88 97 -88 283z" />
<glyph unicode="&#x15d;" horiz-adv-x="1150" d="M201 1262l256 376h242l256 -376h-164l-213 225l-213 -225h-164zM88 750q0 172 121 258q117 84 369 84q100 0 200 -15q104 -14 236 -49v-268h-113q-10 109 -77.5 164t-196.5 55q-106 0 -164 -35q-55 -35 -55 -100q0 -51 32 -84q31 -31 115 -53l145 -37q207 -51 289 -131 q80 -76 80 -217q0 -178 -129 -264.5t-399 -86.5q-106 0 -209 15q-125 16 -236 45v297h113q14 -117 90 -180.5t203 -63.5q108 0 166 37q57 37 57 108q0 65 -37 99q-41 39 -141 61l-146 37q-166 40 -239 117q-74 76 -74 207z" />
<glyph unicode="&#x15e;" horiz-adv-x="1478" d="M135 1051q0 223 147.5 346t413.5 123q125 0 273 -23q135 -20 293 -65v-330h-127q-29 154 -127 225q-100 72 -279 72q-147 0 -223 -51.5t-76 -153.5q0 -92 51 -141q51 -47 256 -101l224 -55q211 -53 301 -162q94 -113 94 -303q0 -227 -156 -344t-459 -117q-147 0 -290 25 q-145 25 -293 76v354h127q27 -168 137 -252q106 -82 299 -82q154 0 235.5 59.5t81.5 172.5q0 92 -55 141t-227 92l-224 55q-219 55 -309 156q-88 97 -88 283zM489 -219q41 -16 88 -27q39 -8 78 -8q63 0 92 23q31 25 31 69q0 25 -16 62q-14 31 -68 100h127q63 -66 92 -119 q29 -51 29 -106q0 -86 -63.5 -131t-186.5 -45q-47 0 -98 6q-35 4 -105 20v156z" />
<glyph unicode="&#x15f;" horiz-adv-x="1150" d="M88 750q0 172 121 258q117 84 369 84q100 0 200 -15q104 -14 236 -49v-268h-113q-10 109 -77.5 164t-196.5 55q-106 0 -164 -35q-55 -35 -55 -100q0 -51 32 -84q31 -31 115 -53l145 -37q207 -51 289 -131q80 -76 80 -217q0 -178 -129 -264.5t-399 -86.5q-106 0 -209 15 q-125 16 -236 45v297h113q14 -117 90 -180.5t203 -63.5q108 0 166 37q57 37 57 108q0 65 -37 99q-41 39 -141 61l-146 37q-166 40 -239 117q-74 76 -74 207zM328 -219q41 -16 88 -27q39 -8 78 -8q63 0 92 23q31 25 31 69q0 25 -16 62q-14 31 -68 100h127q63 -66 92 -119 q29 -51 29 -106q0 -86 -63.5 -131t-186.5 -45q-47 0 -98 6q-35 4 -105 20v156z" />
<glyph unicode="&#x160;" horiz-adv-x="1478" d="M135 1051q0 223 147.5 346t413.5 123q125 0 273 -23q135 -20 293 -65v-330h-127q-29 154 -127 225q-100 72 -279 72q-147 0 -223 -51.5t-76 -153.5q0 -92 51 -141q51 -47 256 -101l224 -55q211 -53 301 -162q94 -113 94 -303q0 -227 -156 -344t-459 -117q-147 0 -290 25 q-145 25 -293 76v354h127q27 -168 137 -252q106 -82 299 -82q154 0 235.5 59.5t81.5 172.5q0 92 -55 141t-227 92l-224 55q-219 55 -309 156q-88 97 -88 283zM362 1899h164l213 -162l213 162h164l-223 -264h-308z" />
<glyph unicode="&#x161;" horiz-adv-x="1150" d="M88 750q0 172 121 258q117 84 369 84q100 0 200 -15q104 -14 236 -49v-268h-113q-10 109 -77.5 164t-196.5 55q-106 0 -164 -35q-55 -35 -55 -100q0 -51 32 -84q31 -31 115 -53l145 -37q207 -51 289 -131q80 -76 80 -217q0 -178 -129 -264.5t-399 -86.5q-106 0 -209 15 q-125 16 -236 45v297h113q14 -117 90 -180.5t203 -63.5q108 0 166 37q57 37 57 108q0 65 -37 99q-41 39 -141 61l-146 37q-166 40 -239 117q-74 76 -74 207zM201 1638h164l213 -227l213 227h164l-256 -376h-242z" />
<glyph unicode="&#x162;" horiz-adv-x="1523" d="M506 -219q41 -16 88 -27q39 -8 78 -8q63 0 92 23q31 25 31 69q0 25 -16 62q-14 31 -68 100h127q63 -66 92 -119q29 -51 29 -106q0 -86 -63.5 -131t-186.5 -45q-47 0 -98 6q-35 4 -105 20v156zM23 1120v373h1480v-373h-135v236h-412v-1235h199v-121h-784v121h198v1235 h-409v-236h-137z" />
<glyph unicode="&#x163;" horiz-adv-x="944" d="M262 -219q41 -16 88 -27q39 -8 78 -8q63 0 92 23q31 25 31 69q0 25 -16 62q-14 31 -68 100h127q63 -66 92 -119q29 -51 29 -106q0 -86 -63.5 -131t-186.5 -45q-47 0 -98 6q-35 4 -105 20v156zM49 942v121h154v330h354v-330h295v-121h-295v-651q0 -137 22.5 -172t79.5 -35 q63 0 95 43q29 41 32 133h150q-10 -162 -88 -225.5t-270 -63.5q-221 0 -297 68q-78 68 -78 252v651h-154z" />
<glyph unicode="&#x164;" horiz-adv-x="1523" d="M23 1120v373h1480v-373h-135v236h-412v-1235h199v-121h-784v121h198v1235h-409v-236h-137zM391 1899h164l213 -162l213 162h164l-223 -264h-308z" />
<glyph unicode="&#x165;" horiz-adv-x="944" d="M49 942v121h154v330h354v-330h295v-121h-295v-651q0 -137 22.5 -172t79.5 -35q63 0 95 43q29 41 32 133h150q-10 -162 -88 -225.5t-270 -63.5q-221 0 -297 68q-78 68 -78 252v651h-154zM668 1221l70 376h278l-184 -376h-164z" />
<glyph unicode="&#x166;" horiz-adv-x="1523" d="M23 1120v373h1480v-373h-135v236h-412v-504h246v-193h-246v-538h199v-121h-784v121h198v538h-247v193h247v504h-409v-236h-137z" />
<glyph unicode="&#x167;" horiz-adv-x="944" d="M49 942v121h154v330h354v-330h295v-121h-295v-276h184v-193h-184v-182q0 -137 22.5 -172t79.5 -35q63 0 95 43q29 41 32 133h150q-8 -160 -88 -223q-78 -66 -270 -66q-217 0 -297 70q-78 68 -78 250v182h-148v193h148v276h-154z" />
<glyph unicode="&#x168;" horiz-adv-x="1785" d="M586 1635v12q0 123 55 190q53 66 153 66q63 0 142 -39q9 -3 12 -6l72 -33q39 -16 47 -18q25 -4 35 -4q41 0 65.5 24.5t24.5 69.5v4h110v-15q0 -123 -53 -188t-155 -65q-31 0 -68 10q-41 12 -86 35l-57 28q-39 18 -52 21q-25 6 -45 6q-41 0 -65.5 -24.5t-24.5 -69.5v-4 h-110zM70 1372v121h768v-121h-191v-747q0 -279 86 -389q88 -113 299 -113q207 0 293 112.5t86 389.5v747h-190v121h520v-121h-191v-768q0 -342 -147 -487q-150 -145 -498 -146q-344 0 -495 148q-150 147 -150 487v766h-190z" />
<glyph unicode="&#x169;" horiz-adv-x="1488" d="M349 1309v16q0 143 53 221q51 76 155 76q35 0 72 -12q35 -12 82 -43l72 -47l2 -2q45 -29 80 -29q41 0 65 35q25 33 25 96h110v-16q0 -143 -53 -222q-51 -76 -155 -75q-35 0 -72 12q-35 12 -82 43l-72 47h-2q-45 31 -80 31q-41 0 -65 -35q-25 -33 -25 -96h-110zM47 942 v121h506v-621q0 -201 33 -252q35 -53 121 -53q111 0 157 78q49 80 49 252v475h-129v121h484v-942h151v-121h-506v150q-66 -96 -145.5 -137.5t-206.5 -41.5q-178 0 -270 104.5t-92 311.5v555h-152z" />
<glyph unicode="&#x16a;" horiz-adv-x="1785" d="M654 1684v188h630v-188h-630zM70 1372v121h768v-121h-191v-747q0 -279 86 -389q88 -113 299 -113q207 0 293 112.5t86 389.5v747h-190v121h520v-121h-191v-768q0 -342 -147 -487q-150 -145 -498 -146q-344 0 -495 148q-150 147 -150 487v766h-190z" />
<glyph unicode="&#x16b;" horiz-adv-x="1488" d="M416 1374v188h630v-188h-630zM47 942v121h506v-621q0 -201 33 -252q35 -53 121 -53q111 0 157 78q49 80 49 252v475h-129v121h484v-942h151v-121h-506v150q-66 -96 -145.5 -137.5t-206.5 -41.5q-178 0 -270 104.5t-92 311.5v555h-152z" />
<glyph unicode="&#x16c;" horiz-adv-x="1785" d="M604 1899h123q23 -55 78 -84q57 -29 139 -29q90 0 141 29q55 31 76 84h123q-27 -129 -113 -196.5t-227 -67.5q-143 0 -227 65q-86 68 -113 199zM70 1372v121h768v-121h-191v-747q0 -279 86 -389q88 -113 299 -113q207 0 293 112.5t86 389.5v747h-190v121h520v-121h-191 v-768q0 -342 -147 -487q-150 -145 -498 -146q-344 0 -495 148q-150 147 -150 487v766h-190z" />
<glyph unicode="&#x16d;" horiz-adv-x="1488" d="M365 1589h125q6 -72 61 -112q53 -39 155.5 -39t156.5 39q55 41 61 112h125q0 -145 -90 -229q-88 -82 -252 -82q-160 0 -252 82q-86 77 -90 229zM47 942v121h506v-621q0 -201 33 -252q35 -53 121 -53q111 0 157 78q49 80 49 252v475h-129v121h484v-942h151v-121h-506v150 q-66 -96 -145.5 -137.5t-206.5 -41.5q-178 0 -270 104.5t-92 311.5v555h-152z" />
<glyph unicode="&#x16e;" horiz-adv-x="1785" d="M70 1372v121h768v-121h-191v-747q0 -279 86 -389q88 -113 299 -113q207 0 293 112.5t86 389.5v747h-190v121h520v-121h-191v-768q0 -342 -147 -487q-150 -145 -498 -146q-344 0 -495 148q-150 147 -150 487v766h-190zM759 1878q0 117 84 201t201 84t201 -84t84 -201 t-84 -201t-201 -84t-201 84t-84 201zM913 1878q0 -55 39 -92q43 -39 92 -39q55 0 92 39q39 43 39 92q0 53 -39 92t-92 39q-55 0 -92 -39q-39 -43 -39 -92z" />
<glyph unicode="&#x16f;" horiz-adv-x="1488" d="M47 942v121h506v-621q0 -201 33 -252q35 -53 121 -53q111 0 157 78q49 80 49 252v475h-129v121h484v-942h151v-121h-506v150q-66 -96 -145.5 -137.5t-206.5 -41.5q-178 0 -270 104.5t-92 311.5v555h-152zM411 1464q0 117 84 201t201 84t201 -84t84 -201t-84 -201 t-201 -84t-201 84t-84 201zM565 1464q0 -55 39 -92q43 -39 92 -39q55 0 92 39q39 43 39 92q0 53 -39 92t-92 39q-55 0 -92 -39q-39 -43 -39 -92z" />
<glyph unicode="&#x170;" horiz-adv-x="1785" d="M696 1635l182 264h279l-297 -264h-164zM1028 1635l182 264h279l-297 -264h-164zM70 1372v121h768v-121h-191v-747q0 -279 86 -389q88 -113 299 -113q207 0 293 112.5t86 389.5v747h-190v121h520v-121h-191v-768q0 -342 -147 -487q-150 -145 -498 -146q-344 0 -495 148 q-150 147 -150 487v766h-190z" />
<glyph unicode="&#x171;" horiz-adv-x="1488" d="M420 1262l189 376h217l-244 -376h-162zM750 1262l225 376h236l-297 -376h-164zM47 942v121h506v-621q0 -201 33 -252q35 -53 121 -53q111 0 157 78q49 80 49 252v475h-129v121h484v-942h151v-121h-506v150q-66 -96 -145.5 -137.5t-206.5 -41.5q-178 0 -270 104.5 t-92 311.5v555h-152z" />
<glyph unicode="&#x172;" horiz-adv-x="1785" d="M70 1372v121h768v-121h-191v-747q0 -279 86 -389q88 -113 299 -113q207 0 293 112.5t86 389.5v747h-190v121h520v-121h-191v-768q0 -342 -147 -487q-150 -145 -498 -146q-344 0 -495 148q-150 147 -150 487v766h-190zM714 -241q0 51 31 106q29 51 96 119h125 q-53 -70 -69 -102q-18 -37 -19 -66q0 -41 29 -63.5t80 -22.5q45 0 80 8q53 12 78 23v-156q-37 -8 -103 -16q-49 -6 -90 -6q-113 0 -176 47q-62 46 -62 129z" />
<glyph unicode="&#x173;" horiz-adv-x="1488" d="M47 942v121h506v-621q0 -201 33 -252q35 -53 121 -53q111 0 157 78q49 80 49 252v475h-129v121h484v-942h151v-121h-506v150q-66 -96 -145.5 -137.5t-206.5 -41.5q-178 0 -270 104.5t-92 311.5v555h-152zM1058 -225q0 51 31 106q29 51 96 119h125q-53 -70 -69 -102 q-18 -37 -19 -66q0 -41 29 -63.5t80 -22.5q45 0 80 8q53 12 78 23v-156q-37 -8 -103 -16q-49 -6 -90 -6q-113 0 -176 47q-62 46 -62 129z" />
<glyph unicode="&#x174;" horiz-adv-x="2299" d="M776 1643l223 264h308l223 -264h-164l-213 161l-213 -161h-164zM-18 1372v121h708v-121h-160l285 -917l322 1038h284l328 -1055l291 934h-178v121h462v-121h-153l-426 -1372h-258l-338 1087l-338 -1087h-258l-426 1372h-145z" />
<glyph unicode="&#x175;" horiz-adv-x="1761" d="M516 1262l256 376h242l256 -376h-164l-213 225l-213 -225h-164zM-18 942v121h602v-121h-125l196 -575l238 696h211l242 -709l200 588h-139v121h397v-121h-125l-321 -942h-244l-225 666l-227 -666h-242l-322 942h-116z" />
<glyph unicode="&#x176;" horiz-adv-x="1460" d="M354 1643l223 264h308l223 -264h-164l-213 161l-213 -161h-164zM-18 1372v121h716v-121h-166l336 -569l334 569h-149v121h428v-121h-127l-414 -702v-549h201v-121h-789v121h201v497l-444 754h-127z" />
<glyph unicode="&#x177;" horiz-adv-x="1189" d="M229 1262l256 376h242l256 -376h-164l-213 225l-213 -225h-164zM-27 942v121h613v-121h-127l270 -629l252 629h-141v121h399v-121h-129l-471 -1182q-49 -117 -116.5 -166t-182.5 -49q-57 0 -109 11q-68 14 -131 32v222h113q4 -78 37 -115t100.5 -37t104.5 35 q40 37 80 135l16 37l-463 1077h-115z" />
<glyph unicode="&#x178;" horiz-adv-x="1460" d="M-18 1372v121h716v-121h-166l336 -569l334 569h-149v121h428v-121h-127l-414 -702v-549h201v-121h-789v121h201v497l-444 754h-127zM360 1776q0 61 43 104t105 43q59 0 102 -43t43 -104q0 -59 -43 -102.5t-102 -43.5q-61 0 -104.5 43.5t-43.5 102.5zM807 1776 q0 61 43 104t104 43t104.5 -43t43.5 -104q0 -59 -43 -102.5t-105 -43.5q-61 0 -104 43.5t-43 102.5z" />
<glyph unicode="&#x179;" horiz-adv-x="1492" d="M721 1637l182 264h279l-297 -264h-164zM76 0v141l891 1215h-715v-223h-137v360h1296v-141l-881 -1215h754v209h137v-346h-1345z" />
<glyph unicode="&#x17a;" horiz-adv-x="1161" d="M498 1215l258 376h279l-373 -376h-164zM72 0v121l610 825h-459v-182h-119v299h990v-119l-611 -825h492v192h119v-311h-1022z" />
<glyph unicode="&#x17b;" horiz-adv-x="1492" d="M605 1802q0 61 43 104t104 43t104 -43t43 -104q0 -59 -43 -102.5t-104 -43.5t-104 43.5t-43 102.5zM76 0v141l891 1215h-715v-223h-137v360h1296v-141l-881 -1215h754v209h137v-346h-1345z" />
<glyph unicode="&#x17c;" horiz-adv-x="1161" d="M441 1409.5q0 59.5 43 102.5t104 43t104 -43t43 -102.5t-43 -102.5q-45 -45 -104 -45t-104 45q-43 43 -43 102.5zM72 0v121l610 825h-459v-182h-119v299h990v-119l-611 -825h492v192h119v-311h-1022z" />
<glyph unicode="&#x17d;" horiz-adv-x="1492" d="M76 0v141l891 1215h-715v-223h-137v360h1296v-141l-881 -1215h754v209h137v-346h-1345zM371 1899h164l213 -162l213 162h164l-223 -264h-308z" />
<glyph unicode="&#x17e;" horiz-adv-x="1161" d="M72 0v121l610 825h-459v-182h-119v299h990v-119l-611 -825h492v192h119v-311h-1022zM205 1638h164l213 -227l213 227h164l-256 -376h-242z" />
<glyph unicode="&#x17f;" horiz-adv-x="880" d="M63 942v121h158v133q0 176 113 268q114 92 332 92q78 0 165 -10q78 -8 160 -28v-228h-112q-10 82 -45 117q-37 37 -107 37q-80 0 -117 -58q-35 -57 -35 -186v-1079h205v-121h-710v121h151v821h-158z" />
<glyph unicode="&#x180;" horiz-adv-x="1431" d="M41 1196v137h158v103h-152v120h506v-223h358v-137h-358v-268q47 84 121 123q78 41 188 41q227 0 357 -150q131 -154 131 -410q0 -258 -131 -411q-129 -150 -357 -150q-111 0 -188 41q-74 39 -121 123v-135h-506v121h152v1075h-158zM553 479q0 -184 47 -268t154 -84 q111 0 153 88q45 94 45 317q0 225 -45 316q-43 88 -153 88q-109 0 -154 -82q-47 -84 -47 -270v-105z" />
<glyph unicode="&#x181;" horiz-adv-x="1730" d="M-246 1006v358q86 70 320 113q84 16 213 16h694q276 0 410 -92q137 -94 137 -277q0 -135 -94 -211q-96 -78 -281 -98q223 0 344 -121q121 -98 121 -262q0 -223 -168 -328q-166 -104 -524 -104h-830v121h191v1251q-197 0 -264 -90q-70 -90 -70 -276h-199zM672 121h143 q193 0 283 76q92 78 92 235q0 160 -92 240q-90 78 -283 78h-143v-629zM672 870h131q172 0 256 62q82 63 82 192t-80 189q-82 59 -258 59h-131v-502z" />
<glyph unicode="&#x182;" horiz-adv-x="1748" d="M96 0v121h191v1251h-191v121h1450v-373h-135v236h-739v-486h133q481 0 655 -135q176 -135 176 -303q0 -225 -166 -328q-168 -104 -542 -104h-832zM672 121h143q211 0 301 76q92 78 92 235q0 160 -92 240q-90 78 -301 78h-143v-629z" />
<glyph unicode="&#x183;" horiz-adv-x="1431" d="M47 0v121h152v1315h-152v120h1104v-288h-121v168h-477v-508q49 88 121 125q76 39 188 39q227 0 359 -150q129 -152 129 -410q0 -261 -129 -411q-131 -150 -359 -150q-111 0 -188 41q-74 39 -121 123v-135h-506zM553 479q0 -184 47 -268q49 -84 154 -84q109 0 153 88 q45 94 45 317q0 225 -45 316q-45 88 -153 88q-104 0 -154 -82q-47 -84 -47 -270v-105z" />
<glyph unicode="&#x184;" horiz-adv-x="1748" d="M0 834v120l672 539v-623h133q203 0 344 -18q16 0 22 -2q197 -33 342 -152q0 -4 5 -4q119 -98 118 -262q0 -225 -166 -328q-168 -104 -542 -104h-832v121h191v713h-287zM672 121h143q201 0 295 72l2 2q2 2 4 2q92 78 92 235q0 160 -92 240q-90 74 -285 78h-16h-143v-629z " />
<glyph unicode="&#x185;" horiz-adv-x="1431" d="M0 1008v120l553 428v-628q47 84 121 123q78 41 188 41q227 0 357 -150q131 -154 131 -410q0 -258 -131 -411q-129 -150 -357 -150q-111 0 -188 41q-74 39 -121 123v-135h-506v121h152v887h-199zM553 479q0 -184 47 -268t154 -84q111 0 153 88q45 94 45 317q0 225 -45 316 q-43 88 -153 88q-109 0 -154 -82q-47 -84 -47 -270v-105z" />
<glyph unicode="&#x186;" horiz-adv-x="1628" d="M86 1065q59 233 213 344t410 111q381 0 598 -209q219 -209 219 -565.5t-219 -565.5q-217 -209 -598 -209q-132 0 -277 31q-131 29 -305 98v367h127q41 -193 141 -281q106 -94 273 -94q217 0 323 160q106 158 106.5 493.5t-106.5 493.5q-106 160 -325 160q-150 0 -244 -82 t-137 -252h-199z" />
<glyph unicode="&#x187;" horiz-adv-x="1628" d="M86 745q0 360 219 568q215 207 598 207q132 0 277 -31q33 -6 118 -33q18 129 103 197q86 68 186 67q51 0 127 -10q59 -8 141 -29v-225h-112q0 84 -31 117q-29 35 -96 35q-74 0 -102.5 -47.5t-28.5 -169.5v-367h-127q-41 190 -141 283q-104 92 -273 92q-215 0 -323 -162 q-106 -158 -107 -492q0 -336 107 -493q109 -160 325 -160q150 0 244 82t137 252h199q-59 -233 -211 -342q-156 -113 -412 -113q-379 0 -598 209q-219 207 -219 565z" />
<glyph unicode="&#x188;" horiz-adv-x="1245" d="M84 532q0 264 153.5 412t428.5 148q119 0 223 -21v51q0 166 115 248q113 82 219 82q68 0 127 -8q41 -6 141 -31v-223h-113q0 78 -32 115q-27 35 -95 34q-74 0 -102.5 -47t-28.5 -170v-114v-295h-112q-16 139 -78 200q-66 66 -178 66q-147 0 -209 -100q-63 -100 -64 -347 q0 -240 61.5 -344t198.5 -104q106 0 170 63q65 65 80 185h166q-37 -182 -156 -273q-115 -88 -319 -88q-283 0 -440 148q-156 147 -156 413z" />
<glyph unicode="&#x189;" horiz-adv-x="1789" d="M88 713v137h213v522h-192v121h768q397 0 612 -193q213 -190 213 -552q0 -360 -213 -555q-211 -193 -612 -193h-768v121h192v592h-213zM686 121h139q236 0 342.5 149.5t106.5 477.5q0 326 -106.5 475t-342.5 149h-139v-522h332v-137h-332v-592z" />
<glyph unicode="&#x18a;" horiz-adv-x="1775" d="M-246 1006v358q86 70 320 113q84 16 213 16h575q399 0 615 -193q213 -190 213 -552.5t-213 -554.5q-215 -193 -615 -193h-766v121h191v1251q-197 0 -264 -90q-70 -90 -70 -276h-199zM672 121h139q236 0 342 149q109 152 109 478q0 324 -109 475q-106 150 -342 149h-139 v-1251z" />
<glyph unicode="&#x18b;" horiz-adv-x="1748" d="M96 432q0 164 119 262l4 4q145 119 342 152q6 2 23 2q141 18 346 18h131v486h-739v-236h-136v373h1450v-121h-190v-1251h190v-121h-829q-377 0 -543 104q-168 105 -168 328zM524 432q0 -158 92 -235l7 -4q94 -72 295 -72h143v629h-143h-17q-199 0 -285 -78 q-92 -80 -92 -240z" />
<glyph unicode="&#x18c;" horiz-adv-x="1431" d="M47 532q0 260 131 410q129 150 357 150q113 0 188 -39q72 -37 121 -125v508h-477v-168h-121v288h1104v-120h-152v-1315h152v-121h-506v135q-47 -84 -121 -123q-78 -41 -188 -41q-227 0 -357 150q-131 149 -131 411zM444 532q0 -229 45 -317q43 -88 154 -88q106 0 154 84 q47 80 47 268v105q0 190 -47 270q-45 82 -154 82q-111 0 -154 -88q-45 -85 -45 -316z" />
<glyph unicode="&#x18d;" horiz-adv-x="1363" d="M84 530q0 261 160 412q158 150 440.5 150t439.5 -150q160 -151 160 -412q0 -262 -160 -409q-94 -88 -112 -80q164 -96 164 -238q0 -170 -134 -237l-12 -6q-127 -63 -346 -64q-100 0 -223 12q-119 12 -236 37v213h113q6 -37 20 -57q4 -8 56 -45q66 -47 172 -47 q120 0 184 49l33 27q40 34 31 122q0 164 -150 164q-285 0 -440 150q-160 149 -160 409zM481 530q0 -258 45 -350q47 -96 158 -96q113 0 160 96q45 96 45 350q0 256 -45 352.5t-160 96.5q-111 0 -158 -96q-45 -93 -45 -353z" />
<glyph unicode="&#x18e;" horiz-adv-x="1560" d="M96 0v352h137v-215h648v604h-392v-190h-137v516h137v-190h392v479h-629v-215h-137v352h1341v-121h-190v-1251h190v-121h-1360z" />
<glyph unicode="&#x18f;" horiz-adv-x="1783" d="M86 745v84h1180q0 268 -105 408q-109 162 -325 162q-147 0 -244 -84q-94 -82 -137 -252h-199q57 229 213 344q156 113 410 113q379 0 598 -209q219 -207 219 -566q0 -365 -213 -569.5t-592 -204.5t-592 204.5t-213 569.5zM514 670q0 -279 94 -416q100 -162 283 -162 q190 0 285 162q92 141 92 416h-754z" />
<glyph unicode="&#x190;" horiz-adv-x="1476" d="M96 403q0 172 101 279q102 109 286 133q-158 27 -243 113q-82 82 -82 219q0 182 143 276q145 96 492 97q147 0 256 -17q115 -16 256 -53v-299h-121q-16 123 -84 188q-66 63 -238 64q-169 0 -239 -68q-68 -66 -68 -198q0 -131 73.5 -199t340.5 -68h53v-120h-68 q-279 0 -364 -88q-86 -89 -86 -246q0 -160 75.5 -244t268.5 -84q129 0 221 69.5t98 125.5h199q-45 -109 -188 -211q-139 -100 -377 -101q-379 0 -543 111q-162 110 -162 321z" />
<glyph unicode="&#x191;" horiz-adv-x="1452" d="M-176 -123h131q0 -143 98 -174q23 -8 60 -8q96 0 135 76q39 72 39 278v1323h-191v121h1331v-352h-137v215h-616v-479h379v190h137v-516h-137v190h-379v-700q0 -262 -146 -373q-121 -94 -366 -94q-163 0 -338 68v235z" />
<glyph unicode="&#x192;" horiz-adv-x="880" d="M-195 -123h111q0 -4 1 -14t3 -15q12 -59 41 -88q37 -37 109 -36q78 0 114 57q37 59 37 186v975h-158v121h158v133q0 176 113 268q114 92 332 92q78 0 165 -10q78 -8 160 -28v-228h-112q0 4 -1 14.5t-4 14.5q-12 59 -40 88q-37 37 -107 37q-80 0 -117 -58 q-35 -55 -35 -186v-137h267v-121h-267v-971q0 -178 -112 -270q-111 -90 -334 -90q-94 0 -166 8q-57 6 -158 31v227z" />
<glyph unicode="&#x193;" horiz-adv-x="1748" d="M86 745.5q0 362.5 219 567.5q219 207 604 207q236 0 316 -31l125 -53q25 158 100 217q86 68 188 67q51 0 127 -10q59 -8 142 -29v-225h-113q0 80 -33 117q-27 35 -94 35q-74 0 -102.5 -47.5t-28.5 -169.5v-367h-127q-47 199 -149.5 287t-296.5 88q-231 0 -340 -158 t-109 -496q0 -336 104 -495q104 -158 324 -158q86 0 155.5 18.5t131.5 57.5v410h-180v120h538v-573q-180 -82 -336 -117q-170 -37 -342 -37q-385 0 -604 207q-219 205 -219 567.5z" />
<glyph unicode="&#x194;" horiz-adv-x="1576" d="M10 1386v107h680v-107h-55l266 -419l311 419h-198v107h563v-107h-195l-403 -532q563 -762 377 -897q-205 -145 -586 -145q-406 0 -477 200q-66 182 381 699l-479 675h-185zM444 80q3 -151 326 -148q145 2 214 40t60 114q-12 119 -284 510q-318 -387 -316 -516z" />
<glyph unicode="&#x195;" horiz-adv-x="2134" d="M63 1436v120h512v-643q66 96 146 137.5t207 41.5q178 0 270 -107q92 -104 92 -309v-330q0 -225 152 -225q98 0 164 112q61 111 61 297q0 166 -41 256q-53 121 -84 150v43h129q178 -66 280.5 -193t102.5 -272q0 -109 -49 -207t-141 -172q-84 -70 -191 -102 q-102 -35 -231 -35q-506 0 -506 350v338q0 135 -35 188q-33 51 -119 52q-109 0 -157 -78q-49 -80 -50 -250v-477h130v-121h-635v121h151v1315h-158z" />
<glyph unicode="&#x196;" horiz-adv-x="956" d="M96 1372v121h768v-121h-192v-1022q0 -131 39 -190q40 -61 135 -62v-98h-201q-201 0 -237 25q-121 78 -121 313v1034h-191z" />
<glyph unicode="&#x197;" horiz-adv-x="956" d="M39 659v193h248v520h-191v121h768v-121h-192v-520h248v-193h-248v-538h192v-121h-768v121h191v538h-248z" />
<glyph unicode="&#x198;" horiz-adv-x="1779" d="M96 0v121h191v1251h-191v121h768v-121h-192v-545l633 545q135 117 278 121q61 0 129 -8q41 -6 141 -31v-223h-112q0 76 -33 115q-31 37 -94 34q-102 -2 -156 -49l-491 -420l729 -790h147v-121h-506l-665 725v-604h192v-121h-768z" />
<glyph unicode="&#x199;" horiz-adv-x="1417" d="M70 0v121h151v1106q0 162 115 246q119 84 342 83q51 0 127 -10q59 -8 141 -28v-226h-112q0 80 -31 117q-31 35 -96 35q-74 0 -103 -47q-29 -51 -29 -170v-670l429 385h-127v121h485v-121h-197l-274 -246l448 -575h115v-121h-610v121h125l-295 379l-99 -88v-291h134v-121 h-639z" />
<glyph unicode="&#x19a;" horiz-adv-x="776" d="M70 0v121h151v358h-151v121h151v836h-151v120h505v-956h152v-121h-152v-358h152v-121h-657z" />
<glyph unicode="&#x19b;" horiz-adv-x="1435" d="M74 0v121h116l502 989l-420 -252l-61 107l428 256q-70 123 -137 155q-43 23 -131 25q-68 0 -100.5 -37t-37.5 -115h-112v221q76 23 131 31q68 12 108 12q225 0 365 -241l213 127l63 -107l-221 -131l2 -2l447 -1038h123v-121h-400v121h140l-232 579l-305 -579h127v-121 h-608z" />
<glyph unicode="&#x19c;" horiz-adv-x="2166" d="M70 1372v121h632v-121h-127v-932q0 -200 31 -252q31 -51 115 -51q94 0 145.5 72t51.5 207v956h-127v121h608v-121h-127v-932q0 -200 31 -252q31 -51 112 -51q96 0 148 72q53 76 53 207v956h-127v121h631v-121h-152v-1251h152v-121h-504v150q-59 -90 -143 -136 q-80 -43 -191 -43q-131 0 -211 49q-82 51 -125 154q-70 -102 -160 -154q-86 -49 -200 -49q-184 0 -273 103q-92 109 -92 313v985h-151z" />
<glyph unicode="&#x19d;" horiz-adv-x="1871" d="M-182 -123h131q0 -143 98 -174q23 -8 59 -8q98 0 136 76q39 72 39 278v1323h-191v121h467l901 -1057v936h-190v121h522v-121h-191v-1372h-262l-915 1079v-1038q0 -285 -111 -389q-82 -78 -221 -78q-27 0 -100 16q-96 20 -172 52v235z" />
<glyph unicode="&#x19e;" horiz-adv-x="1488" d="M70 0v121h151v821h-151v121h505v-150q66 96 146 137.5t207 41.5q178 0 270 -107q92 -109 92 -309v-981h152v-121h-635v121h129v991q0 135 -35 188q-33 51 -119 52q-109 0 -157 -78q-49 -80 -50 -250v-477h130v-121h-635z" />
<glyph unicode="&#x19f;" horiz-adv-x="1783" d="M86 745q0 360 215 568q217 207 590 207q379 0 592 -205t213 -569.5t-215 -569.5q-213 -205 -590 -205q-379 0 -592 204.5t-213 569.5zM514 670q8 -268 94 -416q92 -162 282.5 -162t285.5 162q82 141 92 416h-754zM516 829h750q-8 264 -90 408q-94 162 -285 162t-283 -162 q-80 -142 -92 -408z" />
<glyph unicode="&#x1a0;" horiz-adv-x="1783" d="M86 745q0 360 215 568q217 207 590 207q379 0 592 -205t213 -569.5t-215 -569.5q-213 -205 -590 -205q-379 0 -592 204.5t-213 569.5zM514 745.5q0 -325.5 94 -491.5q92 -162 282.5 -162t285.5 162q92 160 92 491.5t-92 491.5q-94 162 -285 162t-283 -162 q-94 -166 -94 -491.5zM1382 1247v127q70 -53 103 -70q37 -18 65 -18q41 0 63.5 28.5t22.5 80.5q0 45 -8 79q-12 53 -22 78h155q8 -37 17 -102q6 -49 6 -90q0 -117 -45 -176q-45 -61 -131 -62q-51 0 -107 31t-119 94z" />
<glyph unicode="&#x1a1;" horiz-adv-x="1363" d="M84 532q0 264 159.5 412t440.5 148t440.5 -147.5t159.5 -412.5q0 -261 -160 -411q-158 -150 -440.5 -150t-439.5 150q-160 150 -160 411zM479 532q0 -256 45 -352t160 -96q111 0 158 96q45 92 45 352q0 258 -45 351q-47 96 -158 96q-113 0 -160 -96q-45 -93 -45 -351z M1124 817v127q70 -53 103 -70q37 -18 65 -18q41 0 63.5 28.5t22.5 80.5q0 45 -8 79q-12 53 -22 78h155q8 -37 17 -102q6 -49 6 -90q0 -117 -45 -176q-45 -61 -131 -62q-51 0 -107 31t-119 94z" />
<glyph unicode="&#x1a2;" horiz-adv-x="2457" d="M86 745q0 362 213 568q217 207 592 207q252 0 432 -95q78 31 170 52q74 16 166 16q264 0 389 -113q123 -111 123 -354v-1255h190v-121h-768v121h191v1247q0 209 -39 280q-41 74 -135 74q-76 0 -115 -45q-8 -8 -12 -14q213 -207 213 -568q0 -365 -215 -569 q-213 -205 -590 -205q-379 0 -592 204.5t-213 569.5zM512 745.5q0 -325.5 94 -491.5q92 -162 285 -162q188 0 283 162q94 164 94 491.5t-94 491.5q-94 162 -283 162q-193 0 -285 -162q-94 -166 -94 -491.5z" />
<glyph unicode="&#x1a3;" horiz-adv-x="1931" d="M86 532q0 266 158 412q160 147 440 148q186 0 322 -66q61 16 131 27q76 10 127 10q221 0 340 -84q117 -83 116 -246v-1038h164v-121h-670v121h152v1038q0 123 -28.5 170t-102.5 47q-59 0 -88 -26q137 -145 137 -392q0 -262 -157.5 -411.5t-442.5 -149.5 q-283 0 -440.5 149.5t-157.5 411.5zM479 532.5q0 -251.5 47 -352.5q45 -96 158 -96q111 0 158 96q47 98 47 352q0 258 -45 351q-47 96 -160 96q-111 0 -158 -96q-47 -99 -47 -350.5z" />
<glyph unicode="&#x1a4;" horiz-adv-x="1538" d="M-246 1006v358q86 70 320 113q84 16 213 16h659q250 0 395 -119q147 -117 148 -317q0 -200 -148 -320q-145 -119 -395 -119h-274v-497h241v-121h-817v121h191v1251q-197 0 -264 -90q-70 -90 -70 -276h-199zM672 739h112q129 0 207 86q78 88 78 232q0 141 -78 229 q-78 86 -207 86h-112v-633z" />
<glyph unicode="&#x1a5;" horiz-adv-x="1431" d="M47 -305h152v1427q0 164 114 248q115 82 342 82q68 0 127 -8q41 -6 142 -31v-223h-113q0 80 -31 115q-29 35 -96 34q-74 0 -102.5 -47t-28.5 -170v-194q49 88 121 125q76 39 188 39q227 0 359 -150q129 -152 129 -410q0 -261 -129 -411q-131 -150 -359 -150 q-111 0 -188 41q-74 39 -121 123v-440h164v-121h-670v121zM553 479q0 -184 47 -268q49 -84 154 -84q109 0 153 88q45 94 45 317q0 225 -45 316q-45 88 -153 88q-104 0 -154 -82q-47 -84 -47 -270v-105z" />
<glyph unicode="&#x1a6;" horiz-adv-x="1701" d="M92 0v121h191l4 1251h-191v121h764v-121h-188v-170h276q260 0 401.5 -104.5t141.5 -296.5q0 -158 -100 -246q-106 -92 -304 -117q86 -12 150 -59q61 -47 106 -133l218 -416h153v-121h-491l-238 451q-77 147 -117 178q-47 39 -135 39h-61l-4 -256h192v-121h-768zM672 498 h131q139 0 215 75.5t76 217t-76 215.5q-80 76 -215 75h-131v-583z" />
<glyph unicode="&#x1a7;" horiz-adv-x="1478" d="M135 432q0 193 92 303q94 111 303 162l224 55q205 53 256 101q51 49 51 141q0 100 -76 154q-76 51 -223 51q-178 0 -279 -72q-98 -72 -127 -225h-127v330q158 45 293 65q147 23 273 23q266 0 413.5 -123t147.5 -346q0 -186 -88 -283q-88 -100 -310 -156l-223 -55 q-172 -43 -227 -92t-55 -141q0 -113 81.5 -172.5t235.5 -59.5q193 0 299 82q111 84 137 252h127v-354q-147 -51 -293 -76q-143 -25 -290 -25q-303 0 -459 117t-156 344z" />
<glyph unicode="&#x1a8;" horiz-adv-x="1150" d="M88 322q0 141 80 217q82 80 289 131l145 37q82 23 115 53q33 33 33 84q0 66 -56 100q-57 35 -164 35q-129 0 -196.5 -55.5t-77.5 -163.5h-113v268q113 29 236 47q115 16 201 17q248 0 368 -84q121 -86 121 -258q0 -127 -74 -205q-76 -80 -239 -119l-146 -37 q-100 -23 -141 -61q-37 -34 -37 -99q0 -70 57 -106q61 -39 166 -39q129 0 203 61q76 66 90 183h113v-297q-111 -29 -236 -45q-102 -14 -209 -15q-276 0 -401 84q-127 85 -127 267z" />
<glyph unicode="&#x1a9;" horiz-adv-x="1447" d="M84 0l664 748l-664 745h1227v-332h-123v195h-512l397 -469l-547 -608h662v143h123v-422h-1227z" />
<glyph unicode="&#x1aa;" horiz-adv-x="677" d="M-131 1331q0 223 346 225q129 0 244 -83q72 -53 100 -123q20 18 43 51q29 45 41 123h111q0 -88 -47 -170q-35 -61 -134 -119v-8l-200 -1327q-18 -119 35 -187q43 -57 116 -57q68 0 107 39q35 35 45 115h112v-228q-82 -20 -159 -28q-88 -10 -166 -11q-206 0 -332 92 q-137 100 -113 269l187 1229q-25 -2 -76 -3q-61 0 -111 13q-149 36 -149 188zM0 1346q0 -129 184 -125q20 0 33 2l2 4q18 125 -29 170q-27 27 -59 30q-131 7 -131 -81z" />
<glyph unicode="&#x1ab;" horiz-adv-x="944" d="M49 942v121h154v330h354v-330h295v-121h-295v-651q0 -137 22.5 -172t79.5 -35h277v-209q0 -164 -115 -246q-119 -84 -342 -84q-51 0 -127 11q-59 8 -141 28v226h113q4 -82 32.5 -117t94.5 -35q72 0 102 47q29 47 29 170v96h-4q-221 0 -297 68q-78 68 -78 252v651h-154z " />
<glyph unicode="&#x1ac;" horiz-adv-x="1523" d="M37 1006v358q86 70 319 113q84 16 213 16h934v-373h-135v236h-412v-1235h199v-121h-784v121h198v1235q-209 0 -266 -74q-70 -90 -70 -276h-196z" />
<glyph unicode="&#x1ad;" horiz-adv-x="944" d="M49 942v121h154v164q0 162 114 246q119 84 342 83q51 0 127 -10q59 -8 142 -28v-226h-113q-3 80 -31 117q-31 35 -96 35q-72 0 -102 -47q-29 -45 -29 -170v-164h295v-121h-295v-651q0 -137 22.5 -172t79.5 -35q63 0 95 43q29 41 32 133h150q0 -160 -88 -223 q-78 -66 -270 -66q-217 0 -297 70q-78 68 -78 250v651h-154z" />
<glyph unicode="&#x1ae;" horiz-adv-x="1523" d="M23 1120v373h1480v-373h-135v236h-412v-1307q0 -205 37 -278q41 -76 137 -76q74 0 113 45q39 41 45 137h131v-235q-76 -31 -172 -52q-74 -16 -166 -16q-264 0 -389 113q-123 111 -123 354v1315h-409v-236h-137z" />
<glyph unicode="&#x1af;" horiz-adv-x="1785" d="M76 1372v121h768v-121h-191v-747q0 -279 86 -389q88 -113 299 -113q207 0 293 112.5t86 389.5v747h-190v121h520v-121h-191v-768q0 -342 -147 -487q-150 -145 -498 -146q-344 0 -495 148q-150 147 -150 487v766h-190zM1544 1247v127q70 -53 103 -70q37 -18 65 -18 q41 0 63.5 28.5t22.5 80.5q0 45 -8 79q-12 53 -22 78h155q8 -37 17 -102q6 -49 6 -90q0 -117 -45 -176q-45 -61 -131 -62q-51 0 -107 31t-119 94z" />
<glyph unicode="&#x1b0;" horiz-adv-x="1488" d="M51 942v121h506v-621q0 -201 33 -252q35 -53 121 -53q111 0 157 78q49 80 49 252v475h-129v121h484v-942h151v-121h-506v150q-66 -96 -145.5 -137.5t-206.5 -41.5q-178 0 -270 104.5t-92 311.5v555h-152zM1247 817v127q70 -53 103 -70q37 -18 65 -18q41 0 63.5 28.5 t22.5 80.5q0 45 -8 79q-12 53 -22 78h155q8 -37 17 -102q6 -49 6 -90q0 -117 -45 -176q-45 -61 -131 -62q-51 0 -107 31t-119 94z" />
<glyph unicode="&#x1b1;" horiz-adv-x="1822" d="M92 702q0 223 121 381q123 160 360 252h-333v-125h-138v310h734v-193q-154 -31 -236 -184q-80 -151 -80 -418q0 -297 101 -449q102 -156 290 -155q190 0 293 155q98 154 99 451q0 262 -80 415.5t-236 184.5v193h733v-310h-135v125h-336q238 -92 361 -252 q121 -158 121 -381q0 -313 -225.5 -507.5t-594 -194.5t-594 194.5t-225.5 507.5z" />
<glyph unicode="&#x1b2;" horiz-adv-x="1822" d="M162 1372v121h768v-121h-193v-999q0 -131 39 -191q37 -61 135 -61q193 0 293 155q98 154 99 451q0 264 -80 416q-72 129 -131 129v100h120q244 -88 398 -289q121 -158 121 -381q0 -317 -223.5 -509.5t-596.5 -192.5h-198q-203 0 -240 25q-121 78 -121 313v1034h-190z" />
<glyph unicode="&#x1b3;" horiz-adv-x="1460" d="M-18 1372v121h716v-121h-166l336 -569l334 569q72 123 244 123q47 0 88 -10q53 -8 139 -29v-225h-112q-4 82 -31 115q-31 37 -96 36q-74 0 -103 -47l-391 -665v-549h201v-121h-789v121h201v497l-444 754h-127z" />
<glyph unicode="&#x1b4;" horiz-adv-x="1449" d="M-27 942v121h613v-121h-127l270 -629l252 629q61 150 231 150q23 0 99 -11q59 -8 141 -28v-226h-113q-4 82 -32.5 117t-94.5 35q-82 4 -102 -47l-471 -1172q-49 -117 -116.5 -166t-182.5 -49q-57 0 -109 11q-68 14 -131 32v222h113q4 -78 37 -115t100.5 -37t104.5 35 q40 37 80 135l16 37l-463 1077h-115z" />
<glyph unicode="&#x1b5;" horiz-adv-x="1492" d="M76 0v141l381 518h-224v193h365l369 504h-715v-223h-137v360h1296v-141l-362 -500h241v-193h-381l-379 -522h754v209h137v-346h-1345z" />
<glyph unicode="&#x1b6;" horiz-adv-x="1161" d="M72 0v121l266 358h-152v121h240l256 346h-459v-182h-119v299h990v-119l-254 -344h137v-121h-227l-267 -360h492v192h119v-311h-1022z" />
<glyph unicode="&#x1b7;" horiz-adv-x="1343" d="M72 51v328h121q12 -145 88 -217q76 -74 217 -74q152 0 233 84q84 88 84 240q0 162 -86 250t-246 88h-65v225l264 381h-430v-223h-137v360h979v-137l-365 -516q221 -20 334 -107q160 -119 160 -329.5t-166 -321.5t-479 -111q-123 0 -244 21q-139 24 -262 59z" />
<glyph unicode="&#x1b8;" horiz-adv-x="1343" d="M123 403.5q0 210.5 160 329.5q115 86 331 107l-362 516v137h979v-360h-137v223h-430l264 -381v-225h-66q-160 0 -246 -88.5t-86 -249.5q0 -156 82 -240t236 -84q139 0 217 74q76 72 88 217h121v-328q-123 -35 -262 -59q-121 -20 -244 -21q-313 0 -479 111t-166 321.5z " />
<glyph unicode="&#x1b9;" horiz-adv-x="1343" d="M123 16q0 209 160 330q115 86 331 107l-362 491v119h989v-299h-119v182h-458l264 -358v-226h-66q-160 0 -246 -88q-86 -90 -86 -249q0 -156 82 -240t236 -84q139 0 217 74q76 72 88 217h121v-328q-123 -35 -262 -59q-121 -20 -244 -21q-313 0 -479 110.5t-166 321.5z" />
<glyph unicode="&#x1bb;" horiz-adv-x="1423" d="M137 0v244l221 153q221 154 320 262h-445v193h564q33 98 32 197q0 174 -71 264q-70 90 -209 90q-117 0 -188.5 -71.5t-90.5 -207.5h-120v322q125 37 241 55q121 18 242 19q287 0 444 -115q160 -117 160 -326q0 -125 -63 -227h116v-193h-303q-72 -55 -174 -124l-416 -273 h707v176h137v-438h-1104z" />
<glyph unicode="&#x1bc;" horiz-adv-x="1542" d="M96 1372v121h1331v-352h-137v215h-616v-486q152 0 352 -30q195 -31 291 -133.5t96 -303.5q0 -211 -166 -321.5t-479 -110.5q-123 0 -244 21q-139 25 -262 59v328h121q12 -145 88 -217q78 -74 217 -74q154 0 236 84t82 240q0 162 -86 250t-246 88h-387v622h-191z" />
<glyph unicode="&#x1bd;" horiz-adv-x="1161" d="M70 942v121h1104v-289h-121v168h-480v-459q113 -2 156 -12q266 -53 334 -104q160 -120 160 -351q0 -211 -166 -321.5t-479 -110.5q-123 0 -244 21q-139 25 -262 59v328h121q12 -145 88 -217q76 -74 217 -74q152 0 233 84q84 88 84 240q0 160 -86 249q-86 88 -246 88h-264 v580h-149z" />
<glyph unicode="&#x1be;" horiz-adv-x="1097" d="M45 233h115q2 -80 30.5 -114.5t118.5 -34.5q102 0 127 45q27 51 29 283q4 213 -41 254q-31 31 -105 30h-116v232h-156v121h156v344h354v-344h148v-121h-148v-142q31 -10 117 -84q96 -84 96 -321q0 -227 -96 -318q-100 -94 -359 -94q-70 0 -139 17q-59 14 -127 51z" />
<glyph unicode="&#x1c0;" horiz-adv-x="602" d="M195 0v1493h215v-1493h-215z" />
<glyph unicode="&#x1c1;" horiz-adv-x="1007" d="M195 0v1493h215v-1493h-215zM598 0v1493h215v-1493h-215z" />
<glyph unicode="&#x1c2;" horiz-adv-x="937" d="M18 479v162h344v211h-344v162h344v479h216v-479h344v-162h-344v-211h344v-162h-344v-479h-216v479h-344z" />
<glyph unicode="&#x1c3;" horiz-adv-x="602" d="M195 0v215h215v-215h-215zM195 432v1061h215v-1061h-215z" />
<glyph unicode="&#x1c4;" horiz-adv-x="3270" d="M1852 0v141l891 1215h-715v-223h-137v360h1296v-141l-881 -1215h754v209h137v-346h-1345zM2147 1899h164l213 -162l213 162h164l-223 -264h-308zM96 0v121h191v1251h-191v121h766q399 0 615 -193q213 -190 213 -552q0 -360 -213 -555q-211 -193 -615 -193h-766zM672 121 h139q236 0 342 149q109 152 109 478q0 324 -109 475q-106 150 -342 149h-139v-1251z" />
<glyph unicode="&#x1c5;" horiz-adv-x="2938" d="M1848 0v121l610 825h-459v-182h-119v299h990v-119l-611 -825h492v192h119v-311h-1022zM1981 1638h164l213 -227l213 227h164l-256 -376h-242zM96 0v121h191v1251h-191v121h766q399 0 615 -193q213 -190 213 -552q0 -360 -213 -555q-211 -193 -615 -193h-766zM672 121h139 q236 0 342 149q109 152 109 478q0 324 -109 475q-106 150 -342 149h-139v-1251z" />
<glyph unicode="&#x1c6;" horiz-adv-x="2594" d="M1504 0v121l610 825h-459v-182h-119v299h990v-119l-611 -825h492v192h119v-311h-1022zM1637 1638h164l213 -227l213 227h164l-256 -376h-242zM84 532q0 258 129 410q129 150 356 150q111 0 189 -41q74 -39 121 -123v508h-152v120h506v-1435h151v-121h-505v135 q-47 -84 -121 -123q-78 -41 -189 -41q-227 0 -356 150t-129 411zM479 532q0 -229 45 -317t154 -88q104 0 153 84q47 80 48 268v105q0 190 -48 270q-49 82 -153 82q-109 0 -154 -88q-45 -91 -45 -316z" />
<glyph unicode="&#x1c7;" horiz-adv-x="2408" d="M1290 -123h130q6 -96 45 -137q41 -45 114 -45q94 0 135 74q39 72 39 280v1323h-217v121h795v-121h-191v-1331q0 -244 -122 -354q-125 -113 -390 -113q-94 0 -168 16q-92 20 -170 52v235zM96 0v121h191v1251h-191v121h768v-121h-192v-1235h588v236h135v-373h-1299z" />
<glyph unicode="&#x1c8;" horiz-adv-x="2179" d="M1288 -190h113q4 -84 31 -117q29 -35 96 -35q74 0 102.5 47t28.5 170v1067h-151v121h505v-1188q0 -163 -116 -246q-119 -84 -340 -84q-51 0 -127 11q-59 8 -142 28v226zM1618 1364q0 82 55.5 137t137.5 55q78 0 135 -57q55 -55 55 -135t-55 -135t-135 -55 q-82 0 -137.5 55t-55.5 135zM96 0v121h191v1251h-191v121h768v-121h-192v-1235h588v236h135v-373h-1299z" />
<glyph unicode="&#x1c9;" horiz-adv-x="1517" d="M626 -190h113q4 -84 31 -117q29 -35 96 -35q74 0 102.5 47t28.5 170v1067h-151v121h505v-1188q0 -163 -116 -246q-119 -84 -340 -84q-51 0 -127 11q-59 8 -142 28v226zM956 1364q0 82 55.5 137t137.5 55q78 0 135 -57q55 -55 55 -135t-55 -135t-135 -55q-82 0 -137.5 55 t-55.5 135zM70 0v121h151v1315h-151v120h505v-1435h152v-121h-657z" />
<glyph unicode="&#x1ca;" horiz-adv-x="2840" d="M1722 -123h130q6 -96 45 -137q41 -45 114 -45q94 0 135 74q39 72 39 280v1323h-217v121h795v-121h-191v-1331q0 -244 -122 -354q-125 -113 -390 -113q-94 0 -168 16q-92 20 -170 52v235zM90 0v121h191v1251h-191v121h467l901 -1057v936h-190v121h522v-121h-191v-1372 h-262l-915 1079v-958h190v-121h-522z" />
<glyph unicode="&#x1cb;" horiz-adv-x="2611" d="M1720 -190h113q4 -84 31 -117q29 -35 96 -35q74 0 102.5 47t28.5 170v1067h-151v121h505v-1188q0 -163 -116 -246q-119 -84 -340 -84q-51 0 -127 11q-59 8 -142 28v226zM2050 1364q0 82 55.5 137t137.5 55q78 0 135 -57q55 -55 55 -135t-55 -135t-135 -55 q-82 0 -137.5 55t-55.5 135zM90 0v121h191v1251h-191v121h467l901 -1057v936h-190v121h522v-121h-191v-1372h-262l-915 1079v-958h190v-121h-522z" />
<glyph unicode="&#x1cc;" horiz-adv-x="2228" d="M1337 -190h113q4 -84 31 -117q29 -35 96 -35q74 0 102.5 47t28.5 170v1067h-151v121h505v-1188q0 -163 -116 -246q-119 -84 -340 -84q-51 0 -127 11q-59 8 -142 28v226zM1667 1364q0 82 55.5 137t137.5 55q78 0 135 -57q55 -55 55 -135t-55 -135t-135 -55 q-82 0 -137.5 55t-55.5 135zM70 0v121h151v821h-151v121h505v-150q66 96 146 137.5t207 41.5q178 0 270 -104.5t92 -311.5v-555h152v-121h-635v121h129v565q0 135 -35 188q-33 51 -119 52q-111 0 -157 -78q-49 -80 -50 -250v-477h130v-121h-635z" />
<glyph unicode="&#x1cd;" horiz-adv-x="1587" d="M-16 0v121h122l562 1372h239l563 -1372h142v-121h-699v121h146l-123 305h-561l-125 -305h178v-121h-444zM424 547h463l-230 571zM395 1899h164l213 -162l213 162h164l-223 -264h-308z" />
<glyph unicode="&#x1ce;" horiz-adv-x="1325" d="M84 309q0 180 125 268.5t379 88.5h186v63q0 129 -61.5 190.5t-188.5 61.5q-106 0 -164 -43q-57 -41 -81 -143h-113v229q90 31 196 51q90 16 216 17q287 0 417 -107q133 -109 133 -332v-532h152v-121h-506v135q-74 -88 -156 -125q-84 -39 -196 -39q-162 0 -250 88t-88 250 zM436 338q0 -104 39 -152q41 -49 117 -49q86 0 133 53q49 55 49 144v213h-133q-100 0 -152 -53q-53 -58 -53 -156zM225 1638h164l213 -227l213 227h164l-256 -376h-242z" />
<glyph unicode="&#x1cf;" horiz-adv-x="956" d="M96 0v121h191v1251h-191v121h768v-121h-192v-1251h192v-121h-768zM104 1899h164l213 -162l213 162h164l-223 -264h-308z" />
<glyph unicode="&#x1d0;" horiz-adv-x="776" d="M70 0v121h151v821h-151v121h505v-942h152v-121h-657zM12 1638h164l213 -227l213 227h164l-256 -376h-242z" />
<glyph unicode="&#x1d1;" horiz-adv-x="1783" d="M86 745q0 360 215 568q217 207 590 207q379 0 592 -205t213 -569.5t-215 -569.5q-213 -205 -590 -205q-379 0 -592 204.5t-213 569.5zM514 745.5q0 -325.5 94 -491.5q92 -162 282.5 -162t285.5 162q92 160 92 491.5t-92 491.5q-94 162 -285 162t-283 -162 q-94 -166 -94 -491.5zM518 1899h164l213 -162l213 162h164l-223 -264h-308z" />
<glyph unicode="&#x1d2;" horiz-adv-x="1363" d="M84 532q0 264 159.5 412t440.5 148t440.5 -147.5t159.5 -412.5q0 -261 -160 -411q-158 -150 -440.5 -150t-439.5 150q-160 150 -160 411zM479 532q0 -256 45 -352t160 -96q111 0 158 96q45 92 45 352q0 258 -45 351q-47 96 -158 96q-113 0 -160 -96q-45 -93 -45 -351z M307 1638h164l213 -227l213 227h164l-256 -376h-242z" />
<glyph unicode="&#x1d3;" horiz-adv-x="1785" d="M70 1372v121h768v-121h-191v-747q0 -279 86 -389q88 -113 299 -113q207 0 293 112.5t86 389.5v747h-190v121h520v-121h-191v-768q0 -342 -147 -487q-150 -145 -498 -146q-344 0 -495 148q-150 147 -150 487v766h-190zM567 1899h164l213 -162l213 162h164l-223 -264h-308z " />
<glyph unicode="&#x1d4;" horiz-adv-x="1488" d="M47 942v121h506v-621q0 -201 33 -252q35 -53 121 -53q111 0 157 78q49 80 49 252v475h-129v121h484v-942h151v-121h-506v150q-66 -96 -145.5 -137.5t-206.5 -41.5q-178 0 -270 104.5t-92 311.5v555h-152zM328 1638h164l213 -227l213 227h164l-256 -376h-242z" />
<glyph unicode="&#x1d5;" horiz-adv-x="1785" d="M580 2056v188h630v-188h-630zM70 1372v121h768v-121h-191v-747q0 -279 86 -389q88 -113 299 -113q207 0 293 112.5t86 389.5v747h-190v121h520v-121h-191v-768q0 -342 -147 -487q-150 -145 -498 -146q-344 0 -495 148q-150 147 -150 487v766h-190zM573 1776q0 61 43 104 t105 43q59 0 102 -43t43 -104q0 -59 -43 -102.5t-102 -43.5q-61 0 -104.5 43.5t-43.5 102.5zM1020 1776q0 61 43 104t104 43t104.5 -43t43.5 -104q0 -59 -43 -102.5t-105 -43.5q-61 0 -104 43.5t-43 102.5z" />
<glyph unicode="&#x1d6;" horiz-adv-x="1488" d="M392 1684v188h630v-188h-630zM47 942v121h506v-621q0 -201 33 -252q35 -53 121 -53q111 0 157 78q49 80 49 252v475h-129v121h484v-942h151v-121h-506v150q-66 -96 -145.5 -137.5t-206.5 -41.5q-178 0 -270 104.5t-92 311.5v555h-152zM336 1468.5q0 59.5 43 102.5t105 43 q59 0 102 -43t43 -103q0 -61 -43 -104t-102.5 -43t-104.5 45q-43 43 -43 102.5zM783 1468.5q0 59.5 43 102.5t104 43t104.5 -43t43.5 -102.5t-43 -102.5q-45 -45 -104.5 -45t-104.5 45q-43 43 -43 102.5z" />
<glyph unicode="&#x1d7;" horiz-adv-x="1785" d="M778 1948l182 264h279l-297 -264h-164zM70 1372v121h768v-121h-191v-747q0 -279 86 -389q88 -113 299 -113q207 0 293 112.5t86 389.5v747h-190v121h520v-121h-191v-768q0 -342 -147 -487q-150 -145 -498 -146q-344 0 -495 148q-150 147 -150 487v766h-190zM573 1776 q0 61 43 104t105 43q59 0 102 -43t43 -104q0 -59 -43 -102.5t-102 -43.5q-61 0 -104.5 43.5t-43.5 102.5zM1020 1776q0 61 43 104t104 43t104.5 -43t43.5 -104q0 -59 -43 -102.5t-105 -43.5q-61 0 -104 43.5t-43 102.5z" />
<glyph unicode="&#x1d8;" horiz-adv-x="1488" d="M545 1645l258 376h279l-373 -376h-164zM47 942v121h506v-621q0 -201 33 -252q35 -53 121 -53q111 0 157 78q49 80 49 252v475h-129v121h484v-942h151v-121h-506v150q-66 -96 -145.5 -137.5t-206.5 -41.5q-178 0 -270 104.5t-92 311.5v555h-152zM336 1468.5 q0 59.5 43 102.5t105 43q59 0 102 -43t43 -103q0 -61 -43 -104t-102.5 -43t-104.5 45q-43 43 -43 102.5zM783 1468.5q0 59.5 43 102.5t104 43t104.5 -43t43.5 -102.5t-43 -102.5q-45 -45 -104.5 -45t-104.5 45q-43 43 -43 102.5z" />
<glyph unicode="&#x1d9;" horiz-adv-x="1785" d="M567 2212h164l213 -162l213 162h164l-223 -264h-308zM70 1372v121h768v-121h-191v-747q0 -279 86 -389q88 -113 299 -113q207 0 293 112.5t86 389.5v747h-190v121h520v-121h-191v-768q0 -342 -147 -487q-150 -145 -498 -146q-344 0 -495 148q-150 147 -150 487v766h-190z M573 1776q0 61 43 104t105 43q59 0 102 -43t43 -104q0 -59 -43 -102.5t-102 -43.5q-61 0 -104.5 43.5t-43.5 102.5zM1020 1776q0 61 43 104t104 43t104.5 -43t43.5 -104q0 -59 -43 -102.5t-105 -43.5q-61 0 -104 43.5t-43 102.5z" />
<glyph unicode="&#x1da;" horiz-adv-x="1488" d="M334 2021h164l213 -227l213 227h164l-256 -376h-242zM47 942v121h506v-621q0 -201 33 -252q35 -53 121 -53q111 0 157 78q49 80 49 252v475h-129v121h484v-942h151v-121h-506v150q-66 -96 -145.5 -137.5t-206.5 -41.5q-178 0 -270 104.5t-92 311.5v555h-152zM336 1468.5 q0 59.5 43 102.5t105 43q59 0 102 -43t43 -103q0 -61 -43 -104t-102.5 -43t-104.5 45q-43 43 -43 102.5zM783 1468.5q0 59.5 43 102.5t104 43t104.5 -43t43.5 -102.5t-43 -102.5q-45 -45 -104.5 -45t-104.5 45q-43 43 -43 102.5z" />
<glyph unicode="&#x1db;" horiz-adv-x="1785" d="M649 2212h279l182 -264h-164zM70 1372v121h768v-121h-191v-747q0 -279 86 -389q88 -113 299 -113q207 0 293 112.5t86 389.5v747h-190v121h520v-121h-191v-768q0 -342 -147 -487q-150 -145 -498 -146q-344 0 -495 148q-150 147 -150 487v766h-190zM573 1776q0 61 43 104 t105 43q59 0 102 -43t43 -104q0 -59 -43 -102.5t-102 -43.5q-61 0 -104.5 43.5t-43.5 102.5zM1020 1776q0 61 43 104t104 43t104.5 -43t43.5 -104q0 -59 -43 -102.5t-105 -43.5q-61 0 -104 43.5t-43 102.5z" />
<glyph unicode="&#x1dc;" horiz-adv-x="1488" d="M340 2021h279l258 -376h-164zM47 942v121h506v-621q0 -201 33 -252q35 -53 121 -53q111 0 157 78q49 80 49 252v475h-129v121h484v-942h151v-121h-506v150q-66 -96 -145.5 -137.5t-206.5 -41.5q-178 0 -270 104.5t-92 311.5v555h-152zM336 1468.5q0 59.5 43 102.5t105 43 q59 0 102 -43t43 -103q0 -61 -43 -104t-102.5 -43t-104.5 45q-43 43 -43 102.5zM783 1468.5q0 59.5 43 102.5t104 43t104.5 -43t43.5 -102.5t-43 -102.5q-45 -45 -104.5 -45t-104.5 45q-43 43 -43 102.5z" />
<glyph unicode="&#x1dd;" horiz-adv-x="1302" d="M84 582h731v8q0 205 -61.5 297t-200.5 92q-115 0 -186 -61q-70 -59 -91 -177h-165q43 182 170 267q125 84 358 84q274 0 424 -146q147 -143 147 -416q0 -264 -151 -411q-150 -147 -420 -148q-264 0 -405.5 156t-149.5 455zM473 463q0 -211 39 -295t133 -84q90 0 131 84 q39 80 39 276v19h-342z" />
<glyph unicode="&#x1de;" horiz-adv-x="1587" d="M455 2056v188h630v-188h-630zM-16 0v121h122l562 1372h239l563 -1372h142v-121h-699v121h146l-123 305h-561l-125 -305h178v-121h-444zM424 547h463l-230 571zM401 1776q0 61 43 104t105 43q59 0 102 -43t43 -104q0 -59 -43 -102.5t-102 -43.5q-61 0 -104.5 43.5 t-43.5 102.5zM848 1776q0 61 43 104t104 43t104.5 -43t43.5 -104q0 -59 -43 -102.5t-105 -43.5q-61 0 -104 43.5t-43 102.5z" />
<glyph unicode="&#x1df;" horiz-adv-x="1325" d="M285 1684v188h630v-188h-630zM84 309q0 180 125 268.5t379 88.5h186v63q0 129 -61.5 190.5t-188.5 61.5q-106 0 -164 -43q-57 -41 -81 -143h-113v229q90 31 196 51q90 16 216 17q287 0 417 -107q133 -109 133 -332v-532h152v-121h-506v135q-74 -88 -156 -125 q-84 -39 -196 -39q-162 0 -250 88t-88 250zM436 338q0 -104 39 -152q41 -49 117 -49q86 0 133 53q49 55 49 144v213h-133q-100 0 -152 -53q-53 -58 -53 -156zM229 1468.5q0 59.5 43 102.5t105 43q59 0 102 -43t43 -103q0 -61 -43 -104t-102.5 -43t-104.5 45 q-43 43 -43 102.5zM676 1468.5q0 59.5 43 102.5t104 43t104.5 -43t43.5 -102.5t-43 -102.5q-45 -45 -104.5 -45t-104.5 45q-43 43 -43 102.5z" />
<glyph unicode="&#x1e0;" horiz-adv-x="1587" d="M457 2056v188h630v-188h-630zM625 1841.5q0 59.5 43 102.5t104 43t104 -43t43 -102.5t-43 -102.5q-45 -45 -104 -45t-104 45q-43 43 -43 102.5zM-16 0v121h122l562 1372h239l563 -1372h142v-121h-699v121h146l-123 305h-561l-125 -305h178v-121h-444zM424 547h463 l-230 571z" />
<glyph unicode="&#x1e1;" horiz-adv-x="1325" d="M285 1684v188h630v-188h-630zM453 1468.5q0 59.5 43 102.5t104 43t104 -43t43 -102.5t-43 -102.5q-45 -45 -104 -45t-104 45q-43 43 -43 102.5zM84 309q0 180 125 268.5t379 88.5h186v63q0 129 -61.5 190.5t-188.5 61.5q-106 0 -164 -43q-57 -41 -81 -143h-113v229 q90 31 196 51q90 16 216 17q287 0 417 -107q133 -109 133 -332v-532h152v-121h-506v135q-74 -88 -156 -125q-84 -39 -196 -39q-162 0 -250 88t-88 250zM436 338q0 -104 39 -152q41 -49 117 -49q86 0 133 53q49 55 49 144v213h-133q-100 0 -152 -53q-53 -58 -53 -156z" />
<glyph unicode="&#x1e2;" horiz-adv-x="2117" d="M904 1684v188h630v-188h-630zM-63 0v121h114l592 1251h-201v121h1551v-352h-138v215h-602v-479h367v190h135v-516h-135v190h-367v-604h623v215h135v-352h-1335v121h190v303h-522l-143 -303h164v-121h-428zM401 545h465v827h-75z" />
<glyph unicode="&#x1e3;" horiz-adv-x="1996" d="M648 1374v188h630v-188h-630zM84 309q0 180 127 268.5t387 88.5h186v63q0 115 -71 182q-70 68 -193 68q-102 0 -159.5 -43t-81.5 -141h-113v229q90 31 196 51q90 16 216 17q139 0 235 -39q100 -41 162 -117q76 76 170 117q90 39 203 39q262 0 403 -154q141 -156 152 -457 h-732v-8q0 -205 61.5 -297t201.5 -92q114 0 184 61q70 59 90 177h168q-43 -182 -170 -267q-125 -84 -358 -84q-135 0 -238 39q-111 43 -182 117q-88 -76 -195 -117q-102 -39 -229 -39q-206 0 -314 86q-106 86 -106 252zM436 324q0 -113 39 -160q40 -49 129 -49q88 0 133 55 q47 57 47 160v217h-133q-111 0 -162 -55q-53 -57 -53 -168zM1171 600h342q0 211 -38.5 295t-133.5 84q-92 0 -131 -82q-39 -80 -39 -279v-18z" />
<glyph unicode="&#x1e4;" horiz-adv-x="1832" d="M86 745.5q0 360.5 219 567.5t604 207q162 0 316 -31q141 -29 311 -98v-367h-127q-47 199 -149.5 287t-296.5 88q-231 0 -340 -158t-109 -496q0 -336 104 -495q102 -158 324 -158q86 0 155.5 18.5t131.5 57.5v143h-369v119h369v148h-180v120h538v-268h199v-119h-199v-186 q-184 -84 -336 -117q-170 -37 -342 -37q-385 0 -604 207t-219 567.5z" />
<glyph unicode="&#x1e5;" horiz-adv-x="1431" d="M84 532q0 258 129 410q129 150 356 150q111 0 189 -41q74 -39 121 -123v135h505v-121h-151v-346h151v-121h-151v-461q0 -223 -160 -346t-450 -123q-100 0 -215 17q-111 16 -224 49v254h113q16 -104 84 -156q70 -51 199 -51q166 0 231 78q68 80 68 278v121 q-47 -84 -121 -123q-78 -41 -189 -41q-227 0 -356 150t-129 411zM479 532q0 -229 45 -317t154 -88q104 0 153 84q47 84 48 264h-207v121h207q-4 182 -48 258q-49 82 -153 82q-109 0 -154 -88q-45 -91 -45 -316z" />
<glyph unicode="&#x1e6;" horiz-adv-x="1748" d="M532 1899h164l213 -162l213 162h164l-223 -264h-308zM86 745.5q0 360.5 219 567.5t604 207q162 0 316 -31q141 -29 311 -98v-367h-127q-47 199 -149.5 287t-296.5 88q-231 0 -340 -158t-109 -496q0 -336 104 -495q102 -158 324 -158q86 0 155.5 18.5t131.5 57.5v410h-180 v120h538v-573q-184 -84 -336 -117q-170 -37 -342 -37q-385 0 -604 207t-219 567.5z" />
<glyph unicode="&#x1e7;" horiz-adv-x="1431" d="M303 1638h164l213 -227l213 227h164l-256 -376h-242zM84 532q0 258 129 410q129 150 356 150q111 0 189 -41q74 -39 121 -123v135h505v-121h-151v-928q0 -223 -160 -346t-450 -123q-100 0 -215 17q-111 16 -224 49v254h113q16 -104 84 -156q70 -51 199 -51q166 0 231 78 q68 80 68 278v121q-47 -84 -121 -123q-78 -41 -189 -41q-227 0 -356 150t-129 411zM479 532q0 -229 45 -317t154 -88q104 0 153 84q47 80 48 268v105q0 190 -48 270q-49 82 -153 82q-109 0 -154 -88q-45 -91 -45 -316z" />
<glyph unicode="&#x1e8;" horiz-adv-x="1779" d="M653 1899h164l213 -162l213 162h164l-223 -264h-308zM96 0v121h191v1251h-191v121h768v-121h-192v-545l633 545h-160v121h557v-121h-199l-536 -461l729 -790h147v-121h-506l-665 725v-604h192v-121h-768z" />
<glyph unicode="&#x1e9;" horiz-adv-x="1417" d="M-49 1899h164l213 -162l213 162h164l-223 -264h-308zM70 0v121h151v1315h-151v120h505v-999l429 385h-127v121h485v-121h-197l-274 -246l448 -575h115v-121h-610v121h125l-295 379l-99 -88v-291h134v-121h-639z" />
<glyph unicode="&#x1ea;" horiz-adv-x="1783" d="M702 -241q0 51 31 106q29 51 96 119h125q-53 -70 -69 -102q-18 -37 -19 -66q0 -41 29 -63.5t80 -22.5q45 0 80 8q53 12 78 23v-156q-37 -8 -103 -16q-49 -6 -90 -6q-113 0 -176 47q-62 46 -62 129zM86 745q0 360 215 568q217 207 590 207q379 0 592 -205t213 -569.5 t-215 -569.5q-213 -205 -590 -205q-379 0 -592 204.5t-213 569.5zM514 745.5q0 -325.5 94 -491.5q92 -162 282.5 -162t285.5 162q92 160 92 491.5t-92 491.5q-94 162 -285 162t-283 -162q-94 -166 -94 -491.5z" />
<glyph unicode="&#x1eb;" horiz-adv-x="1363" d="M495 -241q0 51 31 106q29 51 96 119h125q-53 -70 -69 -102q-18 -37 -19 -66q0 -41 29 -63.5t80 -22.5q45 0 80 8q53 12 78 23v-156q-37 -8 -103 -16q-49 -6 -90 -6q-113 0 -176 47q-62 46 -62 129zM84 532q0 264 159.5 412t440.5 148t440.5 -147.5t159.5 -412.5 q0 -261 -160 -411q-158 -150 -440.5 -150t-439.5 150q-160 150 -160 411zM479 532q0 -256 45 -352t160 -96q111 0 158 96q45 92 45 352q0 258 -45 351q-47 96 -158 96q-113 0 -160 -96q-45 -93 -45 -351z" />
<glyph unicode="&#x1ec;" horiz-adv-x="1783" d="M576 1684v188h630v-188h-630zM702 -241q0 51 31 106q29 51 96 119h125q-53 -70 -69 -102q-18 -37 -19 -66q0 -41 29 -63.5t80 -22.5q45 0 80 8q53 12 78 23v-156q-37 -8 -103 -16q-49 -6 -90 -6q-113 0 -176 47q-62 46 -62 129zM86 745q0 360 215 568q217 207 590 207 q379 0 592 -205t213 -569.5t-215 -569.5q-213 -205 -590 -205q-379 0 -592 204.5t-213 569.5zM514 745.5q0 -325.5 94 -491.5q92 -162 282.5 -162t285.5 162q92 160 92 491.5t-92 491.5q-94 162 -285 162t-283 -162q-94 -166 -94 -491.5z" />
<glyph unicode="&#x1ed;" horiz-adv-x="1363" d="M369 1374v188h630v-188h-630zM495 -241q0 51 31 106q29 51 96 119h125q-53 -70 -69 -102q-18 -37 -19 -66q0 -41 29 -63.5t80 -22.5q45 0 80 8q53 12 78 23v-156q-37 -8 -103 -16q-49 -6 -90 -6q-113 0 -176 47q-62 46 -62 129zM84 532q0 264 159.5 412t440.5 148 t440.5 -147.5t159.5 -412.5q0 -261 -160 -411q-158 -150 -440.5 -150t-439.5 150q-160 150 -160 411zM479 532q0 -256 45 -352t160 -96q111 0 158 96q45 92 45 352q0 258 -45 351q-47 96 -158 96q-113 0 -160 -96q-45 -93 -45 -351z" />
<glyph unicode="&#x1ee;" horiz-adv-x="1343" d="M280 1899h164l213 -162l213 162h164l-223 -264h-308zM72 51v328h121q12 -145 88 -217q76 -74 217 -74q152 0 233 84q84 88 84 240q0 162 -86 250t-246 88h-65v225l264 381h-430v-223h-137v360h979v-137l-365 -516q221 -20 334 -107q160 -119 160 -329.5t-166 -321.5 t-479 -111q-123 0 -244 21q-139 24 -262 59z" />
<glyph unicode="&#x1ef;" horiz-adv-x="1161" d="M207 1638h164l213 -227l213 227h164l-256 -376h-242zM72 -8h121q12 -145 88 -217q76 -74 217 -74q152 0 233 84q84 88 84 240q0 160 -86 249q-86 88 -246 88h-65v226l264 358h-459v-182h-119v299h990v-119l-365 -491q221 -20 334 -107q160 -121 160 -330 q0 -211 -166 -321.5t-479 -110.5q-123 0 -244 21q-139 25 -262 59v328z" />
<glyph unicode="&#x1f0;" horiz-adv-x="776" d="M-152 -190h113q4 -84 31 -117q29 -35 96 -35q74 0 102.5 47t28.5 170v1067h-151v121h505v-1188q0 -163 -116 -246q-119 -84 -340 -84q-51 0 -127 11q-59 8 -142 28v226zM12 1638h164l213 -227l213 227h164l-256 -376h-242z" />
<glyph unicode="&#x1f1;" horiz-adv-x="3270" d="M1852 0v141l891 1215h-715v-223h-137v360h1296v-141l-881 -1215h754v209h137v-346h-1345zM96 0v121h191v1251h-191v121h766q399 0 615 -193q213 -190 213 -552q0 -360 -213 -555q-211 -193 -615 -193h-766zM672 121h139q236 0 342 149q109 152 109 478q0 324 -109 475 q-106 150 -342 149h-139v-1251z" />
<glyph unicode="&#x1f2;" horiz-adv-x="2938" d="M1848 0v121l610 825h-459v-182h-119v299h990v-119l-611 -825h492v192h119v-311h-1022zM96 0v121h191v1251h-191v121h766q399 0 615 -193q213 -190 213 -552q0 -360 -213 -555q-211 -193 -615 -193h-766zM672 121h139q236 0 342 149q109 152 109 478q0 324 -109 475 q-106 150 -342 149h-139v-1251z" />
<glyph unicode="&#x1f3;" horiz-adv-x="2594" d="M1504 0v121l610 825h-459v-182h-119v299h990v-119l-611 -825h492v192h119v-311h-1022zM84 532q0 258 129 410q129 150 356 150q111 0 189 -41q74 -39 121 -123v508h-152v120h506v-1435h151v-121h-505v135q-47 -84 -121 -123q-78 -41 -189 -41q-227 0 -356 150t-129 411z M479 532q0 -229 45 -317t154 -88q104 0 153 84q47 80 48 268v105q0 190 -48 270q-49 82 -153 82q-109 0 -154 -88q-45 -91 -45 -316z" />
<glyph unicode="&#x1f4;" horiz-adv-x="1748" d="M743 1637l182 264h279l-297 -264h-164zM86 745.5q0 360.5 219 567.5t604 207q162 0 316 -31q141 -29 311 -98v-367h-127q-47 199 -149.5 287t-296.5 88q-231 0 -340 -158t-109 -496q0 -336 104 -495q102 -158 324 -158q86 0 155.5 18.5t131.5 57.5v410h-180v120h538v-573 q-184 -84 -336 -117q-170 -37 -342 -37q-385 0 -604 207t-219 567.5z" />
<glyph unicode="&#x1f5;" horiz-adv-x="1431" d="M514 1262l258 376h279l-373 -376h-164zM84 532q0 258 129 410q129 150 356 150q111 0 189 -41q74 -39 121 -123v135h505v-121h-151v-928q0 -223 -160 -346t-450 -123q-100 0 -215 17q-111 16 -224 49v254h113q16 -104 84 -156q70 -51 199 -51q166 0 231 78q68 80 68 278 v121q-47 -84 -121 -123q-78 -41 -189 -41q-227 0 -356 150t-129 411zM479 532q0 -229 45 -317t154 -88q104 0 153 84q47 80 48 268v105q0 190 -48 270q-49 82 -153 82q-109 0 -154 -88q-45 -91 -45 -316z" />
<glyph unicode="&#x1f6;" horiz-adv-x="2500" d="M96 0v121h191v1251h-191v121h768v-121h-192v-502h594v502h-191v121h768v-121h-192v-747q0 -328 51 -392q88 -111 242 -110q176 0 262 112.5t86 389.5v317h-191v121h330v-459q0 -342 -147 -487q-152 -145 -467 -146q-309 0 -441 148q-111 123 -110 485v129h-594v-612h192 v-121h-768z" />
<glyph unicode="&#x1f8;" horiz-adv-x="1871" d="M629 1899h279l182 -264h-164zM90 0v121h191v1251h-191v121h467l901 -1057v936h-190v121h522v-121h-191v-1372h-262l-915 1079v-958h190v-121h-522z" />
<glyph unicode="&#x1f9;" horiz-adv-x="1488" d="M295 1638h279l258 -376h-164zM70 0v121h151v821h-151v121h505v-150q66 96 146 137.5t207 41.5q178 0 270 -104.5t92 -311.5v-555h152v-121h-635v121h129v565q0 135 -35 188q-33 51 -119 52q-111 0 -157 -78q-49 -80 -50 -250v-477h130v-121h-635z" />
<glyph unicode="&#x1fa;" horiz-adv-x="1587" d="M-16 0v121h122l463 1126q-20 20 -32 49q-33 66 -33 134q0 117 84 200q70 70 155 82l131 189h279l-240 -213q33 -16 76 -58q84 -84 84 -200q0 -74 -31 -134q-18 -33 -34 -49l462 -1126h142v-121h-699v121h146l-123 305h-561l-125 -305h178v-121h-444zM424 547h463 l-228 571zM657 1429.5q0 -53.5 39 -92.5t92.5 -39t92.5 39t39 92.5t-39 92.5t-92.5 39t-92.5 -39t-39 -92.5z" />
<glyph unicode="&#x1fb;" horiz-adv-x="1325" d="M84 309q0 180 125 268.5t379 88.5h186v63q0 129 -61.5 190.5t-188.5 61.5q-106 0 -164 -43q-57 -41 -81 -143h-113v229q90 31 196 51q90 16 216 17q287 0 417 -107q133 -109 133 -332v-532h152v-121h-506v135q-74 -88 -156 -125q-84 -39 -196 -39q-162 0 -250 88t-88 250 zM315 1430q0 121 82 202q68 68 158 80l131 189h279l-240 -213q43 -23 78 -56q82 -82 82 -202q0 -117 -84 -201t-201 -84t-201 84t-84 201zM436 338q0 -104 39 -152q41 -49 117 -49q86 0 133 53q49 55 49 144v213h-133q-100 0 -152 -53q-53 -58 -53 -156zM469 1430 q0 -55 39 -93q43 -39 92 -39q55 0 92 39q39 43 39 93q0 53 -39 92t-92 39q-55 0 -92 -39q-39 -43 -39 -92z" />
<glyph unicode="&#x1fc;" horiz-adv-x="2117" d="M1048 1637l182 264h279l-297 -264h-164zM-63 0v121h114l592 1251h-201v121h1551v-352h-138v215h-602v-479h367v190h135v-516h-135v190h-367v-604h623v215h135v-352h-1335v121h190v303h-522l-143 -303h164v-121h-428zM401 545h465v827h-75z" />
<glyph unicode="&#x1fd;" horiz-adv-x="1996" d="M811 1262l258 376h279l-373 -376h-164zM84 309q0 180 127 268.5t387 88.5h186v63q0 115 -71 182q-70 68 -193 68q-102 0 -159.5 -43t-81.5 -141h-113v229q90 31 196 51q90 16 216 17q139 0 235 -39q100 -41 162 -117q76 76 170 117q90 39 203 39q262 0 403 -154 q141 -156 152 -457h-732v-8q0 -205 61.5 -297t201.5 -92q114 0 184 61q70 59 90 177h168q-43 -182 -170 -267q-125 -84 -358 -84q-135 0 -238 39q-111 43 -182 117q-88 -76 -195 -117q-102 -39 -229 -39q-206 0 -314 86q-106 86 -106 252zM436 324q0 -113 39 -160 q40 -49 129 -49q88 0 133 55q47 57 47 160v217h-133q-111 0 -162 -55q-53 -57 -53 -168zM1171 600h342q0 211 -38.5 295t-133.5 84q-92 0 -131 -82q-39 -80 -39 -279v-18z" />
<glyph unicode="&#x1fe;" horiz-adv-x="1783" d="M721 1637l182 264h279l-297 -264h-164zM68 12l200 201q-90 98 -137 236q-45 129 -45 296q0 360 215 568q217 207 590 207q164 0 293 -39q139 -41 237 -115l203 203l90 -90l-198 -199q88 -104 135 -238q45 -129 45 -297q0 -365 -215 -569q-213 -205 -590 -205 q-162 0 -291 39t-238 117l-204 -205zM514 745q0 -100 4 -143q8 -82 17 -123l677 678q-43 119 -125 180q-84 61 -196 62q-190 0 -283 -162q-94 -166 -94 -492zM571 334q45 -121 125 -182q78 -59 195 -60q195 0 287 166t92 526q0 66 -6 115q-6 53 -19 94z" />
<glyph unicode="&#x1ff;" horiz-adv-x="1363" d="M518 1262l258 376h279l-373 -376h-164zM51 -16l164 163q-63 72 -98 172q-33 92 -33 213q0 264 159.5 412t440.5 148q115 0 211 -25q95 -25 166 -74l168 168l86 -86l-164 -162q68 -74 100 -168q33 -92 33 -213q0 -261 -160 -411q-158 -150 -440 -150q-113 0 -205 24.5 t-172 74.5l-172 -172zM481 416l387 385q-20 96 -61 135q-46 43 -123 43q-109 0 -156 -96q-47 -98 -47 -330v-137zM500 262q16 -90 61 -133q49 -45 123 -45q111 0 156 94q45 92 45 330v141z" />
<glyph unicode="&#x200;" horiz-adv-x="1587" d="M286 1905h279l182 -264h-164zM618 1905h279l182 -264h-164zM-16 0v121h122l562 1372h239l563 -1372h142v-121h-699v121h146l-123 305h-561l-125 -305h178v-121h-444zM424 547h463l-230 571z" />
<glyph unicode="&#x201;" horiz-adv-x="1325" d="M121 1638h235l226 -376h-164zM506 1638h217l188 -376h-161zM84 309q0 180 125 268.5t379 88.5h186v63q0 129 -61.5 190.5t-188.5 61.5q-106 0 -164 -43q-57 -41 -81 -143h-113v229q90 31 196 51q90 16 216 17q287 0 417 -107q133 -109 133 -332v-532h152v-121h-506v135 q-74 -88 -156 -125q-84 -39 -196 -39q-162 0 -250 88t-88 250zM436 338q0 -104 39 -152q41 -49 117 -49q86 0 133 53q49 55 49 144v213h-133q-100 0 -152 -53q-53 -58 -53 -156z" />
<glyph unicode="&#x202;" horiz-adv-x="1587" d="M430 1651q0 145 90 229q88 82 252 82q158 0 250 -82q90 -80 92 -229h-127q-6 72 -61 113q-53 39 -154 39q-102 0 -156 -39q-55 -41 -61 -113h-125zM-16 0v121h122l562 1372h239l563 -1372h142v-121h-699v121h146l-123 305h-561l-125 -305h178v-121h-444zM424 547h463 l-230 571z" />
<glyph unicode="&#x203;" horiz-adv-x="1325" d="M258 1278q0 145 90 229q88 82 252 82q158 0 250 -82q90 -80 92 -229h-127q-6 72 -61 113q-53 39 -154 39q-102 0 -156 -39q-55 -41 -61 -113h-125zM84 309q0 180 125 268.5t379 88.5h186v63q0 129 -61.5 190.5t-188.5 61.5q-106 0 -164 -43q-57 -41 -81 -143h-113v229 q90 31 196 51q90 16 216 17q287 0 417 -107q133 -109 133 -332v-532h152v-121h-506v135q-74 -88 -156 -125q-84 -39 -196 -39q-162 0 -250 88t-88 250zM436 338q0 -104 39 -152q41 -49 117 -49q86 0 133 53q49 55 49 144v213h-133q-100 0 -152 -53q-53 -58 -53 -156z" />
<glyph unicode="&#x204;" horiz-adv-x="1560" d="M336 1905h279l182 -264h-164zM668 1905h279l182 -264h-164zM96 0v121h191v1251h-191v121h1342v-352h-138v215h-628v-479h391v190h137v-516h-137v190h-391v-604h647v215h137v-352h-1360z" />
<glyph unicode="&#x205;" horiz-adv-x="1302" d="M172 1638h235l226 -376h-164zM557 1638h217l188 -376h-161zM84 532q0 264 152 412q150 147 419 148q264 0 405.5 -156t149.5 -455h-731v-8q0 -205 61.5 -297t200.5 -92q115 0 187 61q70 59 90 177h166q-43 -182 -170 -267q-125 -84 -359 -84q-274 0 -424 146 q-147 145 -147 415zM479 600h342q0 211 -39 295t-133 84q-92 0 -131 -82q-39 -80 -39 -279v-18z" />
<glyph unicode="&#x206;" horiz-adv-x="1560" d="M473 1651q0 145 90 229q88 82 252 82q158 0 250 -82q90 -80 92 -229h-127q-6 72 -61 113q-53 39 -154 39q-102 0 -156 -39q-55 -41 -61 -113h-125zM96 0v121h191v1251h-191v121h1342v-352h-138v215h-628v-479h391v190h137v-516h-137v190h-391v-604h647v215h137v-352 h-1360z" />
<glyph unicode="&#x207;" horiz-adv-x="1302" d="M309 1278q0 145 90 229q88 82 252 82q158 0 250 -82q90 -80 92 -229h-127q-6 72 -61 113q-53 39 -154 39q-102 0 -156 -39q-55 -41 -61 -113h-125zM84 532q0 264 152 412q150 147 419 148q264 0 405.5 -156t149.5 -455h-731v-8q0 -205 61.5 -297t200.5 -92q115 0 187 61 q70 59 90 177h166q-43 -182 -170 -267q-125 -84 -359 -84q-274 0 -424 146q-147 145 -147 415zM479 600h342q0 211 -39 295t-133 84q-92 0 -131 -82q-39 -80 -39 -279v-18z" />
<glyph unicode="&#x208;" horiz-adv-x="956" d="M4 1905h279l182 -264h-164zM336 1905h279l182 -264h-164zM96 0v121h191v1251h-191v121h768v-121h-192v-1251h192v-121h-768z" />
<glyph unicode="&#x209;" horiz-adv-x="776" d="M70 0v121h151v821h-151v121h505v-942h152v-121h-657zM-96 1640h235l226 -376h-164zM289 1640h217l188 -376h-161z" />
<glyph unicode="&#x20a;" horiz-adv-x="956" d="M137 1651q0 145 90 229q88 82 252 82q158 0 250 -82q90 -80 92 -229h-127q-6 72 -61 113q-53 39 -154 39q-102 0 -156 -39q-55 -41 -61 -113h-125zM96 0v121h191v1251h-191v121h768v-121h-192v-1251h192v-121h-768z" />
<glyph unicode="&#x20b;" horiz-adv-x="776" d="M70 0v121h151v821h-151v121h505v-942h152v-121h-657zM41 1260q0 145 90 229q88 82 252 82q158 0 250 -82q90 -80 92 -229h-127q-6 72 -61 113q-53 39 -154 39q-102 0 -156 -39q-55 -41 -61 -113h-125z" />
<glyph unicode="&#x20c;" horiz-adv-x="1783" d="M416 1905h279l182 -264h-164zM748 1905h279l182 -264h-164zM86 745q0 360 215 568q217 207 590 207q379 0 592 -205t213 -569.5t-215 -569.5q-213 -205 -590 -205q-379 0 -592 204.5t-213 569.5zM514 745.5q0 -325.5 94 -491.5q92 -162 282.5 -162t285.5 162 q92 160 92 491.5t-92 491.5q-94 162 -285 162t-283 -162q-94 -166 -94 -491.5z" />
<glyph unicode="&#x20d;" horiz-adv-x="1363" d="M205 1638h235l226 -376h-164zM590 1638h217l188 -376h-161zM84 532q0 264 159.5 412t440.5 148t440.5 -147.5t159.5 -412.5q0 -261 -160 -411q-158 -150 -440.5 -150t-439.5 150q-160 150 -160 411zM479 532q0 -256 45 -352t160 -96q111 0 158 96q45 92 45 352 q0 258 -45 351q-47 96 -158 96q-113 0 -160 -96q-45 -93 -45 -351z" />
<glyph unicode="&#x20e;" horiz-adv-x="1783" d="M553 1651q0 145 90 229q88 82 252 82q158 0 250 -82q90 -80 92 -229h-127q-6 72 -61 113q-53 39 -154 39q-102 0 -156 -39q-55 -41 -61 -113h-125zM86 745q0 360 215 568q217 207 590 207q379 0 592 -205t213 -569.5t-215 -569.5q-213 -205 -590 -205q-379 0 -592 204.5 t-213 569.5zM514 745.5q0 -325.5 94 -491.5q92 -162 282.5 -162t285.5 162q92 160 92 491.5t-92 491.5q-94 162 -285 162t-283 -162q-94 -166 -94 -491.5z" />
<glyph unicode="&#x20f;" horiz-adv-x="1363" d="M342 1278q0 145 90 229q88 82 252 82q158 0 250 -82q90 -80 92 -229h-127q-6 72 -61 113q-53 39 -154 39q-102 0 -156 -39q-55 -41 -61 -113h-125zM84 532q0 264 159.5 412t440.5 148t440.5 -147.5t159.5 -412.5q0 -261 -160 -411q-158 -150 -440.5 -150t-439.5 150 q-160 150 -160 411zM479 532q0 -256 45 -352t160 -96q111 0 158 96q45 92 45 352q0 258 -45 351q-47 96 -158 96q-113 0 -160 -96q-45 -93 -45 -351z" />
<glyph unicode="&#x210;" horiz-adv-x="1701" d="M383 1905h279l182 -264h-164zM715 1905h279l182 -264h-164zM96 0v121h191v1251h-191v121h852q260 0 401.5 -104.5t141.5 -296.5q0 -158 -100 -246q-106 -92 -304 -117q86 -12 150 -59q59 -45 106 -133l218 -416h153v-121h-491l-238 451q-66 137 -117 178q-47 39 -135 39 h-61v-547h192v-121h-768zM672 788h131q139 0 215 76t76 217.5t-76 214.5q-80 76 -215 76h-131v-584z" />
<glyph unicode="&#x211;" horiz-adv-x="1077" d="M187 1638h235l226 -376h-164zM572 1638h217l188 -376h-161zM59 942v121h516v-189q53 113 138 164q88 53 209 54q18 0 75 -5q45 -4 103 -12v-317h-113q-6 82 -47 127q-39 41 -115 41q-117 0 -184 -103q-66 -98 -66 -282v-420h193v-121h-698v121h151v821h-162z" />
<glyph unicode="&#x212;" horiz-adv-x="1701" d="M524 1651q0 145 90 229q88 82 252 82q158 0 250 -82q90 -80 92 -229h-127q-6 72 -61 113q-53 39 -154 39q-102 0 -156 -39q-55 -41 -61 -113h-125zM96 0v121h191v1251h-191v121h852q260 0 401.5 -104.5t141.5 -296.5q0 -158 -100 -246q-106 -92 -304 -117q86 -12 150 -59 q59 -45 106 -133l218 -416h153v-121h-491l-238 451q-66 137 -117 178q-47 39 -135 39h-61v-547h192v-121h-768zM672 788h131q139 0 215 76t76 217.5t-76 214.5q-80 76 -215 76h-131v-584z" />
<glyph unicode="&#x213;" horiz-adv-x="1077" d="M324 1278q0 145 90 229q88 82 252 82q158 0 250 -82q90 -80 92 -229h-127q-6 72 -61 113q-53 39 -154 39q-102 0 -156 -39q-55 -41 -61 -113h-125zM59 942v121h516v-189q53 113 138 164q88 53 209 54q18 0 75 -5q45 -4 103 -12v-317h-113q-6 82 -47 127q-39 41 -115 41 q-117 0 -184 -103q-66 -98 -66 -282v-420h193v-121h-698v121h151v821h-162z" />
<glyph unicode="&#x214;" horiz-adv-x="1785" d="M463 1905h279l182 -264h-164zM795 1905h279l182 -264h-164zM70 1372v121h768v-121h-191v-747q0 -279 86 -389q88 -113 299 -113q207 0 293 112.5t86 389.5v747h-190v121h520v-121h-191v-768q0 -342 -147 -487q-150 -145 -498 -146q-344 0 -495 148q-150 147 -150 487v766 h-190z" />
<glyph unicode="&#x215;" horiz-adv-x="1488" d="M230 1638h235l226 -376h-164zM615 1638h217l188 -376h-161zM47 942v121h506v-621q0 -201 33 -252q35 -53 121 -53q111 0 157 78q49 80 49 252v475h-129v121h484v-942h151v-121h-506v150q-66 -96 -145.5 -137.5t-206.5 -41.5q-178 0 -270 104.5t-92 311.5v555h-152z" />
<glyph unicode="&#x216;" horiz-adv-x="1785" d="M602 1651q0 145 90 229q88 82 252 82q158 0 250 -82q90 -80 92 -229h-127q-6 72 -61 113q-53 39 -154 39q-102 0 -156 -39q-55 -41 -61 -113h-125zM70 1372v121h768v-121h-191v-747q0 -279 86 -389q88 -113 299 -113q207 0 293 112.5t86 389.5v747h-190v121h520v-121 h-191v-768q0 -342 -147 -487q-150 -145 -498 -146q-344 0 -495 148q-150 147 -150 487v766h-190z" />
<glyph unicode="&#x217;" horiz-adv-x="1488" d="M367 1278q0 145 90 229q88 82 252 82q158 0 250 -82q90 -80 92 -229h-127q-6 72 -61 113q-53 39 -154 39q-102 0 -156 -39q-55 -41 -61 -113h-125zM47 942v121h506v-621q0 -201 33 -252q35 -53 121 -53q111 0 157 78q49 80 49 252v475h-129v121h484v-942h151v-121h-506 v150q-66 -96 -145.5 -137.5t-206.5 -41.5q-178 0 -270 104.5t-92 311.5v555h-152z" />
<glyph unicode="&#x218;" horiz-adv-x="1478" d="M135 1051q0 223 147.5 346t413.5 123q125 0 273 -23q135 -20 293 -65v-330h-127q-29 154 -127 225q-100 72 -279 72q-147 0 -223 -51.5t-76 -153.5q0 -92 51 -141q51 -47 256 -101l224 -55q211 -53 301 -162q94 -113 94 -303q0 -227 -156 -344t-459 -117q-147 0 -290 25 q-145 25 -293 76v354h127q27 -168 137 -252q106 -82 299 -82q154 0 235.5 59.5t81.5 172.5q0 92 -55 141t-227 92l-224 55q-219 55 -309 156q-88 97 -88 283zM510 -399q80 45 115 94q37 51 37 121v43h215v-4q0 -113 -70 -191q-68 -80 -213 -135z" />
<glyph unicode="&#x219;" horiz-adv-x="1150" d="M88 750q0 172 121 258q117 84 369 84q100 0 200 -15q104 -14 236 -49v-268h-113q-10 109 -77.5 164t-196.5 55q-106 0 -164 -35q-55 -35 -55 -100q0 -51 32 -84q31 -31 115 -53l145 -37q207 -51 289 -131q80 -76 80 -217q0 -178 -129 -264.5t-399 -86.5q-106 0 -209 15 q-125 16 -236 45v297h113q14 -117 90 -180.5t203 -63.5q108 0 166 37q57 37 57 108q0 65 -37 99q-41 39 -141 61l-146 37q-166 40 -239 117q-74 76 -74 207zM317 -399q80 45 115 94q37 51 37 121v43h215v-4q0 -113 -70 -191q-68 -80 -213 -135z" />
<glyph unicode="&#x21a;" horiz-adv-x="1523" d="M526 -399q80 45 115 94q37 51 37 121v43h215v-4q0 -113 -70 -191q-68 -80 -213 -135zM23 1120v373h1480v-373h-135v236h-412v-1235h199v-121h-784v121h198v1235h-409v-236h-137z" />
<glyph unicode="&#x21b;" horiz-adv-x="944" d="M317 -399q80 45 115 94q37 51 37 121v43h215v-4q0 -113 -70 -191q-68 -80 -213 -135zM49 942v121h154v330h354v-330h295v-121h-295v-651q0 -137 22.5 -172t79.5 -35q63 0 95 43q29 41 32 133h150q-10 -162 -88 -225.5t-270 -63.5q-221 0 -297 68q-78 68 -78 252v651h-154 z" />
<glyph unicode="&#x21c;" horiz-adv-x="1413" d="M137 -301q123 29 355 156q350 190 350 424q0 113 -64 178q-109 117 -260 39l-209 -109v131l213 139q152 98 209 193q70 115 70 260t-70 219q-90 88 -166 70q-237 -55 -301 -375h-127v367q170 68 273 96q111 29 266 33q246 4 397 -109q154 -113 154 -278 q0 -168 -76 -276.5t-207 -182.5q143 -18 232 -133q86 -115 86 -230q0 -180 -238 -356q-160 -121 -420 -231q-268 -115 -467 -154v129z" />
<glyph unicode="&#x21d;" horiz-adv-x="1243" d="M100 -319q154 35 308 110q319 156 319 313q0 94 -55.5 149.5t-126.5 55.5q-63 0 -105 -14l-184 -66v113l188 88q104 47 185 156q61 82 61 172q0 106 -57 157q-59 57 -133 58q-115 0 -193 -66q-80 -66 -94 -200h-113v294q236 86 473 86q233 0 370.5 -100t137.5 -215 q0 -203 -254 -332q135 -16 211 -106t76 -187q0 -229 -637 -473q-184 -72 -377 -106v113z" />
<glyph unicode="&#x21e;" horiz-adv-x="1933" d="M590 1899h164l213 -162l213 162h164l-223 -264h-308zM96 0v121h191v1251h-191v121h768v-121h-192v-502h594v502h-191v121h768v-121h-192v-1251h192v-121h-768v121h191v612h-594v-612h192v-121h-768z" />
<glyph unicode="&#x21f;" horiz-adv-x="1488" d="M-47 1899h164l213 -162l213 162h164l-223 -264h-308zM63 1436v120h512v-643q66 96 146 137.5t207 41.5q178 0 270 -104.5t92 -311.5v-555h152v-121h-635v121h129v565q0 135 -35 188q-33 51 -119 52q-111 0 -157 -78q-49 -80 -50 -250v-477h130v-121h-635v121h151v1315 h-158z" />
<glyph unicode="&#x220;" horiz-adv-x="1785" d="M70 0v121h190v1251h-151v121h538v-154q78 94 184 140q102 43 263 43q223 0 339.5 -141.5t116.5 -415.5v-1270h191v-121h-766v121h190v1233q0 248 -49 346q-47 96 -172 96q-152 0 -225 -127q-72 -125 -72 -401v-721h191v-121h-768z" />
<glyph unicode="&#x221;" horiz-adv-x="1617" d="M84 532q0 258 129 410q129 150 356 150q111 0 189 -41q74 -39 121 -123v508h-152v120h506v-1163l90 2q55 0 109 -10q152 -25 151 -190q0 -221 -348 -226q-141 0 -242 82q-20 18 -20 25q-20 -18 -43 -51q-27 -41 -39 -123h-111q0 77 25 141q-6 -8 -47 -31 q-78 -41 -189 -41q-227 0 -356 150t-129 411zM479 532q0 -229 45 -317t154 -88q104 0 153 84q47 80 48 268v105q0 190 -48 270q-49 82 -153 82q-109 0 -154 -88q-45 -91 -45 -316zM1233 299q0 -123 29 -170q18 -29 57 -31q131 -6 131 82q0 127 -182 125q-23 0 -35 -2v-4z " />
<glyph unicode="&#x224;" horiz-adv-x="1492" d="M76 0v141l891 1215h-715v-223h-137v360h1296v-141l-881 -1215h607h284v-26q0 -221 -92 -381t-285 -269l-110 142q111 88 153 188q41 96 48 209h-1059z" />
<glyph unicode="&#x225;" horiz-adv-x="1161" d="M72 0v121l610 825h-459v-182h-119v299h990v-119l-611 -825h326h285v-8q0 -221 -92.5 -381t-284.5 -269l-111 142q104 82 154 188q43 92 49 209h-737z" />
<glyph unicode="&#x226;" horiz-adv-x="1587" d="M625 1776q0 61 43 104t104 43t104 -43t43 -104q0 -59 -43 -102.5t-104 -43.5t-104 43.5t-43 102.5zM-16 0v121h122l562 1372h239l563 -1372h142v-121h-699v121h146l-123 305h-561l-125 -305h178v-121h-444zM424 547h463l-230 571z" />
<glyph unicode="&#x227;" horiz-adv-x="1325" d="M453 1468.5q0 59.5 43 102.5t104 43t104 -43t43 -102.5t-43 -102.5q-45 -45 -104 -45t-104 45q-43 43 -43 102.5zM84 309q0 180 125 268.5t379 88.5h186v63q0 129 -61.5 190.5t-188.5 61.5q-106 0 -164 -43q-57 -41 -81 -143h-113v229q90 31 196 51q90 16 216 17 q287 0 417 -107q133 -109 133 -332v-532h152v-121h-506v135q-74 -88 -156 -125q-84 -39 -196 -39q-162 0 -250 88t-88 250zM436 338q0 -104 39 -152q41 -49 117 -49q86 0 133 53q49 55 49 144v213h-133q-100 0 -152 -53q-53 -58 -53 -156z" />
<glyph unicode="&#x228;" horiz-adv-x="1560" d="M555 -219q41 -16 88 -27q39 -8 78 -8q63 0 92 23q31 25 31 69q0 25 -16 62q-14 31 -68 100h127q63 -66 92 -119q29 -51 29 -106q0 -86 -63.5 -131t-186.5 -45q-47 0 -98 6q-35 4 -105 20v156zM96 0v121h191v1251h-191v121h1342v-352h-138v215h-628v-479h391v190h137v-516 h-137v190h-391v-604h647v215h137v-352h-1360z" />
<glyph unicode="&#x229;" horiz-adv-x="1302" d="M389 -219q41 -16 88 -27q39 -8 78 -8q63 0 92 23q31 25 31 69q0 25 -16 62q-14 31 -68 100h127q63 -66 92 -119q29 -51 29 -106q0 -86 -63.5 -131t-186.5 -45q-47 0 -98 6q-35 4 -105 20v156zM84 532q0 264 152 412q150 147 419 148q264 0 405.5 -156t149.5 -455h-731v-8 q0 -205 61.5 -297t200.5 -92q115 0 187 61q70 59 90 177h166q-43 -182 -170 -267q-125 -84 -359 -84q-274 0 -424 146q-147 145 -147 415zM479 600h342q0 211 -39 295t-133 84q-92 0 -131 -82q-39 -80 -39 -279v-18z" />
<glyph unicode="&#x22a;" horiz-adv-x="1783" d="M580 2056v188h630v-188h-630zM86 745q0 360 215 568q217 207 590 207q379 0 592 -205t213 -569.5t-215 -569.5q-213 -205 -590 -205q-379 0 -592 204.5t-213 569.5zM514 745.5q0 -325.5 94 -491.5q92 -162 282.5 -162t285.5 162q92 160 92 491.5t-92 491.5 q-94 162 -285 162t-283 -162q-94 -166 -94 -491.5zM522 1776q0 61 43 104t105 43q59 0 102 -43t43 -104q0 -59 -43 -102.5t-102 -43.5q-61 0 -104.5 43.5t-43.5 102.5zM969 1776q0 61 43 104t104 43t104.5 -43t43.5 -104q0 -59 -43 -102.5t-105 -43.5q-61 0 -104 43.5 t-43 102.5z" />
<glyph unicode="&#x22b;" horiz-adv-x="1363" d="M369 1684v188h630v-188h-630zM84 532q0 264 159.5 412t440.5 148t440.5 -147.5t159.5 -412.5q0 -261 -160 -411q-158 -150 -440.5 -150t-439.5 150q-160 150 -160 411zM479 532q0 -256 45 -352t160 -96q111 0 158 96q45 92 45 352q0 258 -45 351q-47 96 -158 96 q-113 0 -160 -96q-45 -93 -45 -351zM313 1468.5q0 59.5 43 102.5t105 43q59 0 102 -43t43 -103q0 -61 -43 -104t-102.5 -43t-104.5 45q-43 43 -43 102.5zM760 1468.5q0 59.5 43 102.5t104 43t104.5 -43t43.5 -102.5t-43 -102.5q-45 -45 -104.5 -45t-104.5 45 q-43 43 -43 102.5z" />
<glyph unicode="&#x22c;" horiz-adv-x="1783" d="M580 2056v188h630v-188h-630zM86 745q0 360 215 568q217 207 590 207q379 0 592 -205t213 -569.5t-215 -569.5q-213 -205 -590 -205q-379 0 -592 204.5t-213 569.5zM514 745.5q0 -325.5 94 -491.5q92 -162 282.5 -162t285.5 162q92 160 92 491.5t-92 491.5 q-94 162 -285 162t-283 -162q-94 -166 -94 -491.5zM535 1635v12q0 123 55 190q53 66 153 66q63 0 142 -39q9 -3 12 -6l72 -33q39 -16 47 -18q25 -4 35 -4q41 0 65.5 24.5t24.5 69.5v4h110v-15q0 -123 -53 -188t-155 -65q-31 0 -68 10q-41 12 -86 35l-57 28q-39 18 -52 21 q-25 6 -45 6q-41 0 -65.5 -24.5t-24.5 -69.5v-4h-110z" />
<glyph unicode="&#x22d;" horiz-adv-x="1363" d="M369 1684v188h630v-188h-630zM84 532q0 264 159.5 412t440.5 148t440.5 -147.5t159.5 -412.5q0 -261 -160 -411q-158 -150 -440.5 -150t-439.5 150q-160 150 -160 411zM479 532q0 -256 45 -352t160 -96q111 0 158 96q45 92 45 352q0 258 -45 351q-47 96 -158 96 q-113 0 -160 -96q-45 -93 -45 -351zM326 1309v16q0 143 53 221q51 76 155 76q35 0 72 -12q35 -12 82 -43l72 -47l2 -2q45 -29 80 -29q41 0 65 35q25 33 25 96h110v-16q0 -143 -53 -222q-51 -76 -155 -75q-35 0 -72 12q-35 12 -82 43l-72 47h-2q-45 31 -80 31q-41 0 -65 -35 q-25 -33 -25 -96h-110z" />
<glyph unicode="&#x22e;" horiz-adv-x="1783" d="M744 1776q0 61 43 104t104 43t104 -43t43 -104q0 -59 -43 -102.5t-104 -43.5t-104 43.5t-43 102.5zM86 745q0 360 215 568q217 207 590 207q379 0 592 -205t213 -569.5t-215 -569.5q-213 -205 -590 -205q-379 0 -592 204.5t-213 569.5zM514 745.5q0 -325.5 94 -491.5 q92 -162 282.5 -162t285.5 162q92 160 92 491.5t-92 491.5q-94 162 -285 162t-283 -162q-94 -166 -94 -491.5z" />
<glyph unicode="&#x22f;" horiz-adv-x="1363" d="M537 1468.5q0 59.5 43 102.5t104 43t104 -43t43 -102.5t-43 -102.5q-45 -45 -104 -45t-104 45q-43 43 -43 102.5zM84 532q0 264 159.5 412t440.5 148t440.5 -147.5t159.5 -412.5q0 -261 -160 -411q-158 -150 -440.5 -150t-439.5 150q-160 150 -160 411zM479 532 q0 -256 45 -352t160 -96q111 0 158 96q45 92 45 352q0 258 -45 351q-47 96 -158 96q-113 0 -160 -96q-45 -93 -45 -351z" />
<glyph unicode="&#x230;" horiz-adv-x="1783" d="M580 2056v188h630v-188h-630zM748 1841.5q0 59.5 43 102.5t104 43t104 -43t43 -102.5t-43 -102.5q-45 -45 -104 -45t-104 45q-43 43 -43 102.5zM86 745q0 360 215 568q217 207 590 207q379 0 592 -205t213 -569.5t-215 -569.5q-213 -205 -590 -205q-379 0 -592 204.5 t-213 569.5zM514 745.5q0 -325.5 94 -491.5q92 -162 282.5 -162t285.5 162q92 160 92 491.5t-92 491.5q-94 162 -285 162t-283 -162q-94 -166 -94 -491.5z" />
<glyph unicode="&#x231;" horiz-adv-x="1363" d="M369 1684v188h630v-188h-630zM537 1468.5q0 59.5 43 102.5t104 43t104 -43t43 -102.5t-43 -102.5q-45 -45 -104 -45t-104 45q-43 43 -43 102.5zM84 532q0 264 159.5 412t440.5 148t440.5 -147.5t159.5 -412.5q0 -261 -160 -411q-158 -150 -440.5 -150t-439.5 150 q-160 150 -160 411zM479 532q0 -256 45 -352t160 -96q111 0 158 96q45 92 45 352q0 258 -45 351q-47 96 -158 96q-113 0 -160 -96q-45 -93 -45 -351z" />
<glyph unicode="&#x232;" horiz-adv-x="1460" d="M492 1684v188h630v-188h-630zM-18 1372v121h716v-121h-166l336 -569l334 569h-149v121h428v-121h-127l-414 -702v-549h201v-121h-789v121h201v497l-444 754h-127z" />
<glyph unicode="&#x233;" horiz-adv-x="1189" d="M291 1374v188h630v-188h-630zM-27 942v121h613v-121h-127l270 -629l252 629h-141v121h399v-121h-129l-471 -1182q-49 -117 -116.5 -166t-182.5 -49q-57 0 -109 11q-68 14 -131 32v222h113q4 -78 37 -115t100.5 -37t104.5 35q40 37 80 135l16 37l-463 1077h-115z" />
<glyph unicode="&#x234;" horiz-adv-x="1173" d="M70 1436v120h505v-1032q0 -100 27 -209q147 74 328 74q209 0 209 -217q0 -209 -336 -213q-180 -2 -314 72q-10 -27 -10 -117v-145h-137l2 145q2 92 33 178l-23 21q-133 156 -133 411v912h-151zM639 221q90 -152 250 -151q137 0 137 106q0 123 -90 123q-256 -4 -297 -78z " />
<glyph unicode="&#x235;" horiz-adv-x="1888" d="M70 0v121h151v821h-151v121h505v-150q66 96 146 137.5t207 41.5q178 0 270 -104.5t92 -311.5v-152q0 -100 27 -209q147 74 328 74q209 0 208 -217q0 -209 -335 -213q-180 -2 -314 72q-10 -27 -10 -117v-145h-135v145q2 92 33 178l-23 21q-133 156 -133 411v162 q0 135 -35 188q-33 51 -119 52q-111 0 -157 -78q-49 -80 -50 -250v-477h130v-121h-635zM1354 221q90 -152 250 -151q137 0 137 106q0 123 -90 123q-256 -4 -297 -78z" />
<glyph unicode="&#x236;" horiz-adv-x="1155" d="M49 942v121h154v330h354v-330h295v-121h-295v-422q0 -96 27 -205q147 74 327 74q209 0 209 -217q0 -209 -336 -213q-180 -2 -313 72q-8 -20 -8 -117v-145h-137v145q2 92 32 178l-22 21q-133 156 -133 407v422h-154zM621 221q90 -152 249 -151q137 0 138 106 q0 123 -90 123q-256 -4 -297 -78z" />
<glyph unicode="&#x237;" horiz-adv-x="739" d="M-152 -190h113q4 -84 31 -117q29 -35 96 -35q74 0 102.5 47t28.5 170v1067h-151v121h505v-1188q0 -163 -116 -246q-119 -84 -340 -84q-51 0 -127 11q-59 8 -142 28v226z" />
<glyph unicode="&#x238;" horiz-adv-x="2111" d="M84 532q0 258 129 410q129 150 356 150q111 0 189 -41q74 -39 121 -123v508h-152v120h506v-628q47 84 121 123q78 41 188 41q227 0 356 -150q131 -154 132 -410q0 -258 -132 -411q-129 -150 -356 -150q-111 0 -188 41q-74 39 -121 123v-14v-121h-354v121v14 q-47 -84 -121 -123q-78 -41 -189 -41q-227 0 -356 150t-129 411zM479 532q0 -229 45 -317t154 -88q104 0 153 84q47 80 48 268v105q0 190 -48 270q-49 82 -153 82q-109 0 -154 -88q-45 -91 -45 -316zM1233 479q0 -184 47 -268t154 -84q111 0 153 88q45 94 45 317 q0 225 -45 316q-43 88 -153 88q-109 0 -154 -82q-47 -84 -47 -270v-105z" />
<glyph unicode="&#x239;" horiz-adv-x="2111" d="M82 530q0 258 131 412q129 150 356 150q111 0 189 -41q74 -39 121 -123v14v121h354v-121v-14q47 84 121 123q78 41 188 41q227 0 356 -150q129 -151 130 -412q0 -260 -129.5 -409.5t-356.5 -149.5q-111 0 -188 41q-74 39 -121 123v-440h151v-121h-657v121h152v440 q-47 -84 -121 -123q-78 -41 -189 -41q-227 0 -356 150q-131 153 -131 409zM479 532q0 -229 45 -317t154 -88q104 0 153 84q47 80 48 268v105q0 190 -48 270q-49 82 -153 82q-109 0 -154 -88q-45 -91 -45 -316zM1233 479q0 -184 47 -268t154 -84q111 0 153 88q45 94 45 317 q0 225 -45 316q-43 88 -153 88q-109 0 -154 -82q-47 -84 -47 -270v-105z" />
<glyph unicode="&#x23a;" horiz-adv-x="1587" d="M-29 12l13 13v96h96l45 43l543 1329h239l160 -385l461 461l90 -90l-500 -500l352 -858h142v-121h-699v121h146l-123 305h-371l-305 -305h168v-121h-289l-78 -78zM369 410l16 16h-10zM424 547h82l272 272l-121 299zM686 547h201l-58 143z" />
<glyph unicode="&#x23b;" horiz-adv-x="1628" d="M-8 12l244 244q-150 193 -150 489q0 356 219 565.5t598 209.5q132 0 277 -31q96 -23 223 -66l145 146l90 -90l-153 -154v-301h-127q-14 63 -41 133l-762 -762q23 -78 66 -143q109 -160 325 -160q150 0 244 82t137 252h199q-59 -233 -211 -342q-156 -113 -412 -113 q-358 0 -579 193l-242 -242zM514 745q0 -125 10 -198l725 723q-20 25 -32 37q-104 92 -273 92q-215 0 -323 -160q-107 -158 -107 -494z" />
<glyph unicode="&#x23c;" horiz-adv-x="1245" d="M-8 -16l194 194q-102 139 -102 354q0 264 153.5 412t428.5 148q117 0 225 -21q78 -16 151 -37l127 127l86 -86l-135 -135v-227h-112q-6 57 -21 96l-491 -492q14 -74 45 -129q61 -104 198 -104q109 0 172 63q61 61 78 185h166q-37 -180 -155.5 -270.5t-319.5 -90.5 q-258 0 -410 121l-194 -194zM479 532v-61l447 447q-61 61 -174 61q-150 0 -211.5 -100.5t-61.5 -346.5z" />
<glyph unicode="&#x23d;" horiz-adv-x="1439" d="M39 659v193h248v520h-191v121h768v-121h-192v-520h248v-193h-248v-522h588v236h135v-373h-1299v121h191v538h-248z" />
<glyph unicode="&#x23e;" horiz-adv-x="1523" d="M-59 12l628 629v715h-411v-236h-135v373h1398l76 76l90 -90l-84 -84v-275h-137v137l-410 -407v-729h199v-121h-784v121h198v340l-538 -539zM956 1028l328 328h-328v-328z" />
<glyph unicode="&#x23f;" horiz-adv-x="1150" d="M88 750q0 248 246 315q98 27 244 27q190 0 436 -64v-268h-113q-18 219 -274 219q-209 0 -217 -123q0 -2 -1 -6t-1 -6q0 -74 63 -107q29 -14 84 -30l145 -37q207 -53 287 -129q82 -80 82 -219q0 -207 -176 -291q-113 -53 -311 -60q2 -4 5 -11t5 -11l45 -111 q40 -98 80 -135q37 -35 104 -35q9 0 43 37q33 37 37 115h113v-221q-137 -41 -238 -43h-104q-131 0 -228 59q-102 63 -139 156l-82 204q-10 23 -28 33q-49 10 -66 15q-16 2 -33 8v297h113q23 -188 190 -232q45 -8 103 -12q195 0 219 113q4 20 4 32q0 80 -63 117 q-37 20 -115 43l-146 37q-168 43 -239 119q-74 78 -74 205z" />
<glyph unicode="&#x240;" horiz-adv-x="1161" d="M72 0v121l610 825h-459v-182h-119v299h990v-119l-611 -825q186 0 248 -154l53 -137q35 -96 80 -133q41 -37 107 -37q9 0 43 37q33 37 37 115h112v-222q-63 -18 -131 -32q-51 -10 -211 -11q-131 0 -227 60q-102 63 -139 155l-78 197q-18 43 -103 43h-202z" />
<glyph unicode="&#x241;" horiz-adv-x="1351" d="M96 1229v198q59 33 131 49.5t138 16.5h393q250 0 395 -119q147 -121 147 -317.5t-147 -317.5q-150 -121 -395 -121h-39v-497h242v-121h-818v121h191l2 618h260q129 0 207 86q78 88 78 232q0 145 -76 229q-77 86 -209 86h-231q-102 0 -125 -29q-29 -35 -31 -114h-113z" />
<glyph unicode="&#x242;" horiz-adv-x="1120" d="M96 827v199q59 33 131 49.5t138 16.5h161q252 0 397.5 -119t145.5 -318q0 -197 -147 -317q-86 -68 -203 -98v-119h242v-121h-789v121h193v219q131 0 208 86q76 84 76 229.5t-76 229.5q-77 86 -208 86q-104 0 -125 -27q-28 -34 -31 -117h-113z" />
<glyph unicode="&#x245;" horiz-adv-x="1587" d="M-16 0v121h122l562 1372h239l563 -1372h142v-121h-699v121h146l-402 997l-407 -997h178v-121h-444z" />
<glyph unicode="&#x250;" horiz-adv-x="1325" d="M84 942v121h506v-135q74 88 155 125q84 39 197 39q162 0 250 -88.5t88 -249.5q0 -180 -125 -268.5t-379 -88.5h-186v-63q0 -129 61.5 -190.5t188.5 -61.5q106 0 164 43q57 41 81 143h113v-229q-90 -31 -197 -51q-90 -16 -215 -17q-287 0 -417 107q-133 109 -133 332v532 h-152zM590 516h133q100 0 151 53q53 57 54 156q0 104 -39 152q-41 49 -117 49q-86 0 -133 -54q-49 -55 -49 -143v-213z" />
<glyph unicode="&#x251;" horiz-adv-x="1431" d="M84 532q0 258 129 410q129 150 356 150q111 0 189 -41q74 -39 121 -123v16v121h505v-123h-151v-821h151v-121h-505v135q-47 -84 -121 -123q-78 -41 -189 -41q-227 0 -356 150t-129 411zM479 532q0 -229 45 -317t154 -88q104 0 153 84q47 80 48 268v105q0 190 -48 270 q-49 82 -153 82q-109 0 -154 -88q-45 -91 -45 -316z" />
<glyph unicode="&#x252;" horiz-adv-x="1431" d="M84 0v121h152v821h-152v121h506v-135q47 84 121 123q78 41 188 41q227 0 356 -150q129 -151 129 -412q0 -260 -129 -409.5t-356 -149.5q-111 0 -188 41q-74 39 -121 123v-16v-119h-506zM590 479q0 -188 47 -268q49 -84 154 -84q111 0 153 88q45 90 45 315 q0 229 -45 317.5t-153 88.5q-104 0 -154 -82q-47 -80 -47 -270v-105z" />
<glyph unicode="&#x253;" horiz-adv-x="1431" d="M47 0v121h152v1042h2v64q0 164 114 246q119 84 340 83q53 0 129 -10q59 -8 142 -28v-226h-115q-4 82 -31 115q-31 37 -96 37q-72 0 -100.5 -47t-28.5 -170v-297q49 86 119 123q76 39 188 39q227 0 357 -150q131 -154 131 -410q0 -258 -131 -411q-129 -150 -357 -150 q-111 0 -188 41q-74 39 -121 123v-135h-506zM553 479q0 -184 47 -268t154 -84q111 0 153 88q45 94 45 317q0 225 -45 316q-43 88 -153 88q-109 0 -154 -82q-47 -84 -47 -270v-105z" />
<glyph unicode="&#x254;" horiz-adv-x="1245" d="M84 731q37 182 156 273q115 88 319 88q285 0 440.5 -147.5t155.5 -414.5q0 -264 -153.5 -411.5t-428.5 -147.5q-117 0 -225 21q-117 23 -229 63v295h112q16 -139 78 -200q66 -66 178 -66q150 0 211 100q61 102 62 346q0 240 -61.5 344.5t-198.5 104.5q-109 0 -172 -64 q-61 -61 -78 -184h-166z" />
<glyph unicode="&#x255;" horiz-adv-x="1245" d="M78 520q0 254 168 408q170 152 448 151q166 0 248 -22q86 -20 178 -72v-272h-96q-18 139 -80 205q-61 63 -176 63q-147 0 -225 -115q-78 -123 -76 -346q0 -86 27 -205q143 70 389 74q268 0 262 -231q-2 -199 -451 -199q-180 0 -311 72q-10 -27 -10 -117v-145h-137v145 q2 92 32 178l-12 11.5t-10 9.5q-168 153 -168 407zM530 221q92 -152 250 -151q252 0 252 116.5t-205 112.5q-256 -4 -297 -78z" />
<glyph unicode="&#x256;" horiz-adv-x="1431" d="M84 532q0 258 129 410q129 150 356 150q111 0 189 -41q74 -39 121 -123v508h-152v120h506v-1556v-125q0 -123 28.5 -170t102.5 -47q66 0 94.5 35t32.5 117h113v-226q-82 -20 -142 -28q-76 -10 -129 -11q-221 0 -340 84q-115 82 -114 246v258q-47 -80 -121 -121 q-78 -41 -189 -41q-227 0 -356 150t-129 411zM479 532q0 -229 45 -317t154 -88q104 0 153 84q47 80 48 268v105q0 190 -48 270q-49 82 -153 82q-109 0 -154 -88q-45 -91 -45 -316z" />
<glyph unicode="&#x257;" horiz-adv-x="1492" d="M84 532q0 258 129 410q129 150 356 150q111 0 189 -41q74 -39 121 -123v188h2v111q0 164 114 246q119 84 340 83q53 0 129 -10q59 -8 142 -28v-226h-113q-2 80 -33 115q-31 37 -94 37q-74 0 -102.5 -47t-28.5 -170v-412h-2v-694h151v-121h-505v135q-47 -84 -121 -123 q-78 -41 -189 -41q-227 0 -356 150t-129 411zM479 532q0 -229 45 -317t154 -88q104 0 153 84q47 80 48 268v105q0 190 -48 270q-49 82 -153 82q-109 0 -154 -88q-45 -91 -45 -316z" />
<glyph unicode="&#x258;" horiz-adv-x="1302" d="M84 481q8 299 149.5 455t405.5 156q270 0 420 -148q152 -147 151 -412q0 -270 -147 -415q-150 -145 -424 -146q-233 0 -358 84q-127 84 -170 267h165q20 -117 91 -177q72 -61 186 -61q139 0 200.5 92t61.5 297v8h-731zM473 600h342v18q0 199 -39 279q-39 82 -131 82 q-94 0 -133 -84t-39 -295z" />
<glyph unicode="&#x259;" horiz-adv-x="1302" d="M84 582h731v8q0 205 -61.5 297t-200.5 92q-115 0 -186 -61q-70 -59 -91 -177h-165q43 182 170 267q125 84 358 84q274 0 424 -146q147 -143 147 -416q0 -264 -151 -411q-150 -147 -420 -148q-264 0 -405.5 156t-149.5 455zM473 463q0 -211 39 -295t133 -84q90 0 131 84 q39 80 39 276v19h-342z" />
<glyph unicode="&#x25a;" horiz-adv-x="1857" d="M111 741q43 182 170 267q125 84 358 84q279 0 424 -146q10 -10 35 -39l205 117l176 -2v-43q0 -92 47 -135q51 -45 106 -45q98 0 109 32l117 -151q-77 -49 -80 -49q-46 -18 -142 -19q-115 0 -209 95q-80 80 -92 200l-176 -102q51 -115 51 -275q0 -264 -151 -411 q-150 -147 -420 -148q-262 0 -406 156q-78 88 -114 215l178 102l508 293q-16 98 -51 152q-59 90 -201 90q-115 0 -186 -61q-70 -59 -91 -177h-165zM473 410q2 -164 39 -242q41 -84 133 -84q90 0 131 84q39 80 39 276v162z" />
<glyph unicode="&#x25b;" horiz-adv-x="1243" d="M98 283q0 131 88 198q102 80 244 94q-137 27 -207 95q-68 63 -67 155q0 117 108 185q125 80 381 82q266 0 461 -50v-213h-113q-12 70 -86 109q-72 41 -164 41q-125 0 -188 -49q-59 -45 -59 -109q0 -70 57 -114q68 -55 197 -56h65v-151h-59q-152 0 -240 -70 q-68 -52 -67 -141q0 -76 63 -133q78 -68 229.5 -68t235.5 80q41 39 47 98h111v-233q-262 -57 -465 -58q-225 0 -379 62q-193 74 -193 246z" />
<glyph unicode="&#x25c;" horiz-adv-x="1148" d="M84 33v233h111q6 -59 47 -98q82 -80 235.5 -80t229.5 68q63 57 63 133q0 89 -68 141q-88 70 -237 70h-62v137h66q129 0 197 55q57 45 57 117q0 61 -59 106q-66 49 -189 50q-94 0 -164 -39q-74 -39 -86 -111h-110v213q195 49 458 49q256 -2 381 -82q111 -70 111 -184 q0 -90 -70 -149q-68 -57 -207 -87q141 -14 244 -94q88 -68 88 -198q0 -172 -190 -246q-154 -61 -379 -62q-205 1 -467 58z" />
<glyph unicode="&#x25d;" horiz-adv-x="1857" d="M84 33v233h111q6 -59 47 -98q86 -80 235 -80q154 0 230 68q63 57 63 133q0 89 -68 141q-88 70 -237 70h-62v137h66q129 0 197 55q57 45 57 117q0 61 -59 106q-66 49 -189 50q-94 0 -164 -39q-74 -39 -86 -111h-110v213q195 49 458 49q256 -2 381 -82q92 -57 107 -145 l242 174l174 -2v-43q0 -92 47 -135q51 -45 106 -45q98 0 109 32l119 -151q-77 -49 -80 -49q-45 -18 -144 -19q-115 0 -209 95q-80 80 -92 200l-338 -245q-68 -57 -207 -87q141 -14 244 -94q88 -68 88 -198q0 -172 -190 -246q-154 -61 -379 -62q-205 1 -467 58z" />
<glyph unicode="&#x25e;" horiz-adv-x="1472" d="M84 528q0 307 369 490q68 34 172 55q84 18 194 19q274 0 417.5 -76t143.5 -219q0 -102 -100 -172q-106 -72 -285 -97q178 -25 285 -96q100 -70 100 -174q0 -141 -143 -217q-145 -78 -449 -78q-4 0 -163 21q-58 9 -172 55q-369 153 -369 489zM385 524q0 -250 215 -397 q35 -23 100 -45q33 -12 91 -12q104 0 165 51q57 51 58 147q0 74 -70 138q-68 61 -209 61h-39v121h39q139 0 209 63q70 61 70 137q0 96 -57.5 147.5t-165.5 51.5q-16 0 -91 -18q-39 -10 -100 -45q-215 -124 -215 -400z" />
<glyph unicode="&#x25f;" horiz-adv-x="790" d="M-152 -190h113q4 -84 31 -117q29 -35 96 -35q74 0 102.5 47t28.5 170v604h-149v121h149v342h-151v121h505v-463h154v-121h-154v-604q0 -163 -116 -246q-119 -84 -340 -84q-51 0 -127 11q-59 8 -142 28v226z" />
<glyph unicode="&#x260;" horiz-adv-x="1431" d="M84 532q0 231 131 381q129 150 356 150h310v164q0 164 114 246q119 84 340 83q53 0 129 -10q59 -8 142 -28v-226h-113q-2 80 -33 115q-31 37 -94 37q-74 0 -102.5 -47t-28.5 -170v-412h-2v-801q0 -223 -160 -346t-450 -123q-100 0 -215 17q-111 16 -224 49v254h113 q16 -104 84 -156q70 -51 199 -51q166 0 231 78q68 80 68 278v121q-47 -84 -121 -123q-78 -41 -189 -41q-227 0 -356 150t-129 411zM479 532q0 -229 45 -317t154 -88q104 0 153 84q47 80 48 268v105l2 352h-203q-109 0 -154 -88q-45 -91 -45 -316z" />
<glyph unicode="&#x261;" horiz-adv-x="1431" d="M84 532q0 231 131 381q129 150 356 150h813v-121h-151v-928q0 -223 -160 -346t-450 -123q-100 0 -215 17q-111 16 -224 49v254h113q16 -104 84 -156q70 -51 199 -51q166 0 231 78q68 80 68 278v121q-47 -84 -121 -123q-78 -41 -189 -41q-227 0 -356 150t-129 411z M479 532q0 -229 45 -317t154 -88q104 0 153 84q47 80 48 268v105l2 352h-203q-109 0 -154 -88q-45 -91 -45 -316z" />
<glyph unicode="&#x262;" horiz-adv-x="1282" d="M127 526.5q0 245.5 154 393.5q152 145 417 145q104 0 217 -23q111 -23 218 -67v-254h-127q-23 119 -121 199q-70 61 -150 61q-115 0 -190 -111q-76 -106 -76 -344q0 -233 71.5 -341.5t180.5 -108.5q49 0 106 39l2 297h-145v84h483v-398q-115 -53 -231 -82 q-117 -25 -238 -24q-270 0 -417 141q-154 148 -154 393.5z" />
<glyph unicode="&#x263;" horiz-adv-x="1456" d="M127 942v121h647v-121h-129l191 -264l188 264h-131v121h414v-121h-142l-270 -379q162 -236 246 -442q84 -211 84 -328q0 -121 -121 -182q-115 -59 -434 -60q-217 0 -305 76q-66 53 -66 180q0 98 107 273q96 162 233 323l-393 539h-119zM440 -182q0 -55 37 -88 q29 -29 162 -29q127 0 186 33q59 29 60 86q0 96 -58 233q-72 172 -127 252q-49 -68 -178 -264q-82 -121 -82 -223z" />
<glyph unicode="&#x264;" horiz-adv-x="1284" d="M84 817v158q0 90 215 90q227 0 485 -373q295 375 383 375q55 0 72 -96l-2 -154h-104v21q0 72 -19 71q-31 0 -266 -321q109 -152 176 -277q72 -131 72 -198q0 -100 -107 -158q-55 -31 -332 -31q-240 0 -303 39t-63 141q0 106 155 256l119 105q-92 180 -293 416 q-31 35 -49 34q-25 0 -24 -75v-23h-115zM475 158q0 -37 23 -56q33 -27 135 -26q61 0 84 41q12 25 12 53q0 37 -33 90q-23 37 -67 88q-2 -2 -74 -67q-80 -71 -80 -123z" />
<glyph unicode="&#x265;" horiz-adv-x="1488" d="M47 942v121h635v-121h-129v-565q0 -133 35 -186.5t119 -53.5q111 0 157 78q49 80 49 250v477h-129v121h484v-1368h157v-121h-512v576q-66 -96 -145.5 -137.5t-206.5 -41.5q-178 0 -270 104.5t-92 311.5v555h-152z" />
<glyph unicode="&#x266;" horiz-adv-x="1488" d="M70 0v121h151v964v142q0 163 117 246q119 84 340 83q53 0 129 -10q53 -8 139 -28v-226h-112q-4 82 -31 115q-31 37 -96 37q-74 0 -103 -47t-29 -170v-314q63 92 146 138q80 41 207 41q178 0 270 -104.5t92 -311.5v-555h152v-121h-635v121h129v565q0 135 -35 188 q-33 51 -119 52q-111 0 -157 -78q-49 -80 -50 -250v-477h130v-121h-635z" />
<glyph unicode="&#x267;" horiz-adv-x="1488" d="M70 0v121h151v964v142q0 163 117 246q119 84 340 83q53 0 129 -10q53 -8 139 -28v-226h-112q-4 82 -31 115q-31 37 -96 37q-74 0 -103 -47t-29 -170v-314q63 92 146 138q80 41 207 41q178 0 270 -104.5t92 -311.5v-391v-164v-121v-125q0 -163 -116 -246 q-119 -84 -340 -84q-51 0 -127 11q-59 8 -142 28v226h113q4 -84 31 -117q29 -35 96 -35q74 0 102.5 47t28.5 170v125v121v164v401q0 135 -35 188q-33 51 -119 52q-111 0 -157 -78q-49 -80 -50 -250v-477h130v-121h-635z" />
<glyph unicode="&#x268;" horiz-adv-x="776" d="M188 1364q0 82 55.5 137t137.5 55q80 0 135 -55t55 -137q0 -80 -55 -135t-135 -55q-82 0 -137.5 55t-55.5 135zM70 0v121h151v358h-151v121h151v342h-151v121h505v-463h152v-121h-152v-358h152v-121h-657z" />
<glyph unicode="&#x269;" horiz-adv-x="776" d="M74 942v121h501v-713q0 -131 41 -190q43 -61 136 -62v-98h-172q-190 0 -263 47q-96 63 -96 291v604h-147z" />
<glyph unicode="&#x26a;" horiz-adv-x="776" d="M70 0v121h151v821h-151v121h657v-121h-152v-821h152v-121h-657zM221 942z" />
<glyph unicode="&#x26b;" horiz-adv-x="835" d="M66 690v17q0 145 53 221q49 70 139 76v432h-149v120h503v-679q20 8 35 28q25 33 25 96h110v-16q0 -143 -53 -221q-41 -59 -117 -72v-571h154v-121h-657v121h149v700q-35 -2 -57 -35q-25 -33 -25 -96h-110z" />
<glyph unicode="&#x26c;" horiz-adv-x="1052" d="M66 831q0 250 290 250q66 0 115 -12v367h-149v120h503v-780h172v-119h-172v-536h154v-121h-657v121h149v536h-156q-249 4 -249 174zM213 866q0 -96 115 -90h143v142q-10 74 -121 61q-137 -15 -137 -113z" />
<glyph unicode="&#x26d;" horiz-adv-x="776" d="M70 1436v120h505v-1271v-410q0 -123 29 -170t103 -47q68 0 96 35q27 33 31 117h112v-226q-86 -20 -139 -28q-76 -10 -129 -11q-221 0 -340 84q-117 83 -117 246v1561h-151z" />
<glyph unicode="&#x26e;" horiz-adv-x="1628" d="M70 0v121h151v1315h-151v120h505v-493h986v-119l-365 -491q217 -20 332 -107q160 -121 160 -330q0 -211 -166 -321.5t-480 -110.5q-123 0 -243 21q-139 25 -262 59v328h120q12 -143 91 -217q77 -74 215 -74q154 0 235.5 84t81.5 240q0 160 -86 249q-86 88 -246 88h-65 v226l266 358h-461v-182h-113v-643h152v-121h-657z" />
<glyph unicode="&#x26f;" horiz-adv-x="2166" d="M47 942v121h633v-121h-127v-502q0 -200 31 -252q31 -51 112 -51q96 0 147.5 72t51.5 207v526h-127v121h608v-121h-127v-502q0 -200 31 -252q31 -51 113 -51q96 0 147 72t51 207v526h-127v121h633v-121h-151v-821h151v-121h-506v150q-61 -92 -141 -135.5t-190 -43.5 q-131 0 -211 49q-82 51 -125 154q-70 -102 -160 -154q-86 -49 -201 -49q-186 0 -274 103q-90 106 -90 313v555h-152z" />
<glyph unicode="&#x270;" horiz-adv-x="2166" d="M47 942v121h633v-121h-127v-502q0 -200 31 -252q31 -51 112 -51q96 0 147.5 72t51.5 207v526h-127v121h608v-121h-127v-502q0 -200 31 -252q31 -51 113 -51q96 0 147 72t51 207v526h-127v121h633v-121h-151v-1247h151v-121h-506v576q-61 -92 -141 -135.5t-190 -43.5 q-131 0 -211 49q-82 51 -125 154q-70 -102 -160 -154q-86 -49 -201 -49q-186 0 -274 103q-90 106 -90 313v555h-152z" />
<glyph unicode="&#x271;" horiz-adv-x="2166" d="M70 0v121h151v821h-151v121h505v-150q61 92 141.5 135.5t190.5 43.5q131 0 211 -50q82 -51 125 -153q72 106 160 155q82 47 201 48q186 0 274 -103q90 -106 90 -313v-391v-285v-125q0 -164 -115 -246q-119 -84 -342 -84q-51 0 -127 11q-59 8 -141 28v226h113 q4 -84 30 -117q29 -35 97 -35q74 0 102.5 47t28.5 170v125v285v338q0 200 -31 251t-113 52q-96 0 -147 -72t-51 -207v-526h127v-121h-608v121h127v502q0 200 -31 251t-113 52q-96 0 -147.5 -72t-51.5 -207v-526h127v-121h-632z" />
<glyph unicode="&#x272;" horiz-adv-x="1488" d="M-152 -190h113q4 -82 33 -117t94 -35q74 0 102.5 47t28.5 170v410l2 657h-151v121h505v-150q66 96 146 137.5t207 41.5q178 0 270 -104.5t92 -311.5v-555h152v-121h-635v121h129v565q0 135 -35 188q-33 51 -119 52q-111 0 -157 -78q-49 -80 -50 -250v-598h-2v-125 q0 -164 -114 -246q-119 -84 -340 -84q-53 0 -129 11q-59 8 -142 28v226z" />
<glyph unicode="&#x273;" horiz-adv-x="1488" d="M70 0v121h151v821h-151v121h505v-150q66 96 146 137.5t207 41.5q178 0 270 -104.5t92 -311.5v-676h-2v-125q0 -123 29 -170t102 -47q68 0 97 35q27 33 30 117h113v-226q-82 -20 -141 -28q-76 -10 -127 -11q-223 0 -342 84q-115 82 -115 246v361q0 14 1 25t1 24v401 q0 135 -35 188q-33 51 -119 52q-111 0 -157 -78q-49 -80 -50 -250v-477h130v-121h-635z" />
<glyph unicode="&#x274;" horiz-adv-x="1458" d="M127 0v123h137v815h-137v125h336l610 -625v500h-102v125h372v-125h-137v-938h-186l-623 635v-512h105v-123h-375z" />
<glyph unicode="&#x275;" horiz-adv-x="1363" d="M84 532q0 264 159.5 412t440.5 148t440.5 -147.5t159.5 -412.5q0 -261 -160 -411q-158 -150 -440.5 -150t-439.5 150q-160 150 -160 411zM479 479q2 -209 45 -299q45 -96 160 -96q111 0 158 96q43 90 45 299h-408zM479 600h408q-6 205 -45 285q-45 94 -158 94 q-115 0 -160 -96q-39 -80 -45 -283z" />
<glyph unicode="&#x276;" horiz-adv-x="2172" d="M127 535q0 158 86 274.5t242 179.5q106 43 233 60q135 18 344 18h1008v-252h-137v156h-488v-344h250v137h137v-371h-137v137h-250v-432h506v154h137v-252h-1026q-207 0 -342 18q-129 18 -235 60q-156 61 -242 180q-86 120 -86 277zM549 535q0 -244 174 -392 q66 -57 178 -57h127v895h-127q-86 0 -168 -57q-184 -123 -184 -389z" />
<glyph unicode="&#x277;" horiz-adv-x="1533" d="M84 399q0 76 22 160q27 102 66 168q217 358 590 358t590 -358q39 -66 65 -168q25 -92 25 -160q0 -205 -92 -315q-94 -113 -263 -113q-125 0 -208 78q-86 80 -117 223q-29 -143 -115 -223q-84 -78 -209 -78q-168 0 -262 113q-92 110 -92 315zM410 430q0 -365 88 -364 q29 0 102 196q39 104 39 227v39h248v-39q0 -123 39 -227q70 -197 100 -196q94 0 90 364q0 172 -55 342q-92 197 -299 201q-203 4 -297 -201q-55 -170 -55 -342z" />
<glyph unicode="&#x278;" horiz-adv-x="1363" d="M-6 532.5q0 262.5 182 411.5q150 117 371 141v351h-197v120h658v-120h-195l-2 -351q238 -25 381 -141q182 -150 182 -412t-182 -411q-150 -119 -381 -144v-292h197v-121h-658v121h197v292q-223 25 -371 144q-182 149 -182 411.5zM414 532.5q0 -258.5 59 -352.5 q28 -43 74 -67v837q-46 -25 -74 -67q-59 -92 -59 -350.5zM811 109q53 25 82 71q59 92 59 352.5t-59 352.5q-27 43 -82 69v-845z" />
<glyph unicode="&#x279;" horiz-adv-x="1169" d="M59 -12v317h113q6 -84 45 -127q39 -41 117 -41q115 0 182 103q68 101 68 282v420h-193v121h699v-121h-152v-821h162v-121h-516v188q-53 -113 -138 -163q-88 -53 -208 -54q-18 0 -76 4q-46 5 -103 13z" />
<glyph unicode="&#x27a;" horiz-adv-x="1169" d="M59 -12v317h113q6 -84 45 -127q39 -41 117 -41q115 0 182 103q68 104 68 282v914h-193v120h699v-120h-152v-1315h162v-121h-516v188q-53 -113 -138 -163q-88 -53 -208 -54q-18 0 -76 4q-46 5 -103 13z" />
<glyph unicode="&#x27b;" horiz-adv-x="1169" d="M59 -12v317h113q0 -84 45 -127q41 -41 117 -41q115 0 182 103q68 101 68 282v420h-193v121h699v-121h-152v-1067q0 -125 31 -170q29 -47 100 -47q66 0 96 37q27 33 31 115h115v-226q-82 -20 -142 -28q-76 -10 -129 -11q-225 0 -340 82q-115 84 -114 248v125h-2v188 q-51 -109 -138 -163q-88 -53 -208 -54q-47 0 -76 4q-44 3 -103 13z" />
<glyph unicode="&#x27c;" horiz-adv-x="1077" d="M59 942v121h516v-189q53 113 138 164q88 53 209 54q18 0 75 -5q45 -4 103 -12v-317h-113q-6 82 -47 127q-39 41 -115 41q-117 0 -184 -103q-66 -100 -66 -282v-844h193v-121h-698v121h151v1245h-162z" />
<glyph unicode="&#x27d;" horiz-adv-x="1077" d="M59 942v121h516v-189q53 113 138 164q88 53 209 54q18 0 75 -5q45 -4 103 -12v-317h-113q-6 82 -47 127q-39 41 -115 41q-117 0 -184 -103q-66 -98 -66 -282v-541v-125q0 -123 29 -170t103 -47q66 0 94 35t33 117h112v-226q-82 -20 -141 -28q-76 -10 -127 -11 q-223 0 -342 84q-115 82 -115 246v125v942h-162z" />
<glyph unicode="&#x27e;" horiz-adv-x="923" d="M70 0v121h151v641q0 164 115 246q119 84 342 84q51 0 127 -11q59 -8 141 -28v-226h-112q-4 82 -33 117t-94 35q-74 0 -103 -47q-29 -51 -29 -170v-641h193v-121h-698z" />
<glyph unicode="&#x27f;" horiz-adv-x="995" d="M70 827v226q82 20 141 28q76 10 129 11q221 0 340 -84q115 -82 115 -246v-641h151v-121h-698v121h192v641q0 119 -28 170q-29 47 -103 47q-66 0 -94.5 -35t-32.5 -117h-112z" />
<glyph unicode="&#x280;" horiz-adv-x="1638" d="M127 0v121h176v821h-176v121h727q180 0 297 -53q12 -6 39 -21q131 -74 131 -213q0 -109 -92 -174q-80 -55 -172 -74q-43 -8 -74 -10q86 -10 137 -41q57 -35 99 -94l145 -262h162v-121h-455l-182 322q-45 72 -72 104q-14 16 -24 23q-31 18 -48 22q-20 4 -43 4h-55v-354 h176v-121h-696zM647 598h121q106 0 158 49q63 61 63 123q0 72 -53 115q-45 35 -86 47q-35 10 -82 10h-121v-344z" />
<glyph unicode="&#x281;" horiz-adv-x="1638" d="M127 0v121h176v821h-176v121h696v-121h-176v-354h55q23 0 43 4q16 4 48 22q10 6 24 23q27 33 72 104l182 322h455v-121h-162l-145 -260q-45 -63 -99 -96q-51 -31 -137 -41q31 -2 74 -10q92 -18 172 -74q92 -63 92 -174q0 -139 -131 -213q-27 -14 -39 -21 q-117 -53 -297 -53h-727zM647 121h121q47 0 82 10q41 12 86 47q53 43 53 115q0 61 -63 123q-53 51 -158 51h-121v-346z" />
<glyph unicode="&#x282;" horiz-adv-x="1150" d="M88 750q0 172 121 258q117 84 369 84q100 0 200 -15q104 -14 236 -49v-268h-113q-10 109 -77.5 164t-196.5 55q-106 0 -164 -35q-55 -35 -55 -100q0 -51 32 -84q31 -31 115 -53l145 -37q207 -51 289 -131q80 -76 80 -217q0 -178 -129 -264.5t-399 -86.5q-59 0 -90 2v-98 q0 -123 28.5 -170t102.5 -47q66 0 94.5 35t32.5 117h112v-226q-82 -20 -141 -28q-76 -10 -127 -11q-223 0 -342 84q-115 82 -115 246v156v254v43h113q14 -117 90 -180.5t203 -63.5q108 0 166 37q57 37 57 108q0 65 -37 99q-41 39 -141 61l-146 37q-168 43 -239 119 q-74 78 -74 205z" />
<glyph unicode="&#x283;" horiz-adv-x="677" d="M-152 -193h113q4 -84 31 -116q29 -35 96 -35q74 0 102 47q43 74 29 170l-201 1323q-29 176 113 268q114 92 332 92q78 0 166 -10q78 -8 159 -28v-228h-112q-10 82 -45 117q-37 37 -107 37q-84 0 -116 -58q-53 -57 -35 -186l200 -1327q23 -147 -114 -248 q-115 -82 -342 -82q-51 0 -127 11q-59 8 -142 28v225z" />
<glyph unicode="&#x284;" horiz-adv-x="880" d="M-152 -190h113q4 -84 31 -117q29 -35 96 -35q74 0 102.5 47t28.5 170v604h-149v121h149v342h-151h-5v121h5h153v133q0 176 113 268q114 92 332 92q78 0 165 -10q78 -8 160 -28v-228h-112q-10 82 -45 117q-37 37 -107 37q-84 0 -117 -58q-35 -55 -35 -186v-258h-2v-342 h154v-121h-154v-604q0 -163 -116 -246q-119 -84 -340 -84q-51 0 -127 11q-59 8 -142 28v226z" />
<glyph unicode="&#x285;" horiz-adv-x="1105" d="M84 813v229q82 20 160 29q72 8 166 8q206 0 331 -92q150 -111 113 -266l-201 -846q-20 -86 29 -170q29 -47 102 -47q66 0 94.5 35t32.5 117h113v-226q-82 -20 -141 -28q-76 -10 -127 -11q-227 0 -342 82q-150 109 -115 248l201 850q25 106 -35 184q-43 59 -117 60 q-68 0 -106 -39q-35 -35 -45 -117h-113z" />
<glyph unicode="&#x286;" horiz-adv-x="677" d="M-131 -231q0 152 149 188q49 12 111 12q51 0 76 -2l-187 1229q-25 168 113 268q126 92 332 92q78 0 166 -10q78 -8 159 -28v-228h-112q-10 82 -45 117q-37 37 -107 37q-74 0 -116 -58q-53 -68 -35 -186l200 -1327v-8q98 -57 134 -119q47 -82 47 -170h-111q-12 80 -41 125 q-18 28 -43 49q-29 -72 -100 -125q-113 -82 -244 -82q-346 3 -346 226zM0 -246q0 -88 131 -82q33 4 59 31q47 45 29 170l-2 4q-12 2 -33 2q-184 2 -184 -125z" />
<glyph unicode="&#x287;" horiz-adv-x="1007" d="M70 803q10 162 88 225.5t270 63.5q219 0 297 -68t78 -252v-651h153v-121h-153v-330h-354v330h-295v121h295v651q0 137 -23 172t-80 35q-63 0 -94 -43q-29 -41 -33 -133h-149z" />
<glyph unicode="&#x288;" horiz-adv-x="944" d="M49 942v121h154v330h354v-330h295v-121h-295v-1067q0 -123 28.5 -170t102.5 -47q68 0 96 35q27 33 31 117h113v-226q-82 -20 -142 -28q-76 -10 -127 -11q-221 0 -340 84q-117 83 -116 246v1067h-154z" />
<glyph unicode="&#x289;" horiz-adv-x="1488" d="M47 942v121h506v-463h360v342h-129v121h484v-463h141v-121h-141v-358h151v-121h-506v150q-66 -96 -145.5 -137.5t-206.5 -41.5q-178 0 -270 104.5t-92 311.5v92h-129v121h129v342h-152zM553 442q0 -201 33 -252q35 -53 121 -53q111 0 157 78q49 80 49 252v12h-360v-37z " />
<glyph unicode="&#x28a;" horiz-adv-x="1390" d="M84 510q0 141 104 270q106 131 281 195h-383v121h512v-164q-35 -25 -86 -150q-41 -94 -41 -256q0 -186 61 -297q66 -113 164 -112q100 0 164 112q63 109 64 297q0 162 -43 256q-55 125 -82 150v164h409v-121h-280q174 -63 278.5 -192.5t104.5 -272.5q0 -104 -51 -207 q-49 -98 -142 -172q-84 -70 -190 -102q-102 -35 -232 -35q-119 0 -229 35q-106 33 -191 102q-94 72 -143 172q-49 98 -49 207z" />
<glyph unicode="&#x28b;" horiz-adv-x="1419" d="M70 942v121h505v-717q0 -225 152 -225q98 0 164 112q61 111 61 297q0 166 -41 256q-53 121 -84 150v43h129q178 -66 280.5 -193t102.5 -272q0 -109 -49 -207t-141 -172q-84 -70 -191 -102q-102 -35 -231 -35q-506 2 -506 350v594h-151z" />
<glyph unicode="&#x28c;" horiz-adv-x="1312" d="M70 0v121h123l376 942h285l377 -942h117v-121h-611v121h129l-268 672l-268 -672h139v-121h-399z" />
<glyph unicode="&#x28d;" horiz-adv-x="1855" d="M70 0v121h125l321 942h244l225 -666l227 666h242l322 -942h116v-121h-602v121h125l-196 575l-238 -696h-211l-242 709l-200 -588h139v-121h-397z" />
<glyph unicode="&#x28e;" horiz-adv-x="1300" d="M70 0v121h129l471 1182q49 117 116.5 166t182.5 49q57 0 108 -11q68 -14 131 -32v-222h-112q-4 78 -37 115q-35 37 -101 37q-68 0 -104 -35q-40 -37 -80 -135l-16 -37l463 -1077h114v-121h-612v121h127l-270 629l-252 -629h141v-121h-399z" />
<glyph unicode="&#x28f;" horiz-adv-x="1486" d="M127 944v121h717v-121h-166l209 -356l207 356h-150v121h428v-121h-127l-287 -489v-334h201v-121h-788v121h200v282l-315 541h-129z" />
<glyph unicode="&#x290;" horiz-adv-x="1161" d="M72 0v121l610 825h-459v-182h-119v299h990v-119l-611 -825h611v-31h2v-213q0 -123 28.5 -170t102.5 -47q68 0 96 35q27 33 31 117h112v-226q-82 -20 -141 -28q-76 -10 -127 -11q-221 0 -340 82q-117 82 -117 248v125h-669z" />
<glyph unicode="&#x291;" horiz-adv-x="1161" d="M72 0v121l610 825h-459v-182h-119v299h990v-119l-611 -825h60q4 16 8 22q59 139 145 193q145 94 285 51q111 -34 111 -184q0 -197 -439 -201v-39v-143h-137l2 143q0 27 2 39h-448zM676 119h39q254 0 266 86q18 100 -168 65q-88 -18 -137 -151z" />
<glyph unicode="&#x292;" horiz-adv-x="1161" d="M72 -8h121q12 -145 88 -217q76 -74 217 -74q152 0 233 84q84 88 84 240q0 160 -86 249q-86 88 -246 88h-65v226l264 358h-459v-182h-119v299h990v-119l-365 -491q221 -20 334 -107q160 -121 160 -330q0 -211 -166 -321.5t-479 -110.5q-123 0 -244 21q-139 25 -262 59v328 z" />
<glyph unicode="&#x293;" horiz-adv-x="1161" d="M104 764v299h990v-119l-365 -491q221 -20 334 -107q160 -121 160 -330q0 -182 -127 -290q18 -53 18 -109h-110l-9 43q-158 -76 -417 -76q-348 0 -349 226q0 174 197 194l66 4q182 0 319 -47q4 41 4 64q0 160 -86 249q-86 88 -246 88h-65v226l264 358h-459v-182h-119z M360 -207q0 -92 138 -92q151 0 233 86q31 33 53 78q-141 53 -239 53q-185 4 -185 -125z" />
<glyph unicode="&#x294;" horiz-adv-x="1097" d="M254 1294l2 199q59 33 129 49.5t137 16.5q258 0 359 -95q98 -92 98 -315q0 -238 -98 -324q-86 -74 -117 -84v-620h151v-121h-657v121h152v710h116q74 0 105 31q45 39 41 254q-2 231 -29 283q-25 47 -127 47q-88 0 -119 -37q-29 -35 -30 -115h-113z" />
<glyph unicode="&#x295;" horiz-adv-x="1097" d="M254 1149q0 225 96 315q100 94 359 95q70 0 139 -17q66 -16 127 -49l4 -199h-115q-2 80 -30 115q-31 37 -119 37q-102 0 -127 -47q-27 -51 -29 -283q-4 -215 41 -254q31 -31 105 -31h116v-710h152v-121h-658v121h152v620q-31 10 -117 84q-96 84 -96 324z" />
<glyph unicode="&#x296;" horiz-adv-x="1097" d="M254 264h113q3 -83 30 -117q29 -35 119 -34q102 0 127 47q27 51 29 282q4 215 -41 254q-29 29 -105 29h-116v713h-152v121h657v-121h-151v-621q28 -9 117 -86q98 -86 98 -321q0 -225 -98.5 -317.5t-358.5 -92.5q-68 0 -137.5 16.5t-128.5 49.5z" />
<glyph unicode="&#x297;" horiz-adv-x="1114" d="M254 -45v1194q0 225 96 315q100 94 359 95q70 0 139 -17q66 -16 127 -49l4 -199h-115q-2 80 -30 115q-31 37 -119 37q-102 0 -127 -47q-29 -57 -29 -283v-1130q0 -289 29 -283q25 -45 127 -45q90 0 118.5 35t30.5 114h115l-4 -196q-68 -37 -127 -51q-70 -16 -139 -17 q-258 0 -359 95q-96 90 -96 317z" />
<glyph unicode="&#x298;" horiz-adv-x="1783" d="M86 745q0 360 215 568q217 207 590 207q379 0 592 -205t213 -569.5t-215 -569.5q-213 -205 -590 -205q-379 0 -592 204.5t-213 569.5zM514 745.5q0 -325.5 94 -491.5q92 -162 282.5 -162t285.5 162q92 160 92 491.5t-92 491.5q-94 162 -285 162t-283 -162 q-94 -166 -94 -491.5zM760 745q0 53 39 93q37 39 92 39q53 0 92 -39q39 -43 39 -93q0 -53 -39 -92t-92 -39t-92 39q-39 37 -39 92z" />
<glyph unicode="&#x299;" horiz-adv-x="1421" d="M70 0v121h151v821h-151v121h718q473 0 474 -262q0 -96 -86 -152q-90 -57 -234 -69q186 -16 291 -84q109 -72 108 -189q0 -158 -151 -231q-156 -76 -453 -76h-667zM575 121h91q113 0 213 45q98 45 98 141q0 94 -88 144q-90 49 -223 49h-91v-379zM575 653h78q113 0 201 37 t88 111q0 68 -84 104q-86 37 -205 37h-78v-289z" />
<glyph unicode="&#x29a;" horiz-adv-x="1472" d="M84 258q0 104 100 174q106 72 285 96q-178 25 -285 97q-100 70 -100 172q0 143 143.5 219t417.5 76q113 0 197 -19q104 -22 172 -55q367 -180 366 -490q0 -336 -366 -489q-114 -46 -172 -55q-160 -20 -164 -21q-305 0 -451 78q-143 76 -143 217zM451 268q0 -96 57 -147 q61 -51 166 -51q55 0 90 12q66 23 100 45q217 150 217 397q0 274 -217 400q-61 35 -100 45q-74 18 -90 18q-109 0 -166 -51t-57 -148q0 -76 69 -137q70 -63 209 -63h39v-121h-39q-141 0 -209 -61q-69 -64 -69 -138z" />
<glyph unicode="&#x29b;" horiz-adv-x="1282" d="M127 526.5q0 245.5 154 393.5q156 145 417 145q27 0 80 -4v166q0 164 115 246q119 84 342 83q51 0 127 -10q59 -8 141 -28v-226h-112q-2 80 -33 115q-31 37 -94 37q-74 0 -102.5 -47t-28.5 -170v-252v-160v-94h-127q-23 119 -121 199q-70 61 -150 61q-115 0 -190 -111 q-76 -106 -76 -344q0 -233 71.5 -341.5t180.5 -108.5q49 0 106 39l2 297h-145v84h483v-398q-115 -53 -231 -82q-117 -25 -238 -24q-270 0 -417 141q-154 148 -154 393.5z" />
<glyph unicode="&#x29c;" horiz-adv-x="1497" d="M70 0v121h151v821h-151v121h635v-121h-130v-319h349v319h-131v121h637v-121h-152v-821h152v-121h-637v121h131v381h-349v-381h130v-121h-635z" />
<glyph unicode="&#x29d;" horiz-adv-x="784" d="M223 1364q0 82 55.5 137t137.5 55q80 0 135 -55t55 -137q0 -80 -55 -135t-135 -55q-82 0 -137.5 55t-55.5 135zM-86 -231q0 199 254 200h6q33 0 90 -4v977h-151v121h505v-1196q180 -104 181 -291h-111q-12 80 -37 117q-27 39 -53 63q-29 -80 -96 -129q-115 -84 -242 -84 q-346 1 -346 226zM45 -246q0 -82 113 -82q2 0 12 1t16 1q16 0 50 29q29 29 28 172v2q-12 2 -28 2h-13q-178 0 -178 -125z" />
<glyph unicode="&#x29e;" horiz-adv-x="1515" d="M84 942v121h610v-121h-125l295 -379l99 88v412h505v-121h-151v-1247h151v-121h-639v121h134v811l-428 -385h127v-121h-486v121h197l274 246l-448 575h-115z" />
<glyph unicode="&#x29f;" horiz-adv-x="1320" d="M127 0v121h192v821h-192v121h770v-121h-192v-805h366v236h135v-373h-1079z" />
<glyph unicode="&#x2a0;" horiz-adv-x="1431" d="M84 532q0 258 129 410q129 150 356 150q113 0 189 -39q72 -39 121 -123v297q0 164 114 246q119 84 340 83q53 0 129 -10q59 -8 142 -28v-226h-113q-2 80 -33 115q-31 37 -94 37q-74 0 -102.5 -47t-28.5 -170v-1532h151v-121h-669v121h164v440q-47 -84 -121 -123 q-78 -41 -189 -41q-227 0 -356 150t-129 411zM479 532q0 -229 45 -317t154 -88q104 0 153 84q47 80 48 268v105q0 190 -48 270q-49 82 -153 82q-109 0 -154 -88q-45 -91 -45 -316z" />
<glyph unicode="&#x2a1;" horiz-adv-x="1097" d="M254 1294l2 199q59 33 129 49.5t137 16.5q258 0 359 -95q98 -92 98 -315q0 -238 -98 -324q-86 -74 -117 -84v-141h147v-121h-147v-358h151v-121h-151h-354h-152v121h152v358h-154v121h154v231h116q74 0 105 31q45 39 41 254q-2 231 -29 283q-25 47 -127 47 q-88 0 -119 -37q-29 -35 -30 -115h-113z" />
<glyph unicode="&#x2a2;" horiz-adv-x="1097" d="M254 1149q0 225 96 315q100 94 359 95q70 0 139 -17q66 -16 127 -49l4 -199h-115q-2 80 -30 115q-31 37 -119 37q-102 0 -127 -47q-27 -51 -29 -283q-4 -215 41 -254q31 -31 105 -31h116v-231h156v-121h-156v-358h152v-121h-152h-354h-152v121h152v358h-148v121h148v141 q-31 10 -117 84q-96 84 -96 324z" />
<glyph unicode="&#x2a3;" horiz-adv-x="2285" d="M84 532q0 258 129 410q129 150 356 150q111 0 189 -41q74 -39 121 -123v508h-152v120h506v-493h985v-119l-610 -825h610v-119h-834h-188h-317v135q-47 -84 -121 -123q-78 -41 -189 -41q-227 0 -356 150t-129 411zM479 532q0 -229 45 -317t154 -88q104 0 153 84 q47 80 48 268v105q0 190 -48 270q-49 82 -153 82q-109 0 -154 -88q-45 -91 -45 -316zM1233 170l573 776h-458v-182h-115v-594z" />
<glyph unicode="&#x2a4;" horiz-adv-x="2414" d="M84 532q0 258 129 410q129 150 356 150q111 0 189 -41q74 -39 121 -123v508h-152v120h506v-493h985v-119l-365 -491q217 -20 332 -107q162 -121 162 -330q0 -211 -166 -321.5t-479 -110.5q-123 0 -244 21q-143 25 -264 59v328h123q12 -145 88 -217q78 -74 217 -74 q152 0 233 84q84 88 84 240q0 160 -86 249q-86 88 -245 88h-68v226l266 358h-458v-182h-115v-643h151v-121h-505v135q-47 -84 -121 -123q-78 -41 -189 -41q-227 0 -356 150t-129 411zM479 532q0 -229 45 -317t154 -88q104 0 153 84q47 80 48 268v105q0 190 -48 270 q-49 82 -153 82q-109 0 -154 -88q-45 -91 -45 -316z" />
<glyph unicode="&#x2a5;" horiz-adv-x="2285" d="M84 532q0 258 129 410q129 150 356 150q111 0 189 -41q74 -39 121 -123v508h-152v120h506v-493h985v-119l-610 -825h59q4 16 8 22q59 139 146 193q145 92 282 51q113 -35 113 -184q0 -197 -438 -201v-39v-143h-138l2 143q0 27 3 39h-261h-188h-317v135q-47 -84 -121 -123 q-78 -41 -189 -41q-227 0 -356 150t-129 411zM479 532q0 -229 45 -317t154 -88q104 0 153 84q47 80 48 268v105q0 190 -48 270q-49 82 -153 82q-109 0 -154 -88q-45 -91 -45 -316zM1233 170l573 776h-458v-182h-115v-594zM1800 119h37q256 0 266 86q8 68 -33.5 84 t-132.5 -19q-96 -36 -137 -151z" />
</font>
</defs>
</svg>
