<?xml version="1.0" standalone="no"?>
<!DOCTYPE svg PUBLIC "-//W3C//DTD SVG 1.1//EN" "http://www.w3.org/Graphics/SVG/1.1/DTD/svg11.dtd" >
<svg>
<metadata>
Created by FontForge 20110222 at Wed Jun  5 06:25:21 2013
 By Ubuntu
Copyright (c) 1990, 2001 Adobe Systems Incorporated.  All Rights Reserved.
</metadata>
<defs>
<font id="CenturyStd-BookCondensedIt" horiz-adv-x="444" >
  <font-face 
    font-family="ITC Century Std Book Cond"
    font-weight="400"
    font-style="italic"
    font-stretch="condensed"
    units-per-em="1000"
    panose-1="0 0 5 6 0 0 0 0 0 0"
    ascent="688"
    descent="-312"
    x-height="490"
    cap-height="688"
    bbox="-222 -216 970 918"
    underline-thickness="50"
    underline-position="-50"
    slope="-16"
    unicode-range="U+0020-FB02"
  />
<missing-glyph horiz-adv-x="586" 
d="M86 0v700h500v-700h-500zM336 395l170 255h-340zM366 350l170 -255v510zM166 50h340l-170 255zM136 605v-510l170 255z" />
    <glyph glyph-name="fi" unicode="fi" horiz-adv-x="574" 
d="M103 444h-77l8 34h80q30 97 108 161.5t177 64.5q55 0 85 -20t30 -54q0 -30 -17 -50t-42 -20q-20 0 -30.5 13t-10.5 33q0 16 12 31t12 18q0 15 -39 15q-78 0 -133.5 -52t-74.5 -140h287q-24 -81 -46.5 -156t-34.5 -112t-21.5 -70t-13 -50t-3.5 -32q0 -36 25 -36
q54 0 117 166l26 -10q-34 -93 -73 -141.5t-88 -48.5q-36 0 -55.5 29.5t-19.5 76.5q0 16 3 35t12 52t17.5 60t28 90.5t34.5 112.5h-201q-8 -39 -26 -131t-29 -143.5t-29.5 -114t-37.5 -98.5q-78 -149 -174 -149q-36 0 -60.5 21.5t-24.5 58.5q0 31 18 49.5t42 18.5
q19 0 32.5 -12t13.5 -30t-9.5 -29t-19 -18t-9.5 -14q0 -11 25 -11q37 0 72.5 48t54.5 157q8 44 16 101t13 87t17.5 84.5t32.5 124.5z" />
    <glyph glyph-name="fl" unicode="fl" horiz-adv-x="574" 
d="M379 444h-194q-8 -39 -26 -131t-29 -143.5t-29.5 -114t-37.5 -98.5q-78 -149 -174 -149q-36 0 -60.5 21.5t-24.5 58.5q0 31 18 49.5t42 18.5q19 0 32.5 -12t13.5 -30t-9.5 -29t-19 -18t-9.5 -14q0 -11 25 -11q37 0 72.5 48t54.5 157q7 44 15.5 101.5t13.5 87t18 84
t33 124.5h-78l8 34h79q31 97 110.5 161.5t179.5 64.5q15 0 63 -12l72 4q-173 -606 -172 -638q2 -36 25 -36q46 0 109 166l26 -10q-34 -93 -73 -141.5t-88 -48.5q-35 0 -55 26.5t-20 61.5q0 17 4 42t8.5 47.5t15 61.5t17.5 63.5t22 76.5t22 77zM192 478h197q5 19 15.5 56
t13.5 48q-6 12 -6 19q0 21 13 36.5t13 20.5q0 12 -43 12q-77 0 -130 -52t-73 -140z" />
    <glyph glyph-name=".notdef" horiz-adv-x="586" 
d="M86 0v700h500v-700h-500zM336 395l170 255h-340zM366 350l170 -255v510zM166 50h340l-170 255zM136 605v-510l170 255z" />
    <glyph glyph-name=".null" horiz-adv-x="0" 
 />
    <glyph glyph-name="nonmarkingreturn" horiz-adv-x="333" 
 />
    <glyph glyph-name="space" unicode=" " horiz-adv-x="222" 
 />
    <glyph glyph-name="exclam" unicode="!" horiz-adv-x="278" 
d="M106 194h-40q20 79 31.5 137t15 85t9.5 81t10 87q15 120 76 120q20 0 33 -13.5t13 -33.5q0 -30 -24 -94t-62 -167.5t-62 -201.5zM-6 48q0 27 17 47.5t39 20.5q23 0 36.5 -15.5t13.5 -40.5q0 -27 -17 -47.5t-39 -20.5q-23 0 -36.5 15.5t-13.5 40.5z" />
    <glyph glyph-name="quotedbl" unicode="&#x22;" horiz-adv-x="333" 
d="M241 422l-14 180q0 2 -2 20t-2 26q0 56 35 56t35 -56q0 -8 -2 -26t-2 -20l-14 -180q-2 -30 -17 -30t-17 30zM99 422l-14 180q0 2 -2 20t-2 26q0 56 35 56t35 -56q0 -8 -2 -26t-2 -20l-14 -180q-2 -30 -17 -30t-17 30z" />
    <glyph glyph-name="numbersign" unicode="#" 
d="M390 270v-52h-91l-31 -218h-56l31 218h-104l-31 -218h-56l31 218h-93v52h99l22 148h-93v52h99l31 218h56l-31 -218h104l31 218h56l-31 -218h85v-52h-91l-22 -148h85zM271 418h-104l-22 -148h104z" />
    <glyph glyph-name="dollar" unicode="$" 
d="M120 32l74 294q-80 63 -80 161q0 81 50.5 138t119.5 63l16 62h34l-16 -62q53 -7 79.5 -37.5t26.5 -63.5q0 -38 -16.5 -59.5t-40.5 -21.5q-22 0 -35.5 13.5t-13.5 34.5q0 27 18 45.5t18 29.5q0 10 -12.5 17t-31.5 8l-60 -238q100 -93 100 -180q0 -95 -58.5 -161.5
t-145.5 -74.5l-20 -82h-34l20 82q-52 6 -88 43.5t-36 97.5q0 40 18 66.5t47 26.5q21 0 36 -16.5t15 -38.5q0 -51 -68 -70q0 -33 25 -54t59 -23zM222 302l-68 -268q54 6 91 52t37 103t-60 113zM222 436l54 218q-49 -8 -74.5 -41.5t-25.5 -84.5q0 -49 46 -92z" />
    <glyph glyph-name="percent" unicode="%" horiz-adv-x="593" 
d="M116 449q0 -61 40 -61q31 0 55.5 42.5t35.5 93.5t11 91q0 61 -40 61q-31 0 -55.5 -42.5t-35.5 -93.5t-11 -91zM576 704l-538 -720h-50l538 720h50zM300 73q0 -61 40 -61q31 0 55.5 42.5t35.5 93.5t11 91q0 61 -40 61q-31 0 -55.5 -42.5t-35.5 -93.5t-11 -91zM222 704
q39 0 65.5 -35.5t26.5 -89.5q0 -92 -51.5 -155.5t-110.5 -63.5q-39 0 -65.5 35.5t-26.5 89.5q0 92 51.5 155.5t110.5 63.5zM406 328q39 0 65.5 -35.5t26.5 -89.5q0 -92 -51.5 -155.5t-110.5 -63.5q-39 0 -65.5 35.5t-26.5 89.5q0 92 51.5 155.5t110.5 63.5z" />
    <glyph glyph-name="ampersand" unicode="&#x26;" horiz-adv-x="630" 
d="M-16 151q0 43 15 78t46.5 62t58.5 44t70 39q-16 56 -16 116q0 97 52 155.5t130 58.5q60 0 96 -34.5t36 -84.5q0 -37 -17 -68.5t-53 -58.5t-60 -41t-70 -37q25 -104 82 -232q27 46 68 159q36 97 91 97q24 0 38.5 -17t14.5 -41q0 -28 -15 -48t-36 -20q-13 0 -21 5t-10.5 11
t-6 11t-9.5 5q-9 0 -27 -54q-33 -91 -68 -146q28 -64 58 -64q51 0 93 126l30 -12q-27 -84 -69.5 -130t-95.5 -46q-22 0 -46 15t-41 39q-66 -54 -154 -54q-78 0 -121 46.5t-43 120.5zM84 178q0 -74 31 -110t83 -36q43 0 87 37q-26 44 -55 119.5t-46 145.5q-100 -48 -100 -156
zM246 526q0 -56 16 -110q136 68 136 180q0 74 -64 74q-35 0 -61.5 -40t-26.5 -104z" />
    <glyph glyph-name="quotesingle" unicode="'" horiz-adv-x="222" 
d="M102 422l-14 180q0 2 -2 20t-2 26q0 56 35 56t35 -56q0 -8 -2 -26t-2 -20l-14 -180q-2 -30 -17 -30t-17 30z" />
    <glyph glyph-name="parenleft" unicode="(" horiz-adv-x="389" 
d="M374 730l-12 -40q-64 -5 -120 -63q-81 -83 -136.5 -282.5t-55.5 -298.5q0 -83 22 -131.5t70 -70.5l-10 -36q-62 17 -106 91t-44 187q0 172 63.5 333.5t166.5 243.5q70 56 162 67z" />
    <glyph glyph-name="parenright" unicode=")" horiz-adv-x="389" 
d="M-54 -192l12 40q64 5 120 63q81 83 136.5 282.5t55.5 298.5q0 83 -22 131.5t-70 70.5l10 36q62 -17 106 -91t44 -187q0 -172 -63.5 -333.5t-166.5 -243.5q-70 -56 -162 -67z" />
    <glyph glyph-name="asterisk" unicode="*" horiz-adv-x="407" 
d="M214 540v8q-25 27 -55 41t-44.5 22t-14.5 27q0 14 10 24t24 10q15 0 24.5 -12.5t15 -29t19 -38t33.5 -36.5l6 2q10 42 10 61q0 9 -3 25t-3 25q0 15 9 25t23 10q15 0 24.5 -8.5t9.5 -22.5t-9 -25.5t-24 -36t-25 -61.5l4 -4q50 14 78.5 36.5t44.5 22.5q13 0 21 -10.5
t8 -25.5q0 -12 -11 -21.5t-26 -9.5q-3 0 -23.5 4t-27.5 4q-12 0 -62 -12v-8q19 -22 42 -35.5t37.5 -18t24.5 -13.5t10 -24q0 -13 -9 -22t-22 -9q-16 0 -24.5 11t-12.5 26t-18.5 37.5t-39.5 39.5l-6 -2q-10 -42 -10 -61q0 -8 3 -24.5t3 -25.5q0 -15 -9.5 -25t-25.5 -10
q-13 0 -23 8.5t-10 22.5t9.5 25.5t25 36t25.5 61.5l-4 4q-31 -9 -53.5 -21t-31 -20t-18.5 -13.5t-22 -5.5t-20.5 10t-8.5 23q0 14 9 23.5t22 9.5q8 0 30.5 -3t28.5 -3q12 0 62 12z" />
    <glyph glyph-name="plus" unicode="+" horiz-adv-x="600" 
d="M235 267v211h56v-211h211v-56h-211v-211h-56v211h-211v56h211z" />
    <glyph glyph-name="comma" unicode="," horiz-adv-x="222" 
d="M-51 -213l-27 23q39 46 69.5 96.5t34.5 81.5q-62 6 -62 65q0 27 15.5 45t40.5 18q24 0 40 -19.5t16 -50.5q0 -111 -127 -259z" />
    <glyph glyph-name="hyphen" unicode="-" horiz-adv-x="259" 
d="M194 270l-16 -62h-190l16 62h190z" />
    <glyph glyph-name="period" unicode="." horiz-adv-x="222" 
d="M-32 48q0 27 17 47.5t39 20.5q23 0 36.5 -15.5t13.5 -40.5q0 -27 -17 -47.5t-39 -20.5q-23 0 -36.5 15.5t-13.5 40.5z" />
    <glyph glyph-name="slash" unicode="/" horiz-adv-x="278" 
d="M310 704h62l-435 -720h-62z" />
    <glyph glyph-name="zero" unicode="0" 
d="M134 -16q-35 0 -62 22t-42 57t-22.5 73.5t-7.5 77.5q0 89 27.5 180.5t68.5 158t90.5 109t91.5 42.5q35 0 62 -22t42 -57t22.5 -73.5t7.5 -77.5q0 -89 -27.5 -180.5t-68.5 -158t-90.5 -109t-91.5 -42.5zM130 18q47 0 82 61t68 181q58 206 58 314q0 96 -56 96
q-47 0 -82 -61t-68 -181q-58 -206 -58 -314q0 -96 56 -96z" />
    <glyph glyph-name="one" unicode="1" 
d="M272 0h-282l8 28q51 3 76 20.5t36 57.5l132 492h-94l8 34q96 16 170 72h34q-8 -33 -52 -191.5t-79 -290t-35 -146.5q0 -28 16.5 -37t69.5 -11z" />
    <glyph glyph-name="two" unicode="2" 
d="M226 588l28 -8q-13 -85 -50 -140.5t-81 -55.5q-33 0 -50 22t-17 62q0 89 63.5 162.5t154.5 73.5q73 0 114.5 -44.5t41.5 -113.5q0 -59 -34.5 -116t-96.5 -101q-21 -15 -80.5 -52t-107.5 -73t-89 -80l2 -2q34 16 60 16q36 0 78 -27t65 -27q37 0 64.5 39.5t54.5 116.5
l28 -8q-73 -248 -185 -248q-28 0 -53 16.5t-39.5 36.5t-31.5 36.5t-32 16.5q-10 0 -16.5 -8.5t-6.5 -18.5q0 -6 2 -17t2 -17q0 -21 -11.5 -33t-28.5 -12q-14 0 -24 12.5t-10 31.5q0 35 39 92t125 125q56 45 90.5 75.5t71 73t53.5 86t17 92.5q0 92 -82 92q-67 0 -115.5 -64.5
t-48.5 -129.5q0 -52 33 -52q30 0 58.5 45t44.5 125z" />
    <glyph glyph-name="three" unicode="3" 
d="M252 588l28 -12q-17 -73 -55 -117.5t-76 -44.5q-33 0 -50 21.5t-17 53.5q0 78 60.5 146.5t137.5 68.5q66 0 109 -44t43 -110q0 -69 -45.5 -128t-112.5 -72v-2q38 -15 63 -51.5t25 -78.5q0 -98 -69.5 -166t-172.5 -68q-70 0 -111 36t-41 107q0 46 23 78.5t55 32.5
q20 0 33 -16.5t13 -39.5q0 -30 -16.5 -52t-44.5 -22q-11 0 -23 8v-8q0 -38 26 -61t73 -23q73 0 120 74t47 153q0 38 -11 60.5t-24 22.5q-11 0 -29 -6t-33 -6q-29 0 -29 23q0 10 7.5 16.5t19.5 6.5q8 0 22 -3t22 -3q52 0 85.5 69.5t33.5 139.5q0 42 -19.5 67.5t-56.5 25.5
q-51 0 -98.5 -55.5t-47.5 -113.5q0 -47 32 -47q29 0 54 32.5t50 107.5z" />
    <glyph glyph-name="four" unicode="4" 
d="M382 270l22 -16q-50 -86 -124 -108l-50 -186h-80l50 184q-27 7 -54.5 30.5t-45 42.5t-22.5 19q-7 0 -37 -20t-44 -20q-31 0 -31 25q0 20 22 34.5t50 14.5h22q38 67 81.5 191.5t66.5 242.5h88q-13 -83 -80.5 -226t-127.5 -214q24 -4 66.5 -28.5t61.5 -29.5l90 326h80
l-90 -328q56 12 86 66z" />
    <glyph glyph-name="five" unicode="5" 
d="M86 324l-28 22l116 358q27 -9 64 -12q29 -4 62 -4q41 0 83 8t46 8q8 0 11.5 -4t1.5 -12t-10 -18q-24 -32 -79 -60t-117 -28q-35 0 -62 6l-60 -178l2 -2q49 54 108 54q58 0 101 -53t43 -132q0 -112 -72 -202.5t-169 -90.5q-70 0 -106.5 37.5t-36.5 99.5q0 54 22.5 83.5
t50.5 29.5q21 0 33 -15t12 -40q0 -31 -20.5 -53t-47.5 -22h-10q1 -37 24 -58.5t61 -21.5q66 0 115.5 86t49.5 204q0 54 -18.5 81t-49.5 27q-33 0 -68 -32t-52 -66z" />
    <glyph glyph-name="six" unicode="6" 
d="M86 117q0 -47 17.5 -73t46.5 -26q37 0 70 49t51.5 119.5t18.5 138.5q0 53 -14 75t-43 22q-40 0 -74.5 -46.5t-53.5 -116.5t-19 -142zM140 404h2q51 58 108 58q55 0 91.5 -56t36.5 -128q0 -115 -71 -204.5t-150 -89.5q-64 0 -104.5 58.5t-40.5 166.5q0 121 46.5 237
t120 187t149.5 71q43 0 70.5 -26.5t27.5 -64.5q0 -34 -15 -60.5t-45 -26.5q-24 0 -38 14t-14 38q0 17 5.5 30.5t13.5 20.5t16 11.5t13.5 6t5.5 2.5q0 8 -11 14.5t-30 6.5q-55 0 -106 -71t-81 -195z" />
    <glyph glyph-name="seven" unicode="7" 
d="M68 420l-34 8l88 260h34l-22 -72l2 -2q20 30 55 60t66 30q24 0 42 -14.5t27 -31.5t23.5 -31.5t30.5 -14.5q19 0 32.5 8t13.5 15q0 4 -3 11.5t-3 15.5q0 16 11 29t24 13q27 0 27 -40q0 -26 -29 -64.5t-84.5 -109t-98.5 -146.5q-42 -75 -65 -150.5t-27.5 -116.5t-17.5 -67
t-43 -26q-19 0 -33 17.5t-14 52.5q0 42 18.5 92.5t42 92.5t65 98t68.5 88t72.5 84.5t57.5 66.5l-2 2q-26 -18 -66 -18q-34 0 -56.5 14.5t-38 29t-31.5 14.5q-52 0 -132 -198z" />
    <glyph glyph-name="eight" unicode="8" 
d="M-26 139q0 83 57.5 140t132.5 85q-70 76 -70 146q0 83 54 138.5t135 55.5q57 0 99 -37.5t42 -96.5q0 -67 -37 -107t-107 -77q88 -88 88 -174q0 -94 -70 -161t-164 -67q-67 0 -113.5 44t-46.5 111zM42 143q0 -56 27.5 -90.5t81.5 -34.5q58 0 97.5 48t39.5 105
q0 34 -16 66.5t-33 51t-52 53.5q-62 -28 -103.5 -81t-41.5 -118zM162 547q0 -15 5 -30t9.5 -24.5t18.5 -25.5t18 -20.5t23 -22t20 -18.5q48 24 77 68t29 97q0 45 -22.5 72t-66.5 27q-47 0 -79 -37.5t-32 -85.5z" />
    <glyph glyph-name="nine" unicode="9" 
d="M282 294h-2q-19 -29 -48.5 -48.5t-56.5 -19.5q-58 0 -97.5 50.5t-39.5 135.5q0 114 70 203t150 89q64 0 106 -60t42 -178q0 -109 -44 -221t-119 -186.5t-155 -74.5q-50 0 -80 27.5t-30 79.5q0 38 17.5 59.5t43.5 21.5q24 0 37.5 -15.5t13.5 -38.5q0 -28 -14 -43t-28 -20
t-14 -9q0 -11 15 -19.5t37 -8.5q35 0 65.5 21t51 51t38 70.5t26 71.5t15.5 62zM126 365q0 -55 13.5 -77t45.5 -22q55 0 94 90.5t39 182.5q0 131 -58 131q-50 0 -92 -92t-42 -213z" />
    <glyph glyph-name="colon" unicode=":" horiz-adv-x="222" 
d="M-32 48q0 27 17 47.5t39 20.5q23 0 36.5 -15.5t13.5 -40.5q0 -27 -17 -47.5t-39 -20.5q-23 0 -36.5 15.5t-13.5 40.5zM46 390q0 27 17 47.5t39 20.5q23 0 36.5 -15.5t13.5 -40.5q0 -27 -17 -47.5t-39 -20.5q-23 0 -36.5 15.5t-13.5 40.5z" />
    <glyph glyph-name="semicolon" unicode=";" horiz-adv-x="222" 
d="M-51 -213l-27 23q39 46 69.5 96.5t34.5 81.5q-62 6 -62 65q0 27 15.5 45t40.5 18q24 0 40 -19.5t16 -50.5q0 -111 -127 -259zM46 390q0 27 17 47.5t39 20.5q23 0 36.5 -15.5t13.5 -40.5q0 -27 -17 -47.5t-39 -20.5q-23 0 -36.5 15.5t-13.5 40.5z" />
    <glyph glyph-name="less" unicode="&#x3c;" horiz-adv-x="600" 
d="M496 52v-60l-478 219v56l478 219v-60l-411 -187z" />
    <glyph glyph-name="equal" unicode="=" horiz-adv-x="600" 
d="M502 359v-56h-478v56h478zM502 175v-56h-478v56h478z" />
    <glyph glyph-name="greater" unicode="&#x3e;" horiz-adv-x="600" 
d="M36 426v60l478 -219v-56l-478 -219v60l411 187z" />
    <glyph glyph-name="question" unicode="?" horiz-adv-x="407" 
d="M124 480l-28 -16q-16 34 -16 74q0 64 45.5 115t110.5 51q63 0 103.5 -43.5t40.5 -101.5q0 -122 -145 -186q-73 -33 -98 -56t-25 -61q0 -15 7.5 -26.5t20.5 -11.5q14 0 30.5 18.5t27.5 51.5l24 -16q-12 -40 -36 -64t-47 -24q-29 0 -45 21.5t-16 48.5q0 37 16 67.5
t39.5 49.5t51.5 40.5t51.5 41.5t39.5 53t16 74q0 39 -18 64.5t-50 25.5q-44 0 -77 -40t-33 -93q0 -30 10 -57zM24 48q0 27 17 47.5t39 20.5q23 0 36.5 -15.5t13.5 -40.5q0 -27 -17 -47.5t-39 -20.5q-23 0 -36.5 15.5t-13.5 40.5z" />
    <glyph glyph-name="at" unicode="@" horiz-adv-x="800" 
d="M359 190q46 0 91.5 80.5t45.5 151.5q0 26 -15 45t-42 19q-47 0 -91 -65.5t-44 -145.5q0 -85 55 -85zM513 474l11 44h72l-71 -268q-3 -14 -3 -31q0 -33 42 -33q40 0 72 34t47 81t15 95q0 118 -88.5 197t-210.5 79q-129 0 -214 -92.5t-85 -249.5q0 -126 85.5 -217
t223.5 -91q107 0 206 52l14 -31q-48 -20 -73.5 -29.5t-73.5 -19.5t-98 -10q-149 0 -257.5 100t-108.5 244q0 170 103 273t278 103q145 0 244 -88t99 -219q0 -56 -22 -112t-67.5 -96.5t-104.5 -40.5q-41 0 -65.5 18t-26.5 44h-2q-27 -32 -53 -47t-62 -15q-49 0 -78 32.5
t-29 97.5q0 54 23 110t70.5 98t107.5 42q29 0 50.5 -16t27.5 -38h2z" />
    <glyph glyph-name="A" unicode="A" horiz-adv-x="556" 
d="M350 704h46l22 -592q1 -46 14 -59.5t52 -18.5l-8 -34h-244l8 34q57 6 70.5 18.5t13.5 57.5q0 64 -4 128h-194l-60 -103q-24 -41 -24 -66q0 -17 14.5 -24.5t63.5 -10.5l-8 -34h-224l8 34q43 6 66.5 23.5t45.5 55.5zM318 278l-10 270h-2l-156 -270h168z" />
    <glyph glyph-name="B" unicode="B" horiz-adv-x="593" 
d="M262 586l-54 -198h72q46 0 81.5 18.5t54.5 47.5t28.5 60.5t9.5 62.5q0 77 -96 77q-77 0 -96 -68zM224 0h-302l8 34q50 2 71 16.5t33 57.5l118 440q16 62 16 72q0 15 -14.5 23t-51.5 11l8 34h288q73 0 114.5 -37.5t41.5 -94.5q0 -85 -62 -135t-150 -53v-2q63 -7 106.5 -46
t43.5 -100q0 -102 -69 -161t-199 -59zM260 348h-63l-57 -208q-12 -44 -12 -61q0 -25 17.5 -35t56.5 -10q68 0 112.5 31.5t61 76.5t16.5 102q0 56 -32 80t-100 24z" />
    <glyph glyph-name="C" unicode="C" horiz-adv-x="556" 
d="M578 688l-70 -264h-34q8 53 8 101q0 79 -25 109t-76 30q-71 0 -134.5 -75t-100 -187t-36.5 -224q0 -73 33 -113.5t87 -40.5q140 0 210 246l40 -8q-18 -60 -36 -102.5t-48.5 -86t-75.5 -66.5t-103 -23q-89 0 -148 68.5t-59 195.5q0 117 55 224t141 169.5t176 62.5
q82 0 128 -56l26 40h42z" />
    <glyph glyph-name="D" unicode="D" horiz-adv-x="611" 
d="M110 688h252q96 0 150 -69.5t54 -177.5q0 -47 -13 -103t-43 -116.5t-71 -109.5t-103 -80.5t-134 -31.5h-280l8 34q86 3 100 56l112 421q22 83 22 108q0 20 -13 26.5t-49 8.5zM124 78q0 -21 14.5 -32.5t59.5 -11.5q77 0 127.5 47.5t93.5 164.5q20 55 33.5 134.5
t13.5 137.5q0 67 -30.5 101.5t-81.5 34.5q-45 0 -67.5 -18.5t-32.5 -57.5q-27 -102 -53 -198t-38 -141t-22.5 -83.5t-13.5 -53.5t-3 -24z" />
    <glyph glyph-name="E" unicode="E" horiz-adv-x="574" 
d="M404 0h-482l8 34q51 3 70.5 16.5t31.5 57.5l118 438q12 48 12 67q0 22 -13.5 30.5t-46.5 10.5l8 34h464l-66 -258h-34q8 85 8 101q0 58 -30.5 90.5t-79.5 32.5q-55 0 -81 -20t-39 -68l-50 -182h21q60 0 86.5 24t48.5 92h34l-74 -276h-34q4 15 4 46q0 41 -14.5 57.5
t-51.5 16.5h-30q-10 -36 -21 -74.5t-16.5 -58.5t-11.5 -42t-8.5 -32.5t-5 -22.5t-3 -19t-0.5 -16q0 -45 63 -45q88 0 147 53.5t103 184.5h40z" />
    <glyph glyph-name="F" unicode="F" horiz-adv-x="537" 
d="M194 0h-272l8 34q47 3 72 22.5t38 69.5l104 389q22 82 22 100q0 23 -14 30t-50 9l8 34h472l-70 -258h-34q4 54 4 89q0 69 -29 102t-94 33q-79 0 -96 -62l-57 -208h40q46 0 71.5 25.5t46.5 90.5h34l-74 -290h-34q4 19 4 56q0 41 -13.5 59.5t-44.5 18.5h-41
q-14 -53 -28 -104t-20.5 -74t-12 -44.5t-7 -31.5t-1.5 -19q0 -18 15.5 -26t60.5 -11z" />
    <glyph glyph-name="G" unicode="G" horiz-adv-x="611" 
d="M516 648l34 40h34l-72 -264h-40q12 62 12 111q0 72 -25 100.5t-70 28.5q-59 0 -112 -51t-87 -127t-54 -160.5t-20 -155.5q0 -69 27.5 -107.5t73.5 -38.5q40 0 72 28t49.5 69t26.5 79t9 66q0 21 -14 31t-60 11l8 34h268l-8 -34q-46 -3 -64.5 -17t-27.5 -45l-71 -246h-33
l-14 44q-75 -60 -149 -60q-83 0 -138 80.5t-55 195.5q0 103 55.5 207t144.5 170.5t178 66.5q73 0 122 -56z" />
    <glyph glyph-name="H" unicode="H" horiz-adv-x="648" 
d="M114 688h254l-8 -34q-48 -1 -69 -17.5t-31 -51.5l-56 -201h235q16 65 30 116t19 68t7.5 29.5t2.5 24.5q0 16 -13.5 23.5t-50.5 8.5l8 34h252l-8 -34q-53 -7 -71.5 -21t-28.5 -53q-23 -87 -44 -164t-34 -124.5t-24.5 -87.5t-17 -60.5t-10 -36.5t-5.5 -22.5t-1 -11.5
q0 -20 12.5 -29t51.5 -10l-8 -34h-250l8 34q49 1 66 12t26 44l72 254h-235q-69 -234 -69 -269q0 -20 14 -30t52 -11l-8 -34h-256l8 34q46 1 65.5 15.5t30.5 55.5l128 461q12 46 12 58q0 15 -14.5 21.5t-49.5 8.5z" />
    <glyph glyph-name="I" unicode="I" horiz-adv-x="333" 
d="M198 34l-8 -34h-254l8 34q48 3 67.5 19t30.5 60l109 410q23 85 23 100q0 19 -14 25t-50 6l8 34h252l-8 -34q-74 -2 -90 -52q-15 -46 -77.5 -276t-62.5 -249q0 -24 12.5 -33t53.5 -10z" />
    <glyph glyph-name="J" unicode="J" horiz-adv-x="463" 
d="M258 688h264l-8 -34q-44 0 -64 -18t-34 -69l-120 -434q-41 -149 -195 -149q-70 0 -109.5 36.5t-39.5 103.5q0 50 27 88.5t66 38.5q27 0 43 -17.5t16 -47.5q0 -29 -18.5 -49.5t-52.5 -20.5q-10 0 -18.5 3t-10.5 3q-12 0 -12 -20q0 -34 26 -59t65 -25q37 0 66.5 26t43.5 78
l124 445q9 29 9 50q0 20 -14.5 28t-61.5 9z" />
    <glyph glyph-name="K" unicode="K" horiz-adv-x="574" 
d="M188 0h-266l8 34q50 2 70.5 16.5t32.5 58.5l119 438q14 53 14 74q0 19 -13 26t-51 7l8 34h258l-8 -34q-44 0 -66 -12.5t-34 -54.5l-64 -227h2l228 206q5 5 16 14.5t15.5 14t11 11.5t9 13t2.5 11q0 14 -11.5 19t-44.5 5l8 34h224l-8 -34q-43 -1 -77 -19.5t-83 -63.5
l-144 -131l96 -356q8 -28 21.5 -38.5t50.5 -11.5l-8 -34h-242l8 34q74 3 74 45q0 6 -4 22.5t-12 45t-16.5 58.5t-22.5 78t-25 87l-86 -76l-45 -165q-11 -38 -11 -62q0 -16 14.5 -24t59.5 -9z" />
    <glyph glyph-name="L" unicode="L" horiz-adv-x="519" 
d="M384 0h-462l8 34q52 1 72.5 16.5t31.5 59.5l112 418q20 72 20 89q0 19 -15 28t-53 9l8 34h260l-8 -34q-48 -1 -68 -13t-28 -43l-119 -439q-16 -58 -16 -78q0 -25 13 -36t44 -11q161 0 242 236l34 -8z" />
    <glyph glyph-name="M" unicode="M" horiz-adv-x="722" 
d="M124 0h-212l8 34q48 2 70 17.5t36 67.5l107 385q29 104 29 121q0 16 -14.5 21.5t-53.5 7.5l8 34h196v-494h2l274 494h198l-8 -34q-49 -1 -71 -20t-35 -67l-113 -418q-17 -65 -17 -76q0 -18 12.5 -28t49.5 -11l-8 -34h-250l8 34q46 2 67.5 11.5t29.5 40.5l147 544h-2
l-348 -630h-30v630h-2l-120 -446q-24 -90 -24 -105q0 -25 15.5 -34.5t58.5 -10.5z" />
    <glyph glyph-name="N" unicode="N" horiz-adv-x="611" 
d="M102 688h146l166 -512h2l84 318q26 99 26 117q0 23 -14 32.5t-50 10.5l8 34h202l-8 -34q-51 -3 -73.5 -29t-40.5 -95l-142 -538h-38l-178 564h-2l-108 -387q-18 -66 -18 -87q0 -44 72 -48l-8 -34h-214l8 34q54 5 75.5 26.5t36.5 74.5l105 377q25 88 25 102q0 22 -15.5 31
t-54.5 9z" />
    <glyph glyph-name="O" unicode="O" horiz-adv-x="593" 
d="M352 704q91 0 145.5 -76t54.5 -200q0 -104 -47.5 -207t-128 -170t-166.5 -67q-91 0 -145.5 76t-54.5 200q0 104 47.5 207t128 170t166.5 67zM354 664q-49 0 -92 -40.5t-71 -100.5t-48.5 -129.5t-29.5 -127t-9 -94.5q0 -75 28.5 -111.5t75.5 -36.5q49 0 92 40.5t71 100.5
t48.5 129.5t29.5 127t9 94.5q0 75 -28.5 111.5t-75.5 36.5z" />
    <glyph glyph-name="P" unicode="P" horiz-adv-x="537" 
d="M192 0h-268l8 34q47 2 68 16.5t32 55.5l114 422q20 76 20 90q0 22 -11 29t-47 7l8 34h216q200 0 200 -155q0 -86 -64 -150.5t-186 -64.5h-98q-61 -233 -62 -249q0 -19 16 -26.5t62 -8.5zM255 576l-61 -224q100 0 133 11q45 15 75 72t30 125q0 41 -24.5 67.5t-66.5 26.5
q-38 0 -56.5 -19t-29.5 -59z" />
    <glyph glyph-name="Q" unicode="Q" horiz-adv-x="593" 
d="M148 108q0 -84 76 -84q14 61 14 100q0 28 -11 43t-28 15q-21 0 -36 -19.5t-15 -54.5zM219 -15q-4 -1 -9 -1q-91 0 -145.5 76t-54.5 200q0 104 47.5 207t128 170t166.5 67q91 0 145.5 -76t54.5 -200q0 -128 -71 -250.5t-173 -170.5q6 -37 13.5 -53t22.5 -16q13 0 24.5 7.5
t20.5 22.5t14.5 26.5t12 29.5t8.5 22l34 -10q-8 -24 -19 -48.5t-30 -57t-47 -52.5t-59 -20q-80 0 -84 127zM203 222q49 0 70 -41t27 -116q50 47 88.5 141.5t54 176t15.5 133.5q0 75 -28.5 111.5t-75.5 36.5q-49 0 -92 -40.5t-71 -100.5t-48.5 -129.5t-29.5 -127t-9 -94.5
q0 -31 4 -48h2q5 45 30.5 71.5t62.5 26.5z" />
    <glyph glyph-name="R" unicode="R" horiz-adv-x="574" 
d="M-78 0l8 34q46 1 66.5 13t28.5 40l126 458q17 59 17 75q0 17 -16 24.5t-52 9.5l8 34h250q86 0 133 -44.5t47 -105.5q0 -77 -62.5 -134.5t-168.5 -57.5h-27v-2q56 -17 81 -61t25 -94q0 -28 -3 -63.5t-3 -48.5q0 -25 15 -25q14 0 28.5 28t38.5 92l30 -8
q-22 -83 -60.5 -131.5t-78.5 -48.5q-32 0 -52.5 25.5t-20.5 77.5q0 32 8 90.5t8 78.5q0 42 -24 61.5t-82 20.5q-11 -42 -23.5 -87.5t-19 -69.5t-12.5 -48t-8.5 -38.5t-2.5 -25.5q0 -19 15.5 -26.5t58.5 -8.5l-8 -34h-268zM258 584l-58 -210q71 1 108 7.5t65 30.5
q29 25 47 66t18 82q0 42 -24.5 68t-66.5 26q-69 0 -89 -70z" />
    <glyph glyph-name="S" unicode="S" horiz-adv-x="500" 
d="M-18 0l-34 4l70 258h34q-8 -75 -8 -97q0 -64 33 -105.5t100 -41.5q53 0 97 47t44 114q0 39 -24.5 71t-59 55.5t-69 48.5t-59 61.5t-24.5 81.5q0 82 67.5 144.5t153.5 62.5q69 0 139 -58l34 42h34l-66 -252h-34q4 66 4 91q0 143 -105 143q-57 0 -95 -33.5t-38 -87.5
q0 -40 25 -72t60.5 -55.5t71 -48t60.5 -63t25 -87.5q0 -91 -73 -165t-176 -74q-78 0 -153 64z" />
    <glyph glyph-name="T" unicode="T" horiz-adv-x="500" 
d="M276 0h-276l8 34q57 4 78.5 20.5t33.5 59.5l144 540h-6q-67 0 -119.5 -49t-89.5 -167h-34l73 250h470l-64 -250h-34q4 43 4 109q0 59 -23.5 83t-75.5 24h-9l-121 -465q-23 -90 -23 -116q0 -20 14.5 -29t57.5 -10z" />
    <glyph glyph-name="U" unicode="U" horiz-adv-x="611" 
d="M88 654l8 34h268l-8 -34q-57 -2 -77 -16t-35 -69l-92 -333q-22 -84 -22 -112q0 -49 30.5 -77.5t84.5 -28.5q68 0 112.5 42.5t71.5 142.5l86 322q17 61 17 92q0 21 -14 28t-52 9l8 34h196l-8 -34q-45 -1 -65 -22t-35 -79l-97 -365q-29 -111 -87.5 -157.5t-149.5 -46.5
q-94 0 -145 39t-51 106q0 39 26 133l82 292q14 49 14 67q0 16 -14 24t-52 9z" />
    <glyph glyph-name="V" unicode="V" horiz-adv-x="500" 
d="M150 -8h-44l-16 582q-2 49 -12 63t-50 17l8 34h242l-8 -34q-58 -7 -71 -22.5t-13 -77.5q0 -69 5 -205.5t5 -204.5h2l229 398q33 56 33 73q0 21 -14.5 29.5t-55.5 9.5l8 34h202l-8 -34q-60 -4 -104 -80z" />
    <glyph glyph-name="W" unicode="W" horiz-adv-x="722" 
d="M38 654l8 34h224l-8 -34q-49 -2 -63 -13t-15 -55l-4 -408h2l196 364q2 48 2 72q0 20 -9 27.5t-47 12.5l8 34h222l-8 -34q-41 -5 -57 -17.5t-17 -38.5l-8 -420h2l191 368q31 59 31 78q0 15 -12.5 22t-43.5 8l8 34h184l-8 -34q-38 -6 -60.5 -25t-46.5 -64l-301 -573h-36
l4 472h-2l-254 -472h-36l4 624q0 19 -9.5 26t-40.5 12z" />
    <glyph glyph-name="X" unicode="X" horiz-adv-x="537" 
d="M124 0h-234l8 34q79 13 129 75l189 235l-66 244q-11 41 -25 52t-55 14l8 34h240l-8 -34q-39 -2 -54.5 -10t-15.5 -28q0 -16 47 -198q19 25 38.5 50t32 40.5t24.5 31t19 24.5t13.5 18.5t10 14.5t6 10.5t3 9t0.5 8.5q0 15 -13 21t-45 8l8 34h216l-8 -34q-39 -2 -75 -25
t-79 -77l-140 -176l72 -272q13 -46 25.5 -57t52.5 -13l-8 -34h-240l8 34q41 2 56.5 10t15.5 30q0 5 -0.5 9t-2 12t-3.5 17t-6.5 27t-9.5 37.5t-13 53.5t-17 71q-22 -29 -44.5 -58t-36.5 -46.5t-28 -35.5t-21.5 -28t-15 -20.5t-10.5 -15.5t-6 -11t-3.5 -10.5t-0.5 -9.5
q0 -19 12.5 -25t57.5 -7z" />
    <glyph glyph-name="Y" unicode="Y" horiz-adv-x="500" 
d="M278 0h-266l8 34q50 3 70 17t31 56l49 181l-59 318q-4 25 -16.5 35t-44.5 13l8 34h232l-8 -34q-41 0 -57.5 -8.5t-16.5 -36.5q0 -12 48 -271l160 220q34 47 34 69q0 15 -14 20t-48 7l8 34h200l-8 -34q-35 -3 -60 -21.5t-63 -70.5l-197 -270q-58 -216 -58 -221
q0 -20 15.5 -27t60.5 -10z" />
    <glyph glyph-name="Z" unicode="Z" horiz-adv-x="481" 
d="M120 688h394l-6 -34l-472 -620h24q129 0 199.5 48.5t120.5 177.5h34l-68 -260h-424v24l482 630h-50q-106 0 -167.5 -50t-100.5 -166h-34z" />
    <glyph glyph-name="bracketleft" unicode="[" horiz-adv-x="389" 
d="M218 704h144l-8 -34q-43 -3 -60.5 -17t-27.5 -50l-161 -585q-4 -14 -12 -39t-11.5 -40t-3.5 -25q0 -20 12 -30t44 -16l-8 -34h-146z" />
    <glyph glyph-name="backslash" unicode="\" horiz-adv-x="278" 
d="M-20 704h58l234 -720h-58z" />
    <glyph glyph-name="bracketright" unicode="]" horiz-adv-x="389" 
d="M102 -166h-144l8 34q43 3 60.5 17t27.5 50l161 585q4 14 12 39t11.5 40t3.5 25q0 20 -12 30t-44 16l8 34h146z" />
    <glyph glyph-name="asciicircum" unicode="^" horiz-adv-x="600" 
d="M160 330h-66l180 358h52l180 -358h-66l-140 276z" />
    <glyph glyph-name="underscore" unicode="_" horiz-adv-x="500" 
d="M500 -125h-500v50h500v-50z" />
    <glyph glyph-name="grave" unicode="`" horiz-adv-x="315" 
d="M259 546h-28l-133 105q-21 17 -21 33q0 10 9 20t23 10q21 0 43 -30z" />
    <glyph glyph-name="a" unicode="a" horiz-adv-x="500" 
d="M300 392l22 86h88l-97 -351q-13 -46 -13 -72q0 -27 19 -27q42 0 101 162l28 -8q-62 -194 -148 -194q-66 0 -66 102h-2q-62 -102 -128 -102q-49 0 -82.5 50.5t-33.5 132.5q0 77 37.5 152.5t91.5 121t104 45.5q35 0 53 -24t24 -74h2zM110 22q38 0 76.5 53.5t62 131.5
t23.5 147q0 102 -47 102q-38 0 -75.5 -63.5t-59.5 -148t-22 -151.5q0 -36 11.5 -53.5t30.5 -17.5z" />
    <glyph glyph-name="b" unicode="b" 
d="M48 654l8 34l160 6l-78 -288l2 -2q64 86 117 86q52 0 82.5 -46t30.5 -127q0 -73 -32.5 -149t-92 -128t-126.5 -52q-56 0 -92.5 38t-36.5 102t58 277t58 216q0 18 -11 25t-47 8zM70 90q0 -74 54 -74q35 0 68 46.5t53.5 110t32.5 123.5t12 93q0 67 -42 67q-39 0 -81.5 -62
t-69.5 -148.5t-27 -155.5z" />
    <glyph glyph-name="c" unicode="c" horiz-adv-x="389" 
d="M282 192l28 -8q-37 -93 -62 -128q-49 -68 -120 -68q-67 0 -103.5 51t-36.5 143q0 122 87 215t176 93q37 0 61 -24t24 -70q0 -38 -17.5 -61t-43.5 -23q-18 0 -31.5 13.5t-13.5 35.5q0 42 41 62q5 2 12 4t9 3.5t2 5.5q0 20 -42 20q-52 0 -96 -57t-66 -134t-22 -147
q0 -96 72 -96q80 0 142 170z" />
    <glyph glyph-name="d" unicode="d" horiz-adv-x="500" 
d="M421 193l26 -10q-39 -97 -73.5 -146t-77.5 -49q-34 0 -50 25.5t-16 60.5q0 4 3 25l-2 2q-63 -113 -135 -113q-46 0 -80 52t-34 126q0 69 24 131.5t60 103.5t76.5 65t75.5 24q69 0 76 -102h2q54 205 56 226v12q0 15 -12 21.5t-50 6.5l8 34l164 6q-77 -280 -113.5 -419
t-43.5 -172t-7 -51q0 -24 17 -24q39 0 106 165zM62 94q0 -72 48 -72q33 0 70 52t61.5 132.5t24.5 156.5q0 93 -48 93q-32 0 -69.5 -63.5t-62 -149.5t-24.5 -149z" />
    <glyph glyph-name="e" unicode="e" horiz-adv-x="389" 
d="M284 195l24 -11q-32 -86 -83 -141t-112 -55t-93 49t-32 135q0 65 29 126.5t70.5 102t87 65t80.5 24.5q41 0 66 -23t25 -66q0 -79 -81 -135.5t-188 -71.5q-9 -33 -9 -84q0 -88 59 -88q42 0 84 50t73 123zM284 411q0 45 -37 45t-72 -39.5t-56.5 -89t-33.5 -99.5
q74 5 136.5 59.5t62.5 123.5z" />
    <glyph glyph-name="f" unicode="f" horiz-adv-x="259" 
d="M77 444h-73l8 34h75q42 106 96.5 166t111.5 60q41 0 59.5 -19t18.5 -48q0 -24 -15 -45.5t-40 -21.5q-17 0 -28 10t-11 29t10 35t10 19q0 7 -11 7q-35 0 -72 -58.5t-50 -133.5h86l-8 -34h-85q-8 -39 -26 -131t-29 -143.5t-29.5 -114t-37.5 -98.5q-78 -149 -174 -149
q-36 0 -60.5 21.5t-24.5 58.5q0 31 18 49.5t42 18.5q19 0 32.5 -12t13.5 -30t-9.5 -29t-19 -18t-9.5 -14q0 -11 25 -11q37 0 72.5 48t54.5 157q8 44 16 101t13 87t17.5 84.5t32.5 124.5z" />
    <glyph glyph-name="g" unicode="g" 
d="M296 382l26 96h80l-132 -502q-21 -80 -84 -124t-140 -44q-58 0 -90 26.5t-32 61.5q0 27 15.5 43.5t40.5 16.5q20 0 32 -12.5t12 -31.5q0 -23 -13 -38t-13 -19q0 -19 37 -19q51 0 90 30t53 82l30 108l-2 2q-15 -20 -26.5 -32.5t-33 -25t-45.5 -12.5q-48 0 -81.5 51
t-33.5 128q0 124 76 223.5t150 99.5q23 0 39.5 -10t24.5 -28.5t12 -33.5t6 -36h2zM266 347q0 109 -48 109q-37 0 -73.5 -68t-57.5 -152t-21 -142q0 -35 12 -53.5t30 -18.5q41 0 79 60t58.5 135t20.5 130z" />
    <glyph glyph-name="h" unicode="h" horiz-adv-x="500" 
d="M52 0h-80l144 554q14 51 14 74q0 17 -12.5 21.5t-55.5 4.5l8 34l168 6l-89 -340l2 -2q80 138 151 138q36 0 59 -28t23 -78q0 -54 -26 -120.5t-52 -124t-26 -90.5q0 -27 26 -27q48 0 120 168l28 -12q-83 -190 -162 -190q-35 0 -57.5 28t-22.5 74q0 49 26 116.5t52 126
t26 87.5q0 36 -27 36q-34 0 -90 -80.5t-93 -201.5z" />
    <glyph glyph-name="i" unicode="i" horiz-adv-x="315" 
d="M238 188l26 -10q-34 -93 -73 -141.5t-88 -48.5q-36 0 -55.5 29.5t-19.5 76.5q0 58 52 174.5t52 154.5q0 33 -24 33q-45 0 -109 -156l-26 8q67 182 147 182q33 0 53.5 -29t20.5 -76q0 -50 -24.5 -119t-49 -127t-24.5 -81q0 -36 25 -36q54 0 117 166zM168 630q0 29 15 49.5
t37 20.5q23 0 35.5 -14.5t12.5 -39.5q0 -29 -15 -49.5t-37 -20.5q-23 0 -35.5 14.5t-12.5 39.5z" />
    <glyph glyph-name="j" unicode="j" horiz-adv-x="278" 
d="M-5 301l-25 7q34 93 72.5 137.5t91.5 44.5q33 0 50.5 -20.5t17.5 -49.5q0 -36 -14 -90l-97 -352q-47 -170 -184 -170q-42 0 -68.5 23.5t-26.5 58.5q0 25 15 45.5t40 20.5q21 0 33 -11.5t12 -32.5q0 -17 -9.5 -29t-19 -19.5t-9.5 -12.5q0 -9 23 -9q75 0 105 111l105 399
q15 54 15 79t-18 25q-22 0 -53 -44.5t-56 -110.5zM162 630q0 29 15 49.5t37 20.5q23 0 35.5 -14.5t12.5 -39.5q0 -29 -15 -49.5t-37 -20.5q-23 0 -35.5 14.5t-12.5 39.5z" />
    <glyph glyph-name="k" unicode="k" horiz-adv-x="463" 
d="M385 194l28 -12q-71 -194 -160 -194q-31 0 -50 24t-19 67q0 20 7 59.5t7 59.5q0 27 -14 38.5t-47 11.5h-17l-70 -248h-80q24 97 67 254t69 255t26 119q0 17 -11 21.5t-49 4.5l8 34l160 6l-112 -412q61 6 85 27.5t53 91.5q20 49 42.5 69t50.5 20q25 0 41 -18.5t16 -43.5
q0 -28 -13.5 -47t-35.5 -19q-18 0 -28.5 10t-10.5 24q0 11 1 19.5t2 13.5t1 6q0 11 -6 11q-7 0 -16.5 -23.5t-20 -54t-34.5 -61t-55 -41.5q44 -17 61 -37.5t17 -64.5q0 -16 -3 -49t-3 -50q0 -29 16 -29t43 42.5t54 115.5z" />
    <glyph glyph-name="l" unicode="l" horiz-adv-x="278" 
d="M200 188l28 -12q-70 -188 -154 -188q-32 0 -53 24.5t-21 67.5q0 51 67 289t67 259q0 17 -11 21.5t-49 4.5l8 34l160 6q-19 -69 -51 -184q-80 -288 -98.5 -359.5t-18.5 -97.5q0 -25 19 -25q26 0 56 51t51 109z" />
    <glyph glyph-name="m" unicode="m" horiz-adv-x="778" 
d="M702 184l28 -12q-71 -184 -153 -184q-39 0 -63 28.5t-24 77.5q0 56 52 168t52 157q0 37 -30 37q-39 0 -95 -93.5t-94 -225.5l-39 -137h-88l82 310q22 86 22 111q0 35 -29 35q-23 0 -57.5 -49t-67.5 -123q-43 -96 -96 -284h-88l82 300q26 95 26 115q0 41 -23 41
q-44 0 -114 -157l-25 10q71 181 153 181q31 0 51 -30t20 -94v-42h2q1 1 10.5 20t14 26.5t15.5 26t18.5 28.5t20 24.5t23 22t23.5 13t26 5.5q35 0 56 -29.5t21 -86.5q0 -10 -1 -29.5t-1 -28.5h2q1 1 12.5 23t15.5 29t16.5 28t20 29.5t21 24t24.5 22t25.5 12.5t29.5 6
q30 0 53.5 -31.5t23.5 -87.5q0 -48 -24.5 -115.5t-49 -124t-24.5 -77.5q0 -32 25 -32q27 0 59.5 46t59.5 116z" />
    <glyph glyph-name="n" unicode="n" horiz-adv-x="537" 
d="M463 188l26 -10q-75 -190 -161 -190q-32 0 -54 26t-22 76q0 49 27 115.5t54 126t27 91.5q0 33 -29 33q-51 0 -115.5 -119t-127.5 -337h-80q14 53 33 122.5t30 110.5t22 84.5t16 70t5 41.5q0 27 -23 27q-22 0 -49.5 -39t-53.5 -115l-28 8q63 180 146 180q31 0 50.5 -24
t19.5 -65q0 -29 -6 -87l2 -2q42 90 82.5 134t86.5 44q37 0 59 -28t22 -76q0 -50 -25.5 -120t-51 -130t-25.5 -85q0 -29 23 -29t57 46.5t63 119.5z" />
    <glyph glyph-name="o" unicode="o" 
d="M370 290q0 -68 -28.5 -136.5t-85.5 -117t-127 -48.5q-64 0 -102.5 52t-38.5 148q0 68 28.5 136.5t85.5 117t127 48.5q64 0 102.5 -52t38.5 -148zM62 112q0 -96 67 -96q40 0 74 43.5t53 104.5t29.5 115.5t10.5 86.5q0 96 -67 96q-40 0 -74 -43.5t-53 -104.5t-29.5 -115.5
t-10.5 -86.5z" />
    <glyph glyph-name="p" unicode="p" horiz-adv-x="500" 
d="M-126 -184l8 34q57 3 72.5 15.5t29.5 66.5l110 417q12 48 12 81q0 26 -17 26q-22 0 -49 -42.5t-51 -117.5l-30 9q59 185 147 185q66 0 68 -124h2q66 124 133 124q43 0 80 -48.5t37 -130.5q0 -76 -32.5 -151t-88 -123.5t-115.5 -48.5q-65 0 -80 84h-2l-30 -119
q-12 -46 -12 -65q0 -20 15.5 -29t58.5 -9l-8 -34h-258zM138 122q0 -60 13.5 -83t41.5 -23q36 0 73 62.5t58.5 143.5t21.5 143q0 47 -13 69t-32 22q-34 0 -73 -59t-64.5 -138t-25.5 -137z" />
    <glyph glyph-name="q" unicode="q" 
d="M378 478h28l-132 -480q-26 -94 -26 -116q0 -14 12 -22.5t50 -9.5l-8 -34h-246l8 34q46 2 68 13.5t33 46.5l47 158h-2q-18 -25 -30 -38.5t-36 -27.5t-50 -14q-48 0 -80 46t-32 126q0 125 80 227.5t159 102.5q24 0 41 -6.5t28 -21t17 -26.5t13 -32q39 32 58 74zM62 85
q0 -69 41 -69q40 0 83 73.5t67.5 157t24.5 128.5q0 81 -50 81q-41 0 -81.5 -71.5t-62.5 -157.5t-22 -142z" />
    <glyph glyph-name="r" unicode="r" horiz-adv-x="407" 
d="M90 0h-80l93 356q15 55 15 75q0 25 -17 25q-23 0 -49.5 -42t-49.5 -112l-26 6q27 83 62 132.5t73 49.5q63 0 63 -107q0 -34 -6 -65l2 -2q2 3 10.5 19.5t13 24.5t14.5 24.5t17 26t17.5 24t20 22.5t21 16.5t23 12.5t23.5 4q25 0 41.5 -18.5t16.5 -48.5q0 -36 -17.5 -61.5
t-41.5 -25.5q-18 0 -29.5 11t-11.5 31q0 19 9.5 32.5t19 21t9.5 11.5q0 7 -8 7q-40 0 -99 -107t-99 -242z" />
    <glyph glyph-name="s" unicode="s" horiz-adv-x="370" 
d="M-42 94q0 32 17.5 53t41.5 21q22 0 34.5 -14t12.5 -38q0 -21 -12.5 -34t-25 -19.5t-12.5 -11.5q0 -12 20.5 -23.5t51.5 -11.5q48 0 81 29.5t33 71.5q0 25 -17.5 45t-42.5 35t-50 31.5t-42.5 43.5t-17.5 62q0 60 50 108t123 48q63 0 93 -29t30 -66q0 -25 -16 -43t-41 -18
q-22 0 -35.5 12.5t-13.5 31.5q0 18 9.5 30.5t19 19.5t9.5 11t-4.5 9t-17.5 9.5t-31 4.5q-38 0 -66.5 -24t-28.5 -65q0 -27 17.5 -47.5t42.5 -35.5t50 -31.5t42.5 -44.5t17.5 -67q0 -61 -55.5 -110t-131.5 -49q-63 0 -99 29t-36 77z" />
    <glyph glyph-name="t" unicode="t" horiz-adv-x="296" 
d="M146 640h88l-44 -162h80l-8 -34h-80q-19 -71 -38.5 -141t-29.5 -104t-18 -65.5t-11 -49t-3 -32.5q0 -30 20 -30q50 0 119 167l27 -13q-41 -103 -81 -145.5t-86 -42.5q-38 0 -58.5 27.5t-20.5 66.5q0 24 6.5 57.5t15 62.5t31 106t39.5 136h-78l8 34h78z" />
    <glyph glyph-name="u" unicode="u" horiz-adv-x="537" 
d="M-12 300l-28 12q63 178 148 178q36 0 60 -32.5t24 -79.5q0 -56 -44 -168q-44 -110 -44 -144q0 -44 30 -44q32 0 83.5 75t88.5 209l48 172h88q-17 -63 -41 -146.5t-36.5 -128.5t-22.5 -87.5t-10 -60.5q0 -27 18 -27q44 0 104 164l28 -12q-30 -86 -69 -139t-80 -53
q-30 0 -46.5 23t-16.5 59t6 68l-2 2q-76 -152 -154 -152q-42 0 -66 32t-24 95q0 59 47 165q47 104 47 144q0 15 -7.5 23.5t-19.5 8.5q-27 0 -56.5 -43t-52.5 -113z" />
    <glyph glyph-name="v" unicode="v" 
d="M-10 301l-26 11q12 36 23 61.5t28.5 55t40.5 45.5t50 16q35 0 60.5 -29t25.5 -84q0 -51 -41 -158q-1 -4 -9.5 -25t-10.5 -26.5t-7.5 -22t-7.5 -25t-4 -20.5t-2 -22q0 -56 47 -56q44 0 89 57t71.5 131.5t26.5 130.5q0 7 -2 23q-26 1 -42 21.5t-16 47.5t13 42t33 15
q54 0 54 -109q0 -119 -61 -238q-79 -155 -174 -155q-49 0 -81 35t-32 103q0 56 41 158t41 142q0 30 -23 30q-23 1 -51.5 -39t-53.5 -116z" />
    <glyph glyph-name="w" unicode="w" horiz-adv-x="667" 
d="M354 478h88q-12 -46 -33 -124t-33 -122.5t-22 -89.5t-10 -63q0 -28 11 -42.5t28 -14.5q37 0 72.5 39t58.5 92.5t37.5 105.5t14.5 82q0 3 -2 21q-26 0 -39 18.5t-13 44.5q0 30 12 47.5t33 17.5q49 0 49 -96q0 -75 -29.5 -167.5t-85.5 -165.5t-119 -73q-46 0 -71 32t-25 86
q0 11 2 30t2 20l-2 2q0 -1 -8 -16.5t-12.5 -24.5t-15.5 -27t-19.5 -29.5t-22 -27t-25.5 -24t-27.5 -15t-30.5 -6.5q-43 0 -65 34t-22 83q0 67 46 179q3 8 11 27t11.5 27t9 23t8 24t4.5 19.5t2 18.5q0 33 -21 33q-24 0 -54 -42.5t-55 -117.5l-28 8q57 186 149 186
q29 0 53 -30t24 -83t-43 -162l-8 -20t-8 -20.5t-7 -18.5t-7 -19.5t-5 -18t-4.5 -19t-2.5 -16.5t-1 -17q0 -38 27 -38q31 0 70.5 58t67 124t43.5 121z" />
    <glyph glyph-name="x" unicode="x" horiz-adv-x="500" 
d="M32 294l-28 12q12 40 32 79t56 72t74 33q54 0 79 -47t25 -109h2q70 156 147 156q31 0 48 -18.5t17 -49.5q0 -26 -16 -49t-39 -23q-20 0 -32.5 13t-12.5 32q0 23 13 38t13 16q0 7 -11 7q-27 0 -67.5 -66.5t-71 -158.5t-30.5 -157q0 -58 38 -58q63 0 134 172l28 -12
q-42 -100 -83.5 -144t-87.5 -44q-40 0 -65 34.5t-26 103.5h-2q-60 -138 -159 -138q-33 0 -54 19.5t-21 57.5q0 35 18 58t44 23q19 0 31.5 -14t12.5 -34q0 -18 -8 -30.5t-17 -17t-17 -9.5t-8 -10q0 -15 29 -15q39 0 74.5 45.5t57 107.5t34.5 119t13 87q0 81 -43 81
q-26 0 -53.5 -33t-43 -66t-24.5 -63z" />
    <glyph glyph-name="y" unicode="y" horiz-adv-x="481" 
d="M-15 297l-27 13q40 103 75 141.5t73 38.5q32 0 53 -27.5t21 -77.5q0 -40 -10 -74t-36 -97q-46 -109 -46 -147q0 -39 32 -39q39 0 92 80.5t73 149.5l63 220h88l-135 -490q-18 -67 -61 -109t-87.5 -56.5t-94.5 -14.5q-53 0 -86.5 26t-33.5 66q0 28 17.5 48t43.5 20
q20 0 32.5 -12.5t12.5 -32.5t-9.5 -32t-19 -18.5t-9.5 -11.5q0 -11 14.5 -18t35.5 -7q117 0 153 127l40 145l-2 2q-25 -46 -63 -84t-80 -38q-46 0 -68 35t-22 83q0 66 52 170t52 146q0 34 -27 34q-46 0 -106 -159z" />
    <glyph glyph-name="z" unicode="z" horiz-adv-x="389" 
d="M294 191l25 -10q-25 -92 -68 -142.5t-96 -50.5q-45 0 -87 52q-14 20 -29 36t-28 16q-8 0 -14.5 -6.5t-6.5 -17.5q0 -4 3 -16t3 -21q0 -14 -8.5 -24.5t-24.5 -10.5q-29 0 -29 37q0 45 37 93t104 91q27 18 65.5 42t59 37t43 28t34.5 24.5t18 16.5l-2 2q-23 -15 -57 -15
q-31 0 -71 25q-38 25 -57 25q-25 0 -44 -21t-45 -80l-25 11q38 96 82.5 137t81.5 41q22 0 39.5 -15.5t27.5 -33.5t25 -33.5t32 -15.5q14 0 22.5 7.5t8.5 16.5q0 6 -2.5 17.5t-2.5 17.5q0 39 27 39q13 0 22 -10.5t9 -29.5q0 -40 -30.5 -82t-78.5 -78t-97 -67t-97 -61.5
t-67 -49.5l2 -2q23 16 60 16q34 0 62 -13.5t48.5 -27t36.5 -13.5q23 0 43 26t46 93z" />
    <glyph glyph-name="braceleft" unicode="{" horiz-adv-x="389" 
d="M147 390l52 191q25 90 69 119.5t124 29.5l-11 -34q-49 -13 -72.5 -38.5t-38.5 -81.5l-46 -169q-17 -62 -41.5 -93t-76.5 -44v-2q56 -15 56 -67q0 -23 -36 -153t-36 -144q0 -27 16.5 -43.5t45.5 -18.5l-12 -34q-61 0 -92.5 15.5t-31.5 58.5q0 24 36 157t36 162
q0 27 -11 43t-39 25q49 14 72 41t37 80z" />
    <glyph glyph-name="bar" unicode="|" horiz-adv-x="222" 
d="M66 0v688h56v-688h-56z" />
    <glyph glyph-name="braceright" unicode="}" horiz-adv-x="389" 
d="M173 148l-52 -191q-25 -90 -69 -119.5t-124 -29.5l11 34q49 13 72.5 38.5t38.5 81.5l46 169q17 62 41.5 93t76.5 44v2q-56 15 -56 67q0 23 36 153t36 144q0 27 -16.5 43.5t-45.5 18.5l12 34q61 0 92.5 -15.5t31.5 -58.5q0 -24 -36 -157t-36 -162q0 -27 11 -43t39 -25
q-49 -14 -72 -41t-37 -80z" />
    <glyph glyph-name="asciitilde" unicode="~" horiz-adv-x="600" 
d="M446 307l36 -48q-16 -21 -25 -31.5t-25 -25t-34 -21t-40 -6.5q-40 0 -106 33q-62 33 -107 33q-50 0 -83 -70l-36 48q46 84 124 84q48 0 115 -31q9 -4 25.5 -12t25.5 -12t21 -7.5t22 -3.5q26 0 45.5 18t41.5 52z" />
    <glyph glyph-name="uni00A0" unicode="&#xa0;" horiz-adv-x="222" 
 />
    <glyph glyph-name="exclamdown" unicode="&#xa1;" horiz-adv-x="278" 
d="M96 318h40q-20 -79 -31.5 -137t-15 -85t-9.5 -81t-10 -87q-15 -120 -76 -120q-20 0 -33 13.5t-13 33.5q0 30 24 94t62 167.5t62 201.5zM208 464q0 -27 -17 -47.5t-39 -20.5q-23 0 -36.5 15.5t-13.5 40.5q0 27 17 47.5t39 20.5q23 0 36.5 -15.5t13.5 -40.5z" />
    <glyph glyph-name="cent" unicode="&#xa2;" 
d="M140 158l99 381q-50 -20 -92.5 -116.5t-42.5 -183.5q0 -58 36 -81zM248 575l30 113h28l-30 -110q80 0 80 -88q0 -29 -14 -52.5t-41 -23.5q-39 0 -39 43q0 27 15 41.5t30 19.5t15 9q0 8 -12 15.5t-26 7.5q-9 0 -14 -1l-102 -397q14 1 27.5 6.5t25.5 17.5t21 21.5
t19.5 28.5t15 27t14.5 29t11 24l22 -12q-15 -35 -28 -58.5t-33.5 -52.5t-46.5 -46t-56 -19l-32 -118h-28l32 122q-45 9 -73.5 58t-28.5 106q0 98 62 181t156 108z" />
    <glyph glyph-name="sterling" unicode="&#xa3;" 
d="M143 328h-132l7 34h111q-40 64 -40 135q0 84 57 145.5t131 61.5q52 0 86 -28t34 -76q0 -35 -18 -58.5t-46 -23.5q-22 0 -35 15t-13 38q0 24 16 43t40 22q0 16 -16.5 28t-42.5 12q-44 0 -74.5 -39.5t-30.5 -107.5q0 -17 3.5 -34.5t12 -38t13 -31t18 -35t15.5 -28.5h127
l-8 -34h-110q9 -33 9 -70q0 -100 -56 -167q25 -23 64 -23q34 0 64.5 33t48.5 99l29 -8q-32 -108 -76.5 -158t-93.5 -50t-99 48q-55 -48 -121 -48q-42 0 -68.5 25t-26.5 69q0 42 31 72t74 30q16 0 30.5 -3.5t29.5 -12.5t23 -14.5t24 -19t19 -15.5q24 46 24 95q0 55 -34 118z
M-38 78q0 -23 15.5 -41.5t41.5 -18.5q52 0 93 44q-7 6 -21.5 21t-24.5 24t-25.5 17t-29.5 8q-23 0 -36 -15.5t-13 -38.5z" />
    <glyph glyph-name="currency" unicode="&#xa4;" 
d="M355 344q0 64 -43.5 109t-106.5 45q-62 0 -106 -45t-44 -109q0 -65 43.5 -109.5t106.5 -44.5t106.5 44.5t43.5 109.5zM-8 171l46 47q-43 53 -43 126t43 126l-46 47l42 45l47 -49q55 41 124 41t124 -41l47 49l42 -45l-46 -47q43 -53 43 -126t-43 -126l46 -47l-42 -45
l-47 49q-55 -41 -124 -41t-124 41l-47 -49z" />
    <glyph glyph-name="yen" unicode="&#xa5;" 
d="M236 0h-258l8 34q50 3 69.5 17t31.5 56l41 143h-140l9 34h140l2 12l-11 72h-113l9 34h98l-39 205q-4 23 -18.5 33.5t-44.5 13.5l8 34h216l-8 -34q-38 0 -54 -9t-16 -36q0 -12 47 -265l155 214q34 47 34 69q0 15 -12.5 20t-41.5 7l8 34h184l-8 -34q-29 -3 -53 -22t-62 -70
l-117 -160h110l-9 -34h-126l-44 -62l-8 -22h156l-9 -34h-155q-47 -172 -47 -179q0 -20 15.5 -27t60.5 -10z" />
    <glyph glyph-name="brokenbar" unicode="&#xa6;" horiz-adv-x="222" 
d="M66 0v250h56v-250h-56zM66 438v250h56v-250h-56z" />
    <glyph glyph-name="section" unicode="&#xa7;" horiz-adv-x="556" 
d="M244 438l2 2q-60 74 -60 131q0 60 43 96.5t107 36.5t97 -29.5t33 -68.5q0 -24 -15 -41t-39 -17q-21 0 -33.5 11.5t-12.5 32.5q0 19 19 37t19 24q0 10 -15 19.5t-44 9.5q-43 0 -70 -25.5t-27 -66.5q0 -31 27.5 -71t60.5 -74.5t60.5 -83t27.5 -93.5q0 -56 -36.5 -93.5
t-84.5 -37.5q-27 0 -39 9l-2 -2q3 -4 15 -20.5t16.5 -24.5t12.5 -23t11 -29t3 -30q0 -57 -48 -99t-114 -42q-60 0 -97.5 30.5t-37.5 68.5q0 28 16.5 47t41.5 19q21 0 34.5 -13t13.5 -33q0 -17 -7.5 -28t-16 -14.5t-16 -8.5t-7.5 -11q0 -13 18 -24t53 -11q44 0 74.5 24.5
t30.5 63.5q0 29 -18.5 61.5t-45 62t-53 61t-45 70t-18.5 77.5q0 53 33.5 91t83.5 38q29 0 49 -9zM294 159q27 0 47.5 20.5t20.5 49.5q0 51 -50 117q-29 40 -51.5 59.5t-51.5 19.5q-33 0 -51 -21.5t-18 -51.5q0 -25 9.5 -46.5t39.5 -64.5q33 -48 56 -65t49 -17z" />
    <glyph glyph-name="dieresis" unicode="&#xa8;" horiz-adv-x="315" 
d="M80 610q0 18 12.5 31t31.5 13t31.5 -13t12.5 -31t-12.5 -31t-31.5 -13t-31.5 13t-12.5 31zM256 610q0 18 12.5 31t31.5 13t31.5 -13t12.5 -31t-12.5 -31t-31.5 -13t-31.5 13t-12.5 31z" />
    <glyph glyph-name="copyright" unicode="&#xa9;" horiz-adv-x="800" 
d="M30 344q0 149 103 254.5t249 105.5t249 -105.5t103 -254.5t-103 -254.5t-249 -105.5t-249 105.5t-103 254.5zM88 344q0 -124 87 -217t207 -93t207 93t87 217t-87 217t-207 93t-207 -93t-87 -217zM540 264h18l-19 -84q-3 -14 -48.5 -24t-86.5 -10q-101 0 -160.5 53
t-59.5 153q0 75 59 138.5t167 63.5q52 0 91 -12.5t39 -25.5v-82h-24q-2 37 -29 64.5t-81 27.5q-68 0 -105 -48t-37 -121q0 -81 38 -132t112 -51q92 0 126 90z" />
    <glyph glyph-name="ordfeminine" unicode="&#xaa;" horiz-adv-x="300" 
d="M230 645l13 53h66q-4 -12 -24 -74t-35.5 -113.5t-15.5 -59.5q0 -15 10 -15q24 0 59 88l26 -5q-40 -117 -99 -117q-25 0 -34.5 13.5t-9.5 41.5h-2q-32 -55 -82 -55q-35 0 -55.5 29t-20.5 82q0 75 49.5 133t100.5 58q45 0 52 -59h2zM82 470q0 -40 26 -40q27 0 59.5 65.5
t32.5 120.5q0 60 -27 60t-59 -70t-32 -136z" />
    <glyph glyph-name="guillemotleft" unicode="&#xab;" horiz-adv-x="463" 
d="M228 410l-98 -166l20 -176h-40l-54 176l124 166h48zM358 410l-98 -166l20 -176h-40l-54 176l124 166h48z" />
    <glyph glyph-name="logicalnot" unicode="&#xac;" horiz-adv-x="600" 
d="M446 119v184h-422v56h478v-240h-56z" />
    <glyph glyph-name="uni00AD" unicode="&#xad;" horiz-adv-x="259" 
d="M194 270l-16 -62h-190l16 62h190z" />
    <glyph glyph-name="registered" unicode="&#xae;" horiz-adv-x="800" 
d="M210 518v24h185q51 0 87 -24.5t36 -71.5q0 -39 -24 -67.5t-62 -41.5l60 -76q54 -69 84 -89v-16h-62q-13 0 -24 7t-24 24t-23.5 34t-30.5 48.5t-37 56.5h-43v-108q0 -23 9 -29.5t43 -8.5v-24h-174v24q33 2 41.5 8.5t8.5 29.5v262q0 22 -8.5 28.5t-41.5 9.5zM332 514v-160
h37q77 0 77 88q0 37 -22.5 54.5t-57.5 17.5h-34zM30 344q0 149 103 254.5t249 105.5t249 -105.5t103 -254.5t-103 -254.5t-249 -105.5t-249 105.5t-103 254.5zM88 344q0 -124 87 -217t207 -93t207 93t87 217t-87 217t-207 93t-207 -93t-87 -217z" />
    <glyph glyph-name="macron" unicode="&#xaf;" horiz-adv-x="315" 
d="M336 584h-260l8 48h260z" />
    <glyph glyph-name="degree" unicode="&#xb0;" horiz-adv-x="400" 
d="M120 562q0 -40 28 -70t68 -30t68 30t28 70t-28 70t-68 30t-68 -30t-28 -70zM74 562q0 60 41 101t101 41t101 -41t41 -101t-41 -101t-101 -41t-101 41t-41 101z" />
    <glyph glyph-name="plusminus" unicode="&#xb1;" horiz-adv-x="600" 
d="M235 313v165h56v-165h211v-56h-211v-165h-56v165h-211v56h211zM24 0v56h478v-56h-478z" />
    <glyph glyph-name="twosuperior" unicode="&#xb2;" horiz-adv-x="266" 
d="M152 635l22 -5q-8 -51 -32.5 -84.5t-52.5 -33.5q-50 0 -50 51q0 53 44 97t104 44q47 0 74 -26.5t27 -68.5q0 -74 -85 -130q-13 -8 -52 -30.5t-68.5 -43t-53.5 -45.5l1 1l2 -2q21 7 31 7q24 0 51.5 -17t41.5 -17q34 0 70 94l26 -5q-48 -149 -120 -149q-30 0 -60 30t-43 30
q-14 0 -14 -13q0 -3 1.5 -9.5t1.5 -10.5q0 -12 -7 -19.5t-18 -7.5q-23 0 -23 27q0 23 24 59t78 76q39 28 59 45t44 41.5t34.5 49.5t10.5 53q0 21 -12.5 34t-33.5 13q-42 0 -71.5 -36t-29.5 -70q0 -24 17 -24q19 0 36.5 26t25.5 69z" />
    <glyph glyph-name="threesuperior" unicode="&#xb3;" horiz-adv-x="266" 
d="M171 635l22 -7q-12 -44 -36.5 -73t-48.5 -29q-26 0 -38 14.5t-12 34.5q0 48 40.5 88.5t94.5 40.5q43 0 71 -26t28 -66q0 -43 -26 -77.5t-69 -42.5v-2q24 -8 36.5 -29t12.5 -48q0 -60 -42.5 -100.5t-114.5 -40.5q-45 0 -73 21.5t-28 61.5q0 30 15.5 50t37.5 20
q13 0 21.5 -10t8.5 -24q0 -17 -9.5 -30.5t-24.5 -13.5q-8 0 -15 5v-6q0 -16 13.5 -28t42.5 -12q46 0 76 41.5t30 85.5q0 47 -18 47q-6 0 -17.5 -4.5t-18.5 -4.5q-23 0 -23 18q0 7 6 12t16 5q3 0 11.5 -2t12.5 -2q30 0 50.5 40.5t20.5 78.5q0 49 -43 49q-32 0 -60.5 -31
t-28.5 -60q0 -25 15 -25q19 0 33 18.5t31 62.5z" />
    <glyph glyph-name="acute" unicode="&#xb4;" horiz-adv-x="315" 
d="M166 546h-28l149 146q23 22 38 22q14 0 22.5 -9t8.5 -22q0 -17 -22 -31z" />
    <glyph glyph-name="mu" unicode="&#xb5;" horiz-adv-x="537" 
d="M-12 300l-28 12q63 178 148 178q36 0 60 -32.5t24 -79.5q0 -56 -44 -168q-44 -110 -44 -144q0 -44 30 -44q32 0 83.5 75t88.5 209l48 172h88q-17 -63 -41 -146.5t-36.5 -128.5t-22.5 -87.5t-10 -60.5q0 -27 18 -27q44 0 104 164l28 -12q-30 -86 -69 -139t-80 -53
q-30 0 -46.5 23t-16.5 59t6 68l-2 2q-76 -152 -154 -152q-34 0 -54 19l-56 -143q-8 -20 -13.5 -30t-16 -18t-24.5 -8q-15 0 -25.5 11.5t-10.5 30.5q0 10 5 27t17 47.5t25.5 63t36.5 89.5t44 111q67 171 74 212q2 14 2 24q0 15 -7.5 23.5t-19.5 8.5q-27 0 -56.5 -43
t-52.5 -113z" />
    <glyph glyph-name="paragraph" unicode="&#xb6;" horiz-adv-x="600" 
d="M447 656h-60l-215 -780h-56l112 408q-76 0 -113 34.5t-37 95.5q0 36 7.5 72.5t26.5 73t47 65t73 46t100 17.5h262l-7 -24q-47 -2 -68 -12t-28 -38l-203 -738h-56z" />
    <glyph glyph-name="periodcentered" unicode="&#xb7;" horiz-adv-x="222" 
d="M16 239q0 23 17.5 41t41.5 18t41.5 -18t17.5 -41t-17.5 -41t-41.5 -18t-41.5 18t-17.5 41z" />
    <glyph glyph-name="cedilla" unicode="&#xb8;" horiz-adv-x="315" 
d="M-80 -194l18 28q35 -16 64 -16t44.5 14t15.5 34q0 19 -14 29.5t-38 10.5q-12 0 -32 -8l-6 8l62 96h34l-44 -66q18 4 32 4q31 0 52.5 -20.5t21.5 -53.5q0 -32 -31.5 -57t-87.5 -25q-42 0 -91 22z" />
    <glyph glyph-name="onesuperior" unicode="&#xb9;" horiz-adv-x="266" 
d="M184 282h-182l8 24q31 1 46 12t22 34l83 286h-57l6 24q56 6 106 42h30q-5 -19 -33.5 -113t-50.5 -171t-22 -86q0 -16 10.5 -21.5t41.5 -6.5z" />
    <glyph glyph-name="ordmasculine" unicode="&#xba;" horiz-adv-x="266" 
d="M28 523q0 65 45 123t114 58q37 0 64 -32t27 -88q0 -65 -45.5 -123.5t-114.5 -58.5q-36 0 -63 32t-27 89zM84 477q0 -22 10.5 -34.5t25.5 -12.5q30 0 55 42t36 87t11 71q0 21 -10.5 33.5t-26.5 12.5q-29 0 -53.5 -41.5t-36 -86.5t-11.5 -71z" />
    <glyph glyph-name="guillemotright" unicode="&#xbb;" horiz-adv-x="463" 
d="M148 68l98 166l-20 176h40l54 -176l-124 -166h-48zM18 68l98 166l-20 176h40l54 -176l-124 -166h-48z" />
    <glyph glyph-name="onequarter" unicode="&#xbc;" horiz-adv-x="666" 
d="M178 282h-182l8 24q31 1 46 12t22 34l83 286h-57l6 24q56 6 106 42h30q-5 -19 -33.5 -113t-50.5 -171t-22 -86q0 -16 10.5 -21.5t41.5 -6.5zM608 168l16 -18q-35 -52 -82 -64l-32 -110h-55l32 108q-16 5 -33.5 19t-28.5 25.5t-14 11.5q-5 0 -24.5 -12t-28.5 -12
q-20 0 -20 17q0 12 14.5 23.5t32.5 11.5h14q24 34 52.5 108t43.5 146h61q-8 -52 -50.5 -136.5t-80.5 -121.5q14 -2 37.5 -16.5t34.5 -17.5l59 189h55l-59 -191q37 8 56 40zM75 -16l435 720h66l-435 -720h-66z" />
    <glyph glyph-name="onehalf" unicode="&#xbd;" horiz-adv-x="666" 
d="M166 282h-182l8 24q31 1 46 12t22 34l83 286h-57l6 24q56 6 106 42h30q-5 -19 -33.5 -113t-50.5 -171t-22 -86q0 -16 10.5 -21.5t41.5 -6.5zM57 -16l435 720h66l-435 -720h-66zM506 351l22 -5q-8 -51 -32.5 -84.5t-52.5 -33.5q-50 0 -50 51q0 53 44 97t104 44
q47 0 74 -26.5t27 -68.5q0 -74 -85 -130q-13 -8 -52 -30.5t-68.5 -43t-53.5 -45.5l1 1l2 -2q21 7 31 7q24 0 51.5 -17t41.5 -17q34 0 70 94l26 -5q-48 -149 -120 -149q-30 0 -60 30t-43 30q-14 0 -14 -13q0 -3 1.5 -9.5t1.5 -10.5q0 -12 -7 -19.5t-18 -7.5q-23 0 -23 27
q0 23 24 59t78 76q39 28 59 45t44 41.5t34.5 49.5t10.5 53q0 21 -12.5 34t-33.5 13q-42 0 -71.5 -36t-29.5 -70q0 -24 17 -24q19 0 36.5 26t25.5 69z" />
    <glyph glyph-name="threequarters" unicode="&#xbe;" horiz-adv-x="666" 
d="M620 168l16 -18q-35 -52 -82 -64l-32 -110h-55l32 108q-16 5 -33.5 19t-28.5 25.5t-14 11.5q-5 0 -24.5 -12t-28.5 -12q-20 0 -20 17q0 12 14.5 23.5t32.5 11.5h14q24 34 52.5 108t43.5 146h61q-8 -52 -50.5 -136.5t-80.5 -121.5q14 -2 37.5 -16.5t34.5 -17.5l59 189h55
l-59 -191q37 8 56 40zM171 635l22 -7q-12 -44 -36.5 -73t-48.5 -29q-26 0 -38 14.5t-12 34.5q0 48 40.5 88.5t94.5 40.5q43 0 71 -26t28 -66q0 -43 -26 -77.5t-69 -42.5v-2q24 -8 36.5 -29t12.5 -48q0 -60 -42.5 -100.5t-114.5 -40.5q-45 0 -73 21.5t-28 61.5q0 30 15.5 50
t37.5 20q13 0 21.5 -10t8.5 -24q0 -17 -9.5 -30.5t-24.5 -13.5q-8 0 -15 5v-6q0 -16 13.5 -28t42.5 -12q46 0 76 41.5t30 85.5q0 47 -18 47q-6 0 -17.5 -4.5t-18.5 -4.5q-23 0 -23 18q0 7 6 12t16 5q3 0 11.5 -2t12.5 -2q30 0 50.5 40.5t20.5 78.5q0 49 -43 49
q-32 0 -60.5 -31t-28.5 -60q0 -25 15 -25q19 0 33 18.5t31 62.5zM93 -16l435 720h66l-435 -720h-66z" />
    <glyph glyph-name="questiondown" unicode="&#xbf;" horiz-adv-x="407" 
d="M220 32l28 16q16 -34 16 -74q0 -64 -45.5 -115t-110.5 -51q-63 0 -103.5 43.5t-40.5 101.5q0 122 145 186q73 33 98 56t25 61q0 15 -7.5 26.5t-20.5 11.5q-14 0 -30.5 -18.5t-27.5 -51.5l-24 16q12 40 36 64t47 24q29 0 45 -21.5t16 -48.5q0 -37 -16 -67.5t-39.5 -49.5
t-51.5 -40.5t-51.5 -41.5t-39.5 -53t-16 -74q0 -39 18 -64.5t50 -25.5q44 0 77 40t33 93q0 30 -10 57zM320 464q0 -27 -17 -47.5t-39 -20.5q-23 0 -36.5 15.5t-13.5 40.5q0 27 17 47.5t39 20.5q23 0 36.5 -15.5t13.5 -40.5z" />
    <glyph glyph-name="Agrave" unicode="&#xc0;" horiz-adv-x="556" 
d="M350 704h46l22 -592q1 -46 14 -59.5t52 -18.5l-8 -34h-244l8 34q57 6 70.5 18.5t13.5 57.5q0 64 -4 128h-194l-60 -103q-24 -41 -24 -66q0 -17 14.5 -24.5t63.5 -10.5l-8 -34h-224l8 34q43 6 66.5 23.5t45.5 55.5zM318 278l-10 270h-2l-156 -270h168zM444 720h-28
l-133 105q-21 17 -21 33q0 10 9 20t23 10q12 0 21 -6t22 -24z" />
    <glyph glyph-name="Aacute" unicode="&#xc1;" horiz-adv-x="556" 
d="M350 704h46l22 -592q1 -46 14 -59.5t52 -18.5l-8 -34h-244l8 34q57 6 70.5 18.5t13.5 57.5q0 64 -4 128h-194l-60 -103q-24 -41 -24 -66q0 -17 14.5 -24.5t63.5 -10.5l-8 -34h-224l8 34q43 6 66.5 23.5t45.5 55.5zM318 278l-10 270h-2l-156 -270h168zM351 720h-28
l149 146q23 22 38 22q14 0 22.5 -9t8.5 -22q0 -17 -22 -31z" />
    <glyph glyph-name="Acircumflex" unicode="&#xc2;" horiz-adv-x="556" 
d="M350 704h46l22 -592q1 -46 14 -59.5t52 -18.5l-8 -34h-244l8 34q57 6 70.5 18.5t13.5 57.5q0 64 -4 128h-194l-60 -103q-24 -41 -24 -66q0 -17 14.5 -24.5t63.5 -10.5l-8 -34h-224l8 34q43 6 66.5 23.5t45.5 55.5zM318 278l-10 270h-2l-156 -270h168zM395 832l-122 -112
h-40l150 168h40l80 -168h-34z" />
    <glyph glyph-name="Atilde" unicode="&#xc3;" horiz-adv-x="556" 
d="M350 704h46l22 -592q1 -46 14 -59.5t52 -18.5l-8 -34h-244l8 34q57 6 70.5 18.5t13.5 57.5q0 64 -4 128h-194l-60 -103q-24 -41 -24 -66q0 -17 14.5 -24.5t63.5 -10.5l-8 -34h-224l8 34q43 6 66.5 23.5t45.5 55.5zM318 278l-10 270h-2l-156 -270h168zM517 850h22
q-6 -41 -26.5 -71.5t-55.5 -30.5q-23 0 -67 21q-42 21 -66 21q-16 0 -30 -14.5t-15 -31.5h-22q16 102 84 102q26 0 66 -21t65 -21q31 0 45 46z" />
    <glyph glyph-name="Adieresis" unicode="&#xc4;" horiz-adv-x="556" 
d="M350 704h46l22 -592q1 -46 14 -59.5t52 -18.5l-8 -34h-244l8 34q57 6 70.5 18.5t13.5 57.5q0 64 -4 128h-194l-60 -103q-24 -41 -24 -66q0 -17 14.5 -24.5t63.5 -10.5l-8 -34h-224l8 34q43 6 66.5 23.5t45.5 55.5zM318 278l-10 270h-2l-156 -270h168zM265 784
q0 18 12.5 31t31.5 13t31.5 -13t12.5 -31t-12.5 -31t-31.5 -13t-31.5 13t-12.5 31zM441 784q0 18 12.5 31t31.5 13t31.5 -13t12.5 -31t-12.5 -31t-31.5 -13t-31.5 13t-12.5 31z" />
    <glyph glyph-name="Aring" unicode="&#xc5;" horiz-adv-x="556" 
d="M350 704h46l22 -592q1 -46 14 -59.5t52 -18.5l-8 -34h-244l8 34q57 6 70.5 18.5t13.5 57.5q0 64 -4 128h-194l-60 -103q-24 -41 -24 -66q0 -17 14.5 -24.5t63.5 -10.5l-8 -34h-224l8 34q43 6 66.5 23.5t45.5 55.5zM318 278l-10 270h-2l-156 -270h168zM329 818
q0 -27 19.5 -46.5t46.5 -19.5t46.5 19.5t19.5 46.5t-19.5 46.5t-46.5 19.5t-46.5 -19.5t-19.5 -46.5zM295 818q0 41 29 70.5t71 29.5t71 -29.5t29 -70.5t-29 -70.5t-71 -29.5t-71 29.5t-29 70.5z" />
    <glyph glyph-name="AE" unicode="&#xc6;" horiz-adv-x="889" 
d="M118 0h-218l8 34q61 9 99 60l354 478q31 42 31 57q0 11 -15 16.5t-55 8.5l8 34h526l-66 -258h-34q8 85 8 101q0 58 -30.5 90.5t-79.5 32.5q-35 0 -53 -14t-29 -53l-56 -203h21q38 0 60 25t43 91h34l-74 -276h-34q4 15 4 46q0 41 -14.5 57.5t-49.5 16.5q-10 -36 -21 -74.5
t-16.5 -58.5t-11.5 -42t-8.5 -32.5t-5 -22.5t-3 -19t-0.5 -16q0 -45 63 -45q68 0 121.5 54.5t96.5 183.5h40l-75 -272h-444l8 34q45 4 66.5 20.5t30.5 47.5l53 202h-186q-21 -30 -42.5 -59t-35 -47t-26.5 -36.5t-20.5 -28.5t-14.5 -20.5t-10 -15.5t-5.5 -11t-3 -9.5
t-0.5 -8.5q0 -16 14.5 -24.5t55.5 -9.5zM240 344h170l82 310h-22z" />
    <glyph glyph-name="Ccedilla" unicode="&#xc7;" horiz-adv-x="556" 
d="M578 688l-70 -264h-34q8 53 8 101q0 79 -25 109t-76 30q-71 0 -134.5 -75t-100 -187t-36.5 -224q0 -73 33 -113.5t87 -40.5q140 0 210 246l40 -8q-18 -60 -36 -102.5t-48.5 -86t-75.5 -66.5t-103 -23q-10 0 -15 1l-32 -49q18 4 32 4q31 0 52.5 -20.5t21.5 -53.5
q0 -32 -31.5 -57t-87.5 -25q-42 0 -91 22l18 28q35 -16 64 -16t44.5 14t15.5 34q0 19 -14 29.5t-38 10.5q-12 0 -32 -8l-6 8l54 83q-72 17 -117 83t-45 176q0 117 55 224t141 169.5t176 62.5q82 0 128 -56l26 40h42z" />
    <glyph glyph-name="Egrave" unicode="&#xc8;" horiz-adv-x="574" 
d="M404 0h-482l8 34q51 3 70.5 16.5t31.5 57.5l118 438q12 48 12 67q0 22 -13.5 30.5t-46.5 10.5l8 34h464l-66 -258h-34q8 85 8 101q0 58 -30.5 90.5t-79.5 32.5q-55 0 -81 -20t-39 -68l-50 -182h21q60 0 86.5 24t48.5 92h34l-74 -276h-34q4 15 4 46q0 41 -14.5 57.5
t-51.5 16.5h-30q-10 -36 -21 -74.5t-16.5 -58.5t-11.5 -42t-8.5 -32.5t-5 -22.5t-3 -19t-0.5 -16q0 -45 63 -45q88 0 147 53.5t103 184.5h40zM441 720h-28l-133 105q-21 17 -21 33q0 10 9 20t23 10q21 0 43 -30z" />
    <glyph glyph-name="Eacute" unicode="&#xc9;" horiz-adv-x="574" 
d="M404 0h-482l8 34q51 3 70.5 16.5t31.5 57.5l118 438q12 48 12 67q0 22 -13.5 30.5t-46.5 10.5l8 34h464l-66 -258h-34q8 85 8 101q0 58 -30.5 90.5t-79.5 32.5q-55 0 -81 -20t-39 -68l-50 -182h21q60 0 86.5 24t48.5 92h34l-74 -276h-34q4 15 4 46q0 41 -14.5 57.5
t-51.5 16.5h-30q-10 -36 -21 -74.5t-16.5 -58.5t-11.5 -42t-8.5 -32.5t-5 -22.5t-3 -19t-0.5 -16q0 -45 63 -45q88 0 147 53.5t103 184.5h40zM348 720h-28l149 146q23 22 38 22q14 0 22.5 -9t8.5 -22q0 -17 -22 -31z" />
    <glyph glyph-name="Ecircumflex" unicode="&#xca;" horiz-adv-x="574" 
d="M404 0h-482l8 34q51 3 70.5 16.5t31.5 57.5l118 438q12 48 12 67q0 22 -13.5 30.5t-46.5 10.5l8 34h464l-66 -258h-34q8 85 8 101q0 58 -30.5 90.5t-79.5 32.5q-55 0 -81 -20t-39 -68l-50 -182h21q60 0 86.5 24t48.5 92h34l-74 -276h-34q4 15 4 46q0 41 -14.5 57.5
t-51.5 16.5h-30q-10 -36 -21 -74.5t-16.5 -58.5t-11.5 -42t-8.5 -32.5t-5 -22.5t-3 -19t-0.5 -16q0 -45 63 -45q88 0 147 53.5t103 184.5h40zM392 832l-122 -112h-40l150 168h40l80 -168h-34z" />
    <glyph glyph-name="Edieresis" unicode="&#xcb;" horiz-adv-x="574" 
d="M404 0h-482l8 34q51 3 70.5 16.5t31.5 57.5l118 438q12 48 12 67q0 22 -13.5 30.5t-46.5 10.5l8 34h464l-66 -258h-34q8 85 8 101q0 58 -30.5 90.5t-79.5 32.5q-55 0 -81 -20t-39 -68l-50 -182h21q60 0 86.5 24t48.5 92h34l-74 -276h-34q4 15 4 46q0 41 -14.5 57.5
t-51.5 16.5h-30q-10 -36 -21 -74.5t-16.5 -58.5t-11.5 -42t-8.5 -32.5t-5 -22.5t-3 -19t-0.5 -16q0 -45 63 -45q88 0 147 53.5t103 184.5h40zM262 784q0 18 12.5 31t31.5 13t31.5 -13t12.5 -31t-12.5 -31t-31.5 -13t-31.5 13t-12.5 31zM438 784q0 18 12.5 31t31.5 13
t31.5 -13t12.5 -31t-12.5 -31t-31.5 -13t-31.5 13t-12.5 31z" />
    <glyph glyph-name="Igrave" unicode="&#xcc;" horiz-adv-x="333" 
d="M198 34l-8 -34h-254l8 34q48 3 67.5 19t30.5 60l109 410q23 85 23 100q0 19 -14 25t-50 6l8 34h252l-8 -34q-74 -2 -90 -52q-15 -46 -77.5 -276t-62.5 -249q0 -24 12.5 -33t53.5 -10zM326 720h-28l-133 105q-21 17 -21 33q0 10 9 20t23 10q12 0 21 -6t22 -24z" />
    <glyph glyph-name="Iacute" unicode="&#xcd;" horiz-adv-x="333" 
d="M198 34l-8 -34h-254l8 34q48 3 67.5 19t30.5 60l109 410q23 85 23 100q0 19 -14 25t-50 6l8 34h252l-8 -34q-74 -2 -90 -52q-15 -46 -77.5 -276t-62.5 -249q0 -24 12.5 -33t53.5 -10zM233 720h-28l149 146q23 22 38 22q14 0 22.5 -9t8.5 -22q0 -17 -22 -31z" />
    <glyph glyph-name="Icircumflex" unicode="&#xce;" horiz-adv-x="333" 
d="M198 34l-8 -34h-254l8 34q48 3 67.5 19t30.5 60l109 410q23 85 23 100q0 19 -14 25t-50 6l8 34h252l-8 -34q-74 -2 -90 -52q-15 -46 -77.5 -276t-62.5 -249q0 -24 12.5 -33t53.5 -10zM277 832l-122 -112h-40l150 168h40l80 -168h-34z" />
    <glyph glyph-name="Idieresis" unicode="&#xcf;" horiz-adv-x="333" 
d="M198 34l-8 -34h-254l8 34q48 3 67.5 19t30.5 60l109 410q23 85 23 100q0 19 -14 25t-50 6l8 34h252l-8 -34q-74 -2 -90 -52q-15 -46 -77.5 -276t-62.5 -249q0 -24 12.5 -33t53.5 -10zM147 784q0 18 12.5 31t31.5 13t31.5 -13t12.5 -31t-12.5 -31t-31.5 -13t-31.5 13
t-12.5 31zM323 784q0 18 12.5 31t31.5 13t31.5 -13t12.5 -31t-12.5 -31t-31.5 -13t-31.5 13t-12.5 31z" />
    <glyph glyph-name="Eth" unicode="&#xd0;" horiz-adv-x="611" 
d="M3 352l12 46h97l30 113q22 83 22 108q0 20 -13 26.5t-49 8.5l8 34h252q96 0 150 -69.5t54 -177.5q0 -47 -13 -103t-43 -116.5t-71 -109.5t-103 -80.5t-134 -31.5h-280l8 34q86 3 100 56l70 262h-97zM354 398l-12 -46h-149q-69 -256 -69 -274q0 -21 14.5 -32.5t59.5 -11.5
q77 0 127.5 47.5t93.5 164.5q20 55 33.5 134.5t13.5 137.5q0 67 -30.5 101.5t-81.5 34.5q-45 0 -67.5 -18.5t-32.5 -57.5q-41 -159 -49 -180h149z" />
    <glyph glyph-name="Ntilde" unicode="&#xd1;" horiz-adv-x="611" 
d="M102 688h146l166 -512h2l84 318q26 99 26 117q0 23 -14 32.5t-50 10.5l8 34h202l-8 -34q-51 -3 -73.5 -29t-40.5 -95l-142 -538h-38l-178 564h-2l-108 -387q-18 -66 -18 -87q0 -44 72 -48l-8 -34h-214l8 34q54 5 75.5 26.5t36.5 74.5l105 377q25 88 25 102q0 22 -15.5 31
t-54.5 9zM544 850h22q-6 -41 -26.5 -71.5t-55.5 -30.5q-23 0 -67 21q-42 21 -66 21q-16 0 -30 -14.5t-15 -31.5h-22q16 102 84 102q26 0 66 -21t65 -21q31 0 45 46z" />
    <glyph glyph-name="Ograve" unicode="&#xd2;" horiz-adv-x="593" 
d="M352 704q91 0 145.5 -76t54.5 -200q0 -104 -47.5 -207t-128 -170t-166.5 -67q-91 0 -145.5 76t-54.5 200q0 104 47.5 207t128 170t166.5 67zM354 664q-49 0 -92 -40.5t-71 -100.5t-48.5 -129.5t-29.5 -127t-9 -94.5q0 -75 28.5 -111.5t75.5 -36.5q49 0 92 40.5t71 100.5
t48.5 129.5t29.5 127t9 94.5q0 75 -28.5 111.5t-75.5 36.5zM450 720h-28l-133 105q-21 17 -21 33q0 10 9 20t23 10q12 0 21 -6t22 -24z" />
    <glyph glyph-name="Oacute" unicode="&#xd3;" horiz-adv-x="593" 
d="M352 704q91 0 145.5 -76t54.5 -200q0 -104 -47.5 -207t-128 -170t-166.5 -67q-91 0 -145.5 76t-54.5 200q0 104 47.5 207t128 170t166.5 67zM354 664q-49 0 -92 -40.5t-71 -100.5t-48.5 -129.5t-29.5 -127t-9 -94.5q0 -75 28.5 -111.5t75.5 -36.5q49 0 92 40.5t71 100.5
t48.5 129.5t29.5 127t9 94.5q0 75 -28.5 111.5t-75.5 36.5zM357 720h-28l149 146q23 22 38 22q14 0 22.5 -9t8.5 -22q0 -17 -22 -31z" />
    <glyph glyph-name="Ocircumflex" unicode="&#xd4;" horiz-adv-x="593" 
d="M352 704q91 0 145.5 -76t54.5 -200q0 -104 -47.5 -207t-128 -170t-166.5 -67q-91 0 -145.5 76t-54.5 200q0 104 47.5 207t128 170t166.5 67zM354 664q-49 0 -92 -40.5t-71 -100.5t-48.5 -129.5t-29.5 -127t-9 -94.5q0 -75 28.5 -111.5t75.5 -36.5q49 0 92 40.5t71 100.5
t48.5 129.5t29.5 127t9 94.5q0 75 -28.5 111.5t-75.5 36.5zM401 832l-122 -112h-40l150 168h40l80 -168h-34z" />
    <glyph glyph-name="Otilde" unicode="&#xd5;" horiz-adv-x="593" 
d="M352 704q91 0 145.5 -76t54.5 -200q0 -104 -47.5 -207t-128 -170t-166.5 -67q-91 0 -145.5 76t-54.5 200q0 104 47.5 207t128 170t166.5 67zM354 664q-49 0 -92 -40.5t-71 -100.5t-48.5 -129.5t-29.5 -127t-9 -94.5q0 -75 28.5 -111.5t75.5 -36.5q49 0 92 40.5t71 100.5
t48.5 129.5t29.5 127t9 94.5q0 75 -28.5 111.5t-75.5 36.5zM523 850h22q-6 -41 -26.5 -71.5t-55.5 -30.5q-23 0 -67 21q-42 21 -66 21q-16 0 -30 -14.5t-15 -31.5h-22q16 102 84 102q26 0 66 -21t65 -21q31 0 45 46z" />
    <glyph glyph-name="Odieresis" unicode="&#xd6;" horiz-adv-x="593" 
d="M352 704q91 0 145.5 -76t54.5 -200q0 -104 -47.5 -207t-128 -170t-166.5 -67q-91 0 -145.5 76t-54.5 200q0 104 47.5 207t128 170t166.5 67zM354 664q-49 0 -92 -40.5t-71 -100.5t-48.5 -129.5t-29.5 -127t-9 -94.5q0 -75 28.5 -111.5t75.5 -36.5q49 0 92 40.5t71 100.5
t48.5 129.5t29.5 127t9 94.5q0 75 -28.5 111.5t-75.5 36.5zM271 784q0 18 12.5 31t31.5 13t31.5 -13t12.5 -31t-12.5 -31t-31.5 -13t-31.5 13t-12.5 31zM447 784q0 18 12.5 31t31.5 13t31.5 -13t12.5 -31t-12.5 -31t-31.5 -13t-31.5 13t-12.5 31z" />
    <glyph glyph-name="multiply" unicode="&#xd7;" horiz-adv-x="600" 
d="M223 239l-199 199l40 40l199 -199l199 199l40 -40l-199 -199l199 -199l-40 -40l-199 199l-199 -199l-40 40z" />
    <glyph glyph-name="Oslash" unicode="&#xd8;" horiz-adv-x="593" 
d="M113 102l314 527q-27 35 -73 35q-49 0 -92 -40.5t-71 -100.5t-48.5 -129.5t-29.5 -127t-9 -94.5q0 -42 9 -70zM448 590l-316 -528q28 -38 76 -38q49 0 92 40.5t71 100.5t48.5 129.5t29.5 127t9 94.5q0 41 -10 74zM554 768l-72 -121q70 -76 70 -219q0 -104 -47.5 -207
t-128 -170t-166.5 -67q-59 0 -104 34l-58 -98h-44l74 124q-68 76 -68 216q0 104 47.5 207t128 170t166.5 67q58 0 101 -32l57 96h44z" />
    <glyph glyph-name="Ugrave" unicode="&#xd9;" horiz-adv-x="611" 
d="M88 654l8 34h268l-8 -34q-57 -2 -77 -16t-35 -69l-92 -333q-22 -84 -22 -112q0 -49 30.5 -77.5t84.5 -28.5q68 0 112.5 42.5t71.5 142.5l86 322q17 61 17 92q0 21 -14 28t-52 9l8 34h196l-8 -34q-45 -1 -65 -22t-35 -79l-97 -365q-29 -111 -87.5 -157.5t-149.5 -46.5
q-94 0 -145 39t-51 106q0 39 26 133l82 292q14 49 14 67q0 16 -14 24t-52 9zM465 720h-28l-133 105q-21 17 -21 33q0 10 9 20t23 10q21 0 43 -30z" />
    <glyph glyph-name="Uacute" unicode="&#xda;" horiz-adv-x="611" 
d="M88 654l8 34h268l-8 -34q-57 -2 -77 -16t-35 -69l-92 -333q-22 -84 -22 -112q0 -49 30.5 -77.5t84.5 -28.5q68 0 112.5 42.5t71.5 142.5l86 322q17 61 17 92q0 21 -14 28t-52 9l8 34h196l-8 -34q-45 -1 -65 -22t-35 -79l-97 -365q-29 -111 -87.5 -157.5t-149.5 -46.5
q-94 0 -145 39t-51 106q0 39 26 133l82 292q14 49 14 67q0 16 -14 24t-52 9zM372 720h-28l149 146q23 22 38 22q14 0 22.5 -9t8.5 -22q0 -17 -22 -31z" />
    <glyph glyph-name="Ucircumflex" unicode="&#xdb;" horiz-adv-x="611" 
d="M88 654l8 34h268l-8 -34q-57 -2 -77 -16t-35 -69l-92 -333q-22 -84 -22 -112q0 -49 30.5 -77.5t84.5 -28.5q68 0 112.5 42.5t71.5 142.5l86 322q17 61 17 92q0 21 -14 28t-52 9l8 34h196l-8 -34q-45 -1 -65 -22t-35 -79l-97 -365q-29 -111 -87.5 -157.5t-149.5 -46.5
q-94 0 -145 39t-51 106q0 39 26 133l82 292q14 49 14 67q0 16 -14 24t-52 9zM416 832l-122 -112h-40l150 168h40l80 -168h-34z" />
    <glyph glyph-name="Udieresis" unicode="&#xdc;" horiz-adv-x="611" 
d="M88 654l8 34h268l-8 -34q-57 -2 -77 -16t-35 -69l-92 -333q-22 -84 -22 -112q0 -49 30.5 -77.5t84.5 -28.5q68 0 112.5 42.5t71.5 142.5l86 322q17 61 17 92q0 21 -14 28t-52 9l8 34h196l-8 -34q-45 -1 -65 -22t-35 -79l-97 -365q-29 -111 -87.5 -157.5t-149.5 -46.5
q-94 0 -145 39t-51 106q0 39 26 133l82 292q14 49 14 67q0 16 -14 24t-52 9zM286 784q0 18 12.5 31t31.5 13t31.5 -13t12.5 -31t-12.5 -31t-31.5 -13t-31.5 13t-12.5 31zM462 784q0 18 12.5 31t31.5 13t31.5 -13t12.5 -31t-12.5 -31t-31.5 -13t-31.5 13t-12.5 31z" />
    <glyph glyph-name="Yacute" unicode="&#xdd;" horiz-adv-x="500" 
d="M278 0h-266l8 34q50 3 70 17t31 56l49 181l-59 318q-4 25 -16.5 35t-44.5 13l8 34h232l-8 -34q-41 0 -57.5 -8.5t-16.5 -36.5q0 -12 48 -271l160 220q34 47 34 69q0 15 -14 20t-48 7l8 34h200l-8 -34q-35 -3 -60 -21.5t-63 -70.5l-197 -270q-58 -216 -58 -221
q0 -20 15.5 -27t60.5 -10zM323 720h-28l149 146q23 22 38 22q14 0 22.5 -9t8.5 -22q0 -17 -22 -31z" />
    <glyph glyph-name="Thorn" unicode="&#xde;" horiz-adv-x="537" 
d="M192 0h-268l8 34q47 2 68 16.5t32 55.5l114 422q20 76 20 90q0 22 -11 29t-47 7l8 34h252l-8 -34q-48 -1 -67 -12.5t-27 -39.5l-18 -66h44q200 0 200 -155q0 -86 -64 -150.5t-186 -64.5h-98q-22 -79 -22 -97q0 -19 16 -26.5t62 -8.5zM215 424l-61 -224q100 0 133 11
q45 15 75 72t30 125q0 41 -24.5 67.5t-66.5 26.5q-38 0 -56.5 -19t-29.5 -59z" />
    <glyph glyph-name="germandbls" unicode="&#xdf;" horiz-adv-x="537" 
d="M98 444h-62l8 34h64q45 110 108.5 168t138.5 58q71 0 112 -39t41 -95q0 -53 -26.5 -90.5t-75.5 -50.5q-9 -2 -24.5 -6t-22.5 -6l-17.5 -5t-15.5 -6.5t-10.5 -9t-7.5 -12t-2 -15.5q0 -16 7 -25.5t32 -28t39 -30.5q70 -62 70 -127q0 -66 -54.5 -118t-129.5 -52
q-49 0 -85.5 30t-36.5 76q0 36 15.5 57t41.5 21q23 0 35 -14t12 -34q0 -19 -7.5 -32t-16.5 -17.5t-16.5 -10.5t-7.5 -14q0 -12 18 -20t47 -8q46 0 75.5 29.5t29.5 69.5q0 28 -14.5 50.5t-35.5 39l-42 33t-35.5 39.5t-14.5 52q0 79 90 102q106 27 106 140q0 43 -22.5 68
t-60.5 25q-32 0 -58 -16.5t-52 -59.5t-48 -126t-39 -207q-63 -453 -258 -453q-38 0 -60 22t-22 58q0 31 18.5 51.5t43.5 20.5q20 0 32 -14.5t12 -31.5q0 -21 -12 -33t-24 -18.5t-12 -13.5q0 -13 22 -13q102 0 131 177q6 37 19 118t18 110.5t14 78t15 76t13 48.5z" />
    <glyph glyph-name="agrave" unicode="&#xe0;" horiz-adv-x="500" 
d="M300 392l22 86h88l-97 -351q-13 -46 -13 -72q0 -27 19 -27q42 0 101 162l28 -8q-62 -194 -148 -194q-66 0 -66 102h-2q-62 -102 -128 -102q-49 0 -82.5 50.5t-33.5 132.5q0 77 37.5 152.5t91.5 121t104 45.5q35 0 53 -24t24 -74h2zM110 22q38 0 76.5 53.5t62 131.5
t23.5 147q0 102 -47 102q-38 0 -75.5 -63.5t-59.5 -148t-22 -151.5q0 -36 11.5 -53.5t30.5 -17.5zM352 546h-28l-133 105q-21 17 -21 33q0 10 9 20t23 10q21 0 43 -30z" />
    <glyph glyph-name="aacute" unicode="&#xe1;" horiz-adv-x="500" 
d="M300 392l22 86h88l-97 -351q-13 -46 -13 -72q0 -27 19 -27q42 0 101 162l28 -8q-62 -194 -148 -194q-66 0 -66 102h-2q-62 -102 -128 -102q-49 0 -82.5 50.5t-33.5 132.5q0 77 37.5 152.5t91.5 121t104 45.5q35 0 53 -24t24 -74h2zM110 22q38 0 76.5 53.5t62 131.5
t23.5 147q0 102 -47 102q-38 0 -75.5 -63.5t-59.5 -148t-22 -151.5q0 -36 11.5 -53.5t30.5 -17.5zM259 546h-28l149 146q23 22 38 22q14 0 22.5 -9t8.5 -22q0 -17 -22 -31z" />
    <glyph glyph-name="acircumflex" unicode="&#xe2;" horiz-adv-x="500" 
d="M300 392l22 86h88l-97 -351q-13 -46 -13 -72q0 -27 19 -27q42 0 101 162l28 -8q-62 -194 -148 -194q-66 0 -66 102h-2q-62 -102 -128 -102q-49 0 -82.5 50.5t-33.5 132.5q0 77 37.5 152.5t91.5 121t104 45.5q35 0 53 -24t24 -74h2zM110 22q38 0 76.5 53.5t62 131.5
t23.5 147q0 102 -47 102q-38 0 -75.5 -63.5t-59.5 -148t-22 -151.5q0 -36 11.5 -53.5t30.5 -17.5zM303 658l-122 -112h-40l150 168h40l80 -168h-34z" />
    <glyph glyph-name="atilde" unicode="&#xe3;" horiz-adv-x="500" 
d="M300 392l22 86h88l-97 -351q-13 -46 -13 -72q0 -27 19 -27q42 0 101 162l28 -8q-62 -194 -148 -194q-66 0 -66 102h-2q-62 -102 -128 -102q-49 0 -82.5 50.5t-33.5 132.5q0 77 37.5 152.5t91.5 121t104 45.5q35 0 53 -24t24 -74h2zM110 22q38 0 76.5 53.5t62 131.5
t23.5 147q0 102 -47 102q-38 0 -75.5 -63.5t-59.5 -148t-22 -151.5q0 -36 11.5 -53.5t30.5 -17.5zM425 676h22q-6 -41 -26.5 -71.5t-55.5 -30.5q-23 0 -67 21q-42 21 -66 21q-16 0 -30 -14.5t-15 -31.5h-22q16 102 84 102q26 0 66 -21t65 -21q31 0 45 46z" />
    <glyph glyph-name="adieresis" unicode="&#xe4;" horiz-adv-x="500" 
d="M300 392l22 86h88l-97 -351q-13 -46 -13 -72q0 -27 19 -27q42 0 101 162l28 -8q-62 -194 -148 -194q-66 0 -66 102h-2q-62 -102 -128 -102q-49 0 -82.5 50.5t-33.5 132.5q0 77 37.5 152.5t91.5 121t104 45.5q35 0 53 -24t24 -74h2zM110 22q38 0 76.5 53.5t62 131.5
t23.5 147q0 102 -47 102q-38 0 -75.5 -63.5t-59.5 -148t-22 -151.5q0 -36 11.5 -53.5t30.5 -17.5zM173 610q0 18 12.5 31t31.5 13t31.5 -13t12.5 -31t-12.5 -31t-31.5 -13t-31.5 13t-12.5 31zM349 610q0 18 12.5 31t31.5 13t31.5 -13t12.5 -31t-12.5 -31t-31.5 -13t-31.5 13
t-12.5 31z" />
    <glyph glyph-name="aring" unicode="&#xe5;" horiz-adv-x="500" 
d="M300 392l22 86h88l-97 -351q-13 -46 -13 -72q0 -27 19 -27q42 0 101 162l28 -8q-62 -194 -148 -194q-66 0 -66 102h-2q-62 -102 -128 -102q-49 0 -82.5 50.5t-33.5 132.5q0 77 37.5 152.5t91.5 121t104 45.5q35 0 53 -24t24 -74h2zM110 22q38 0 76.5 53.5t62 131.5
t23.5 147q0 102 -47 102q-38 0 -75.5 -63.5t-59.5 -148t-22 -151.5q0 -36 11.5 -53.5t30.5 -17.5zM237 644q0 -27 19.5 -46.5t46.5 -19.5t46.5 19.5t19.5 46.5t-19.5 46.5t-46.5 19.5t-46.5 -19.5t-19.5 -46.5zM203 644q0 41 29 70.5t71 29.5t71 -29.5t29 -70.5t-29 -70.5
t-71 -29.5t-71 29.5t-29 70.5z" />
    <glyph glyph-name="ae" unicode="&#xe6;" horiz-adv-x="648" 
d="M272 354q0 42 -12.5 72t-34.5 30q-32 0 -69 -57t-62.5 -141.5t-25.5 -157.5q0 -78 44 -78q37 0 75 53.5t61.5 131.5t23.5 147zM316 490h72l-18 -65l2 -2q72 67 141 67q41 0 66 -23t25 -66q0 -79 -81 -135.5t-188 -71.5q-9 -33 -9 -84q0 -88 59 -88q42 0 84 50t73 123
l24 -11q-32 -86 -83 -141t-112 -55q-90 0 -117 105q-64 -105 -143 -105q-52 0 -87.5 50.5t-35.5 132.5q0 125 76.5 222t154.5 97q68 0 77 -88h2zM542 411q0 45 -37 45t-72 -39.5t-56.5 -89t-33.5 -99.5q74 5 136.5 59.5t62.5 123.5z" />
    <glyph glyph-name="ccedilla" unicode="&#xe7;" horiz-adv-x="389" 
d="M282 192l28 -8q-37 -93 -62 -128q-49 -68 -120 -68q-10 0 -15 1l-35 -53q18 4 32 4q31 0 52.5 -20.5t21.5 -53.5q0 -32 -31.5 -57t-87.5 -25q-42 0 -91 22l18 28q35 -16 64 -16t44.5 14t15.5 34q0 19 -14 29.5t-38 10.5q-12 0 -32 -8l-6 8l58 89q-96 33 -96 187
q0 122 87 215t176 93q37 0 61 -24t24 -70q0 -38 -17.5 -61t-43.5 -23q-18 0 -31.5 13.5t-13.5 35.5q0 42 41 62q5 2 12 4t9 3.5t2 5.5q0 20 -42 20q-52 0 -96 -57t-66 -134t-22 -147q0 -96 72 -96q80 0 142 170z" />
    <glyph glyph-name="egrave" unicode="&#xe8;" horiz-adv-x="389" 
d="M284 195l24 -11q-32 -86 -83 -141t-112 -55t-93 49t-32 135q0 65 29 126.5t70.5 102t87 65t80.5 24.5q41 0 66 -23t25 -66q0 -79 -81 -135.5t-188 -71.5q-9 -33 -9 -84q0 -88 59 -88q42 0 84 50t73 123zM284 411q0 45 -37 45t-72 -39.5t-56.5 -89t-33.5 -99.5
q74 5 136.5 59.5t62.5 123.5zM313 546h-28l-133 105q-21 17 -21 33q0 10 9 20t23 10q21 0 43 -30z" />
    <glyph glyph-name="eacute" unicode="&#xe9;" horiz-adv-x="389" 
d="M284 195l24 -11q-32 -86 -83 -141t-112 -55t-93 49t-32 135q0 65 29 126.5t70.5 102t87 65t80.5 24.5q41 0 66 -23t25 -66q0 -79 -81 -135.5t-188 -71.5q-9 -33 -9 -84q0 -88 59 -88q42 0 84 50t73 123zM284 411q0 45 -37 45t-72 -39.5t-56.5 -89t-33.5 -99.5
q74 5 136.5 59.5t62.5 123.5zM220 546h-28l149 146q23 22 38 22q14 0 22.5 -9t8.5 -22q0 -17 -22 -31z" />
    <glyph glyph-name="ecircumflex" unicode="&#xea;" horiz-adv-x="389" 
d="M284 195l24 -11q-32 -86 -83 -141t-112 -55t-93 49t-32 135q0 65 29 126.5t70.5 102t87 65t80.5 24.5q41 0 66 -23t25 -66q0 -79 -81 -135.5t-188 -71.5q-9 -33 -9 -84q0 -88 59 -88q42 0 84 50t73 123zM284 411q0 45 -37 45t-72 -39.5t-56.5 -89t-33.5 -99.5
q74 5 136.5 59.5t62.5 123.5zM264 658l-122 -112h-40l150 168h40l80 -168h-34z" />
    <glyph glyph-name="edieresis" unicode="&#xeb;" horiz-adv-x="389" 
d="M284 195l24 -11q-32 -86 -83 -141t-112 -55t-93 49t-32 135q0 65 29 126.5t70.5 102t87 65t80.5 24.5q41 0 66 -23t25 -66q0 -79 -81 -135.5t-188 -71.5q-9 -33 -9 -84q0 -88 59 -88q42 0 84 50t73 123zM284 411q0 45 -37 45t-72 -39.5t-56.5 -89t-33.5 -99.5
q74 5 136.5 59.5t62.5 123.5zM134 610q0 18 12.5 31t31.5 13t31.5 -13t12.5 -31t-12.5 -31t-31.5 -13t-31.5 13t-12.5 31zM310 610q0 18 12.5 31t31.5 13t31.5 -13t12.5 -31t-12.5 -31t-31.5 -13t-31.5 13t-12.5 31z" />
    <glyph glyph-name="igrave" unicode="&#xec;" horiz-adv-x="315" 
d="M238 188l26 -10q-34 -93 -73 -141.5t-88 -48.5q-36 0 -55.5 29.5t-19.5 76.5q0 58 52 174.5t52 154.5q0 33 -24 33q-45 0 -109 -156l-26 8q67 182 147 182q33 0 53.5 -29t20.5 -76q0 -50 -24.5 -119t-49 -127t-24.5 -81q0 -36 25 -36q54 0 117 166zM247 546h-28l-133 105
q-21 17 -21 33q0 10 9 20t23 10q21 0 43 -30z" />
    <glyph glyph-name="iacute" unicode="&#xed;" horiz-adv-x="315" 
d="M238 188l26 -10q-34 -93 -73 -141.5t-88 -48.5q-36 0 -55.5 29.5t-19.5 76.5q0 58 52 174.5t52 154.5q0 33 -24 33q-45 0 -109 -156l-26 8q67 182 147 182q33 0 53.5 -29t20.5 -76q0 -50 -24.5 -119t-49 -127t-24.5 -81q0 -36 25 -36q54 0 117 166zM154 546h-28l149 146
q23 22 38 22q14 0 22.5 -9t8.5 -22q0 -17 -22 -31z" />
    <glyph glyph-name="icircumflex" unicode="&#xee;" horiz-adv-x="315" 
d="M238 188l26 -10q-34 -93 -73 -141.5t-88 -48.5q-36 0 -55.5 29.5t-19.5 76.5q0 58 52 174.5t52 154.5q0 33 -24 33q-45 0 -109 -156l-26 8q67 182 147 182q33 0 53.5 -29t20.5 -76q0 -50 -24.5 -119t-49 -127t-24.5 -81q0 -36 25 -36q54 0 117 166zM198 658l-122 -112
h-40l150 168h40l80 -168h-34z" />
    <glyph glyph-name="idieresis" unicode="&#xef;" horiz-adv-x="315" 
d="M238 188l26 -10q-34 -93 -73 -141.5t-88 -48.5q-36 0 -55.5 29.5t-19.5 76.5q0 58 52 174.5t52 154.5q0 33 -24 33q-45 0 -109 -156l-26 8q67 182 147 182q33 0 53.5 -29t20.5 -76q0 -50 -24.5 -119t-49 -127t-24.5 -81q0 -36 25 -36q54 0 117 166zM68 610q0 18 12.5 31
t31.5 13t31.5 -13t12.5 -31t-12.5 -31t-31.5 -13t-31.5 13t-12.5 31zM244 610q0 18 12.5 31t31.5 13t31.5 -13t12.5 -31t-12.5 -31t-31.5 -13t-31.5 13t-12.5 31z" />
    <glyph glyph-name="eth" unicode="&#xf0;" 
d="M62 112q0 -96 67 -96q40 0 74 43.5t53 104.5t29.5 115.5t10.5 86.5q0 96 -67 96q-40 0 -74 -43.5t-53 -104.5t-29.5 -115.5t-10.5 -86.5zM174 536l-20 24l88 63q-33 36 -94 57l18 24q64 -18 108 -57l84 61l20 -24l-81 -59q79 -88 79 -267q0 -101 -27.5 -183.5
t-84.5 -134.5t-135 -52q-64 0 -102.5 52t-38.5 148q0 68 28.5 136.5t85.5 117t127 48.5q43 0 68 -21q-7 85 -36 130z" />
    <glyph glyph-name="ntilde" unicode="&#xf1;" horiz-adv-x="537" 
d="M463 188l26 -10q-75 -190 -161 -190q-32 0 -54 26t-22 76q0 49 27 115.5t54 126t27 91.5q0 33 -29 33q-51 0 -115.5 -119t-127.5 -337h-80q14 53 33 122.5t30 110.5t22 84.5t16 70t5 41.5q0 27 -23 27q-22 0 -49.5 -39t-53.5 -115l-28 8q63 180 146 180q31 0 50.5 -24
t19.5 -65q0 -29 -6 -87l2 -2q42 90 82.5 134t86.5 44q37 0 59 -28t22 -76q0 -50 -25.5 -120t-51 -130t-25.5 -85q0 -29 23 -29t57 46.5t63 119.5zM426 676h22q-6 -41 -26.5 -71.5t-55.5 -30.5q-23 0 -67 21q-42 21 -66 21q-16 0 -30 -14.5t-15 -31.5h-22q16 102 84 102
q26 0 66 -21t65 -21q31 0 45 46z" />
    <glyph glyph-name="ograve" unicode="&#xf2;" 
d="M370 290q0 -68 -28.5 -136.5t-85.5 -117t-127 -48.5q-64 0 -102.5 52t-38.5 148q0 68 28.5 136.5t85.5 117t127 48.5q64 0 102.5 -52t38.5 -148zM62 112q0 -96 67 -96q40 0 74 43.5t53 104.5t29.5 115.5t10.5 86.5q0 96 -67 96q-40 0 -74 -43.5t-53 -104.5t-29.5 -115.5
t-10.5 -86.5zM312 546h-28l-133 105q-21 17 -21 33q0 10 9 20t23 10q12 0 21 -6t22 -24z" />
    <glyph glyph-name="oacute" unicode="&#xf3;" 
d="M370 290q0 -68 -28.5 -136.5t-85.5 -117t-127 -48.5q-64 0 -102.5 52t-38.5 148q0 68 28.5 136.5t85.5 117t127 48.5q64 0 102.5 -52t38.5 -148zM62 112q0 -96 67 -96q40 0 74 43.5t53 104.5t29.5 115.5t10.5 86.5q0 96 -67 96q-40 0 -74 -43.5t-53 -104.5t-29.5 -115.5
t-10.5 -86.5zM219 546h-28l149 146q23 22 38 22q14 0 22.5 -9t8.5 -22q0 -17 -22 -31z" />
    <glyph glyph-name="ocircumflex" unicode="&#xf4;" 
d="M370 290q0 -68 -28.5 -136.5t-85.5 -117t-127 -48.5q-64 0 -102.5 52t-38.5 148q0 68 28.5 136.5t85.5 117t127 48.5q64 0 102.5 -52t38.5 -148zM62 112q0 -96 67 -96q40 0 74 43.5t53 104.5t29.5 115.5t10.5 86.5q0 96 -67 96q-40 0 -74 -43.5t-53 -104.5t-29.5 -115.5
t-10.5 -86.5zM263 658l-122 -112h-40l150 168h40l80 -168h-34z" />
    <glyph glyph-name="otilde" unicode="&#xf5;" 
d="M370 290q0 -68 -28.5 -136.5t-85.5 -117t-127 -48.5q-64 0 -102.5 52t-38.5 148q0 68 28.5 136.5t85.5 117t127 48.5q64 0 102.5 -52t38.5 -148zM62 112q0 -96 67 -96q40 0 74 43.5t53 104.5t29.5 115.5t10.5 86.5q0 96 -67 96q-40 0 -74 -43.5t-53 -104.5t-29.5 -115.5
t-10.5 -86.5zM385 676h22q-6 -41 -26.5 -71.5t-55.5 -30.5q-23 0 -67 21q-42 21 -66 21q-16 0 -30 -14.5t-15 -31.5h-22q16 102 84 102q26 0 66 -21t65 -21q31 0 45 46z" />
    <glyph glyph-name="odieresis" unicode="&#xf6;" 
d="M370 290q0 -68 -28.5 -136.5t-85.5 -117t-127 -48.5q-64 0 -102.5 52t-38.5 148q0 68 28.5 136.5t85.5 117t127 48.5q64 0 102.5 -52t38.5 -148zM62 112q0 -96 67 -96q40 0 74 43.5t53 104.5t29.5 115.5t10.5 86.5q0 96 -67 96q-40 0 -74 -43.5t-53 -104.5t-29.5 -115.5
t-10.5 -86.5zM133 610q0 18 12.5 31t31.5 13t31.5 -13t12.5 -31t-12.5 -31t-31.5 -13t-31.5 13t-12.5 31zM309 610q0 18 12.5 31t31.5 13t31.5 -13t12.5 -31t-12.5 -31t-31.5 -13t-31.5 13t-12.5 31z" />
    <glyph glyph-name="divide" unicode="&#xf7;" horiz-adv-x="600" 
d="M24 211v56h478v-56h-478zM207 434q0 24 16.5 40t39.5 16t39.5 -16t16.5 -40t-16.5 -40t-39.5 -16t-39.5 16t-16.5 40zM207 44q0 24 16.5 40t39.5 16t39.5 -16t16.5 -40t-16.5 -40t-39.5 -16t-39.5 16t-16.5 40z" />
    <glyph glyph-name="oslash" unicode="&#xf8;" 
d="M65 86l213 353q-17 23 -49 23q-40 0 -74 -43.5t-53 -104.5t-29.5 -115.5t-10.5 -86.5q0 -16 3 -26zM293 398l-214 -356q16 -26 50 -26q40 0 74 43.5t53 104.5t29.5 115.5t10.5 86.5q0 18 -3 32zM344 550h40l-62 -103q48 -51 48 -157q0 -68 -28.5 -136.5t-85.5 -117
t-127 -48.5q-42 0 -70 21l-53 -87h-40l67 111q-45 53 -45 155q0 68 28.5 136.5t85.5 117t127 48.5q39 0 67 -20z" />
    <glyph glyph-name="ugrave" unicode="&#xf9;" horiz-adv-x="537" 
d="M-12 300l-28 12q63 178 148 178q36 0 60 -32.5t24 -79.5q0 -56 -44 -168q-44 -110 -44 -144q0 -44 30 -44q32 0 83.5 75t88.5 209l48 172h88q-17 -63 -41 -146.5t-36.5 -128.5t-22.5 -87.5t-10 -60.5q0 -27 18 -27q44 0 104 164l28 -12q-30 -86 -69 -139t-80 -53
q-30 0 -46.5 23t-16.5 59t6 68l-2 2q-76 -152 -154 -152q-42 0 -66 32t-24 95q0 59 47 165q47 104 47 144q0 15 -7.5 23.5t-19.5 8.5q-27 0 -56.5 -43t-52.5 -113zM358 546h-28l-133 105q-21 17 -21 33q0 10 9 20t23 10q21 0 43 -30z" />
    <glyph glyph-name="uacute" unicode="&#xfa;" horiz-adv-x="537" 
d="M-12 300l-28 12q63 178 148 178q36 0 60 -32.5t24 -79.5q0 -56 -44 -168q-44 -110 -44 -144q0 -44 30 -44q32 0 83.5 75t88.5 209l48 172h88q-17 -63 -41 -146.5t-36.5 -128.5t-22.5 -87.5t-10 -60.5q0 -27 18 -27q44 0 104 164l28 -12q-30 -86 -69 -139t-80 -53
q-30 0 -46.5 23t-16.5 59t6 68l-2 2q-76 -152 -154 -152q-42 0 -66 32t-24 95q0 59 47 165q47 104 47 144q0 15 -7.5 23.5t-19.5 8.5q-27 0 -56.5 -43t-52.5 -113zM265 546h-28l149 146q23 22 38 22q14 0 22.5 -9t8.5 -22q0 -17 -22 -31z" />
    <glyph glyph-name="ucircumflex" unicode="&#xfb;" horiz-adv-x="537" 
d="M-12 300l-28 12q63 178 148 178q36 0 60 -32.5t24 -79.5q0 -56 -44 -168q-44 -110 -44 -144q0 -44 30 -44q32 0 83.5 75t88.5 209l48 172h88q-17 -63 -41 -146.5t-36.5 -128.5t-22.5 -87.5t-10 -60.5q0 -27 18 -27q44 0 104 164l28 -12q-30 -86 -69 -139t-80 -53
q-30 0 -46.5 23t-16.5 59t6 68l-2 2q-76 -152 -154 -152q-42 0 -66 32t-24 95q0 59 47 165q47 104 47 144q0 15 -7.5 23.5t-19.5 8.5q-27 0 -56.5 -43t-52.5 -113zM309 658l-122 -112h-40l150 168h40l80 -168h-34z" />
    <glyph glyph-name="udieresis" unicode="&#xfc;" horiz-adv-x="537" 
d="M-12 300l-28 12q63 178 148 178q36 0 60 -32.5t24 -79.5q0 -56 -44 -168q-44 -110 -44 -144q0 -44 30 -44q32 0 83.5 75t88.5 209l48 172h88q-17 -63 -41 -146.5t-36.5 -128.5t-22.5 -87.5t-10 -60.5q0 -27 18 -27q44 0 104 164l28 -12q-30 -86 -69 -139t-80 -53
q-30 0 -46.5 23t-16.5 59t6 68l-2 2q-76 -152 -154 -152q-42 0 -66 32t-24 95q0 59 47 165q47 104 47 144q0 15 -7.5 23.5t-19.5 8.5q-27 0 -56.5 -43t-52.5 -113zM179 610q0 18 12.5 31t31.5 13t31.5 -13t12.5 -31t-12.5 -31t-31.5 -13t-31.5 13t-12.5 31zM355 610
q0 18 12.5 31t31.5 13t31.5 -13t12.5 -31t-12.5 -31t-31.5 -13t-31.5 13t-12.5 31z" />
    <glyph glyph-name="yacute" unicode="&#xfd;" horiz-adv-x="481" 
d="M-15 297l-27 13q40 103 75 141.5t73 38.5q32 0 53 -27.5t21 -77.5q0 -40 -10 -74t-36 -97q-46 -109 -46 -147q0 -39 32 -39q39 0 92 80.5t73 149.5l63 220h88l-135 -490q-18 -67 -61 -109t-87.5 -56.5t-94.5 -14.5q-53 0 -86.5 26t-33.5 66q0 28 17.5 48t43.5 20
q20 0 32.5 -12.5t12.5 -32.5t-9.5 -32t-19 -18.5t-9.5 -11.5q0 -11 14.5 -18t35.5 -7q117 0 153 127l40 145l-2 2q-25 -46 -63 -84t-80 -38q-46 0 -68 35t-22 83q0 66 52 170t52 146q0 34 -27 34q-46 0 -106 -159zM249 546h-28l149 146q23 22 38 22q14 0 22.5 -9t8.5 -22
q0 -17 -22 -31z" />
    <glyph glyph-name="thorn" unicode="&#xfe;" horiz-adv-x="500" 
d="M-126 -184l8 34q57 3 72.5 15.5t29.5 66.5q25 94 48 181.5t39 146.5t30.5 113.5t23.5 88t17 63t12 45.5t7 28.5t4 19t1 10.5q0 17 -11 21.5t-49 4.5l8 34l160 6l-81 -293l2 -1q55 90 114 90q43 0 80 -48.5t37 -130.5q0 -76 -32.5 -151t-89 -123.5t-117.5 -48.5
q-62 0 -77 84h-2l-30 -119q-12 -46 -12 -65q0 -20 15.5 -29t58.5 -9l-8 -34h-258zM138 122q0 -60 13.5 -83t41.5 -23q36 0 73 62.5t58.5 143.5t21.5 143q0 47 -13 69t-32 22q-34 0 -73 -59t-64.5 -138t-25.5 -137z" />
    <glyph glyph-name="ydieresis" unicode="&#xff;" horiz-adv-x="481" 
d="M-15 297l-27 13q40 103 75 141.5t73 38.5q32 0 53 -27.5t21 -77.5q0 -40 -10 -74t-36 -97q-46 -109 -46 -147q0 -39 32 -39q39 0 92 80.5t73 149.5l63 220h88l-135 -490q-18 -67 -61 -109t-87.5 -56.5t-94.5 -14.5q-53 0 -86.5 26t-33.5 66q0 28 17.5 48t43.5 20
q20 0 32.5 -12.5t12.5 -32.5t-9.5 -32t-19 -18.5t-9.5 -11.5q0 -11 14.5 -18t35.5 -7q117 0 153 127l40 145l-2 2q-25 -46 -63 -84t-80 -38q-46 0 -68 35t-22 83q0 66 52 170t52 146q0 34 -27 34q-46 0 -106 -159zM163 610q0 18 12.5 31t31.5 13t31.5 -13t12.5 -31
t-12.5 -31t-31.5 -13t-31.5 13t-12.5 31zM339 610q0 18 12.5 31t31.5 13t31.5 -13t12.5 -31t-12.5 -31t-31.5 -13t-31.5 13t-12.5 31z" />
    <glyph glyph-name="dotlessi" unicode="&#x131;" horiz-adv-x="315" 
d="M238 188l26 -10q-34 -93 -73 -141.5t-88 -48.5q-36 0 -55.5 29.5t-19.5 76.5q0 58 52 174.5t52 154.5q0 33 -24 33q-45 0 -109 -156l-26 8q67 182 147 182q33 0 53.5 -29t20.5 -76q0 -50 -24.5 -119t-49 -127t-24.5 -81q0 -36 25 -36q54 0 117 166z" />
    <glyph glyph-name="Lslash" unicode="&#x141;" horiz-adv-x="519" 
d="M-22 270l14 42l104 31l50 185q20 72 20 89q0 19 -15 28t-53 9l8 34h260l-8 -34q-48 -1 -68 -13t-28 -43l-61 -224l197 58l-14 -42l-194 -57l-47 -174q-16 -58 -16 -78q0 -25 13 -36t44 -11q161 0 242 236l34 -8l-76 -262h-462l8 34q52 1 72.5 16.5t31.5 59.5l52 192z" />
    <glyph glyph-name="lslash" unicode="&#x142;" horiz-adv-x="278" 
d="M-32 298l8 40l94 43q64 225 64 247q0 17 -11 21.5t-49 4.5l8 34l160 6q-72 -262 -73 -268l95 44l-8 -40l-99 -46q-83 -298 -83 -331q0 -25 19 -25q26 0 56 51t51 109l28 -12q-70 -188 -154 -188q-32 0 -53 24.5t-21 67.5q0 53 59 259z" />
    <glyph glyph-name="OE" unicode="&#x152;" horiz-adv-x="907" 
d="M716 0h-372q-15 0 -72 -3q-30 -3 -53 -3q-73 0 -130 71.5t-57 200.5q0 102 49 201.5t130.5 163t169.5 63.5q19 0 38 -3q1 0 16 -1.5t22 -1.5h429l-66 -258h-34q8 85 8 101q0 58 -30.5 90.5t-79.5 32.5q-70 0 -88 -67l-56 -203h27q38 0 60 25t43 91h34l-74 -276h-34
q4 15 4 46q0 41 -15 57.5t-53 16.5q-10 -36 -21 -74.5t-16.5 -58.5t-11.5 -42t-8.5 -32.5t-5 -22.5t-3 -19t-0.5 -16q0 -45 63 -45q69 0 124 54.5t98 183.5h40zM126 175q0 -64 27.5 -102.5t78.5 -38.5q44 0 86 31t58 88l76 271q26 95 26 134q0 96 -102 96q-71 0 -131 -87
t-89.5 -195.5t-29.5 -196.5z" />
    <glyph glyph-name="oe" unicode="&#x153;" horiz-adv-x="667" 
d="M561 411q0 45 -37 45t-72 -39.5t-56.5 -89t-33.5 -99.5q74 5 136.5 59.5t62.5 123.5zM561 195l24 -11q-32 -86 -83 -141t-112 -55q-75 0 -107 75q-67 -75 -154 -75q-64 0 -102.5 52t-38.5 148q0 68 28.5 136.5t85.5 117t127 48.5q93 0 126 -100q42 46 91 73t86 27
q41 0 66 -23t25 -66q0 -79 -81 -135.5t-188 -71.5q-9 -33 -9 -84q0 -88 59 -88q42 0 84 50t73 123zM62 112q0 -96 67 -96q40 0 74 43.5t53.5 104.5t30 115.5t10.5 86.5q0 96 -68 96q-40 0 -74 -43.5t-53 -104.5t-29.5 -115.5t-10.5 -86.5z" />
    <glyph glyph-name="Scaron" unicode="&#x160;" horiz-adv-x="500" 
d="M-18 0l-34 4l70 258h34q-8 -75 -8 -97q0 -64 33 -105.5t100 -41.5q53 0 97 47t44 114q0 39 -24.5 71t-59 55.5t-69 48.5t-59 61.5t-24.5 81.5q0 82 67.5 144.5t153.5 62.5q69 0 139 -58l34 42h34l-66 -252h-34q4 66 4 91q0 143 -105 143q-57 0 -95 -33.5t-38 -87.5
q0 -40 25 -72t60.5 -55.5t71 -48t60.5 -63t25 -87.5q0 -91 -73 -165t-176 -74q-78 0 -153 64zM327 776l138 112h34l-158 -168h-38l-90 168h34z" />
    <glyph glyph-name="scaron" unicode="&#x161;" horiz-adv-x="370" 
d="M-42 94q0 32 17.5 53t41.5 21q22 0 34.5 -14t12.5 -38q0 -21 -12.5 -34t-25 -19.5t-12.5 -11.5q0 -12 20.5 -23.5t51.5 -11.5q48 0 81 29.5t33 71.5q0 25 -17.5 45t-42.5 35t-50 31.5t-42.5 43.5t-17.5 62q0 60 50 108t123 48q63 0 93 -29t30 -66q0 -25 -16 -43t-41 -18
q-22 0 -35.5 12.5t-13.5 31.5q0 18 9.5 30.5t19 19.5t9.5 11t-4.5 9t-17.5 9.5t-31 4.5q-38 0 -66.5 -24t-28.5 -65q0 -27 17.5 -47.5t42.5 -35.5t50 -31.5t42.5 -44.5t17.5 -67q0 -61 -55.5 -110t-131.5 -49q-63 0 -99 29t-36 77zM228 602l138 112h34l-158 -168h-38
l-90 168h34z" />
    <glyph glyph-name="Ydieresis" unicode="&#x178;" horiz-adv-x="500" 
d="M278 0h-266l8 34q50 3 70 17t31 56l49 181l-59 318q-4 25 -16.5 35t-44.5 13l8 34h232l-8 -34q-41 0 -57.5 -8.5t-16.5 -36.5q0 -12 48 -271l160 220q34 47 34 69q0 15 -14 20t-48 7l8 34h200l-8 -34q-35 -3 -60 -21.5t-63 -70.5l-197 -270q-58 -216 -58 -221
q0 -20 15.5 -27t60.5 -10zM215 784q0 18 12.5 31t31.5 13t31.5 -13t12.5 -31t-12.5 -31t-31.5 -13t-31.5 13t-12.5 31zM391 784q0 18 12.5 31t31.5 13t31.5 -13t12.5 -31t-12.5 -31t-31.5 -13t-31.5 13t-12.5 31z" />
    <glyph glyph-name="Zcaron" unicode="&#x17d;" horiz-adv-x="481" 
d="M120 688h394l-6 -34l-472 -620h24q129 0 199.5 48.5t120.5 177.5h34l-68 -260h-424v24l482 630h-50q-106 0 -167.5 -50t-100.5 -166h-34zM315 776l138 112h34l-158 -168h-38l-90 168h34z" />
    <glyph glyph-name="zcaron" unicode="&#x17e;" horiz-adv-x="389" 
d="M294 191l25 -10q-25 -92 -68 -142.5t-96 -50.5q-45 0 -87 52q-14 20 -29 36t-28 16q-8 0 -14.5 -6.5t-6.5 -17.5q0 -4 3 -16t3 -21q0 -14 -8.5 -24.5t-24.5 -10.5q-29 0 -29 37q0 45 37 93t104 91q27 18 65.5 42t59 37t43 28t34.5 24.5t18 16.5l-2 2q-23 -15 -57 -15
q-31 0 -71 25q-38 25 -57 25q-25 0 -44 -21t-45 -80l-25 11q38 96 82.5 137t81.5 41q22 0 39.5 -15.5t27.5 -33.5t25 -33.5t32 -15.5q14 0 22.5 7.5t8.5 16.5q0 6 -2.5 17.5t-2.5 17.5q0 39 27 39q13 0 22 -10.5t9 -29.5q0 -40 -30.5 -82t-78.5 -78t-97 -67t-97 -61.5
t-67 -49.5l2 -2q23 16 60 16q34 0 62 -13.5t48.5 -27t36.5 -13.5q23 0 43 26t46 93zM229 602l138 112h34l-158 -168h-38l-90 168h34z" />
    <glyph glyph-name="florin" unicode="&#x192;" 
d="M44 386l8 34h110l20 86q23 97 77 147.5t117 50.5q50 0 75 -21.5t25 -50.5q0 -26 -20 -47t-47 -21q-20 0 -32.5 11.5t-12.5 31.5q0 40 38 57q-10 12 -28 12q-68 0 -107 -178l-17 -78h118l-8 -34h-118l-72 -320q-31 -137 -86 -197.5t-134 -60.5q-40 0 -63 19t-23 50
t19.5 50t44.5 19q22 0 35 -12.5t13 -34.5q0 -33 -38 -55q7 -8 25 -8q68 0 106 173l85 377h-110z" />
    <glyph glyph-name="circumflex" unicode="&#x2c6;" horiz-adv-x="315" 
d="M210 658l-122 -112h-40l150 168h40l80 -168h-34z" />
    <glyph glyph-name="caron" unicode="&#x2c7;" horiz-adv-x="315" 
d="M200 602l138 112h34l-158 -168h-38l-90 168h34z" />
    <glyph glyph-name="uni02C9" unicode="&#x2c9;" horiz-adv-x="315" 
d="M336 584h-260l8 48h260z" />
    <glyph glyph-name="breve" unicode="&#x2d8;" horiz-adv-x="315" 
d="M88 698h28q1 -45 25.5 -70.5t60.5 -25.5q97 0 124 96h22q-10 -62 -48 -107t-96 -45q-54 0 -84.5 39.5t-31.5 112.5z" />
    <glyph glyph-name="dotaccent" unicode="&#x2d9;" horiz-adv-x="315" 
d="M168 610q0 18 12.5 31t31.5 13t31.5 -13t12.5 -31t-12.5 -31t-31.5 -13t-31.5 13t-12.5 31z" />
    <glyph glyph-name="ring" unicode="&#x2da;" horiz-adv-x="315" 
d="M144 644q0 -27 19.5 -46.5t46.5 -19.5t46.5 19.5t19.5 46.5t-19.5 46.5t-46.5 19.5t-46.5 -19.5t-19.5 -46.5zM110 644q0 41 29 70.5t71 29.5t71 -29.5t29 -70.5t-29 -70.5t-71 -29.5t-71 29.5t-29 70.5z" />
    <glyph glyph-name="ogonek" unicode="&#x2db;" horiz-adv-x="315" 
d="M222 18v-8q-178 -59 -178 -137q0 -16 13.5 -27.5t39.5 -11.5q37 0 109 40l12 -28q-99 -52 -147 -52q-43 0 -66 17t-23 46q0 46 39 81.5t90.5 53.5t110.5 26z" />
    <glyph glyph-name="tilde" unicode="&#x2dc;" horiz-adv-x="315" 
d="M332 676h22q-6 -41 -26.5 -71.5t-55.5 -30.5q-23 0 -67 21q-42 21 -66 21q-16 0 -30 -14.5t-15 -31.5h-22q16 102 84 102q26 0 66 -21t65 -21q31 0 45 46z" />
    <glyph glyph-name="hungarumlaut" unicode="&#x2dd;" horiz-adv-x="315" 
d="M100 546h-26l144 146q22 22 37 22q14 0 22.5 -9t8.5 -21q0 -16 -22 -31zM216 546h-28l149 146q23 22 38 22q14 0 22.5 -9t8.5 -22q0 -17 -22 -31z" />
    <glyph glyph-name="uni03A9" unicode="&#x3a9;" horiz-adv-x="581" 
d="M475 129l-55 -129h-190v15q6 9 40 57t51.5 75t45.5 72t46.5 87t29.5 83q30 102 24.5 166t-31 93t-67.5 29q-70 0 -133.5 -70.5t-106.5 -221.5q-14 -49 -19.5 -99.5t-1 -105.5t8 -82.5t12.5 -82.5l-12 -15h-186l20 129l21 1q-1 -45 8 -59t33 -14h85q-94 161 -45 334
q41 141 133 227t192 86q102 0 143 -83t1 -224q-46 -160 -239 -340h87q26 0 41 12.5t42 60.5z" />
    <glyph glyph-name="uni03BC" unicode="&#x3bc;" horiz-adv-x="537" 
d="M-12 300l-28 12q63 178 148 178q36 0 60 -32.5t24 -79.5q0 -56 -44 -168q-44 -110 -44 -144q0 -44 30 -44q32 0 83.5 75t88.5 209l48 172h88q-17 -63 -41 -146.5t-36.5 -128.5t-22.5 -87.5t-10 -60.5q0 -27 18 -27q44 0 104 164l28 -12q-30 -86 -69 -139t-80 -53
q-30 0 -46.5 23t-16.5 59t6 68l-2 2q-76 -152 -154 -152q-34 0 -54 19l-56 -143q-8 -20 -13.5 -30t-16 -18t-24.5 -8q-15 0 -25.5 11.5t-10.5 30.5q0 10 5 27t17 47.5t25.5 63t36.5 89.5t44 111q67 171 74 212q2 14 2 24q0 15 -7.5 23.5t-19.5 8.5q-27 0 -56.5 -43
t-52.5 -113z" />
    <glyph glyph-name="pi" unicode="&#x3c0;" horiz-adv-x="475" 
d="M447 462l19 -8q-18 -37 -51 -76q-16 -4 -62 -4q-27 -75 -73 -242q-27 -93 12 -93q22 0 53 30l8 -17q-51 -64 -105 -64q-24 0 -36.5 10.5t-15.5 38.5t13 77q25 88 85 263q-26 0 -70 1t-61 1l-6 -21q-30 -104 -66.5 -188.5t-57.5 -117.5t-34 -47q-35 -15 -57 -17l-1 15
q62 62 111 168t79 209q-29 0 -52 -6t-35.5 -13t-37.5 -23l-6 19q16 15 20.5 19t24.5 19t34.5 21.5t39 12.5t49.5 6q29 0 100.5 -1.5t117.5 -1.5q22 0 33.5 5.5t27.5 24.5z" />
    <glyph glyph-name="endash" unicode="&#x2013;" horiz-adv-x="500" 
d="M470 267l-16 -56h-500l16 56h500z" />
    <glyph glyph-name="emdash" unicode="&#x2014;" horiz-adv-x="1000" 
d="M970 267l-16 -56h-1000l16 56h1000z" />
    <glyph glyph-name="quoteleft" unicode="&#x2018;" horiz-adv-x="204" 
d="M176 714l28 -24q-68 -68 -92 -142q62 -6 62 -65q0 -27 -15.5 -45t-40.5 -18q-24 0 -40 19.5t-16 50.5q0 52 35 116.5t79 107.5z" />
    <glyph glyph-name="quoteright" unicode="&#x2019;" horiz-adv-x="204" 
d="M90 410l-28 24q68 68 92 142q-62 6 -62 65q0 27 15.5 45t40.5 18q24 0 40 -19.5t16 -50.5q0 -52 -35 -116.5t-79 -107.5z" />
    <glyph glyph-name="quotesinglbase" unicode="&#x201a;" horiz-adv-x="204" 
d="M-18 -178l-28 24q68 68 92 142q-62 6 -62 65q0 27 15.5 45t40.5 18q24 0 40 -19.5t16 -50.5q0 -52 -35 -116.5t-79 -107.5z" />
    <glyph glyph-name="quotedblleft" unicode="&#x201c;" horiz-adv-x="352" 
d="M166 714l28 -24q-68 -68 -92 -142q62 -6 62 -65q0 -27 -15.5 -45t-40.5 -18q-24 0 -40 19.5t-16 50.5q0 52 35 116.5t79 107.5zM333 714l28 -24q-68 -68 -92 -142q62 -6 62 -65q0 -27 -15.5 -45t-40.5 -18q-24 0 -40 19.5t-16 50.5q0 52 35 116.5t79 107.5z" />
    <glyph glyph-name="quotedblright" unicode="&#x201d;" horiz-adv-x="352" 
d="M247 410l-28 24q68 68 92 142q-62 6 -62 65q0 27 15.5 45t40.5 18q24 0 40 -19.5t16 -50.5q0 -52 -35 -116.5t-79 -107.5zM80 410l-28 24q68 68 92 142q-62 6 -62 65q0 27 15.5 45t40.5 18q24 0 40 -19.5t16 -50.5q0 -52 -35 -116.5t-79 -107.5z" />
    <glyph glyph-name="quotedblbase" unicode="&#x201e;" horiz-adv-x="389" 
d="M140 -178l-28 24q68 68 92 142q-62 6 -62 65q0 27 15.5 45t40.5 18q24 0 40 -19.5t16 -50.5q0 -52 -35 -116.5t-79 -107.5zM-27 -178l-28 24q68 68 92 142q-62 6 -62 65q0 27 15.5 45t40.5 18q24 0 40 -19.5t16 -50.5q0 -52 -35 -116.5t-79 -107.5z" />
    <glyph glyph-name="dagger" unicode="&#x2020;" horiz-adv-x="407" 
d="M78 -78h-22q72 267 72 348q0 16 -1 32t-1 20q28 26 48.5 71.5t28.5 84.5q-45 0 -80 -15t-53 -15t-28 11t-10 29q0 17 11.5 28.5t31.5 11.5q17 0 49 -14t85 -14q13 43 13 84q0 13 -2 35t-2 33q0 23 12 37.5t33 14.5q19 0 30 -10.5t11 -27.5q0 -18 -31.5 -68.5t-43.5 -97.5
q45 0 80.5 15t54.5 15q18 0 28 -11t10 -29q0 -17 -11.5 -28.5t-31.5 -11.5q-18 0 -50.5 14t-85.5 14q-13 -38 -13 -96q0 -31 12 -64q-67 -94 -144 -396z" />
    <glyph glyph-name="daggerdbl" unicode="&#x2021;" horiz-adv-x="407" 
d="M305 666q0 -18 -31.5 -68.5t-43.5 -97.5q45 0 80.5 15t54.5 15q18 0 28 -11t10 -29q0 -17 -11.5 -28.5t-31.5 -11.5q-18 0 -50.5 14t-85.5 14q-14 -28 -14 -96q0 -20 8 -64q-28 -27 -49.5 -73t-27.5 -83q45 0 80 15t53 15t28 -11t10 -29q0 -17 -11.5 -28.5t-31.5 -11.5
q-17 0 -49 14t-85 14q-13 -43 -13 -84q0 -13 2 -35t2 -33q0 -23 -12 -37.5t-33 -14.5q-19 0 -30 10.5t-11 27.5q0 18 31.5 68.5t43.5 97.5q-45 0 -80.5 -15t-54.5 -15q-18 0 -28 11t-10 29q0 17 11.5 28.5t31.5 11.5q18 0 50.5 -14t85.5 -14q13 29 13 96q0 20 -8 64
q28 27 49.5 72.5t28.5 83.5q-45 0 -80 -15t-53 -15t-28 11t-10 29q0 17 11.5 28.5t31.5 11.5q17 0 49 -14t85 -14q13 43 13 84q0 13 -2 35t-2 33q0 23 12 37.5t33 14.5q19 0 30 -10.5t11 -27.5z" />
    <glyph glyph-name="bullet" unicode="&#x2022;" horiz-adv-x="500" 
d="M56 344q0 71 50.5 121.5t121.5 50.5t121.5 -50.5t50.5 -121.5t-50.5 -121.5t-121.5 -50.5t-121.5 50.5t-50.5 121.5z" />
    <glyph glyph-name="ellipsis" unicode="&#x2026;" horiz-adv-x="1000" 
d="M36 48q0 27 17 47.5t39 20.5q23 0 36.5 -15.5t13.5 -40.5q0 -27 -17 -47.5t-39 -20.5q-23 0 -36.5 15.5t-13.5 40.5zM369 48q0 27 17 47.5t39 20.5q23 0 36.5 -15.5t13.5 -40.5q0 -27 -17 -47.5t-39 -20.5q-23 0 -36.5 15.5t-13.5 40.5zM702 48q0 27 17 47.5t39 20.5
q23 0 36.5 -15.5t13.5 -40.5q0 -27 -17 -47.5t-39 -20.5q-23 0 -36.5 15.5t-13.5 40.5z" />
    <glyph glyph-name="perthousand" unicode="&#x2030;" horiz-adv-x="852" 
d="M588 73q0 -61 40 -61q31 0 55.5 42.5t35.5 93.5t11 91q0 61 -40 61q-31 0 -55.5 -42.5t-35.5 -93.5t-11 -91zM576 704l-538 -720h-50l538 720h50zM116 449q0 -61 40 -61q31 0 55.5 42.5t35.5 93.5t11 91q0 61 -40 61q-31 0 -55.5 -42.5t-35.5 -93.5t-11 -91zM694 328
q39 0 65.5 -35.5t26.5 -89.5q0 -92 -51.5 -155.5t-110.5 -63.5q-39 0 -65.5 35.5t-26.5 89.5q0 92 51.5 155.5t110.5 63.5zM222 704q39 0 65.5 -35.5t26.5 -89.5q0 -92 -51.5 -155.5t-110.5 -63.5q-39 0 -65.5 35.5t-26.5 89.5q0 92 51.5 155.5t110.5 63.5zM406 328
q39 0 65.5 -35.5t26.5 -89.5q0 -92 -51.5 -155.5t-110.5 -63.5q-39 0 -65.5 35.5t-26.5 89.5q0 92 51.5 155.5t110.5 63.5zM300 73q0 -61 40 -61q31 0 55.5 42.5t35.5 93.5t11 91q0 61 -40 61q-31 0 -55.5 -42.5t-35.5 -93.5t-11 -91z" />
    <glyph glyph-name="guilsinglleft" unicode="&#x2039;" horiz-adv-x="333" 
d="M228 410l-98 -166l20 -176h-40l-54 176l124 166h48z" />
    <glyph glyph-name="guilsinglright" unicode="&#x203a;" horiz-adv-x="333" 
d="M18 68l98 166l-20 176h40l54 -176l-124 -166h-48z" />
    <glyph glyph-name="fraction" unicode="&#x2044;" horiz-adv-x="167" 
d="M-167 -16l435 720h66l-435 -720h-66z" />
    <glyph glyph-name="Euro" unicode="&#x20ac;" 
d="M279 325l-16 -38h-129q-12 -72 -12 -121q0 -148 69 -148q50 0 89.5 57t64.5 140l30 -9q-65 -222 -194 -222q-64 0 -102 58.5t-38 168.5q0 34 5 76h-61l16 38h50q5 31 17 70h-68l16 38h64q43 119 118.5 195t147.5 76q61 0 92 -56l22 40h30l-55 -218h-32q8 54 8 92
q0 108 -66 108q-42 0 -89.5 -67.5t-83.5 -169.5h151l-16 -38h-147q-14 -46 -19 -70h138z" />
    <glyph glyph-name="afii61289" unicode="&#x2113;" horiz-adv-x="348" 
d="M228 98l14 -14q-75 -98 -165 -98q-61 0 -75 39q-15 41 13 142l27 93l-59 -42l-6 21l74 55l36 124q36 127 60 180t62 89q44 46 84 46q36 0 46 -36.5t-7 -92.5q-44 -150 -211 -296l-31 -109q-26 -97 -18 -131t47 -34q50 0 109 64zM170 477l-36 -126q53 52 96 122t61 133
q29 99 -12 99q-24 0 -49 -51.5t-60 -176.5z" />
    <glyph glyph-name="trademark" unicode="&#x2122;" horiz-adv-x="990" 
d="M162 364v296h-38q-55 0 -66 -60h-28v88h334v-88h-28q-11 60 -66 60h-38v-296q0 -32 8 -39.5t42 -10.5v-24h-170v24q34 3 42 10.5t8 39.5zM653 286l-151 308h-2v-215q0 -33 10.5 -47t41.5 -18v-24h-128v24q29 4 38.5 18t9.5 47v233q-6 21 -24.5 34.5t-39.5 13.5v28h122
l147 -303l152 303h107v-28q-28 -1 -40 -14.5t-12 -40.5v-241q0 -31 7 -39t39 -11v-24h-166v24q34 3 42 10.5t8 39.5v224h-2l-150 -302h-9z" />
    <glyph glyph-name="Omega" unicode="&#x2126;" horiz-adv-x="581" 
d="M475 129l-55 -129h-190v15q6 9 40 57t51.5 75t45.5 72t46.5 87t29.5 83q30 102 24.5 166t-31 93t-67.5 29q-70 0 -133.5 -70.5t-106.5 -221.5q-14 -49 -19.5 -99.5t-1 -105.5t8 -82.5t12.5 -82.5l-12 -15h-186l20 129l21 1q-1 -45 8 -59t33 -14h85q-94 161 -45 334
q41 141 133 227t192 86q102 0 143 -83t1 -224q-46 -160 -239 -340h87q26 0 41 12.5t42 60.5z" />
    <glyph glyph-name="estimated" unicode="&#x212e;" horiz-adv-x="953" 
d="M919 333h-647q-5 0 -5 -4v-196q0 -11 8 -22q103 -106 245 -106q76 0 142.5 32t114.5 87h58q-54 -64 -137.5 -101.5t-178.5 -37.5q-165 0 -282 105t-117 253q0 149 117 254t282 105q166 0 283 -105t117 -254v-10zM772 359v197q0 14 -9 23q-104 102 -243 102
q-141 0 -243 -105q-10 -10 -10 -25v-192q0 -6 5 -6h496q4 0 4 6z" />
    <glyph glyph-name="partialdiff" unicode="&#x2202;" horiz-adv-x="437" 
d="M224 416h1q70 0 91 -64q25 66 38 108q27 80 23 156q-3 41 -24.5 70.5t-61.5 29.5q-57 0 -121 -46q-7 -1 -11.5 8t-4 21.5t6.5 22.5q62 38 123 38q109 0 130 -141q14 -94 -25 -230q-43 -149 -111 -251q-102 -152 -211 -152q-67 0 -92 50.5t1 144.5q25 90 94 161
q32 32 74 53t80 21zM229 381h-1q-54 0 -107 -59q-60 -72 -91 -183q-16 -47 -4.5 -87t48.5 -40q57 0 128 107q46 70 96 192q-3 26 -20.5 48t-48.5 22z" />
    <glyph glyph-name="Delta" unicode="&#x2206;" horiz-adv-x="522" 
d="M377 0h-462l6 21l407 674l31 9l24 -683zM306 41l-16 536l-319 -536h335z" />
    <glyph glyph-name="product" unicode="&#x220f;" horiz-adv-x="647" 
d="M624 692v-23q-53 -4 -65 -14.5t-12 -51.5v-596q0 -45 12.5 -57t62.5 -16v-23h-210v23q48 4 58.5 15t10.5 58v626q0 19 -5.5 24.5t-25.5 5.5h-170q-19 0 -24.5 -4.5t-5.5 -22.5v-629q0 -46 8.5 -57t55.5 -16v-23h-204v23q50 5 61.5 16t11.5 57v596q0 41 -11.5 51.5
t-64.5 14.5v23h517z" />
    <glyph glyph-name="summation" unicode="&#x2211;" horiz-adv-x="539" 
d="M520 74l-35 -164h-376v20l193 354l-189 388v20h373q0 -8 2 -30.5t4 -56.5t4 -57l-24 -4q-8 54 -25 87q-8 19 -25.5 25.5t-64.5 6.5h-159l165 -330l-194 -359h211q56 0 74.5 16t42.5 90z" />
    <glyph glyph-name="minus" unicode="&#x2212;" horiz-adv-x="600" 
d="M24 211v56h478v-56h-478z" />
    <glyph glyph-name="uni2215" unicode="&#x2215;" horiz-adv-x="167" 
d="M-167 -16l435 720h66l-435 -720h-66z" />
    <glyph glyph-name="uni2219" unicode="&#x2219;" horiz-adv-x="222" 
d="M16 239q0 23 17.5 41t41.5 18t41.5 -18t17.5 -41t-17.5 -41t-41.5 -18t-41.5 18t-17.5 41z" />
    <glyph glyph-name="radical" unicode="&#x221a;" horiz-adv-x="556" 
d="M539 889l-141 -1035l-16 -9l-185 543l-74 -34l-9 29l130 58l142 -434h2l118 890z" />
    <glyph glyph-name="infinity" unicode="&#x221e;" horiz-adv-x="669" 
d="M628 290v-1q0 -62 -39 -101t-93 -39q-40 0 -75.5 23t-80.5 77q-42 -49 -78.5 -74.5t-83.5 -25.5q-53 0 -91.5 39t-38.5 97q0 61 38.5 100t97.5 39q45 0 82 -26t76 -74q52 57 76 73q39 27 84 27q56 0 91 -37t35 -97zM184 193h1q10 0 20 2.5t17.5 5.5t18 10.5t15.5 11
t16.5 15t14 14.5t14.5 16.5t13 14.5q-25 32 -39.5 48.5t-41 32.5t-54.5 16q-39 0 -61.5 -27.5t-21.5 -68.5q0 -39 25 -65t63 -26zM497 380h-1q-13 0 -27.5 -5t-24.5 -11.5t-23.5 -18.5t-20 -19t-19 -21.5t-15.5 -17.5q46 -53 73 -73.5t59 -20.5q38 0 61 28t23 64
q0 44 -23.5 69.5t-61.5 25.5z" />
    <glyph glyph-name="integral" unicode="&#x222b;" horiz-adv-x="414" 
d="M230 15l-18 418q-2 86 0 149t12.5 108t22.5 73t30 44t34.5 22t36.5 6q19 0 34.5 -11t16.5 -30q0 -18 -11 -27.5t-27 -9.5q-15 0 -25.5 18.5t-20.5 18.5q-48 0 -42 -162l17 -381q5 -105 -0.5 -184t-17.5 -125.5t-31.5 -75.5t-40 -39t-45.5 -10q-23 0 -37 12.5t-14 29.5
q-1 18 11.5 29t31.5 11q14 0 25 -20t20 -20q21 0 31.5 42t6.5 114z" />
    <glyph glyph-name="approxequal" unicode="&#x2248;" horiz-adv-x="455" 
d="M390 413l31 -24q-39 -87 -108 -87q-36 0 -92 34q-46 30 -74 30q-44 0 -78 -65l-32 24q18 40 48.5 63.5t66.5 23.5q11 0 22 -2t21.5 -7t17 -8.5t17 -9.5t13.5 -8t15 -9t16 -9t12.5 -6t15 -5t14.5 -1q39 0 74 66zM390 266l31 -24q-39 -88 -108 -88q-36 0 -92 35
q-49 31 -74 31q-43 0 -78 -66l-32 23q18 41 48.5 64.5t66.5 23.5q14 0 29.5 -4.5t22.5 -8t23 -12.5l16 -10q49 -30 73 -30q39 0 74 66z" />
    <glyph glyph-name="notequal" unicode="&#x2260;" horiz-adv-x="474" 
d="M348 470l-35 -80h120v-48h-137l-53 -122h190v-47h-207l-41 -95l-37 15l35 80h-117v47h135l52 122h-187v48h204l42 95z" />
    <glyph glyph-name="lessequal" unicode="&#x2264;" horiz-adv-x="496" 
d="M453 112l-361 199v49l361 199v-57l-313 -164v-3l313 -166v-57zM456 26h-368v49h368v-49z" />
    <glyph glyph-name="greaterequal" unicode="&#x2265;" horiz-adv-x="496" 
d="M93 559l361 -199v-49l-361 -199v57l312 166v2l-312 165v57zM455 26h-367v49h367v-49z" />
    <glyph glyph-name="lozenge" unicode="&#x25ca;" horiz-adv-x="561" 
d="M518 338l-165 -398h-58l-164 398l165 400h58zM465 338l-138 347h-3l-140 -346l140 -347h3z" />
    </font>
</defs>
</svg>
