<svg viewBox="0 0 499 158" xmlns="http://www.w3.org/2000/svg" fill-rule="evenodd" clip-rule="evenodd" stroke-linejoin="round" stroke-miterlimit="2">
  <path d="M306 104h-13v-4c-3 3-8 5-12 5-14 0-21-12-21-24s7-24 20-24c5 0 10 2 13 6v-4h13v45zm-49-23c0 14-10 24-24 24s-23-10-23-24 9-24 23-24 24 10 24 24zm196 0c0 14-10 24-24 24s-24-10-24-24 10-24 24-24 24 10 24 24zm18-18h1c2-4 7-6 11-6 13 0 16 9 16 19v28h-13V80c0-5 0-12-7-12s-8 8-8 13v23h-12V59h12v4zm-143 41h-13V26h13v78zm46 0h-12V70h-5V59h5V43h12v16h8v11h-8v34zm25 0h-13V59h13v45zm-49 0h-13V59h13v45zm-56-23c0-6-4-12-10-12-7 0-11 6-11 12s4 13 11 13c6 0 10-7 10-13zm-71 0c0 6 4 13 10 13 7 0 11-7 11-13s-4-12-11-12c-6 0-10 6-10 12zm195 0c0 6 4 13 11 13 6 0 11-7 11-13s-5-12-11-12c-7 0-11 6-11 12zm-18-41c0 4-4 7-8 7s-7-3-7-7 3-8 7-8 8 4 8 8zm-49 0c0 4-3 7-7 7s-8-3-8-7 4-8 8-8 7 4 7 8z" fill="#19a1ac" fill-rule="nonzero"/>
  <path d="M268 121a53 53 0 11-2-86l14-22a79 79 0 104 129l-16-21z" fill="#c11f02"/>
  <path d="M108 63c3-4 8-6 13-6 13 0 20 12 20 24s-7 24-20 24c-5 0-10-2-12-5h-1v28H95V59h13v4zM60 83c0 6 2 12 9 12 4 0 7-2 8-6l12 2c-3 9-11 14-20 14-14 0-23-10-23-23 0-14 8-25 22-25 15 0 22 11 22 25v1H60zM13 26v36c3-3 7-5 12-5 12 0 15 9 15 19v28H28V80c0-5 0-12-7-12-8 0-8 8-8 13v23H0V26h13zm115 55c0-6-4-12-10-12-7 0-11 6-11 12s4 13 11 13c6 0 10-7 10-13zm0 0zm-51-6c0-4-3-9-8-9s-8 5-9 9h17z" fill="#19a1ac" fill-rule="nonzero"/>
</svg>
